<?xml version="1.0" encoding="iso-8859-1"?>
<!-- Generator: Adobe Illustrator 16.0.0, SVG Export Plug-In . SVG Version: 6.00 Build 0)  -->
<!DOCTYPE svg PUBLIC "-//W3C//DTD SVG 1.1//EN" "http://www.w3.org/Graphics/SVG/1.1/DTD/svg11.dtd">
<svg version="1.1" id="Capa_1" xmlns="http://www.w3.org/2000/svg" xmlns:xlink="http://www.w3.org/1999/xlink" x="0px" y="0px"
	 width="380.721px" height="380.721px" viewBox="0 0 380.721 380.721" style="enable-background:new 0 0 380.721 380.721;"
	 xml:space="preserve">
<g>
	<path d="M335.797,246.99c-1.429,7.019-7.216,26.096-16.626,29.987c-3.277,1.337-6.879,0.663-10.992-2.079
		c-19.855-13.233-31.51-49.101-34.251-58.384l-1.395-44.308c0,0-43.257-1.633-43.117-106.329l0.256-0.023
		c-0.035-0.238-0.104-0.93-0.256-1.976c0.012-0.25,0-0.488,0.012-0.738c-0.034,0-0.081,0-0.116,0C227.546,50.646,218.6,0,190.169,0
		c-0.047,0-0.105,0-0.151,0c-29.604,0.204-38.109,55.003-39.394,64.722c-0.052,0-0.11,0-0.168,0c0.011,0.43,0,0.859,0.011,1.284
		c0,0.035,0,0.11-0.011,0.134h0.023c0.5,105.991-42.914,106.067-42.914,106.067l-1.487,46.644
		c-3.7,11.896-15.052,43.709-33.525,56.048c-4.131,2.73-7.709,3.416-10.985,2.079c-9.423-3.88-15.203-22.969-16.633-29.987
		l-7.981,1.627c0.615,3.021,6.413,29.628,21.512,35.866c2.114,0.872,4.27,1.313,6.483,1.313c3.927,0,7.97-1.383,12.112-4.147
		c12.548-8.377,21.913-23.981,28.233-37.842l-4.049,127.897l88.244,8.911v0.105l0.562-0.047l0.559,0.047v-0.105l88.231-8.911
		l-4.101-129.421c6.32,14.233,15.917,30.686,28.93,39.365c4.137,2.753,8.18,4.147,12.107,4.147c2.219,0,4.368-0.441,6.482-1.313
		c15.104-6.215,20.891-32.846,21.507-35.866L335.797,246.99z M189.478,66.581c-3.736,0-18.771-1.168-30.68-1.656
		c2.341-17.597,11.647-56.682,31.277-56.786c0.023,0,0.059,0,0.082,0c19.101,0,28.442,37.319,31.021,55.38
		c-11.875,0.883-26.84,3.062-30.568,3.062C190.61,66.581,190.191,66.581,189.478,66.581z"/>
</g>
<g>
</g>
<g>
</g>
<g>
</g>
<g>
</g>
<g>
</g>
<g>
</g>
<g>
</g>
<g>
</g>
<g>
</g>
<g>
</g>
<g>
</g>
<g>
</g>
<g>
</g>
<g>
</g>
<g>
</g>
</svg>
