<?xml version="1.0" encoding="iso-8859-1"?>
<!-- Generator: Adobe Illustrator 16.0.0, SVG Export Plug-In . SVG Version: 6.00 Build 0)  -->
<!DOCTYPE svg PUBLIC "-//W3C//DTD SVG 1.1//EN" "http://www.w3.org/Graphics/SVG/1.1/DTD/svg11.dtd">
<svg version="1.1" id="Capa_1" xmlns="http://www.w3.org/2000/svg" xmlns:xlink="http://www.w3.org/1999/xlink" x="0px" y="0px"
	 width="28px" height="28px" viewBox="0 0 28 28" style="enable-background:new 0 0 28 28;" xml:space="preserve">
<g>
	<g>
		<path d="M20.958,9.597c0-0.493,0.067-1.506-1.26-1.506c-0.361,0-1.452,0-2.702,0c-0.443-0.341-0.961-0.604-1.751-0.741
			c-0.009-0.243-0.065-0.585-0.293-0.854c-0.222-0.259-0.543-0.39-0.956-0.39c-0.414,0-0.733,0.132-0.949,0.392
			c-0.224,0.268-0.274,0.608-0.277,0.853c-0.789,0.138-1.598,0.4-2.04,0.741c-1.563,0-2.694,0-3.046,0
			c-1.088,0-0.906,1.098-0.906,1.506C7.271,9.597,20.602,9.597,20.958,9.597z M13.47,6.85c0.108-0.13,0.28-0.193,0.526-0.193
			c0.247,0,0.422,0.063,0.535,0.196c0.1,0.115,0.142,0.277,0.156,0.424c-0.224-0.021-0.447-0.033-0.683-0.033
			c-0.234,0-0.461,0.014-0.684,0.034C13.336,7.13,13.372,6.967,13.47,6.85z"/>
		<path d="M25.391,13.507c-0.427,0.15-0.988,0.705-1.283,1.018c-0.396-1.799-1.815-3.027-2.651-3.609h0.435v-0.789H6.213v0.788
			h0.511c-0.859,0.601-2.34,1.879-2.688,3.764c-0.201-0.225-0.913-0.991-1.426-1.171c-0.602-0.212-2.61,0-2.61,0v0.813
			c0,0,1.974-0.069,2.398,0.179c0.425,0.247,0.884,2.334,1.237,2.334c0.123,0,0.334,0,0.556,0c0.829,2.52,3.687,4.274,3.687,4.274
			H7.296v0.786h13.488v-0.786H20.3c0,0,2.856-1.757,3.687-4.274c0.152,0,0.289,0,0.381,0c0.354,0,0.812-2.087,1.234-2.334
			C26.025,14.251,28,14.32,28,14.32v-0.813C28,13.507,25.991,13.295,25.391,13.507z M8.246,19.501
			c-0.409-0.27-0.859-0.643-1.25-1.145c-0.189-0.254-0.383-0.529-0.523-0.84c-0.138-0.301-0.261-0.67-0.33-1.021
			c-0.017-0.172-0.038-0.271-0.05-0.5l0.016-0.506c-0.011-0.334,0.059-0.657,0.143-0.965c0.054-0.315,0.182-0.595,0.306-0.856
			c0.101-0.271,0.268-0.489,0.404-0.695c0.125-0.215,0.301-0.37,0.429-0.52c0.131-0.148,0.278-0.252,0.382-0.345
			c0.229-0.175,0.372-0.245,0.372-0.245s-0.368,0.539-0.68,1.38c-0.148,0.421-0.304,0.912-0.351,1.449
			c-0.017,0.133-0.034,0.269-0.051,0.403l0.009,0.418v0.425c0.004,0.081,0.042,0.286,0.061,0.428
			c0.051,0.267,0.115,0.492,0.222,0.759c0.112,0.247,0.222,0.5,0.363,0.729c0.278,0.462,0.604,0.869,0.903,1.214
			c0.606,0.678,1.088,1.11,1.088,1.11S9.065,20.044,8.246,19.501z"/>
	</g>
</g>
<g>
</g>
<g>
</g>
<g>
</g>
<g>
</g>
<g>
</g>
<g>
</g>
<g>
</g>
<g>
</g>
<g>
</g>
<g>
</g>
<g>
</g>
<g>
</g>
<g>
</g>
<g>
</g>
<g>
</g>
</svg>
