<?xml version="1.0" encoding="iso-8859-1"?>
<!-- Generator: Adobe Illustrator 16.0.0, SVG Export Plug-In . SVG Version: 6.00 Build 0)  -->
<!DOCTYPE svg PUBLIC "-//W3C//DTD SVG 1.1//EN" "http://www.w3.org/Graphics/SVG/1.1/DTD/svg11.dtd">
<svg version="1.1" id="Capa_1" xmlns="http://www.w3.org/2000/svg" xmlns:xlink="http://www.w3.org/1999/xlink" x="0px" y="0px"
	 width="225.623px" height="225.623px" viewBox="0 0 225.623 225.623" style="enable-background:new 0 0 225.623 225.623;"
	 xml:space="preserve">
<g>
	<path d="M185.527,1.406l-69.294-1.278V0L112.8,0.07L109.384,0v0.128L40.084,1.406c0,0-20.24,58.535-20.24,114.583
		c0,56.048,30.812,103.987,30.812,103.987h11.997v5.646h100.868v-5.646h11.444c0,0,30.812-47.939,30.812-103.987
		C205.778,59.941,185.527,1.406,185.527,1.406z M48.293,117.523c0-43.128,9.098-103.366,9.098-103.366l10.398,188.136
		C67.789,202.293,48.293,160.651,48.293,117.523z"/>
</g>
<g>
</g>
<g>
</g>
<g>
</g>
<g>
</g>
<g>
</g>
<g>
</g>
<g>
</g>
<g>
</g>
<g>
</g>
<g>
</g>
<g>
</g>
<g>
</g>
<g>
</g>
<g>
</g>
<g>
</g>
</svg>
