<?xml version="1.0" encoding="iso-8859-1"?>
<!-- Generator: Adobe Illustrator 16.0.0, SVG Export Plug-In . SVG Version: 6.00 Build 0)  -->
<!DOCTYPE svg PUBLIC "-//W3C//DTD SVG 1.1//EN" "http://www.w3.org/Graphics/SVG/1.1/DTD/svg11.dtd">
<svg version="1.1" id="Capa_1" xmlns="http://www.w3.org/2000/svg" xmlns:xlink="http://www.w3.org/1999/xlink" x="0px" y="0px"
	 width="380.721px" height="380.72px" viewBox="0 0 380.721 380.72" style="enable-background:new 0 0 380.721 380.72;"
	 xml:space="preserve">
<g>
	<path d="M211.598,137.844C211.598,121.653,209.634,0,209.634,0h-38.568c0,0-1.964,121.653-1.964,137.844
		c0,16.196-52.644,45.952-51.552,67.202c1.098,21.263,5.13,141.992,7.175,157.178c2.045,15.162,43.796,17.938,65.64,18.45
		c21.837,0.523,63.583-3.276,65.64-18.45c2.045-15.186,6.076-135.915,7.168-157.178
		C264.241,183.796,211.598,154.041,211.598,137.844z M168.91,169.563c-3.556,4.38-8.15,11.055-13.1,19.037
		c-2.318,4.061-4.723,8.499-6.437,13.24c-0.831,2.381-1.411,4.821-1.661,7.18c-0.262,2.057-0.058,5.008,0.081,8.121
		c0.657,12.096,0.86,25.016,1.133,37.912c0.273,25.84-0.302,51.61-1.272,70.943c-0.465,9.679-1.325,17.777-1.702,23.424
		c-0.5,5.658-0.941,8.9-0.941,8.9s-0.558-3.242-1.308-8.877c-0.633-5.646-1.847-13.688-2.748-23.365
		c-0.988-9.69-1.859-20.995-2.585-33.113c-0.668-12.119-0.999-25.016-1.283-37.936c-0.093-12.896-0.262-25.816,0.046-37.912
		c0.07-2.939-0.046-5.948,0.622-9.678c0.686-3.393,1.876-6.391,3.184-9.145c2.666-5.46,5.891-9.933,9.091-13.814
		c6.367-7.744,12.804-12.932,17.155-16.609c4.438-3.602,7.238-5.315,7.238-5.315S172.419,165.102,168.91,169.563z"/>
</g>
<g>
</g>
<g>
</g>
<g>
</g>
<g>
</g>
<g>
</g>
<g>
</g>
<g>
</g>
<g>
</g>
<g>
</g>
<g>
</g>
<g>
</g>
<g>
</g>
<g>
</g>
<g>
</g>
<g>
</g>
</svg>
