<?xml version="1.0" encoding="iso-8859-1"?>
<!-- Generator: Adobe Illustrator 16.0.0, SVG Export Plug-In . SVG Version: 6.00 Build 0)  -->
<!DOCTYPE svg PUBLIC "-//W3C//DTD SVG 1.1//EN" "http://www.w3.org/Graphics/SVG/1.1/DTD/svg11.dtd">
<svg version="1.1" id="Capa_1" xmlns="http://www.w3.org/2000/svg" xmlns:xlink="http://www.w3.org/1999/xlink" x="0px" y="0px"
	 width="355.112px" height="355.113px" viewBox="0 0 355.112 355.113" style="enable-background:new 0 0 355.112 355.113;"
	 xml:space="preserve">
<g>
	<path d="M306.766,82.284c-5.159-15.703-15.197-27.257-29.059-33.386c-18.45-8.15-40.306-5.281-55.77-1.295
		C234.462,25.887,254.098,0,243.665,0c-14.791,0-98.324,0-98.324,0S61.82,0,47.019,0C32.205,0,78.034,52.168,78.034,70.502
		c0,18.334-23.045,130.663-5.879,152.054c11.863,14.791,37.075,17.648,51.518,18.021c-0.354,1.58-0.581,3.206-0.581,4.88
		c0,8.424,4.734,15.674,11.647,19.449c0.012,4.462-0.035,8.609-0.18,11.549h-0.25c-0.023,0.779-0.035,1.58-0.047,2.348
		c0,40.224-44.319,63.484-65.413,72.244c-4.543,2.033-3.201,4.066,0.012,4.066c3.044,0,69.434,0,76.132,0c0.371,0,0.68,0,0.68,0
		c6.709,0,73.104,0,76.137,0c3.23,0,4.543-2.033,0-4.066c-21.076-8.76-65.396-32.021-65.396-72.244
		c-0.012-0.768-0.035-1.568-0.047-2.348h-0.261c-0.134-2.939-0.181-7.087-0.169-11.549c6.901-3.764,11.647-11.025,11.647-19.449
		c0-1.686-0.227-3.3-0.568-4.88c14.441-0.349,39.643-3.219,51.505-18.021c4.078-5.078,5.833-15.383,6.216-28.269
		c2.87,0.372,5.74,0.593,8.609,0.593c19.474,0,38.446-8.284,53.19-23.696C308.845,147.801,316.792,112.899,306.766,82.284z
		 M111.264,218.943c-3.044-0.803-6.756-2.045-10.707-4.508c-1.929-1.279-3.997-2.801-5.734-4.927
		c-1.714-1.859-3.497-5.356-4.2-7.529c-1.824-6.216-1.836-11.735-2.236-17.962c-0.319-6.124-0.308-12.537-0.227-19.142
		c0.104-13.228,1.011-27.281,2.091-41.293c1.121-14.006,2.678-27.96,4.45-41.037c1.063-6.541,2.074-12.85,3.05-18.845
		c1.127-4.973-0.063-10.044-1.766-14.669c-3.474-9.33-8.778-16.516-12.432-21.309c-3.66-4.891-6.042-7.505-6.042-7.505
		s2.939,1.975,7.581,6.1c4.433,4.299,11.061,10.387,16.51,20.182c2.51,4.851,4.927,11.16,4.259,18.235
		c-0.354,5.972-0.75,12.281-1.127,18.799c-0.883,13.077-1.812,27.019-2.736,40.961c-1.063,13.908-2.132,27.827-3.131,40.869
		c-0.43,6.483-0.854,12.757-1.249,18.701c-0.285,5.785-0.511,11.77-0.046,15.824c0.93,4.799,3.009,7.796,5.914,10.781
		c2.841,2.742,5.995,4.625,8.661,5.961c5.386,2.684,8.859,3.613,8.859,3.613S117.416,220.511,111.264,218.943z M267.762,153.262
		c-12.258,12.862-28.129,18.003-43.722,14.552c-2.323-33.607-8.935-72.361-10.828-90.039c9.562-4.177,36.808-12.78,54.062-5.118
		c7.11,3.166,11.968,8.958,14.837,17.689C289.198,112.016,283.563,136.706,267.762,153.262z"/>
</g>
<g>
</g>
<g>
</g>
<g>
</g>
<g>
</g>
<g>
</g>
<g>
</g>
<g>
</g>
<g>
</g>
<g>
</g>
<g>
</g>
<g>
</g>
<g>
</g>
<g>
</g>
<g>
</g>
<g>
</g>
</svg>
