<?xml version="1.0" encoding="iso-8859-1"?>
<!-- Generator: Adobe Illustrator 16.0.0, SVG Export Plug-In . SVG Version: 6.00 Build 0)  -->
<!DOCTYPE svg PUBLIC "-//W3C//DTD SVG 1.1//EN" "http://www.w3.org/Graphics/SVG/1.1/DTD/svg11.dtd">
<svg version="1.1" id="Capa_1" xmlns="http://www.w3.org/2000/svg" xmlns:xlink="http://www.w3.org/1999/xlink" x="0px" y="0px"
	 width="247.478px" height="247.478px" viewBox="0 0 247.478 247.478" style="enable-background:new 0 0 247.478 247.478;"
	 xml:space="preserve">
<g>
	<path d="M12.693,0l23.272,241.831H50.1v5.646h149.817v-5.646h16.533L234.784,0H12.693z M63.542,216.618
		c-0.238,5.555-0.535,8.738-0.535,8.738s-0.749-3.114-1.771-8.587c-0.895-5.483-2.533-13.28-3.881-22.691
		c-2.841-18.799-5.629-43.953-7.459-69.166c-1.749-25.224-2.557-50.518-2.405-69.543c0-9.504,0.5-17.463,0.622-23.022
		c0.238-5.554,0.535-8.743,0.535-8.743s0.737,3.119,1.76,8.592c0.906,5.484,2.533,13.292,3.869,22.703
		c2.841,18.793,5.652,43.948,7.482,69.155c1.749,25.224,2.58,50.518,2.417,69.538C64.188,203.095,63.664,211.065,63.542,216.618z"/>
</g>
<g>
</g>
<g>
</g>
<g>
</g>
<g>
</g>
<g>
</g>
<g>
</g>
<g>
</g>
<g>
</g>
<g>
</g>
<g>
</g>
<g>
</g>
<g>
</g>
<g>
</g>
<g>
</g>
<g>
</g>
</svg>
