<?xml version="1.0" encoding="iso-8859-1"?>
<!-- Generator: Adobe Illustrator 16.0.0, SVG Export Plug-In . SVG Version: 6.00 Build 0)  -->
<!DOCTYPE svg PUBLIC "-//W3C//DTD SVG 1.1//EN" "http://www.w3.org/Graphics/SVG/1.1/DTD/svg11.dtd">
<svg version="1.1" id="Capa_1" xmlns="http://www.w3.org/2000/svg" xmlns:xlink="http://www.w3.org/1999/xlink" x="0px" y="0px"
	 width="380.722px" height="380.721px" viewBox="0 0 380.722 380.721" style="enable-background:new 0 0 380.722 380.721;"
	 xml:space="preserve">
<g>
	<path d="M203.153,140.284C203.153,121.52,204.188,0,204.188,0h-10.945h-5.745h-10.944c0,0,1.033,121.52,1.033,140.284
		c0,18.775-35.454,125.691-35.454,155.946s0,84.491,0,84.491h45.365h5.733h45.359c0,0,0-54.236,0-84.491
		C238.613,265.975,203.153,159.06,203.153,140.284z M181.479,193.079c-0.575,5.136-0.987,12.537-2.132,21.286
		c-2.045,17.532-5.792,40.688-9.73,63.671c-1.022,5.716-1.999,11.467-2.806,17.078c-0.964,5.752-1.713,10.76-1.835,16.174
		c-0.512,11.003-1.104,21.273-1.842,30.069c-0.726,8.807-1.655,16.138-2.155,21.285c-0.616,5.136-1.081,8.075-1.081,8.075
		s-0.476-2.939-1.086-8.075c-0.5-5.147-1.423-12.479-2.149-21.285c-0.738-8.796-1.336-19.078-1.847-30.069
		c-0.261-5.6,0.122-11.932,0.703-17.637c0.691-5.833,1.534-11.7,2.44-17.557c3.863-23.33,9.492-46.184,14.563-63.146
		c2.399-8.506,5.065-15.453,6.646-20.38c1.703-4.874,2.87-7.633,2.87-7.633S181.932,187.92,181.479,193.079z"/>
</g>
<g>
</g>
<g>
</g>
<g>
</g>
<g>
</g>
<g>
</g>
<g>
</g>
<g>
</g>
<g>
</g>
<g>
</g>
<g>
</g>
<g>
</g>
<g>
</g>
<g>
</g>
<g>
</g>
<g>
</g>
</svg>
