<?xml version="1.0" encoding="iso-8859-1"?>
<!-- Generator: Adobe Illustrator 16.0.0, SVG Export Plug-In . SVG Version: 6.00 Build 0)  -->
<!DOCTYPE svg PUBLIC "-//W3C//DTD SVG 1.1//EN" "http://www.w3.org/Graphics/SVG/1.1/DTD/svg11.dtd">
<svg version="1.1" id="Capa_1" xmlns="http://www.w3.org/2000/svg" xmlns:xlink="http://www.w3.org/1999/xlink" x="0px" y="0px"
	 width="380.721px" height="380.721px" viewBox="0 0 380.721 380.721" style="enable-background:new 0 0 380.721 380.721;"
	 xml:space="preserve">
<g>
	<path d="M235.65,97.702c0,0,0-26.409,0-30.371c0-3.951-30.093-6.652-30.093-6.652l-7.656-51.36L184.196,0l-9.027,60.69
		c0,0-30.104,2.701-30.104,6.651c0,3.962,0,30.372,0,30.372s-12.659,2.074-12.659,14.209c0,12.13,3.01,229.655,3.01,244.724
		c0,7.68,17.166,24.074,59.615,24.074c42.454,0,50.263-17.033,50.263-24.074c0-15.069,3.021-232.583,3.021-244.712
		C248.314,99.799,235.65,97.702,235.65,97.702z M165.125,317.028c-1.272,22.726-3.509,37.911-3.509,37.911
		s-2.975-15.069-5.368-37.69c-2.521-22.622-4.543-52.83-5.327-83.062c-0.215-15.127-0.465-30.255-0.157-44.441
		c0.204-14.187,0.703-27.438,1.418-38.8c1.272-22.738,3.485-37.918,3.485-37.918s2.963,15.064,5.339,37.691
		c1.278,11.316,2.429,24.533,3.323,38.69c1.011,14.151,1.498,29.268,2.033,44.384C167.065,264.023,166.53,294.301,165.125,317.028z"
		/>
</g>
<g>
</g>
<g>
</g>
<g>
</g>
<g>
</g>
<g>
</g>
<g>
</g>
<g>
</g>
<g>
</g>
<g>
</g>
<g>
</g>
<g>
</g>
<g>
</g>
<g>
</g>
<g>
</g>
<g>
</g>
</svg>
