<?xml version="1.0" encoding="iso-8859-1"?>
<!-- Generator: Adobe Illustrator 16.0.0, SVG Export Plug-In . SVG Version: 6.00 Build 0)  -->
<!DOCTYPE svg PUBLIC "-//W3C//DTD SVG 1.1//EN" "http://www.w3.org/Graphics/SVG/1.1/DTD/svg11.dtd">
<svg version="1.1" id="Capa_1" xmlns="http://www.w3.org/2000/svg" xmlns:xlink="http://www.w3.org/1999/xlink" x="0px" y="0px"
	 width="357.228px" height="357.228px" viewBox="0 0 357.228 357.228" style="enable-background:new 0 0 357.228 357.228;"
	 xml:space="preserve">
<g>
	<path d="M99.293,0l7.529,351.581h10.933v5.647h121.984v-5.647h10.922L257.935,0H99.293z M146.041,285.704
		c-0.93,29.639-3.143,49.461-3.143,49.461s-3.782-19.578-7.093-49.055c-1.749-14.721-3.398-31.939-4.758-50.391
		c-1.499-18.427-2.405-38.132-3.381-57.826c-0.593-19.717-1.249-39.416-1.237-57.931c-0.116-18.514,0.157-35.786,0.714-50.611
		c0.929-29.651,3.12-49.472,3.12-49.472s3.771,19.583,7.053,49.054c1.737,14.732,3.393,31.946,4.764,50.384
		c1.499,18.445,2.411,38.145,3.398,57.838c0.61,19.712,1.272,39.417,1.261,57.925C146.872,253.589,146.61,270.877,146.041,285.704z"
		/>
</g>
<g>
</g>
<g>
</g>
<g>
</g>
<g>
</g>
<g>
</g>
<g>
</g>
<g>
</g>
<g>
</g>
<g>
</g>
<g>
</g>
<g>
</g>
<g>
</g>
<g>
</g>
<g>
</g>
<g>
</g>
</svg>
