<?xml version="1.0" encoding="iso-8859-1"?>
<!-- Generator: Adobe Illustrator 16.0.0, SVG Export Plug-In . SVG Version: 6.00 Build 0)  -->
<!DOCTYPE svg PUBLIC "-//W3C//DTD SVG 1.1//EN" "http://www.w3.org/Graphics/SVG/1.1/DTD/svg11.dtd">
<svg version="1.1" id="Capa_1" xmlns="http://www.w3.org/2000/svg" xmlns:xlink="http://www.w3.org/1999/xlink" x="0px" y="0px"
	 width="380.729px" height="380.729px" viewBox="0 0 380.729 380.729" style="enable-background:new 0 0 380.729 380.729;"
	 xml:space="preserve">
<g>
	<path d="M327.323,94.177c-11.747-23.51-10.632-41.973-2.789-40.299c4.52,0.964,13.432,0,15.104-6.164
		c1.696-6.158,3.369-44.209-17.335-46.445c-15.558-1.69-248.297-1.69-263.843,0C37.744,3.504,39.423,41.567,41.114,47.713
		c1.673,6.164,10.584,7.128,15.11,6.164c7.813-1.673,8.946,16.789-2.824,40.299c-57.64,110.261-8.389,209.88,0.569,229.469
		c8.952,19.589,12.862,57.083,12.862,57.083h115.17h8.366h8.359h115.164c0,0,3.928-37.494,12.873-57.083
		C335.711,304.057,384.974,204.438,327.323,94.177z M290.839,230.766c0,8.528-7.11,15.441-15.871,15.441H105.76
		c-8.767,0-15.871-6.913-15.871-15.441v-65.941c0-8.534,7.104-15.441,15.871-15.441h169.22c8.772,0,15.871,6.907,15.871,15.441
		v65.941H290.839z"/>
</g>
<g>
</g>
<g>
</g>
<g>
</g>
<g>
</g>
<g>
</g>
<g>
</g>
<g>
</g>
<g>
</g>
<g>
</g>
<g>
</g>
<g>
</g>
<g>
</g>
<g>
</g>
<g>
</g>
<g>
</g>
</svg>
