<?xml version="1.0" encoding="iso-8859-1"?>
<!-- Generator: Adobe Illustrator 16.0.0, SVG Export Plug-In . SVG Version: 6.00 Build 0)  -->
<!DOCTYPE svg PUBLIC "-//W3C//DTD SVG 1.1//EN" "http://www.w3.org/Graphics/SVG/1.1/DTD/svg11.dtd">
<svg version="1.1" id="Capa_1" xmlns="http://www.w3.org/2000/svg" xmlns:xlink="http://www.w3.org/1999/xlink" x="0px" y="0px"
	 width="32.001px" height="32px" viewBox="0 0 32.001 32" style="enable-background:new 0 0 32.001 32;" xml:space="preserve">
<g>
	<path d="M31.79,8.069c-2.224,0-12.806-0.027-15.479-0.034V8.034c0,0-0.111,0-0.309,0.001c-0.199-0.001-0.31-0.001-0.31-0.001v0.001
		C13.017,8.042,2.434,8.069,0.211,8.069c-1.405,5.83,4.539,12.648,7.853,13.742v2.156H23.32V21.95
		C26.435,21.625,33.288,14.286,31.79,8.069z M8.305,18.863c-0.527-0.328-1.101-0.767-1.693-1.267
		c-0.583-0.51-1.168-1.103-1.696-1.75c-0.251-0.337-0.524-0.654-0.736-1.019c-0.226-0.351-0.438-0.701-0.6-1.074
		c-0.188-0.353-0.314-0.729-0.416-1.09c-0.133-0.344-0.168-0.711-0.205-1.036c-0.064-0.312-0.018-0.646,0.01-0.916
		c0.015-0.135,0.025-0.259,0.044-0.368c0.04-0.103,0.076-0.195,0.108-0.279C3.257,9.728,3.349,9.54,3.349,9.54
		s0.033,0.209,0.065,0.57c0.008,0.09,0.017,0.188,0.026,0.298c0.031,0.097,0.064,0.202,0.1,0.314
		c0.071,0.22,0.118,0.442,0.253,0.708c0.223,0.517,0.526,1.095,0.943,1.675c0.186,0.3,0.414,0.593,0.638,0.895
		c0.213,0.309,0.473,0.601,0.707,0.904c0.485,0.601,0.994,1.194,1.474,1.756c0.482,0.567,0.933,1.103,1.318,1.558
		c0.777,0.92,1.27,1.604,1.27,1.604S9.343,19.537,8.305,18.863z"/>
</g>
<g>
</g>
<g>
</g>
<g>
</g>
<g>
</g>
<g>
</g>
<g>
</g>
<g>
</g>
<g>
</g>
<g>
</g>
<g>
</g>
<g>
</g>
<g>
</g>
<g>
</g>
<g>
</g>
<g>
</g>
</svg>
