<?xml version="1.0" encoding="iso-8859-1"?>
<!-- Generator: Adobe Illustrator 16.0.0, SVG Export Plug-In . SVG Version: 6.00 Build 0)  -->
<!DOCTYPE svg PUBLIC "-//W3C//DTD SVG 1.1//EN" "http://www.w3.org/Graphics/SVG/1.1/DTD/svg11.dtd">
<svg version="1.1" id="Capa_1" xmlns="http://www.w3.org/2000/svg" xmlns:xlink="http://www.w3.org/1999/xlink" x="0px" y="0px"
	 width="380.882px" height="380.882px" viewBox="0 0 380.882 380.882" style="enable-background:new 0 0 380.882 380.882;"
	 xml:space="preserve">
<g>
	<g>
		<path d="M129.577,0.191L129.577,0.191c-0.012,0-0.035,0-0.046,0c-0.012,0-0.023,0-0.041,0l0,0
			C97.062-1.488,74.156,97.12,83.201,121.676c6.414,17.451,23.807,30.685,33.369,36.895c8.499,14.123,2.358,44.731-4.258,62.624
			c0,8.808,0,143.781,0,143.781h0.023c0,0.094-0.023,0.187-0.023,0.303c0,8.249,6.698,14.953,14.971,14.965
			c0.424-0.012,2.01-0.012,2.422-0.012c8.272,0,14.982-6.704,14.982-14.953c0-0.116-0.012-0.209-0.035-0.303h0.035
			c0,0,0-134.974,0-143.781c-6.332-17.078-12.234-45.777-5.356-60.625c8.209-4.961,29.332-19.264,36.553-38.894
			C184.899,97.12,161.987-1.488,129.577,0.191z M118.121,146.958c-0.453,0.68-1.336,0.941-2.167,0.645
			c-0.215-0.087-1.295-0.517-2.893-1.667c-0.354-0.261-0.761-0.575-1.15-0.941l-0.656-0.593c-1.83-1.667-4.369-3.916-6.733-7.035
			c-7.558-9.446-12.246-18.508-14.244-27.676c-0.511-3.207-1.034-9.004-0.854-12.13c0.238-2.753,0.627-5.472,1.249-8.377
			c1.307-5.618,3.259-10.492,4.851-14.146c1.836-4.189,3.846-7.436,5.426-9.423c1.858-2.382,3.154-3.951,3.154-3.951
			c0.581-0.703,1.679-0.807,2.521-0.227c0.871,0.651,1.214,1.615,0.836,2.452c-0.011,0.023-1.062,2.115-1.894,4.351
			c-1.022,2.074-1.545,5.106-2.567,9.173c-0.941,3.561-1.714,8.022-2.289,13.245c-0.296,2.26-0.447,4.7-0.488,7.244
			c-0.093,2.202,0.5,7.854,0.93,9.946c2.19,9.51,6.855,18.991,10.242,25.916c0.714,1.342,1.429,2.684,2.062,3.927
			c0.877,1.72,1.65,3.207,2.387,4.305c1.075,1.76,1.94,2.69,1.94,2.725C118.417,145.36,118.534,146.301,118.121,146.958z"/>
		<path d="M232.402,28.482c-0.058,0-0.104-0.023-0.15-0.023c-10.19,0.18-31.052,1-38.87,32.219
			c-7.814,31.219-6.461,70.037,1.463,77.7c6.152,5.949,21.373,19.456,27.891,25.224c5.311,15.372-0.324,42.037-6.32,58.245
			c0,8.808,0,143.781,0,143.781l0.035-0.012c-0.012,0.104-0.035,0.209-0.035,0.302c0,8.262,6.704,14.953,14.977,14.965
			c0.418,0,2.01,0,2.417,0c8.272,0,14.988-6.691,14.988-14.953c0-0.104-0.012-0.197-0.035-0.302h0.035c0,0,0-134.963,0-143.77
			c-5.938-16.022-11.515-42.304-6.495-57.745c6.088-5.46,22.006-19.81,28.314-25.997c7.878-7.709,8.924-46.568,0.871-77.711
			C263.448,29.255,242.603,28.575,232.402,28.482z M223.154,149.102c-0.163-0.052-1.022-0.337-2.335-1.109
			c-0.291-0.18-0.628-0.378-0.965-0.645l-0.546-0.401c-1.534-1.156-3.648-2.701-5.723-4.903c-6.559-6.687-10.897-13.17-13.222-19.88
			c-0.674-2.358-1.58-6.628-1.726-8.946c-0.058-2.051,0-4.084,0.227-6.257c0.5-4.217,1.552-7.912,2.44-10.689
			c1.021-3.184,2.271-5.682,3.282-7.232c1.202-1.83,2.05-3.056,2.05-3.056c0.366-0.558,1.191-0.691,1.889-0.284
			c0.727,0.453,1.062,1.15,0.859,1.771c-0.012,0.012-0.621,1.615-1.074,3.306c-0.581,1.574-0.709,3.857-1.139,6.913
			c-0.396,2.678-0.581,6.007-0.558,9.911c-0.012,1.69,0.069,3.497,0.261,5.391c0.117,1.638,1.069,5.792,1.569,7.326
			c2.497,6.936,6.854,13.756,10.05,18.729c0.662,0.964,1.312,1.929,1.894,2.806c0.825,1.237,1.534,2.312,2.196,3.085
			c0.965,1.249,1.708,1.899,1.708,1.923c0.534,0.453,0.72,1.156,0.453,1.655C224.466,149.061,223.804,149.276,223.154,149.102z"/>
		<path d="M349.518,83.462c-4.52-11.828-14.953-21.918-25.734-20.873c-0.129,0.018-0.256,0.11-0.372,0.146
			c-0.116-0.035-0.232-0.128-0.372-0.146c-10.771-1.045-21.204,9.045-25.724,20.873c-4.531,11.822-10.782,32.695-6.263,48.113
			c3.613,12.322,18.322,24.853,24.074,29.384c7.18,23.975,0.499,128.973-5.879,146.262c0,8.795,0,57.535,0,57.535h0.022
			c0,0.094-0.022,0.187-0.022,0.291c0,8.261,4.682,15.197,12.954,15.209c0.431-0.012,2.011-0.012,2.44-0.012
			c8.261,0,12.652-6.704,12.652-14.953c0-0.116-0.012-0.209-0.023-0.303h0.023c0,0,0-48.717,0-57.523
			c-6.401-17.277-12.804-122.484-5.6-146.477c5.751-4.537,20.472-17.062,24.085-29.401
			C360.312,116.145,354.049,95.272,349.518,83.462z M313.559,146.993c-0.117-0.035-0.709-0.227-1.615-0.749
			c-0.209-0.116-0.43-0.262-0.662-0.442l-0.384-0.285c-1.058-0.796-2.51-1.876-3.927-3.427c-4.474-4.7-7.401-9.312-8.912-14.111
			c-0.43-1.685-0.987-4.758-1.033-6.437c0-1.487,0.081-2.963,0.267-4.52c0.441-3.056,1.255-5.746,1.929-7.779
			c0.79-2.324,1.708-4.154,2.451-5.287c0.883-1.342,1.499-2.248,1.499-2.248c0.279-0.413,0.849-0.511,1.337-0.25
			c0.499,0.314,0.72,0.813,0.557,1.261c0,0.012-0.465,1.179-0.801,2.417c-0.441,1.156-0.581,2.8-0.941,5.019
			c-0.337,1.952-0.523,4.357-0.593,7.175c-0.046,1.226-0.023,2.539,0.093,3.892c0.059,1.179,0.639,4.177,0.965,5.269
			c1.615,4.961,4.543,9.806,6.692,13.338c0.453,0.68,0.895,1.371,1.289,1.987c0.546,0.883,1.022,1.644,1.476,2.19
			c0.65,0.877,1.162,1.342,1.162,1.354c0.372,0.325,0.488,0.825,0.291,1.191C314.488,146.935,314.024,147.103,313.559,146.993z"/>
		<path d="M55.456,116.703c0,0,4.839-113.898-0.43-116.547C44.935-3.155,20.809,47.066,23.783,84.484
			c2.975,37.418,33.694,41.345,33.102,51.006c-0.598,9.661-14.03,167.652-13.385,194.712c0.651,27.047,12.844,58.012,16.44,48.902
			c3.59-9.133,3.509-229.544,2.533-241.68C61.486,125.318,55.456,116.703,55.456,116.703z"/>
	</g>
</g>
<g>
</g>
<g>
</g>
<g>
</g>
<g>
</g>
<g>
</g>
<g>
</g>
<g>
</g>
<g>
</g>
<g>
</g>
<g>
</g>
<g>
</g>
<g>
</g>
<g>
</g>
<g>
</g>
<g>
</g>
</svg>
