<?xml version="1.0" encoding="iso-8859-1"?>
<!-- Generator: Adobe Illustrator 16.0.0, SVG Export Plug-In . SVG Version: 6.00 Build 0)  -->
<!DOCTYPE svg PUBLIC "-//W3C//DTD SVG 1.1//EN" "http://www.w3.org/Graphics/SVG/1.1/DTD/svg11.dtd">
<svg version="1.1" id="Capa_1" xmlns="http://www.w3.org/2000/svg" xmlns:xlink="http://www.w3.org/1999/xlink" x="0px" y="0px"
	 width="259.446px" height="259.446px" viewBox="0 0 259.446 259.446" style="enable-background:new 0 0 259.446 259.446;"
	 xml:space="preserve">
<g>
	<path d="M243.408,16.64c0.012,0,0.012-0.012,0.012-0.012c-0.093-0.104-0.5-0.511-0.604-0.604c0,0-0.012,0-0.023,0.012
		c-24.364-23.58-54.619-20.385-79.576,4.566c-25.16,25.166-27.978,58.25-18.775,75.434c-2.922,17.347-31.609,36.523-50.513,45.202
		c-6.605,6.6-89.062,89.08-89.062,89.08l0.023,0.023c-0.087,0.059-0.181,0.129-0.25,0.197c-6.187,6.193-6.187,16.244,0.012,22.437
		c0.308,0.313,1.51,1.499,1.818,1.823c6.198,6.193,16.243,6.193,22.43,0c0.069-0.068,0.14-0.162,0.209-0.243l0.029,0.022
		c0,0,82.469-82.48,89.062-89.08c8.686-18.892,27.868-47.596,45.202-50.512c17.196,9.195,50.286,6.384,75.452-18.776
		C263.799,71.265,266.994,41.01,243.408,16.64z M186.059,26.04c-1.208,1.598-2.929,3.869-5.02,6.605
		c-2.033,2.649-4.415,5.746-6.983,9.062c-2.625,3.265-4.774,6.698-6.727,10.213c-3.323,7.576-6.042,16.568-8.296,22.936
		c-2.37,6.448-3.462,10.956-3.021,10.968c-0.07,0.099-0.802-1.034-1.092-3.137c-0.268-2.085-0.512-5.06-0.488-8.626
		c0.093-3.55,0.465-7.651,1.196-12.031c0.849-4.375,1.731-8.946,3.776-13.716c1.045-2.202,2.289-4.758,3.799-6.628
		c1.522-1.94,2.916-3.893,4.613-5.403c3.148-3.271,6.482-5.804,9.457-7.779c2.951-1.987,5.786-3.224,7.75-4.084
		c1.905-0.807,3.172-0.889,3.148-0.958C188.149,23.483,187.395,24.407,186.059,26.04z"/>
</g>
<g>
</g>
<g>
</g>
<g>
</g>
<g>
</g>
<g>
</g>
<g>
</g>
<g>
</g>
<g>
</g>
<g>
</g>
<g>
</g>
<g>
</g>
<g>
</g>
<g>
</g>
<g>
</g>
<g>
</g>
</svg>
