<?xml version="1.0" encoding="iso-8859-1"?>
<!-- Generator: Adobe Illustrator 16.0.0, SVG Export Plug-In . SVG Version: 6.00 Build 0)  -->
<!DOCTYPE svg PUBLIC "-//W3C//DTD SVG 1.1//EN" "http://www.w3.org/Graphics/SVG/1.1/DTD/svg11.dtd">
<svg version="1.1" id="Capa_1" xmlns="http://www.w3.org/2000/svg" xmlns:xlink="http://www.w3.org/1999/xlink" x="0px" y="0px"
	 width="160.965px" height="160.965px" viewBox="0 0 160.965 160.965" style="enable-background:new 0 0 160.965 160.965;"
	 xml:space="preserve">
<g>
	<path d="M152.82,8.03L152.82,8.03c-0.058-0.087-0.337-0.349-0.406-0.418c0,0,0,0-0.012,0.012
		c-16.22-15.691-42.13-3.114-51.262,6.019C84.386,30.396,80.825,49.445,86.954,60.89C85.002,72.433,67.8,87.084,55.223,92.869
		c-4.392,4.393-50.884,50.867-50.884,50.867l0.023,0.012c-0.053,0.059-0.111,0.093-0.169,0.15
		c-4.119,4.113-6.019,8.912-1.882,13.025c0.203,0.209,0.999,0.999,1.214,1.208c4.119,4.136,9.829,3.16,13.948-0.964
		c0.046-0.059,0.093-0.117,0.14-0.175l0.012,0.023c0,0,46.486-46.475,50.872-50.866c5.786-12.596,19.537-30.697,31.074-32.649
		c11.433,6.124,31.614,3.334,48.368-13.408C158.525,49.503,168.517,24.244,152.82,8.03z M108.205,24.064
		c-2.464,2.893-5.995,6.675-8.296,10.794c-2.254,4.101-3.265,9.254-4.183,12.908c-0.953,3.712-1.093,6.309-0.813,6.268
		c-0.581,0.273-2.963-10.625,1.917-20.82c1.243-2.58,3.195-4.462,4.845-6.315c1.662-1.847,3.591-3.178,5.136-4.38
		c3.229-2.33,5.786-3.166,5.786-3.166S110.679,21.153,108.205,24.064z"/>
</g>
<g>
</g>
<g>
</g>
<g>
</g>
<g>
</g>
<g>
</g>
<g>
</g>
<g>
</g>
<g>
</g>
<g>
</g>
<g>
</g>
<g>
</g>
<g>
</g>
<g>
</g>
<g>
</g>
<g>
</g>
</svg>
