<?xml version="1.0" encoding="iso-8859-1"?>
<!-- Generator: Adobe Illustrator 16.0.0, SVG Export Plug-In . SVG Version: 6.00 Build 0)  -->
<!DOCTYPE svg PUBLIC "-//W3C//DTD SVG 1.1//EN" "http://www.w3.org/Graphics/SVG/1.1/DTD/svg11.dtd">
<svg version="1.1" id="Capa_1" xmlns="http://www.w3.org/2000/svg" xmlns:xlink="http://www.w3.org/1999/xlink" x="0px" y="0px"
	 width="380.722px" height="380.722px" viewBox="0 0 380.722 380.722" style="enable-background:new 0 0 380.722 380.722;"
	 xml:space="preserve">
<g>
	<path d="M362.394,19.146l0.023-0.011c-0.14-0.14-0.709-0.691-0.836-0.831c0,0,0,0.012-0.023,0.023
		C328.654-13.52,279.39-0.78,245.685,32.914c-33.974,33.979-37.784,78.664-25.364,101.878
		c-3.927,23.423-42.681,49.327-68.201,61.062c-8.923,8.9-145.542,145.535-145.542,145.535l0.035,0.035
		c-0.122,0.082-0.238,0.163-0.337,0.279c-8.359,8.342-8.359,21.912,0,30.289c0.43,0.407,2.051,2.022,2.452,2.464
		c8.389,8.354,21.954,8.354,30.301,0c0.122-0.116,0.192-0.232,0.279-0.337l0.023,0.035c0,0,136.629-136.625,145.529-145.536
		c11.74-25.526,37.645-64.286,61.068-68.213c23.214,12.432,67.888,8.626,101.872-25.352
		C381.484,101.336,394.242,52.056,362.394,19.146z M292.229,28.452c-2.498,2.318-6.054,5.653-10.317,9.638
		c-8.191,8.005-19.902,18.404-28.187,29.709c-1.987,2.58-3.8,5.995-5.345,9.098c-1.696,3.189-3.207,6.483-4.555,9.76
		c-2.847,6.471-5.205,12.751-7.215,18.166c-1.976,5.426-3.532,10.004-4.427,13.274c-1.011,3.265-0.872,5.217-0.709,5.217
		c-0.093,0.116-1.29-1.766-1.673-5.356c-0.453-3.555-0.523-8.626,0.035-14.622c0.534-6.018,1.742-12.932,3.74-20.263
		c1.069-3.643,2.324-7.39,3.834-11.171c1.674-3.857,3.428-7.436,5.996-11.195c4.926-7.186,10.922-12.792,16.894-17.492
		c5.913-4.746,11.909-8.458,17.219-11.253c5.286-2.84,10.015-4.711,13.407-5.769c3.428-1.121,5.438-1.278,5.438-1.278
		S294.704,26.146,292.229,28.452z"/>
</g>
<g>
</g>
<g>
</g>
<g>
</g>
<g>
</g>
<g>
</g>
<g>
</g>
<g>
</g>
<g>
</g>
<g>
</g>
<g>
</g>
<g>
</g>
<g>
</g>
<g>
</g>
<g>
</g>
<g>
</g>
</svg>
