<?xml version="1.0" encoding="iso-8859-1"?>
<!-- Generator: Adobe Illustrator 16.0.0, SVG Export Plug-In . SVG Version: 6.00 Build 0)  -->
<!DOCTYPE svg PUBLIC "-//W3C//DTD SVG 1.1//EN" "http://www.w3.org/Graphics/SVG/1.1/DTD/svg11.dtd">
<svg version="1.1" id="Capa_1" xmlns="http://www.w3.org/2000/svg" xmlns:xlink="http://www.w3.org/1999/xlink" x="0px" y="0px"
	 width="380.727px" height="380.727px" viewBox="0 0 380.727 380.727" style="enable-background:new 0 0 380.727 380.727;"
	 xml:space="preserve">
<g>
	<path d="M358.979,21.894c-31.475-31.469-85.49-28.448-120.672,6.733c-30.626,30.632-36.871,75.574-17.172,107.432
		c-44.662,68.329-97.155,94.68-97.155,94.68L1.77,352.934l0.012,0.023c-0.047,0.058-0.104,0.093-0.181,0.14
		c-4.27,4.287,0.883,16.428,5.165,20.728c4.311,4.287,16.446,9.446,20.728,5.159c0.046-0.059,0.093-0.117,0.14-0.164h0.029
		l122.042-122.054c0,0,31.399-53.562,94.716-97.172c-0.093-0.082-0.175-0.163-0.256-0.25c31.928,20.17,77.241,14.064,108.077-16.783
		C387.423,107.367,390.42,53.34,358.979,21.894z M283.888,32.862c-0.022,0.012-2.509,1.226-4.891,2.725
		c-2.463,1.237-5.402,3.543-9.295,6.675c-3.439,2.713-7.366,6.39-11.666,10.945c-1.882,1.975-3.775,4.166-5.67,6.582
		c-1.661,2.033-3.369,4.7-4.438,7.018c-4.764,10.695-7.192,23.237-8.924,32.375c-0.29,1.784-0.58,3.625-0.883,5.246
		c-0.395,2.306-0.743,4.305-0.836,5.902c-0.244,2.458-0.094,4.021-0.116,4.043c0.128,1.092-0.419,2.08-1.29,2.388
		c-0.906,0.325-1.929-0.093-2.521-0.999c-0.139-0.244-0.824-1.458-1.521-3.718c-0.151-0.517-0.303-1.121-0.419-1.754l-0.197-1.057
		c-0.558-2.951-1.312-6.995-1.336-11.729c-0.325-14.634,1.743-26.781,6.425-37.041c1.812-3.421,3.684-6.187,6.111-9.039
		c2.208-2.463,4.543-4.747,7.181-7.07c2.73-2.271,5.449-4.211,8.04-5.873c0.256-0.18,0.534-0.418,0.778-0.587
		c3.812-2.713,7.413-4.375,10.004-5.339c0.058-0.011,0.081-0.011,0.151-0.035c3.078-1.336,5.948-2.358,7.959-2.87
		c3.45-0.854,5.809-1.406,5.809-1.406c1.046-0.25,2.173,0.465,2.545,1.667C285.225,31.172,284.841,32.351,283.888,32.862z"/>
</g>
<g>
</g>
<g>
</g>
<g>
</g>
<g>
</g>
<g>
</g>
<g>
</g>
<g>
</g>
<g>
</g>
<g>
</g>
<g>
</g>
<g>
</g>
<g>
</g>
<g>
</g>
<g>
</g>
<g>
</g>
</svg>
