<?xml version="1.0" encoding="iso-8859-1"?>
<!-- Generator: Adobe Illustrator 16.0.0, SVG Export Plug-In . SVG Version: 6.00 Build 0)  -->
<!DOCTYPE svg PUBLIC "-//W3C//DTD SVG 1.1//EN" "http://www.w3.org/Graphics/SVG/1.1/DTD/svg11.dtd">
<svg version="1.1" id="Capa_1" xmlns="http://www.w3.org/2000/svg" xmlns:xlink="http://www.w3.org/1999/xlink" x="0px" y="0px"
	 width="303.767px" height="303.767px" viewBox="0 0 303.767 303.767" style="enable-background:new 0 0 303.767 303.767;"
	 xml:space="preserve">
<g>
	<path d="M300.54,0.051c-86.942,0-223.079,0-297.88,0c-25.328,91.933,138.536,134.631,138.536,143.211
		c0,8.586,0.65,48.67-0.1,80.704c0,42.036-46.289,66.319-68.323,75.498c-4.752,2.127-3.346,4.252,0.012,4.252
		c3.189,0,72.535,0,79.559,0c0.354,0,0.697,0,0.697,0c7.018,0,76.381,0,79.564,0c3.347,0,4.74-2.137,0-4.252
		c-22.052-9.179-68.329-33.462-68.329-75.498c-0.756-32.033-0.082-72.129-0.082-80.704C164.172,134.682,328.622,91.983,300.54,0.051
		z M113.59,105.211c-13.478-5.223-30.708-14.082-46.307-25.84c-7.656-5.995-15.081-12.525-21.128-19.665
		c-6.1-7.046-10.957-14.622-13.716-21.82c-2.928-7.174-3.393-13.803-2.771-18.276c0.116-2.26,0.819-3.759,1.139-4.869
		c0.349-1.092,0.534-1.679,0.534-1.679c0.11-0.07,0.157,2.574,1.383,6.437c1.092,3.764,3.509,8.9,7.482,14.174
		c7.936,10.649,21.762,22.378,36.442,33.392c14.599,11.125,29.9,21.843,41.24,30.377c11.409,8.412,18.857,14.773,18.857,14.773
		S127.05,110.544,113.59,105.211z"/>
</g>
<g>
</g>
<g>
</g>
<g>
</g>
<g>
</g>
<g>
</g>
<g>
</g>
<g>
</g>
<g>
</g>
<g>
</g>
<g>
</g>
<g>
</g>
<g>
</g>
<g>
</g>
<g>
</g>
<g>
</g>
</svg>
