<?xml version="1.0" encoding="iso-8859-1"?>
<!-- Generator: Adobe Illustrator 16.0.0, SVG Export Plug-In . SVG Version: 6.00 Build 0)  -->
<!DOCTYPE svg PUBLIC "-//W3C//DTD SVG 1.1//EN" "http://www.w3.org/Graphics/SVG/1.1/DTD/svg11.dtd">
<svg version="1.1" id="Capa_1" xmlns="http://www.w3.org/2000/svg" xmlns:xlink="http://www.w3.org/1999/xlink" x="0px" y="0px"
	 width="380.716px" height="380.716px" viewBox="0 0 380.716 380.716" style="enable-background:new 0 0 380.716 380.716;"
	 xml:space="preserve">
<g>
	<path d="M368.95,80.009c-17.044-28.338-50.297-44.592-91.311-44.592c-29.303,0-55.561,12.862-77.066,29.151
		c-19.188-21.239-56.252-40.63-95.831-39.596C79.181,25.639,42.919,35.108,15.33,76.5C1.115,97.82-3.242,120.343,2.375,143.447
		c10.62,43.709,55.084,76.189,73.773,88.168v108.181c0,8.831,7.163,15.988,15.981,15.988h211.257c8.83,0,15.987-7.157,15.987-15.988
		V223.412c19.264-9.679,35.483-23.005,45.173-41.217C384.474,144.73,386.03,108.445,368.95,80.009z M336.337,167.207
		c-26.467,49.792-139.441,51.802-180.746,48.386c-8.76-0.79-16.516,5.81-17.242,14.594c-0.737,8.795,5.798,16.533,14.587,17.253
		c1.772,0.151,13.827,1.093,31.469,1.093c26.892,0,66.755-2.22,103.018-12.805v88.105H108.105V222.634
		c0-5.798-3.154-11.143-8.22-13.966c-0.558-0.313-56.583-31.945-66.47-72.82c-3.451-14.245-0.668-27.868,8.493-41.606
		c16.062-24.085,37.464-36.634,63.653-37.313c28.518-0.668,57.286,13.53,71.1,28.768c-21.785,22.046-34.943,43.378-36.053,45.226
		c-4.566,7.529-2.161,17.335,5.368,21.924c7.529,4.578,17.358,2.202,21.953-5.345c0.482-0.796,49.548-80.105,109.733-80.105
		c29.499,0,52.795,10.614,63.902,29.093C352.638,114.905,350.779,140.019,336.337,167.207z"/>
</g>
<g>
</g>
<g>
</g>
<g>
</g>
<g>
</g>
<g>
</g>
<g>
</g>
<g>
</g>
<g>
</g>
<g>
</g>
<g>
</g>
<g>
</g>
<g>
</g>
<g>
</g>
<g>
</g>
<g>
</g>
</svg>
