<?xml version="1.0" encoding="iso-8859-1"?>
<!-- Generator: Adobe Illustrator 16.0.0, SVG Export Plug-In . SVG Version: 6.00 Build 0)  -->
<!DOCTYPE svg PUBLIC "-//W3C//DTD SVG 1.1//EN" "http://www.w3.org/Graphics/SVG/1.1/DTD/svg11.dtd">
<svg version="1.1" id="Capa_1" xmlns="http://www.w3.org/2000/svg" xmlns:xlink="http://www.w3.org/1999/xlink" x="0px" y="0px"
	 width="380.72px" height="380.72px" viewBox="0 0 380.72 380.72" style="enable-background:new 0 0 380.72 380.72;"
	 xml:space="preserve">
<g>
	<path d="M371.639,50.459c-2.812-1.441-70.131-35.17-178.039-35.17c-1.011,0-1.999,0.023-3.009,0.023
		c-0.07,0-0.146-0.023-0.227-0.023c-0.094,0-0.192,0.023-0.285,0.023C84.431,16.039,12.685,48.769,9.652,50.187
		c-6.854,3.189-10.706,10.59-9.399,18.026l50.019,283.461c1.417,7.971,8.325,13.756,16.417,13.756h241.768
		c7.982,0,14.837-5.635,16.359-13.465l55.584-283.444C381.852,61.201,378.261,53.84,371.639,50.459z M204.26,248.256V48.781
		c26.49,0.61,50.135,3.357,70.479,7.035l-32.335,192.44H204.26z M137.609,248.256l-32.172-191.47
		c20.681-3.84,44.639-6.861,71.031-7.813v199.284H137.609z M79.632,62.369l31.231,185.887H65.893L35.446,75.718
		C45.002,72.175,60.136,67.126,79.632,62.369z M80.695,332.084l-9.888-56.036h234.941l-10.991,56.036H80.695z M311.187,248.256
		H269.15l31.417-186.968c19.938,4.909,35.088,10.219,44.534,13.966L311.187,248.256z"/>
</g>
<g>
</g>
<g>
</g>
<g>
</g>
<g>
</g>
<g>
</g>
<g>
</g>
<g>
</g>
<g>
</g>
<g>
</g>
<g>
</g>
<g>
</g>
<g>
</g>
<g>
</g>
<g>
</g>
<g>
</g>
</svg>
