<?xml version="1.0" encoding="iso-8859-1"?>
<!-- Generator: Adobe Illustrator 16.0.0, SVG Export Plug-In . SVG Version: 6.00 Build 0)  -->
<!DOCTYPE svg PUBLIC "-//W3C//DTD SVG 1.1//EN" "http://www.w3.org/Graphics/SVG/1.1/DTD/svg11.dtd">
<svg version="1.1" id="Capa_1" xmlns="http://www.w3.org/2000/svg" xmlns:xlink="http://www.w3.org/1999/xlink" x="0px" y="0px"
	 width="373.517px" height="373.517px" viewBox="0 0 373.517 373.517" style="enable-background:new 0 0 373.517 373.517;"
	 xml:space="preserve">
<g>
	<g>
		<path d="M57.854,52.447V18.416l5.211-6.245h256.541V0H57.367L45.696,14.03v38.417h-0.035v321.07h282.194V52.447H57.854z
			 M102.958,97.132h184.603v18.096H102.958V97.132z M282.612,234.058c-4.845,9.144-12.99,15.813-22.656,20.658V313.1
			c0,4.415-3.579,8.006-8.006,8.006H146.018c-4.427,0-8.017-3.591-8.017-8.006v-54.26c-9.365-6.006-31.661-22.295-37.005-44.209
			c-2.806-11.583-0.616-22.876,6.495-33.566c13.849-20.757,32.021-25.515,44.854-25.84c19.845-0.523,38.435,9.208,48.055,19.845
			c10.782-8.162,23.958-14.622,38.644-14.622c20.565,0,37.25,8.162,45.777,22.372C293.395,197.077,292.604,215.271,282.612,234.058z
			"/>
		<path d="M239.042,176.488c-30.186,0-54.776,39.771-55.025,40.177c-2.295,3.766-7.222,4.974-11.015,2.673
			c-3.759-2.277-4.974-7.192-2.69-10.991c0.57-0.93,7.175-11.619,18.097-22.662c-6.937-7.651-21.355-14.75-35.658-14.431
			c-13.135,0.332-23.864,6.628-31.922,18.7c-4.601,6.891-5.995,13.722-4.258,20.867c4.961,20.508,33.049,36.379,33.339,36.506
			c2.533,1.418,4.125,4.102,4.125,7.018v50.739h89.923v-44.175c-18.184,5.311-38.19,6.426-51.669,6.426
			c-8.842,0-14.883-0.477-15.777-0.569c-4.404-0.349-7.686-4.229-7.309-8.645c0.372-4.403,4.253-7.703,8.65-7.308
			c20.733,1.707,77.363,0.708,90.631-24.271c7.239-13.641,8.18-26.224,2.626-35.46C265.51,181.809,253.845,176.488,239.042,176.488z
			"/>
	</g>
</g>
<g>
</g>
<g>
</g>
<g>
</g>
<g>
</g>
<g>
</g>
<g>
</g>
<g>
</g>
<g>
</g>
<g>
</g>
<g>
</g>
<g>
</g>
<g>
</g>
<g>
</g>
<g>
</g>
<g>
</g>
</svg>
