<?xml version="1.0" encoding="iso-8859-1"?>
<!-- Generator: Adobe Illustrator 16.0.0, SVG Export Plug-In . SVG Version: 6.00 Build 0)  -->
<!DOCTYPE svg PUBLIC "-//W3C//DTD SVG 1.1//EN" "http://www.w3.org/Graphics/SVG/1.1/DTD/svg11.dtd">
<svg version="1.1" id="Capa_1" xmlns="http://www.w3.org/2000/svg" xmlns:xlink="http://www.w3.org/1999/xlink" x="0px" y="0px"
	 width="380.722px" height="380.721px" viewBox="0 0 380.722 380.721" style="enable-background:new 0 0 380.722 380.721;"
	 xml:space="preserve">
<g>
	<g>
		<path d="M250.929,250.243c-15.15,15.756-35.228,25.445-57.326,25.445c-22.668,0-43.251-10.201-58.535-26.676
			c-58.442,18.811-68.806,64.971-68.806,82.398c0,22.123,0,49.311,0,49.311H314.46c0,0,0-13.49,0-36.669
			C314.46,325.764,308,272.086,250.929,250.243z"/>
		<path d="M125.976,165.828c0.703,3.927,4.102,6.779,8.104,6.779h0.592c-0.168,1.976-0.418,3.927-0.418,5.949
			c0,30.661,16.173,56.722,38.824,66.761c0.18,0.081,0.366,0.15,0.546,0.256c1.783,0.755,3.619,1.417,5.484,1.998
			c0.383,0.116,0.749,0.244,1.145,0.325c1.713,0.477,3.462,0.849,5.211,1.139c0.487,0.093,0.976,0.21,1.463,0.268
			c2.19,0.29,4.416,0.476,6.676,0.476c2.236,0,4.449-0.186,6.622-0.465c0.453-0.058,0.896-0.186,1.337-0.255
			c1.777-0.278,3.543-0.651,5.263-1.127c0.325-0.093,0.651-0.198,0.976-0.29c1.906-0.559,3.754-1.232,5.577-1.999
			c0.116-0.046,0.232-0.116,0.372-0.175c22.842-9.91,39.201-36.075,39.201-66.923c0-2.022-0.256-3.974-0.406-5.949h0.709
			c3.927,0,7.319-2.771,8.086-6.634l27.386-139.75c0.708-3.608-1.058-7.221-4.322-8.9C283.008,16.621,249.837,0,196.635,0
			c-0.499,0-0.987,0.012-1.487,0.012c-0.035,0-0.069-0.012-0.116-0.012c-0.052,0-0.087,0.012-0.134,0.012
			c-52.086,0.36-87.459,16.504-88.958,17.178c-3.381,1.574-5.269,5.234-4.63,8.888L125.976,165.828z M271.331,29.552l-16.73,85.304
			h-20.729l15.5-92.188C259.189,25.091,266.661,27.722,271.331,29.552z M201.875,16.516c13.071,0.296,24.725,1.662,34.739,3.474
			l-15.94,94.884h-18.799V16.516L201.875,16.516z M251.905,128.555l-5.415,27.623H140.952l-4.874-27.623H251.905z M188.188,16.609
			v98.265h-19.154L153.175,20.46C163.371,18.573,175.169,17.085,188.188,16.609z M140.441,23.214l15.407,91.642h-22.175
			l-15.017-85.066C123.367,28.042,130.827,25.555,140.441,23.214z"/>
	</g>
</g>
<g>
</g>
<g>
</g>
<g>
</g>
<g>
</g>
<g>
</g>
<g>
</g>
<g>
</g>
<g>
</g>
<g>
</g>
<g>
</g>
<g>
</g>
<g>
</g>
<g>
</g>
<g>
</g>
<g>
</g>
</svg>
