<?xml version="1.0" encoding="iso-8859-1"?>
<!-- Generator: Adobe Illustrator 16.0.0, SVG Export Plug-In . SVG Version: 6.00 Build 0)  -->
<!DOCTYPE svg PUBLIC "-//W3C//DTD SVG 1.1//EN" "http://www.w3.org/Graphics/SVG/1.1/DTD/svg11.dtd">
<svg version="1.1" id="Capa_1" xmlns="http://www.w3.org/2000/svg" xmlns:xlink="http://www.w3.org/1999/xlink" x="0px" y="0px"
	 width="357.623px" height="357.623px" viewBox="0 0 357.623 357.623" style="enable-background:new 0 0 357.623 357.623;"
	 xml:space="preserve">
<g>
	<g>
		<path d="M357.597,299.635c-0.499-30.43-29.639-47.567-61.3-47.567c-31.928,0.012-54.712,19.218-59.767,35.938
			c-12.85,9.178-43.227,3.148-60.73-3.324c-8.377,0.012-136.711,0.012-136.711,0.012l-0.012,0.035
			c-0.087-0.012-0.192-0.023-0.291-0.023c-7.848,0-14.215,6.367-14.227,14.21c0,0.407,0.012,1.929,0,2.323
			c0.012,7.867,6.378,14.222,14.227,14.222c0.099,0,0.192-0.022,0.291-0.022l-0.012,0.022c0,0,128.375,0,136.734-0.011
			c17.526-6.484,47.881-12.549,60.73-3.37c5.066,16.743,27.851,35.937,59.778,35.925c31.649,0,60.789-17.16,61.276-47.578h0.012
			c0.012-0.14,0-0.662,0.023-0.779C357.632,299.635,357.608,299.635,357.597,299.635z M320.255,271.843
			c-2.242-0.094-5.484-0.209-9.365-0.325c-7.621-0.093-17.985-0.697-27.188,0.731c-2.161,0.256-4.601,1.012-6.809,1.755
			c-2.277,0.708-4.543,1.545-6.715,2.44c-4.369,1.695-8.412,3.543-11.921,5.135c-3.463,1.627-6.367,3.056-8.319,4.183
			c-1.998,1.046-2.858,2.033-2.766,2.103c-0.104,0.023,0.209-1.429,1.72-3.287c1.487-1.883,3.812-4.299,6.901-6.855
			c3.067-2.591,6.879-5.252,11.294-7.762c2.207-1.219,4.531-2.369,7.041-3.45c2.579-1.034,5.101-1.87,8.063-2.429
			c5.682-1.068,11.142-0.895,16.149-0.29c5.02,0.558,9.574,1.626,13.361,2.8c3.846,1.139,6.925,2.475,9.017,3.578
			c2.149,1.081,3.172,1.953,3.172,1.953S322.509,271.924,320.255,271.843z"/>
		<path d="M56.993,164.283v80.953c0,6.6,5.356,11.944,11.955,11.944h158.078c6.611,0,11.944-5.345,11.944-11.944v-87.104
			c14.431-7.233,26.56-17.202,33.81-30.825c14.907-28.042,16.069-55.206,3.301-76.48c-12.758-21.198-37.645-33.357-68.318-33.357
			c-21.941,0-41.589,9.62-57.669,21.808c-14.361-15.894-42.083-30.4-71.711-29.627c-19.13,0.5-46.254,7.581-66.912,38.551
			C0.834,64.153-2.425,81,1.775,98.3C9.723,130.995,42.998,155.313,56.993,164.283z M31.368,61.463
			C43.382,43.437,59.41,34.049,78.993,33.549c21.332-0.5,42.867,10.126,53.19,21.535c-16.295,16.493-26.136,32.445-26.973,33.839
			c-3.421,5.629-1.626,12.967,4.014,16.406c5.635,3.428,12.979,1.644,16.417-4.008c0.354-0.593,37.069-59.929,82.098-59.929
			c22.076,0,39.504,7.936,47.822,21.75c8.296,13.792,6.902,32.584-3.915,52.917c-19.81,37.267-104.33,38.766-135.235,36.209
			c-6.559-0.587-12.362,4.351-12.897,10.921c-0.552,6.588,4.328,12.374,10.91,12.92c1.331,0.104,10.347,0.807,23.545,0.807
			c20.118,0,49.955-1.667,77.09-9.591v65.93H80.893V157.55c0-4.345-2.353-8.342-6.146-10.457
			c-0.418-0.238-42.344-23.905-49.745-54.503C22.428,81.953,24.513,71.769,31.368,61.463z"/>
	</g>
</g>
<g>
</g>
<g>
</g>
<g>
</g>
<g>
</g>
<g>
</g>
<g>
</g>
<g>
</g>
<g>
</g>
<g>
</g>
<g>
</g>
<g>
</g>
<g>
</g>
<g>
</g>
<g>
</g>
<g>
</g>
</svg>
