<?xml version="1.0" encoding="iso-8859-1"?>
<!-- Generator: Adobe Illustrator 16.0.0, SVG Export Plug-In . SVG Version: 6.00 Build 0)  -->
<!DOCTYPE svg PUBLIC "-//W3C//DTD SVG 1.1//EN" "http://www.w3.org/Graphics/SVG/1.1/DTD/svg11.dtd">
<svg version="1.1" id="Capa_1" xmlns="http://www.w3.org/2000/svg" xmlns:xlink="http://www.w3.org/1999/xlink" x="0px" y="0px"
	 width="380.732px" height="380.731px" viewBox="0 0 380.732 380.731" style="enable-background:new 0 0 380.732 380.731;"
	 xml:space="preserve">
<g>
	<g>
		<path d="M110.848,182.436v80.954c0,6.6,5.356,11.943,11.955,11.943h158.09c6.6,0,11.944-5.344,11.944-11.943v-87.105
			c14.418-7.233,26.561-17.202,33.799-30.824c14.906-28.042,16.068-55.207,3.287-76.48c-12.745-21.198-37.645-33.357-68.317-33.357
			c-21.937,0-41.571,9.62-57.651,21.808c-14.367-15.894-42.089-30.4-71.711-29.627c-19.136,0.5-46.26,7.581-66.912,38.551
			c-10.625,15.953-13.884,32.799-9.689,50.1C63.595,149.148,96.871,173.467,110.848,182.436z M85.235,79.617
			c12.014-18.026,28.042-27.414,47.625-27.914c21.332-0.5,42.866,10.126,53.196,21.536c-16.302,16.493-26.143,32.445-26.973,33.839
			c-3.428,5.629-1.632,12.966,4.008,16.405c5.641,3.428,12.979,1.644,16.417-4.008c0.36-0.593,37.075-59.929,82.098-59.929
			c22.075,0,39.504,7.936,47.822,21.75c8.296,13.792,6.901,32.585-3.903,52.917c-19.822,37.267-104.336,38.766-135.247,36.209
			c-6.553-0.586-12.362,4.351-12.897,10.922c-0.546,6.587,4.328,12.374,10.91,12.92c1.331,0.11,10.353,0.807,23.545,0.807
			c20.112,0,49.961-1.667,77.09-9.591v65.931h-134.16v-75.708c0-4.345-2.358-8.342-6.152-10.457
			c-0.418-0.238-42.344-23.906-49.745-54.503C76.3,100.106,78.379,89.922,85.235,79.617z"/>
		<path d="M0,291.913v19.74c0,0,57.582-1.104,70.363-1.104c12.763,0,32.038,42.408,44.331,42.408c12.287,0,131.808,0,148.19,0
			s38.318-42.408,53.271-42.408c14.941,0,64.576,0,64.576,0v-19.764L0,291.913z"/>
	</g>
</g>
<g>
</g>
<g>
</g>
<g>
</g>
<g>
</g>
<g>
</g>
<g>
</g>
<g>
</g>
<g>
</g>
<g>
</g>
<g>
</g>
<g>
</g>
<g>
</g>
<g>
</g>
<g>
</g>
<g>
</g>
</svg>
