<?xml version="1.0" encoding="iso-8859-1"?>
<!-- Generator: Adobe Illustrator 16.0.0, SVG Export Plug-In . SVG Version: 6.00 Build 0)  -->
<!DOCTYPE svg PUBLIC "-//W3C//DTD SVG 1.1//EN" "http://www.w3.org/Graphics/SVG/1.1/DTD/svg11.dtd">
<svg version="1.1" id="Capa_1" xmlns="http://www.w3.org/2000/svg" xmlns:xlink="http://www.w3.org/1999/xlink" x="0px" y="0px"
	 width="333.293px" height="333.293px" viewBox="0 0 333.293 333.293" style="enable-background:new 0 0 333.293 333.293;"
	 xml:space="preserve">
<g>
	<path d="M208.253,154.854l-33.503-34.542l75.841-73.569l24.922-20.42l-14.279-14.285l-21.656,25.067l-72.763,75.021L93.013,36.064
		L72.611,11.154L58.332,25.445l25.067,21.651l75.48,73.204l-33.514,34.554H0c0,0,12.351,75.382,31.504,98.015
		c19.153,22.621,83.404,59.487,83.404,59.487v9.783h50.036h3.404h50.035v-9.783c0,0,64.275-36.866,83.411-59.487
		c19.159-22.633,31.498-98.015,31.498-98.015H208.253z M97.702,277.744c-6.326-3.729-13.489-8.4-20.844-13.907
		c-3.666-2.719-7.494-5.739-11.229-8.946c-3.869-3.184-7.105-6.529-10.707-9.818c-3.869-3.811-7.128-8.33-9.829-12.779
		c-2.644-4.521-4.543-9.237-6.094-13.769c-3.079-9.155-4.398-17.905-4.874-25.364c-1.022-14.953,1.307-24.724,1.307-24.724
		s2.533,9.644,6.791,23.203c2.225,6.738,4.938,14.5,8.499,22.203c1.714,3.904,3.997,7.564,6.146,11.259
		c2.358,3.602,4.95,6.808,8,9.759c3.41,3.347,6.78,7.064,10.184,10.016c3.34,3.207,6.651,6.344,9.835,9.389
		c6.489,6.157,12.612,11.92,17.753,17.044c10.388,10.108,16.917,17.591,16.917,17.591S110.302,285.285,97.702,277.744z
		 M139.151,154.854l27.676-26.857l27.67,26.857H139.151z"/>
</g>
<g>
</g>
<g>
</g>
<g>
</g>
<g>
</g>
<g>
</g>
<g>
</g>
<g>
</g>
<g>
</g>
<g>
</g>
<g>
</g>
<g>
</g>
<g>
</g>
<g>
</g>
<g>
</g>
<g>
</g>
</svg>
