<?xml version="1.0" encoding="iso-8859-1"?>
<!-- Generator: Adobe Illustrator 16.0.0, SVG Export Plug-In . SVG Version: 6.00 Build 0)  -->
<!DOCTYPE svg PUBLIC "-//W3C//DTD SVG 1.1//EN" "http://www.w3.org/Graphics/SVG/1.1/DTD/svg11.dtd">
<svg version="1.1" id="Capa_1" xmlns="http://www.w3.org/2000/svg" xmlns:xlink="http://www.w3.org/1999/xlink" x="0px" y="0px"
	 width="380.715px" height="380.715px" viewBox="0 0 380.715 380.715" style="enable-background:new 0 0 380.715 380.715;"
	 xml:space="preserve">
<g>
	<path d="M340.589,216.41L207.729,83.544c6.274-8.528,10.225-21.663,10.225-36.669C217.954,20.583,205.824,0,190.359,0
		c-15.47,0-27.594,20.583-27.594,46.875c0,15.006,3.95,28.141,10.224,36.669L40.13,216.41c-5.501,5.483-5.501,14.407,0,19.915
		l140.272,140.26c5.496,5.508,14.419,5.508,19.915,0l140.271-140.26C346.085,230.817,346.085,221.893,340.589,216.41z
		 M172.571,46.875c0-21.843,9.365-37.058,17.777-37.058c8.411,0,17.776,15.215,17.776,37.058c0,12.659-3.161,23.081-7.46,29.616
		l-0.359-0.36c-5.496-5.507-14.419-5.507-19.915,0l-0.36,0.36C175.737,69.968,172.571,59.546,172.571,46.875z"/>
</g>
<g>
</g>
<g>
</g>
<g>
</g>
<g>
</g>
<g>
</g>
<g>
</g>
<g>
</g>
<g>
</g>
<g>
</g>
<g>
</g>
<g>
</g>
<g>
</g>
<g>
</g>
<g>
</g>
<g>
</g>
</svg>
