<?xml version="1.0" encoding="iso-8859-1"?>
<!-- Generator: Adobe Illustrator 16.0.0, SVG Export Plug-In . SVG Version: 6.00 Build 0)  -->
<!DOCTYPE svg PUBLIC "-//W3C//DTD SVG 1.1//EN" "http://www.w3.org/Graphics/SVG/1.1/DTD/svg11.dtd">
<svg version="1.1" id="Capa_1" xmlns="http://www.w3.org/2000/svg" xmlns:xlink="http://www.w3.org/1999/xlink" x="0px" y="0px"
	 width="323.243px" height="323.244px" viewBox="0 0 323.243 323.244" style="enable-background:new 0 0 323.243 323.244;"
	 xml:space="preserve">
<g>
	<g>
		<path d="M240.715,192.365c-14.081,6.831-63.135,24.538-63.135,24.538l-57.972-3.648c0,0,33.153-9.214,46.016-12.106
			c12.873-2.881,7.273-17.416,0.157-17.416c-7.117,0-69.172,2.579-69.172,2.579l-41.2,14.837l10.91,69.026
			c0,0,8.481-14.522,16.951-14.522c8.482,0,82.058,1.963,92.055,0c9.992-1.977,70.851-43.605,78.112-48.463
			C260.711,202.357,254.82,185.533,240.715,192.365z"/>
		<polygon points="0,208.56 0,298.048 63.142,286.22 47.34,200.242 		"/>
		<path d="M240.89,151.867c0-1.057,0-2.655,0-4.676c10.794-0.082,22.866-14.704,30.058-27.577
			c21.111-2.905,52.028-28.344,52.284-57.111c0.093-10.846-4.427-16.476-8.227-19.281c-7.552-5.583-17.823-4.473-25.468-2.644
			c0.232-5.96,0.209-11.27-0.035-15.383c-27.188,0-80.319,0-89.115,0c0,0-0.558,0-1.383,0c-7.668,0-48.252,0-75.079,0
			c-1.499,28.007,9.254,118.499,50.169,121.996c0,2.021,0,3.619,0,4.676H95.012v15.075h228.231v-15.075H240.89z M288.375,57.117
			c8.924-2.702,14.826-3.213,17.382-1.348c1.604,1.191,1.905,4.258,1.882,6.617c-0.116,15.976-15.255,31.149-28.233,38.051
			C284.239,86.181,286.958,70.844,288.375,57.117z M153.941,110.999c-8.9-20.559-15.325-76.276-15.325-76.276
			s18.073,50.076,22.181,63.949c4.101,13.861,22.104,33.555,22.104,33.555S162.853,131.546,153.941,110.999z"/>
	</g>
</g>
<g>
</g>
<g>
</g>
<g>
</g>
<g>
</g>
<g>
</g>
<g>
</g>
<g>
</g>
<g>
</g>
<g>
</g>
<g>
</g>
<g>
</g>
<g>
</g>
<g>
</g>
<g>
</g>
<g>
</g>
</svg>
