<?xml version="1.0" encoding="iso-8859-1"?>
<!-- Generator: Adobe Illustrator 16.0.0, SVG Export Plug-In . SVG Version: 6.00 Build 0)  -->
<!DOCTYPE svg PUBLIC "-//W3C//DTD SVG 1.1//EN" "http://www.w3.org/Graphics/SVG/1.1/DTD/svg11.dtd">
<svg version="1.1" id="Capa_1" xmlns="http://www.w3.org/2000/svg" xmlns:xlink="http://www.w3.org/1999/xlink" x="0px" y="0px"
	 width="380.744px" height="380.744px" viewBox="0 0 380.744 380.744" style="enable-background:new 0 0 380.744 380.744;"
	 xml:space="preserve">
<g>
	<g>
		<path d="M68.533,176.372h7.14v-8.737c0,0-9.923-21.808-0.691-55.276c0-7.076,0.012-96.795,0.012-96.795h-0.035
			c0-0.076,0.023-0.157,0.012-0.238c0.023-6.652-5.38-12.043-12.014-12.043c-6.64,0.012-12.02,5.403-12.031,12.043
			c0,0.093,0.023,0.163,0.023,0.25h-0.023c0,0,0,88.372,0.012,96.557c6.959,40.491-1.545,55.514-1.545,55.514v8.726h7.151v49.112
			L19.67,257.365l0.012,104.348c0,0,4.02,15.709,39.074,15.709c35.048,0,46.341-15.709,46.341-15.709V257.365l-36.552-31.834
			v-49.159H68.533z M59.656,273.48v6.785h-6.791l-0.012-6.785H59.656z M52.784,295.695h6.803l-0.011,6.785h-6.792V295.695z
			 M52.946,314.123v-6.797l6.785-0.012l0.012,6.809H52.946z M59.621,318.05v6.785H52.83v-6.809L59.621,318.05z M40.468,273.48h6.803
			v6.785h-6.803V273.48z M40.398,295.695h6.791l0.012,6.785h-6.803V295.695z M40.561,314.123v-6.797h6.786v6.797H40.561z
			 M47.224,318.027v6.809h-6.779l-0.023-6.809H47.224z M35.199,273.48l-0.012,6.785h-6.809v-6.785H35.199z M35.112,295.695v6.785
			H28.32v-6.785H35.112z M28.448,314.123l0.012-6.797l6.797-0.012v6.785L28.448,314.123z M35.146,318.027v6.797h-6.803v-6.797
			H35.146z M28.274,340.265h6.803v6.785h-6.792L28.274,340.265z M35.222,358.668h-6.786v-6.785h6.797L35.222,358.668z
			 M35.304,336.477h-6.803v-6.797h6.803V336.477z M35.327,291.908h-6.78v-6.797h6.78V291.908z M40.357,340.265h6.797v6.785h-6.809
			L40.357,340.265z M40.515,358.668v-6.785h6.797l0.012,6.785H40.515z M47.393,336.477h-6.809v-6.797h6.809V336.477z
			 M40.637,291.908v-6.797h6.779l0.012,6.797H40.637z M52.743,340.265h6.797v6.785h-6.785L52.743,340.265z M59.691,358.668H52.9
			v-6.785h6.809L59.691,358.668z M59.778,336.477h-6.797v-6.797h6.797V336.477z M59.813,291.908h-6.791v-6.797h6.791V291.908z
			 M56.734,16.835c0-3.724,3.021-6.745,6.756-6.733c3.735-0.012,6.745,3.009,6.745,6.745c0.023,3.724-3.021,16.406-6.733,16.406
			C59.767,33.253,56.746,20.571,56.734,16.835z M65.036,314.123v-6.809l6.791,0.012v6.797H65.036z M71.71,318.05v6.785h-6.791
			v-6.785H71.71z M64.867,302.48l0.012-6.785h6.797v6.785H64.867z M64.844,340.265h6.785v6.785h-6.797L64.844,340.265z
			 M64.989,358.668v-6.785h6.803v6.785H64.989z M71.867,336.477h-6.809v-6.797h6.797v6.797H71.867z M84.323,358.668h-6.786v-6.785
			h6.786V358.668z M77.602,336.477v-6.797h6.803v6.797H77.602z M84.253,318.05v6.785h-6.785l-0.012-6.809L84.253,318.05z
			 M77.555,307.326h6.803v6.797h-6.779L77.555,307.326z M89.615,358.668v-6.785h6.797l0.012,6.785H89.615z M89.685,336.477v-6.797
			h6.809v6.797H89.685z M96.325,318.05v6.773h-6.78v-6.773H96.325z M89.661,314.123v-6.797h6.786v6.797H89.661z M96.528,291.908
			h-6.791v-6.797h6.791V291.908z M89.568,273.48h6.803v6.785h-6.803V273.48z M89.499,295.695h6.803v6.785l-6.803,0.012V295.695z
			 M89.452,340.265h6.803v6.785h-6.803V340.265z M84.438,291.908h-6.791v-6.797h6.78L84.438,291.908z M77.479,273.457l6.809,0.023
			v6.785h-6.809V273.457z M77.421,295.695h6.791v6.797l-6.791-0.012V295.695z M77.386,340.265h6.792v6.785h-6.792V340.265z
			 M71.902,291.908h-6.809v-6.797h6.809V291.908z M71.745,273.48v6.785h-6.791v-6.785H71.745z"/>
		<path d="M206.824,269.169V152.942h6.297l0.023-7.709c0,0-8.76-19.275-0.639-48.827c0-6.234,0-85.52,0-85.52h-0.023
			c0-0.07,0.023-0.157,0.023-0.215c0-5.868-4.752-10.637-10.631-10.637c-5.873,0-10.62,4.747-10.62,10.637
			c0,0.07,0.023,0.133,0.023,0.215h-0.023c0,0,0,78.072,0,85.304c6.164,35.774-1.365,49.054-1.365,49.054v7.697h6.315v116.239
			c-28.373,2.673-50.588,26.537-50.588,55.619c0,30.871,25.032,55.874,55.886,55.874c30.848,0,55.886-25.026,55.886-55.886
			C257.389,295.718,235.197,271.854,206.824,269.169z M187.677,315.029c-0.012-1.929,1.557-3.485,3.474-3.485
			c1.94,0,3.497,1.557,3.497,3.485s-1.557,3.486-3.497,3.486C189.233,318.515,187.665,316.981,187.677,315.029z M189.414,326.252
			c-0.012,1.917-1.574,3.485-3.498,3.485c-1.929,0-3.509-1.557-3.485-3.485c-0.023-1.94,1.557-3.497,3.485-3.497
			C187.84,322.755,189.402,324.324,189.414,326.252z M190.209,292.279c1.906,0,3.486,1.558,3.486,3.486s-1.58,3.485-3.486,3.485
			c-1.939,0-3.497-1.557-3.497-3.485C186.701,293.836,188.27,292.256,190.209,292.279z M183.796,279.626
			c1.929,0,3.497,1.557,3.497,3.486c-0.012,1.928-1.568,3.496-3.497,3.496c-1.917-0.011-3.497-1.568-3.497-3.496
			C180.299,281.183,181.879,279.626,183.796,279.626z M180.299,298.531c1.94-0.012,3.497,1.557,3.497,3.485
			s-1.557,3.485-3.485,3.485s-3.509-1.557-3.509-3.475C176.802,300.087,178.382,298.519,180.299,298.531z M178.051,313.054
			c-0.012,1.928-1.568,3.484-3.509,3.484c-1.917,0-3.485-1.557-3.497-3.484c0-1.93,1.58-3.486,3.508-3.486
			C176.482,309.568,178.051,311.101,178.051,313.054z M174.553,324.8c0,1.917-1.557,3.485-3.508,3.485
			c-1.906,0-3.486-1.557-3.486-3.485c0-1.94,1.58-3.498,3.486-3.498C172.967,321.314,174.542,322.86,174.553,324.8z
			 M170.365,290.119c1.905,0,3.485,1.58,3.485,3.509c0,1.905-1.558,3.485-3.485,3.485c-1.929-0.023-3.498-1.58-3.486-3.485
			C166.867,291.699,168.436,290.119,170.365,290.119z M160.657,305.13c1.94,0,3.497,1.58,3.509,3.484
			c-0.012,1.93-1.568,3.486-3.509,3.486c-1.917,0-3.485-1.533-3.485-3.486C157.172,306.687,158.729,305.13,160.657,305.13z
			 M153.256,325.648c0-1.939,1.568-3.485,3.497-3.485c1.929-0.012,3.498,1.558,3.486,3.474c0,1.941-1.557,3.51-3.486,3.51
			S153.256,327.578,153.256,325.648z M160.837,347.748c-1.929,0-3.492-1.558-3.492-3.486s1.563-3.485,3.492-3.485
			c1.923,0,3.498,1.557,3.498,3.485C164.346,346.19,162.76,347.748,160.837,347.748z M170.092,360.132
			c-1.917,0-3.485-1.557-3.485-3.485c-0.012-1.929,1.568-3.509,3.485-3.509c1.929,0.023,3.497,1.557,3.497,3.509
			C173.601,358.576,172.021,360.132,170.092,360.132z M172.387,339.486c-1.929,0-3.486-1.568-3.486-3.485s1.558-3.497,3.486-3.485
			c1.929-0.012,3.485,1.568,3.485,3.497C175.884,337.917,174.304,339.498,172.387,339.486z M176.802,347.748
			c0-1.93,1.568-3.486,3.497-3.486c1.94,0,3.497,1.557,3.497,3.486c0,1.951-1.557,3.484-3.497,3.508
			C178.37,351.232,176.802,349.699,176.802,347.748z M183.796,370.357c-1.929-0.012-3.497-1.557-3.497-3.497
			c0-1.917,1.58-3.485,3.497-3.485c1.929,0.012,3.485,1.557,3.485,3.485C187.293,368.8,185.725,370.369,183.796,370.357z
			 M189.402,357.902c-1.918,0-3.486-1.568-3.486-3.498c0-1.928,1.568-3.484,3.486-3.484c1.928,0,3.509,1.557,3.509,3.484
			C192.911,356.345,191.33,357.902,189.402,357.902z M191.162,340.776c-1.929,0-3.497-1.568-3.497-3.485
			c0-1.93,1.568-3.486,3.485-3.486c1.94,0,3.497,1.557,3.497,3.486C194.647,339.208,193.091,340.776,191.162,340.776z
			 M231.874,312.125c1.905-0.023,3.485,1.557,3.485,3.485s-1.58,3.485-3.509,3.485c-1.917,0-3.474-1.557-3.485-3.485
			C228.377,313.669,229.934,312.101,231.874,312.125z M220.093,280.185c1.929-0.012,3.509,1.568,3.509,3.484
			c0,1.93-1.58,3.486-3.509,3.498c-1.929-0.012-3.485-1.568-3.497-3.498C216.607,281.753,218.164,280.173,220.093,280.185z
			 M214.33,293.627c1.929,0,3.485,1.557,3.509,3.485c-0.023,1.917-1.58,3.486-3.509,3.486s-3.486-1.569-3.486-3.486
			C210.844,295.184,212.401,293.627,214.33,293.627z M218.605,322.163c1.929,0,3.509,1.546,3.485,3.485
			c0.023,1.93-1.557,3.498-3.485,3.498c-1.929-0.012-3.485-1.568-3.485-3.498C215.12,323.72,216.677,322.151,218.605,322.163z
			 M213.354,310.939c1.929,0,3.498,1.58,3.486,3.509c0.012,1.917-1.558,3.485-3.486,3.485s-3.485-1.568-3.485-3.485
			C209.868,312.519,211.425,310.939,213.354,310.939z M202.362,6.053c3.288,0,5.972,2.667,5.972,5.96
			c0,3.288-2.684,14.506-5.972,14.506c-3.276,0-5.954-11.194-5.954-14.506C196.408,8.72,199.086,6.053,202.362,6.053z
			 M202.246,296.974c-1.929,0-3.509-1.558-3.509-3.486c0-1.952,1.58-3.497,3.509-3.497c1.906-0.012,3.486,1.557,3.486,3.485
			C205.732,295.417,204.152,296.962,202.246,296.974z M205.012,310.253c0,1.929-1.557,3.486-3.485,3.486s-3.497-1.558-3.497-3.486
			c0-1.939,1.568-3.485,3.497-3.497C203.455,306.756,205.012,308.314,205.012,310.253z M198.029,279.185
			c0-1.917,1.568-3.474,3.497-3.485c1.929,0.012,3.485,1.568,3.497,3.497c-0.012,1.929-1.568,3.497-3.497,3.486
			C199.598,282.694,198.029,281.125,198.029,279.185z M202.223,320.64c2.766,0,5.02,2.243,5.02,5.008
			c0,2.766-2.242,5.008-4.996,4.996c-2.765,0-5.02-2.23-5.02-5.008C197.227,322.883,199.458,320.628,202.223,320.64z
			 M201.526,373.843c-1.929,0-3.497-1.558-3.497-3.486c0-1.917,1.58-3.497,3.497-3.497c1.929,0.012,3.485,1.568,3.485,3.497
			S203.455,373.854,201.526,373.843z M201.526,360.132c-1.929,0-3.497-1.557-3.497-3.485c0-1.952,1.568-3.485,3.497-3.509
			c1.929,0,3.485,1.557,3.485,3.509C205.012,358.576,203.455,360.132,201.526,360.132z M203.757,344.261
			c-1.929,0.023-3.509-1.557-3.509-3.485s1.557-3.485,3.509-3.485c1.917,0,3.485,1.557,3.485,3.485S205.674,344.261,203.757,344.261
			z M213.354,333.189c1.929,0,3.498,1.545,3.486,3.485c0.012,1.94-1.558,3.497-3.486,3.497s-3.485-1.557-3.485-3.497
			C209.868,334.746,211.425,333.189,213.354,333.189z M209.868,354.404c0-1.928,1.557-3.484,3.485-3.484s3.498,1.545,3.486,3.484
			c0.012,1.93-1.58,3.498-3.486,3.498C211.425,357.902,209.868,356.333,209.868,354.404z M218.629,371.542
			c-1.952,0-3.521-1.557-3.509-3.51c-0.012-1.904,1.557-3.462,3.509-3.462c1.905,0,3.485,1.558,3.485,3.485
			C222.091,369.986,220.534,371.542,218.629,371.542z M223.602,351.232c-1.952,0-3.509-1.557-3.509-3.484
			c0.023-1.93,1.557-3.486,3.509-3.486c1.917,0,3.485,1.557,3.485,3.486C227.087,349.699,225.519,351.232,223.602,351.232z
			 M223.602,307.988c-1.952,0-3.485-1.568-3.509-3.485c0.023-1.929,1.557-3.497,3.509-3.497c1.917-0.012,3.485,1.568,3.485,3.485
			C227.087,306.419,225.507,307.988,223.602,307.988z M228.365,338.917c0.012-1.918,1.568-3.486,3.485-3.486
			c1.929,0,3.509,1.568,3.497,3.486c0.012,1.928-1.568,3.496-3.497,3.496C229.934,342.414,228.377,340.845,228.365,338.917z
			 M233.826,361.387c-1.929,0-3.509-1.545-3.497-3.485c-0.012-1.929,1.568-3.498,3.497-3.498c1.917,0,3.485,1.569,3.497,3.498
			C237.312,359.831,235.743,361.387,233.826,361.387z M233.826,330.656c-1.929-0.012-3.509-1.568-3.497-3.485
			c0-1.94,1.568-3.497,3.497-3.497c1.917-0.012,3.485,1.557,3.497,3.485C237.312,329.099,235.743,330.644,233.826,330.656z
			 M234.697,297.113c-1.94,0-3.521-1.568-3.497-3.485c-0.023-1.929,1.557-3.509,3.497-3.509c1.917,0,3.475,1.58,3.497,3.509
			C238.194,295.544,236.614,297.113,234.697,297.113z M244.934,345.156c-1.906,0-3.486-1.568-3.486-3.497s1.58-3.485,3.486-3.485
			c1.951,0,3.509,1.557,3.509,3.485S246.885,345.156,244.934,345.156z M250.929,324.138c0,1.917-1.58,3.485-3.485,3.485
			c-1.929-0.012-3.486-1.568-3.486-3.485c0-1.94,1.558-3.51,3.486-3.498C249.349,320.64,250.929,322.198,250.929,324.138z
			 M247.443,307.976c-0.023,1.94-1.557,3.498-3.486,3.498c-1.951,0.022-3.509-1.558-3.509-3.486s1.558-3.485,3.486-3.497
			C245.887,304.491,247.42,306.059,247.443,307.976z"/>
		<path d="M360.98,294.743c-0.046-6.832-28.57-30.034-32.16-32.927V156.771h7.971v-7.907c0,0-8.97-19.775-0.628-50.082
			c0-6.396,0-87.681,0-87.681h-0.022c0-0.087,0.046-0.157,0.046-0.227C336.163,4.868,331.283,0,325.288,0
			c-6.042-0.012-10.921,4.868-10.898,10.887c0,0.07,0,0.14,0,0.227h-0.022c0,0,0.022,80.059,0.022,87.483
			c6.298,36.68-1.417,50.292-1.417,50.292v7.912h7.993v104.76c0,0-32.462,25.909-32.521,33.205c-0.035,7.32-0.244,35.717,0,38.877
			c0.221,3.16-1.186,47.09,18.439,47.09c5.6,0,15.673,0,17.648-0.012c0.221,0.012,0.359,0.023,0.359,0.023
			c1.93-0.012,11.828-0.012,17.638,0c18.544,0,18.218-43.941,18.45-47.102C361.178,330.458,361.004,302.062,360.98,294.743z
			 M302.492,370.31h-4.392v-73.359h4.392V370.31z M315.075,371.96h-4.38v-62.229h4.38V371.96z M319.642,12.258
			c0-3.381,2.742-6.117,6.111-6.117s6.123,2.725,6.123,6.1c0,3.393-2.73,14.89-6.123,14.89
			C322.384,27.141,319.642,15.633,319.642,12.258z M322.686,371.96v-53.667h4.381l0.011,53.667H322.686z M338.429,371.96h-4.38
			v-62.229h4.392L338.429,371.96z M349.757,369.498h-4.392v-73.384l4.392,0.022V369.498z"/>
	</g>
</g>
<g>
</g>
<g>
</g>
<g>
</g>
<g>
</g>
<g>
</g>
<g>
</g>
<g>
</g>
<g>
</g>
<g>
</g>
<g>
</g>
<g>
</g>
<g>
</g>
<g>
</g>
<g>
</g>
<g>
</g>
</svg>
