<?xml version="1.0" encoding="iso-8859-1"?>
<!-- Generator: Adobe Illustrator 16.0.0, SVG Export Plug-In . SVG Version: 6.00 Build 0)  -->
<!DOCTYPE svg PUBLIC "-//W3C//DTD SVG 1.1//EN" "http://www.w3.org/Graphics/SVG/1.1/DTD/svg11.dtd">
<svg version="1.1" id="Capa_1" xmlns="http://www.w3.org/2000/svg" xmlns:xlink="http://www.w3.org/1999/xlink" x="0px" y="0px"
	 width="380.729px" height="380.729px" viewBox="0 0 380.729 380.729" style="enable-background:new 0 0 380.729 380.729;"
	 xml:space="preserve">
<g>
	<path d="M135.087,312.887c6.344-6.413,1.354-54.631,0.715-60.649l97.91-97.899l7.436,7.436l7.379-7.378
		c0,0,10.05-26.792,46.079-47.259c5.96-5.96,81.702-81.708,81.702-81.708l-0.022-0.023c0.081-0.075,0.174-0.11,0.243-0.18
		c5.601-5.618,5.601-14.704,0-20.31c-5.611-5.618-14.709-5.618-20.309,0c-0.07,0.07-0.116,0.145-0.198,0.215l-0.022-0.012
		c0,0-74.604,74.609-81.518,81.534c-28.303,40.056-48.17,45.551-48.17,45.551l-7.367,7.377l7.437,7.436l-97.626,97.62
		c0,0-54.416-6.123-61.26,0.65c-6.837,6.763-33.491,33.067-36.215,36.228c-2.736,3.137-44.982,42.769-26.711,61.044
		c5.211,5.205,14.622,14.617,16.47,16.453c0.203,0.209,0.319,0.348,0.319,0.348c1.807,1.789,11.044,11.026,16.458,16.452
		c17.26,17.266,57.913-23.97,61.067-26.7C102.015,346.361,128.319,319.731,135.087,312.887z M371.219,11.116
		c3.161,3.154,3.161,8.243,0.012,11.386c-3.148,3.166-16.417,11.316-19.554,8.174c-3.172-3.143,5.02-16.406,8.156-19.56
		C362.981,7.961,368.094,7.961,371.219,11.116z M10.175,328.793l-4.078-4.078l68.358-68.376l4.084,4.09L10.175,328.793z
		 M20.382,342.062l-4.067-4.09l57.989-57.989l4.078,4.078L20.382,342.062z M31.564,353.227l-4.078-4.09l49.995-49.994l4.078,4.078
		L31.564,353.227z M42.155,363.824l-4.09-4.09l58-58.001l4.09,4.102L42.155,363.824z M54.994,372.061l-4.084-4.09l68.364-68.363
		l4.084,4.09L54.994,372.061z"/>
</g>
<g>
</g>
<g>
</g>
<g>
</g>
<g>
</g>
<g>
</g>
<g>
</g>
<g>
</g>
<g>
</g>
<g>
</g>
<g>
</g>
<g>
</g>
<g>
</g>
<g>
</g>
<g>
</g>
<g>
</g>
</svg>
