<?xml version="1.0" encoding="iso-8859-1"?>
<!-- Generator: Adobe Illustrator 16.0.0, SVG Export Plug-In . SVG Version: 6.00 Build 0)  -->
<!DOCTYPE svg PUBLIC "-//W3C//DTD SVG 1.1//EN" "http://www.w3.org/Graphics/SVG/1.1/DTD/svg11.dtd">
<svg version="1.1" id="Capa_1" xmlns="http://www.w3.org/2000/svg" xmlns:xlink="http://www.w3.org/1999/xlink" x="0px" y="0px"
	 width="32px" height="32px" viewBox="0 0 32 32" style="enable-background:new 0 0 32 32;" xml:space="preserve">
<g>
	<path d="M28.005,9.017c-0.698,0.246-1.646,1.209-2.062,1.659c0-1.9,0-3.278,0-3.278L16.48,7.352V7.348L15.999,7.35L15.52,7.348
		v0.004L6.057,7.397c0,0,0,1.378,0,3.277c-0.417-0.45-1.364-1.412-2.062-1.658c-0.92-0.325-3.995,0-3.995,0v1.244
		c0,0,3.021-0.105,3.671,0.271c0.65,0.378,1.353,3.571,1.894,3.571c0.12,0,0.295,0,0.492,0c0,3.438,0,7.03,0,7.613
		c0,1.163,1.112,2.937,3.238,2.937c1.55,0,4.653,0,6.225,0c0.582,0,0.96,0,0.96,0c1.57,0,4.676,0,6.226,0
		c2.125,0,3.237-1.771,3.237-2.937c0-0.583,0-4.175,0-7.613c0.197,0,0.373,0,0.492,0c0.541,0,1.244-3.193,1.895-3.571
		c0.648-0.377,3.67-0.271,3.67-0.271V9.017C32,9.017,28.925,8.691,28.005,9.017z M10.114,22.984
		c-0.412-0.058-1.082-0.164-1.675-0.808c-0.294-0.29-0.487-0.871-0.507-1.293c-0.037-0.401-0.06-0.825-0.078-1.265
		C7.8,18.744,7.798,17.809,7.79,16.875c0.003-1.868,0.121-3.738,0.281-5.141c0.153-1.402,0.366-2.337,0.366-2.337
		s0.213,0.935,0.367,2.338c0.16,1.4,0.278,3.271,0.281,5.142c-0.009,0.935-0.011,1.869-0.064,2.744
		c-0.019,0.438-0.041,0.86-0.078,1.265c-0.023,0.383,0.012,0.562,0.135,0.836c0.262,0.493,0.771,0.815,1.118,1.001
		c0.355,0.189,0.586,0.271,0.586,0.271S10.541,23.035,10.114,22.984z"/>
</g>
<g>
</g>
<g>
</g>
<g>
</g>
<g>
</g>
<g>
</g>
<g>
</g>
<g>
</g>
<g>
</g>
<g>
</g>
<g>
</g>
<g>
</g>
<g>
</g>
<g>
</g>
<g>
</g>
<g>
</g>
</svg>
