<?xml version="1.0" encoding="iso-8859-1"?>
<!-- Generator: Adobe Illustrator 16.0.0, SVG Export Plug-In . SVG Version: 6.00 Build 0)  -->
<!DOCTYPE svg PUBLIC "-//W3C//DTD SVG 1.1//EN" "http://www.w3.org/Graphics/SVG/1.1/DTD/svg11.dtd">
<svg version="1.1" id="Capa_1" xmlns="http://www.w3.org/2000/svg" xmlns:xlink="http://www.w3.org/1999/xlink" x="0px" y="0px"
	 width="380.723px" height="380.723px" viewBox="0 0 380.723 380.723" style="enable-background:new 0 0 380.723 380.723;"
	 xml:space="preserve">
<g>
	<path d="M349.816,4.941c-5.937,5.938-17.114,18.038-28.698,30.767c-12.524-11.636-23.748-19.903-26.549-17.109
		c-7.365,7.378-273.213,273.213-273.213,273.213h0.012c-1.429,1.44-2.399,2.405-2.771,2.776
		c-2.794,2.801,5.472,14.024,17.108,26.525c-12.74,11.596-24.829,22.75-30.778,28.688c-15.691,15.696,9.696,42.001,25.852,25.863
		c6.129-6.146,17.492-18.23,29.221-30.871c12.815,11.363,24.068,19.484,25.997,17.184c0.104-0.127,0.343-0.371,0.645-0.697
		l0.023,0.023c0,0,59.697-59.883,123.507-123.832c54.782-54.654,106.95-106.63,106.95-106.63l-0.187-0.192
		c25.806-25.782,43.547-43.413,45.046-44.662c2.277-1.94-5.833-13.182-17.173-26.009c12.63-11.729,24.713-23.092,30.848-29.221
		C391.818,14.637,365.524-10.768,349.816,4.941z"/>
</g>
<g>
</g>
<g>
</g>
<g>
</g>
<g>
</g>
<g>
</g>
<g>
</g>
<g>
</g>
<g>
</g>
<g>
</g>
<g>
</g>
<g>
</g>
<g>
</g>
<g>
</g>
<g>
</g>
<g>
</g>
</svg>
