<?xml version="1.0" encoding="iso-8859-1"?>
<!-- Generator: Adobe Illustrator 16.0.0, SVG Export Plug-In . SVG Version: 6.00 Build 0)  -->
<!DOCTYPE svg PUBLIC "-//W3C//DTD SVG 1.1//EN" "http://www.w3.org/Graphics/SVG/1.1/DTD/svg11.dtd">
<svg version="1.1" id="Capa_1" xmlns="http://www.w3.org/2000/svg" xmlns:xlink="http://www.w3.org/1999/xlink" x="0px" y="0px"
	 width="373.517px" height="373.517px" viewBox="0 0 373.517 373.517" style="enable-background:new 0 0 373.517 373.517;"
	 xml:space="preserve">
<g>
	<g>
		<path d="M57.866,52.435v-34.02l5.211-6.256H319.63V0H57.367L45.696,14.03v38.417h-0.035v321.07h282.194V52.435H57.866z
			 M189.825,313.959c-41.252,0-74.685-33.438-74.685-74.685c0-41.223,33.444-74.662,74.685-74.662
			c41.234,0,74.662,33.439,74.662,74.662C264.511,280.522,231.06,313.959,189.825,313.959z M287.562,115.24H102.97V97.132h184.592
			V115.24z"/>
		<polygon points="183.087,211.321 183.087,200.782 173.036,204.617 175.413,218.5 		"/>
		<polygon points="191.011,265.463 198.655,258.284 198.655,247.745 188.594,251.59 		"/>
		<polygon points="201.468,200.782 191.405,204.617 201.468,211.833 		"/>
		<polygon points="213.04,236.487 206.092,228.563 198.655,236.231 202.374,244.387 211.134,242.958 		"/>
		<polygon points="171.119,250.372 179.973,250.372 181.675,238.404 171.119,245.108 		"/>
		<polygon points="211.46,273.155 211.46,278.43 220.359,278.43 216.734,269.797 		"/>
		<polygon points="228.027,219.942 222.776,223.311 222.776,228.551 231.606,228.551 		"/>
		<polygon points="187.612,221.847 182.337,225.216 182.337,230.468 191.173,230.468 		"/>
		<polygon points="212.319,250.859 207.067,254.217 207.067,259.492 215.921,259.492 		"/>
		<polygon points="216.734,205.336 211.482,208.695 211.482,213.946 220.336,213.946 		"/>
		<polygon points="162.492,221.266 162.492,213.342 146.697,229.167 158.652,233 162.492,235.163 166.814,224.264 		"/>
		<polygon points="156.747,260.932 156.747,249.418 146.674,253.729 		"/>
		<polygon points="232.233,256.61 232.233,245.108 222.148,249.407 		"/>
		<polygon points="164.671,267.392 166.123,274.108 176.649,274.108 178.079,266.928 181.675,259.736 172.821,259.736 		"/>
		<polygon points="188.123,279.36 196.738,283.682 199.144,279.36 196.738,274.108 		"/>
	</g>
</g>
<g>
</g>
<g>
</g>
<g>
</g>
<g>
</g>
<g>
</g>
<g>
</g>
<g>
</g>
<g>
</g>
<g>
</g>
<g>
</g>
<g>
</g>
<g>
</g>
<g>
</g>
<g>
</g>
<g>
</g>
</svg>
