<?xml version="1.0" encoding="iso-8859-1"?>
<!-- Generator: Adobe Illustrator 16.0.0, SVG Export Plug-In . SVG Version: 6.00 Build 0)  -->
<!DOCTYPE svg PUBLIC "-//W3C//DTD SVG 1.1//EN" "http://www.w3.org/Graphics/SVG/1.1/DTD/svg11.dtd">
<svg version="1.1" id="Capa_1" xmlns="http://www.w3.org/2000/svg" xmlns:xlink="http://www.w3.org/1999/xlink" x="0px" y="0px"
	 width="226.1px" height="226.099px" viewBox="0 0 226.1 226.099" style="enable-background:new 0 0 226.1 226.099;"
	 xml:space="preserve">
<g>
	<g>
		<path d="M203.559,100.02c-3.229,1.133-7.354,4.95-10.062,7.697c-0.116-6.832-0.349-11.566-0.395-12.92h5.995v-8.47H25.137v8.47
			h6.786c-0.046,1.383-0.285,6.332-0.395,13.431c-2.655-2.603-6.164-5.652-8.97-6.651c-5.211-1.83-22.558,0-22.558,0v7.023
			c0,0,17.05-0.599,20.687,1.545c3.701,2.126,7.639,20.147,10.701,20.147c0.116,0,0.296,0,0.436,0
			c0.813,19.24,3.538,40.084,10.91,46.834h-9.173v11.166h156.312v-11.166h-7.575c7.575-6.924,10.248-28.744,10.991-48.392
			c0.546,0,1.034,0,1.395,0c3.067,0,7.041-18.032,10.688-20.146c3.672-2.144,20.729-1.54,20.729-1.54v-7.029
			C226.111,100.02,208.753,98.189,203.559,100.02z M53.097,162.847c-1.638-3.253-3.259-7.203-4.508-11.607
			c-0.75-2.148-1.057-4.589-1.581-6.971c-0.609-2.451-0.656-4.822-0.836-7.146c-0.227-2.196-0.25-4.88-0.116-7.272
			c0.058-2.371,0.151-4.706,0.331-6.949c0.238-2.266,0.145-4.427,0.621-6.489c0.401-2.045,0.785-3.985,1.127-5.757
			c1.441-7.163,3.869-11.456,3.869-11.456s-0.035,1.226,0.181,3.317c0.221,2.132,0.209,4.961,0.674,8.493
			c0.284,3.515,0.511,7.5,1.109,11.822c0.308,2.161,0.477,4.369,0.674,6.623c0.075,2.277,0.552,4.253,0.848,6.739
			c0.592,4.81,1.284,8.854,1.894,13.141c0.581,4.264,1.127,8.26,1.58,11.676c0.865,6.949,1.057,11.968,1.057,11.968
			S56.38,169.4,53.097,162.847z"/>
		<path d="M175.105,63.909c-3.776,0-14.373,0-27.967,0c-3.532-2.951-8.412-5.385-14.256-7.041c0.081-3.416-0.418-9.277-4.171-13.681
			c-3.044-3.573-7.482-5.38-13.118-5.38c-5.676,0-10.05,1.807-13.059,5.415c-3.538,4.212-4.038,9.766-3.928,13.274
			c-6.391,1.656-11.746,4.247-15.575,7.413c-17.347,0-31.254,0-34.966,0c-11.137,0-13.728,12.449-13.728,16.98
			c5.031,0,153.187,0,156.835,0C191.15,75.417,188.688,63.909,175.105,63.909z M115.106,54.474c-3.114,0-6.089,0.25-8.993,0.622
			c0.081-2.324,0.581-5.176,2.213-7.082c1.534-1.807,3.916-2.713,7.268-2.713c3.393,0,5.81,0.895,7.39,2.748
			c1.708,1.963,2.266,4.868,2.394,7.198C122.112,54.771,118.656,54.474,115.106,54.474z"/>
	</g>
</g>
<g>
</g>
<g>
</g>
<g>
</g>
<g>
</g>
<g>
</g>
<g>
</g>
<g>
</g>
<g>
</g>
<g>
</g>
<g>
</g>
<g>
</g>
<g>
</g>
<g>
</g>
<g>
</g>
<g>
</g>
</svg>
