<?xml version="1.0" encoding="iso-8859-1"?>
<!-- Generator: Adobe Illustrator 16.0.0, SVG Export Plug-In . SVG Version: 6.00 Build 0)  -->
<!DOCTYPE svg PUBLIC "-//W3C//DTD SVG 1.1//EN" "http://www.w3.org/Graphics/SVG/1.1/DTD/svg11.dtd">
<svg version="1.1" id="Capa_1" xmlns="http://www.w3.org/2000/svg" xmlns:xlink="http://www.w3.org/1999/xlink" x="0px" y="0px"
	 width="380.722px" height="380.721px" viewBox="0 0 380.722 380.721" style="enable-background:new 0 0 380.722 380.721;"
	 xml:space="preserve">
<g>
	<g>
		<rect x="183.75" y="255.936" width="16.394" height="124.785"/>
		<polygon points="62.654,373.854 82.214,373.854 138.274,248 121.346,248 		"/>
		<polygon points="248.188,248 304.247,373.854 323.812,373.854 265.104,248 		"/>
		<path d="M191.947,245.886c131.134,0,138.813-89.899,138.813-89.899h-280.8C49.961,155.987,60.812,245.886,191.947,245.886z"/>
		<path d="M146.663,86.733c1.237,2.33,2.108,2.986,3.212,4.566l2.806,3.416c0.54,1.156,1.382,2.034,1.766,3.283
			c0.912,2.382,1.923,4.879,2.237,7.639c0.912,5.391,0.831,11.043,0.604,15.97c-0.668,9.858-1.621,17.085-1.621,17.085
			s5.287-5.118,9.475-15.221c1.034-2.51,2.068-5.339,2.736-8.481c0.662-3.155,1.318-6.594,1.174-10.306
			c0-3.648-0.447-7.686-1.912-11.619c-0.586-2.004-1.795-3.846-2.748-5.798c-0.534-0.93-1.26-1.772-1.905-2.667l-1.011-1.307
			l-0.511-0.639l-0.122-0.157c0.052,0.07,0.157,0.168,0.36,0.401l-0.047-0.093l-0.191-0.227c-0.895-1.203-2.632-2.928-2.835-3.678
			c-0.401-0.889-1.011-1.615-1.412-2.974c-0.953-2.33-1.679-5.008-2.085-7.755c-0.819-5.461-0.714-11.113-0.488-16.063
			c0.656-9.899,1.51-17.132,1.51-17.132s-5.211,5.188-9.411,15.267c-2.091,5.031-3.944,11.299-4.043,18.677
			c0.082,3.631,0.157,7.628,1.667,11.578C144.356,82.4,145.483,84.602,146.663,86.733z"/>
		<path d="M177.726,51.721c1.278,2.353,2.12,3.021,3.224,4.613l2.812,3.393c0.534,1.121,1.377,2.045,1.748,3.282
			c0.918,2.358,1.929,4.868,2.236,7.627c0.906,5.403,0.831,11.043,0.604,15.981c-0.639,9.87-1.604,17.068-1.604,17.068
			s5.27-5.112,9.458-15.203c1.046-2.533,2.08-5.344,2.73-8.516c0.686-3.131,1.324-6.547,1.186-10.259
			c0-3.654-0.442-7.698-1.918-11.625c-0.58-1.999-1.801-3.863-2.73-5.804c-0.558-0.93-1.277-1.772-1.928-2.678l-1.006-1.307
			l-0.522-0.656l-0.104-0.163c0.035,0.081,0.15,0.186,0.296,0.319l-0.191-0.238c-0.866-1.214-2.614-2.904-2.817-3.677
			c-0.407-0.877-1.011-1.609-1.418-2.974c-0.964-2.33-1.702-5.02-2.068-7.732c-0.812-5.484-0.714-11.136-0.487-16.086
			C185.864,7.198,186.747,0,186.747,0s-5.222,5.176-9.423,15.215c-2.085,5.025-3.95,11.316-4.043,18.683
			c0.093,3.625,0.151,7.651,1.65,11.602C175.431,47.398,176.552,49.612,177.726,51.721z"/>
		<path d="M216.119,83.475c1.243,2.341,2.104,3.009,3.195,4.578l2.812,3.404c0.534,1.133,1.371,2.045,1.767,3.282
			c0.93,2.37,1.929,4.88,2.23,7.628c0.906,5.414,0.837,11.055,0.604,15.964c-0.651,9.899-1.604,17.085-1.604,17.085
			s5.274-5.089,9.458-15.215c1.045-2.51,2.067-5.345,2.719-8.481c0.696-3.143,1.324-6.559,1.185-10.283
			c0-3.654-0.441-7.686-1.905-11.613c-0.581-2.022-1.801-3.875-2.742-5.804c-0.546-0.929-1.278-1.76-1.905-2.678l-1.011-1.295
			l-0.5-0.656l-0.116-0.163c0.069,0.069,0.163,0.186,0.349,0.412l-0.047-0.069l-0.186-0.262c-0.895-1.203-2.648-2.905-2.812-3.677
			c-0.441-0.866-1.022-1.615-1.44-2.986c-0.953-2.318-1.697-5.008-2.068-7.721c-0.837-5.473-0.721-11.148-0.488-16.086
			c0.628-9.876,1.511-17.109,1.511-17.109s-5.229,5.176-9.411,15.255c-2.104,5.02-3.95,11.288-4.043,18.643
			c0.069,3.642,0.139,7.662,1.649,11.589C213.808,79.118,214.946,81.342,216.119,83.475z"/>
	</g>
</g>
<g>
</g>
<g>
</g>
<g>
</g>
<g>
</g>
<g>
</g>
<g>
</g>
<g>
</g>
<g>
</g>
<g>
</g>
<g>
</g>
<g>
</g>
<g>
</g>
<g>
</g>
<g>
</g>
<g>
</g>
</svg>
