<?xml version="1.0" encoding="iso-8859-1"?>
<!-- Generator: Adobe Illustrator 16.0.0, SVG Export Plug-In . SVG Version: 6.00 Build 0)  -->
<!DOCTYPE svg PUBLIC "-//W3C//DTD SVG 1.1//EN" "http://www.w3.org/Graphics/SVG/1.1/DTD/svg11.dtd">
<svg version="1.1" id="Capa_1" xmlns="http://www.w3.org/2000/svg" xmlns:xlink="http://www.w3.org/1999/xlink" x="0px" y="0px"
	 width="380.721px" height="380.722px" viewBox="0 0 380.721 380.722" style="enable-background:new 0 0 380.721 380.722;"
	 xml:space="preserve">
<g>
	<g>
		<path d="M309.126,116.036c-7.238,0-27.583,0-53.655,0c-6.785-5.676-16.173-10.352-27.35-13.524
			c0.139-6.57-0.791-17.811-8.029-26.247c-5.844-6.866-14.325-10.34-25.166-10.34c-10.857,0-19.293,3.497-25.044,10.375
			c-6.768,8.116-7.709,18.787-7.528,25.485c-12.293,3.178-22.569,8.151-29.86,14.25c-33.305,0-60.005,0-67.139,0
			c-21.373,0-26.345,18.171-26.345,26.88c9.672,0,293.912,0,300.929,0C339.939,132.384,335.165,116.036,309.126,116.036z
			 M193.985,97.917c-5.966,0-11.676,0.476-17.235,1.202c0.156-4.45,1.144-9.922,4.234-13.611c2.917-3.462,7.482-5.164,13.942-5.164
			c6.495,0,11.143,1.725,14.187,5.234c3.23,3.771,4.346,9.353,4.59,13.838C207.417,98.486,200.829,97.917,193.985,97.917z"/>
		<path d="M352.406,179.939c-3.427,1.214-7.656,4.816-10.921,7.982c0.848-8.162,1.405-14.802,1.73-19.095h5.646v-14.773H30.127
			v14.762h8.186c0.15,4.369,0.447,11.183,1.011,19.525c-3.288-3.189-7.57-6.867-11.021-8.069c-6.507-2.306-28.303,0-28.303,0v8.807
			c0,0,21.414-0.75,26.02,1.928c4.607,2.672,9.58,25.311,13.408,25.311c0.633,0,1.499,0,2.451,0
			c3.881,33.475,9.957,72.988,26.021,87.303H55.764v11.178h266.213v-11.178h-13.942c15.673-14.36,24.794-54.072,29.859-87.615
			c1.349,0,2.568,0,3.394,0c3.834,0,8.807-22.634,13.407-25.324c4.612-2.689,26.026-1.935,26.026-1.935v-8.807
			C380.721,179.939,358.913,177.632,352.406,179.939z M78.705,279.941c-5.966-10.945-12.234-26.445-14.436-43.513
			c-0.593-4.612-0.831-8.075-0.854-12.583c0.012-4.066,0.082-8.04,0.296-11.921c0.604-7.703,1.51-14.895,2.905-20.995
			c1.284-6.077,2.876-11.073,4.224-14.477c1.295-3.439,2.341-5.281,2.341-5.281s0.872,8.36,1.824,20.344
			c0.546,6.001,1.069,12.949,1.615,20.386c0.272,3.694,0.546,7.528,0.831,11.409c0.279,3.438,0.586,8.052,1.11,11.433
			c0.418,3.637,1.034,7.575,1.69,11.293c0.703,3.788,1.365,7.506,2.033,11.119c1.487,7.285,2.881,14.105,4.055,19.938
			c2.573,11.747,3.974,20.066,3.974,20.066S84.578,290.896,78.705,279.941z"/>
	</g>
</g>
<g>
</g>
<g>
</g>
<g>
</g>
<g>
</g>
<g>
</g>
<g>
</g>
<g>
</g>
<g>
</g>
<g>
</g>
<g>
</g>
<g>
</g>
<g>
</g>
<g>
</g>
<g>
</g>
<g>
</g>
</svg>
