<?xml version="1.0" encoding="iso-8859-1"?>
<!-- Generator: Adobe Illustrator 16.0.0, SVG Export Plug-In . SVG Version: 6.00 Build 0)  -->
<!DOCTYPE svg PUBLIC "-//W3C//DTD SVG 1.1//EN" "http://www.w3.org/Graphics/SVG/1.1/DTD/svg11.dtd">
<svg version="1.1" id="Capa_1" xmlns="http://www.w3.org/2000/svg" xmlns:xlink="http://www.w3.org/1999/xlink" x="0px" y="0px"
	 width="373.517px" height="373.517px" viewBox="0 0 373.517 373.517" style="enable-background:new 0 0 373.517 373.517;"
	 xml:space="preserve">
<g>
	<g>
		<path d="M240.251,171.684c-2.22,1.162-4.718,2.701-7.181,4.676c-2.475,1.958-4.973,4.282-7.018,7.268
			c-1.069,1.568-1.79,3.067-2.486,4.665c-0.628,1.58-1.162,3.137-1.604,4.659c-0.825,3.056-1.336,5.926-1.558,8.424
			c-0.232,2.498-0.197,4.601,0,6.088c0.151,1.486,0.651,2.277,0.686,2.23c-0.081,0-0.127-0.79,0.291-2.161
			c0.372-1.37,1.022-3.265,1.836-5.53c0.848-2.242,1.824-4.856,2.997-7.564c0.558-1.335,1.209-2.718,1.905-4.042
			c0.651-1.295,1.395-2.725,2.231-3.793c3.438-4.711,8.319-9.022,11.724-12.351c1.777-1.667,3.253-3.044,4.299-4.008
			c1.021-0.964,1.73-1.487,1.73-1.487s-0.836,0.07-2.266,0.546C244.422,169.72,242.458,170.493,240.251,171.684z"/>
		<path d="M57.866,52.447v-34.02l5.211-6.256H319.63V0H57.378L45.696,14.03v38.417h-0.035v321.07h282.194V52.447H57.866z
			 M270.528,218.315c-15.058,15.047-34.832,16.719-45.127,11.212c-7.737,1.313-16.104,11.235-22.006,20.879
			c13.106,13.083,60.255,60.231,60.255,60.231v0.023c0.035,0.046,0.093,0.058,0.151,0.115c3.637,3.672,3.637,9.562-0.012,13.199
			c-3.648,3.672-9.574,3.672-13.199,0.023c-0.046-0.047-0.081-0.116-0.116-0.162v0.022c0,0-42.71-42.698-58.104-58.104
			c-16.19,16.196-58.407,58.406-58.407,58.406h-0.023c-0.035,0.047-0.069,0.094-0.116,0.151c-3.7,3.706-9.695,3.706-13.408,0
			c-0.18-0.197-0.895-0.895-1.086-1.092c-3.712-3.729-3.712-9.702,0-13.42c0.047-0.034,0.11-0.081,0.146-0.116h-0.023
			c0,0,45.458-45.486,60.115-60.139c-5.972-8.086-15.499-17.451-30.906-17.602c-0.029-0.012-0.087-0.023-0.133-0.023
			c-5.856,0.162-11.764-1.789-16.475-5.891c-0.337-0.279-1.109-1.08-1.109-1.08l-32.335-40.765l3.886-3.904l39.585,41.903
			l4.676-4.682l-40.735-40.753l3.421-3.393l40.991,40.985l3.875-3.88l-40.985-40.979l3.771-3.759l40.99,40.984l4.59-4.612
			l-42.31-39.672l3.55-3.555l38.998,30.365c0,0,1.417,1.208,1.905,1.696c5.351,5.344,7.651,12.629,6.89,19.601
			c1.058,17.497,11.119,26.188,19.107,31.114c10.352-5.926,21.889-15.046,23.295-23.469c-5.507-10.248-3.822-30.041,11.224-45.093
			c14.919-14.93,36.738-20.571,51.308-6.472l0.012-0.012c0.059,0.07,0.291,0.308,0.36,0.384l0,0
			C291.082,181.583,285.424,203.385,270.528,218.315z M300.156,111.493H83.544V90.254h216.612V111.493z"/>
	</g>
</g>
<g>
</g>
<g>
</g>
<g>
</g>
<g>
</g>
<g>
</g>
<g>
</g>
<g>
</g>
<g>
</g>
<g>
</g>
<g>
</g>
<g>
</g>
<g>
</g>
<g>
</g>
<g>
</g>
<g>
</g>
</svg>
