<?xml version="1.0" encoding="iso-8859-1"?>
<!-- Generator: Adobe Illustrator 16.0.0, SVG Export Plug-In . SVG Version: 6.00 Build 0)  -->
<!DOCTYPE svg PUBLIC "-//W3C//DTD SVG 1.1//EN" "http://www.w3.org/Graphics/SVG/1.1/DTD/svg11.dtd">
<svg version="1.1" id="Capa_1" xmlns="http://www.w3.org/2000/svg" xmlns:xlink="http://www.w3.org/1999/xlink" x="0px" y="0px"
	 width="352.626px" height="352.627px" viewBox="0 0 352.626 352.627" style="enable-background:new 0 0 352.626 352.627;"
	 xml:space="preserve">
<g>
	<g>
		<path d="M267.462,84.572c-4.775,0-13.188,0-23.912,0c-6.715-5.193-16.01-9.481-27.024-12.432
			c0.232-6.587-0.628-18.107-8.18-26.979c-6.1-7.163-14.941-10.793-26.293-10.793c-14.146,0-22.018,5.891-26.113,10.817
			c-7.128,8.54-7.958,19.484-7.674,26.206c-12.194,2.962-22.354,7.569-29.622,13.169c-17.857,0-31.829,0-37.575,0
			c-21.674,0-26.746,12.27-26.746,20.397c9.83,0,237.329,0,244.417,0C298.74,95.116,293.917,84.572,267.462,84.572z M181.112,67.632
			c-5.804,0-11.38,0.43-16.806,1.046c0.104-4.235,0.999-9.597,3.996-13.182c2.807-3.375,7.32-5.031,13.751-5.031
			c6.495,0,11.072,1.667,14.023,5.095c3.149,3.671,4.171,9.109,4.346,13.419C194.242,68.155,187.804,67.632,181.112,67.632z"/>
		<path d="M322.685,134.463c-4.798,1.679-11.025,7.755-14.488,11.398c-0.418-18.526-5.844-33.386-5.844-33.386H178.08h-2.01H51.791
			c0,0-5.723,15.714-5.856,34.978c-2.713-2.975-10.358-11.026-15.976-13.001C23.057,132.023,0,134.463,0,134.463v9.312
			c0,0,22.639-0.784,27.519,2.051c4.868,2.817,10.137,26.781,14.181,26.781c1.714,0,4.845,0,7.9,0
			c1.859,5.647,4.45,11.177,8.197,16.312c21.32,29.188,37.122,50.809,39.004,53.377H84.52v10.271h12.67h161.79h8.97v-10.271h-8.97
			v-2.173h-0.046c4.845-6.681,19.077-26.13,37.4-51.215c3.753-5.147,6.332-10.666,8.214-16.313c2.533,0,4.95,0,6.379,0
			c4.032,0,9.318-23.963,14.187-26.781c4.856-2.835,27.513-2.051,27.513-2.051v-9.301
			C352.65,134.463,329.576,132.023,322.685,134.463z M104.771,223.474c-7.558-8.121-16.504-19.311-23.894-32.741
			c-1.923-3.347-3.224-6.542-4.711-9.829c-1.487-3.8-2.423-7.036-3.509-10.452c-1.714-6.779-2.939-13.135-3.474-18.654
			c-1.238-11.02-0.418-18.416-0.418-18.416s2.405,6.838,6.013,17.132c1.772,5.077,3.962,10.91,6.472,17.01
			c1.249,2.939,2.626,6.344,4.02,9.034c1.772,3.021,3.189,6.576,5.054,9.376c3.573,6.054,7.14,12.095,10.474,17.765
			c3.486,5.717,6.565,11.213,9.173,16c5.246,9.492,8.185,16.37,8.185,16.37S112.219,231.537,104.771,223.474z"/>
		<rect x="60.237" y="306.71" width="243.777" height="11.549"/>
		<polygon points="178.672,298.716 185.016,298.716 217.943,298.716 222.58,298.716 261.862,298.716 239.903,265.789 
			220.267,295.254 200.608,265.789 181.844,293.952 163.068,265.789 143.438,295.254 123.78,265.789 101.843,298.716 
			141.115,298.716 145.733,298.716 		"/>
	</g>
</g>
<g>
</g>
<g>
</g>
<g>
</g>
<g>
</g>
<g>
</g>
<g>
</g>
<g>
</g>
<g>
</g>
<g>
</g>
<g>
</g>
<g>
</g>
<g>
</g>
<g>
</g>
<g>
</g>
<g>
</g>
</svg>
