<?xml version="1.0" encoding="iso-8859-1"?>
<!-- Generator: Adobe Illustrator 16.0.0, SVG Export Plug-In . SVG Version: 6.00 Build 0)  -->
<!DOCTYPE svg PUBLIC "-//W3C//DTD SVG 1.1//EN" "http://www.w3.org/Graphics/SVG/1.1/DTD/svg11.dtd">
<svg version="1.1" id="Capa_1" xmlns="http://www.w3.org/2000/svg" xmlns:xlink="http://www.w3.org/1999/xlink" x="0px" y="0px"
	 width="380.721px" height="380.721px" viewBox="0 0 380.721 380.721" style="enable-background:new 0 0 380.721 380.721;"
	 xml:space="preserve">
<g>
	<g>
		<path d="M58.727,281.236c0.32-5.217,0.657-10.457,1.319-15.709c1.261-12.525,3.974-25.05,6.733-37.296
			c1.725-6.101,3.561-12.106,5.449-17.997c2.463-5.729,4.868-11.433,7.25-17.01c5.438-10.898,11.491-21.07,18.724-29.593
			c1.737-2.19,3.427-4.328,5.095-6.46c1.912-1.894,3.805-3.747,5.676-5.588c3.863-3.509,7.221-7.273,11.107-10.091
			c7.686-5.711,14.529-11.137,21.477-14.506c6.698-3.724,12.455-6.982,17.631-8.812c10.125-4.084,15.883-6.141,15.883-6.141
			s-4.915,3.893-13.502,10.207c-4.449,2.917-9.114,7.488-14.721,12.147c-5.803,4.461-11.107,10.84-17.358,16.992
			c-3.149,3.114-5.588,7.064-8.551,10.684c-1.452,1.83-2.928,3.712-4.427,5.6c-1.261,2.074-2.533,4.165-3.84,6.286
			c-5.537,8.208-9.673,17.858-13.995,27.664c-1.748,5.1-3.566,10.283-5.391,15.534c-1.249,5.473-2.638,10.98-4.16,16.476
			c-2.266,11.271-4.502,22.761-5.438,34.612c-0.68,4.287-1.022,8.633-1.383,12.979c94,0.023,166.775,0.069,268.589,0.069
			c0.337-4.462,0.534-8.97,0.534-13.536c0-85.746-62.509-156.352-142.875-165.705c5.17-4.869,8.436-11.758,8.436-19.433
			c-0.023-14.692-11.921-26.612-26.631-26.612c-14.715,0-26.652,11.92-26.652,26.642c0,7.668,3.265,14.558,8.464,19.426
			c-80.396,9.353-142.869,79.96-142.869,165.706c0,4.543,0.168,9.027,0.5,13.467C39.736,281.236,49.327,281.236,58.727,281.236z"/>
		<rect y="291.135" width="380.721" height="33.59"/>
	</g>
</g>
<g>
</g>
<g>
</g>
<g>
</g>
<g>
</g>
<g>
</g>
<g>
</g>
<g>
</g>
<g>
</g>
<g>
</g>
<g>
</g>
<g>
</g>
<g>
</g>
<g>
</g>
<g>
</g>
<g>
</g>
</svg>
