<?xml version="1.0" encoding="iso-8859-1"?>
<!-- Generator: Adobe Illustrator 16.0.0, SVG Export Plug-In . SVG Version: 6.00 Build 0)  -->
<!DOCTYPE svg PUBLIC "-//W3C//DTD SVG 1.1//EN" "http://www.w3.org/Graphics/SVG/1.1/DTD/svg11.dtd">
<svg version="1.1" id="Capa_1" xmlns="http://www.w3.org/2000/svg" xmlns:xlink="http://www.w3.org/1999/xlink" x="0px" y="0px"
	 width="24.268px" height="24.268px" viewBox="0 0 24.268 24.268" style="enable-background:new 0 0 24.268 24.268;"
	 xml:space="preserve">
<g>
	<path d="M23.267,6.533c-0.919-0.679-2.169-0.544-3.098-0.321c0.023-0.725,0.021-1.37-0.004-1.871c-3.312,0-9.773,0-10.846,0
		c0,0-0.066,0-0.168,0c-0.932,0-5.871,0-9.135,0c-0.181,3.408,1.127,14.42,6.105,14.846c0,0.443,0,0.74,0,0.74h3.03h0.17h4.93
		c0,0,0-0.297,0-0.74c1.312-0.012,2.779-1.791,3.655-3.356c2.569-0.354,6.331-3.447,6.361-6.947
		C24.278,7.56,23.729,6.876,23.267,6.533z M3.67,14.778c-1.083-2.5-1.865-9.28-1.865-9.28s2.198,6.094,2.698,7.78
		c0.5,1.688,2.689,4.084,2.689,4.084S4.753,17.278,3.67,14.778z M18.936,13.493c0.588-1.732,0.919-3.601,1.092-5.271
		c1.087-0.328,1.809-0.391,2.114-0.163c0.195,0.144,0.233,0.518,0.23,0.804C22.354,10.807,20.515,12.653,18.936,13.493z"/>
</g>
<g>
</g>
<g>
</g>
<g>
</g>
<g>
</g>
<g>
</g>
<g>
</g>
<g>
</g>
<g>
</g>
<g>
</g>
<g>
</g>
<g>
</g>
<g>
</g>
<g>
</g>
<g>
</g>
<g>
</g>
</svg>
