<?xml version="1.0" encoding="iso-8859-1"?>
<!-- Generator: Adobe Illustrator 16.0.0, SVG Export Plug-In . SVG Version: 6.00 Build 0)  -->
<!DOCTYPE svg PUBLIC "-//W3C//DTD SVG 1.1//EN" "http://www.w3.org/Graphics/SVG/1.1/DTD/svg11.dtd">
<svg version="1.1" id="Capa_1" xmlns="http://www.w3.org/2000/svg" xmlns:xlink="http://www.w3.org/1999/xlink" x="0px" y="0px"
	 width="27.77px" height="27.77px" viewBox="0 0 27.77 27.77" style="enable-background:new 0 0 27.77 27.77;" xml:space="preserve"
	>
<g>
	<path d="M17.749,20.675c0-0.13,0-0.323,0-0.568c1.312-0.011,2.783-1.789,3.658-3.354c2.567-0.354,6.329-3.447,6.358-6.947
		c0.012-1.32-0.539-2.006-1.002-2.348c-0.918-0.679-2.168-0.544-3.098-0.321c0.025-0.725,0.021-1.37-0.004-1.871
		c-3.311,0-9.773,0-10.846,0c0,0-0.066,0-0.168,0c-0.928-0.003-5.867-0.003-9.13-0.003C3.335,8.668,4.644,19.681,9.622,20.106
		c0,0.245,0,0.438,0,0.568H0v1.833h27.77v-1.833H17.749z M23.527,9.144c1.086-0.327,1.808-0.391,2.113-0.163
		c0.195,0.145,0.234,0.519,0.23,0.805c-0.018,1.942-1.857,3.79-3.438,4.628C23.023,12.682,23.354,10.814,23.527,9.144z
		 M7.171,15.699c-1.084-2.5-1.865-9.28-1.865-9.28s2.198,6.094,2.698,7.781s2.688,4.083,2.688,4.083S8.254,18.199,7.171,15.699z"/>
</g>
<g>
</g>
<g>
</g>
<g>
</g>
<g>
</g>
<g>
</g>
<g>
</g>
<g>
</g>
<g>
</g>
<g>
</g>
<g>
</g>
<g>
</g>
<g>
</g>
<g>
</g>
<g>
</g>
<g>
</g>
</svg>
