<?xml version="1.0" encoding="iso-8859-1"?>
<!-- Generator: Adobe Illustrator 16.0.0, SVG Export Plug-In . SVG Version: 6.00 Build 0)  -->
<!DOCTYPE svg PUBLIC "-//W3C//DTD SVG 1.1//EN" "http://www.w3.org/Graphics/SVG/1.1/DTD/svg11.dtd">
<svg version="1.1" id="Capa_1" xmlns="http://www.w3.org/2000/svg" xmlns:xlink="http://www.w3.org/1999/xlink" x="0px" y="0px"
	 width="377.12px" height="377.12px" viewBox="0 0 377.12 377.12" style="enable-background:new 0 0 377.12 377.12;"
	 xml:space="preserve">
<g>
	<g>
		<path d="M112.683,103.081c1.487,2.771,2.51,3.555,3.816,5.438l3.358,4.055c0.615,1.359,1.626,2.417,2.068,3.904
			c1.092,2.817,2.283,5.792,2.655,9.074c1.081,6.402,0.999,13.117,0.727,18.979c-0.79,11.717-1.917,20.298-1.917,20.298
			s6.268-6.083,11.252-18.096c1.238-2.986,2.464-6.355,3.248-10.079c0.79-3.735,1.574-7.813,1.394-12.229
			c0-4.345-0.535-9.149-2.26-13.814c-0.703-2.376-2.144-4.578-3.259-6.89c-0.645-1.116-1.51-2.115-2.271-3.172l-1.202-1.563
			l-0.61-0.75l-0.14-0.197c0.059,0.093,0.187,0.209,0.413,0.488l-0.059-0.11l-0.215-0.273c-1.057-1.429-3.125-3.474-3.363-4.369
			c-0.477-1.057-1.203-1.911-1.679-3.532c-1.144-2.771-2.01-5.96-2.475-9.208c-0.976-6.495-0.842-13.216-0.581-19.095
			c0.773-11.77,1.795-20.356,1.795-20.356s-6.199,6.152-11.184,18.119c-2.498,5.972-4.699,13.431-4.81,22.186
			c0.11,4.333,0.18,9.08,1.986,13.768C109.946,97.917,111.288,100.548,112.683,103.081z"/>
		<path d="M149.612,61.463c1.511,2.806,2.51,3.59,3.817,5.472l3.346,4.032c0.639,1.336,1.639,2.44,2.08,3.916
			c1.092,2.794,2.283,5.786,2.655,9.057c1.081,6.419,0.999,13.135,0.726,18.985c-0.761,11.746-1.905,20.298-1.905,20.298
			s6.257-6.077,11.229-18.084c1.249-3.009,2.475-6.338,3.259-10.126c0.802-3.712,1.574-7.767,1.405-12.194
			c-0.011-4.316-0.522-9.161-2.271-13.814c-0.703-2.364-2.144-4.589-3.26-6.884c-0.668-1.121-1.521-2.12-2.3-3.189l-1.186-1.557
			l-0.621-0.755l-0.117-0.197c0.047,0.093,0.175,0.221,0.344,0.377l-0.227-0.261c-1.034-1.441-3.103-3.462-3.341-4.369
			c-0.488-1.046-1.214-1.9-1.69-3.544c-1.133-2.771-2.01-5.96-2.452-9.196c-0.976-6.507-0.854-13.216-0.581-19.107
			C159.285,8.563,160.319,0,160.319,0s-6.21,6.141-11.195,18.096c-2.475,5.949-4.7,13.431-4.822,22.186
			c0.122,4.311,0.192,9.091,1.976,13.791C146.876,56.333,148.207,58.953,149.612,61.463z"/>
		<path d="M195.257,99.2c1.487,2.789,2.486,3.584,3.787,5.449l3.347,4.032c0.627,1.348,1.627,2.428,2.08,3.927
			c1.104,2.812,2.288,5.786,2.66,9.057c1.068,6.425,0.999,13.135,0.721,18.973c-0.768,11.758-1.906,20.298-1.906,20.298
			s6.274-6.053,11.247-18.096c1.243-2.975,2.464-6.35,3.23-10.085c0.813-3.729,1.58-7.796,1.417-12.223
			c-0.012-4.328-0.522-9.138-2.277-13.797c-0.686-2.393-2.149-4.606-3.253-6.901c-0.65-1.109-1.511-2.097-2.254-3.166l-1.22-1.545
			l-0.616-0.772l-0.14-0.203c0.07,0.081,0.187,0.227,0.396,0.5l-0.035-0.093l-0.244-0.313c-1.046-1.417-3.137-3.451-3.334-4.351
			c-0.512-1.04-1.22-1.917-1.708-3.55c-1.127-2.759-1.998-5.96-2.463-9.185c-0.977-6.506-0.837-13.228-0.581-19.107
			c0.755-11.741,1.801-20.321,1.801-20.321s-6.216,6.14-11.172,18.119c-2.498,5.972-4.711,13.425-4.81,22.168
			c0.087,4.316,0.156,9.103,1.951,13.762C192.491,94.036,193.822,96.679,195.257,99.2z"/>
		<path d="M319.019,219.709c-9.388-9.365-33.021-8.18-54.05-4.74c0-6.461,0-11.015,0-12.653c0-8.911-5.577-13.384-12.839-13.384
			s-179.677,0-186.834,0c-7.187-0.012-13.019,5.588-13.019,10.701c0,5.101,0,105.056,0,132.337c0,26.77,12.24,45.15,35.954,45.15
			c23.713,0,116.273,0,140.766,0s35.96-15.303,35.96-46.685c0-2.382,0-5.391,0-8.899c5.774,0.488,10.887,0.732,15.186,0.732
			c22.146,0,26.525-5.484,28.478-7.913C315.673,305.571,334.216,234.918,319.019,219.709z M89.323,303.352
			c-0.273,8.238-0.912,15.965-1.33,22.529c-0.488,6.646-1.226,12.141-1.226,15.917c-0.261,4.021-0.43,6.31-0.43,6.31
			s-1-1.918-2.568-5.658c-0.691-1.848-1.905-4.253-2.51-6.914c-0.703-2.684-1.464-5.705-2.132-9.027
			c-1.604-6.658-2.614-14.407-3.422-22.738c-0.325-4.171-0.953-8.492-0.976-12.85c-0.146-4.381-0.291-8.818-0.43-13.258
			c0-8.899,0.227-17.764,0.831-26.072c0.535-8.307,1.476-16.068,2.51-22.691c1.976-13.279,4.723-22.062,4.723-22.062
			s2.417,8.899,4.119,22.156c0.964,6.635,1.679,14.361,2.237,22.621c0.703,8.273,0.714,17.115,1.034,25.91
			C89.73,286.307,89.648,295.137,89.323,303.352z M291.203,298.647c-4.67,0.836-15.15,0.743-26.234-0.197c0-18.869,0-41.49,0-60.174
			c15.174-2.626,30.998-3.578,37.018-2.219C303.752,247.803,296.037,286.842,291.203,298.647z"/>
	</g>
</g>
<g>
</g>
<g>
</g>
<g>
</g>
<g>
</g>
<g>
</g>
<g>
</g>
<g>
</g>
<g>
</g>
<g>
</g>
<g>
</g>
<g>
</g>
<g>
</g>
<g>
</g>
<g>
</g>
<g>
</g>
</svg>
