<?xml version="1.0" encoding="iso-8859-1"?>
<!-- Generator: Adobe Illustrator 16.0.0, SVG Export Plug-In . SVG Version: 6.00 Build 0)  -->
<!DOCTYPE svg PUBLIC "-//W3C//DTD SVG 1.1//EN" "http://www.w3.org/Graphics/SVG/1.1/DTD/svg11.dtd">
<svg version="1.1" id="Capa_1" xmlns="http://www.w3.org/2000/svg" xmlns:xlink="http://www.w3.org/1999/xlink" x="0px" y="0px"
	 width="374.354px" height="374.354px" viewBox="0 0 374.354 374.354" style="enable-background:new 0 0 374.354 374.354;"
	 xml:space="preserve">
<g>
	<g>
		<path d="M128.143,103.081c1.487,2.771,2.51,3.555,3.817,5.438l3.346,4.055c0.628,1.359,1.639,2.417,2.092,3.904
			c1.092,2.817,2.283,5.792,2.655,9.074c1.081,6.402,1,13.117,0.726,18.979c-0.79,11.717-1.917,20.298-1.917,20.298
			s6.269-6.083,11.253-18.096c1.237-2.986,2.463-6.355,3.247-10.079c0.79-3.735,1.574-7.813,1.395-12.229
			c0-4.345-0.535-9.149-2.26-13.814c-0.703-2.376-2.144-4.578-3.259-6.89c-0.657-1.116-1.522-2.115-2.283-3.172l-1.203-1.563
			l-0.609-0.75l-0.14-0.197c0.058,0.093,0.186,0.209,0.412,0.488l-0.058-0.11l-0.215-0.273c-1.058-1.429-3.126-3.474-3.364-4.369
			c-0.476-1.057-1.202-1.911-1.679-3.532c-1.145-2.771-2.01-5.96-2.475-9.208c-0.976-6.495-0.843-13.216-0.581-19.095
			c0.772-11.77,1.795-20.356,1.795-20.356s-6.198,6.152-11.183,18.119c-2.498,5.972-4.7,13.431-4.811,22.186
			c0.11,4.333,0.181,9.08,1.987,13.768C125.407,97.917,126.749,100.548,128.143,103.081z"/>
		<path d="M165.073,61.463c1.511,2.806,2.51,3.59,3.816,5.472l3.347,4.032c0.639,1.336,1.638,2.44,2.079,3.916
			c1.093,2.794,2.283,5.786,2.655,9.057c1.08,6.419,0.999,13.135,0.727,18.985c-0.762,11.746-1.906,20.298-1.906,20.298
			s6.257-6.077,11.229-18.084c1.249-3.009,2.476-6.338,3.259-10.126c0.803-3.712,1.574-7.767,1.406-12.194
			c-0.012-4.316-0.522-9.161-2.271-13.814c-0.703-2.364-2.144-4.589-3.259-6.884c-0.656-1.121-1.511-2.12-2.289-3.189l-1.185-1.557
			l-0.622-0.755l-0.128-0.197c0.047,0.093,0.186,0.221,0.343,0.377l-0.227-0.261c-1.034-1.441-3.114-3.462-3.341-4.369
			c-0.487-1.046-1.214-1.9-1.689-3.544c-1.145-2.759-2.022-5.96-2.464-9.184c-0.964-6.519-0.842-13.216-0.581-19.107
			C174.746,8.563,175.779,0,175.779,0s-6.21,6.141-11.194,18.096c-2.475,5.949-4.7,13.431-4.821,22.186
			c0.122,4.311,0.191,9.091,1.975,13.791C162.337,56.333,163.667,58.953,165.073,61.463z"/>
		<path d="M210.717,99.2c1.487,2.789,2.498,3.584,3.788,5.449l3.346,4.032c0.628,1.348,1.627,2.428,2.08,3.927
			c1.104,2.812,2.289,5.786,2.661,9.057c1.08,6.425,0.999,13.135,0.72,18.973c-0.755,11.758-1.905,20.298-1.905,20.298
			s6.274-6.053,11.247-18.096c1.243-2.975,2.463-6.35,3.229-10.085c0.813-3.729,1.592-7.796,1.418-12.223
			c-0.012-4.328-0.523-9.138-2.266-13.797c-0.697-2.393-2.161-4.606-3.266-6.901c-0.65-1.109-1.51-2.097-2.254-3.166l-1.22-1.545
			l-0.615-0.772l-0.14-0.203c0.081,0.081,0.186,0.227,0.395,0.5l-0.034-0.093l-0.232-0.313c-1.058-1.417-3.138-3.451-3.347-4.351
			c-0.511-1.04-1.208-1.917-1.696-3.55c-1.139-2.759-2.01-5.96-2.463-9.185c-0.976-6.506-0.849-13.228-0.581-19.107
			c0.744-11.741,1.789-20.321,1.789-20.321s-6.204,6.14-11.165,18.119c-2.498,5.972-4.718,13.425-4.811,22.168
			c0.093,4.316,0.163,9.086,1.964,13.762C207.952,94.036,209.288,96.679,210.717,99.2z"/>
		<path d="M254.275,293.953c1.209-1.917,2.336-4.09,3.416-6.413C264.023,291.013,271.297,293,279,293
			c24.516,0,44.453-19.949,44.453-44.453c0-24.527-19.949-44.453-44.453-44.453c-2.719,0-5.345,0.267-7.936,0.743
			c-0.5-13.617-2.626-23.057-6.309-23.057c-7.866,0-57.199,0-84.312,0c0,0-7.221,0-17.823,0c-27.129,0-76.457,0-84.317,0
			c-10.95,0-8.214,82.533,10.48,112.172c12.536,19.856,30.969,36.738,41.769,45.755c-39.375,0-71.681,0-77.322,0
			c-15.522,0,50.164,34.646,88.761,34.646c38.591,0,25.375,0,59.778,0c34.392,0,107.856-34.646,95.866-34.646
			c-4.752,0-41.49,0-85.143,0C223.312,330.691,241.728,313.809,254.275,293.953z M270.229,231.885
			c2.637-1.405,5.588-2.277,8.771-2.277c10.434,0,18.927,8.506,18.927,18.939s-8.493,18.914-18.927,18.914
			c-5.17,0-9.829-2.091-13.257-5.46C267.846,252.288,269.333,241.889,270.229,231.885z M131.687,309.963
			c-4.496-4.764-9.364-10.678-13.884-17.533c-4.677-6.762-8.72-14.581-12.421-22.551c-1.521-4.16-3.357-8.156-4.595-12.34
			c-1.354-4.148-2.475-8.272-3.248-12.385c-0.9-4.044-1.58-7.994-1.807-11.828c-0.296-3.822-0.738-7.309-0.465-10.771
			c0.093-6.831,0.872-12.164,1.882-15.848c0.854-3.729,1.499-5.844,1.499-5.844s0.662,2.115,1.557,5.832
			c0.418,1.836,0.93,4.09,1.511,6.67c0.749,2.486,1.62,5.217,2.329,8.18c0.645,2.928,2.074,6.135,2.951,9.504
			c0.906,3.381,2.452,6.82,3.619,10.445c1.081,3.66,2.917,7.227,4.212,11.002c1.272,3.8,3.178,7.46,4.723,11.225
			c1.557,3.764,3.283,7.494,4.961,11.177c1.94,3.532,3.259,7.343,5.106,10.759c3.421,7.041,6.623,13.629,9.359,19.252
			c5.595,11.328,9.237,19.393,9.237,19.393S140.587,319.583,131.687,309.963z"/>
	</g>
</g>
<g>
</g>
<g>
</g>
<g>
</g>
<g>
</g>
<g>
</g>
<g>
</g>
<g>
</g>
<g>
</g>
<g>
</g>
<g>
</g>
<g>
</g>
<g>
</g>
<g>
</g>
<g>
</g>
<g>
</g>
</svg>
