<?xml version="1.0" encoding="iso-8859-1"?>
<!-- Generator: Adobe Illustrator 16.0.0, SVG Export Plug-In . SVG Version: 6.00 Build 0)  -->
<!DOCTYPE svg PUBLIC "-//W3C//DTD SVG 1.1//EN" "http://www.w3.org/Graphics/SVG/1.1/DTD/svg11.dtd">
<svg version="1.1" id="Capa_1" xmlns="http://www.w3.org/2000/svg" xmlns:xlink="http://www.w3.org/1999/xlink" x="0px" y="0px"
	 width="380.721px" height="380.721px" viewBox="0 0 380.721 380.721" style="enable-background:new 0 0 380.721 380.721;"
	 xml:space="preserve">
<g>
	<path d="M328.855,347.733l0.047-0.022l-57.676-73.755l4.846-6.891l0.116,0.082c0,0,87.756-124.512,89.882-127.55
		c2.161-3.044-26.955,11.508-26.955,11.508s-27.595,15.18-48.066,44.203c-7.68,10.898-20.774,29.012-25.678,35.972
		c1.522,3.241,13.257,10.724,4.566,26.188l-5.565,7.737l-50.588-46.021l-9.446-12.129l3.37-4.775l0.14,0.139
		c0,0,138.808-196.965,142.201-201.758c3.381-4.811-42.641,18.2-42.641,18.2s-43.652,23.999-76.045,69.945
		c-12.164,17.219-32.857,45.853-40.602,56.862c2.423,5.176,20.978,16.975,7.232,41.415l-4.438,6.181l-27.281-34.96
		c9.22-11.317,16.905-30.877,10.149-46.08C168.32,93.982,83.876,2.694,83.876,2.694L78.142,7.19l75.213,98.834l-9.568,7.459
		L65.814,16.84l-7.343,5.71l74.894,99.107l-3.637,2.841l-0.418,0.302l-3.631,2.841L47.469,31.189l-7.784,6.065l75.562,98.561
		l-9.934,7.756L28.815,45.788l-6.414,4.996c0,0,68.196,101.605,82.354,113.027c11.781,9.504,34.42,9.603,48.305,4.363l30.348,39.289
		l-2.283,3.207l-46.376,49.03l-5.722,8.145l-23.511-30.139c5.845-7.169,10.695-19.53,6.414-29.14
		c-5.129-11.514-58.511-69.23-58.511-69.23l-3.631,2.847l47.555,62.467l-6.053,4.741l-49.304-61.12l-4.653,3.607l47.375,62.672
		l-2.318,1.801l-0.25,0.209l-2.283,1.777l-49.472-60.986l-4.938,3.816l47.793,62.328l-6.269,4.903l-48.38-61.84l-4.055,3.189
		c0,0,43.117,64.216,52.063,71.455c7.459,6.007,21.773,6.064,30.551,2.742l25.451,32.963l-48.862,69.316l0.035,0.035
		c-0.058,0.093-0.191,0.197-0.25,0.302c-6.222,8.808-7.593,18.556,1.215,24.771c0.464,0.314,5.687,3.975,6.128,4.299
		c8.813,6.205,17.521,1.639,23.719-7.191c0.099-0.116,0.134-0.244,0.192-0.325l0.046,0.012l39.242-55.677l4.055,7.076l41.246,52.748
		l0.012-0.023c0.064,0.082,0.088,0.151,0.146,0.232c2.783,3.556,6.216,5.67,9.771,5.635c4.368,1.023,8.436-1.557,11.584-5.96
		c0.058-0.081,0.081-0.163,0.128-0.243h0.023l38.109-54.074l3.066-6.425l46.707,59.72l0.047-0.035
		c0.093,0.117,0.104,0.221,0.197,0.35c6.658,8.48,15.604,12.629,24.086,5.982c0.418-0.348,5.461-4.275,5.879-4.623
		c8.517-6.646,6.646-16.324,0-24.83C329.053,347.874,328.961,347.827,328.855,347.733z M229.969,303.362l-30.324,43l-32.062-41.037
		l-11.265-10.247l8.807-12.49l29.151-61.044l5.902,7.633l33.544,58.547l4.995,6.402L229.969,303.362z"/>
</g>
<g>
</g>
<g>
</g>
<g>
</g>
<g>
</g>
<g>
</g>
<g>
</g>
<g>
</g>
<g>
</g>
<g>
</g>
<g>
</g>
<g>
</g>
<g>
</g>
<g>
</g>
<g>
</g>
<g>
</g>
</svg>
