<?xml version="1.0" encoding="iso-8859-1"?>
<!-- Generator: Adobe Illustrator 16.0.0, SVG Export Plug-In . SVG Version: 6.00 Build 0)  -->
<!DOCTYPE svg PUBLIC "-//W3C//DTD SVG 1.1//EN" "http://www.w3.org/Graphics/SVG/1.1/DTD/svg11.dtd">
<svg version="1.1" id="Capa_1" xmlns="http://www.w3.org/2000/svg" xmlns:xlink="http://www.w3.org/1999/xlink" x="0px" y="0px"
	 width="380.737px" height="380.737px" viewBox="0 0 380.737 380.737" style="enable-background:new 0 0 380.737 380.737;"
	 xml:space="preserve">
<g>
	<path d="M349.896,323.01l0.117-0.047c0,0-84.236-85.502-92.497-93.763c-5.345-1.558-37.528-15.825-35.46-42.595
		c10.154-12.478,21.657-22.423,32.602-24.259c21.704,11.619,63.496,8.063,95.285-23.725C381.464,107.1,393.385,61.02,363.595,30.23
		v-0.012c-0.128-0.14-0.64-0.639-0.768-0.767c0,0-0.012,0.012-0.023,0.023c-30.777-29.791-76.857-17.881-108.379,13.629
		c-31.776,31.777-35.344,73.592-23.701,95.296c-1.209,7.157-5.926,14.546-12.514,21.646C63.066,7.853,4.607,24.061,4.607,24.061
		L0,28.72c0,0,102.535,102.814,166.635,167.054c-9.992,9.992-135.857,135.857-135.857,135.857l0.035,0.034
		c-0.104,0.081-0.227,0.163-0.32,0.256c-7.819,7.819-7.819,20.495,0,28.326c0.407,0.396,1.917,1.894,2.294,2.301
		c7.831,7.808,20.524,7.819,28.344,0.011c0.093-0.104,0.175-0.221,0.25-0.324l0.023,0.023c0,0,125.639-125.621,135.834-135.822
		c10.806,10.84,18.021,18.055,19.484,19.496c9.492,9.55,105.067,105.125,105.067,105.125h0.116c0,0.105,0.093,0.209,0.21,0.268
		c7.715,7.773,20.402,7.773,28.117,0c7.83-7.727,7.83-20.344,0-28.117C350.117,323.113,350.001,323.056,349.896,323.01z
		 M242.551,103.521c0.291-5.891,1.186-12.804,3.382-19.996c0.998-3.614,2.475-7.262,4.264-10.829
		c1.58-3.451,4.078-7.576,6.367-10.387c9.725-13.048,23.539-22.029,34.6-26.293c11.107-4.38,19.102-4.531,19.102-4.531
		s-7.088,3.439-16.452,9.667c-4.706,3.102-10.015,6.878-15.267,11.352c-2.649,2.219-5.333,4.543-7.843,7.157l-3.8,3.892L265.15,65.4
		l-1.801,2.243c-2.533,3.16-4.172,5.577-6.03,8.83c-1.848,3.044-3.288,6.286-4.636,9.458c-2.649,6.367-4.462,12.665-5.67,18.183
		c-1.348,5.519-2.057,10.248-2.417,13.583c-0.465,3.334-0.581,5.263-0.581,5.263S242.157,115.36,242.551,103.521z"/>
</g>
<g>
</g>
<g>
</g>
<g>
</g>
<g>
</g>
<g>
</g>
<g>
</g>
<g>
</g>
<g>
</g>
<g>
</g>
<g>
</g>
<g>
</g>
<g>
</g>
<g>
</g>
<g>
</g>
<g>
</g>
</svg>
