<?xml version="1.0" encoding="iso-8859-1"?>
<!-- Generator: Adobe Illustrator 16.0.0, SVG Export Plug-In . SVG Version: 6.00 Build 0)  -->
<!DOCTYPE svg PUBLIC "-//W3C//DTD SVG 1.1//EN" "http://www.w3.org/Graphics/SVG/1.1/DTD/svg11.dtd">
<svg version="1.1" id="Capa_1" xmlns="http://www.w3.org/2000/svg" xmlns:xlink="http://www.w3.org/1999/xlink" x="0px" y="0px"
	 width="388.331px" height="388.33px" viewBox="0 0 388.331 388.33" style="enable-background:new 0 0 388.331 388.33;"
	 xml:space="preserve">
<g>
	<path d="M264.07,166.541c21.39,11.462,62.59,7.953,93.913-23.377c31.068-31.062,42.815-76.485,13.442-106.828l0.023-0.012
		c-0.139-0.128-0.639-0.627-0.767-0.761c0,0,0,0.012-0.023,0.012c-30.324-29.36-75.742-17.62-106.821,13.443
		c-31.324,31.33-34.833,72.53-23.377,93.919c-2.951,17.515-26.979,36.518-48.531,48.851c-16.621-10.253-37.581-28.373-39.783-64.803
		c1.592-14.552-3.201-29.674-14.337-40.811c-1.022-1.022-3.962-3.509-3.962-3.509L52.656,19.431l-7.396,7.39l88.099,82.649
		l-9.556,9.556L38.452,33.669L30.615,41.5l85.339,85.362l-8.069,8.069L22.546,49.593l-7.14,7.076l84.828,84.834l-9.719,9.754
		L8.092,64L0,72.116l67.376,84.897c0,0,1.604,1.644,2.283,2.248c9.806,8.569,22.116,12.612,34.298,12.27
		c0.087,0,0.215,0.023,0.261,0.035c32.079,0.32,51.901,19.822,64.368,36.646C138.082,238.733,43.413,333.413,43.413,333.413
		l0.023,0.023c-0.093,0.07-0.215,0.151-0.308,0.244c-7.709,7.703-7.709,20.205,0,27.932c0.395,0.383,1.882,1.859,2.26,2.254
		c7.709,7.715,20.229,7.715,27.926,0.012c0.093-0.093,0.174-0.209,0.25-0.313l0.023,0.034c0,0,87.913-87.918,121.619-121.612
		c32.079,32.067,120.997,120.962,120.997,120.962l0.023-0.023c0.069,0.082,0.104,0.197,0.221,0.314
		c7.575,7.563,19.938,7.563,27.524-0.023c7.587-7.599,7.61-19.914,0.011-27.525c-0.115-0.104-0.231-0.139-0.324-0.243l0.022-0.023
		c0,0-98.212-98.201-125.458-125.47C230.526,189.9,247.931,169.259,264.07,166.541z M253.636,107.878
		c0.464-5.211,1.51-11.206,3.241-17.55c0.918-3.154,1.998-6.402,3.312-9.684c1.452-3.334,2.975-6.437,5.205-9.684
		c4.264-6.233,9.457-11.079,14.628-15.145c5.112-4.119,10.306-7.32,14.918-9.748c4.578-2.475,8.679-4.078,11.607-4.996
		c2.974-0.976,4.705-1.104,4.705-1.104s-1.429,1.081-3.566,3.079c-2.161,2.01-5.24,4.892-8.946,8.342
		c-7.111,6.937-17.242,15.941-24.423,25.735c-1.731,2.237-3.276,5.188-4.624,7.889c-1.464,2.76-2.766,5.612-3.95,8.435
		c-2.464,5.612-4.497,11.049-6.251,15.738c-1.708,4.7-3.044,8.673-3.834,11.497c-0.86,2.829-0.744,4.508-0.604,4.508
		c-0.069,0.105-1.127-1.522-1.44-4.642C253.229,117.463,253.148,113.077,253.636,107.878z"/>
</g>
<g>
</g>
<g>
</g>
<g>
</g>
<g>
</g>
<g>
</g>
<g>
</g>
<g>
</g>
<g>
</g>
<g>
</g>
<g>
</g>
<g>
</g>
<g>
</g>
<g>
</g>
<g>
</g>
<g>
</g>
</svg>
