<?xml version="1.0" encoding="iso-8859-1"?>
<!-- Generator: Adobe Illustrator 16.0.0, SVG Export Plug-In . SVG Version: 6.00 Build 0)  -->
<!DOCTYPE svg PUBLIC "-//W3C//DTD SVG 1.1//EN" "http://www.w3.org/Graphics/SVG/1.1/DTD/svg11.dtd">
<svg version="1.1" id="Capa_1" xmlns="http://www.w3.org/2000/svg" xmlns:xlink="http://www.w3.org/1999/xlink" x="0px" y="0px"
	 width="380.721px" height="380.721px" viewBox="0 0 380.721 380.721" style="enable-background:new 0 0 380.721 380.721;"
	 xml:space="preserve">
<g>
	<g>
		<path d="M302.649,113.003c0,0-6.703,1.725-16.894,6.652c-16.429-21.873-39.979-37.976-67.226-44.964
			c-6.715-14.332-17.893-24.486-33.746-24.754v-0.041c-0.116,0-0.593,0-0.721,0v0.023c-17.422,0.302-29.413,11.781-35.994,27.821
			c-21.164,7.436-39.736,20.437-53.777,37.4c-8.371-7.122-14.407-12.106-14.407-12.106l-4.328,4.328l14.047,14.053
			c-1.51,2.092-2.957,4.212-4.339,6.402l-15.086-15.064l-5.868,5.862l16.551,16.551c-1.022,1.905-1.9,3.892-2.83,5.856L59.97,122.96
			l-5.868,5.868l20.419,20.414c-0.999,2.62-2.01,5.223-2.835,7.924l-22.958-22.958l-4.346,4.328c0,0,11.433,13.85,24.649,28.948
			c-1.737,8.162-2.673,16.597-2.673,25.259c0,39.864,19.322,75.208,48.99,97.469l-6.925,5.229l0.029,0.035
			c-0.075,0.058-0.18,0.127-0.267,0.221c-6.669,6.669-6.658,17.509,0.029,24.166c0.319,0.338,4.258,4.265,4.601,4.602
			c6.675,6.704,17.503,6.704,24.167,0.023c0.093-0.094,0.163-0.197,0.227-0.268l0.023,0.035l12.345-15.977
			c5.118,1.732,10.353,3.138,15.732,4.172l-1.558,11.188h0.035c-0.012,0.104-0.035,0.21-0.035,0.337
			c0,9.435,7.663,17.092,17.108,17.092c0.477,0,6.042,0,6.519,0c9.435,0,17.114-7.657,17.114-17.092
			c0-0.139-0.023-0.244-0.047-0.337h0.047l-1.267-9.934c7.575-0.93,14.965-2.487,22.063-4.753l11.526,15.291l0.034-0.035
			c0.082,0.082,0.129,0.186,0.222,0.279c6.669,6.681,17.497,6.669,24.179-0.023c0.312-0.325,4.264-4.275,4.612-4.613
			c6.681-6.668,6.692-17.497,0-24.154c-0.081-0.105-0.175-0.163-0.256-0.232l0.023-0.023l-5.53-4.275
			c30.395-22.191,50.262-58.001,50.262-98.422c0-17.98-4.008-34.995-11.025-50.378c20.204-20.356,35.727-36.128,36.877-37.284
			C339.249,102,302.649,113.003,302.649,113.003z M130.995,316.493c-3.294,3.3-9.196,2.742-13.193-1.231
			c-3.985-3.997-4.554-9.899-1.237-13.198c3.311-3.301,9.219-2.754,13.21,1.242C133.749,307.268,134.306,313.182,130.995,316.493z
			 M256.592,314.877c-3.996,3.986-9.898,4.543-13.21,1.244c-3.312-3.312-2.73-9.226,1.243-13.211s9.876-4.543,13.188-1.243
			C261.135,304.979,260.567,310.893,256.592,314.877z M274.055,126.016c-9.248,5.595-19.844,13.304-30.476,23.929
			c-11.084,11.09-29.849,29.413-36.924,36.477c1.104,4.008,12.42,16.266,0.686,32.102l-8.981,9.062l-5.623,4.253l-2.475-19.356
			l0.29-48.88c3.927-11.671,35.623-24.725,35.623-51.11c0-7.639-0.813-15.29-2.486-22.511
			C243.8,96.917,261.217,109.564,274.055,126.016z M160.611,88.552c-0.023,0.035-0.407,1.667-0.633,3.358
			c-0.377,1.638-0.436,3.875-0.5,6.901c-0.058,2.661,0.122,5.896,0.587,9.673c0.174,1.638,0.453,3.363,0.83,5.159
			c0.309,1.562,0.895,3.369,1.522,4.752c3.097,6.314,5.507,12.571,9.011,16.858c0.708,0.808,1.435,1.662,2.091,2.411
			c0.895,1.051,1.69,1.987,2.382,2.62c1.034,1.057,1.795,1.58,1.795,1.592c0.547,0.372,0.796,0.999,0.604,1.551
			c-0.215,0.523-0.796,0.854-1.411,0.773c-0.169-0.012-1-0.168-2.289-0.68c-0.309-0.146-0.64-0.285-0.959-0.477l-0.552-0.296
			c-1.557-0.871-3.712-2.021-5.885-3.834c-6.832-5.374-9.19-11.334-12.101-17.44c-0.895-2.138-1.429-4.055-1.835-6.303
			c-0.273-1.976-0.436-3.927-0.488-6.083c0-4.125,0.587-7.877,1.086-10.695c0.616-3.225,1.69-5.891,2.428-7.57
			c0.459-0.947,0.854-1.737,1.139-2.306c0.987-0.296,2.01-0.511,3.009-0.773C160.587,87.994,160.669,88.267,160.611,88.552z
			 M143.491,93.763c-0.964,5.449-1.452,11.137-1.452,16.859c0,32.172,32.602,41.81,37.099,52.801l0.227,48.631l-2.109,15.068
			l-0.296-0.232l-33.84-34.228c3.155-7.192,3.689-17.446,3.689-26.264c0-4.839-23.354-26.066-42.473-42.652
			C114.828,110.97,128.247,100.699,143.491,93.763z M99.014,130.838l31.638,31.638l-5.379,5.362l-30.418-30.424
			C96.185,135.178,97.544,132.976,99.014,130.838z M90.748,145.042l28.664,28.675l-2.062,2.057l-0.221,0.238l-2.062,2.057
			l-27.112-27.112C88.796,148.934,89.784,146.994,90.748,145.042z M84.811,159.524l24.405,24.399l-5.379,5.391l-21.309-21.309
			C83.196,165.148,83.922,162.307,84.811,159.524z M79.577,192.742c0-4.252,0.296-8.423,0.772-12.554
			c12.362,13.576,23.975,25.253,27.391,25.253c9.423,0,20.484-0.616,27.659-4.369l33.532,33.229l6.157,8.18l-0.424,2.974
			l-48.351,36.495C98.114,262.28,79.577,229.655,79.577,192.742z M158.171,297.159l11.317-14.639l-2.358,16.87
			C164.096,298.786,161.122,297.997,158.171,297.159z M184.372,330.993c-5.653,0-10.219-3.764-10.219-8.458
			c0-4.113,3.613-7.366,8.312-8.146c1.818,0.105,3.631,0.279,5.473,0.279c3.857,1.209,6.635,4.218,6.635,7.866
			C194.573,327.229,190.012,330.993,184.372,330.993z M201.52,300.622l-3.555-27.838l18.74,24.84
			C211.768,298.949,206.713,299.983,201.52,300.622z M297.119,192.742c0,37.424-19.02,70.491-47.869,90.057l-50.03-38.691
			l6.564-8.516l9.098-8.993l0.047,0.012c0,0,2.638-2.614,7.122-7.075l39.248-38.767l-0.163-0.163
			c9.481-9.422,19.078-19.072,28.152-28.175C294.284,164.921,297.119,178.498,297.119,192.742z"/>
		<path d="M190.366,0C85.409,0,0.006,85.397,0.006,190.36c0,104.963,85.403,190.361,190.36,190.361
			c104.94,0,190.35-85.397,190.35-190.361C380.715,85.397,295.306,0,190.366,0z M190.366,367.522
			c-97.678,0-177.155-79.483-177.155-177.162S92.688,13.205,190.366,13.205c97.679,0,177.139,79.478,177.139,177.156
			S288.044,367.522,190.366,367.522z"/>
	</g>
</g>
<g>
</g>
<g>
</g>
<g>
</g>
<g>
</g>
<g>
</g>
<g>
</g>
<g>
</g>
<g>
</g>
<g>
</g>
<g>
</g>
<g>
</g>
<g>
</g>
<g>
</g>
<g>
</g>
<g>
</g>
</svg>
