<?xml version="1.0" encoding="iso-8859-1"?>
<!-- Generator: Adobe Illustrator 16.0.0, SVG Export Plug-In . SVG Version: 6.00 Build 0)  -->
<!DOCTYPE svg PUBLIC "-//W3C//DTD SVG 1.1//EN" "http://www.w3.org/Graphics/SVG/1.1/DTD/svg11.dtd">
<svg version="1.1" id="Capa_1" xmlns="http://www.w3.org/2000/svg" xmlns:xlink="http://www.w3.org/1999/xlink" x="0px" y="0px"
	 width="380.721px" height="380.721px" viewBox="0 0 380.721 380.721" style="enable-background:new 0 0 380.721 380.721;"
	 xml:space="preserve">
<g>
	<g>
		<path d="M286.825,121.078c-17.045-23.354-42.106-40.427-71.164-47.125c-6.658-8.063-15.558-13.228-26.816-13.431
			c0-0.012,0-0.023,0-0.035c-0.134,0-0.609,0-0.738,0c0,0.012,0,0.023,0,0.035c-11.659,0.203-20.89,5.414-27.745,13.611
			c-28.756,6.779-53.562,23.737-70.479,46.887c-7.488-6.495-12.851-11.038-12.851-11.038l-2.881,2.875l12.432,12.769
			c-1.568,2.353-3.021,4.781-4.415,7.256L67.94,119.08l-3.688,3.689l15.075,15.575c-1.115,2.213-2.271,4.427-3.248,6.733
			l-17.358-16.76l-3.916,3.898l18.892,19.264c-0.935,2.644-1.83,5.281-2.603,7.994l-21.773-21.768l-3.224,3.218
			c0,0,10.933,12.653,23.046,26.096c-1.784,8.29-2.771,16.882-2.771,25.712c0,41.014,20.426,77.311,51.587,99.409
			c0.215,2.776,0.581,8.575,0.441,13.663c-0.122,3.857-0.645,8.993-0.099,9.481c0.575,0.522,5.536,0.093,9.399-0.256
			c6.46-0.628,13.896-0.604,13.896-0.604l2.283-4.67c-0.186,0-0.354-0.023-0.535-0.035c-2.103-0.174-4.484-0.349-6.872-0.256
			c-4.74,0.197-10.451,0.465-10.498,0.477l-2.237,0.627l0.407-2.266c0.011-0.058-0.192-5.785-0.442-10.921
			c-0.023-0.5-0.116-0.987-0.157-1.487c0.999,0.627,2.016,1.243,3.038,1.848c0.186,3.172,0.889,7.029,0.686,8.899
			c1.882-0.407,5.798,0.069,8.807-0.046c2.486-0.094,4.891,0.092,6.995,0.255c0.522,0.047,1.098,0.093,1.655,0.128l0.203-0.406
			c8.825,3.381,18.108,5.774,27.78,7.018l-1.464,4.264c0,0,6.437,5.345,11.229,10.434c2.667,2.812,5.902,6.809,6.652,6.773
			c0.772-0.046,3.979-3.846,6.465-6.843c4.137-5.008,9.412-10.236,9.412-10.236l-1.488-4.311c9.214-1.15,18.091-3.358,26.537-6.472
			c1.465-0.186,2.939-0.371,4.462-0.441c3.23-0.186,7.25-0.941,9.179-0.721c-0.244-1.092-0.186-2.834-0.116-4.693
			c1.022-0.523,2.092-0.977,3.091-1.522c0.162,3.869,0.313,7.482,0.349,7.518l0.604,2.231l-2.277-0.396
			c-0.059-0.022-5.764,0.175-10.91,0.419c-2.01,0.116-4.031,0.36-5.983,0.64c-1.186,0.15-2.277,0.267-3.288,0.383l2.393,4.903
			c0,0,8.331-0.778,15.326-0.604c3.857,0.116,8.98,0.65,9.48,0.094c0.522-0.559,0.081-5.508-0.279-9.389
			c-0.278-2.998-0.418-6.193-0.488-8.771c35.136-21.438,58.744-60.011,58.744-104.092c0-18.096-4.066-35.216-11.153-50.687
			c19.066-18.596,34.333-33.421,35.367-34.455C336.39,105.718,311.329,109.86,286.825,121.078z M274.927,127.196
			c-7.064,4.083-13.71,8.766-19.124,14.18c-9.899,9.888-26.665,26.258-32.975,32.579c1.093,3.916,12.293,15.929-8.318,36.087
			l0.069,0.058l-19.52,18.463l-0.883-49.17c0.058-0.558,0.104-1.133,0.104-1.749c0-12.438,36.401-25.532,36.401-53.934
			c0-11.578-1.882-23.185-5.682-33.252C245.02,97.655,262.309,110.54,274.927,127.196z M196.257,293.918l-0.431-23.703
			l20.867,21.948l2.359,4.845c-6.564,1.94-13.361,3.3-20.38,3.962L196.257,293.918z M162.551,114.618
			c0.069,2.475,0.366,5.484,0.976,8.987c0.238,1.51,0.569,3.114,1.011,4.758c0.354,1.441,0.977,3.102,1.615,4.357
			c3.189,5.757,5.699,11.468,9.173,15.296c0.691,0.738,1.418,1.487,2.051,2.155c0.889,0.941,1.661,1.784,2.329,2.341
			c1.023,0.941,1.749,1.394,1.749,1.406c0.522,0.308,0.784,0.877,0.646,1.406c-0.181,0.488-0.715,0.842-1.302,0.785
			c-0.128-0.012-0.924-0.111-2.149-0.523c-0.285-0.134-0.621-0.25-0.918-0.407l-0.522-0.25c-1.499-0.738-3.556-1.725-5.665-3.294
			c-6.616-4.711-9.079-10.16-12.054-15.72c-0.924-1.964-1.522-3.724-1.999-5.792c-0.343-1.818-0.592-3.643-0.738-5.641
			c-0.174-3.84,0.191-7.366,0.552-10.027c0.401-3.032,1.284-5.56,1.911-7.151c0.773-1.841,1.325-3.108,1.325-3.108
			c0.25-0.569,0.936-0.842,1.592-0.616c0.691,0.261,1.08,0.808,0.987,1.417c0,0.035-0.284,1.557-0.43,3.149
			C162.417,109.709,162.464,111.801,162.551,114.618z M150.961,90.719c-3.509,9.399-5.292,20.141-5.292,31.103
			c0,32.23,32.404,42.054,37.354,53.062l-1.51,60.882l-47.469-45.789c4.032-6.971,6.519-17.712,1.94-25.34
			c-3.201-5.315-20.942-21.523-36.122-34.92C112.475,112.051,130.234,98.346,150.961,90.719z M96.092,135.404l26.601,27.344
			l-4.804,4.816l-25.893-25.125C93.269,140.034,94.652,137.705,96.092,135.404z M89.104,148.446l23.545,24.353l-1.83,1.83
			l-0.215,0.203l-1.818,1.848l-22.343-21.57C87.274,152.85,88.133,150.625,89.104,148.446z M84.049,162.058l19.479,19.856
			l-5.002,5.008l-16.609-16.609C82.528,167.518,83.253,164.782,84.049,162.058z M79.577,192.742c0-4.514,0.354-8.935,0.895-13.303
			c8.505,9.15,16.086,16.847,19.13,18.753c7.14,4.449,19.572,3.021,26.95-0.756l48.061,50.507l-33.468,31.707l-10.504,5.124
			C100.031,265.487,79.577,231.502,79.577,192.742z M152.425,291.257l28.46-29.604l-0.796,32.021l-2.515,7.262
			c-9.336-0.918-18.294-3.138-26.805-6.286L152.425,291.257z M197.86,318.073c-3.218,3.486-7.063,7.715-7.087,7.75l-1.145,2.033
			l-1.33-1.905c-0.012-0.047-4.212-3.974-8.022-7.413c-1.487-1.336-3.103-2.603-4.677-3.799c-0.401-0.314-0.738-0.581-1.115-0.883
			c1.655,0.197,3.328,0.267,5.007,0.395c0.965,0.756,1.93,1.498,2.858,2.336c2.399,2.16,5.78,4.461,6.983,5.971
			c1.045-1.603,4.171-4.043,6.216-6.238c0.743-0.802,1.464-1.383,2.23-2.092c1.558-0.127,3.114-0.244,4.647-0.406
			C200.962,315.098,199.347,316.493,197.86,318.073z M297.119,192.742c0,40.584-22.412,75.999-55.444,94.68l-13.361-6.553
			l-32.869-31.672l-0.059-2.672l43.605-45.359c13.698-13.652,32.66-32.243,50.088-49.281
			C294.214,164.521,297.119,178.283,297.119,192.742z"/>
		<path d="M190.366,0C85.409,0,0.006,85.397,0.006,190.36c0,104.963,85.403,190.361,190.36,190.361
			c104.94,0,190.35-85.397,190.35-190.361C380.715,85.397,295.306,0,190.366,0z M190.366,367.522
			c-97.678,0-177.155-79.483-177.155-177.162S92.688,13.205,190.366,13.205c97.679,0,177.139,79.478,177.139,177.156
			S288.044,367.522,190.366,367.522z"/>
	</g>
</g>
<g>
</g>
<g>
</g>
<g>
</g>
<g>
</g>
<g>
</g>
<g>
</g>
<g>
</g>
<g>
</g>
<g>
</g>
<g>
</g>
<g>
</g>
<g>
</g>
<g>
</g>
<g>
</g>
<g>
</g>
</svg>
