<?xml version="1.0" encoding="iso-8859-1"?>
<!-- Generator: Adobe Illustrator 16.0.0, SVG Export Plug-In . SVG Version: 6.00 Build 0)  -->
<!DOCTYPE svg PUBLIC "-//W3C//DTD SVG 1.1//EN" "http://www.w3.org/Graphics/SVG/1.1/DTD/svg11.dtd">
<svg version="1.1" id="Capa_1" xmlns="http://www.w3.org/2000/svg" xmlns:xlink="http://www.w3.org/1999/xlink" x="0px" y="0px"
	 width="380.721px" height="380.721px" viewBox="0 0 380.721 380.721" style="enable-background:new 0 0 380.721 380.721;"
	 xml:space="preserve">
<g>
	<g>
		<path d="M301.034,105.033c0,0-7.238,3.225-17.834,11.183c-14.872-18.392-34.926-32.398-57.954-39.724
			c-5.565-18.05-17.951-23.081-36.059-23.383l0,0c-0.093,0-0.534,0-0.64,0v0.012c-18.025,0.291-30.376,5.199-35.953,23.011
			c-22.36,6.878-41.92,20.048-56.792,37.372C82.655,99.892,70.038,87.617,70.038,87.617l-4.154,3.543l24.637,29.006
			c-1.377,1.865-2.782,3.724-4.066,5.675L60.719,95.523l-5.652,4.81l27.339,32.184c-0.971,1.713-1.877,3.433-2.771,5.199
			l-28.756-33.839l-5.612,4.804l30.848,36.326c-1.011,2.382-1.841,4.839-2.713,7.291l-33.334-39.236l-4.165,3.555
			c0,0,19.107,27.415,34.275,46.37c-2.405,9.551-3.817,19.473-3.817,29.755c0,50.577,30.958,94.03,74.917,112.493
			c0.645,2.556,1.83,4.996,4.02,6.82c0.262,0.221,1.336,1.115,1.621,1.336c5.246,4.414,12.896,3.799,17.585-1.069
			c3.398,0.686,6.86,1.196,10.357,1.58c0,3.288,0,5.217,0,5.217h0.029c0,0.069-0.029,0.163-0.029,0.244
			c0,7.146,5.798,12.954,12.949,12.954c0.378,0,1.737,0,2.126,0c7.169,0,12.955-5.809,12.955-12.954
			c0-0.093-0.023-0.187-0.035-0.244h0.035c0,0,0-1.976,0-5.38c3.439-0.406,6.855-0.883,10.189-1.592
			c0,0.023,0.059,0.082,0.059,0.082l0.023-0.012c0.046,0.07,0.081,0.15,0.139,0.221c4.647,5.449,12.815,6.1,18.265,1.476
			c0.279-0.232,1.337-1.127,1.627-1.325c2.579-2.219,3.997-5.217,4.368-8.342c42.804-18.961,72.768-61.765,72.768-111.504
			c0-19.159-4.565-37.232-12.467-53.376c17.417-21.309,32.114-39.608,35.484-43.64C326.026,90.138,301.034,105.033,301.034,105.033z
			 M272.975,124.593c-5.53,4.973-11.525,11.015-17.684,18.358c-8.993,10.707-24.236,28.471-29.977,35.297
			c1.418,3.805,15.965,12.624,1.302,30.075l-9.551,11.434l-6.669-5.59c-1.243,1.453-3.974,4.706-7.541,8.982
			c0-2.673,0-5.252,0-7.669h-8.679v-58.883c4.171-5.937,34.38-14.373,34.38-52.586c0-4.549-0.197-8.65-0.547-12.45
			C245.741,98.538,261.206,109.994,272.975,124.593z M216.833,236.231c-1.777,2.149-4.996,2.417-7.146,0.615
			c-2.149-1.801-2.428-5.007-0.639-7.145c1.812-2.185,5.02-2.44,7.157-0.662C218.368,230.864,218.646,234.07,216.833,236.231z
			 M157.579,100.234c0.331-3.079,1.162-5.658,1.748-7.291c0.738-1.882,1.238-3.178,1.238-3.178c0.25-0.581,0.953-0.877,1.615-0.663
			c0.703,0.244,1.11,0.785,1.052,1.4c-0.029,0.023-0.268,1.586-0.36,3.212c-0.238,1.568-0.146,3.677,0.023,6.53
			c0.146,2.498,0.534,5.548,1.249,9.068c0.262,1.51,0.668,3.154,1.156,4.781c0.4,1.464,1.068,3.12,1.748,4.369
			c3.381,5.745,6.105,11.456,9.696,15.226c0.737,0.726,1.476,1.476,2.144,2.132c0.924,0.93,1.736,1.749,2.422,2.283
			c1.052,0.941,1.812,1.371,1.812,1.383c0.535,0.308,0.819,0.877,0.703,1.4c-0.191,0.511-0.703,0.872-1.301,0.848
			c-0.14,0-0.936-0.093-2.202-0.477c-0.296-0.133-0.627-0.25-0.935-0.383l-0.553-0.25c-1.533-0.686-3.625-1.639-5.791-3.189
			c-6.826-4.578-9.493-10.015-12.647-15.546c-0.999-1.963-1.667-3.724-2.202-5.821c-0.377-1.83-0.703-3.671-0.889-5.699
			C157.032,106.508,157.317,102.924,157.579,100.234z M188.856,223.172c2.812,0,5.089,2.276,5.089,5.088
			c0,2.801-2.277,5.066-5.089,5.066c-2.817,0-5.071-2.266-5.071-5.066C183.785,225.449,186.05,223.172,188.856,223.172z
			 M149.736,91.172c-0.354,3.904-0.569,8.15-0.569,12.839c0,38.388,30.221,45.626,34.368,52.371v59.098h-8.674
			c0,1.522,0,4.509,0,8.435c-2.648-3.113-5.182-6.088-7.471-8.795l-6.634,5.658l-41.218-48.513
			c3.509-6.164,4.747-15.453,5.403-23.487c0.25-2.986-9.051-13.896-20.048-25.683C116.756,108.908,132.174,97.882,149.736,91.172z
			 M168.262,237.788c-2.133,1.836-5.356,1.568-7.163-0.58c-1.818-2.139-1.557-5.322,0.569-7.17c2.132-1.801,5.344-1.557,7.162,0.582
			C170.667,232.768,170.4,235.987,168.262,237.788z M99.293,130.478l11.595,13.652l-5.159,4.386l-10.259-12.089
			C96.685,134.417,97.934,132.418,99.293,130.478z M91.567,143.316l8.499,10.01l-1.975,1.661l-0.215,0.215l-1.975,1.667l-6.925-8.15
			C89.795,146.889,90.667,145.088,91.567,143.316z M85.92,156.527l4.328,5.112l-5.176,4.415l-1.568-1.847
			C84.218,161.604,85.026,159.048,85.92,156.527z M79.577,192.742c0-5.821,0.592-11.497,1.476-17.074
			c2.852,2.975,5.141,4.909,6.344,5.008c8.04,0.657,17.404,0.918,24.045-1.545l41.211,48.502l-6.628,5.623
			c2.759,3.266,12.838,15.128,24.341,28.676c-11.822,14.128-22.343,26.676-25.485,30.44
			C106.491,275.56,79.577,237.253,79.577,192.742z M174.612,300.529c0.099-0.104,0.156-0.187,0.249-0.278c0,0.115,0,0.209,0,0.324
			C174.768,300.552,174.699,300.541,174.612,300.529z M193.945,319.026c0,2.812-2.277,5.101-5.089,5.101
			c-2.817,0-5.071-2.277-5.071-5.101c0-1.929,1.121-3.556,2.724-4.415c0.622,0,1.227,0.093,1.836,0.093
			c0.941,0,1.854-0.116,2.789-0.14C192.783,315.401,193.945,317.051,193.945,319.026z M202.879,300.401c0-0.07,0-0.15,0-0.221
			c0.059,0.07,0.104,0.128,0.175,0.197C203.007,300.389,202.938,300.401,202.879,300.401z M297.119,192.742
			c0,44.174-26.525,82.202-64.46,99.211c-3.904-4.601-13.92-16.37-25.607-30.139c9.004-10.712,17.893-21.332,24.852-29.65
			l-6.681-5.577l43.896-52.359l-0.035-0.023c6.402-7.651,13.048-15.667,19.531-23.557
			C294.075,163.591,297.119,177.818,297.119,192.742z"/>
		<path d="M190.366,0C85.409,0,0.006,85.397,0.006,190.36c0,104.963,85.403,190.361,190.36,190.361
			c104.94,0,190.35-85.397,190.35-190.361C380.715,85.397,295.306,0,190.366,0z M190.366,367.522
			c-97.678,0-177.155-79.483-177.155-177.162S92.688,13.205,190.366,13.205c97.679,0,177.139,79.478,177.139,177.156
			S288.044,367.522,190.366,367.522z"/>
	</g>
</g>
<g>
</g>
<g>
</g>
<g>
</g>
<g>
</g>
<g>
</g>
<g>
</g>
<g>
</g>
<g>
</g>
<g>
</g>
<g>
</g>
<g>
</g>
<g>
</g>
<g>
</g>
<g>
</g>
<g>
</g>
</svg>
