<?xml version="1.0" encoding="iso-8859-1"?>
<!-- Generator: Adobe Illustrator 16.0.0, SVG Export Plug-In . SVG Version: 6.00 Build 0)  -->
<!DOCTYPE svg PUBLIC "-//W3C//DTD SVG 1.1//EN" "http://www.w3.org/Graphics/SVG/1.1/DTD/svg11.dtd">
<svg version="1.1" id="Capa_1" xmlns="http://www.w3.org/2000/svg" xmlns:xlink="http://www.w3.org/1999/xlink" x="0px" y="0px"
	 width="380.721px" height="380.721px" viewBox="0 0 380.721 380.721" style="enable-background:new 0 0 380.721 380.721;"
	 xml:space="preserve">
<g>
	<g>
		<path d="M190.366,0C85.409,0,0.006,85.397,0.006,190.36c0,104.963,85.403,190.361,190.36,190.361
			c104.94,0,190.35-85.397,190.35-190.361C380.715,85.397,295.306,0,190.366,0z M190.366,367.522
			c-97.678,0-177.155-79.483-177.155-177.162S92.688,13.205,190.366,13.205c97.679,0,177.139,79.478,177.139,177.156
			S288.044,367.522,190.366,367.522z"/>
		<path d="M328.745,105.434c-6.204,2.144-22.587,4.584-41.281,16.493c-15.755-22-38.586-38.539-65.192-46.271
			c-7.715-13.931-20.82-23.569-33.688-23.638c0,0-0.023,0-0.046,0.011c0,0,0-0.011-0.041-0.011
			c-12.682,0.191-25.556,9.684-33.177,23.412c-18.276,5.165-34.781,14.471-48.497,26.845C94.971,90.847,85.456,82.115,85.456,82.115
			l-4.166,3.549l19.229,22.639c-1.632,1.714-3.253,3.474-4.799,5.281l-19.81-23.307l-6.123,5.234l20.832,24.533
			c-1.452,1.952-2.893,3.892-4.24,5.937L64.408,100.13l-5.879,5.042l23.604,27.78c-1.249,2.225-2.388,4.525-3.509,6.832
			L53.15,109.791l-5.438,4.665c0,0,12.211,18.584,25.799,37.569c-4.549,12.757-7.151,26.426-7.151,40.717
			c0,43.118,22.558,80.983,56.415,102.674l-2.423,2.207l0.035,0.023c-0.076,0.047-0.157,0.094-0.227,0.151
			c-4.938,4.962-4.938,13.001,0.023,17.974c0.238,0.232,3.167,3.184,3.404,3.404c4.973,4.973,13.013,4.973,17.962,0
			c0.058-0.046,0.134-0.127,0.169-0.197l0.023,0.023l9.376-10.154c7.447,2.393,15.18,4.055,23.161,4.984l-0.093,1.998l0.012-0.012
			c0,0.116-0.012,0.186-0.012,0.279c0.012,7.227,5.914,13.082,13.17,13.047c0.366,0,4.612-0.022,4.984-0.034
			c7.25-0.023,13.106-5.937,13.06-13.152c0-0.104-0.023-0.187-0.023-0.256h0.023l-0.128-2.3c7.319-1.035,14.454-2.649,21.297-4.904
			l7.273,9.436l0.023-0.023c0.046,0.069,0.093,0.139,0.151,0.244c4.729,5.495,13.001,6.123,18.484,1.405
			c0.291-0.243,3.533-3.021,3.823-3.265c5.495-4.705,6.123-12.99,1.417-18.485c-0.081-0.069-0.15-0.116-0.197-0.187l0.023-0.022
			l-2.661-2.788c33.312-21.797,55.387-59.36,55.387-102.047c0-15.099-2.882-29.494-7.924-42.867
			c19.612-19.502,37.679-37.488,41.281-41.095C349.45,102.866,337.017,102.57,328.745,105.434z M276.833,129.717
			c-2.881,2.358-5.774,4.868-8.668,7.761c-9.666,9.696-22.772,22.413-28.977,28.6c-11.049,11.055,5.682,17.643-10.108,33.462
			l-28.791,25.967l-4.078-71.803c0,0,8.237-3.044,8.308-3.079c14.36-6.414,24.725-25.143,24.62-49.379
			c-0.012-3.271-0.337-6.483-0.941-9.608C247.868,99.416,264.703,112.753,276.833,129.717z M166.217,86.507
			c-0.053,0.035-0.587,1.621-0.977,3.294c-0.54,1.609-0.836,3.881-1.214,6.913c-0.337,2.655-0.477,5.949-0.396,9.783
			c0,1.65,0.111,3.41,0.309,5.257c0.168,1.604,0.563,3.474,1.062,4.915c2.452,6.698,4.259,13.205,7.36,17.881
			c0.622,0.889,1.261,1.807,1.836,2.643c0.819,1.139,1.476,2.185,2.126,2.875c0.93,1.18,1.668,1.772,1.668,1.784
			c0.522,0.43,0.715,1.075,0.453,1.609c-0.262,0.511-0.883,0.784-1.511,0.639c-0.157-0.023-0.976-0.261-2.225-0.912
			c-0.308-0.168-0.622-0.36-0.918-0.563l-0.522-0.366c-1.488-1.022-3.533-2.405-5.555-4.438c-6.32-6.117-8.092-12.339-10.387-18.776
			c-0.691-2.26-1.052-4.235-1.203-6.541c-0.099-2.01-0.07-3.985,0.116-6.164c0.418-4.165,1.371-7.866,2.19-10.648
			c0.918-3.189,2.26-5.745,3.213-7.354c0.273-0.465,0.441-0.738,0.68-1.115c1.295-0.308,2.545-0.727,3.863-0.988
			C166.176,86.338,166.241,86.426,166.217,86.507z M149.451,91.276c-0.668,3.37-1.057,6.809-1.045,10.341
			c0.116,24.248,10.671,42.867,25.079,49.124c1.498,0.75,8.289,2.951,8.289,2.951l-2.863,61.254l-33.195-34.868
			c0,0,0.07-0.128,0.139-0.285c5.664-7.622,7.808-17.283,6.739-26.148c-0.703-5.798-19.014-25.056-36.326-42.152
			C125.953,102.889,137.147,96.011,149.451,91.276z M109.14,118.429l26.305,30.981l-5.351,4.612l-25.747-30.301
			C105.858,121.892,107.502,120.178,109.14,118.429z M99.386,130.35l24.567,28.925l-5.356,4.612l-23.208-27.315
			C96.662,134.463,97.957,132.372,99.386,130.35z M91.358,143.793l21.367,25.131l-5.403,4.625l-19.311-22.738
			C89.011,148.411,90.178,146.087,91.358,143.793z M79.577,192.742c0-9.486,1.342-18.636,3.642-27.426
			c10.492,14.006,20.275,25.741,24.399,26.892c8.673,2.405,18.642,1.754,27.106-2.765l42.78,55.444l-0.047,1.243l-44.447,40.084
			C101.088,267.229,79.577,232.49,79.577,192.742z M161.204,297.926l14.575-15.79l-0.865,18.438
			C170.237,299.995,165.665,299.088,161.204,297.926z M204.518,300.157l-1.231-21.866l14.662,19.009
			C213.592,298.53,209.107,299.459,204.518,300.157z M297.119,192.742c0,38.934-20.658,73.059-51.494,92.276l-36.843-38.679
			l37.587-40.735h0.011c0,0,22.366-22.238,45.72-45.475C295.341,170.435,297.119,181.379,297.119,192.742z"/>
	</g>
</g>
<g>
</g>
<g>
</g>
<g>
</g>
<g>
</g>
<g>
</g>
<g>
</g>
<g>
</g>
<g>
</g>
<g>
</g>
<g>
</g>
<g>
</g>
<g>
</g>
<g>
</g>
<g>
</g>
<g>
</g>
</svg>
