<?xml version="1.0" encoding="iso-8859-1"?>
<!-- Generator: Adobe Illustrator 16.0.0, SVG Export Plug-In . SVG Version: 6.00 Build 0)  -->
<!DOCTYPE svg PUBLIC "-//W3C//DTD SVG 1.1//EN" "http://www.w3.org/Graphics/SVG/1.1/DTD/svg11.dtd">
<svg version="1.1" id="Capa_1" xmlns="http://www.w3.org/2000/svg" xmlns:xlink="http://www.w3.org/1999/xlink" x="0px" y="0px"
	 width="380.721px" height="380.721px" viewBox="0 0 380.721 380.721" style="enable-background:new 0 0 380.721 380.721;"
	 xml:space="preserve">
<g>
	<g>
		<path d="M165.09,104.783h-6.588V55.619l-5.321,0.122v85.473h-6.605V55.897l-6.076,0.128v48.746h-6.605V56.182l-7.744,0.174
			c0,0,0,93.315,0,105.806c0,13.791,7.279,25.282,17.085,28.5c3.498,37.993-5.664,103.058-5.664,108.797c0,6.541,0,69.922,0,69.922
			h0.023c0,0.069-0.023,0.139-0.023,0.209c0,6.158,4.984,11.131,11.125,11.131c6.152,0,11.125-4.973,11.125-11.131
			c0-0.07-0.023-0.14-0.023-0.209h0.023c0,0,0-62.125,0-69.713c0-6.727-9.26-70.77-4.153-109.627
			c9.016-3.857,15.574-14.814,15.574-27.879c0-13.251,0-106.828,0-106.828l-6.151,0.146V104.783z"/>
		<path d="M244.138,171.387l10.434-38.934V0H242.29l-25.631,46.875v79.298l14.616,45.214h0.023
			c4.066,37.656-5.449,111.237-5.449,117.094c0,6.529,0,76.066,0,76.066h0.023c0,0.07-0.023,0.14-0.023,0.221
			c0,6.135,4.973,11.119,11.119,11.119c6.135,0,11.119-4.973,11.119-11.119c0-0.081-0.012-0.15-0.012-0.221h0.012
			c0,0,0-68.271,0-75.846c0-6.832-9.516-78.613-3.962-117.303h0.012V171.387z"/>
	</g>
</g>
<g>
</g>
<g>
</g>
<g>
</g>
<g>
</g>
<g>
</g>
<g>
</g>
<g>
</g>
<g>
</g>
<g>
</g>
<g>
</g>
<g>
</g>
<g>
</g>
<g>
</g>
<g>
</g>
<g>
</g>
</svg>
