<?xml version="1.0" encoding="iso-8859-1"?>
<!-- Generator: Adobe Illustrator 16.0.0, SVG Export Plug-In . SVG Version: 6.00 Build 0)  -->
<!DOCTYPE svg PUBLIC "-//W3C//DTD SVG 1.1//EN" "http://www.w3.org/Graphics/SVG/1.1/DTD/svg11.dtd">
<svg version="1.1" id="Capa_1" xmlns="http://www.w3.org/2000/svg" xmlns:xlink="http://www.w3.org/1999/xlink" x="0px" y="0px"
	 width="380.708px" height="380.708px" viewBox="0 0 380.708 380.708" style="enable-background:new 0 0 380.708 380.708;"
	 xml:space="preserve">
<g>
	<g>
		<path d="M139.05,57.174h-6.146v86.379h-7.936V57.174h-8.981v86.379h-7.936V57.174h-8.656v86.379h-7.924V57.174h-8.006
			c0,0-12.292,92.043-5.333,102.441c5.601,8.348,14.547,15.046,25.004,17.347l-9.354,181.194h0.047
			c-0.012,0.093-0.047,0.197-0.047,0.302c0,8.087,6.576,14.64,14.675,14.64c0.406,0,5.193,0,5.588,0
			c8.11,0,14.663-6.564,14.663-14.64c0-0.116-0.012-0.221-0.023-0.302h0.023l-9.423-181.124c0,0,0.128-0.058,0.337-0.128
			c10.34-2.358,19.194-9.01,24.736-17.289C151.332,149.229,139.05,57.174,139.05,57.174z"/>
		<path d="M61.229,114.082h-6.297v81.935h-6.472v-81.935H38.002v81.935h-5.96v-81.935h-9.795v81.935h-6.401v-81.935H7.643
			c0,0-12.595,87.744-5.449,98.398c5.717,8.575,13.176,15.418,23.899,17.777l-8.237,123.181h0.035
			c-0.012,0.093-0.035,0.198-0.035,0.29c0,8.297,5.368,14.489,13.675,14.489c0.419,0,5.31,0,5.717,0
			c8.308,0,13.768-6.192,13.768-14.489c0-0.104-0.012-0.209-0.023-0.29h0.023l-8.4-123.123c0,0,0.139-0.046,0.337-0.116
			c10.596-2.416,18.021-9.225,23.725-17.719C73.812,201.826,61.229,114.082,61.229,114.082z"/>
		<path d="M202.058,361.234l-7.168-177.975h0.012c0,0-0.582-161-0.582-174.849c-0.104-9.545-10.515,0.366-14.93,9.469
			c-4.415,9.091-22.308,49.861-22.308,92.002c0,15.813-0.325,36.895-0.325,46.986c0,18.061,19.078,9.777,19.078,35.57l0,0
			l-8.714,168.796h0.035c-0.012,0.105-0.035,0.197-0.035,0.291c0,8.098,6.576,14.662,14.674,14.662c0.407,0,5.171,0,5.589,0
			c8.098,0,14.662-6.576,14.662-14.662c0-0.104-0.022-0.197-0.034-0.291H202.058z"/>
		<path d="M292.335,118.555c0-29.552-22.924-55.026-45.104-55.253c-0.012,0-0.023,0-0.035,0s-0.023,0-0.035,0
			c-22.18,0.227-45.104,25.689-45.104,55.253c0,27.089,11.688,47.974,27.78,55.061c1.662,0.813,9.249,3.311,9.249,3.311
			l-9.354,181.229h0.035c-0.012,0.093-0.035,0.197-0.035,0.302c0,8.087,6.564,14.64,14.663,14.64c0.406,0,5.182,0,5.589,0
			c8.098,0,14.662-6.564,14.662-14.64c0-0.116-0.023-0.221-0.035-0.302h0.035l-9.411-181.124c0,0,9.214-3.346,9.318-3.404
			C280.635,166.54,292.335,145.656,292.335,118.555z M235.416,165.518c-0.279,0.558-0.987,0.877-1.685,0.709
			c-0.175-0.035-1.093-0.296-2.475-1.034c-0.337-0.203-0.697-0.401-1.034-0.65l-0.593-0.407c-1.649-1.156-3.915-2.713-6.157-4.996
			c-7.041-6.867-8.993-13.838-11.526-21.047c-0.743-2.521-1.127-4.723-1.312-7.308c-0.081-2.248-0.035-4.461,0.174-6.884
			c0.5-4.642,1.58-8.784,2.486-11.897c1.058-3.561,2.579-6.414,3.625-8.203c1.267-2.068,2.149-3.474,2.149-3.474
			c0.418-0.627,1.302-0.831,2.021-0.436c0.768,0.453,1.15,1.179,0.941,1.876c-0.012,0.035-0.65,1.812-1.104,3.701
			c-0.616,1.783-0.953,4.311-1.383,7.697c-0.383,2.974-0.558,6.652-0.5,10.933c0,1.847,0.105,3.834,0.338,5.891
			c0.162,1.784,0.592,3.892,1.127,5.519c2.73,7.488,4.717,14.779,8.145,20.025c0.697,0.999,1.417,2.039,2.057,2.951
			c0.871,1.284,1.661,2.44,2.358,3.225c1.022,1.312,1.836,1.998,1.836,2.01C235.486,164.182,235.707,164.919,235.416,165.518z"/>
		<path d="M380.708,172.855c0-29.552-22.924-52.395-45.104-52.621v-0.012c-0.012,0-0.022,0-0.034,0s-0.023,0-0.035,0v0.012
			c-22.18,0.227-45.104,23.057-45.104,52.621c0,26.52,11.224,47.05,26.792,54.556h-0.081c1.662,0.825,9.911,5.38,9.911,5.38
			l-6.832,124.25h0.035c-0.012,0.104-0.035,0.197-0.035,0.302c0,8.087,4.043,14.744,12.153,14.744c0.407,0,5.17,0,5.589,0
			c8.098,0,12.351-6.46,12.351-14.559c0-0.104-0.012-0.209-0.023-0.29h0.023l-7.11-124.355c0,0,10.294-5.229,10.41-5.274h-0.07
			C369.309,220.253,380.708,199.595,380.708,172.855z M325.74,217.209c-0.14,0-0.93-0.058-2.139-0.384
			c-0.302-0.104-0.604-0.197-0.93-0.337l-0.546-0.221c-1.499-0.628-3.566-1.452-5.728-2.882c-6.762-4.182-9.539-9.364-12.781-14.604
			c-1.021-1.859-1.73-3.545-2.312-5.566c-0.465-1.754-0.802-3.508-1.069-5.484c-0.418-3.729-0.453-10.63-0.278-13.256
			c0.232-2.998,0.93-5.524,1.44-7.116c0.65-1.853,1.092-3.12,1.092-3.12c0.232-0.581,0.884-0.889,1.534-0.72
			c0.686,0.232,1.104,0.743,1.069,1.318c-0.012,0.035-0.209,1.557-0.232,3.114c-0.175,1.528,0,3.584,0.255,6.333
			c0.21,2.428,0.884,8.79,1.685,12.17c0.326,1.464,0.756,2.998,1.29,4.59c0.441,1.383,1.139,2.975,1.848,4.17
			c3.462,5.438,6.309,10.853,9.934,14.42c0.732,0.674,1.487,1.348,2.149,1.963c0.918,0.859,1.731,1.639,2.429,2.139
			c1.046,0.859,1.789,1.23,1.789,1.254c0.546,0.279,0.825,0.813,0.721,1.336C326.832,216.849,326.332,217.22,325.74,217.209z"/>
	</g>
</g>
<g>
</g>
<g>
</g>
<g>
</g>
<g>
</g>
<g>
</g>
<g>
</g>
<g>
</g>
<g>
</g>
<g>
</g>
<g>
</g>
<g>
</g>
<g>
</g>
<g>
</g>
<g>
</g>
<g>
</g>
</svg>
