<?xml version="1.0" encoding="iso-8859-1"?>
<!-- Generator: Adobe Illustrator 16.0.0, SVG Export Plug-In . SVG Version: 6.00 Build 0)  -->
<!DOCTYPE svg PUBLIC "-//W3C//DTD SVG 1.1//EN" "http://www.w3.org/Graphics/SVG/1.1/DTD/svg11.dtd">
<svg version="1.1" id="Capa_1" xmlns="http://www.w3.org/2000/svg" xmlns:xlink="http://www.w3.org/1999/xlink" x="0px" y="0px"
	 width="380.71px" height="380.709px" viewBox="0 0 380.71 380.709" style="enable-background:new 0 0 380.71 380.709;"
	 xml:space="preserve">
<g>
	<g>
		<path d="M58.164,204.378c5.862-5.855-2.562-93.506-2.562-93.506H49.38v79.105h-7.721v-79.105h-8.424v79.105h-2.962h-0.32h-2.951
			v-79.105h-8.423v79.105h-7.732v-79.105h-6.21c0,0-8.423,87.651-2.562,93.506c6.797,6.786,15.209,14.314,23.086,16.755
			l-0.418,29.116L8.906,349.392h0.035c-0.011,0.127-0.035,0.244-0.035,0.383c0,10.666,6.855,19.311,17.526,19.311
			c0.546,0,6.826,0,7.361,0c10.671,0,17.539-8.645,17.539-19.311c0-0.139-0.023-0.256-0.047-0.383h0.047L37.07,250.726l1.162-30.812
			C45.145,216.718,52.273,210.258,58.164,204.378z M40.148,348.148c0,5.299-3.369,9.574-9.742,9.574
			c-6.367,0-11.543-4.275-11.543-9.574c0-5.285,5.176-9.55,11.543-9.55C36.779,338.598,40.148,342.874,40.148,348.148z"/>
		<path d="M135.067,156.214c6.542-6.547-2.847-104.104-2.847-104.104h-6.907v88.064h-8.604V52.11h-9.388v88.064h-3.282h-0.372
			h-3.282V52.11h-9.388v88.064h-8.592V52.11h-6.919c0,0-9.376,97.557-2.847,104.104c7.546,7.529,16.858,15.871,25.602,18.607
			l0.238,53.33L80.837,354.26h0.046c-0.012,0.116-0.046,0.255-0.046,0.384c0,10.654,8.662,19.298,19.333,19.298
			c0.534,0,6.832,0,7.366,0c10.66,0,19.322-8.644,19.322-19.298c0-0.152-0.023-0.268-0.035-0.384h0.035l-16.063-125.622l0.32-54.398
			C119.376,171.028,128.009,163.255,135.067,156.214z M115.688,353.029c0,5.286-5.176,9.573-11.543,9.573
			c-6.379,0-11.549-4.275-11.549-9.573c0-5.287,5.17-9.562,11.549-9.562C110.512,343.466,115.688,347.742,115.688,353.029z"/>
		<path d="M203.095,349.392l-16.057-125.621l0.081-14.465l0.047-0.023c0,0,0-4.195,0.023-11.34l0.383-62.323h-0.25
			c0.14-56.56,0.297-125.505,0.297-128.41c0-4.938-20.455,33.107-20.455,33.107s-18.357,37.586-18.357,84.782
			c0,17.707-0.354,47.34-0.354,58.668c4.078,2.306,22.924,3.067,26.2,25.096l0.07,14.431l-17.632,126.098h0.046
			c-0.011,0.127-0.046,0.244-0.046,0.383c0,10.666,8.673,19.311,19.333,19.311c0.535,0,6.814,0,7.367,0
			c10.66,0,19.315-8.645,19.315-19.311c0-0.139-0.023-0.256-0.046-0.383H203.095z M180.387,357.722
			c-6.379,0-11.555-4.275-11.555-9.574c0-5.285,5.176-9.55,11.555-9.55c6.361,0,11.537,4.265,11.537,9.55
			C191.924,353.447,186.748,357.722,180.387,357.722z"/>
		<path d="M298.205,110.779c0-34.827-15.139-70.166-46.812-70.711v-0.023c-0.14,0-0.674,0-0.802,0v0.023
			c-31.672,0.546-47.497,33.77-47.497,68.603c0,36.36,36.843,47.247,41.933,59.679l0.243,54.957l-17.637,126.098h0.058
			c-0.012,0.115-0.058,0.256-0.058,0.383c0,10.654,8.667,19.311,19.333,19.311c0.547,0,6.832,0,7.366,0
			c10.666,0,19.322-8.656,19.322-19.311c0-0.15-0.023-0.268-0.035-0.383h0.035l-16.058-125.621l0.338-55.241
			C262.396,155.331,298.205,140.593,298.205,110.779z M262.489,348.148c0,5.299-5.182,9.574-11.549,9.574
			s-11.549-4.275-11.549-9.574c0-5.285,5.182-9.55,11.549-9.55S262.489,342.874,262.489,348.148z"/>
		<path d="M380.71,170.824c0-31.887-13.85-64.222-42.827-64.722c0,0,0-0.012,0-0.023c-0.139,0-0.615,0-0.755,0
			c0,0.012,0,0.023,0,0.023c-28.988,0.5-43.466,30.912-43.466,62.782c0,32.451,32.033,42.733,37.971,53.76l0.174,27.141
			l-15.836,99.154h0.046c-0.012,0.115-0.046,0.256-0.046,0.383c0,10.654,6.854,19.311,17.532,19.311c0.534,0,6.832,0,7.366,0
			c10.654,0,17.533-8.656,17.533-19.311c0-0.139-0.035-0.268-0.047-0.383h0.047l-14.269-98.666l0.244-27.814
			C350.117,210.676,380.71,197.187,380.71,170.824z M347.236,347.707c0,5.275-3.381,9.562-9.748,9.562
			c-6.379,0-11.537-4.287-11.537-9.562c0-5.286,5.158-9.573,11.537-9.573C343.844,338.157,347.236,342.42,347.236,347.707z"/>
	</g>
	<path d="M242.354,145.577c0-0.012-0.86-0.604-2.033-1.795c-0.778-0.714-1.673-1.771-2.685-2.962
		c-0.743-0.848-1.58-1.795-2.369-2.725c-3.951-4.845-6.693-11.909-10.179-19.061c-0.708-1.568-1.348-3.619-1.72-5.379
		c-0.43-2.01-0.755-3.974-0.94-5.815c-0.523-4.247-0.732-7.924-0.663-10.921c0.07-3.416,0.14-5.96,0.57-7.808
		c0.243-1.917,0.686-3.747,0.708-3.782c0.128-0.726-0.302-1.406-1.127-1.771c-0.767-0.314-1.626-0.012-1.964,0.662
		c0,0-0.731,1.487-1.789,3.677c-0.836,1.894-2.057,4.903-2.73,8.557c-0.568,3.189-1.231,7.424-1.231,12.101
		c0.047,2.422,0.244,4.624,0.546,6.861c0.453,2.55,1.081,4.711,2.08,7.128c3.276,6.901,5.961,13.634,13.664,19.717
		c2.463,2.045,4.891,3.34,6.669,4.316l0.615,0.349c0.372,0.209,0.732,0.366,1.093,0.534c1.452,0.581,2.404,0.75,2.579,0.761
		c0.709,0.093,1.371-0.285,1.615-0.883C243.261,146.71,242.982,145.995,242.354,145.577z"/>
	<path d="M328.704,200.266c0.012-0.023-0.743-0.441-1.742-1.325c-0.663-0.534-1.452-1.336-2.324-2.242
		c-0.65-0.639-1.348-1.354-2.057-2.057c-3.474-3.724-6.088-9.243-9.306-14.825c-0.674-1.226-1.29-2.829-1.697-4.235
		c-0.441-1.621-0.812-3.178-1.057-4.642c-0.686-3.427-1.093-9.8-1.197-12.229c-0.127-2.771-0.221-4.828,0.023-6.326
		c0.081-1.575,0.337-3.097,0.36-3.12c0.058-0.569-0.349-1.122-0.999-1.371c-0.65-0.204-1.324,0.099-1.568,0.656
		c0,0-0.512,1.237-1.244,3.067c-0.568,1.574-1.371,4.061-1.73,7.047c-0.291,2.643-0.547,9.516-0.303,13.274
		c0.198,1.963,0.465,3.724,0.849,5.524c0.499,2.033,1.115,3.735,2.068,5.635c3.032,5.379,5.565,10.672,12.153,15.145
		c2.103,1.51,4.124,2.428,5.611,3.137l0.523,0.244c0.324,0.151,0.615,0.244,0.917,0.372c1.209,0.359,1.976,0.465,2.115,0.477
		c0.581,0.034,1.092-0.326,1.243-0.803C329.482,201.115,329.239,200.568,328.704,200.266z"/>
</g>
<g>
</g>
<g>
</g>
<g>
</g>
<g>
</g>
<g>
</g>
<g>
</g>
<g>
</g>
<g>
</g>
<g>
</g>
<g>
</g>
<g>
</g>
<g>
</g>
<g>
</g>
<g>
</g>
<g>
</g>
</svg>
