<?xml version="1.0" encoding="iso-8859-1"?>
<!-- Generator: Adobe Illustrator 16.0.0, SVG Export Plug-In . SVG Version: 6.00 Build 0)  -->
<!DOCTYPE svg PUBLIC "-//W3C//DTD SVG 1.1//EN" "http://www.w3.org/Graphics/SVG/1.1/DTD/svg11.dtd">
<svg version="1.1" id="Capa_1" xmlns="http://www.w3.org/2000/svg" xmlns:xlink="http://www.w3.org/1999/xlink" x="0px" y="0px"
	 width="380.723px" height="380.723px" viewBox="0 0 380.723 380.723" style="enable-background:new 0 0 380.723 380.723;"
	 xml:space="preserve">
<g>
	<g>
		<path d="M126.611,54.312h-4.95l-1.145,84.317h-8.232l-1.272-84.317h-6.309l-1.389,84.317h-3.154h-0.343h-3.154L95.2,54.312h-6.698
			l-0.819,84.317h-8.58V54.312h-5.507c0,0-6.019,82.853-3.224,94.907c2.294,9.922,14.181,19.356,23.737,22.436l-3.927,158.357
			l-6.878,19.914c1.214,1.068,2.736,2.254,3.95,3.195c1.795,1.394,3.846,2.963,5.699,4.658c2.904,2.615,7.006,5.402,8.458,7.227
			c1.261-1.939,5.048-4.891,7.518-7.562c2.051-2.208,4.252-4.113,6.198-5.775c0.488-0.406,1.005-0.859,1.528-1.312l-6.878-20.054
			l-2.881-158.636c9.422-2.521,20.751-9.597,23.371-20.054C133.571,138.449,126.611,54.312,126.611,54.312z"/>
		<path d="M117.827,353.899c-1.923,1.662-4.124,3.545-6.1,5.67c-3.904,4.219-8.568,9.342-8.592,9.4l-1.395,2.428l-1.604-2.289
			c-0.035-0.046-5.106-4.798-9.707-8.969c-1.807-1.662-3.759-3.172-5.652-4.625c-1.156-0.871-2.202-1.707-3.155-2.486l-2.149,6.263
			c0,0,7.791,6.46,13.634,12.618c3.213,3.404,7.134,8.249,8.041,8.203c0.941-0.047,4.804-4.672,7.808-8.285
			c5.007-6.064,11.41-12.408,11.41-12.408l-2.039-5.961C118.164,353.609,118.008,353.749,117.827,353.899z"/>
	</g>
	<g>
		<path d="M194.354,353.899c-1.929,1.662-4.13,3.545-6.1,5.67c-3.904,4.219-8.568,9.342-8.592,9.4l-1.383,2.428l-1.604-2.289
			c-0.035-0.046-5.118-4.798-9.719-8.969c-1.812-1.65-3.765-3.16-5.664-4.613c-1.145-0.871-2.202-1.707-3.143-2.486l-2.167,6.263
			c0,0,7.808,6.46,13.634,12.618c3.212,3.404,7.152,8.249,8.046,8.203c0.94-0.047,4.815-4.66,7.812-8.285
			c5.014-6.064,11.398-12.408,11.398-12.408l-2.033-5.961C194.686,353.609,194.534,353.749,194.354,353.899z"/>
		<path d="M186.302,330.279l-3.015-151.316c0.11-55.038,0.337-174.861,0.337-178.498c0-4.723-19.583,31.696-19.583,31.696
			s-17.585,35.977-17.585,81.174c0,16.94-0.331,45.33-0.331,56.159c4.27,2.422,24.161,3.125,23.777,38.034l0.11-0.012
			l-3.317,122.473l-6.866,19.914c1.202,1.068,2.725,2.242,3.95,3.195c1.795,1.395,3.84,2.963,5.699,4.658
			c2.898,2.615,7.006,5.403,8.458,7.228c1.261-1.952,5.043-4.892,7.518-7.563c2.045-2.208,4.258-4.113,6.198-5.787
			c0.488-0.395,1.011-0.848,1.522-1.301L186.302,330.279z"/>
	</g>
	<g>
		<path d="M52.955,118.273h-4.595l-1.058,78.368h-7.65l-1.191-78.368h-5.861l-1.29,78.368h-2.922H28.05h-2.928l-1.342-78.368h-6.233
			l-0.773,78.368H8.815v-78.368h-5.13c0,0-5.595,77.009-2.998,88.209c2.126,9.144,13.024,17.858,21.878,20.798L18.854,330
			l-6.878,19.914c1.214,1.068,2.725,2.254,3.95,3.184c1.801,1.395,3.846,2.975,5.699,4.658c2.904,2.627,7.012,5.415,8.458,7.239
			c1.261-1.952,5.049-4.892,7.512-7.563c2.057-2.22,4.258-4.113,6.21-5.787c0.477-0.395,0.999-0.848,1.522-1.301l-6.878-20.054
			l-2.725-103.231c8.534-2.592,18.311-9.028,20.64-18.347C59.426,196.466,52.955,118.273,52.955,118.273z"/>
		<path d="M46.506,353.899c-1.94,1.662-4.13,3.545-6.105,5.67c-3.904,4.219-8.568,9.342-8.604,9.389l-1.377,2.439l-1.598-2.289
			c-0.035-0.046-5.112-4.81-9.719-8.969c-1.807-1.662-3.759-3.172-5.652-4.637c-1.15-0.883-2.202-1.695-3.137-2.475l-2.167,6.251
			c0,0,7.79,6.472,13.623,12.63c3.224,3.404,7.151,8.249,8.04,8.203c0.953-0.047,4.822-4.672,7.819-8.285
			c5.019-6.064,11.41-12.42,11.41-12.42l-2.033-5.949C46.837,353.609,46.681,353.749,46.506,353.899z"/>
	</g>
	<g>
		<path d="M262.469,353.899c-1.94,1.662-4.125,3.545-6.101,5.67c-3.903,4.219-8.562,9.342-8.586,9.389l-1.383,2.439l-1.614-2.289
			c-0.035-0.046-5.113-4.81-9.714-8.969c-1.812-1.65-3.765-3.16-5.658-4.625c-1.15-0.871-2.208-1.695-3.148-2.475l-2.161,6.251
			c0,0,7.796,6.472,13.617,12.63c3.229,3.404,7.157,8.249,8.052,8.203c0.94-0.047,4.821-4.66,7.819-8.285
			c5.008-6.064,11.397-12.42,11.397-12.42l-2.033-5.949C262.794,353.609,262.643,353.749,262.469,353.899z"/>
		<path d="M296.104,124.088c0-37.714-16.382-75.963-50.669-76.556c0-0.011,0-0.023,0-0.041c-0.151,0-0.744,0-0.883,0
			c0,0.018,0,0.029,0,0.041c-34.275,0.593-51.425,36.547-51.425,74.261c0,39.039,39.271,50.948,45.267,64.28l-3.578,143.915
			l-6.855,19.914c1.196,1.068,2.719,2.242,3.938,3.184c1.801,1.395,3.834,2.975,5.693,4.658c2.904,2.627,7.006,5.415,8.458,7.239
			c1.267-1.952,5.043-4.892,7.518-7.563c2.045-2.22,4.252-4.113,6.204-5.787c0.477-0.395,0.999-0.848,1.522-1.301l-6.879-20.054
			l-2.521-138.715c0.058-0.686,0.116-1.371,0.116-2.132C252.012,174.368,296.104,158.508,296.104,124.088z M235.688,163.353
			c-0.163-0.011-1.127-0.133-2.603-0.645c-0.36-0.151-0.755-0.296-1.116-0.488l-0.65-0.308c-1.801-0.877-4.287-2.08-6.843-3.997
			c-8.018-5.71-11.003-12.304-14.604-19.049c-1.127-2.37-1.848-4.496-2.417-7.018c-0.431-2.225-0.721-4.403-0.884-6.832
			c-0.221-4.665,0.232-8.923,0.663-12.147c0.499-3.677,1.568-6.721,2.312-8.662c0.953-2.237,1.615-3.759,1.615-3.759
			c0.303-0.691,1.15-1.022,1.94-0.75c0.813,0.32,1.29,0.988,1.196,1.726c-0.012,0.035-0.359,1.882-0.522,3.805
			c-0.349,1.894-0.29,4.427-0.186,7.842c0.081,2.998,0.453,6.652,1.185,10.875c0.279,1.818,0.686,3.77,1.221,5.769
			c0.441,1.737,1.196,3.747,1.963,5.269c3.846,6.989,6.901,13.896,11.107,18.549c0.837,0.883,1.72,1.795,2.486,2.608
			c1.081,1.139,2.01,2.161,2.823,2.829c1.231,1.145,2.126,1.702,2.126,1.713c0.64,0.384,0.953,1.069,0.756,1.714
			C237.047,162.993,236.408,163.423,235.688,163.353z"/>
	</g>
	<g>
		<path d="M355.639,354.458c-1.94,1.673-4.137,3.543-6.1,5.693c-3.904,4.205-8.563,9.318-8.609,9.376l-1.371,2.429l-1.615-2.289
			c-0.035-0.047-5.101-4.799-9.701-8.971c-1.812-1.649-3.765-3.16-5.67-4.623c-1.15-0.872-2.208-1.697-3.149-2.475l-2.161,6.25
			c0,0,7.797,6.472,13.629,12.641c3.23,3.393,7.157,8.238,8.04,8.191c0.953-0.046,4.822-4.658,7.819-8.283
			c5.008-6.065,11.41-12.421,11.41-12.421l-2.045-5.937C355.964,354.178,355.801,354.318,355.639,354.458z"/>
		<path d="M380.723,182.245c0-31.492-13.687-63.45-42.326-63.949v-0.012c-0.128-0.011-0.604-0.011-0.732-0.011v0.023
			c-28.64,0.5-42.954,30.528-42.954,62.032c0,30.894,29.442,41.456,36.797,51.936l-3.544,98.293l-6.867,19.915
			c1.209,1.069,2.73,2.254,3.951,3.194c1.801,1.383,3.846,2.975,5.704,4.648c2.894,2.625,6.995,5.414,8.447,7.25
			c1.267-1.952,5.054-4.903,7.528-7.576c2.045-2.219,4.253-4.112,6.205-5.773c0.477-0.407,0.999-0.86,1.51-1.313l-6.866-20.042
			l-2.591-97.934C351.072,221.354,380.723,208.039,380.723,182.245z M329.996,214.116c-0.14,0-0.906-0.059-2.138-0.384
			c-0.29-0.104-0.604-0.198-0.93-0.325l-0.534-0.232c-1.511-0.627-3.579-1.453-5.729-2.882c-6.762-4.183-9.539-9.364-12.78-14.604
			c-1.022-1.859-1.731-3.543-2.312-5.554c-0.454-1.76-0.791-3.509-1.081-5.484c-0.407-3.735-0.441-10.637-0.279-13.269
			c0.244-2.998,0.93-5.519,1.441-7.117c0.662-1.853,1.104-3.114,1.104-3.114c0.232-0.581,0.871-0.895,1.534-0.726
			c0.674,0.238,1.104,0.75,1.068,1.319c-0.023,0.035-0.221,1.562-0.244,3.12c-0.174,1.522,0,3.579,0.256,6.326
			c0.209,2.428,0.883,8.795,1.696,12.176c0.325,1.464,0.755,2.998,1.278,4.589c0.441,1.383,1.15,2.969,1.858,4.177
			c3.463,5.438,6.298,10.852,9.935,14.407c0.731,0.674,1.475,1.348,2.149,1.964c0.917,0.86,1.731,1.638,2.416,2.138
			c1.046,0.859,1.802,1.243,1.802,1.267c0.546,0.267,0.812,0.802,0.708,1.325C331.088,213.744,330.589,214.127,329.996,214.116z"/>
	</g>
</g>
<g>
</g>
<g>
</g>
<g>
</g>
<g>
</g>
<g>
</g>
<g>
</g>
<g>
</g>
<g>
</g>
<g>
</g>
<g>
</g>
<g>
</g>
<g>
</g>
<g>
</g>
<g>
</g>
<g>
</g>
</svg>
