<?xml version="1.0" encoding="iso-8859-1"?>
<!-- Generator: Adobe Illustrator 16.0.0, SVG Export Plug-In . SVG Version: 6.00 Build 0)  -->
<!DOCTYPE svg PUBLIC "-//W3C//DTD SVG 1.1//EN" "http://www.w3.org/Graphics/SVG/1.1/DTD/svg11.dtd">
<svg version="1.1" id="Capa_1" xmlns="http://www.w3.org/2000/svg" xmlns:xlink="http://www.w3.org/1999/xlink" x="0px" y="0px"
	 width="380.679px" height="380.679px" viewBox="0 0 380.679 380.679" style="enable-background:new 0 0 380.679 380.679;"
	 xml:space="preserve">
<g>
	<path d="M217.66,185.677c0,0,116.732-164.945,126.817-179.096c6.855-9.835-11.015-7.279-22.122-1.22
		c-11.142,6.076-59.139,34.705-89.858,77.758c-11.515,16.156-27.211,37.453-34.548,47.782
		c-13.146,18.451,12.333,23.876-6.472,50.245l-6.786,8.54l-22.104-25.532c0,0,0.093-0.163,0.25-0.378
		c8.424-10.317,12.055-23.725,11.172-36.192c-1.139-15.656-84.282-97.335-84.282-97.335l-6.076,4.734l66.586,85.52l-7.837,6.128
		L75.784,41.111l-8.888,6.925l66.592,85.519l-7.843,6.117L59.03,54.147l-8.552,6.687l66.587,85.508l-7.86,6.129L42.613,66.939
		l-7.936,6.164c0,0,58.819,100.618,73.726,105.567c11.985,3.951,25.997,3.678,38.144-2.144l22.749,32.527l-44.784,56.408
		l-5.908-6.809c0,0,0.058-0.081,0.127-0.197c4.474-5.496,6.402-12.629,5.938-19.229c-0.604-8.319-44.808-51.768-44.808-51.768
		l-3.224,2.498l35.408,45.481l-4.188,3.253L72.45,193.217l-4.735,3.695l35.408,45.476l-4.154,3.23l-35.402-45.453l-4.572,3.556
		l35.408,45.452l-4.188,3.253L54.807,206.95l-4.212,3.277c0,0,31.278,53.492,39.213,56.141c6.378,2.092,13.814,1.93,20.274-1.139
		l6.843,9.783l-57.35,72.222l0.029,0.023c-0.076,0.093-0.18,0.163-0.25,0.255c-5.902,8.273-3.974,19.775,4.305,25.678
		c0.407,0.279,5.292,3.765,5.699,4.066c8.278,5.902,19.774,3.974,25.66-4.287c0.087-0.104,0.133-0.221,0.192-0.325l0.023,0.034
		l43.5-66.47l40.735,58.244h0.011c0.023,0.047,0.07,0.104,0.111,0.175c3.305,4.24,9.48,5.02,13.715,1.707
		c0.146-0.115,1.104-0.859,1.895-1.463c0.047-0.023,0.081-0.07,0.128-0.094c0.453-0.371,0.848-0.686,0.918-0.743
		c0.249-0.187,0.366-0.465,0.581-0.674c0.418-0.419,0.895-0.697,1.236-1.174c0.059-0.046,0.07-0.116,0.1-0.175l0.012,0.023
		l37.737-57.697l41.095,58.778l0.023-0.023c0.07,0.116,0.128,0.221,0.221,0.337c6.228,7.994,17.8,9.435,25.794,3.184
		c0.43-0.302,5.158-3.974,5.554-4.299c8.017-6.251,9.457-17.8,3.229-25.816c-0.104-0.117-0.186-0.197-0.255-0.279h0.022
		l-55.003-63.508l6.658-10.154l0.012,0.023c0,0,62.066-87.692,67.435-95.227c3.648-5.223-5.833-3.863-11.759-0.656
		c-5.948,3.242-31.451,18.468-47.787,41.344c-6.123,8.621-14.465,19.938-18.369,25.422c-6.982,9.807,6.553,12.699-3.451,26.724
		l-1.685,2.185l-45.708-52.749l15.697-23.981L217.66,185.677z M225.805,289.907l-38.342,48.288l-39.654-45.824l38.539-58.907
		L225.805,289.907z"/>
</g>
<g>
</g>
<g>
</g>
<g>
</g>
<g>
</g>
<g>
</g>
<g>
</g>
<g>
</g>
<g>
</g>
<g>
</g>
<g>
</g>
<g>
</g>
<g>
</g>
<g>
</g>
<g>
</g>
<g>
</g>
</svg>
