<?xml version="1.0" encoding="iso-8859-1"?>
<!-- Generator: Adobe Illustrator 16.0.0, SVG Export Plug-In . SVG Version: 6.00 Build 0)  -->
<!DOCTYPE svg PUBLIC "-//W3C//DTD SVG 1.1//EN" "http://www.w3.org/Graphics/SVG/1.1/DTD/svg11.dtd">
<svg version="1.1" id="Capa_1" xmlns="http://www.w3.org/2000/svg" xmlns:xlink="http://www.w3.org/1999/xlink" x="0px" y="0px"
	 width="380.736px" height="380.736px" viewBox="0 0 380.736 380.736" style="enable-background:new 0 0 380.736 380.736;"
	 xml:space="preserve">
<g>
	<g>
		<path d="M293.317,364.791c4.973,0.221,11.27-0.418,14.197,0.187c-0.359-2.939,0.953-8.889,1.209-13.536
			c0.209-3.823,0.802-7.494,1.359-10.724c0.15-0.791,0.268-1.674,0.418-2.533l-23.086-14.012l-33.393-38.633l23.18-31.592
			c26.781-34.867,85.083-110.801,86.85-113.113c2.301-2.998-27.815,10.625-27.815,10.625s-28.604,14.303-50.564,42.983
			c-8.202,10.742-22.203,28.6-27.467,35.466c1.511,3.613,13.827,13.698-3.369,35.669l0.081,0.059l-8.736,10.805l-52.552-60.835
			l25.247-34.403c42.745-55.66,135.776-176.819,138.6-180.52c3.66-4.77-44.384,16.94-44.384,16.94s-45.661,22.842-80.68,68.614
			c-13.106,17.132-35.438,45.65-43.826,56.606c2.452,5.774,22.053,21.878-5.379,56.932l0.122,0.082l-1.586,1.975L155.2,171.09
			c7.186-10.161,12.508-26.316,6.535-38.702c-7.5-15.61-82.951-92.375-82.951-92.375l-4.892,4.038l67.685,83.556l-8.087,6.71
			L63.47,52.736l-6.176,5.153l67.424,83.759l-3.091,2.556l-0.331,0.273l-3.097,2.579l-70.217-81.4l-6.57,5.449l67.987,83.294
			l-8.389,6.994L32.216,78.768l-5.415,4.496c0,0,61.689,86.101,74.267,95.622c10.353,7.848,29.686,7.389,41.572,2.603l27.466,34.711
			l-49.124,60.73l-23.969-27.757c4.485-6.355,7.837-16.487,4.09-24.237c-4.7-9.794-51.982-57.89-51.982-57.89l-3.033,2.533
			l42.391,52.359l-5.065,4.194l-43.878-51.116l-3.869,3.224L77.9,230.723l-1.923,1.604l-0.204,0.174l-1.94,1.615l-44.006-51.006
			l-4.107,3.422l42.605,52.208l-5.257,4.368L19.964,191.33l-3.404,2.806c0,0,38.667,53.968,46.533,59.917
			c6.483,4.938,18.619,4.636,26.055,1.65l24.237,30.614l-28.31,34.983l-22.366,14.838c0.407,2.021,1,4.403,1.522,6.309
			c0.75,2.801,1.609,5.973,2.167,9.109c0.918,4.891,2.916,10.898,2.975,13.885c2.771-0.988,8.911-1.059,13.466-1.824
			c3.776-0.662,7.5-0.872,10.771-1.058c0.796-0.047,1.679-0.104,2.544-0.175l8.569-25.596l23.377-31.87l39.585,50.007l0.987,2.58
			l0,0l0,0l4.508,11.885c0.39,3.707,2.237,9.098,2.829,9.481c0.36,0.255,2.062-0.012,4.119-0.396
			c2.963,0.082,7.018,0.256,10.788,0.709c3.724,0.453,8.604,1.418,9.161,0.93c0.523-0.512,0.546-5.333,0.546-9.074
			c0-1.592,0.023-3.195,0.093-4.74l4.973-14.849l34.38-46.858l27.908,35.274l9.516,25.143c2.045,0.058,4.509-0.046,6.46-0.104
			C286.833,364.791,290.133,364.651,293.317,364.791z M193.355,341.762l-9.097,6.03l-4.404-2.685l-43.936-50.854l46.149-62.904
			l49.739,62.857L193.355,341.762z"/>
		<path d="M314.555,340.729c-0.522,3.206-1.15,6.843-1.348,10.525c-0.395,7.332-0.755,16.139-0.755,16.209l0.616,3.531l-3.439-0.941
			c-0.082-0.011-8.924-0.545-16.848-0.871c-3.102-0.115-6.25-0.012-9.295,0.117c-1.858,0.058-3.555,0.104-5.123,0.115l3.009,7.89
			c0,0,12.908-0.023,23.644,1.255c5.926,0.731,13.723,2.254,14.582,1.486c0.871-0.824,0.895-8.492,0.883-14.488
			c-0.023-10.038,1.046-21.482,1.046-21.482l-6.832-4.172C314.649,340.182,314.579,340.438,314.555,340.729z"/>
		<path d="M83.995,367.952c-7.209,1.242-15.906,2.834-15.976,2.846l-3.276,1.395l0.168-3.556c0-0.069-1.452-8.83-2.904-16.614
			c-0.558-3.067-1.365-6.123-2.173-9.039c-0.465-1.789-0.895-3.439-1.237-4.962l-7.035,4.694c0,0,2.904,12.571,4.02,23.342
			c0.61,5.914,0.86,13.861,1.812,14.523c0.988,0.674,8.458-0.988,14.326-2.336c9.754-2.266,21.152-3.717,21.152-3.717l2.544-7.646
			c-0.285,0.035-0.546,0.047-0.831,0.047C91.337,367.102,87.648,367.324,83.995,367.952z"/>
	</g>
</g>
<g>
</g>
<g>
</g>
<g>
</g>
<g>
</g>
<g>
</g>
<g>
</g>
<g>
</g>
<g>
</g>
<g>
</g>
<g>
</g>
<g>
</g>
<g>
</g>
<g>
</g>
<g>
</g>
<g>
</g>
</svg>
