<?xml version="1.0" encoding="iso-8859-1"?>
<!-- Generator: Adobe Illustrator 16.0.0, SVG Export Plug-In . SVG Version: 6.00 Build 0)  -->
<!DOCTYPE svg PUBLIC "-//W3C//DTD SVG 1.1//EN" "http://www.w3.org/Graphics/SVG/1.1/DTD/svg11.dtd">
<svg version="1.1" id="Capa_1" xmlns="http://www.w3.org/2000/svg" xmlns:xlink="http://www.w3.org/1999/xlink" x="0px" y="0px"
	 width="380.719px" height="380.72px" viewBox="0 0 380.719 380.72" style="enable-background:new 0 0 380.719 380.72;"
	 xml:space="preserve">
<g>
	<path d="M50.505,98.049h-4.38l-1,74.754h-7.302l-1.133-74.754h-5.606l-1.226,74.754h-2.806h-0.296h-2.783l-1.301-74.754h-5.931
		l-0.75,74.754H8.411V98.049H3.508c0,0-5.327,73.459-2.852,84.131c2.103,9.039,13.158,17.602,21.732,20.112l-0.262,31.394
		l-7.163,40.7v67.923h0.041c-0.018,0.093-0.041,0.187-0.041,0.29c0,7.878,3.265,14.257,11.16,14.257c0.395,0,5.048,0,5.438,0
		c7.889,0,11.16-6.379,11.16-14.257c0-0.115-0.023-0.209-0.035-0.29h0.035V275.28l-9.539-41.443l0.058-31.789
		c8.308-2.289,18.23-8.528,20.536-17.73C56.692,172.647,50.505,98.049,50.505,98.049z"/>
	<path d="M125.875,37.423h-5.321l-1.214,90.661h-8.859l-1.359-90.661h-6.779l-1.511,90.661h-3.393h-0.366H93.68l-1.557-90.661
		h-7.209l-0.883,90.661h-9.208V37.423h-5.937c0,0-6.483,89.086-3.474,102.03c2.498,10.771,15.476,21.012,25.805,24.236
		l-0.354,56.263l-7.047,48.775v77.311h0.035c-0.012,0.094-0.035,0.174-0.035,0.268c0,7.877,3.271,14.279,11.16,14.279
		c0.406,0,5.06,0,5.449,0c7.889,0,11.159-6.402,11.159-14.279c0-0.104-0.011-0.197-0.035-0.268h0.035v-76.404l-8.377-49.275
		l0.064-56.385c10.387-2.353,23.615-10.149,26.555-21.924C133.37,127.903,125.875,37.423,125.875,37.423z"/>
	<path d="M184.661,266.556l-8.389-49.275l0.046-16.58l0.134,0.012c0,0,0-175.901,0-180.194c0-4.288-17.788,28.803-17.788,28.803
		S142.7,81.992,142.7,123.035c0,15.395-0.313,41.177-0.313,51.006c3.642,2.068,19.658,1.296,21.738,21.663l-0.18,21.17
		l-7.041,48.764v77.299h0.035c-0.011,0.104-0.035,0.197-0.035,0.29c0,7.878,3.259,14.268,11.16,14.268c0.396,0,5.043,0,5.449,0
		c7.878,0,11.16-6.39,11.16-14.268c0-0.116-0.023-0.209-0.035-0.29h0.035v-76.381H184.661z"/>
	<path d="M244.108,158.681c0-6.506,47.52-14.703,47.52-55.136c0-31.812-20.611-68.765-53.887-69.265c0-0.012,0-0.023,0-0.023
		c-0.14,0-0.721,0-0.849,0c0,0,0,0.012,0,0.023c-33.311,0.5-54.637,35.524-54.637,67.342c0,47.421,49.396,50.553,49.396,57.059
		c0,1.122,0.14,2.08,0.303,2.998l-0.372,54.997l-7.041,48.775v77.299h0.035c-0.023,0.093-0.035,0.187-0.035,0.29
		c0,7.867,3.276,14.257,11.154,14.257c0.418,0,5.042,0,5.438,0c7.9,0,11.165-6.39,11.165-14.257c0-0.115-0.012-0.209-0.022-0.29
		h0.022v-76.393l-8.365-49.286l0.069-56.583C244.061,159.907,244.108,159.314,244.108,158.681z M225.936,142.688
		c-0.163,0.011-1.139-0.012-2.649-0.354c-0.396-0.104-0.767-0.227-1.185-0.354l-0.674-0.255c-1.883-0.686-4.485-1.604-7.228-3.242
		c-8.562-4.833-12.229-11.079-16.521-17.399c-1.359-2.237-2.301-4.27-3.143-6.722c-0.669-2.149-1.18-4.293-1.598-6.698
		c-0.727-4.606-0.738-8.888-0.64-12.147c0.105-3.712,0.843-6.855,1.389-8.854c0.715-2.318,1.203-3.898,1.203-3.898
		c0.249-0.727,1.051-1.156,1.847-0.953c0.854,0.25,1.4,0.843,1.377,1.58c-0.012,0.047-0.163,1.929-0.116,3.857
		c-0.145,1.876,0.191,4.416,0.639,7.791c0.396,2.975,1.156,6.582,2.312,10.695c0.477,1.784,1.092,3.689,1.83,5.618
		c0.615,1.69,1.568,3.619,2.498,5.042c4.578,6.536,8.33,13.088,12.99,17.266c0.94,0.784,1.904,1.603,2.753,2.33
		c1.174,1.017,2.242,1.929,3.103,2.515c1.336,1.011,2.277,1.464,2.277,1.476c0.697,0.308,1.08,0.958,0.952,1.615
		C227.26,142.188,226.657,142.677,225.936,142.688z"/>
	<path d="M345.109,202.315c0-11.549,35.61-23.871,35.61-50.228c0-28.873-13.663-58.175-42.257-58.628v-0.012
		c-0.128,0-0.615,0-0.755,0v0.012c-28.582,0.453-42.873,28.007-42.873,56.868c0,32.375,39.398,40.177,39.398,51.593l-0.243,28.454
		l-7.157,40.689v67.934h0.023c0,0.094-0.023,0.186-0.023,0.291c0,7.865,3.253,14.256,11.154,14.256c0.395,0,5.042,0,5.438,0
		c7.877,0,11.153-6.391,11.153-14.256c0-0.105-0.012-0.197-0.023-0.291h0.023v-67.016l-9.539-41.456L345.109,202.315
		L345.109,202.315z M333.688,181.773c-0.129,0.012-0.86,0.023-2.011-0.18c-0.29-0.07-0.581-0.127-0.895-0.238l-0.522-0.163
		c-1.453-0.441-3.428-1.022-5.577-2.178c-6.657-3.282-9.679-7.854-13.164-12.444c-1.115-1.656-1.905-3.154-2.638-4.961
		c-0.569-1.598-1.045-3.189-1.476-4.996c-0.72-3.439-0.883-6.675-0.964-9.138c-0.047-2.8,0.383-5.211,0.731-6.733
		c0.419-1.778,0.732-2.992,0.732-2.992c0.174-0.558,0.755-0.9,1.359-0.796c0.662,0.168,1.092,0.598,1.104,1.156
		c0,0.023-0.046,1.464,0.058,2.905c-0.022,1.429,0.314,3.317,0.791,5.85c0.418,2.236,1.139,4.926,2.184,7.988
		c0.441,1.33,0.965,2.719,1.627,4.16c0.512,1.237,1.301,2.667,2.092,3.724c3.683,4.746,6.785,9.533,10.479,12.519
		c0.743,0.558,1.499,1.127,2.173,1.638c0.93,0.738,1.754,1.371,2.428,1.778c1.046,0.697,1.79,0.999,1.79,1.011
		c0.534,0.209,0.836,0.686,0.767,1.185C334.664,181.344,334.233,181.727,333.688,181.773z"/>
</g>
<g>
</g>
<g>
</g>
<g>
</g>
<g>
</g>
<g>
</g>
<g>
</g>
<g>
</g>
<g>
</g>
<g>
</g>
<g>
</g>
<g>
</g>
<g>
</g>
<g>
</g>
<g>
</g>
<g>
</g>
</svg>
