<?xml version="1.0" encoding="iso-8859-1"?>
<!-- Generator: Adobe Illustrator 16.0.0, SVG Export Plug-In . SVG Version: 6.00 Build 0)  -->
<!DOCTYPE svg PUBLIC "-//W3C//DTD SVG 1.1//EN" "http://www.w3.org/Graphics/SVG/1.1/DTD/svg11.dtd">
<svg version="1.1" id="Capa_1" xmlns="http://www.w3.org/2000/svg" xmlns:xlink="http://www.w3.org/1999/xlink" x="0px" y="0px"
	 width="380.721px" height="380.722px" viewBox="0 0 380.721 380.722" style="enable-background:new 0 0 380.721 380.722;"
	 xml:space="preserve">
<g>
	<path d="M193.149,342.995c0,0,0-96.063-0.047-105.637c0.047-8.738-0.244-218.118-0.244-218.118l-4.758-0.023
		c0,0-38.975,22-38.963,185.12c29.941,8.227,17.335,40.934,15.069,45.104c0,8.308,0.634,93.612,0.634,93.612l0.093-0.035
		c-0.035,0.093-0.059,0.162-0.047,0.278c-0.046,7.831,6.31,14.175,14.123,14.128c7.784,0.023,14.163-6.344,14.14-14.128
		c0.023-0.069,0.023-0.186-0.023-0.243L193.149,342.995z"/>
	<path d="M134.37,30.818l-8.47-0.012l2.521,88.732l-10.184-0.012V30.795l-7.437,0.023v89.278h-8.435l-0.012-89.278h-8.197
		l-0.012,89.267h-9.992l2.841-89.301h-7.721l-9.399,75.55c0,0-0.238,2.829-0.238,3.91c0,11.648,5.392,22.058,13.838,28.843
		c27.839,31.429,8.836,63.461,8.836,71.084c0.029,8.423,0.029,138.156,0.029,138.156h0.012c0,0.094-0.029,0.175-0.041,0.268
		c0.012,7.971,6.46,14.385,14.401,14.408c7.936,0,14.407-6.461,14.407-14.408c-0.011-0.115-0.052-0.197-0.052-0.256h0.029
		c0,0,0.012-128.131,0.012-137.901c-0.012-8.842-16.086-45.69,10.753-73.087c0.023-0.052,0.082-0.134,0.133-0.168
		c6.542-6.199,10.858-14.756,11.515-24.364c0.046-0.691,0.023-2.37,0.023-2.37L134.37,30.818z"/>
	<path d="M254.762,17.742c0-0.012,0-0.023,0-0.023c-0.15,0-0.662,0-0.801,0c0,0,0,0.012,0,0.023
		c-31.162,0.488-48.74,30.348-48.74,62.77c-0.012,32.718,19.67,56.054,36.819,61.225c9.388,13.175,3.206,44.296-3.439,62.229
		c0,8.586,0,140.074,0,140.074h0.023c0,0.094-0.023,0.209-0.023,0.291c0,8.052,6.53,14.582,14.569,14.582
		c0.419,0,1.976-0.012,2.371,0c8.062-0.012,14.593-6.53,14.593-14.582c0-0.104-0.012-0.197-0.035-0.303l0.035,0.012
		c0,0,0-131.5,0-140.074c-6.646-17.945-12.815-49.054-3.439-62.218c17.149-5.2,36.809-28.518,36.831-61.236
		C303.503,48.09,285.936,18.229,254.762,17.742z M238.508,129.066c-1.94-1.487-4.427-3.886-7.029-7.052
		c-2.66-3.155-5.391-7.07-7.959-11.555c-1.255-2.26-2.439-4.688-3.532-7.221c-1.068-2.667-1.917-5.223-2.509-8.267
		c-1.093-5.821-0.896-11.41-0.291-16.54c0.569-5.153,1.661-9.806,2.881-13.704c1.197-3.927,2.545-7.093,3.684-9.225
		c1.092-2.196,1.998-3.218,1.998-3.218s-0.186,1.376-0.278,3.706c-0.093,2.301-0.187,5.629-0.313,9.603
		c-0.094,7.796-0.732,18.433,0.731,27.867c0.268,2.208,1.058,4.711,1.812,6.948c0.721,2.341,1.58,4.67,2.486,6.884
		c1.755,4.491,3.648,8.65,5.275,12.223c1.649,3.543,3.113,6.518,4.252,8.516c1.093,2.057,2.092,2.928,2.161,2.83
		C241.877,130.96,240.402,130.629,238.508,129.066z"/>
	<path d="M60.975,106.392l-7.971-0.023l2.364,61.091l-9.585-0.023l0.023-61.067l-7.035,0.023v61.579h-7.947v-61.579l-7.721-0.012
		v61.579l-9.411,0.012l2.689-61.602H9.08l-8.854,48.636c0,0-0.227,2.701-0.227,3.689c0,10.979,5.106,20.797,13.065,27.182
		c26.183,29.592,8.313,59.778,8.313,66.947c0,7.959,0,96.354,0,96.354h0.046c-0.011,0.092-0.046,0.186-0.046,0.278
		c0,7.482,6.094,13.548,13.564,13.548c7.482,0,13.577-6.089,13.577-13.548c0-0.116-0.035-0.187-0.023-0.256l0,0
		c0,0,0.023-86.907,0.035-96.099c-0.046-8.318-15.145-43.059,10.125-68.863c0.023-0.035,0.082-0.122,0.104-0.157
		c6.199-5.838,10.254-13.896,10.841-22.947c0.046-0.633,0.058-2.237,0.058-2.237L60.975,106.392z"/>
	<path d="M380.721,144.844c0-28.053-14.361-46.853-39.876-47.294c0.023-0.012,0-0.023,0-0.023c-0.093,0-0.534-0.012-0.627,0
		c0,0-0.023,0,0,0.035c-25.479,0.418-39.853,19.217-39.853,47.282c-0.012,24.899,12.455,43.483,25.004,50.657
		c15.499,26.241,1.487,50.943,1.487,57.321c0,7.959,0,96.354,0,96.354h0.046c-0.023,0.092-0.046,0.186-0.046,0.278
		c0,7.482,6.088,13.548,13.547,13.548c7.494,0,13.583-6.089,13.583-13.548c0-0.116-0.035-0.187-0.023-0.256
		c0,0,0.023-86.907,0.034-96.099c-0.046-7.168-11.107-33.961,2.022-57.762C368.452,188.031,380.721,169.528,380.721,144.844z
		 M318.34,172.398c-1.871-2.928-3.822-5.995-5.264-9.841c-0.627-1.807-1.312-3.95-1.51-5.85c-0.232-1.929-0.512-3.811-0.419-5.618
		c-0.069-3.614,0.372-6.913,0.884-9.684c0.511-2.783,1.37-5.072,1.975-6.664c0.581-1.522,1.197-2.26,1.139-2.294
		c0,0,0.104,0.953,0.256,2.631c0.186,1.58,0.488,3.805,0.836,6.53c0.326,2.637,0.697,5.71,1.115,9.028
		c0.338,3.3,1,6.448,1.836,9.521c2.254,6.123,5.589,12.693,7.762,17.562c2.184,4.961,3.997,8.098,4.229,7.849
		c0.012,0.099-0.976-0.116-2.254-1.156c-1.242-1.011-2.951-2.556-4.821-4.566C322.255,177.789,320.292,175.268,318.34,172.398z"/>
</g>
<g>
</g>
<g>
</g>
<g>
</g>
<g>
</g>
<g>
</g>
<g>
</g>
<g>
</g>
<g>
</g>
<g>
</g>
<g>
</g>
<g>
</g>
<g>
</g>
<g>
</g>
<g>
</g>
<g>
</g>
</svg>
