<?xml version="1.0" encoding="iso-8859-1"?>
<!-- Generator: Adobe Illustrator 16.0.0, SVG Export Plug-In . SVG Version: 6.00 Build 0)  -->
<!DOCTYPE svg PUBLIC "-//W3C//DTD SVG 1.1//EN" "http://www.w3.org/Graphics/SVG/1.1/DTD/svg11.dtd">
<svg version="1.1" id="Capa_1" xmlns="http://www.w3.org/2000/svg" xmlns:xlink="http://www.w3.org/1999/xlink" x="0px" y="0px"
	 width="380.721px" height="380.721px" viewBox="0 0 380.721 380.721" style="enable-background:new 0 0 380.721 380.721;"
	 xml:space="preserve">
<g>
	<g>
		<path d="M301.022,118.261c0,0-4.855,1.69-12.315,5.304c-14.604-21.105-35.669-37.319-60.301-45.923
			c-7.819-18.096-22.587-32.666-42.345-32.968c0-0.012,0-0.023,0-0.023c-0.145,0-0.645,0-0.772,0c0,0,0,0.011,0,0.023
			c-21.273,0.314-37.086,16.278-44.534,35.751c-19.705,8.389-36.657,21.895-49.46,38.73c-11.967-10.474-21.471-18.538-21.471-18.538
			l-3.404,3.404l20.513,21.071c-1.801,2.689-3.474,5.472-5.06,8.29l-22.744-22.069l-4.345,4.328l23.679,24.486
			c-1.237,2.585-2.417,5.176-3.492,7.843l-26.705-25.793l-4.595,4.607l28.448,29c-1.011,3.178-1.83,6.437-2.58,9.713l-32.294-32.317
			l-3.771,3.788c0,0,17.48,20.211,34.252,38.568c-0.796,5.641-1.354,11.34-1.354,17.196c0,42.814,22.221,80.471,55.7,102.232
			l-9.435,9.435l0.029,0.022c-0.076,0.059-0.157,0.105-0.215,0.175c-5.025,5.02-7.023,11.177-1.987,16.208
			c0.262,0.244,3.213,3.219,3.486,3.475c5.019,5.042,11.183,3.032,16.191-1.987c0.081-0.058,0.133-0.14,0.191-0.197l0.012,0.011
			l15.29-15.289c9.062,3.416,18.596,5.82,28.53,6.982v9.133h0.034c-0.012,0.069-0.034,0.162-0.034,0.244
			c0,7.109,2.951,12.873,10.062,12.873c0.36,0,4.56,0,4.903,0c7.128,0,10.067-5.764,10.067-12.873c0-0.094-0.012-0.175-0.023-0.244
			h0.023v-8.772c8.783-0.778,17.335-2.44,25.515-4.985l15.115,15.117l0.023-0.012c0.059,0.058,0.082,0.115,0.163,0.186
			c5.03,5.02,11.188,7.018,16.22,1.998c0.244-0.256,3.218-3.23,3.474-3.485c5.031-5.019,3.032-11.2-1.987-16.22
			c-0.081-0.07-0.15-0.116-0.221-0.162l0.023-0.023l-8.295-8.296c36.459-21.111,61.102-60.464,61.102-105.533
			c0-17.898-3.973-34.85-10.921-50.175c17.138-17.143,30.429-30.435,31.347-31.347C333.485,108.484,301.022,118.261,301.022,118.261
			z M276.925,129.862c-10.108,5.879-22.028,14.146-33.102,25.236c-9.829,9.8-26.479,26.055-32.741,32.335
			c1.011,3.625,11.7,13.361,0.058,27.687l-13.616,13.385l-2.371,1.755l-3.531-20.682l0.069-51.052
			c0.081-0.511,0.116-1.052,0.116-1.632c0-5.879,42.873-13.263,42.873-49.734c0-4.375-0.488-8.859-1.324-13.338
			C250.853,101.844,265.865,114.311,276.925,129.862z M150.828,99.462c0.337,2.701,1.04,5.937,2.074,9.661
			c0.441,1.633,0.999,3.323,1.667,5.072c0.558,1.522,1.412,3.248,2.26,4.555c4.113,5.879,7.505,11.792,11.717,15.563
			c0.831,0.726,1.702,1.464,2.475,2.115c1.058,0.917,1.999,1.737,2.794,2.266c1.203,0.912,2.062,1.307,2.062,1.33
			c0.616,0.273,0.959,0.854,0.866,1.453c-0.146,0.546-0.68,1.011-1.319,1.022c-0.168,0.011-1.033-0.012-2.404-0.332
			c-0.332-0.11-0.68-0.215-1.058-0.325l-0.599-0.238c-1.714-0.616-4.055-1.435-6.529-2.934c-7.709-4.357-11.032-9.998-14.896-15.697
			c-1.237-2.01-2.097-3.84-2.835-6.053c-0.592-1.94-1.057-3.881-1.423-6.059c-0.668-4.154-0.668-8.017-0.587-10.945
			c0.075-3.079,0.656-5.641,1.145-7.448c1.307-0.558,2.689-0.976,4.02-1.476c-0.011,0.477-0.034,0.93-0.023,1.464
			C150.119,94.146,150.416,96.417,150.828,99.462z M136.578,97.097c-0.343,2.771-0.581,5.565-0.581,8.325
			c0,42.786,44.575,45.591,44.575,51.471c0,0.999,0.11,1.865,0.256,2.713l-0.325,49.6l-3.736,25.934l-4.746-3.347l-35.919-36.018
			c5.118-8.127,8.581-21.535,2.951-30.912c-3.427-5.722-21.163-22.139-37.848-36.941
			C110.639,115.263,122.659,104.661,136.578,97.097z M96.423,134.847l27.031,27.78l-5.653,5.641l-26.066-25.294
			C93.188,140.179,94.756,137.49,96.423,134.847z M88.238,150.229l23.412,24.202l-2.149,2.161l-0.25,0.238l-2.155,2.167
			l-21.727-20.995C86.263,155.382,87.169,152.763,88.238,150.229z M82.859,166.722l18.084,18.427l-5.873,5.885l-14.187-14.204
			C81.383,173.397,82.051,170.028,82.859,166.722z M79.577,192.742c0-1.417,0.168-2.8,0.215-4.211
			c7.447,7.813,13.681,13.96,16.539,15.737c8.458,5.287,23.267,3.532,31.917-0.988l35.658,36.1l6.832,9.145l-8.807,6.576
			l-30.268,30.277C100.479,266.231,79.577,231.92,79.577,192.742z M155.911,296.543l18.253-18.253v22.169
			C167.902,299.646,161.79,298.391,155.911,296.543z M199.185,300.948V283.67l14.675,14.674
			C209.073,299.506,204.193,300.448,199.185,300.948z M297.119,192.742c0,41.444-23.33,77.532-57.536,95.877l-30.789-30.777
			l-10.178-7.204l-0.65-3.881l7.18-10.132l10.573-10.561l0.093,0.104c0,0,40.584-40.579,73.547-73.546
			C294.284,165.055,297.119,178.567,297.119,192.742z"/>
		<path d="M190.366,0C85.409,0,0.006,85.397,0.006,190.36c0,104.963,85.403,190.361,190.36,190.361
			c104.94,0,190.35-85.397,190.35-190.361C380.715,85.397,295.306,0,190.366,0z M190.366,367.522
			c-97.678,0-177.155-79.483-177.155-177.162S92.688,13.205,190.366,13.205c97.679,0,177.139,79.478,177.139,177.156
			S288.044,367.522,190.366,367.522z"/>
	</g>
</g>
<g>
</g>
<g>
</g>
<g>
</g>
<g>
</g>
<g>
</g>
<g>
</g>
<g>
</g>
<g>
</g>
<g>
</g>
<g>
</g>
<g>
</g>
<g>
</g>
<g>
</g>
<g>
</g>
<g>
</g>
</svg>
