<?xml version="1.0" encoding="iso-8859-1"?>
<!-- Generator: Adobe Illustrator 16.0.0, SVG Export Plug-In . SVG Version: 6.00 Build 0)  -->
<!DOCTYPE svg PUBLIC "-//W3C//DTD SVG 1.1//EN" "http://www.w3.org/Graphics/SVG/1.1/DTD/svg11.dtd">
<svg version="1.1" id="Capa_1" xmlns="http://www.w3.org/2000/svg" xmlns:xlink="http://www.w3.org/1999/xlink" x="0px" y="0px"
	 width="380.725px" height="380.725px" viewBox="0 0 380.725 380.725" style="enable-background:new 0 0 380.725 380.725;"
	 xml:space="preserve">
<g>
	<path d="M346.832,127.953c0,0-33.59,17.649-58.907,52.15c-9.504,12.955-25.654,34.461-31.719,42.733
		c1.743,3.881,15.104,14.535,5.716,32.404l-4.438,6.123l-42.989-40.2l-10.388-12.711c1.487-2.033,3.672-4.996,6.438-8.749
		l48.147-64.838l-0.256-0.174C301.914,75.674,354.882,3.767,357.102,0.723c3.788-5.153-46.719,18.938-46.719,18.938
		s-47.974,25.213-84.154,74.517c-13.559,18.514-36.64,49.193-45.301,61.021c2.236,4.961,17.579,17.718,11.188,38.638l-22.244-27.217
		c5.571-10.027,7.773-24.922,8.987-37.784c1.115-11.921-88.854-101.524-88.854-101.524l-6.89,5.676l72.779,87.89l-8.581,7.099
		L74.542,40.104L65.2,47.848l72.768,87.89l-3.288,2.713l-0.377,0.308l-3.259,2.713l-72.78-87.878l-9.353,7.75l72.768,87.872
		l-8.592,7.117l-72.75-87.878l-6.913,5.71c0,0,71.239,105.091,83.16,106.235c13.745,1.272,29.947,1.905,40.938-2.579l26.096,31.213
		l-5.495,7.564l-50.641,52.051l-30.946-37.818c3.916-7.018,5.438-17.451,6.297-26.444c0.784-8.354-62.201-71.077-62.201-71.077
		l-4.856,3.997l50.959,61.527l-5.984,4.961l-50.959-61.515l-6.53,5.438l50.919,61.526l-2.294,1.895l-0.25,0.209l-2.283,1.905
		l-50.96-61.515l-6.529,5.438l50.942,61.503l-6.019,4.973l-50.93-61.515l-4.845,4.009c0,0,49.862,73.576,58.192,74.365
		c9.638,0.906,20.96,1.324,28.669-1.812l31.01,37.122l0.627,1.022l-56.432,58l0.041,0.035c-0.087,0.116-0.238,0.232-0.337,0.36
		c-8.174,11.142-5.746,26.804,5.414,34.995c0.546,0.396,7.116,5.205,7.686,5.646c11.137,8.168,26.816,5.764,34.979-5.379
		c0.11-0.151,0.18-0.291,0.25-0.43l0.058,0.023l31.149-56.258l28.101,45.557c0.052,5.321,2.225,10.584,6.866,13.977
		c0.395,0.303,4.984,3.66,5.391,3.951c0.488,0.348,1.046,0.418,1.546,0.721c0.895,0.522,1.771,0.883,2.713,1.254
		c1.145,0.43,2.236,0.825,3.439,1c1.138,0.197,2.23,0.174,3.403,0.139c0.999-0.047,1.976-0.069,2.963-0.29
		c1.302-0.256,2.51-0.755,3.741-1.325c0.79-0.371,1.534-0.72,2.266-1.23c0.535-0.338,1.15-0.453,1.662-0.872
		c0.371-0.325,4.764-3.962,5.135-4.265c4.322-3.602,6.205-8.807,6.065-14.012l30.696-55.455l42.117,68.294l0.059-0.034
		c0.07,0.127,0.151,0.267,0.279,0.43c8.795,10.643,24.573,12.117,35.228,3.275c0.534-0.441,6.832-5.635,7.366-6.088
		c10.654-8.807,12.142-24.585,3.312-35.228c-0.104-0.151-0.244-0.255-0.337-0.36l0.023-0.035l-68.598-64.146l5.055-6.844
		l0.059,0.023c0,0,2.23-3.043,6.088-8.283l33.717-45.371l-0.162-0.128c30.418-41.333,67.481-91.643,69.062-93.786
		C382.199,111.094,346.832,127.953,346.832,127.953z M100.428,360.25c-4.032,5.508-12.717,6.03-19.369,1.139
		c-6.652-4.868-8.795-13.314-4.735-18.822c4.044-5.53,12.729-6.041,19.392-1.174C102.368,346.286,104.483,354.708,100.428,360.25z
		 M302.75,341.219c6.367-5.24,15.059-5.24,19.427,0.023s2.742,13.814-3.625,19.078c-6.367,5.263-15.046,5.274-19.427,0
		C294.756,355.045,296.394,346.506,302.75,341.219z M196.555,353.186c4.647,3.416,6.146,9.318,3.3,13.188
		c-0.512,0.709-1.231,1.162-1.94,1.627c-3.974,1.883-8.412,1.452-10.91-1.568c-3.044-3.684-1.911-9.667,2.55-13.35
		c0.947-0.779,2.005-1.325,3.074-1.778C193.964,351.688,195.312,352.28,196.555,353.186z M192.349,329.426l-38.644-36.157
		l36.941-66.714l3.562-4.822l7.621,9.133l33.543,54.363L192.349,329.426z"/>
</g>
<g>
</g>
<g>
</g>
<g>
</g>
<g>
</g>
<g>
</g>
<g>
</g>
<g>
</g>
<g>
</g>
<g>
</g>
<g>
</g>
<g>
</g>
<g>
</g>
<g>
</g>
<g>
</g>
<g>
</g>
</svg>
