<?xml version="1.0" encoding="iso-8859-1"?>
<!-- Generator: Adobe Illustrator 16.0.0, SVG Export Plug-In . SVG Version: 6.00 Build 0)  -->
<!DOCTYPE svg PUBLIC "-//W3C//DTD SVG 1.1//EN" "http://www.w3.org/Graphics/SVG/1.1/DTD/svg11.dtd">
<svg version="1.1" id="Capa_1" xmlns="http://www.w3.org/2000/svg" xmlns:xlink="http://www.w3.org/1999/xlink" x="0px" y="0px"
	 width="380.735px" height="380.735px" viewBox="0 0 380.735 380.735" style="enable-background:new 0 0 380.735 380.735;"
	 xml:space="preserve">
<g>
	<path d="M374.229,96.28l-66.285,70.171l-7.818-7.849l68.213-68.213l-5.74-5.693l-68.631,68.62l-6.483-6.483l68.632-68.638
		l-6.31-6.303l-68.632,68.637l-7.691-7.686l70.84-66.458l-5.949-5.949l-65.285,50.849c0,0-2.37,1.999-3.207,2.817
		c-8.946,8.946-12.804,21.117-11.514,32.811c-1.976,32.532-22.529,46.917-36.25,54.619c-1.035-175.052-43.35-199.004-43.35-199.004
		l-5.176,0.035c0,0-0.187,140.133-0.25,207.381c-2.271-2.266-3.84-3.857-4.485-4.484c-18.857-8.668-47.479-27.804-50.384-45.098
		c9.173-17.144,6.367-50.152-18.729-75.243C74.856,60.233,38.461,50.822,14.155,74.355l-0.012-0.012
		c-0.104,0.093-0.5,0.5-0.616,0.593c0,0,0.012,0,0.012,0.012c-23.522,24.294-14.122,60.69,10.776,85.583
		c25.091,25.091,58.094,27.908,75.243,18.724c17.294,2.916,36.43,31.527,45.104,50.384c1.784,1.789,10.539,10.539,22.308,22.297
		c-29.354,29.349-62.607,62.602-62.607,62.602l0.012,0.023c-0.07,0.069-0.168,0.092-0.25,0.197
		c-6.105,6.111-6.094,16.01,0.012,22.11c6.105,6.111,16.04,6.111,22.116,0.022c0.099-0.104,0.134-0.197,0.18-0.255l0.011,0.022
		c0,0,22.523-22.517,46.841-46.822c-0.012,33.229-0.012,72.338-0.012,72.338l0.059,0.069c-0.059,0.058-0.059,0.175-0.023,0.267
		c-0.035,8.656,7.059,15.732,15.691,15.697c8.673,0.059,15.737-6.994,15.702-15.697c0-0.115-0.023-0.209-0.058-0.312l0.093,0.046
		c0,0,0.302-41.293,0.511-72.036c24.423,24.423,46.882,46.893,46.882,46.893l0.022-0.022c0.07,0.069,0.129,0.163,0.21,0.255
		c6.169,6.17,16.173,6.17,22.366,0c0.313-0.312,1.498-1.51,1.823-1.812c6.17-6.191,6.17-16.195,0-22.377
		c-0.093-0.07-0.174-0.15-0.255-0.209l0.023-0.023c0,0-33.428-33.438-63.055-63.066c9.992-9.992,17.335-17.335,19.182-19.182
		c6.763-6.797,22.762-47.492,64.449-47.91c0.047-0.012,0.14-0.035,0.209-0.035c9.807,0.261,19.705-2.975,27.595-9.876
		c0.546-0.488,1.835-1.807,1.835-1.807l54.201-68.219L374.229,96.28z M78.272,169.832c-2.759,0.215-6.878,0.5-11.624-0.407
		c-4.793-0.726-10.23-2.225-15.86-4.792c-2.974-1.127-5.571-2.58-8.162-4.154l-3.974-2.295c-1.69-1.022-2.794-1.963-4.177-2.998
		c-5.246-4.119-9.684-9.26-12.763-14.645c-3.097-5.391-4.938-10.887-5.833-15.645c-0.941-4.787-0.854-8.831-0.785-11.578
		c0.151-2.783,0.558-4.328,0.558-4.328s1.203,6.28,4.961,14.431c3.572,8.232,10.195,17.904,19.287,24.783l3.317,2.417l3.893,2.446
		c2.591,1.609,5.083,3.323,7.436,4.514c4.676,2.684,9.399,5.042,13.53,6.768c8.22,3.631,14.512,4.665,14.512,4.665
		S81.067,169.582,78.272,169.832z"/>
</g>
<g>
</g>
<g>
</g>
<g>
</g>
<g>
</g>
<g>
</g>
<g>
</g>
<g>
</g>
<g>
</g>
<g>
</g>
<g>
</g>
<g>
</g>
<g>
</g>
<g>
</g>
<g>
</g>
<g>
</g>
</svg>
