<?xml version="1.0" encoding="iso-8859-1"?>
<!-- Generator: Adobe Illustrator 16.0.0, SVG Export Plug-In . SVG Version: 6.00 Build 0)  -->
<!DOCTYPE svg PUBLIC "-//W3C//DTD SVG 1.1//EN" "http://www.w3.org/Graphics/SVG/1.1/DTD/svg11.dtd">
<svg version="1.1" id="Capa_1" xmlns="http://www.w3.org/2000/svg" xmlns:xlink="http://www.w3.org/1999/xlink" x="0px" y="0px"
	 width="380.736px" height="380.736px" viewBox="0 0 380.736 380.736" style="enable-background:new 0 0 380.736 380.736;"
	 xml:space="preserve">
<g>
	<path d="M322.594,172.792c0,0-23.411,14.396-42.965,41.885c-7.192,10.12-19.311,26.7-24.202,33.566
		c-9.19-11.235-17.881-21.89-25.224-30.859l-10.689,8.714l-12.316-15.046l49.589-69.694l-0.069-0.012
		C295.965,86.181,348.795,11.879,356.23,1.48c-12.305-7.959-49.949,18.764-49.949,18.764s-41.014,25.207-75.289,73.395
		c-12.85,18.062-34.763,48.055-42.965,59.604c2.59,5.629,24.887,17.074,7.97,44.116l-40.404-49.409
		c5.699-9.661,7.994-24.393,9.266-37.087c1.168-11.525-85.316-98.7-85.316-98.7l-6.732,5.484l69.863,85.415l-8.354,6.791
		l-69.84-85.397l-9.098,7.447l69.834,85.409l-3.172,2.608l-0.36,0.285l-3.189,2.608L48.632,37.411l-9.086,7.436l69.834,85.415
		l-8.325,6.803L31.192,51.662l-6.687,5.501c0,0,68.306,102.041,79.797,103.208c12.728,1.272,27.6,1.964,38.179-1.737l43.472,53.126
		l-5.792,8.179l-11.265-7.993c-4.461,6.263-22.18,31.173-41.13,57.815l-19.717-24.098c3.247-5.496,4.555-13.92,5.28-21.158
		c0.668-6.576-48.693-56.333-48.693-56.333l-3.834,3.131l39.881,48.764l-4.758,3.869l-39.87-48.729l-5.2,4.224l39.87,48.77
		l-1.807,1.476l-0.204,0.175l-1.818,1.475l-39.881-48.74l-5.188,4.247l39.857,48.735l-4.746,3.892L37.06,190.708l-3.811,3.154
		c0,0,38.981,58.239,45.545,58.89c7.256,0.754,15.755,1.127,21.796-0.988l21.39,26.143c-24.161,33.961-48.409,68.05-48.409,68.05
		l0.035,0.012c-0.093,0.116-0.192,0.221-0.261,0.325c-6.605,9.226-4.427,22.088,4.845,28.688c0.436,0.301,2.237,1.58,2.725,1.951
		c9.243,6.564,22.093,4.381,28.681-4.845c0.064-0.116,0.146-0.256,0.204-0.36l0.046,0.023c0,0,16.312-22.924,36.622-51.482
		c17.8,21.773,43.959,53.783,43.959,53.783l0.041-0.023c0.047,0.081,0.069,0.139,0.116,0.221c2.451,2.986,6.054,4.252,9.644,4.066
		c3.857,0.197,7.727-1.312,10.131-4.705c0.035-0.059,0.082-0.129,0.105-0.21l0.022,0.023c0,0,23.017-32.382,41.793-58.756
		c24.538,29.999,47.59,58.198,47.59,58.198l0.046-0.035c0.07,0.128,0.151,0.256,0.244,0.372c7.192,8.784,20.112,10.073,28.942,2.882
		c0.441-0.384,2.114-1.755,2.557-2.115c8.783-7.191,10.108-20.158,2.904-28.953c-0.093-0.105-0.186-0.197-0.278-0.279l0.046-0.035
		c0,0-29.883-36.518-60.476-73.953l20.508-28.825l-0.047-0.023c22.4-31.476,52.562-73.877,56.804-79.814
		C344.065,157.542,322.594,172.792,322.594,172.792z M98.342,363.409c-2.585,3.647-7.616,4.496-11.27,1.904
		c-3.602-2.567-4.45-7.621-1.876-11.258c2.58-3.637,7.616-4.462,11.229-1.883C100.079,354.752,100.91,359.794,98.342,363.409z
		 M311.905,352.428c3.438-2.823,8.517-2.312,11.34,1.139c2.812,3.439,2.323,8.551-1.139,11.363
		c-3.439,2.812-8.517,2.289-11.34-1.162C307.955,360.329,308.466,355.252,311.905,352.428z M220.676,240.901
		c3.462-2.824,8.527-2.301,11.362,1.139c2.812,3.451,2.301,8.551-1.139,11.352c-3.438,2.812-8.517,2.301-11.34-1.127
		C216.736,248.79,217.248,243.724,220.676,240.901z M206.442,236.799l-1.464,1.197c0.059-0.082,0.128-0.175,0.197-0.244
		l-11.27-7.994l3.137-4.427L206.442,236.799z M168.717,236.695c2.567-3.66,7.627-4.497,11.252-1.94
		c3.643,2.626,4.462,7.645,1.895,11.281c-2.597,3.603-7.616,4.474-11.271,1.848C166.991,245.362,166.131,240.32,168.717,236.695z
		 M201.888,362.002c0.431,0.197,0.849,0.337,1.22,0.674c0.512,0.477,0.813,1.068,1.069,1.696c0.175,0.464,0.396,0.895,0.418,1.382
		c0.023,0.605-0.197,1.197-0.418,1.778c-0.197,0.522-0.372,1.034-0.755,1.452c-0.407,0.395-0.895,0.627-1.383,0.848
		c-0.581,0.256-1.162,0.523-1.789,0.535c-0.465,0-0.883-0.162-1.325-0.291c-0.674-0.232-1.312-0.477-1.835-0.987
		c-0.326-0.325-0.5-0.731-0.721-1.149c-0.303-0.616-0.535-1.244-0.558-1.906c0-0.522,0.162-0.987,0.325-1.476
		c0.186-0.581,0.441-1.139,0.848-1.603c0.441-0.442,0.965-0.721,1.511-0.953c0.488-0.197,0.964-0.384,1.464-0.418
		C200.609,361.549,201.249,361.747,201.888,362.002z M199.494,345.028c-9.91-12.119-25.044-30.615-37.783-46.208
		c12.479-17.556,25.305-35.554,36.099-50.751c6.239,7.623,21.111,25.817,37.808,46.22
		C225.578,308.359,209.707,330.655,199.494,345.028z"/>
</g>
<g>
</g>
<g>
</g>
<g>
</g>
<g>
</g>
<g>
</g>
<g>
</g>
<g>
</g>
<g>
</g>
<g>
</g>
<g>
</g>
<g>
</g>
<g>
</g>
<g>
</g>
<g>
</g>
<g>
</g>
</svg>
