<?xml version="1.0" encoding="iso-8859-1"?>
<!-- Generator: Adobe Illustrator 16.0.0, SVG Export Plug-In . SVG Version: 6.00 Build 0)  -->
<!DOCTYPE svg PUBLIC "-//W3C//DTD SVG 1.1//EN" "http://www.w3.org/Graphics/SVG/1.1/DTD/svg11.dtd">
<svg version="1.1" id="Capa_1" xmlns="http://www.w3.org/2000/svg" xmlns:xlink="http://www.w3.org/1999/xlink" x="0px" y="0px"
	 width="380.722px" height="380.722px" viewBox="0 0 380.722 380.722" style="enable-background:new 0 0 380.722 380.722;"
	 xml:space="preserve">
<g>
	<path d="M193.935,224.171h-10.41v-81.749h-0.059c0-51.029,0-119.771,0-129.409c-11.026,0.5-22.487,33.386-22.487,33.386
		s-14.169,33.392-14.169,77.973c0,16.719-0.332,44.726-0.332,55.398c4.212,2.399,24.33-0.703,24.33,26.578v17.822h-10.422
		c0,13.733,0,123.994,0,123.994h0.035c-0.011,0.117-0.035,0.21-0.035,0.303c0,8.574,6.948,15.511,15.517,15.511
		c0.424,0,2.091,0,2.521,0c8.562,0,15.511-6.937,15.511-15.511c0-0.093-0.023-0.209-0.035-0.303h0.035
		C193.935,348.166,193.935,266.835,193.935,224.171z M177.164,354.162c-3.346,0-6.083-2.719-6.083-6.088
		c0-3.37,2.725-6.089,6.083-6.089c3.363,0,6.088,2.73,6.088,6.089C183.251,351.419,180.527,354.162,177.164,354.162z
		 M177.164,245.527c-3.346,0-6.083-2.719-6.083-6.076c0-3.358,2.725-6.1,6.083-6.1c3.363,0,6.088,2.73,6.088,6.1
		C183.251,242.808,180.527,245.527,177.164,245.527z"/>
	<path d="M128.999,130.81c6.175-6.175-2.684-98.334-2.684-98.334h-6.547v83.178h-8.104V32.493h-8.859v83.172h-3.108h-0.343h-3.108
		V32.493h-8.859v83.172h-8.127V32.493h-6.536c0,0-8.848,92.153-2.701,98.329c6.82,6.809,15.174,14.314,23.121,17.219v76.131H82.756
		c0,13.733,0,123.994,0,123.994h0.035c-0.011,0.117-0.035,0.21-0.035,0.303c0,8.574,6.937,15.511,15.511,15.511
		c0.43,0,2.085,0,2.515,0c8.563,0,15.511-6.937,15.511-15.511c0-0.093-0.023-0.209-0.035-0.303h0.035c0,0,0-81.33,0-123.994h-10.411
		v-76.131C113.819,145.124,122.196,137.63,128.999,130.81z M99.516,354.162c-3.353,0-6.077-2.719-6.077-6.088
		c0-3.37,2.725-6.089,6.077-6.089c3.357,0,6.082,2.73,6.082,6.089C105.598,351.419,102.874,354.162,99.516,354.162z M99.516,245.527
		c-3.353,0-6.077-2.719-6.077-6.076c0-3.369,2.725-6.1,6.077-6.1c3.357,0,6.082,2.73,6.082,6.1
		C105.598,242.808,102.874,245.527,99.516,245.527z"/>
	<path d="M56.08,190.146c5.664-5.664-2.463-90.173-2.463-90.173h-5.995v76.289h-7.448V99.974h-8.139v76.289h-2.841H28.88H26.04
		V99.974h-8.127v76.289h-7.448V99.974H4.469c0,0-8.127,84.52-2.463,90.173c6.094,6.093,13.553,12.798,20.664,15.609v42.514H12.271
		c0,13.732,0,103.639,0,103.639H12.3c-0.012,0.081-0.029,0.186-0.029,0.302c0,8.552,6.937,15.499,15.517,15.499
		c0.43,0,2.08,0,2.509,0c8.569,0,15.517-6.947,15.517-15.499c0-0.116-0.023-0.221-0.035-0.302h0.035c0,0,0-60.975,0-103.639H35.416
		v-42.514C42.532,202.945,49.991,196.217,56.08,190.146z M29.037,357.879c-3.352,0-6.088-2.73-6.088-6.089
		c0-3.346,2.725-6.088,6.088-6.088c3.37,0,6.083,2.719,6.083,6.088C35.12,355.161,32.407,357.879,29.037,357.879z M29.037,269.601
		c-3.352,0-6.088-2.719-6.088-6.065c0-3.369,2.725-6.1,6.088-6.1c3.37,0,6.083,2.73,6.083,6.1
		C35.12,266.894,32.407,269.601,29.037,269.601z"/>
	<path d="M295.976,92.096c0-49.124-16.986-60.405-47.102-60.894V31.18c-0.14,0-0.651,0-0.768,0v0.023
		c-30.115,0.488-47.102,11.578-47.102,60.894c0,45.911,36.146,54.596,41.118,62.666v70.711h-10.398c0,13.733,0,124.006,0,124.006
		h0.034c-0.012,0.104-0.034,0.198-0.034,0.313c0,8.552,6.948,15.5,15.511,15.5c0.43,0,2.092,0,2.533,0
		c8.562,0,15.511-6.948,15.511-15.5c0-0.127-0.023-0.221-0.035-0.313h0.035c0,0,0-81.343,0-124.006h-10.422V155
		C259.842,147.907,295.976,137.833,295.976,92.096z M240.927,137.235c-0.175,0-1.139-0.104-2.638-0.569
		c-0.349-0.145-0.744-0.273-1.127-0.453l-0.651-0.296c-1.824-0.825-4.345-1.952-6.947-3.799c-8.18-5.484-11.34-11.99-15.128-18.619
		c-1.185-2.341-1.976-4.444-2.614-6.948c-0.477-2.213-0.836-4.386-1.068-6.803c-0.349-4.653-0.023-8.923,0.29-12.147
		c0.407-3.689,1.383-6.768,2.103-8.72c0.872-2.26,1.499-3.799,1.499-3.799c0.279-0.697,1.128-1.058,1.917-0.796
		c0.825,0.296,1.313,0.953,1.244,1.69c-0.023,0.035-0.314,1.894-0.431,3.834c-0.267,1.865-0.151,4.398,0.035,7.813
		c0.175,2.998,0.65,6.652,1.487,10.852c0.325,1.807,0.79,3.747,1.383,5.722c0.487,1.737,1.289,3.724,2.114,5.223
		c4.032,6.867,7.285,13.681,11.606,18.224c0.872,0.848,1.767,1.743,2.568,2.527c1.104,1.115,2.068,2.103,2.904,2.748
		c1.244,1.116,2.161,1.638,2.161,1.65c0.651,0.372,0.987,1.052,0.825,1.69C242.263,136.846,241.647,137.281,240.927,137.235z
		 M248.491,355.462c-3.358,0-6.077-2.719-6.077-6.088c0-3.346,2.719-6.076,6.077-6.076c3.357,0,6.088,2.73,6.088,6.076
		C254.579,352.744,251.848,355.462,248.491,355.462z M248.491,246.828c-3.358,0-6.077-2.73-6.077-6.088
		c0-3.346,2.719-6.076,6.077-6.076c3.357,0,6.088,2.73,6.088,6.076C254.579,244.097,251.848,246.828,248.491,246.828z"/>
	<path d="M380.722,143.422c0-41.804-14.453-51.407-40.084-51.825v-0.012c-0.116,0-0.546,0-0.662,0v0.012
		c-25.619,0.418-40.084,9.853-40.084,51.825c0,36.895,27.408,45.545,34.042,52.167v48.938h-10.41c0,13.745,0,103.638,0,103.638
		h0.035c-0.012,0.117-0.035,0.21-0.035,0.303c0,8.574,6.948,15.511,15.522,15.511c0.43,0,2.092,0,2.521,0
		c8.562,0,15.511-6.937,15.511-15.511c0-0.093-0.023-0.209-0.034-0.303h0.034c0,0,0-60.975,0-103.638h-10.41v-48.601
		C353.302,189.862,380.722,180.172,380.722,143.422z M333.272,181.949c-0.313-0.122-0.604-0.215-0.93-0.36l-0.534-0.227
		c-1.499-0.668-3.544-1.534-5.693-2.998c-6.692-4.282-9.342-9.527-12.514-14.826c-0.987-1.876-1.661-3.59-2.219-5.6
		c-0.418-1.76-0.732-3.526-0.976-5.513c-0.325-3.735-0.256-10.631-0.035-13.263c0.278-2.998,1.046-5.496,1.58-7.093
		c0.674-1.83,1.15-3.09,1.15-3.09c0.256-0.581,0.895-0.872,1.534-0.703c0.696,0.25,1.104,0.761,1.057,1.342
		c-0.012,0.041-0.244,1.575-0.279,3.12c-0.209,1.511-0.069,3.584,0.14,6.327c0.175,2.428,0.732,8.807,1.464,12.211
		c0.303,1.464,0.697,2.998,1.221,4.613c0.395,1.383,1.092,2.998,1.766,4.2c3.346,5.525,6.123,10.974,9.667,14.587
		c0.731,0.714,1.452,1.406,2.114,2.021c0.906,0.883,1.72,1.679,2.382,2.19c1.034,0.86,1.778,1.249,1.778,1.272
		c0.534,0.302,0.801,0.825,0.674,1.359c-0.117,0.5-0.64,0.854-1.221,0.842C335.259,182.362,334.457,182.292,333.272,181.949z
		 M340.313,354.162c-3.369,0-6.088-2.719-6.088-6.088c0-3.37,2.719-6.089,6.088-6.089c3.347,0,6.077,2.73,6.077,6.089
		C346.39,351.419,343.66,354.162,340.313,354.162z M340.313,265.894c-3.369,0-6.088-2.73-6.088-6.088
		c0-3.369,2.719-6.076,6.088-6.076c3.347,0,6.077,2.719,6.077,6.076S343.66,265.894,340.313,265.894z"/>
</g>
<g>
</g>
<g>
</g>
<g>
</g>
<g>
</g>
<g>
</g>
<g>
</g>
<g>
</g>
<g>
</g>
<g>
</g>
<g>
</g>
<g>
</g>
<g>
</g>
<g>
</g>
<g>
</g>
<g>
</g>
</svg>
