<?xml version="1.0" encoding="iso-8859-1"?>
<!-- Generator: Adobe Illustrator 16.0.0, SVG Export Plug-In . SVG Version: 6.00 Build 0)  -->
<!DOCTYPE svg PUBLIC "-//W3C//DTD SVG 1.1//EN" "http://www.w3.org/Graphics/SVG/1.1/DTD/svg11.dtd">
<svg version="1.1" id="Capa_1" xmlns="http://www.w3.org/2000/svg" xmlns:xlink="http://www.w3.org/1999/xlink" x="0px" y="0px"
	 width="380.721px" height="380.721px" viewBox="0 0 380.721 380.721" style="enable-background:new 0 0 380.721 380.721;"
	 xml:space="preserve">
<g>
	<g>
		<path d="M116.884,0v1.592v1.598c0,2.864,0,9.469,0,17.928c0,0-17.085,0-20.118,0c-3.026-0.012-16.527,2.382-16.527,17.515
			c0,15.122,13.728,18.212,18.212,18.212c3.666,0,14.553,0,18.434,0c0,17.085,0,32.387,0,35.942c0,8.9,0.534,13.948,9.55,17.934
			c4.735,1.749,28.675,7.959,28.675,33.049c0,25.079-11.683,26.677-15.122,32.788c-3.462,6.117-2.556,14.732-1.214,23.76
			c1.371,9.027,19.525,128.897,21.117,140.179c1.586,11.248,13.199,39.969,48.572,40.201v0.023c0.081,0,0.14-0.012,0.209-0.012
			s0.14,0.012,0.209,0.012v-0.023c35.391-0.232,46.986-28.953,48.59-40.201c1.58-11.281,19.729-131.151,21.1-140.179
			c1.348-9.028,2.254-17.643-1.209-23.76c-3.438-6.111-15.127-7.697-15.127-32.788c0-25.09,23.935-31.301,28.675-33.049
			c9.027-3.985,9.574-9.034,9.574-17.934c0-8.173,0-78.257,0-89.597V1.592V0H116.884z M234.767,291.512l-0.186,0.953
			c-0.116,1.011-0.303,1.986-0.535,2.951l-9.632,53.445h-0.023c-1.242,6.786-7.191,11.945-14.337,11.945
			s-13.089-5.159-14.326-11.945h-0.249l-8.709-51.145c-0.883-2.533-1.383-5.229-1.383-8.075c0-13.629,11.056-24.689,24.69-24.689
			c13.628,0,24.689,11.072,24.689,24.689c0,0.64-0.046,1.243-0.093,1.858h0.093V291.512z M250.684,173.374
			c-7.436,0-71.146,0-82.033,0c-10.898,0,13.408-43.286,20.048-43.286c6.635,0,35.17,0,42.606,0
			C238.74,130.088,258.12,173.374,250.684,173.374z M294.626,34.647H208.88h-0.395H122.71V3.189h171.916V34.647z"/>
		<path d="M292.232,48.897V26.497H153.645v22.401H292.232z M156.834,45.708v-4.816h132.215v4.816H156.834z M289.049,29.686v4.816
			H156.834v-4.816H289.049z"/>
	</g>
</g>
<g>
</g>
<g>
</g>
<g>
</g>
<g>
</g>
<g>
</g>
<g>
</g>
<g>
</g>
<g>
</g>
<g>
</g>
<g>
</g>
<g>
</g>
<g>
</g>
<g>
</g>
<g>
</g>
<g>
</g>
</svg>
