<?xml version="1.0" encoding="iso-8859-1"?>
<!-- Generator: Adobe Illustrator 16.0.0, SVG Export Plug-In . SVG Version: 6.00 Build 0)  -->
<!DOCTYPE svg PUBLIC "-//W3C//DTD SVG 1.1//EN" "http://www.w3.org/Graphics/SVG/1.1/DTD/svg11.dtd">
<svg version="1.1" id="Capa_1" xmlns="http://www.w3.org/2000/svg" xmlns:xlink="http://www.w3.org/1999/xlink" x="0px" y="0px"
	 width="380.721px" height="380.721px" viewBox="0 0 380.721 380.721" style="enable-background:new 0 0 380.721 380.721;"
	 xml:space="preserve">
<g>
	<path d="M291.907,84.782h-60.254c2.382-20.06,6.692-56.275,7.459-62.782c1.069-9.091,6.344-22-11.956-22
		c-18.311,0-66.58,0-73.221,0c-6.657,0-15.818,0.43-13.466,16.191c1.69,11.293,5.926,48.386,8.208,68.591H88.802
		c-8.708,0-15.79,7.064-15.79,15.79v264.36c0,8.726,7.082,15.79,15.79,15.79h203.105c8.726,0,15.802-7.064,15.802-15.79v-264.36
		C307.709,91.846,300.645,84.782,291.907,84.782z M191.883,23.784c8.214,0,14.895,6.663,14.895,14.883
		c0,8.208-6.681,14.884-14.895,14.884c-8.227,0-14.901-6.675-14.901-14.884C176.981,30.447,183.656,23.784,191.883,23.784z"/>
</g>
<g>
</g>
<g>
</g>
<g>
</g>
<g>
</g>
<g>
</g>
<g>
</g>
<g>
</g>
<g>
</g>
<g>
</g>
<g>
</g>
<g>
</g>
<g>
</g>
<g>
</g>
<g>
</g>
<g>
</g>
</svg>
