<?xml version="1.0" encoding="iso-8859-1"?>
<!-- Generator: Adobe Illustrator 16.0.0, SVG Export Plug-In . SVG Version: 6.00 Build 0)  -->
<!DOCTYPE svg PUBLIC "-//W3C//DTD SVG 1.1//EN" "http://www.w3.org/Graphics/SVG/1.1/DTD/svg11.dtd">
<svg version="1.1" id="Capa_1" xmlns="http://www.w3.org/2000/svg" xmlns:xlink="http://www.w3.org/1999/xlink" x="0px" y="0px"
	 width="373.517px" height="373.517px" viewBox="0 0 373.517 373.517" style="enable-background:new 0 0 373.517 373.517;"
	 xml:space="preserve">
<g>
	<g>
		<polygon points="223.799,247.733 211.646,308.232 216.188,308.104 228.573,248.106 		"/>
		<polygon points="199.167,307.825 203.535,307.825 206.894,248.407 202.28,248.106 		"/>
		<polygon points="182.187,248 186.159,307.942 190.755,307.663 186.787,247.733 		"/>
		<polygon points="136.321,247.874 158.519,308.151 163.729,307.802 141.387,247.803 		"/>
		<polygon points="160.778,248.221 172.188,307.825 177.341,307.825 165.467,248.106 		"/>
		<path d="M57.854,52.447V18.416l5.211-6.245h256.541V0H57.367L45.684,14.03v38.417h-0.023v321.07h282.194V52.447H57.854z
			 M235.127,312.542h-83.196l-33.502-71.641h5.688c-3.085-12.989,5.351-19.868,17.712-23.389c-0.372-4.798,1.191-9.702,4.973-12.874
			c4.153-3.461,9.08-5.635,14.337-7.052c0.819-7.146,7.116-13.483,14.553-13.141c2.103,0.093,4.212,0.227,6.303,0.325
			c-0.761-3.027-0.842-6.466,0.035-10.439c3.462-15.987,25.015-12.275,28.198,0.918c0.813,0.465,1.65,0.895,2.452,1.33
			c1.905,0.976,3.822,1.94,5.704,2.928c3.812,1.963,5.786,5.286,6.576,9.01c4.09,1.069,7.691,2.806,10.039,5.652
			c3.032,3.718,4.252,8.134,3.857,12.27c9.98,2.788,19.124,8.97,14.709,21.146c-0.162,0.5-0.395,0.918-0.581,1.348
			c6.344,1.232,9.667,6.344,10.364,11.956h5.298L235.127,312.542z M285.819,115.24H101.222V97.132h184.598V115.24z"/>
		<polygon points="223.427,307.825 228.48,308.151 250.149,248.106 245.224,247.803 		"/>
	</g>
</g>
<g>
</g>
<g>
</g>
<g>
</g>
<g>
</g>
<g>
</g>
<g>
</g>
<g>
</g>
<g>
</g>
<g>
</g>
<g>
</g>
<g>
</g>
<g>
</g>
<g>
</g>
<g>
</g>
<g>
</g>
</svg>
