<?xml version="1.0" encoding="iso-8859-1"?>
<!-- Generator: Adobe Illustrator 16.0.0, SVG Export Plug-In . SVG Version: 6.00 Build 0)  -->
<!DOCTYPE svg PUBLIC "-//W3C//DTD SVG 1.1//EN" "http://www.w3.org/Graphics/SVG/1.1/DTD/svg11.dtd">
<svg version="1.1" id="Capa_1" xmlns="http://www.w3.org/2000/svg" xmlns:xlink="http://www.w3.org/1999/xlink" x="0px" y="0px"
	 width="377.129px" height="377.13px" viewBox="0 0 377.129 377.13" style="enable-background:new 0 0 377.129 377.13;"
	 xml:space="preserve">
<g>
	<path d="M318.258,0.051L188.565,3.571L58.871,0.051c0,0-9.69-1.104-8.139,6.948c1.923,17.788,21.925,61.997,59.186,66.47
		c-3.724,71.542,67.15,134.631,67.15,143.206c0,8.598,0.656,48.672-0.081,80.715c0,42.025-46.295,66.32-68.33,75.487
		c-4.747,2.138-3.34,4.253,0.011,4.253c3.189,0,72.542,0,79.548,0c0.371,0,0.703,0,0.703,0c7.006,0,76.369,0,79.553,0
		c3.357,0,4.752-2.127,0-4.253c-22.041-9.167-68.318-33.462-68.318-75.487c-0.755-32.043-0.093-72.128-0.093-80.715
		c0-8.574,70.874-71.664,67.156-143.206c37.261-4.473,57.257-48.682,59.186-66.47C327.925-1.041,318.258,0.051,318.258,0.051z
		 M175.726,181.157c-2.068-2.295-4.043-4.711-5.926-7.175c-3.816-4.892-7.186-10.103-10.317-15.418
		c-6.245-10.66-11.561-21.854-15.987-33.444c-4.415-11.566-7.924-23.545-10.137-35.884c-1.894-10.468-2.69-21.25-1.94-32.073
		c-3.904-0.349-7.425-1.563-10.573-2.858c-5.002-2.144-9.33-5.077-13.472-8.092c-4.177-2.998-7.878-6.506-11.526-9.992
		c-3.631-3.497-7.093-7.151-10.196-11.113c8.278,5.653,16.568,11.125,25.23,15.552c4.287,2.248,8.696,4.177,13.019,5.554
		c4.27,1.383,8.767,1.824,11.625,0.778l6.878-2.539l-0.372,7.913c-0.522,11.497,0.738,23.179,2.916,34.74
		c2.19,11.578,5.327,23.045,8.889,34.42c3.648,11.351,7.744,22.622,12.31,33.729c2.312,5.548,4.724,11.066,7.273,16.527
		c1.284,2.725,2.684,5.379,4.2,7.982c1.615,2.498,2.923,5.345,5.449,7.093C180.129,185.775,177.783,183.405,175.726,181.157z"/>
</g>
<g>
</g>
<g>
</g>
<g>
</g>
<g>
</g>
<g>
</g>
<g>
</g>
<g>
</g>
<g>
</g>
<g>
</g>
<g>
</g>
<g>
</g>
<g>
</g>
<g>
</g>
<g>
</g>
<g>
</g>
</svg>
