<?xml version="1.0" encoding="iso-8859-1"?>
<!-- Generator: Adobe Illustrator 16.0.0, SVG Export Plug-In . SVG Version: 6.00 Build 0)  -->
<!DOCTYPE svg PUBLIC "-//W3C//DTD SVG 1.1//EN" "http://www.w3.org/Graphics/SVG/1.1/DTD/svg11.dtd">
<svg version="1.1" id="Capa_1" xmlns="http://www.w3.org/2000/svg" xmlns:xlink="http://www.w3.org/1999/xlink" x="0px" y="0px"
	 width="373.517px" height="373.517px" viewBox="0 0 373.517 373.517" style="enable-background:new 0 0 373.517 373.517;"
	 xml:space="preserve">
<g>
	<g>
		<path d="M147.527,160.582c0,0,18.428,17.253,24.33,26.769c5.913,9.505,13.204,30.593,13.204,30.593s-0.569-21.449-8.22-33.962
			C169.202,171.48,147.527,160.582,147.527,160.582z"/>
		<path d="M57.866,52.447v-34.02l5.211-6.256H319.63V0H57.378L45.696,14.03v38.417h-0.035v321.07h282.194V52.447H57.866z
			 M244.979,156.515c-10.771,9.266-27.502,24.638-34.38,33.718c-9.748,12.861-19.275,46.16-19.275,54.549c0,7.32,0,40.922,0,49.38
			h0.047c0,0.232,0,0.465,0.011,0.697c0,16.685,18.393,26.362,27.142,29.999c1.882,0.825,1.325,1.697,0,1.697
			c-1.267,0-28.814,0-31.603,0c0,0-0.134,0-0.273,0c-2.782,0-35.042,0-36.302,0c-1.331,0-1.9-0.86,0-1.697
			c8.76-3.637,31.841-13.291,31.841-29.999c0-0.232,0.012-0.465,0.012-0.697c0-8.296,0-42.152,0-49.519
			c0-8.365-10.469-43.059-20.217-55.927c-6.873-9.085-22.65-23.057-33.444-32.3c-4.508-3.88-2.841-6.39,2.62-6.39
			c5.211,0,31.207,2.039,55.606,2.039c24.405,0,50.141-1.929,55.613-1.929C247.838,150.137,249.487,152.658,244.979,156.515z
			 M281.799,113.479H97.201V95.384h184.598V113.479L281.799,113.479z"/>
	</g>
</g>
<g>
</g>
<g>
</g>
<g>
</g>
<g>
</g>
<g>
</g>
<g>
</g>
<g>
</g>
<g>
</g>
<g>
</g>
<g>
</g>
<g>
</g>
<g>
</g>
<g>
</g>
<g>
</g>
<g>
</g>
</svg>
