<?xml version="1.0" encoding="iso-8859-1"?>
<!-- Generator: Adobe Illustrator 16.0.0, SVG Export Plug-In . SVG Version: 6.00 Build 0)  -->
<!DOCTYPE svg PUBLIC "-//W3C//DTD SVG 1.1//EN" "http://www.w3.org/Graphics/SVG/1.1/DTD/svg11.dtd">
<svg version="1.1" id="Capa_1" xmlns="http://www.w3.org/2000/svg" xmlns:xlink="http://www.w3.org/1999/xlink" x="0px" y="0px"
	 width="380.721px" height="380.721px" viewBox="0 0 380.721 380.721" style="enable-background:new 0 0 380.721 380.721;"
	 xml:space="preserve">
<g>
	<g>
		<path d="M221.493,29.994c0.197-1.214,0.372-2.417,0.372-3.689C221.865,11.781,210.084,0,195.561,0
			c-14.529,0-26.322,11.781-26.322,26.305c0,1.76,0.203,3.474,0.528,5.142C125.186,42.722,107.34,77.38,107.34,77.38h182.634
			C289.974,77.38,270.605,39.44,221.493,29.994z"/>
		<polygon points="189.885,274.096 220.738,274.096 220.738,264.754 189.885,264.754 189.885,246.781 220.738,246.781 
			220.738,237.452 189.885,237.452 189.885,217.188 220.738,217.188 220.738,207.846 189.885,207.846 189.885,189.53 
			220.738,189.53 220.738,180.188 189.885,180.188 189.885,164.079 220.738,164.079 220.738,154.749 189.885,154.749 
			189.885,134.289 179.556,134.289 179.556,294.557 189.885,294.557 		"/>
		<path d="M227.035,330.168c50.065,0,94.286,0,103.186,0c8.237-106.276-11.352-175.408-11.352-175.408s40.235-25.793,46.417-64.995
			c-50.553,0-264.122,0-264.122,0s-4.235,7.686-9.731,23.975c-31.068,9.661-74.586,35.965-75.957,86.797
			c-1.406,52.47,32.957,88.696,50.495,103.743c-0.047,8.4-0.07,16.928,0.093,25.898c12.896,0,52.877,0,98.015,0v11.352H55.242
			v39.189h286.831V341.52H227.023v-11.352H227.035z M48.503,201.445c0.645-23.911,16.493-38.568,32.009-47.242
			c-5.583,25.747-10.701,59.872-13.1,103.383C57.083,243.481,47.887,224.379,48.503,201.445z M197.129,106.625
			c29.232,0,52.958,46.661,52.958,104.208c0,57.535-23.726,104.196-52.958,104.196c-29.256,0-52.97-46.661-52.97-104.196
			C144.159,153.285,167.873,106.625,197.129,106.625z"/>
	</g>
</g>
<g>
</g>
<g>
</g>
<g>
</g>
<g>
</g>
<g>
</g>
<g>
</g>
<g>
</g>
<g>
</g>
<g>
</g>
<g>
</g>
<g>
</g>
<g>
</g>
<g>
</g>
<g>
</g>
<g>
</g>
</svg>
