<?xml version="1.0" encoding="iso-8859-1"?>
<!-- Generator: Adobe Illustrator 16.0.0, SVG Export Plug-In . SVG Version: 6.00 Build 0)  -->
<!DOCTYPE svg PUBLIC "-//W3C//DTD SVG 1.1//EN" "http://www.w3.org/Graphics/SVG/1.1/DTD/svg11.dtd">
<svg version="1.1" id="Capa_1" xmlns="http://www.w3.org/2000/svg" xmlns:xlink="http://www.w3.org/1999/xlink" x="0px" y="0px"
	 width="241.518px" height="241.518px" viewBox="0 0 241.518 241.518" style="enable-background:new 0 0 241.518 241.518;"
	 xml:space="preserve">
<g>
	<path d="M171.602,239.519c-13.78-4.24-42.442-15.383-43.396-34.542c0,0,0.15-24.26,0.174-44.058
		c4.938-2.707,8.308-7.878,8.308-13.896c0-3.241-0.976-6.25-2.638-8.771c7.762-12.967,22.018-25.248,32.51-40.492
		C181.606,75.893,164.212,0,164.212,0s-30.777,3.282-44.406,3.282C106.171,3.282,77.502,0,77.502,0s-17.387,75.893-2.347,97.759
		c10.434,15.174,24.603,27.403,32.422,40.294c-1.737,2.556-2.76,5.646-2.76,8.969c0,6.111,3.485,11.34,8.528,14.023
		c0,18.23,0,40.131,0,43.466c-0.477,19.45-29.529,30.72-43.448,35.007c-3.021,1-2.132,1.999,0,1.999c2.033,0,46.185,0,50.646,0
		c0.249,0,0.453,0,0.453,0c4.461,0,48.606,0,50.628,0C173.751,241.518,174.646,240.519,171.602,239.519z M83.137,77.357
		c-3.032-21.012,5.025-63.949,5.025-63.949s0.5,40.916,4.647,61.904c4.154,20.983,20.635,52.801,20.635,52.801
		S86.176,98.37,83.137,77.357z"/>
</g>
<g>
</g>
<g>
</g>
<g>
</g>
<g>
</g>
<g>
</g>
<g>
</g>
<g>
</g>
<g>
</g>
<g>
</g>
<g>
</g>
<g>
</g>
<g>
</g>
<g>
</g>
<g>
</g>
<g>
</g>
</svg>
