<?xml version="1.0" encoding="iso-8859-1"?>
<!-- Generator: Adobe Illustrator 16.0.0, SVG Export Plug-In . SVG Version: 6.00 Build 0)  -->
<!DOCTYPE svg PUBLIC "-//W3C//DTD SVG 1.1//EN" "http://www.w3.org/Graphics/SVG/1.1/DTD/svg11.dtd">
<svg version="1.1" id="Capa_1" xmlns="http://www.w3.org/2000/svg" xmlns:xlink="http://www.w3.org/1999/xlink" x="0px" y="0px"
	 width="259.144px" height="259.144px" viewBox="0 0 259.144 259.144" style="enable-background:new 0 0 259.144 259.144;"
	 xml:space="preserve">
<g>
	<path d="M178.628,256.54c-13.536-5.646-41.943-20.553-41.943-46.358h0.022c0,0,0-27.095,0-44.94
		c5.508-2.673,9.348-8.273,9.348-14.803c0-2.614-0.674-5.077-1.771-7.262c6.832-4.752,16.382-11.7,20.553-23.307
		c6.693-18.683,0-40.538,0-54.991C164.836,50.419,199.355,0,192.303,0c-5.367,0-34.101,2.33-62.734,2.33
		C100.928,2.33,72.294,0,66.845,0C59.774,0,94.34,50.408,94.34,64.867c0,14.454-6.698,36.308,0,54.991
		c4.166,11.607,13.704,18.543,20.524,23.307c-1.098,2.196-1.766,4.647-1.766,7.273c0,6.529,3.834,12.142,9.364,14.803
		c0,17.846,0,44.93,0,44.93c0,25.805-28.419,40.711-41.961,46.346c-2.904,1.302-2.045,2.627,0.012,2.627c1.952,0,44.546,0,48.84,0
		c0.237,0,0.43,0,0.43,0c4.293,0,46.893,0,48.845,0C180.685,259.144,181.556,257.83,178.628,256.54z M114.754,129.328
		c-2.451-2.533-6.437-5.81-9.242-11.921c-0.703-1.453-1.191-3.521-1.336-5.356c-0.116-1.603-0.221-3.247-0.343-4.961
		c-0.192-3.404-0.377-6.995-0.592-10.707c-0.396-7.424-0.442-15.36-0.535-23.284c0.058-3.962,0.104-7.924,0.151-11.828l0.134-5.403
		c-0.099-2.236-0.372-3.021-0.802-4.566c-2.01-6.326-5.565-12.374-8.383-17.457c-2.963-5.066-5.438-9.405-7.343-12.31
		c-1.818-2.998-2.858-4.711-2.858-4.711s6.367,4.938,14.349,14.076c3.881,4.676,8.377,10.137,11.613,17.771
		c0.796,1.929,1.534,4.822,1.667,6.414c0.227,2.69,0.192,4.072,0.227,6.187c0.059,3.892,0.104,7.854,0.169,11.816
		c-0.099,7.936-0.157,15.871-0.541,23.295c-0.215,3.724-0.401,7.302-0.592,10.707c-0.134,1.714-0.238,3.358-0.343,4.961
		c-0.122,1.371-0.11,2.394,0.238,3.724c1.307,5.106,3.909,9.58,5.71,12.432c1.877,2.945,2.963,4.619,2.963,4.619
		S117.362,131.709,114.754,129.328z"/>
</g>
<g>
</g>
<g>
</g>
<g>
</g>
<g>
</g>
<g>
</g>
<g>
</g>
<g>
</g>
<g>
</g>
<g>
</g>
<g>
</g>
<g>
</g>
<g>
</g>
<g>
</g>
<g>
</g>
<g>
</g>
</svg>
