<?xml version="1.0" encoding="iso-8859-1"?>
<!-- Generator: Adobe Illustrator 16.0.0, SVG Export Plug-In . SVG Version: 6.00 Build 0)  -->
<!DOCTYPE svg PUBLIC "-//W3C//DTD SVG 1.1//EN" "http://www.w3.org/Graphics/SVG/1.1/DTD/svg11.dtd">
<svg version="1.1" id="Capa_1" xmlns="http://www.w3.org/2000/svg" xmlns:xlink="http://www.w3.org/1999/xlink" x="0px" y="0px"
	 width="32.009px" height="32.009px" viewBox="0 0 32.009 32.009" style="enable-background:new 0 0 32.009 32.009;"
	 xml:space="preserve">
<g>
	<path d="M31.4,13.014c-0.528-0.066-6.153,0.938-7.133,1.175c-0.979,0.235-2.92,0.897-2.92,0.897l0.004,0.107l-0.896,0.067
		c0.011-0.271-0.065-0.548-0.274-0.827c-1.082,0-9.948,0-9.948,0s-8.864,0-9.948,0c-1.145,1.527,1.516,3.798,1.516,3.798H1.401
		v0.767h18.055v-0.764h-0.957c0,0,1.401-1.49,1.829-2.444l1.033-0.079l0.002,0.149c0,0,1.875-0.567,3.027-0.683
		c1.151-0.112,6.271-0.457,7.026-0.518C32.175,14.603,32.243,13.119,31.4,13.014z M2.953,17.734
		c-0.364-0.148-0.812-0.416-1.192-0.789c-0.369-0.37-0.698-0.871-0.692-1.358c-0.013-0.224,0.121-0.465,0.196-0.516
		c0.09-0.074,0.149-0.111,0.149-0.111s-0.003,0.069-0.023,0.184c-0.028,0.133,0.032,0.224,0.1,0.364
		c0.02,0.062,0.1,0.134,0.137,0.206c0.06,0.069,0.123,0.146,0.188,0.224c0.149,0.148,0.298,0.317,0.474,0.478
		c0.331,0.332,0.675,0.679,0.917,0.972c0.239,0.297,0.39,0.526,0.39,0.526S3.321,17.877,2.953,17.734z"/>
</g>
<g>
</g>
<g>
</g>
<g>
</g>
<g>
</g>
<g>
</g>
<g>
</g>
<g>
</g>
<g>
</g>
<g>
</g>
<g>
</g>
<g>
</g>
<g>
</g>
<g>
</g>
<g>
</g>
<g>
</g>
</svg>
