<?xml version="1.0" encoding="iso-8859-1"?>
<!-- Generator: Adobe Illustrator 16.0.0, SVG Export Plug-In . SVG Version: 6.00 Build 0)  -->
<!DOCTYPE svg PUBLIC "-//W3C//DTD SVG 1.1//EN" "http://www.w3.org/Graphics/SVG/1.1/DTD/svg11.dtd">
<svg version="1.1" id="Capa_1" xmlns="http://www.w3.org/2000/svg" xmlns:xlink="http://www.w3.org/1999/xlink" x="0px" y="0px"
	 width="32px" height="32px" viewBox="0 0 32 32" style="enable-background:new 0 0 32 32;" xml:space="preserve">
<g>
	<path d="M29.307,12.793c-0.402,0.141-0.922,0.63-1.242,0.96c0-0.89,0-1.591,0-1.591H3.712c0,0,0,0.585,0,1.367
		c-0.31-0.297-0.7-0.625-1.017-0.736c-0.62-0.221-2.695,0-2.695,0v0.839c0,0,2.038-0.072,2.477,0.184
		c0.422,0.244,0.876,2.241,1.235,2.394c0,0.45,0,0.829,0,1.056c0,1.021,0.976,2.571,2.839,2.571c1.358,0,4.079,0,5.456,0
		c0.511,0,0.843,0,0.843,0c1.377,0,11.018,0,12.376,0c1.86,0,2.838-1.553,2.838-2.571c0-0.226,0-0.599,0-1.039
		c0.068,0,0.135,0,0.184,0c0.363,0,0.839-2.155,1.277-2.41C29.963,13.56,32,13.632,32,13.632v-0.839
		C32,12.793,29.926,12.572,29.307,12.793z M6.659,18.651c-0.104,0.004-0.201-0.062-0.333-0.119c-0.141-0.057-0.23-0.172-0.361-0.289
		c-0.229-0.246-0.415-0.582-0.547-0.947c-0.052-0.184-0.139-0.373-0.166-0.568c-0.036-0.195-0.081-0.394-0.104-0.59
		c-0.089-0.796-0.02-1.585,0.112-2.165c0.124-0.582,0.317-0.954,0.317-0.954s0.141,0.393,0.254,0.96
		c0.121,0.568,0.221,1.314,0.31,2.041c0.03,0.367,0.09,0.72,0.129,1.052c0.029,0.164,0.057,0.316,0.077,0.472
		c0.046,0.129,0.064,0.278,0.104,0.396c0.053,0.1,0.072,0.242,0.133,0.312c0.06,0.069,0.096,0.185,0.159,0.222
		c0.133,0.108,0.209,0.172,0.209,0.172S6.861,18.657,6.659,18.651z"/>
</g>
<g>
</g>
<g>
</g>
<g>
</g>
<g>
</g>
<g>
</g>
<g>
</g>
<g>
</g>
<g>
</g>
<g>
</g>
<g>
</g>
<g>
</g>
<g>
</g>
<g>
</g>
<g>
</g>
<g>
</g>
</svg>
