<?xml version="1.0" encoding="iso-8859-1"?>
<!-- Generator: Adobe Illustrator 16.0.0, SVG Export Plug-In . SVG Version: 6.00 Build 0)  -->
<!DOCTYPE svg PUBLIC "-//W3C//DTD SVG 1.1//EN" "http://www.w3.org/Graphics/SVG/1.1/DTD/svg11.dtd">
<svg version="1.1" id="Capa_1" xmlns="http://www.w3.org/2000/svg" xmlns:xlink="http://www.w3.org/1999/xlink" x="0px" y="0px"
	 width="32.002px" height="32.002px" viewBox="0 0 32.002 32.002" style="enable-background:new 0 0 32.002 32.002;"
	 xml:space="preserve">
<g>
	<path d="M31.308,13.543c-0.604-0.066-7.021,0.943-8.139,1.18c-1.115,0.237-3.329,0.903-3.329,0.903l0.002,0.115l-0.356,0.024
		c0.096-0.158-0.014-0.279-0.182-0.3c-2.655,0-18.94,0-19.047,0c-0.117,0-0.331,0.041-0.231,0.37
		c0.078,0.256,0.426,1.89,0.584,2.167H0.354v0.459h0.318h17.854h0.435v-0.459h-0.34c0.116-0.163,0.315-1.438,0.5-1.7l0.733-0.051
		l0.004,0.15c0,0,2.139-0.571,3.453-0.686c1.312-0.113,7.154-0.459,8.019-0.519C32.191,15.139,32.267,13.649,31.308,13.543z"/>
</g>
<g>
</g>
<g>
</g>
<g>
</g>
<g>
</g>
<g>
</g>
<g>
</g>
<g>
</g>
<g>
</g>
<g>
</g>
<g>
</g>
<g>
</g>
<g>
</g>
<g>
</g>
<g>
</g>
<g>
</g>
</svg>
