<?xml version="1.0" encoding="iso-8859-1"?>
<!-- Generator: Adobe Illustrator 16.0.0, SVG Export Plug-In . SVG Version: 6.00 Build 0)  -->
<!DOCTYPE svg PUBLIC "-//W3C//DTD SVG 1.1//EN" "http://www.w3.org/Graphics/SVG/1.1/DTD/svg11.dtd">
<svg version="1.1" id="Capa_1" xmlns="http://www.w3.org/2000/svg" xmlns:xlink="http://www.w3.org/1999/xlink" x="0px" y="0px"
	 width="380.732px" height="380.732px" viewBox="0 0 380.732 380.732" style="enable-background:new 0 0 380.732 380.732;"
	 xml:space="preserve">
<g>
	<g>
		<path d="M0,267.397v19.752c0,0,57.582-1.115,70.363-1.115c12.763,0,32.038,42.408,44.331,42.408c12.287,0,131.808,0,148.19,0
			s38.318-42.408,53.271-42.408c14.941,0,64.576,0,64.576,0v-19.752L0,267.397z"/>
		<path d="M133.429,165.293c1.632,3.044,2.736,3.904,4.188,5.972l3.677,4.438c0.691,1.487,1.784,2.655,2.271,4.27
			c1.203,3.108,2.51,6.367,2.905,9.946c1.191,7.035,1.092,14.367,0.785,20.803c-0.854,12.851-2.104,22.262-2.104,22.262
			s6.873-6.669,12.333-19.845c1.359-3.265,2.713-6.948,3.573-11.05c0.865-4.089,1.726-8.562,1.534-13.407
			c0-4.758-0.581-10.027-2.487-15.133c-0.749-2.614-2.347-5.02-3.584-7.552c-0.697-1.237-1.65-2.324-2.486-3.486l-1.319-1.713
			l-0.668-0.813l-0.151-0.209c0.069,0.093,0.215,0.221,0.465,0.523l-0.076-0.111l-0.238-0.308c-1.15-1.557-3.422-3.805-3.683-4.781
			c-0.54-1.156-1.313-2.109-1.836-3.869c-1.249-3.044-2.213-6.529-2.725-10.102c-1.069-7.123-0.93-14.489-0.639-20.937
			c0.865-12.896,1.986-22.308,1.986-22.308s-6.797,6.721-12.258,19.868c-2.736,6.542-5.152,14.721-5.269,24.33
			c0.116,4.734,0.203,9.945,2.178,15.087C130.419,159.641,131.895,162.522,133.429,165.293z"/>
		<path d="M173.909,119.678c1.649,3.079,2.735,3.927,4.188,5.995l3.671,4.415c0.703,1.464,1.79,2.69,2.277,4.293
			c1.197,3.073,2.51,6.344,2.899,9.911c1.19,7.058,1.098,14.407,0.784,20.821c-0.831,12.873-2.092,22.25-2.092,22.25
			s6.866-6.663,12.327-19.821c1.365-3.282,2.713-6.948,3.567-11.102c0.889-4.055,1.737-8.517,1.54-13.362
			c0-4.746-0.559-10.039-2.492-15.145c-0.75-2.603-2.342-5.031-3.579-7.552c-0.715-1.238-1.655-2.324-2.51-3.486l-1.302-1.714
			l-0.674-0.836l-0.133-0.209c0.058,0.104,0.215,0.244,0.383,0.424l-0.238-0.285c-1.133-1.58-3.416-3.793-3.665-4.792
			c-0.534-1.145-1.319-2.085-1.842-3.881c-1.255-3.032-2.226-6.529-2.713-10.079c-1.063-7.146-0.93-14.5-0.646-20.96
			c0.854-12.885,1.987-22.273,1.987-22.273s-6.803,6.721-12.264,19.833c-2.725,6.53-5.152,14.744-5.274,24.33
			c0.133,4.723,0.203,9.957,2.167,15.122C170.911,114.049,172.369,116.93,173.909,119.678z"/>
		<path d="M223.938,161.046c1.627,3.056,2.72,3.927,4.16,5.972l3.671,4.427c0.697,1.476,1.789,2.667,2.277,4.293
			c1.209,3.079,2.51,6.344,2.904,9.922c1.186,7.041,1.093,14.395,0.791,20.797c-0.837,12.896-2.092,22.262-2.092,22.262
			s6.867-6.658,12.327-19.834c1.371-3.252,2.708-6.971,3.567-11.06c0.871-4.096,1.72-8.546,1.533-13.402
			c0-4.746-0.558-10.015-2.486-15.122c-0.743-2.626-2.347-5.042-3.578-7.564c-0.709-1.226-1.65-2.3-2.486-3.474l-1.302-1.702
			l-0.674-0.848l-0.162-0.227c0.093,0.099,0.209,0.25,0.453,0.546l-0.047-0.093l-0.244-0.343c-1.161-1.562-3.438-3.77-3.671-4.769
			c-0.559-1.145-1.325-2.109-1.859-3.881c-1.231-3.032-2.207-6.542-2.719-10.091c-1.068-7.14-0.918-14.5-0.627-20.948
			c0.824-12.885,1.975-22.285,1.975-22.285s-6.809,6.733-12.246,19.879c-2.742,6.542-5.17,14.704-5.275,24.294
			c0.094,4.735,0.163,9.98,2.139,15.11C220.917,155.394,222.381,158.275,223.938,161.046z"/>
	</g>
</g>
<g>
</g>
<g>
</g>
<g>
</g>
<g>
</g>
<g>
</g>
<g>
</g>
<g>
</g>
<g>
</g>
<g>
</g>
<g>
</g>
<g>
</g>
<g>
</g>
<g>
</g>
<g>
</g>
<g>
</g>
</svg>
