<?xml version="1.0" encoding="iso-8859-1"?>
<!-- Generator: Adobe Illustrator 16.0.0, SVG Export Plug-In . SVG Version: 6.00 Build 0)  -->
<!DOCTYPE svg PUBLIC "-//W3C//DTD SVG 1.1//EN" "http://www.w3.org/Graphics/SVG/1.1/DTD/svg11.dtd">
<svg version="1.1" id="Capa_1" xmlns="http://www.w3.org/2000/svg" xmlns:xlink="http://www.w3.org/1999/xlink" x="0px" y="0px"
	 width="32px" height="32px" viewBox="0 0 32 32" style="enable-background:new 0 0 32 32;" xml:space="preserve">
<g>
	<g>
		<path d="M18.938,15.222c0-0.659,0.155-1.365-1.611-1.365c-0.532,0-2.027,0-3.895,0c-0.512-0.253-1.133-0.449-1.829-0.573
			c0.012-0.36-0.033-1.009-0.443-1.48c-0.207-0.24-0.593-0.524-1.257-0.524s-1.045,0.285-1.248,0.524
			c-0.399,0.473-0.433,1.115-0.415,1.48c-0.698,0.123-1.32,0.319-1.832,0.573c-2.302,0-4.189,0-4.703,0
			c-1.451,0-1.275,0.82-1.275,1.365C1.085,15.222,18.461,15.222,18.938,15.222z M9.26,12.313c0.139-0.163,0.349-0.242,0.642-0.242
			c0.296,0,0.51,0.08,0.654,0.246c0.199,0.229,0.249,0.595,0.252,0.859c-0.29-0.025-0.586-0.043-0.891-0.043s-0.6,0.018-0.89,0.043
			C9.024,12.911,9.065,12.543,9.26,12.313z"/>
		<path d="M31.309,14.509c-0.603-0.067-7.004,0.938-8.115,1.176c-1.112,0.237-3.32,0.9-3.32,0.9l0.003,0.105l-0.619,0.043
			c-0.034-0.271-0.094-0.505-0.147-0.646h0.242v-0.44H0v0.44h0.258c-0.116,0.296-0.239,0.963-0.164,1.586
			c0.09,0.752,0.693,2.206,0.802,2.463H0.421v0.584H0.9h17.547h0.494v-0.584h-0.478c0.099-0.229,0.711-1.699,0.806-2.464
			c0.017-0.142,0.021-0.28,0.02-0.422l0.596-0.04l0.004,0.148c0,0,2.135-0.567,3.445-0.685c1.312-0.112,7.137-0.457,7.996-0.519
			C32.188,16.101,32.266,14.614,31.309,14.509z M1.411,17.469c0.017-0.241,0.098-0.459,0.158-0.641
			c0.138-0.359,0.326-0.546,0.326-0.546s-0.031,0.255-0.044,0.607c-0.014,0.353,0.009,0.818,0.071,1.25
			c0.038,0.25,0.09,0.467,0.136,0.668c0.055,0.209,0.104,0.41,0.166,0.578c0.061,0.168,0.1,0.315,0.142,0.416
			c0.036,0.104,0.058,0.162,0.058,0.162S2.21,19.819,1.98,19.513c-0.105-0.156-0.228-0.343-0.331-0.562
			c-0.097-0.231-0.173-0.483-0.213-0.716c-0.035-0.143-0.026-0.264-0.039-0.394C1.381,17.717,1.403,17.591,1.411,17.469z"/>
	</g>
</g>
<g>
</g>
<g>
</g>
<g>
</g>
<g>
</g>
<g>
</g>
<g>
</g>
<g>
</g>
<g>
</g>
<g>
</g>
<g>
</g>
<g>
</g>
<g>
</g>
<g>
</g>
<g>
</g>
<g>
</g>
</svg>
