<?xml version="1.0" encoding="iso-8859-1"?>
<!-- Generator: Adobe Illustrator 16.0.0, SVG Export Plug-In . SVG Version: 6.00 Build 0)  -->
<!DOCTYPE svg PUBLIC "-//W3C//DTD SVG 1.1//EN" "http://www.w3.org/Graphics/SVG/1.1/DTD/svg11.dtd">
<svg version="1.1" id="Capa_1" xmlns="http://www.w3.org/2000/svg" xmlns:xlink="http://www.w3.org/1999/xlink" x="0px" y="0px"
	 width="381.673px" height="381.673px" viewBox="0 0 381.673 381.673" style="enable-background:new 0 0 381.673 381.673;"
	 xml:space="preserve">
<g>
	<g>
		<path d="M150.148,9.568l1.656,69.707h-19.955V1.592c-0.215-0.046-0.407-0.163-0.633-0.209c-3.044-0.813-6.169-1.29-9.405-1.348V0
			c-0.133,0-0.25,0-0.314,0v0.012c-0.081,0-0.174-0.012-0.25-0.012c-0.116,0-0.238,0.023-0.343,0.035
			C120.793,0.023,120.688,0,120.584,0c-0.099,0-0.168,0.012-0.261,0.012V0c-0.052,0-0.18,0-0.302,0v0.035
			c-3.224,0.058-6.338,0.535-9.376,1.348v77.892H90.695L93.554,8.72C76.631,19.642,65.413,39.585,65.413,60.69
			c0,28.506,25.352,47.898,33.525,53.289c2.69,1.771,7.309,3.137,12.624,4.02c0.069,0.011,0.145,0.058,0.238,0.069
			c4.711,44.465-1.022,70.52-4.415,79.646c0,7.75,0,170.516,0,170.516h0.023c0,0.093-0.023,0.163-0.023,0.243
			c0,7.285,5.914,13.199,13.187,13.199c0.128,0,0.221-0.047,0.332-0.069c0.116,0.022,0.238,0.069,0.343,0.069
			c7.273,0,13.181-5.914,13.181-13.199c0-0.092-0.023-0.162-0.035-0.243h0.035c0,0,0-162.766,0-170.516
			c-3.398-9.138-9.121-35.181-4.397-79.646c0.069-0.011,0.14-0.058,0.238-0.069c5.292-0.883,9.922-2.249,12.624-4.02
			c8.185-5.391,36.047-25.271,36.047-53.789C178.939,39.689,166.972,20.536,150.148,9.568z"/>
		<path d="M275.652,1.383c-3.043-0.813-6.192-1.29-9.422-1.348V0c-0.116,0-0.256,0-0.303,0v0.012c-0.093,0-0.174-0.012-0.256-0.012
			c-0.115,0-0.231,0.023-0.324,0.035C265.23,0.023,265.115,0,264.998,0c-0.093,0-0.162,0.012-0.255,0.012V0
			c-0.047,0-0.187,0-0.302,0v0.035c-3.219,0.058-6.367,0.535-9.412,1.348c-26.061,5.949-40.596,31.516-40.596,59.116
			c0,28.506,20.752,48.09,28.942,53.481c2.708,1.771,7.32,3.137,12.63,4.02c0.069,0.011,0.15,0.058,0.232,0.069
			c4.717,44.465-1.011,70.52-4.415,79.646c0,7.75,0,170.516,0,170.516h0.034c-0.012,0.093-0.034,0.163-0.034,0.243
			c0,7.285,5.925,13.199,13.198,13.199c0.116,0,0.221-0.047,0.326-0.069c0.115,0.022,0.232,0.069,0.336,0.069
			c7.262,0,13.188-5.914,13.188-13.199c0-0.092-0.023-0.162-0.023-0.243h0.023c0,0,0-162.766,0-170.516
			c-3.393-9.138-9.132-35.181-4.415-79.646c0.093-0.011,0.163-0.058,0.244-0.069c5.298-0.883,9.923-2.237,12.63-4.02
			c8.18-5.391,28.93-24.975,28.93-53.481C316.237,32.91,301.714,7.332,275.652,1.383z M247.547,99.438
			c-1.626-1.51-4.02-3.677-6.297-6.698c-4.693-5.972-10.41-14.442-13.164-24.783c-0.593-2.806-0.848-5.211-0.895-7.936
			c0-2.625,0.186-5.101,0.488-7.494c0.627-4.781,1.824-9.104,2.997-12.734c1.139-3.637,2.696-6.483,3.927-8.383
			c1.221-1.999,2.708-2.347,2.627-2.324c0.022,0.012-1.069,0.738-1.627,2.835c-0.744,1.987-1.209,5.042-1.789,8.65
			c-0.559,3.602-0.883,7.877-1.023,12.386c-0.115,2.236-0.069,4.589,0.082,6.826c0.069,2.19,0.43,4.723,0.941,6.756
			c2.486,8.9,6.982,17.8,10.294,24.335c1.789,3.212,3.125,6.019,4.345,7.802c1.093,1.807,1.976,2.76,1.976,2.76
			S249.244,100.972,247.547,99.438z"/>
	</g>
</g>
<g>
</g>
<g>
</g>
<g>
</g>
<g>
</g>
<g>
</g>
<g>
</g>
<g>
</g>
<g>
</g>
<g>
</g>
<g>
</g>
<g>
</g>
<g>
</g>
<g>
</g>
<g>
</g>
<g>
</g>
</svg>
