<?xml version="1.0" encoding="iso-8859-1"?>
<!-- Generator: Adobe Illustrator 16.0.0, SVG Export Plug-In . SVG Version: 6.00 Build 0)  -->
<!DOCTYPE svg PUBLIC "-//W3C//DTD SVG 1.1//EN" "http://www.w3.org/Graphics/SVG/1.1/DTD/svg11.dtd">
<svg version="1.1" id="Capa_1" xmlns="http://www.w3.org/2000/svg" xmlns:xlink="http://www.w3.org/1999/xlink" x="0px" y="0px"
	 width="380.721px" height="380.721px" viewBox="0 0 380.721 380.721" style="enable-background:new 0 0 380.721 380.721;"
	 xml:space="preserve">
<g>
	<g>
		<path d="M156.364,92.932h-11.549V0h-7.878v92.932v54.097v5.211h0.784c11.968,31.312,0.715,69.886,0.715,75.894
			c0,6.703,0,140.969,0,140.969h0.023c0,0.082-0.023,0.151-0.023,0.221c0,6.286,5.106,11.398,11.398,11.398
			c6.28,0,11.386-5.112,11.386-11.41c0-0.069-0.023-0.139-0.023-0.209h0.023c0,0,0-132.999,0-140.748
			c0-6.994-7.831-51.006,2.236-76.114h0.785v-5.211V92.932V0h-7.877V92.932z"/>
		<path d="M236.347,119.725v48.316h-10.898v-48.316h-7.412v48.316v34.647v5.217c11.99,31.301,0.721,69.875,0.721,75.893
			c0,6.693,0,84.26,0,84.26h0.023c0,0.069-0.023,0.15-0.023,0.221c0,6.285,5.111,11.397,11.386,11.397
			c6.298,0,11.398-5.112,11.398-11.397c0-0.07-0.023-0.151-0.023-0.221h0.023c0,0,0-76.289,0-84.039
			c0-6.994-7.831-51.006,2.242-76.113V202.7v-34.647v-48.316h-7.437V119.725z"/>
	</g>
</g>
<g>
</g>
<g>
</g>
<g>
</g>
<g>
</g>
<g>
</g>
<g>
</g>
<g>
</g>
<g>
</g>
<g>
</g>
<g>
</g>
<g>
</g>
<g>
</g>
<g>
</g>
<g>
</g>
<g>
</g>
</svg>
