<?xml version="1.0" encoding="iso-8859-1"?>
<!-- Generator: Adobe Illustrator 16.0.0, SVG Export Plug-In . SVG Version: 6.00 Build 0)  -->
<!DOCTYPE svg PUBLIC "-//W3C//DTD SVG 1.1//EN" "http://www.w3.org/Graphics/SVG/1.1/DTD/svg11.dtd">
<svg version="1.1" id="Capa_1" xmlns="http://www.w3.org/2000/svg" xmlns:xlink="http://www.w3.org/1999/xlink" x="0px" y="0px"
	 width="380.904px" height="380.904px" viewBox="0 0 380.904 380.904" style="enable-background:new 0 0 380.904 380.904;"
	 xml:space="preserve">
<g>
	<g>
		<path d="M322.758,126.478c0-10.84,0-29.686,0-39.928c0-10.242-9.364-31.446-9.364-31.446h-2.824v59.895h-8.295V55.104h-5.299
			h-4.589v59.895h-8.308V55.104h-3.532c0,0-9.364,21.204-9.364,31.446c0,10.242,0,27.676,0,39.928
			c0,11.7,17.056,29.07,18.578,30.592c5.507,30.941-0.871,127.295-7.029,143.921c0,8.946,0,58.454,0,58.454h0.035
			c-0.012,0.092-0.035,0.197-0.035,0.301c0,8.389,4.764,15.441,13.164,15.453c0.43-0.012,2.045-0.012,2.475-0.012
			c8.4,0,12.873-6.809,12.873-15.197c0-0.104-0.012-0.209-0.023-0.312h0.023c0,0,0-49.484,0-58.443
			c-6.192-16.684-12.361-114.054-6.669-144.57C307.48,153.451,322.758,136.284,322.758,126.478z"/>
		<path d="M233.422,36.904v85.508h-6.367V36.904c-2.638,0-4.718,0-4.718,0s-1.486,0-3.531,0v85.508h-6.344V36.904
			c-2.736,0-5.177,0-5.891,0c-1.883,0-11.543,91.619-7.07,99.869c3.097,5.699,11.148,15.667,15.807,21.297
			c5.206,31.992-1.127,126.493-7.203,142.933c0,8.946,0,58.453,0,58.453h0.035c-0.012,0.093-0.035,0.198-0.035,0.313
			c0,8.377,4.752,15.43,13.164,15.441c0.43-0.012,2.045-0.012,2.463-0.012c8.412,0,12.874-6.809,12.874-15.197
			c0-0.104-0.012-0.209-0.023-0.313h0.023c0,0,0-49.483,0-58.442c-6.112-16.51-12.224-112.067-6.844-143.618
			c4.729-5.688,12.433-15.279,15.453-20.833c4.473-8.243-5.194-99.868-7.076-99.868C237.523,36.904,235.653,36.904,233.422,36.904z"
			/>
		<path d="M163.884,2.007c-0.836,0-2.428,0-4.368,0v107.792h-8.471V2.007c-2.294,0-4.52,0-6.367,0v107.792h-8.47V2.007
			c-1.917,0-4.316,0-6.832,0v107.031h-8.482V2.007c-1.94,0-3.521,0-4.351,0c-3.893,0-16.255,112.347-11.306,126.016
			c3.044,8.412,13.031,18.811,20.275,25.573h-0.511c0.273,0.104,0.546,0.197,0.831,0.296c0.941,0.865,1.795,1.655,2.608,2.376
			c8.145,14.576,1.986,45.116-4.665,63.054c0,8.946,0,146.082,0,146.082l0.035-0.012c-0.011,0.093-0.035,0.197-0.035,0.302
			c0,8.4,6.803,15.197,15.203,15.209c0.43,0,2.045,0,2.475,0c8.4,0,15.215-6.809,15.215-15.186c0-0.116-0.012-0.221-0.035-0.313
			h0.035c0,0,0-137.124,0-146.07c-6.646-17.938-12.81-48.479-4.671-63.055c0.808-0.732,1.673-1.51,2.603-2.376
			c0.273-0.11,0.546-0.191,0.831-0.296h-0.523c7.25-6.774,17.23-17.173,20.275-25.567C180.133,114.354,167.771,2.007,163.884,2.007z
			"/>
		<path d="M73.863,141.937c0.36-6.762-14.157-16.696-14.512-26.392c-0.349-9.684-0.906-36.227-1.202-47.602
			C57.864,56.568,77.325,4.063,78.388,1.165c1.058-2.893,5.896-0.041,4.758,4.624C81.99,10.442,69.75,59.653,70.069,72.655
			c0.332,13.007,0.668,26.38,1.022,40.485c0.36,14.128,13.693,16.086,13.983,27.461c0.296,11.375-5.948,56.229-7.227,106.398
			c-1.261,50.181,8.365,130.873,3.369,133.522c-4.984,2.672-16.736-12.212-16.405-49.311
			C65.12,294.113,73.532,148.693,73.863,141.937z"/>
	</g>
</g>
<g>
</g>
<g>
</g>
<g>
</g>
<g>
</g>
<g>
</g>
<g>
</g>
<g>
</g>
<g>
</g>
<g>
</g>
<g>
</g>
<g>
</g>
<g>
</g>
<g>
</g>
<g>
</g>
<g>
</g>
</svg>
