<?xml version="1.0" encoding="iso-8859-1"?>
<!-- Generator: Adobe Illustrator 16.0.0, SVG Export Plug-In . SVG Version: 6.00 Build 0)  -->
<!DOCTYPE svg PUBLIC "-//W3C//DTD SVG 1.1//EN" "http://www.w3.org/Graphics/SVG/1.1/DTD/svg11.dtd">
<svg version="1.1" id="Capa_1" xmlns="http://www.w3.org/2000/svg" xmlns:xlink="http://www.w3.org/1999/xlink" x="0px" y="0px"
	 width="229.422px" height="229.422px" viewBox="0 0 229.422 229.422" style="enable-background:new 0 0 229.422 229.422;"
	 xml:space="preserve">
<g>
	<path d="M229.422,41.405l-6.332-6.379l-46.73,50.518l-7.621-7.663l48.612-48.589l-5.612-5.583l-49.007,49.019l-6.321-6.326
		l49.02-49.008l-6.158-6.164L150.253,60.25l-7.494-7.482L193.928,5.88L188.13,0.06l-45.767,31.672c0,0-2.301,1.964-3.102,2.76
		c-8.727,8.72-12.49,20.594-11.235,32.015c-2.719,44.389-40.956,54.201-46.667,59.895c-6.314,6.32-76.688,76.684-76.688,76.684
		l0.046,0.046c-0.081,0.069-0.18,0.104-0.261,0.187c-5.949,5.959-5.938,15.615,0.011,21.563c5.96,5.972,15.645,5.972,21.582,0.023
		c0.099-0.093,0.122-0.175,0.192-0.232l0,0c0,0,69.183-69.154,76.527-76.462c6.588-6.658,22.191-46.33,62.845-46.76
		c0.059,0,0.163-0.023,0.221-0.035c9.574,0.273,19.218-2.893,26.897-9.638c0.534-0.465,1.824-1.737,1.824-1.737L229.422,41.405z"/>
</g>
<g>
</g>
<g>
</g>
<g>
</g>
<g>
</g>
<g>
</g>
<g>
</g>
<g>
</g>
<g>
</g>
<g>
</g>
<g>
</g>
<g>
</g>
<g>
</g>
<g>
</g>
<g>
</g>
<g>
</g>
</svg>
