<?xml version="1.0" encoding="iso-8859-1"?>
<!-- Generator: Adobe Illustrator 16.0.0, SVG Export Plug-In . SVG Version: 6.00 Build 0)  -->
<!DOCTYPE svg PUBLIC "-//W3C//DTD SVG 1.1//EN" "http://www.w3.org/Graphics/SVG/1.1/DTD/svg11.dtd">
<svg version="1.1" id="Capa_1" xmlns="http://www.w3.org/2000/svg" xmlns:xlink="http://www.w3.org/1999/xlink" x="0px" y="0px"
	 width="380.697px" height="380.697px" viewBox="0 0 380.697 380.697" style="enable-background:new 0 0 380.697 380.697;"
	 xml:space="preserve">
<g>
	<g>
		<path d="M224.206,55.433c-0.29-0.715-0.79-1.359-1.22-2.033c-0.14-0.157-0.325-0.291-0.441-0.453L224.206,55.433z"/>
		<path d="M210.275,125.15c-4.346,57.559-54.16,70.438-61.62,77.897C140.243,211.448,6.181,345.54,6.181,345.54l0.035,0.012
			c-0.093,0.127-0.192,0.186-0.308,0.256c-7.866,7.865-7.889,20.692,0,28.535c7.877,7.912,20.687,7.912,28.542,0.035
			c0.133-0.105,0.191-0.221,0.284-0.303c0.192-0.209,132.493-132.488,142.201-142.201c8.29-8.283,27.252-55.386,74.667-61.167
			c5.636,3.224,11.073,5.223,15.768,5.304c81.121-26.932,114.745-119.794,113.281-121.973c-1.44-2.172-86.28,82.307-86.28,82.307
			s76.161-92.427,73.813-94.774c-2.358-2.347-91.799,80.953-91.799,80.953s79.472-92.932,77.403-95.349
			c-2.057-2.417-94.75,78.002-94.75,78.002s84.549-89.272,81.505-91.259c-3.067-1.987-97.666,70.92-97.666,70.92
			s86.628-81.946,84.281-84.293c-2.347-2.341-89.604,26.746-120.706,111.307C206.79,115.919,208.184,120.451,210.275,125.15z"/>
	</g>
</g>
<g>
</g>
<g>
</g>
<g>
</g>
<g>
</g>
<g>
</g>
<g>
</g>
<g>
</g>
<g>
</g>
<g>
</g>
<g>
</g>
<g>
</g>
<g>
</g>
<g>
</g>
<g>
</g>
<g>
</g>
</svg>
