<?xml version="1.0" encoding="iso-8859-1"?>
<!-- Generator: Adobe Illustrator 16.0.0, SVG Export Plug-In . SVG Version: 6.00 Build 0)  -->
<!DOCTYPE svg PUBLIC "-//W3C//DTD SVG 1.1//EN" "http://www.w3.org/Graphics/SVG/1.1/DTD/svg11.dtd">
<svg version="1.1" id="Capa_1" xmlns="http://www.w3.org/2000/svg" xmlns:xlink="http://www.w3.org/1999/xlink" x="0px" y="0px"
	 width="380.722px" height="380.721px" viewBox="0 0 380.722 380.721" style="enable-background:new 0 0 380.722 380.721;"
	 xml:space="preserve">
<g>
	<g>
		<path d="M175.472,0.023L165.764,0l2.894,101.71l-11.671-0.023V0l-8.534,0.023l0.012,102.308h-9.673l-0.023-102.32l-9.376,0.012
			l-0.035,102.32h-11.433L121.195,0h-8.859l-10.771,86.577c0,0-0.273,3.248-0.273,4.485c-0.012,13.35,6.187,25.282,15.859,33.055
			c31.899,35.989,10.138,72.728,10.138,81.44c0.011,9.668,0.011,158.34,0.011,158.34h0.012c0,0.116-0.023,0.209-0.023,0.349
			c0,9.098,7.401,16.476,16.486,16.476c9.115,0,16.528-7.413,16.528-16.476c-0.023-0.14-0.07-0.255-0.07-0.325h0.047
			c0,0,0.012-146.825,0-158.037c-0.023-10.132-18.428-52.372,12.339-83.765c0.023-0.052,0.081-0.134,0.128-0.18
			c7.511-7.116,12.461-16.905,13.21-27.937c0.047-0.761,0.023-2.701,0.023-2.701L175.472,0.023z"/>
		<path d="M279.43,194.636l-7.9-47.857l-7.262-0.023l2.16,55.688h-8.725v-55.688l-6.391,0.012v56.165l-7.25-0.023l0.012-56.142
			h-7.041v56.142h-8.609l2.463-56.165h-6.669l-8.063,44.337c0,0-0.209,2.463-0.186,3.369c0,10.016,4.646,18.939,11.897,24.771
			c23.864,26.979,7.575,54.504,7.575,61.021c0,7.262-0.023,87.86-0.023,87.86h0.047c0,0.093-0.023,0.151-0.047,0.244
			c0,6.843,5.565,12.374,12.362,12.374c6.854,0,12.386-5.543,12.386-12.363c0-0.092-0.023-0.162-0.023-0.231
			c0,0,0.023-79.228,0.047-87.616c-0.047-7.588-13.826-39.236,9.201-62.776c0.035-0.022,0.059-0.093,0.094-0.128
			c5.67-5.332,9.364-12.676,9.922-20.937C279.43,196.1,279.43,194.636,279.43,194.636z"/>
	</g>
</g>
<g>
</g>
<g>
</g>
<g>
</g>
<g>
</g>
<g>
</g>
<g>
</g>
<g>
</g>
<g>
</g>
<g>
</g>
<g>
</g>
<g>
</g>
<g>
</g>
<g>
</g>
<g>
</g>
<g>
</g>
</svg>
