<?xml version="1.0" encoding="iso-8859-1"?>
<!-- Generator: Adobe Illustrator 16.0.0, SVG Export Plug-In . SVG Version: 6.00 Build 0)  -->
<!DOCTYPE svg PUBLIC "-//W3C//DTD SVG 1.1//EN" "http://www.w3.org/Graphics/SVG/1.1/DTD/svg11.dtd">
<svg version="1.1" id="Capa_1" xmlns="http://www.w3.org/2000/svg" xmlns:xlink="http://www.w3.org/1999/xlink" x="0px" y="0px"
	 width="380.721px" height="380.721px" viewBox="0 0 380.721 380.721" style="enable-background:new 0 0 380.721 380.721;"
	 xml:space="preserve">
<g>
	<g>
		<path d="M190.372,29.813c-88.673,0-160.546,71.873-160.546,160.547c0,65.89,39.73,122.438,96.504,147.173l2.092-40.525
			c0-32.242-23.83-21.912-23.83-44.465c0-12.641,0.395-38.98,0.395-58.755c0-52.697,22.377-103.673,27.874-115.048
			c5.53-11.363,18.537-23.76,18.677-11.828c0,17.312,0.738,218.618,0.738,218.618h-0.035l2.463,61.241
			c11.497,2.626,23.395,4.125,35.669,4.125c6.728,0,13.304-0.546,19.822-1.349l5.31-102.906
			c-13.106-2.869-24.283-11.212-31.295-21.68c-8.685-13.014,6.675-128.067,6.675-128.067h10.004v107.978h9.922V96.894h10.84v107.978
			h9.889V96.894h11.258v107.978h9.911V96.894h7.668c0,0,15.349,115.054,6.669,128.067c-6.947,10.363-18.009,18.682-30.952,21.633
			c-0.232,0.07-0.441,0.163-0.441,0.163l5.02,95.993c63.995-21.11,110.249-81.307,110.249-152.39
			C350.907,101.687,279.034,29.813,190.372,29.813z"/>
		<path d="M190.372,0C85.415,0,0,85.397,0,190.36C0,295.3,85.415,380.721,190.372,380.721c104.952,0,190.35-85.421,190.35-190.361
			C380.721,85.397,295.324,0,190.372,0z M190.372,366.523c-97.144,0-176.18-79.03-176.18-176.163
			c0-97.144,79.036-176.18,176.18-176.18c97.133,0,176.175,79.036,176.175,176.18C366.546,287.493,287.504,366.523,190.372,366.523z
			"/>
	</g>
</g>
<g>
</g>
<g>
</g>
<g>
</g>
<g>
</g>
<g>
</g>
<g>
</g>
<g>
</g>
<g>
</g>
<g>
</g>
<g>
</g>
<g>
</g>
<g>
</g>
<g>
</g>
<g>
</g>
<g>
</g>
</svg>
