<?xml version="1.0" encoding="iso-8859-1"?>
<!-- Generator: Adobe Illustrator 16.0.0, SVG Export Plug-In . SVG Version: 6.00 Build 0)  -->
<!DOCTYPE svg PUBLIC "-//W3C//DTD SVG 1.1//EN" "http://www.w3.org/Graphics/SVG/1.1/DTD/svg11.dtd">
<svg version="1.1" id="Capa_1" xmlns="http://www.w3.org/2000/svg" xmlns:xlink="http://www.w3.org/1999/xlink" x="0px" y="0px"
	 width="380.711px" height="380.711px" viewBox="0 0 380.711 380.711" style="enable-background:new 0 0 380.711 380.711;"
	 xml:space="preserve">
<g>
	<path d="M380.711,57.465l-8.808-8.842l-89.742,95l-10.585-10.625l92.357-92.357l-7.75-7.715l-92.938,92.932l-8.772-8.778
		l92.926-92.944l-8.539-8.528l-92.938,92.932l-10.411-10.41l95.936-89.987l-8.052-8.052l-88.418,68.853c0,0-3.207,2.713-4.311,3.828
		c-12.13,12.124-17.347,28.594-15.615,44.424c-3.719,61.666-56.862,75.254-64.774,83.166
		c-8.749,8.796-143.77,143.805-143.77,143.805l0.023,0.022c-0.104,0.117-0.221,0.141-0.337,0.256
		c-8.272,8.273-8.25,21.704,0.012,29.965c8.249,8.272,21.715,8.272,29.953,0.023c0.116-0.128,0.174-0.244,0.255-0.337l0.023,0.022
		c0,0,133.359-133.312,143.537-143.502c9.179-9.213,30.812-64.303,87.257-64.878c0.058-0.023,0.209-0.046,0.29-0.046
		c13.28,0.372,26.677-4.032,37.354-13.361c0.755-0.663,2.486-2.452,2.486-2.452L380.711,57.465z"/>
</g>
<g>
</g>
<g>
</g>
<g>
</g>
<g>
</g>
<g>
</g>
<g>
</g>
<g>
</g>
<g>
</g>
<g>
</g>
<g>
</g>
<g>
</g>
<g>
</g>
<g>
</g>
<g>
</g>
<g>
</g>
</svg>
