<?xml version="1.0" encoding="iso-8859-1"?>
<!-- Generator: Adobe Illustrator 16.0.0, SVG Export Plug-In . SVG Version: 6.00 Build 0)  -->
<!DOCTYPE svg PUBLIC "-//W3C//DTD SVG 1.1//EN" "http://www.w3.org/Graphics/SVG/1.1/DTD/svg11.dtd">
<svg version="1.1" id="Capa_1" xmlns="http://www.w3.org/2000/svg" xmlns:xlink="http://www.w3.org/1999/xlink" x="0px" y="0px"
	 width="380.716px" height="380.716px" viewBox="0 0 380.716 380.716" style="enable-background:new 0 0 380.716 380.716;"
	 xml:space="preserve">
<g>
	<path d="M158.364,185.622l8.301-8.302l78.925,78.919l-5.217,5.24l32.567,32.591l6.983,6.983l78.564,78.541l7.391-7.4
		l-78.555-78.543l7.437-7.436l78.554,78.543l7.4-7.413l-78.564-78.542l-6.983-6.995l-32.579-32.579l-7.389,7.402l-78.943-78.938
		l7.4-7.401l-8.411-8.412c0,0-30.552-11.456-53.882-52.551c-6.809-6.791-93.193-93.182-93.193-93.182l-0.035,0.023
		c-0.075-0.081-0.122-0.174-0.18-0.261c-6.402-6.385-16.777-6.385-23.168,0c-6.384,6.402-6.384,16.766,0,23.167
		c0.087,0.07,0.169,0.128,0.25,0.215l-0.023,0.012c0,0,85.084,85.089,92.967,92.979c45.69,32.253,51.959,54.916,51.959,54.916
		L158.364,185.622z"/>
</g>
<g>
</g>
<g>
</g>
<g>
</g>
<g>
</g>
<g>
</g>
<g>
</g>
<g>
</g>
<g>
</g>
<g>
</g>
<g>
</g>
<g>
</g>
<g>
</g>
<g>
</g>
<g>
</g>
<g>
</g>
</svg>
