<?xml version="1.0" encoding="iso-8859-1"?>
<!-- Generator: Adobe Illustrator 16.0.0, SVG Export Plug-In . SVG Version: 6.00 Build 0)  -->
<!DOCTYPE svg PUBLIC "-//W3C//DTD SVG 1.1//EN" "http://www.w3.org/Graphics/SVG/1.1/DTD/svg11.dtd">
<svg version="1.1" id="Capa_1" xmlns="http://www.w3.org/2000/svg" xmlns:xlink="http://www.w3.org/1999/xlink" x="0px" y="0px"
	 width="123.25px" height="123.25px" viewBox="0 0 123.25 123.25" style="enable-background:new 0 0 123.25 123.25;"
	 xml:space="preserve">
<g>
	<path d="M16.266,0l11.898,118.975H35.6v4.275h51.122v-4.275h8.365L106.984,0H16.266z M46.033,94.727
		c-0.238,9.562-1,15.999-1,15.999s-1.998-6.17-4.101-15.5c-2.062-9.33-4.038-21.843-5.31-34.432
		c-1.203-12.589-1.703-25.259-1.511-34.798c0.238-9.568,0.987-15.993,0.987-15.993s1.987,6.152,4.09,15.494
		c2.062,9.324,4.049,21.843,5.321,34.42C45.725,72.512,46.236,85.176,46.033,94.727z"/>
</g>
<g>
</g>
<g>
</g>
<g>
</g>
<g>
</g>
<g>
</g>
<g>
</g>
<g>
</g>
<g>
</g>
<g>
</g>
<g>
</g>
<g>
</g>
<g>
</g>
<g>
</g>
<g>
</g>
<g>
</g>
</svg>
