<?xml version="1.0" encoding="iso-8859-1"?>
<!-- Generator: Adobe Illustrator 16.0.0, SVG Export Plug-In . SVG Version: 6.00 Build 0)  -->
<!DOCTYPE svg PUBLIC "-//W3C//DTD SVG 1.1//EN" "http://www.w3.org/Graphics/SVG/1.1/DTD/svg11.dtd">
<svg version="1.1" id="Capa_1" xmlns="http://www.w3.org/2000/svg" xmlns:xlink="http://www.w3.org/1999/xlink" x="0px" y="0px"
	 width="365.198px" height="365.198px" viewBox="0 0 365.198 365.198" style="enable-background:new 0 0 365.198 365.198;"
	 xml:space="preserve">
<g>
	<path d="M82.318,0l14.61,356.276h12.304v8.922h149.829v-8.922h12.676L282.88,0H82.318z M133.766,282.52
		c-0.941,28.512-3.143,47.613-3.143,47.613s-3.782-18.834-7.093-47.195c-1.749-14.175-3.387-30.72-4.758-48.473
		c-1.499-17.742-2.405-36.703-3.381-55.66c-0.592-18.973-1.249-37.929-1.237-55.752c-0.104-17.783,0.146-34.426,0.703-48.694
		c0.93-28.518,3.12-47.614,3.12-47.614s3.77,18.834,7.064,47.195c1.737,14.175,3.393,30.72,4.764,48.473
		c1.499,17.742,2.423,36.703,3.398,55.653c0.61,18.985,1.272,37.935,1.261,55.747C134.597,251.614,134.335,268.252,133.766,282.52z"
		/>
</g>
<g>
</g>
<g>
</g>
<g>
</g>
<g>
</g>
<g>
</g>
<g>
</g>
<g>
</g>
<g>
</g>
<g>
</g>
<g>
</g>
<g>
</g>
<g>
</g>
<g>
</g>
<g>
</g>
<g>
</g>
</svg>
