<?xml version="1.0" encoding="iso-8859-1"?>
<!-- Generator: Adobe Illustrator 16.0.0, SVG Export Plug-In . SVG Version: 6.00 Build 0)  -->
<!DOCTYPE svg PUBLIC "-//W3C//DTD SVG 1.1//EN" "http://www.w3.org/Graphics/SVG/1.1/DTD/svg11.dtd">
<svg version="1.1" id="Capa_1" xmlns="http://www.w3.org/2000/svg" xmlns:xlink="http://www.w3.org/1999/xlink" x="0px" y="0px"
	 width="377.676px" height="377.676px" viewBox="0 0 377.676 377.676" style="enable-background:new 0 0 377.676 377.676;"
	 xml:space="preserve">
<g>
	<path d="M265.324,373.61c-21.076-8.771-65.396-20.75-65.396-60.975c0,0,0-5.461,0-11.816c6.651-3.846,11.16-10.944,11.16-19.182
		c0-1.72-0.244-3.369-0.604-4.996c16.789-9.492,47.787-27.025,47.787-70.758c0-59.935-35.251-106.468-35.251-135.381
		C223.021,41.595,270.263,0,258.271,0c-11.99,0-69.433,0-69.433,0s-57.426,0-69.422,0c-11.979,0,35.251,41.595,35.251,70.502
		c0,28.913-35.251,75.446-35.251,135.381c0,43.732,30.993,61.266,47.793,70.758c-0.354,1.627-0.604,3.276-0.604,4.996
		c0,8.237,4.52,15.336,11.159,19.182c0,6.355,0,11.816,0,11.816c0,40.225-44.319,52.203-65.413,60.975
		c-4.549,2.033-3.201,4.066,0,4.066c3.056,0,69.445,0,76.144,0c0.354,0,0.68,0,0.68,0c6.698,0,73.116,0,76.137,0
		C268.531,377.676,269.867,375.643,265.324,373.61z M177.156,67.638c-0.012,1.679-0.023,3.404-0.273,5.362
		c-0.703,7.75-2.045,14.791-3.602,22.464c-3.015,15.157-7.093,31.004-11.021,46.853c-4.09,15.79-8.29,31.568-11.752,46.26
		c-1.563,7.373-3.358,14.448-3.323,20.652c0.18,6.32,1.789,12.199,3.95,17.766c4.357,10.979,9.795,19.717,13.803,25.549
		c3.997,5.902,6.53,9.168,6.53,9.168s-3.248-2.545-8.267-7.75c-4.845-5.299-12.055-12.908-18.097-24.167
		c-2.904-5.53-5.867-12.386-6.593-20.136c-0.569-7.818,0.552-15.453,1.847-23.08c2.568-15.36,6.507-31.266,10.411-47.178
		c4.166-15.749,8.325-31.516,12.217-46.3c1.795-7.262,3.758-14.698,4.914-20.885c0.354-1.499,0.535-3.224,0.691-4.949l0.116-1.272
		c0.047,0.134-0.023-0.592-0.023-0.842l-0.07-2.179c-0.262-2.928-0.796-5.867-1.586-8.673c-3.317-11.206-7.924-20.478-11.334-26.67
		c-3.416-6.274-5.548-9.806-5.548-9.806s2.986,2.841,7.523,8.481c4.316,5.746,11.015,13.803,15.964,25.724
		c1.237,2.986,2.307,6.245,3.044,9.853l0.36,2.794c0.035,0.581,0.162,0.715,0.127,1.679L177.156,67.638z"/>
</g>
<g>
</g>
<g>
</g>
<g>
</g>
<g>
</g>
<g>
</g>
<g>
</g>
<g>
</g>
<g>
</g>
<g>
</g>
<g>
</g>
<g>
</g>
<g>
</g>
<g>
</g>
<g>
</g>
<g>
</g>
</svg>
