<?xml version="1.0" encoding="iso-8859-1"?>
<!-- Generator: Adobe Illustrator 16.0.0, SVG Export Plug-In . SVG Version: 6.00 Build 0)  -->
<!DOCTYPE svg PUBLIC "-//W3C//DTD SVG 1.1//EN" "http://www.w3.org/Graphics/SVG/1.1/DTD/svg11.dtd">
<svg version="1.1" id="Capa_1" xmlns="http://www.w3.org/2000/svg" xmlns:xlink="http://www.w3.org/1999/xlink" x="0px" y="0px"
	 width="249.882px" height="249.883px" viewBox="0 0 249.882 249.883" style="enable-background:new 0 0 249.882 249.883;"
	 xml:space="preserve">
<g>
	<path d="M157.209,160.07c21.088-11.793,68.968-17.138,67.899-71.112C224.017,35.001,184.013,0,184.013,0
		s-43.941,2.806-59.074,2.806C109.805,2.806,65.857,0,65.857,0S25.843,35.001,24.774,88.97
		c-1.069,53.963,46.806,59.308,67.876,71.112c20.641,11.549,23.749,30.487,23.877,31.289c0,0.175-0.012,0.337-0.012,0.499
		c0,30.581-42.257,48.265-58.285,54.922c-3.451,1.545-2.44,3.091,0.012,3.091c2.294,0,61.346,0,66.447,0c0.261,0,0.511,0,0.511,0
		c5.106,0,64.146,0,66.459,0c2.44,0,3.45-1.546,0-3.091c-16.034-6.681-58.291-24.341-58.291-54.922c0-0.162,0-0.324,0-0.499
		C133.484,190.569,136.575,171.62,157.209,160.07z M80.967,136.055c-7.047-3.044-15.122-7.703-22.035-15.069
		c-7.006-7.256-12.136-17.55-13.042-28.756c-0.366-5.101,0.035-10.614,0.5-15.552c0.552-5.065,1.563-10.003,2.748-14.692
		c2.451-9.388,6.105-17.712,9.986-24.341c7.813-13.338,15.895-19.717,15.895-19.717s-6.036,8.214-11.387,21.918
		c-2.713,6.826-5.28,14.941-6.913,23.853c-0.883,4.438-1.429,9.068-1.783,13.792c-0.337,4.839-0.622,9.359-0.18,14.204
		c0.395,4.224,1.452,8.842,3.236,12.851c1.807,4.043,4.119,7.854,6.878,11.194c5.531,6.722,12.339,11.816,18.497,15.703
		c6.228,3.811,11.747,6.704,15.767,8.377c3.985,1.742,6.355,2.648,6.355,2.648S95.252,142.073,80.967,136.055z"/>
</g>
<g>
</g>
<g>
</g>
<g>
</g>
<g>
</g>
<g>
</g>
<g>
</g>
<g>
</g>
<g>
</g>
<g>
</g>
<g>
</g>
<g>
</g>
<g>
</g>
<g>
</g>
<g>
</g>
<g>
</g>
</svg>
