<?xml version="1.0" encoding="iso-8859-1"?>
<!-- Generator: Adobe Illustrator 16.0.0, SVG Export Plug-In . SVG Version: 6.00 Build 0)  -->
<!DOCTYPE svg PUBLIC "-//W3C//DTD SVG 1.1//EN" "http://www.w3.org/Graphics/SVG/1.1/DTD/svg11.dtd">
<svg version="1.1" id="Capa_1" xmlns="http://www.w3.org/2000/svg" xmlns:xlink="http://www.w3.org/1999/xlink" x="0px" y="0px"
	 width="262.687px" height="262.687px" viewBox="0 0 262.687 262.687" style="enable-background:new 0 0 262.687 262.687;"
	 xml:space="preserve">
<g>
	<path d="M183.334,261.164c-16.847-3.229-44.25-10.549-44.25-25.375c0.216-1.231-3.596-30.963-3.596-58.802
		s20.229-48.984,31.231-57.693c11.025-8.696,41.652-33.764,41.083-67.527C207.257,18.015,187.563,0,187.563,0
		s-39.068,2.905-56.217,2.905c-17.144,0-56.2-2.905-56.2-2.905S55.441,18.015,54.884,51.778
		c-0.558,33.764,30.063,58.82,41.084,67.528c11.002,8.697,31.23,29.842,31.23,57.693c0,27.85-3.787,57.582-3.596,58.813
		c0,14.826-27.53,22.122-44.366,25.363c-3.648,0.756-2.556,1.511,0.012,1.511c2.417,0,46.388,0,51.767,0c0.285,0,0.535,0,0.535,0
		c5.367,0,49.333,0,51.784,0C185.89,262.675,186.959,261.932,183.334,261.164z M75.274,65.03
		c-3.898-23.058,8.058-50.786,8.058-50.786s-2.19,31.858,3.009,48.589c5.2,16.725,26.676,49.786,26.676,49.786
		S78.249,83.997,75.274,65.03z"/>
</g>
<g>
</g>
<g>
</g>
<g>
</g>
<g>
</g>
<g>
</g>
<g>
</g>
<g>
</g>
<g>
</g>
<g>
</g>
<g>
</g>
<g>
</g>
<g>
</g>
<g>
</g>
<g>
</g>
<g>
</g>
</svg>
