<?xml version="1.0" encoding="iso-8859-1"?>
<!-- Generator: Adobe Illustrator 16.0.0, SVG Export Plug-In . SVG Version: 6.00 Build 0)  -->
<!DOCTYPE svg PUBLIC "-//W3C//DTD SVG 1.1//EN" "http://www.w3.org/Graphics/SVG/1.1/DTD/svg11.dtd">
<svg version="1.1" id="Capa_1" xmlns="http://www.w3.org/2000/svg" xmlns:xlink="http://www.w3.org/1999/xlink" x="0px" y="0px"
	 width="261.223px" height="261.223px" viewBox="0 0 261.223 261.223" style="enable-background:new 0 0 261.223 261.223;"
	 xml:space="preserve">
<g>
	<path d="M207.538,48.159C209.281,17.108,194.211,0,194.211,0l-63.6,1.94L67.027,0c0,0-15.081,17.108-13.344,48.159
		c1.737,31.034,68.98,47.567,68.98,66.715c0,18.625,0,114.176,0,119.184c-0.691,14.919-28.519,22.32-45.674,25.619
		c-3.735,0.744-2.643,1.546,0,1.546c2.51,0,47.852,0,53.371,0c0.296,0,0.546,0,0.546,0c5.53,0,50.86,0,53.37,0
		c2.649,0,3.753-0.778,0.023-1.546c-17.382-3.334-45.604-10.875-45.604-26.152c0,0-0.14-100.444-0.14-118.65
		C138.558,95.726,205.807,79.193,207.538,48.159z M101.982,79.82c-7.157-4.235-16.295-10.399-24.591-18.189L74.312,58.5
		c-1.046-1.226-2.283-2.544-2.905-3.602c-1.917-2.846-2.962-6.192-3.393-8.952c-0.819-5.733-0.285-10.729,0.453-14.953
		c1.632-8.4,4.404-13.466,4.404-13.466s0.581,5.496,1.476,13.728c0.453,3.962,0.865,8.638,2.033,12.978
		c0.499,2.266,1.226,4.072,2.393,5.664c1.499,2.12,2.806,3.462,4.758,5.548c7.72,7.541,15.476,15.069,21.285,20.722
		c5.757,5.914,9.504,10.08,9.504,10.08S109.209,83.974,101.982,79.82z"/>
</g>
<g>
</g>
<g>
</g>
<g>
</g>
<g>
</g>
<g>
</g>
<g>
</g>
<g>
</g>
<g>
</g>
<g>
</g>
<g>
</g>
<g>
</g>
<g>
</g>
<g>
</g>
<g>
</g>
<g>
</g>
</svg>
