<?xml version="1.0" encoding="iso-8859-1"?>
<!-- Generator: Adobe Illustrator 16.0.0, SVG Export Plug-In . SVG Version: 6.00 Build 0)  -->
<!DOCTYPE svg PUBLIC "-//W3C//DTD SVG 1.1//EN" "http://www.w3.org/Graphics/SVG/1.1/DTD/svg11.dtd">
<svg version="1.1" id="Capa_1" xmlns="http://www.w3.org/2000/svg" xmlns:xlink="http://www.w3.org/1999/xlink" x="0px" y="0px"
	 width="380.73px" height="380.73px" viewBox="0 0 380.73 380.73" style="enable-background:new 0 0 380.73 380.73;"
	 xml:space="preserve">
<g>
	<path d="M231.276,66.184c0-22.477,29.918-36.442,18.312-53.277C237.992-3.929,137.38-5.057,128.567,14.05
		c-8.83,19.107,20.902,29.93,20.902,52.395s-48.34,285.942-45.737,300.546c1.18,6.564,45.604,13.978,89.174,13.733
		c41.891-0.244,82.998-7.866,84.09-14.023C279.622,352.107,231.276,88.637,231.276,66.184z M178.726,70.668
		c-0.059,7.936-0.906,16.655-1.83,25.892c-0.93,9.185-1.714,19.119-3.119,28.919c-2.405,19.833-5.496,40.903-8.808,61.927
		c-6.791,42.031-15.168,83.765-22.436,114.904c-3.509,15.58-7.175,28.441-9.376,37.492c-2.405,9.028-3.985,14.164-3.985,14.164
		s0.238-5.356,0.999-14.663c0.906-9.283,1.795-22.599,3.596-38.47c3.375-31.789,9.243-73.906,15.941-115.878
		c3.631-20.949,6.936-41.903,10.637-61.486c1.771-9.696,3.474-19.083,5.101-27.983c1.574-8.876,3.428-17.225,4.45-25.218
		c0.574-3.846,1.121-7.535,1.644-11.043c-0.238-3.358,0.169-6.71-0.534-9.685c-0.883-6.105-2.725-11.328-4.822-15.336
		c-4.032-8.174-8.005-11.991-8.005-11.991s1.121,0.709,3.085,2.33c1.853,1.679,4.746,4.142,7.494,8.093
		c2.852,3.828,5.745,9.051,7.813,15.581c1.284,3.23,1.511,6.89,2.358,10.712C179.091,63.197,178.771,66.549,178.726,70.668z"/>
</g>
<g>
</g>
<g>
</g>
<g>
</g>
<g>
</g>
<g>
</g>
<g>
</g>
<g>
</g>
<g>
</g>
<g>
</g>
<g>
</g>
<g>
</g>
<g>
</g>
<g>
</g>
<g>
</g>
<g>
</g>
</svg>
