<?xml version="1.0" encoding="iso-8859-1"?>
<!-- Generator: Adobe Illustrator 16.0.0, SVG Export Plug-In . SVG Version: 6.00 Build 0)  -->
<!DOCTYPE svg PUBLIC "-//W3C//DTD SVG 1.1//EN" "http://www.w3.org/Graphics/SVG/1.1/DTD/svg11.dtd">
<svg version="1.1" id="Capa_1" xmlns="http://www.w3.org/2000/svg" xmlns:xlink="http://www.w3.org/1999/xlink" x="0px" y="0px"
	 width="280.172px" height="280.173px" viewBox="0 0 280.172 280.173" style="enable-background:new 0 0 280.172 280.173;"
	 xml:space="preserve">
<g>
	<path d="M179.084,278.081c-10.76-4.484-33.357-16.347-33.357-36.854c0-0.29-0.012-0.604-0.012-0.883c0-6.402,0-44.732,0-62.043
		c2.521-1.812,4.281-4.66,4.281-8.041c0-1.231-0.285-2.416-0.697-3.509c11.137-8.411,44.936-17.916,44.157-76.852
		C192.515,19.403,176.551,0,176.551,0l-37.43,1.656L102.697,0c0,0-15.04,18.096-15.981,88.604
		c-0.784,59.755,33.956,68.689,44.604,77.195c-0.68,1.348-1.156,2.822-1.156,4.461c0,3.393,1.76,6.229,4.299,8.063
		c0,19.531,0,61.718,0,61.718c-0.012,0.396-0.012,0.803-0.023,1.209c0,20.496-22.598,32.357-33.352,36.843
		c-2.317,1.034-1.644,2.08,0,2.08c1.557,0,35.408,0,38.836,0c0.174,0,0.343,0,0.343,0c3.416,0,37.261,0,38.829,0
		C180.71,280.161,181.384,279.115,179.084,278.081z M103.621,95.349c-1.487-35.942,7.866-81.836,7.866-81.836s0,61.254,2.725,83.324
		c2.725,22.069,20.571,55.74,20.571,55.74S105.108,131.279,103.621,95.349z"/>
</g>
<g>
</g>
<g>
</g>
<g>
</g>
<g>
</g>
<g>
</g>
<g>
</g>
<g>
</g>
<g>
</g>
<g>
</g>
<g>
</g>
<g>
</g>
<g>
</g>
<g>
</g>
<g>
</g>
<g>
</g>
</svg>
