<?xml version="1.0" encoding="iso-8859-1"?>
<!-- Generator: Adobe Illustrator 16.0.0, SVG Export Plug-In . SVG Version: 6.00 Build 0)  -->
<!DOCTYPE svg PUBLIC "-//W3C//DTD SVG 1.1//EN" "http://www.w3.org/Graphics/SVG/1.1/DTD/svg11.dtd">
<svg version="1.1" id="Capa_1" xmlns="http://www.w3.org/2000/svg" xmlns:xlink="http://www.w3.org/1999/xlink" x="0px" y="0px"
	 width="380.722px" height="380.721px" viewBox="0 0 380.722 380.721" style="enable-background:new 0 0 380.722 380.721;"
	 xml:space="preserve">
<g>
	<g>
		<path d="M303.197,274.666c-14.128,6.854-63.345,24.62-63.345,24.62l-58.198-3.66c0,0,33.287-9.248,46.185-12.141
			c12.92-2.894,7.308-17.486,0.163-17.486c-7.146,0-69.428,2.602-69.428,2.602l-41.345,14.885l10.951,69.258
			c0,0,8.517-14.569,17.01-14.569c8.522,0,82.348,1.964,92.386,0c10.026-1.987,71.106-43.768,78.403-48.636
			C323.251,284.681,317.338,267.799,303.197,274.666z"/>
		<polygon points="61.622,290.92 61.622,380.721 124.979,368.858 109.131,282.579 		"/>
		<path d="M251.041,165.235c0,17.306,0,53.87,0,53.87c0,18.462-33.729,29.709-48.113,33.741c-3.078,0.93-2.184,1.858,0,1.858
			c2.092,0,47.335,0,51.89,0c0.244,0,0.465,0,0.465,0c4.565,0,49.81,0,51.865,0c2.208,0,3.091-0.929,0-1.858
			c-14.36-4.032-46.497-15.279-46.497-33.741c-0.023-0.36-0.023-0.743-0.047-1.092h-0.047c0-5.949,0-37.168,0-52.79
			c0-17.277,30.58-35.304,47.404-62.927C324.797,74.679,294.762,0,294.762,0s-23.539,2.271-38.945,2.271
			C240.387,2.271,216.859,0,216.859,0s-30.029,74.679-13.211,102.309C220.473,129.932,251.041,147.958,251.041,165.235z
			 M212.967,53.481c1.371-8.058,3.137-15.43,4.868-21.681c3.439-12.537,6.588-20.629,6.588-20.629s-0.743,8.662-2.126,21.466
			c-0.732,6.402-1.534,13.849-2.429,21.808c-0.813,7.924-1.743,16.44-1.592,24.556c-0.244,1.284,0.337,4.188,0.604,5.861
			c0.522,1.69,0.883,3.358,1.73,5.229c1.418,3.648,3.254,7.221,5.183,10.608c3.892,6.762,8.18,12.862,11.897,18.05
			c7.529,10.387,12.943,17.189,12.943,17.189s-7.123-5.019-16.395-14.262c-4.589-4.642-9.678-10.387-14.36-17.289
			c-2.219-3.509-4.636-7.175-6.332-11.41c-0.93-1.975-1.649-4.427-2.323-6.878c-0.419-2.486-0.884-3.863-0.814-6.884
			C210.388,70.136,211.479,61.486,212.967,53.481z"/>
	</g>
</g>
<g>
</g>
<g>
</g>
<g>
</g>
<g>
</g>
<g>
</g>
<g>
</g>
<g>
</g>
<g>
</g>
<g>
</g>
<g>
</g>
<g>
</g>
<g>
</g>
<g>
</g>
<g>
</g>
<g>
</g>
</svg>
