<?xml version="1.0" encoding="iso-8859-1"?>
<!-- Generator: Adobe Illustrator 16.0.0, SVG Export Plug-In . SVG Version: 6.00 Build 0)  -->
<!DOCTYPE svg PUBLIC "-//W3C//DTD SVG 1.1//EN" "http://www.w3.org/Graphics/SVG/1.1/DTD/svg11.dtd">
<svg version="1.1" id="Capa_1" xmlns="http://www.w3.org/2000/svg" xmlns:xlink="http://www.w3.org/1999/xlink" x="0px" y="0px"
	 width="283.124px" height="283.124px" viewBox="0 0 283.124 283.124" style="enable-background:new 0 0 283.124 283.124;"
	 xml:space="preserve">
<g>
	<path d="M188.804,280.626c-13.024-5.427-40.397-19.786-40.397-44.628c-0.023-0.488-0.023-0.976-0.023-1.452c0,0,0-34.519,0-54.317
		c2.765-2.138,4.693-5.344,4.693-9.132c0-2.464-0.941-4.612-2.23-6.483c9.899-10.736,46.66-22.772,46.66-80.947
		c0-67.214-19.74-83.666-19.74-83.666s-25.99,2.759-37.278,2.759C129.2,2.759,105.358,0,105.358,0s-19.74,16.452-19.74,83.666
		c0,57.745,36.192,70.025,46.399,80.691c-1.389,1.929-2.376,4.184-2.376,6.728c0,3.962,2.091,7.284,5.101,9.399
		c0,19.856,0,54.051,0,54.051c0,0.476-0.023,0.964-0.023,1.451c0,24.842-27.373,39.201-40.404,44.628
		c-2.806,1.255-1.987,2.51,0,2.51c1.882,0,42.878,0,47.033,0c0.227,0,0.418,0,0.418,0c4.154,0,45.145,0,47.026,0
		C190.791,283.135,191.615,281.869,188.804,280.626z M103.715,98.869c-5.27-21.454,3.166-64.699,3.166-64.699
		s1.853,44.808,5.391,59.296c2.521,10.352,4.909,12.74,18.213,51.116C130.484,144.583,108.995,120.306,103.715,98.869z"/>
</g>
<g>
</g>
<g>
</g>
<g>
</g>
<g>
</g>
<g>
</g>
<g>
</g>
<g>
</g>
<g>
</g>
<g>
</g>
<g>
</g>
<g>
</g>
<g>
</g>
<g>
</g>
<g>
</g>
<g>
</g>
</svg>
