<?xml version="1.0" encoding="iso-8859-1"?>
<!-- Generator: Adobe Illustrator 16.0.0, SVG Export Plug-In . SVG Version: 6.00 Build 0)  -->
<!DOCTYPE svg PUBLIC "-//W3C//DTD SVG 1.1//EN" "http://www.w3.org/Graphics/SVG/1.1/DTD/svg11.dtd">
<svg version="1.1" id="Capa_1" xmlns="http://www.w3.org/2000/svg" xmlns:xlink="http://www.w3.org/1999/xlink" x="0px" y="0px"
	 width="286.922px" height="286.923px" viewBox="0 0 286.922 286.923" style="enable-background:new 0 0 286.922 286.923;"
	 xml:space="preserve">
<g>
	<path d="M201.299,284.797c-16.185-4.531-52.371-17.185-52.371-37.993c-0.012-0.406-0.035-0.813-0.047-1.231h-0.058
		c0-6.692,0-41.874,0-59.441c0-19.484,34.455-39.782,53.394-70.891C221.156,84.125,187.333,0,187.333,0s-26.52,2.567-43.878,2.567
		C126.109,2.567,99.589,0,99.589,0S65.767,84.125,84.706,115.251c18.944,31.121,53.389,51.407,53.389,70.879
		c0,19.496,0,60.685,0,60.685c0,20.809-37.994,33.473-54.196,38.004c-3.474,1.047-2.463,2.104,0,2.104c2.341,0,53.29,0,58.442,0
		c0.273,0,0.522,0,0.522,0c5.142,0,56.09,0,58.425,0C203.774,286.911,204.785,285.843,201.299,284.797z M119.161,137.06
		c-5.176-5.223-10.921-11.683-16.167-19.479c-2.521-3.962-5.223-8.063-7.14-12.851c-1.069-2.219-1.865-4.996-2.626-7.755
		c-0.477-2.794-0.999-4.351-0.93-7.744c0-10.23,1.238-19.961,2.917-29.006c1.557-9.057,3.543-17.358,5.484-24.417
		c3.887-14.117,7.437-23.231,7.437-23.231s-0.86,9.754-2.417,24.196c-0.796,7.186-1.737,15.563-2.736,24.544
		c-0.918,8.923-1.952,18.514-1.771,27.664c-0.285,1.464,0.343,4.711,0.662,6.617c0.587,1.888,0.987,3.782,1.952,5.874
		c1.586,4.119,3.654,8.15,5.82,11.95c4.392,7.622,9.22,14.488,13.408,20.344c8.436,11.694,14.564,19.357,14.564,19.357
		S129.595,147.481,119.161,137.06z"/>
</g>
<g>
</g>
<g>
</g>
<g>
</g>
<g>
</g>
<g>
</g>
<g>
</g>
<g>
</g>
<g>
</g>
<g>
</g>
<g>
</g>
<g>
</g>
<g>
</g>
<g>
</g>
<g>
</g>
<g>
</g>
</svg>
