<?xml version="1.0" encoding="iso-8859-1"?>
<!-- Generator: Adobe Illustrator 16.0.0, SVG Export Plug-In . SVG Version: 6.00 Build 0)  -->
<!DOCTYPE svg PUBLIC "-//W3C//DTD SVG 1.1//EN" "http://www.w3.org/Graphics/SVG/1.1/DTD/svg11.dtd">
<svg version="1.1" id="Capa_1" xmlns="http://www.w3.org/2000/svg" xmlns:xlink="http://www.w3.org/1999/xlink" x="0px" y="0px"
	 width="377.514px" height="377.514px" viewBox="0 0 377.514 377.514" style="enable-background:new 0 0 377.514 377.514;"
	 xml:space="preserve">
<g>
	<path d="M307.68,0.238c-11.664,0-66.737,4.096-118.928,4.096C136.555,4.334,80.971,0,69.823,0C58.14,0,54.585,5.368,64.229,13.646
		c23.057,19.81,56.792,49.675,71.519,69.102c20.867,27.542,43.245,101.698,43.245,119.648c0,15.732,0,88.117,0,105.847
		c0,0.499-0.012,0.999-0.023,1.499c0,35.704-49.351,56.361-68.086,64.135c-4.037,1.801-2.846,3.637,0,3.637
		c2.713,0,71.658,0,77.619,0c0.308,0,0.592,0,0.592,0c5.979,0,64.92,0,67.615,0c2.847,0,4.043-1.824,0.012-3.637
		c-18.718-7.773-58.07-28.431-58.07-64.135c-0.012-0.5-0.023-1-0.035-1.499h-0.104c0-18.103,0-89.952,0-105.603
		c0-17.957,20.379-89.115,41.246-116.668c14.709-19.421,50.46-52.302,73.522-72.111C322.936,5.606,319.369,0.238,307.68,0.238z
		 M104.836,22.558c0,0,46.353,23.295,62.711,50.065c16.359,26.77,17.597,72.623,17.597,72.623s-15.621-45.104-28.256-65.437
		C144.252,59.476,104.836,22.558,104.836,22.558z"/>
</g>
<g>
</g>
<g>
</g>
<g>
</g>
<g>
</g>
<g>
</g>
<g>
</g>
<g>
</g>
<g>
</g>
<g>
</g>
<g>
</g>
<g>
</g>
<g>
</g>
<g>
</g>
<g>
</g>
<g>
</g>
</svg>
