<?xml version="1.0" encoding="iso-8859-1"?>
<!-- Generator: Adobe Illustrator 16.0.0, SVG Export Plug-In . SVG Version: 6.00 Build 0)  -->
<!DOCTYPE svg PUBLIC "-//W3C//DTD SVG 1.1//EN" "http://www.w3.org/Graphics/SVG/1.1/DTD/svg11.dtd">
<svg version="1.1" id="Capa_1" xmlns="http://www.w3.org/2000/svg" xmlns:xlink="http://www.w3.org/1999/xlink" x="0px" y="0px"
	 width="380.721px" height="380.721px" viewBox="0 0 380.721 380.721" style="enable-background:new 0 0 380.721 380.721;"
	 xml:space="preserve">
<g>
	<g>
		<path d="M259.538,120.596c-97.039-7.645-118.812,48.247-118.812,48.247h-24.701V86.182h4.712v-8.818H62.212v8.818h6.756v82.649
			H47.793v63.514h68.23v123.541h57.658V333.52h158.821v22.366h48.218c0,0,0-42.943,0-80.588
			C380.721,237.666,356.6,128.236,259.538,120.596z"/>
		<rect x="14.849" y="164.712" width="24.713" height="70.584"/>
		<path d="M68.922,72.367h46.934v-5.356c0,0,52.708-0.14,71.53-42.176c-16.62,0-160.651,0-187.386,0
			C6.53,49.2,68.922,67.011,68.922,67.011V72.367z"/>
	</g>
</g>
<g>
</g>
<g>
</g>
<g>
</g>
<g>
</g>
<g>
</g>
<g>
</g>
<g>
</g>
<g>
</g>
<g>
</g>
<g>
</g>
<g>
</g>
<g>
</g>
<g>
</g>
<g>
</g>
<g>
</g>
</svg>
