<?xml version="1.0" encoding="iso-8859-1"?>
<!-- Generator: Adobe Illustrator 16.0.0, SVG Export Plug-In . SVG Version: 6.00 Build 0)  -->
<!DOCTYPE svg PUBLIC "-//W3C//DTD SVG 1.1//EN" "http://www.w3.org/Graphics/SVG/1.1/DTD/svg11.dtd">
<svg version="1.1" id="Capa_1" xmlns="http://www.w3.org/2000/svg" xmlns:xlink="http://www.w3.org/1999/xlink" x="0px" y="0px"
	 width="380.721px" height="380.721px" viewBox="0 0 380.721 380.721" style="enable-background:new 0 0 380.721 380.721;"
	 xml:space="preserve">
<g>
	<g>
		<rect x="68.753" y="343.083" width="243.789" height="11.561"/>
		<polygon points="154.25,335.088 187.182,335.088 193.543,335.088 226.471,335.088 231.084,335.088 270.367,335.088 
			248.418,302.161 228.772,331.626 209.136,302.161 190.36,330.325 171.584,302.161 151.943,331.626 132.302,302.161 
			110.348,335.088 149.637,335.088 		"/>
	</g>
	<g>
		<path d="M158.392,121.619c-0.592-1.04-1.394-1.952-2.091-2.928l-1.109-1.429l-0.558-0.714l-0.146-0.168
			c0.075,0.087,0.18,0.191,0.395,0.441l-0.046-0.07l-0.215-0.273c-0.965-1.313-2.882-3.189-3.085-4.026
			c-0.459-0.958-1.115-1.76-1.557-3.248c-1.046-2.568-1.854-5.496-2.271-8.47c-0.895-5.996-0.773-12.183-0.523-17.608
			c0.714-10.817,1.65-18.712,1.65-18.712s-5.711,5.653-10.3,16.679c-2.295,5.496-4.334,12.374-4.427,20.426
			c0.093,3.985,0.156,8.377,1.807,12.688c0.54,2.091,1.777,4.508,3.073,6.826c1.365,2.573,2.294,3.282,3.497,5.019l3.09,3.724
			c0.575,1.237,1.499,2.237,1.917,3.619c0.999,2.58,2.108,5.316,2.451,8.325c0.987,5.914,0.918,12.101,0.668,17.492
			c-0.714,10.805-1.76,18.688-1.76,18.688s5.769-5.588,10.357-16.655c1.145-2.748,2.261-5.838,2.986-9.289
			c0.737-3.427,1.464-7.186,1.302-11.247c0-3.997-0.488-8.423-2.098-12.716C160.762,125.767,159.414,123.733,158.392,121.619z
			 M154.488,116.379C154.511,116.39,154.302,116.141,154.488,116.379L154.488,116.379z"/>
		<path d="M192.394,83.306c-0.593-1.034-1.383-1.952-2.092-2.928l-1.109-1.429l-0.558-0.715l-0.128-0.174
			c0.069,0.081,0.175,0.197,0.39,0.441l-0.059-0.076l-0.215-0.273c-0.965-1.307-2.882-3.189-3.079-4.02
			c-0.465-0.964-1.121-1.76-1.562-3.248c-1.046-2.574-1.854-5.496-2.271-8.47c-0.889-6.001-0.772-12.182-0.522-17.608
			c0.714-10.829,1.655-18.729,1.655-18.729s-5.711,5.653-10.306,16.679c-2.295,5.501-4.328,12.374-4.427,20.432
			c0.099,3.985,0.157,8.377,1.812,12.682c0.534,2.091,1.771,4.508,3.067,6.826c1.365,2.573,2.295,3.288,3.497,5.025l3.097,3.724
			c0.568,1.238,1.498,2.237,1.911,3.614c0.999,2.585,2.108,5.321,2.451,8.331c0.987,5.914,0.918,12.101,0.668,17.486
			c-0.714,10.806-1.76,18.695-1.76,18.695s5.769-5.595,10.364-16.656c1.138-2.748,2.254-5.844,2.985-9.295
			c0.731-3.427,1.452-7.186,1.29-11.241c0-3.997-0.488-8.424-2.092-12.723C194.776,87.448,193.428,85.409,192.394,83.306z
			 M188.507,78.061C188.519,78.072,188.304,77.834,188.507,78.061L188.507,78.061z"/>
		<path d="M237.417,124.39c-0.628-2.202-1.976-4.223-2.998-6.344c-0.604-1.034-1.395-1.952-2.092-2.928l-1.115-1.423l-0.558-0.714
			l-0.128-0.18c0.07,0.081,0.175,0.203,0.396,0.441l-0.081-0.076l-0.209-0.273c-0.953-1.307-2.882-3.189-3.08-4.02
			c-0.464-0.964-1.115-1.76-1.557-3.248c-1.045-2.573-1.858-5.496-2.266-8.47c-0.906-6.001-0.79-12.182-0.534-17.608
			c0.721-10.817,1.649-18.718,1.649-18.718s-5.704,5.653-10.294,16.685c-2.3,5.496-4.333,12.368-4.427,20.426
			c0.094,3.985,0.151,8.377,1.801,12.682c0.535,2.097,1.778,4.508,3.067,6.832c1.371,2.567,2.301,3.282,3.509,5.019l3.091,3.724
			c0.569,1.238,1.499,2.237,1.917,3.614c1,2.585,2.104,5.321,2.451,8.331c0.988,5.914,0.906,12.101,0.663,17.492
			c-0.709,10.8-1.755,18.689-1.755,18.689s5.764-5.589,10.364-16.656c1.139-2.748,2.254-5.844,2.974-9.295
			c0.744-3.421,1.465-7.186,1.302-11.241C239.496,133.109,239.02,128.683,237.417,124.39z M230.514,112.8
			C230.526,112.812,230.305,112.574,230.514,112.8L230.514,112.8z"/>
	</g>
	<path d="M349.257,217.787c-6.39,2.242-15.406,12.106-17.475,14.419l-0.151-2.417c-0.534-4.009-1.382-7.448-2.219-9.562h3.556
		v-6.484H47.956v6.484h3.799c-1.011,2.59-1.998,7.203-2.44,12.408c-0.343-0.406-10.695-12.328-17.846-14.849
		c-7.244-2.556-31.469,0-31.469,0v9.782c0,0,23.795-0.812,28.913,2.162c5.124,2.975,10.66,28.117,14.907,28.117
		c1.94,0,5.624,0,9.104,0c2.719,8.435,6.146,16.986,7.686,20.704h-6.437v9.923h7.041h258.533h7.25v-9.923h-6.414
		c1.557-3.765,4.973-12.315,7.68-20.704c3.323,0,6.773,0,8.633,0c4.241,0,9.783-25.143,14.918-28.117
		c5.113-2.975,28.908-2.139,28.908-2.139v-9.794C380.721,217.787,356.507,215.231,349.257,217.787z M68.742,240.594
		c0.25-3.567,1.441-6.762,2.336-9.423c2.021-5.31,4.792-8.063,4.792-8.063s-0.454,3.741-0.668,8.97
		c-0.197,5.182,0.146,12.06,1.063,18.403c0.558,3.684,1.318,6.879,1.998,9.83c0.796,3.102,1.534,6.064,2.44,8.539
		c0.889,2.452,1.476,4.683,2.091,6.135c0.535,1.522,0.843,2.383,0.843,2.383s-3.137-2.139-6.519-6.67
		c-1.557-2.289-3.363-5.065-4.879-8.261c-1.435-3.416-2.556-7.122-3.149-10.538c-0.5-2.115-0.372-3.881-0.563-5.798
		C68.306,244.231,68.637,242.372,68.742,240.594z"/>
</g>
<g>
</g>
<g>
</g>
<g>
</g>
<g>
</g>
<g>
</g>
<g>
</g>
<g>
</g>
<g>
</g>
<g>
</g>
<g>
</g>
<g>
</g>
<g>
</g>
<g>
</g>
<g>
</g>
<g>
</g>
</svg>
