<?xml version="1.0" encoding="iso-8859-1"?>
<!-- Generator: Adobe Illustrator 16.0.0, SVG Export Plug-In . SVG Version: 6.00 Build 0)  -->
<!DOCTYPE svg PUBLIC "-//W3C//DTD SVG 1.1//EN" "http://www.w3.org/Graphics/SVG/1.1/DTD/svg11.dtd">
<svg version="1.1" id="Capa_1" xmlns="http://www.w3.org/2000/svg" xmlns:xlink="http://www.w3.org/1999/xlink" x="0px" y="0px"
	 width="377.282px" height="377.282px" viewBox="0 0 377.282 377.282" style="enable-background:new 0 0 377.282 377.282;"
	 xml:space="preserve">
<g>
	<g>
		<path d="M229.261,358.018c0-1.371,0-3.393,0-5.973c13.803-0.115,29.255-18.822,38.445-35.285
			c27.014-3.707,66.541-36.238,66.843-73.023c0.128-13.896-5.67-21.076-10.526-24.666c-9.655-7.146-22.796-5.705-32.556-3.381
			c0.278-7.611,0.255-14.396-0.047-19.66c-6.82,0-14.965,0-23.679,0c3.113-6.146,7.181-12.025,11.084-16.033
			c2.23-5.019,25.735-58.128,25.735-58.128h-0.022c0.034-0.046,0.058-0.11,0.104-0.168c2.068-4.711,2.115-9.254-2.613-11.328
			c-0.221-0.116-1.139-0.511-1.359-0.616c-4.718-2.097-9.121,0.535-11.189,5.223c-0.035,0.07-0.035,0.128-0.058,0.192h-0.023
			c0,0-23.54,53.085-25.747,58.116c-0.406,6.64-2.277,15.313-5.298,22.743c-33.822,0-72.623,0-80.89,0c0,0-0.726,0-1.76,0
			c-9.818,0-61.725,0-96.017,0c-1.929,35.81,11.828,151.543,64.153,156.016c0,2.58,0,4.602,0,5.973H42.711v19.264h291.86v-19.264
			H229.261z M118.081,305.734c-11.398-26.27-19.606-97.55-19.606-97.55s23.104,64.053,28.361,81.783
			c5.251,17.742,28.285,42.908,28.285,42.908S129.456,332.004,118.081,305.734z M289.991,236.824
			c11.409-3.45,18.973-4.102,22.203-1.731c2.057,1.511,2.463,5.449,2.416,8.459c-0.162,20.426-19.519,39.828-36.087,48.658
			C284.692,274.003,288.167,254.379,289.991,236.824z"/>
		<polygon points="186.562,39.294 186.562,39.335 186.626,39.405 		"/>
		<path d="M126.197,99.833c1.429,2.69,2.417,3.451,3.701,5.269l3.235,3.916c0.593,1.307,1.569,2.341,2.01,3.771
			c1.057,2.736,2.225,5.629,2.568,8.778c1.051,6.216,0.964,12.699,0.703,18.398c-0.762,11.346-1.854,19.642-1.854,19.642
			s6.077-5.879,10.898-17.527c1.196-2.887,2.388-6.152,3.148-9.754c0.761-3.619,1.522-7.569,1.359-11.839
			c0-4.212-0.511-8.865-2.202-13.373c-0.691-2.295-2.097-4.427-3.178-6.664c-0.604-1.081-1.464-2.045-2.19-3.067l-1.174-1.51
			l-0.586-0.738l-0.128-0.192c0.058,0.082,0.174,0.204,0.401,0.477l-0.058-0.093l-0.215-0.291c-1.022-1.365-3.021-3.364-3.248-4.224
			c-0.477-1.011-1.168-1.853-1.632-3.41c-1.104-2.689-1.946-5.786-2.399-8.923c-0.941-6.297-0.807-12.792-0.558-18.503
			c0.75-11.386,1.737-19.705,1.737-19.705s-6.013,5.949-10.828,17.562c-2.429,5.774-4.531,12.996-4.653,21.489
			c0.11,4.188,0.18,8.784,1.917,13.315C123.53,94.837,124.826,97.382,126.197,99.833z"/>
		<path d="M161.936,59.534c1.464,2.725,2.429,3.462,3.701,5.287l3.236,3.898c0.615,1.284,1.58,2.37,2.021,3.793
			c1.046,2.719,2.214,5.606,2.557,8.749c1.051,6.233,0.964,12.728,0.703,18.392c-0.738,11.375-1.842,19.653-1.842,19.653
			s6.064-5.874,10.898-17.509c1.214-2.905,2.375-6.141,3.154-9.806c0.772-3.579,1.521-7.518,1.354-11.788
			c-0.012-4.211-0.5-8.876-2.214-13.384c-0.668-2.301-2.067-4.45-3.166-6.687c-0.627-1.086-1.452-2.05-2.213-3.084l-1.15-1.499
			l-0.61-0.749l-0.116-0.204c0.047,0.099,0.192,0.227,0.331,0.383l-0.227-0.25c-0.964-1.371-2.985-3.334-3.201-4.212
			c-0.476-1.011-1.173-1.836-1.626-3.427c-1.121-2.69-1.964-5.769-2.394-8.9c-0.941-6.303-0.819-12.804-0.569-18.526
			C171.323,8.296,172.312,0,172.312,0s-6.007,5.937-10.829,17.527c-2.417,5.757-4.555,13.013-4.665,21.483
			c0.11,4.177,0.157,8.807,1.906,13.35C159.292,54.562,160.594,57.094,161.936,59.534z"/>
		<path d="M206.139,96.063c1.44,2.707,2.417,3.474,3.672,5.269l3.229,3.916c0.616,1.295,1.592,2.341,2.021,3.793
			c1.069,2.725,2.22,5.6,2.568,8.754c1.046,6.222,0.965,12.717,0.709,18.369c-0.744,11.398-1.859,19.67-1.859,19.67
			s6.088-5.867,10.922-17.527c1.208-2.881,2.37-6.164,3.137-9.765c0.767-3.619,1.522-7.546,1.348-11.828
			c0-4.211-0.488-8.853-2.207-13.373c-0.65-2.306-2.068-4.45-3.16-6.687c-0.628-1.069-1.453-2.021-2.208-3.067l-1.15-1.499
			l-0.593-0.715l-0.139-0.203c0.093,0.082,0.197,0.227,0.395,0.488l-0.023-0.099l-0.244-0.296c-1.01-1.365-3.032-3.329-3.218-4.211
			c-0.488-1.011-1.186-1.854-1.649-3.428c-1.116-2.689-1.952-5.78-2.395-8.906c-0.94-6.297-0.812-12.804-0.568-18.514
			c0.755-11.375,1.73-19.682,1.73-19.682s-5.995,5.949-10.805,17.573c-2.417,5.774-4.555,12.996-4.671,21.465
			c0.093,4.188,0.163,8.801,1.894,13.338C203.467,91.079,204.769,93.624,206.139,96.063z"/>
	</g>
</g>
<g>
</g>
<g>
</g>
<g>
</g>
<g>
</g>
<g>
</g>
<g>
</g>
<g>
</g>
<g>
</g>
<g>
</g>
<g>
</g>
<g>
</g>
<g>
</g>
<g>
</g>
<g>
</g>
<g>
</g>
</svg>
