<?xml version="1.0" encoding="iso-8859-1"?>
<!-- Generator: Adobe Illustrator 16.0.0, SVG Export Plug-In . SVG Version: 6.00 Build 0)  -->
<!DOCTYPE svg PUBLIC "-//W3C//DTD SVG 1.1//EN" "http://www.w3.org/Graphics/SVG/1.1/DTD/svg11.dtd">
<svg version="1.1" id="Capa_1" xmlns="http://www.w3.org/2000/svg" xmlns:xlink="http://www.w3.org/1999/xlink" x="0px" y="0px"
	 width="367.394px" height="367.394px" viewBox="0 0 367.394 367.394" style="enable-background:new 0 0 367.394 367.394;"
	 xml:space="preserve">
<g>
	<polygon points="187.351,57.763 187.351,57.797 187.42,57.879 	"/>
	<g>
		<path d="M118.999,126.278c1.632,3.044,2.736,3.904,4.177,5.972l3.678,4.438c0.691,1.487,1.783,2.655,2.271,4.27
			c1.202,3.108,2.521,6.367,2.916,9.946c1.173,7.035,1.081,14.372,0.772,20.809c-0.848,12.85-2.097,22.255-2.097,22.255
			s6.878-6.669,12.339-19.839c1.371-3.271,2.713-6.959,3.561-11.055c0.877-4.09,1.737-8.563,1.534-13.408
			c0-4.758-0.587-10.027-2.486-15.133c-0.75-2.614-2.347-5.019-3.584-7.552c-0.703-1.238-1.65-2.324-2.487-3.486l-1.318-1.714
			l-0.668-0.825l-0.151-0.209c0.082,0.093,0.209,0.221,0.471,0.522l-0.069-0.11l-0.25-0.308c-1.139-1.557-3.439-3.805-3.678-4.781
			c-0.534-1.156-1.318-2.109-1.841-3.869c-1.249-3.044-2.213-6.53-2.725-10.102c-1.057-7.123-0.929-14.489-0.645-20.937
			c0.86-12.897,1.976-22.308,1.976-22.308s-6.791,6.722-12.252,19.868c-2.736,6.541-5.153,14.715-5.269,24.33
			c0.116,4.734,0.186,9.945,2.161,15.087C116.001,120.625,117.465,123.507,118.999,126.278z"/>
		<path d="M159.484,80.663c1.644,3.079,2.736,3.927,4.177,5.995l3.666,4.415c0.703,1.464,1.795,2.69,2.283,4.293
			c1.202,3.073,2.51,6.344,2.916,9.911c1.18,7.059,1.08,14.407,0.784,20.821c-0.843,12.874-2.103,22.25-2.103,22.25
			s6.872-6.664,12.333-19.822c1.371-3.282,2.713-6.948,3.561-11.102c0.878-4.055,1.737-8.517,1.546-13.361
			c0-4.746-0.569-10.039-2.498-15.145c-0.75-2.603-2.342-5.031-3.579-7.552c-0.702-1.237-1.644-2.324-2.503-3.485l-1.308-1.714
			l-0.662-0.836l-0.157-0.221c0.059,0.104,0.215,0.244,0.39,0.424l-0.232-0.273c-1.133-1.58-3.416-3.793-3.666-4.793
			c-0.534-1.144-1.324-2.085-1.858-3.88c-1.238-3.033-2.214-6.53-2.702-10.079c-1.057-7.146-0.923-14.5-0.639-20.96
			c0.854-12.885,1.987-22.273,1.987-22.273s-6.798,6.722-12.27,19.833c-2.725,6.53-5.136,14.744-5.258,24.33
			c0.122,4.723,0.191,9.958,2.167,15.122C156.475,75.034,157.95,77.915,159.484,80.663z"/>
		<path d="M209.508,122.031c1.638,3.056,2.73,3.927,4.171,5.972l3.683,4.426c0.674,1.476,1.778,2.667,2.266,4.293
			c1.197,3.079,2.498,6.344,2.905,9.922c1.196,7.041,1.08,14.396,0.802,20.797c-0.849,12.896-2.092,22.261-2.092,22.261
			s6.855-6.651,12.316-19.833c1.383-3.259,2.695-6.971,3.555-11.067c0.883-4.09,1.731-8.54,1.557-13.396
			c-0.022-4.747-0.58-10.016-2.486-15.122c-0.755-2.625-2.347-5.042-3.59-7.563c-0.709-1.226-1.639-2.301-2.486-3.474l-1.312-1.702
			l-0.674-0.848l-0.163-0.215c0.093,0.099,0.232,0.25,0.465,0.552l-0.047-0.099l-0.255-0.343c-1.139-1.563-3.416-3.771-3.66-4.77
			c-0.546-1.145-1.324-2.109-1.859-3.881c-1.243-3.032-2.219-6.541-2.707-10.091c-1.068-7.14-0.93-14.5-0.627-20.948
			c0.836-12.885,1.975-22.285,1.975-22.285s-6.809,6.733-12.246,19.879c-2.73,6.542-5.17,14.704-5.274,24.295
			c0.093,4.734,0.162,9.98,2.138,15.11C206.487,116.379,207.952,119.26,209.508,122.031z"/>
		<path d="M312.17,190c-5.53,1.923-17.172,5.106-12.014,20.025c1.418,4.066,5.67,16.324,10.526,30.383
			c-1.312,3.927-2.067,8.145-2.185,12.978c-2.602,0.14-4.926,0.407-6.436,0.94c-5.066,1.79-11.759,8.377-15.268,12.096
			c-4.717-21.402-21.61-36.006-31.557-42.932h5.136v-9.364H73.918v9.364H80c-10.219,7.146-27.844,22.355-31.98,44.791
			c-2.394-2.685-10.863-11.781-16.969-13.943c-7.163-2.521-31.051,0-31.051,0v9.679c0,0,23.487-0.825,28.53,2.126
			c5.06,2.928,10.521,27.758,14.715,27.758c1.464,0,3.979,0,6.617,0c9.864,29.965,43.866,50.854,43.866,50.854h-6.925v9.364H247.28
			v-9.387h-5.762c0,0,33.984-20.891,43.859-50.855c1.812,0,3.439,0,4.509,0c2.684,0,5.879-10.074,9.144-18.137
			c-0.047,1.928,0.268,3.973,1.011,6.135c1.627,4.658,4.346,7.738,8.11,9.155c3.857,1.487,7.9,0.708,10.654-0.21
			c4.612,8.343,10.735,16.395,16.289,20.055c6.088,17.579,10.492,30.301,11.863,34.252c4.229,12.211,15.859,5.902,20.437,4.311
			C365.465,343.883,313.565,194.015,312.17,190z M96.325,323.284c-2.405-1.707-4.95-3.625-7.366-6.018
			c-2.51-2.277-5.211-4.672-7.471-7.715c-2.37-2.882-5.025-5.775-6.948-9.877l-3.073-5.82c-0.674-1.848-1.139-3.637-1.714-5.449
			l-0.726-2.742l-0.354-1.371c-0.477-1.87-0.157-1.452-0.262-2.289l-0.046-6.425c-0.418-4.321,1.453-8.156,2.126-11.99
			c2.382-7.425,6.082-13.524,9.661-18.265c7.308-9.445,14.175-13.489,14.175-13.489s-0.906,1.708-2.503,4.683
			c-1.534,2.975-3.556,7.238-5.804,12.27c-0.965,2.544-1.999,5.298-3.091,8.202c-0.668,2.997-1.737,6.042-2.312,9.19
			c-0.204,3.172-1.272,6.438-0.773,9.632l0.192,4.833c0,0.047,0.011,0.441,0.011,0.674l0.366,1.221l0.837,2.73
			c0.511,1.789,0.93,3.718,1.499,5.414l2.225,4.137c1.226,2.719,2.998,5.693,4.927,8.47c3.59,5.635,7.639,10.724,11.159,15.069
			c7.088,8.656,12.183,14.616,12.183,14.616S105.782,330.255,96.325,323.284z M310.452,284.884
			c-1.883-0.708-3.254-2.394-4.229-5.171c-0.953-2.787-0.918-4.973,0.128-6.773c0.93-1.592,2.579-2.684,4.171-3.404
			c0.627,2.557,1.359,5.159,2.266,7.762c0.918,2.648,1.952,5.135,3.044,7.553C314.123,285.292,312.147,285.524,310.452,284.884z"/>
	</g>
</g>
<g>
</g>
<g>
</g>
<g>
</g>
<g>
</g>
<g>
</g>
<g>
</g>
<g>
</g>
<g>
</g>
<g>
</g>
<g>
</g>
<g>
</g>
<g>
</g>
<g>
</g>
<g>
</g>
<g>
</g>
</svg>
