<?xml version="1.0" encoding="iso-8859-1"?>
<!-- Generator: Adobe Illustrator 16.0.0, SVG Export Plug-In . SVG Version: 6.00 Build 0)  -->
<!DOCTYPE svg PUBLIC "-//W3C//DTD SVG 1.1//EN" "http://www.w3.org/Graphics/SVG/1.1/DTD/svg11.dtd">
<svg version="1.1" id="Capa_1" xmlns="http://www.w3.org/2000/svg" xmlns:xlink="http://www.w3.org/1999/xlink" x="0px" y="0px"
	 width="379.595px" height="379.594px" viewBox="0 0 379.595 379.594" style="enable-background:new 0 0 379.595 379.594;"
	 xml:space="preserve">
<g>
	<g>
		<path d="M137.856,103.081c1.487,2.771,2.509,3.555,3.817,5.438l3.34,4.055c0.634,1.359,1.645,2.417,2.086,3.904
			c1.092,2.817,2.283,5.792,2.655,9.074c1.081,6.402,1,13.117,0.72,18.979c-0.784,11.717-1.911,20.298-1.911,20.298
			s6.269-6.083,11.253-18.096c1.237-2.986,2.463-6.355,3.247-10.079c0.784-3.735,1.574-7.813,1.395-12.229
			c0-4.345-0.535-9.149-2.26-13.814c-0.703-2.376-2.144-4.578-3.259-6.89c-0.645-1.116-1.516-2.115-2.266-3.172l-1.22-1.563
			l-0.61-0.75l-0.127-0.197c0.058,0.093,0.186,0.209,0.412,0.488l-0.058-0.11l-0.227-0.273c-1.057-1.429-3.131-3.474-3.37-4.369
			c-0.47-1.057-1.196-1.911-1.673-3.532c-1.145-2.771-2.01-5.96-2.475-9.208c-0.976-6.495-0.848-13.205-0.587-19.084
			c0.778-11.77,1.801-20.356,1.801-20.356s-6.198,6.152-11.183,18.12c-2.492,5.972-4.688,13.419-4.811,22.186
			c0.11,4.322,0.192,9.068,1.987,13.756C135.103,97.917,136.462,100.548,137.856,103.081z"/>
		<path d="M174.769,61.463c1.516,2.806,2.516,3.59,3.822,5.472l3.341,4.032c0.645,1.336,1.644,2.44,2.085,3.916
			c1.093,2.794,2.283,5.786,2.649,9.057c1.086,6.419,1.005,13.135,0.726,18.985c-0.761,11.746-1.899,20.298-1.899,20.298
			s6.257-6.077,11.229-18.084c1.249-3.009,2.475-6.338,3.26-10.126c0.795-3.712,1.574-7.767,1.405-12.194
			c-0.012-4.316-0.522-9.161-2.271-13.814c-0.703-2.364-2.144-4.589-3.259-6.884c-0.656-1.121-1.517-2.12-2.289-3.189l-1.186-1.557
			l-0.621-0.755l-0.134-0.197c0.053,0.093,0.192,0.221,0.349,0.377l-0.227-0.261c-1.034-1.441-3.119-3.462-3.346-4.369
			c-0.482-1.046-1.209-1.9-1.686-3.544c-1.145-2.759-2.021-5.96-2.463-9.184c-0.964-6.519-0.848-13.216-0.587-19.107
			C184.458,8.563,185.492,0,185.492,0s-6.21,6.141-11.194,18.096c-2.475,5.96-4.7,13.443-4.81,22.186
			c0.122,4.311,0.192,9.091,1.975,13.791C172.044,56.333,173.38,58.953,174.769,61.463z"/>
		<path d="M220.412,99.2c1.487,2.789,2.498,3.584,3.8,5.449l3.334,4.032c0.64,1.348,1.639,2.428,2.08,3.927
			c1.115,2.812,2.289,5.786,2.66,9.057c1.081,6.425,1,13.135,0.721,18.973c-0.755,11.758-1.894,20.298-1.894,20.298
			s6.263-6.053,11.235-18.096c1.243-2.975,2.463-6.35,3.241-10.085c0.802-3.729,1.58-7.796,1.418-12.223
			c-0.023-4.328-0.534-9.138-2.277-13.797c-0.697-2.393-2.161-4.606-3.253-6.901c-0.663-1.109-1.522-2.097-2.277-3.166l-1.209-1.545
			l-0.604-0.772l-0.14-0.203c0.081,0.081,0.186,0.227,0.395,0.5l-0.022-0.093l-0.244-0.313c-1.058-1.417-3.148-3.451-3.335-4.351
			c-0.522-1.04-1.22-1.917-1.708-3.55c-1.127-2.759-2.01-5.96-2.463-9.185c-0.977-6.506-0.849-13.228-0.593-19.107
			c0.755-11.741,1.812-20.321,1.812-20.321s-6.216,6.14-11.177,18.119c-2.498,5.972-4.718,13.425-4.811,22.168
			c0.093,4.316,0.163,9.103,1.952,13.762C217.659,94.036,218.995,96.679,220.412,99.2z"/>
		<path d="M356.386,182.994H23.208v33.229h13.385c-12.112,80.6,69.695,129.188,101.547,144.862v18.509h103.337v-18.509
			c31.835-15.674,113.63-64.251,101.512-144.862h13.396V182.994z M126.562,323.208c-6.257-3.521-13.338-8.087-20.274-13.872
			c-7.14-5.555-13.797-12.642-20.083-20.124c-3.044-3.788-5.629-8.028-8.4-11.968c-2.411-4.217-4.601-8.492-6.483-12.711
			c-1.644-4.368-3.352-8.527-4.235-12.699c-0.854-4.217-1.76-8.098-1.999-11.862c-0.191-3.812-0.122-7.273-0.058-10.247
			c0.058-2.951,0.912-5.322,1.249-7.391c0.9-4.078,1.568-6.39,1.568-6.39s0.633,2.323,1.487,6.413
			c0.499,1.999,0.749,4.602,1.58,7.262c0.918,2.638,1.94,5.52,2.823,8.586c1.069,3.068,2.893,6.344,4.2,9.807
			c1.429,3.463,3.828,6.785,5.542,10.457c2.01,3.578,4.688,6.947,6.832,10.666c2.678,3.439,5.077,7.11,7.993,10.469
			c2.806,3.428,5.438,7.006,8.517,10.166c2.963,3.242,5.734,6.623,8.737,9.62c5.769,6.181,11.479,11.781,16.318,16.731
			c9.975,9.945,16.621,16.568,16.621,16.568S139.076,330.272,126.562,323.208z"/>
	</g>
</g>
<g>
</g>
<g>
</g>
<g>
</g>
<g>
</g>
<g>
</g>
<g>
</g>
<g>
</g>
<g>
</g>
<g>
</g>
<g>
</g>
<g>
</g>
<g>
</g>
<g>
</g>
<g>
</g>
<g>
</g>
</svg>
