<?xml version="1.0" encoding="iso-8859-1"?>
<!-- Generator: Adobe Illustrator 16.0.0, SVG Export Plug-In . SVG Version: 6.00 Build 0)  -->
<!DOCTYPE svg PUBLIC "-//W3C//DTD SVG 1.1//EN" "http://www.w3.org/Graphics/SVG/1.1/DTD/svg11.dtd">
<svg version="1.1" id="Capa_1" xmlns="http://www.w3.org/2000/svg" xmlns:xlink="http://www.w3.org/1999/xlink" x="0px" y="0px"
	 width="373.517px" height="373.517px" viewBox="0 0 373.517 373.517" style="enable-background:new 0 0 373.517 373.517;"
	 xml:space="preserve">
<g>
	<g>
		<path d="M57.866,52.447v-34.02l5.211-6.256H319.63V0H57.378L45.696,14.03v38.417h-0.035v321.07h282.194V52.447H57.866z
			 M290.583,263.14c0,0-14.64-0.511-17.777,1.302c-3.148,1.835-6.553,17.288-9.179,17.288c-0.313,0-0.743,0-1.185,0
			c-0.65,16.835-2.951,35.553-9.446,41.479h6.495v9.597H125.504v-9.597h7.866c-6.344-5.763-8.662-23.632-9.376-40.143
			c-0.104,0-0.262,0-0.366,0c-2.62,0-6.013-15.452-9.173-17.276c-3.143-1.836-17.753-1.325-17.753-1.325v-6.019
			c0,0,14.872-1.568,19.333,0c2.429,0.859,5.438,3.486,7.697,5.705c0.082-6.076,0.285-10.317,0.343-11.514h-5.792v-7.25h149.132
			v7.25h-5.124c0.047,1.173,0.244,5.217,0.337,11.084c2.324-2.359,5.855-5.624,8.633-6.6c4.438-1.58,19.334,0,19.334,0v6.019
			H290.583z M166.077,186.184c0.262,1.894,0.784,3.747,1.452,5.385c0.272,0.953,0.697,1.464,0.987,2.068
			c0.128,0.534,1.342,1.73,1.964,2.567l0.128,0.187l0.023,0.034c-0.128-0.151-0.204-0.221-0.25-0.278l0.087,0.127l0.354,0.453
			l0.703,0.906c0.453,0.616,0.964,1.209,1.33,1.859c0.656,1.336,1.511,2.638,1.917,4.043c1.022,2.719,1.33,5.543,1.33,8.087
			c0.11,2.591-0.354,4.984-0.819,7.157c-0.464,2.207-1.167,4.171-1.905,5.914c-2.91,7.053-6.587,10.607-6.587,10.607
			s0.662-5.02,1.115-11.897c0.156-3.415,0.215-7.354-0.43-11.13c-0.21-1.906-0.912-3.66-1.558-5.299
			c-0.25-0.859-0.843-1.51-1.214-2.289l-1.964-2.358c-0.761-1.104-1.354-1.568-2.225-3.206c-0.831-1.488-1.615-3.021-1.964-4.334
			c-1.046-2.731-1.092-5.542-1.15-8.081c0.059-5.124,1.354-9.504,2.818-13.001c2.916-7.023,6.559-10.625,6.559-10.625
			s-0.61,5.031-1.052,11.92C165.577,178.44,165.508,182.378,166.077,186.184z M187.717,161.819c0.261,1.888,0.772,3.747,1.458,5.391
			c0.268,0.935,0.697,1.446,0.977,2.068c0.139,0.535,1.359,1.726,1.975,2.556l0.116,0.18l0.035,0.046
			c-0.128-0.151-0.198-0.238-0.256-0.273l0.081,0.11l0.36,0.447l0.709,0.906c0.441,0.633,0.952,1.214,1.324,1.865
			c0.65,1.348,1.511,2.644,1.917,4.038c1.022,2.736,1.324,5.554,1.336,8.104c0.105,2.591-0.359,4.973-0.824,7.157
			c-0.465,2.196-1.174,4.171-1.895,5.913c-2.928,7.019-6.6,10.574-6.6,10.574s0.675-5.02,1.116-11.875
			c0.162-3.439,0.209-7.366-0.419-11.142c-0.221-1.917-0.924-3.666-1.568-5.292c-0.25-0.871-0.842-1.516-1.208-2.3l-1.976-2.364
			c-0.761-1.11-1.348-1.557-2.225-3.201c-0.825-1.476-1.621-3.009-1.952-4.345c-1.046-2.736-1.098-5.531-1.155-8.075
			c0.058-5.129,1.359-9.498,2.822-12.996c2.923-7.029,6.564-10.619,6.564-10.619s-0.604,5.031-1.045,11.909
			C187.217,154.052,187.147,157.985,187.717,161.819z M214.457,183.912c0.256,1.894,0.778,3.747,1.44,5.391
			c0.279,0.953,0.709,1.452,1,2.068c0.115,0.535,1.336,1.731,1.951,2.556l0.116,0.175c0.023,0.023,0.023,0.023,0.047,0.046
			l-0.023-0.022l-0.023-0.023c-0.093-0.094-0.162-0.186-0.197-0.233l0.081,0.116l0.36,0.453l0.709,0.906
			c0.441,0.617,0.952,1.221,1.324,1.859c0.651,1.336,1.511,2.638,1.917,4.043c1.022,2.73,1.313,5.555,1.336,8.088
			c0.094,2.59-0.359,4.984-0.824,7.168c-0.465,2.195-1.174,4.16-1.906,5.902c-2.916,7.064-6.587,10.619-6.587,10.619
			s0.674-5.02,1.115-11.896c0.163-3.428,0.209-7.367-0.419-11.131c-0.209-1.906-0.906-3.672-1.557-5.299
			c-0.256-0.871-0.836-1.51-1.208-2.301l-1.976-2.347c-0.767-1.115-1.359-1.58-2.23-3.206c-0.813-1.488-1.615-3.021-1.952-4.346
			c-1.058-2.73-1.092-5.542-1.149-8.075c0.058-5.129,1.359-9.504,2.8-13.001c2.928-7.023,6.564-10.625,6.564-10.625
			s-0.616,5.031-1.058,11.921C213.946,176.168,213.876,180.107,214.457,183.912z M300.156,111.493H83.544V90.254h216.612V111.493z"
			/>
		<path d="M145.918,299.414c-0.523-3.694-1.115-7.157-1.626-11.271c-0.25-2.138-0.668-3.811-0.738-5.785
			c-0.157-1.906-0.296-3.812-0.558-5.659c-0.511-3.729-0.703-7.146-0.964-10.166c-0.396-3.021-0.396-5.461-0.558-7.262
			c-0.181-1.801-0.157-2.847-0.157-2.847s-2.068,3.672-3.317,9.818c-0.291,1.533-0.622,3.194-0.964,4.938
			c-0.407,1.766-0.325,3.625-0.54,5.554c-0.151,1.929-0.221,3.927-0.273,5.995c-0.104,2.021-0.093,4.322,0.099,6.216
			c0.151,1.976,0.204,4.009,0.715,6.112c0.436,2.056,0.714,4.146,1.354,5.982c1.057,3.766,2.451,7.158,3.869,9.946
			c2.817,5.646,5.925,8.702,5.925,8.702s-0.168-4.322-0.906-10.271C146.871,306.489,146.424,303.061,145.918,299.414z"/>
	</g>
</g>
<g>
</g>
<g>
</g>
<g>
</g>
<g>
</g>
<g>
</g>
<g>
</g>
<g>
</g>
<g>
</g>
<g>
</g>
<g>
</g>
<g>
</g>
<g>
</g>
<g>
</g>
<g>
</g>
<g>
</g>
</svg>
