<?xml version="1.0" encoding="iso-8859-1"?>
<!-- Generator: Adobe Illustrator 16.0.0, SVG Export Plug-In . SVG Version: 6.00 Build 0)  -->
<!DOCTYPE svg PUBLIC "-//W3C//DTD SVG 1.1//EN" "http://www.w3.org/Graphics/SVG/1.1/DTD/svg11.dtd">
<svg version="1.1" id="Capa_1" xmlns="http://www.w3.org/2000/svg" xmlns:xlink="http://www.w3.org/1999/xlink" x="0px" y="0px"
	 width="367.776px" height="367.776px" viewBox="0 0 367.776 367.776" style="enable-background:new 0 0 367.776 367.776;"
	 xml:space="preserve">
<g>
	<path d="M297.611,135.495c-1.452,0-3.021,0-4.52,0c2.033-5.699,3.393-11.659,3.393-18.003c0-29.506-23.399-53.504-54.038-56.298
		c-5.601-26.224-30-45.47-58.547-45.47c-23.458,0-43.779,12.786-53.632,31.487c-9.655-15.976-26.119-43.222-26.119-43.222
		l-0.012,0.012c-0.035-0.058-0.046-0.093-0.07-0.14c-2.289-3.788-7.203-4.984-10.979-2.713c-0.197,0.116-0.918,0.569-1.104,0.674
		c-3.776,2.301-4.996,7.209-2.696,10.974c0.035,0.035,0.058,0.081,0.093,0.116l-0.023,0.023c0,0,30.395,50.257,32.822,54.265
		c0.36,0.285,0.779,0.703,1.162,1.011c-28.582,4.45-50.285,27.949-50.285,56.089c0,3.009,0.093,7.076,1.766,11.194
		c-1.696,0-3.462,0-5.089,0c-19.38,70.305,105.95,102.977,105.95,109.553c0,6.564,0.512,37.237-0.058,61.729
		c0,32.149-35.402,50.739-52.272,57.757c-3.637,1.626-2.567,3.241,0,3.241c2.44,0,55.49,0,60.858,0c0.279,0,0.534,0,0.534,0
		c5.356,0,58.419,0,60.848,0c2.567,0,3.637-1.626,0.012-3.241c-16.871-7.018-52.284-25.596-52.284-57.757
		c-0.569-24.504-0.069-55.177-0.069-61.729C193.252,238.484,319.094,205.8,297.611,135.495z M154.608,215.931
		c-10.306-3.996-23.504-10.771-35.425-19.764c-5.868-4.589-11.538-9.585-16.173-15.057c-4.659-5.38-8.366-11.171-10.48-16.685
		c-2.231-5.484-2.591-10.562-2.115-13.978c0.035-0.726,0.174-1.272,0.302-1.818c0.511,0.186,1.139,0.319,1.685,0.5
		c0.104,0.401,0.197,0.784,0.337,1.237c0.837,2.864,2.695,6.803,5.716,10.834c6.088,8.15,16.638,17.108,27.874,25.544
		c11.177,8.504,22.877,16.707,31.556,23.236c8.714,6.414,14.418,11.294,14.418,11.294S164.891,220.009,154.608,215.931z
		 M87.65,135.495c-4.066-3.259-4.09-7.285-4.078-11.636c0-12.646,7.215-33.886,33.322-43.738c26.119-9.847,44.813,1.54,48.961,5.449
		c7.494,7.105,14.675,25.747,12.072,34.74c-2.614,8.999,3.241,10.771,5.205-0.558c1.964-11.322,2.603-28.814-10.039-41.81
		c-9.945-9.394-23.562-11.479-33.984-11.561c-0.895-2.823-1.626-5.583-2.103-7.994c6.344-18.613,24.864-32.172,46.893-32.172
		c22.842,0,42.257,14.849,47.602,35.239c-5.542,0.296-11.34,2.19-17.01,5.926c-9.992,6.588-18.729,20.867-18.637,26.397
		c0.094,5.536,3.428,7.523,5.484,0.511c2.057-7.006,12.455-14.5,18.95-18.131c6.355-3.555,25.422-6.71,42.245,2.324
		c14.117,7.599,23.459,27.646,23.459,39.01c0,6.378-1.395,12.467-3.916,18.003C222.67,135.495,141.932,135.495,87.65,135.495z"/>
</g>
<g>
</g>
<g>
</g>
<g>
</g>
<g>
</g>
<g>
</g>
<g>
</g>
<g>
</g>
<g>
</g>
<g>
</g>
<g>
</g>
<g>
</g>
<g>
</g>
<g>
</g>
<g>
</g>
<g>
</g>
</svg>
