<?xml version="1.0" encoding="iso-8859-1"?>
<!-- Generator: Adobe Illustrator 16.0.0, SVG Export Plug-In . SVG Version: 6.00 Build 0)  -->
<!DOCTYPE svg PUBLIC "-//W3C//DTD SVG 1.1//EN" "http://www.w3.org/Graphics/SVG/1.1/DTD/svg11.dtd">
<svg version="1.1" id="Capa_1" xmlns="http://www.w3.org/2000/svg" xmlns:xlink="http://www.w3.org/1999/xlink" x="0px" y="0px"
	 width="261.699px" height="261.699px" viewBox="0 0 261.699 261.699" style="enable-background:new 0 0 261.699 261.699;"
	 xml:space="preserve">
<g>
	<path d="M175.854,42.094C174.204,16.894,171.753,0,169.22,0c-9.98,0-141.985,0-148.887,0c-6.902,0-9.208,77.525-9.208,130.85
		c0,53.329,9.208,130.85,9.208,130.85H169.22c0,0,1.313-11.933,2.917-30.673c32.253-6.065,78.438-19.66,78.438-47.916V81.534
		C250.562,61.294,225.442,48.078,175.854,42.094z M46.771,211.1c-0.622,10.678-1.656,19.577-2.144,25.829
		c-0.593,6.227-1.104,9.782-1.104,9.782l-3.846-12.258c0,0-3.747-13.327-4.461-24.016c-0.819-10.666-1.51-23.121-1.999-36.472
		c-0.604-13.314-0.639-27.676-0.976-41.769c-0.488-28.466-0.011-56.966,1.098-78.362c0.477-10.683,1.377-19.606,1.771-25.852
		c0.512-6.233,0.977-9.806,0.977-9.806s5.304,4.235,6.042,10.463c0.633,6.222,1.859,15.092,2.725,25.77
		c1.905,21.332,3.427,49.786,3.985,78.252C49.101,161.337,48.147,189.687,46.771,211.1z M219.866,181.623
		c-4.462,5.24-23.818,12.571-45.312,17.497c1.417-20.646,2.648-44.452,3.102-68.259c0.384-19.717,0.221-39.417-0.337-57.321
		c19.729,2.951,36.738,7.267,42.548,11.16V181.623z"/>
</g>
<g>
</g>
<g>
</g>
<g>
</g>
<g>
</g>
<g>
</g>
<g>
</g>
<g>
</g>
<g>
</g>
<g>
</g>
<g>
</g>
<g>
</g>
<g>
</g>
<g>
</g>
<g>
</g>
<g>
</g>
</svg>
