<?xml version="1.0" encoding="iso-8859-1"?>
<!-- Generator: Adobe Illustrator 16.0.0, SVG Export Plug-In . SVG Version: 6.00 Build 0)  -->
<!DOCTYPE svg PUBLIC "-//W3C//DTD SVG 1.1//EN" "http://www.w3.org/Graphics/SVG/1.1/DTD/svg11.dtd">
<svg version="1.1" id="Capa_1" xmlns="http://www.w3.org/2000/svg" xmlns:xlink="http://www.w3.org/1999/xlink" x="0px" y="0px"
	 width="380.728px" height="380.728px" viewBox="0 0 380.728 380.728" style="enable-background:new 0 0 380.728 380.728;"
	 xml:space="preserve">
<g>
	<path d="M377.133,140.115L237.012,0l-67.243,67.22l62.2,62.201l-49.763,49.862l-70.328,52.127L11.069,332.224l0.035,0.035
		c-0.116,0.104-0.25,0.174-0.377,0.303c-9.51,9.516-9.51,24.934,0.012,34.449c0.476,0.488,6.088,6.088,6.564,6.576
		c9.521,9.516,24.951,9.527,34.456,0c0.133-0.117,0.215-0.244,0.313-0.372l0.035,0.034l99.7-99.699l51.146-73.279l49.885-49.983
		l57.071,57.083L377.133,140.115z"/>
</g>
<g>
</g>
<g>
</g>
<g>
</g>
<g>
</g>
<g>
</g>
<g>
</g>
<g>
</g>
<g>
</g>
<g>
</g>
<g>
</g>
<g>
</g>
<g>
</g>
<g>
</g>
<g>
</g>
<g>
</g>
</svg>
