<?xml version="1.0" encoding="iso-8859-1"?>
<!-- Generator: Adobe Illustrator 16.0.0, SVG Export Plug-In . SVG Version: 6.00 Build 0)  -->
<!DOCTYPE svg PUBLIC "-//W3C//DTD SVG 1.1//EN" "http://www.w3.org/Graphics/SVG/1.1/DTD/svg11.dtd">
<svg version="1.1" id="Capa_1" xmlns="http://www.w3.org/2000/svg" xmlns:xlink="http://www.w3.org/1999/xlink" x="0px" y="0px"
	 width="386.693px" height="386.693px" viewBox="0 0 386.693 386.693" style="enable-background:new 0 0 386.693 386.693;"
	 xml:space="preserve">
<g>
	<path d="M221.588,172.659c-1.069-0.976-2.185-1.824-3.3-2.515v-10.91c4.902-4.078,10.131-13.263,10.131-33.926
		c0-18.956-5.286-72.71-15.08-89.65c1.185-6.32,0.139-15.767-2.545-22.238c-3.265-7.842-8.97-12.548-15.854-13.239
		c-0.191-0.052-0.61-0.168-1.133-0.168L193.012,0l-1.046,0.157c-7.104,0.727-12.815,5.432-16.062,13.274
		c-2.689,6.472-3.736,15.917-2.545,22.238c-9.806,16.928-15.087,70.694-15.087,89.649c0,20.652,5.234,29.849,10.138,33.927v10.91
		c-1.133,0.691-2.236,1.528-3.312,2.515c-14.454,13.135-31.196,59.679-28.838,206.819c0.059,3.973,3.341,7.203,7.437,7.203
		c4.02-0.082,7.244-3.416,7.186-7.436c-2.951-184.981,25.213-196.664,24.951-196.676c1.696,0,3.434-0.68,4.758-1.871
		c1.546-1.376,2.44-3.363,2.44-5.449v-20.524c0-1.307,0.012-3.294-1.679-4.95c-1.023-0.988-2.086-1.714-3.713-1.929
		c-0.883-0.889-4.734-5.804-4.734-22.541c0-30.127,8.052-72.837,12.159-81.261h16.458c4.531,9.196,12.258,52.621,12.258,81.261
		c0,15.012-3.23,21.257-4.346,22.459c-1.511,0.204-2.754,0.825-3.938,1.975c-1.859,1.784-1.859,4.131-1.859,5.234v20.263
		c0,2.085,0.895,4.072,2.44,5.46c1.15,1.022,2.591,1.667,4.414,1.795c0.372,0.261,0.849,0.622,1.244,0.976
		c6.285,5.71,26.583,36.703,24.051,195.763c-0.07,4.02,3.16,7.354,7.25,7.436h0.081c3.974,0,7.25-3.219,7.319-7.191
		C252.773,232.328,236.03,185.783,221.588,172.659z M199.175,29.424h-11.671c0.059-3.985,0.912-9.33,3.056-12.601
		c1.203-1.835,2.226-2.097,2.783-2.155c0.558,0.058,1.586,0.32,2.788,2.167C198.257,20.095,199.118,25.439,199.175,29.424z
		 M194.167,3.056L194.167,3.056L194.167,3.056L194.167,3.056z"/>
</g>
<g>
</g>
<g>
</g>
<g>
</g>
<g>
</g>
<g>
</g>
<g>
</g>
<g>
</g>
<g>
</g>
<g>
</g>
<g>
</g>
<g>
</g>
<g>
</g>
<g>
</g>
<g>
</g>
<g>
</g>
</svg>
