<?xml version="1.0" encoding="iso-8859-1"?>
<!-- Generator: Adobe Illustrator 16.0.0, SVG Export Plug-In . SVG Version: 6.00 Build 0)  -->
<!DOCTYPE svg PUBLIC "-//W3C//DTD SVG 1.1//EN" "http://www.w3.org/Graphics/SVG/1.1/DTD/svg11.dtd">
<svg version="1.1" id="Capa_1" xmlns="http://www.w3.org/2000/svg" xmlns:xlink="http://www.w3.org/1999/xlink" x="0px" y="0px"
	 width="32px" height="32px" viewBox="0 0 32 32" style="enable-background:new 0 0 32 32;" xml:space="preserve">
<g>
	<path d="M30.415,7.444c-2.957-0.728-11.097,4.69-12.763,5.828c-2.659-0.653-6.244-0.706-7.293-0.706C8.63,12.566,0,12.707,0,15.458
		c0,0.234,0.067,0.449,0.185,0.648l1.486,7.009c0,0,3.086,1.396,8.688,1.504c5.603,0.107,9.194-1.989,9.194-1.989l1.031-6.619
		c0.084-0.172,0.133-0.355,0.133-0.553c0-0.692-0.547-1.221-1.393-1.62c1.518-1.647,9.625-4.656,11.414-4.091
		C32.202,10.125,32.743,7.878,30.415,7.444z M10.359,14.19c4.891,0,7.825,0.766,8.599,1.267c-0.774,0.5-3.708,1.266-8.599,1.266
		c-4.892,0-7.824-0.766-8.599-1.266C2.535,14.957,5.468,14.19,10.359,14.19z"/>
</g>
<g>
</g>
<g>
</g>
<g>
</g>
<g>
</g>
<g>
</g>
<g>
</g>
<g>
</g>
<g>
</g>
<g>
</g>
<g>
</g>
<g>
</g>
<g>
</g>
<g>
</g>
<g>
</g>
<g>
</g>
</svg>
