<?xml version="1.0" encoding="iso-8859-1"?>
<!-- Generator: Adobe Illustrator 16.0.0, SVG Export Plug-In . SVG Version: 6.00 Build 0)  -->
<!DOCTYPE svg PUBLIC "-//W3C//DTD SVG 1.1//EN" "http://www.w3.org/Graphics/SVG/1.1/DTD/svg11.dtd">
<svg version="1.1" id="Capa_1" xmlns="http://www.w3.org/2000/svg" xmlns:xlink="http://www.w3.org/1999/xlink" x="0px" y="0px"
	 width="380.728px" height="380.728px" viewBox="0 0 380.728 380.728" style="enable-background:new 0 0 380.728 380.728;"
	 xml:space="preserve">
<g>
	<path d="M85.931,376.048l0.116,0.035c0.023-0.105,0.07-0.232,0.122-0.326c0.413-0.789,0.686-1.73,0.854-2.719
		c16.824-53.806,61.666-128.561,85.327-154.342l27.699-27.717l8.598,8.604l9.086-9.103c0,0,12.386-33.026,56.815-58.25
		c7.366-7.349,100.745-100.746,100.745-100.746l-0.022-0.035c0.081-0.087,0.197-0.133,0.267-0.215
		c6.925-6.913,6.913-18.131,0-25.032c-6.901-6.913-18.125-6.913-25.038,0c-0.093,0.081-0.14,0.18-0.232,0.261l-0.023-0.023
		c0,0-91.974,91.967-100.501,100.496c-34.879,49.385-59.366,56.182-59.366,56.182l-9.103,9.091l7.662,7.663l-24.957,24.963
		c-22.726,22.727-100.763,70.143-156.573,87.744c-2.074,0.244-3.811,0.941-5.071,2.195c-7.756,7.75,4.438,32.533,27.257,55.352
		c22.807,22.809,47.59,35.008,55.351,27.246C85.333,376.978,85.646,376.524,85.931,376.048z M369.032,13.841
		c3.869,3.875,3.869,10.161,0,14.047c-3.881,3.893-20.24,13.948-24.121,10.068c-3.881-3.881,6.205-20.229,10.074-24.103
		C358.843,9.949,365.14,9.949,369.032,13.841z M57.698,322.032c-12.693-12.688-25.997-22.075-36.622-26.583
		c49.147-17.974,110.198-54.201,138.582-77.312l2.022,2.022c-23.116,28.419-59.366,89.499-77.334,138.669
		C79.86,348.151,70.438,334.79,57.698,322.032z"/>
</g>
<g>
</g>
<g>
</g>
<g>
</g>
<g>
</g>
<g>
</g>
<g>
</g>
<g>
</g>
<g>
</g>
<g>
</g>
<g>
</g>
<g>
</g>
<g>
</g>
<g>
</g>
<g>
</g>
<g>
</g>
</svg>
