<?xml version="1.0" encoding="iso-8859-1"?>
<!-- Generator: Adobe Illustrator 16.0.0, SVG Export Plug-In . SVG Version: 6.00 Build 0)  -->
<!DOCTYPE svg PUBLIC "-//W3C//DTD SVG 1.1//EN" "http://www.w3.org/Graphics/SVG/1.1/DTD/svg11.dtd">
<svg version="1.1" id="Capa_1" xmlns="http://www.w3.org/2000/svg" xmlns:xlink="http://www.w3.org/1999/xlink" x="0px" y="0px"
	 width="380.734px" height="380.734px" viewBox="0 0 380.734 380.734" style="enable-background:new 0 0 380.734 380.734;"
	 xml:space="preserve">
<g>
	<path d="M197.592,96.333l-0.093-0.122c0.047,0.07,0.07,0.18,0.116,0.25c0.441,8.069,1.905,16.062,4.462,23.807
		c0.558,2.202,1.348,4.293,2.277,6.32c0.465,1.116,1.045,2.225,1.557,3.317c0,0.035,0,0.07,0,0.093
		c-3.509,57.501-53.033,70.183-60.376,77.549C137.314,215.76,6.308,346.773,6.308,346.773l0.052,0.012
		c-0.099,0.128-0.191,0.198-0.302,0.267c-7.686,7.681-7.709,20.217-0.011,27.885c7.697,7.727,20.216,7.727,27.902,0.023
		c0.116-0.092,0.192-0.209,0.273-0.302c0.204-0.197,129.455-129.443,138.937-138.948c8.44-8.399,28.048-57.988,78.577-60.329
		c2.254,1.231,4.949,2.091,7.738,2.771c5.53,1.853,11.153,3.189,16.847,3.974c0.093,0.046,0.221,0.081,0.302,0.139l-0.093-0.116
		c27.374,3.724,56.083-4.822,77.125-25.869c22.633-22.639,30.929-54.201,24.887-83.364c-3.485-16.894-76.532,31.742-89.626,18.619
		c-9.725-9.719,43.64-81.534,31.51-85.973c-32.428-11.845-70.224-4.77-96.249,21.239C205.098,45.896,196.313,71.323,197.592,96.333z
		"/>
</g>
<g>
</g>
<g>
</g>
<g>
</g>
<g>
</g>
<g>
</g>
<g>
</g>
<g>
</g>
<g>
</g>
<g>
</g>
<g>
</g>
<g>
</g>
<g>
</g>
<g>
</g>
<g>
</g>
<g>
</g>
</svg>
