<?xml version="1.0" encoding="iso-8859-1"?>
<!-- Generator: Adobe Illustrator 16.0.0, SVG Export Plug-In . SVG Version: 6.00 Build 0)  -->
<!DOCTYPE svg PUBLIC "-//W3C//DTD SVG 1.1//EN" "http://www.w3.org/Graphics/SVG/1.1/DTD/svg11.dtd">
<svg version="1.1" id="Capa_1" xmlns="http://www.w3.org/2000/svg" xmlns:xlink="http://www.w3.org/1999/xlink" x="0px" y="0px"
	 width="380.71px" height="380.71px" viewBox="0 0 380.71 380.71" style="enable-background:new 0 0 380.71 380.71;"
	 xml:space="preserve">
<g>
	<path d="M371.983,256.047c-8.47-10.828-30.302-22.412-51.401-33.624c-16.917-8.993-32.857-17.498-41.107-24.998l2.162-1.999
		l-4.497-4.828c0,0-0.615-0.25-1.696-0.825l-1.951,1.847l-22.297-22.104c13.978-21.396,30.092-57.954,22.366-63.676
		c-8.436-6.239-75.149-62.775-106.59-70.444C135.531,27.735,10.537,140.448,2.88,164.22c-7.68,23.76,1.964,43.041,6.135,53.672
		c4.183,10.643-3.834,31.452-0.767,44.778c3.079,13.326,31.452,44.186,49.077,41.107c17.637-3.068,55.979-33.741,55.979-33.741
		s10.736,0,19.171,0c6.077,0,55.642-39.085,88.267-68.364l30.558,30.348l-1.929,1.812c0.43,1.046,0.581,1.65,0.581,1.65l4.496,4.811
		l2.649-2.464c7.122,8.458,14.732,25.585,22.784,43.779c9.679,21.843,19.683,44.441,29.884,53.679
		c11.002,9.98,21.088,11.025,27.617,10.154c5.588-0.744,10.771-3.219,14.674-6.855c1.465-1.359,2.742-2.893,3.812-4.566l1.499-2.335
		c0.767-0.593,1.533-1.196,2.23-1.847c3.916-3.637,6.727-8.645,7.865-14.152c0.64-3.066,0.872-7.006-0.022-11.537
		c0.36-0.477,0.743-0.953,1.068-1.464l1.499-2.347c0.778-0.57,1.533-1.186,2.242-1.824c3.904-3.66,6.716-8.645,7.866-14.152
		C381.475,277.879,381.162,267.759,371.983,256.047z M111.375,134.702c-10.863,7.273-41.397,31.231-51.761,44.761
		c-10.353,13.512-27.397-12.566-27.397-12.566c7.459-16.098,56.141-60.568,67.26-64.78
		C110.609,97.894,122.25,127.435,111.375,134.702z M321.86,269.828c-1.696-2.323-3.485-4.787-5.333-7.343
		c2.719,1.463,5.391,2.916,8.005,4.38c4.927,5.461,7.563,8.145,10.213,10.841c1.174,1.185,2.382,2.416,3.788,3.88
		C333.792,278.193,328.076,274.172,321.86,269.828z M348.292,293.367c0.755,0.755,1.394,1.499,2.01,2.277
		c-5.705-1.673-11.363-4.066-14.232-7.146c-1.244-1.324-3.881-4.729-7.401-9.457C338.904,286.256,346.642,291.833,348.292,293.367z
		 M323.242,277.856c-2.509-2.115-5.135-4.299-7.818-6.541c-0.523-0.859-1.046-1.743-1.58-2.626c1.835,1.267,3.659,2.544,5.438,3.776
		C320.686,274.371,322,276.183,323.242,277.856z M311.67,255.757c-5.02-6.983-10.271-14.349-15.268-21.39
		c9.237,10.875,15.941,18.647,21.03,24.469C315.516,257.814,313.599,256.792,311.67,255.757z M312.762,263.484
		c-1.162-0.802-2.301-1.604-3.45-2.405c-0.721-1.186-1.43-2.394-2.162-3.602c0.697,0.359,1.371,0.732,2.068,1.092
		C310.404,260.243,311.588,261.869,312.762,263.484z M306.953,264.274c-0.906-0.756-1.801-1.487-2.719-2.242
		c0.778,0.534,1.568,1.068,2.324,1.604C306.697,263.844,306.836,264.053,306.953,264.274z M297.356,248.1
		c-0.778-0.418-1.58-0.848-2.335-1.266c-1.662-3.719-3.312-7.459-4.927-11.026C292.453,239.805,294.892,243.953,297.356,248.1z
		 M297.356,261.043c0.232,0.535,0.465,1.058,0.709,1.58c-1.964-1.939-4.021-3.961-6.251-6.158
		C293.626,257.977,295.486,259.51,297.356,261.043z M297.821,253.12c-0.14-0.268-0.256-0.558-0.372-0.836
		c1.15,0.639,2.312,1.242,3.497,1.87c0.384,0.651,0.744,1.278,1.139,1.917C300.644,255.083,299.214,254.096,297.821,253.12z
		 M301.05,247.182c1.127,1.58,2.242,3.16,3.369,4.718c-0.29-0.163-0.568-0.302-0.848-0.453
		C302.724,250.03,301.899,248.612,301.05,247.182z M312.623,273.731c1.895,3.148,3.672,6.065,5.275,8.703
		c-3.219-3.277-7.262-7.355-12.433-12.479c-0.558-1.174-1.115-2.371-1.673-3.567C306.779,268.852,309.742,271.315,312.623,273.731z
		 M329.563,300.233c1.72,1.976,3.485,3.975,6.169,6.844c0.604,0.65,1.15,1.29,1.697,1.94c-3.846-1.382-8.099-3.753-12.561-7.796
		c-4.74-4.287-9.562-11.897-14.349-21.064C322.382,292.088,325.915,296.097,329.563,300.233z M329.203,293.402
		c-1.022-1.278-3.95-5.914-7.936-12.444c10.887,9.168,19.484,16.58,21.703,18.963c0.559,0.604,1.081,1.312,1.581,2.114
		C339.16,301,333.665,298.538,329.203,293.402z M346.503,305.961c0.592,1.453,1.115,2.998,1.58,4.625
		c-1.488,0.115-3.126,0.068-4.915-0.152c-1.371-1.928-2.939-3.88-4.764-5.844c-0.268-0.29-0.5-0.546-0.743-0.812
		C340.578,304.962,343.563,305.625,346.503,305.961z M346.12,298.049c2.312,0.812,4.705,1.568,7.063,2.161
		c0.372,0.767,0.709,1.522,1,2.3c-1.674,0.117-3.416,0.151-5.217,0.047C348.129,300.861,347.2,299.338,346.12,298.049z
		 M343.726,281.772c-2.684-2.882-4.531-4.764-6.379-6.635c-0.615-0.65-1.231-1.267-1.894-1.94
		c9.271,5.647,16.929,11.188,21.03,16.44c0.94,1.209,1.754,2.394,2.509,3.566C354.508,290.95,349.071,287.522,343.726,281.772z
		 M351.045,273.254c-2.66-2.857-4.38-4.821-6.1-6.762c-5.286-6.007-10.317-11.746-40.491-41.362
		c21.785,17.962,47.103,39.085,51.169,43.431c4.624,4.973,6.96,16.986,7.657,24.748c-0.059-0.082-0.105-0.174-0.151-0.244
		C361.201,287.813,357.866,280.586,351.045,273.254z M274.862,201.742c0.396,0.267,0.837,0.581,1.359,0.906
		c53.388,51.924,59.511,58.895,65.982,66.238c1.743,1.976,3.485,3.974,6.182,6.854c1.44,1.569,2.73,3.126,3.869,4.672
		c-6.554-5.392-15.534-10.898-25.376-16.406c-7.912-8.818-21.75-24.817-50.878-59.429c-0.65-1.092-1.139-1.929-1.476-2.521
		L274.862,201.742z M230.444,192.772c5.136-4.816,9.492-9.144,12.723-12.693l20.774,20.594l-1.918,1.812
		c0.431,1.057,0.593,1.638,0.593,1.638l4.497,4.822l2.648-2.463c6.274,7.471,12.955,21.691,19.973,37.436
		c-9.551-5.369-17.742-10.469-22.912-15.151l2.161-1.987l-4.496-4.833c0,0-0.616-0.243-1.685-0.825l-1.952,1.848L230.444,192.772z
		 M261.861,233.403l0.349-0.325c0.384,0.267,0.825,0.581,1.348,0.929c17.486,16.987,29.872,29.141,38.888,38.098
		c6.541,13.734,13.199,25.725,19.961,31.836c6.773,6.146,13.188,8.889,18.648,9.898c2.672,3.998,4.426,7.762,5.623,10.91
		c-4.531-2.254-10.132-5.739-15.592-11.63c-2.708-2.882-4.555-4.752-6.391-6.646c-6.867-6.972-13.385-13.594-61.358-70.561
		C262.708,234.821,262.221,233.996,261.861,233.403z M323.405,319.834c-4.055-4.346-23.307-31.115-39.666-54.132
		c27.386,32.195,32.741,37.645,38.364,43.35c1.813,1.835,3.672,3.706,6.31,6.553c6.983,7.506,14.163,11.386,19.299,13.651
		C340.031,328.038,328.087,324.842,323.405,319.834z M347.63,332.999c-7.866,1.638-21.739,2.486-31.08-8.25
		c-2.429-3.021-15.395-24.643-28.141-46.219c14.314,20.054,28.768,39.957,32.346,43.803
		C325.531,327.467,338.59,331.697,347.63,332.999z M336.894,341.805c-5.739,0.778-14.709-0.197-24.678-9.236
		c-9.632-8.703-19.484-30.953-28.988-52.436c-1.964-4.415-3.893-8.771-5.798-12.979c14.813,25.131,33.218,56.072,36.331,59.93
		c10.748,12.362,26.584,11.188,35.193,9.354C345.631,339.249,341.368,341.202,336.894,341.805z M345.655,314.292
		c1.185,0.035,2.289-0.012,3.323-0.115c0.824,3.752,1.394,7.563,1.649,10.654C349.57,321.868,348.013,318.243,345.655,314.292z
		 M351.708,310.004c-0.35-1.254-0.768-2.532-1.232-3.787c1.662,0.023,3.254-0.047,4.775-0.174c0.209,0.895,0.349,1.766,0.477,2.66
		C354.45,309.273,353.09,309.68,351.708,310.004z M354.345,325.063c-0.256-3.219-0.743-6.309-0.918-7.413
		c-0.221-1.185-0.487-2.603-0.824-4.112c1.185-0.279,2.323-0.628,3.45-1.059C356.146,317.29,355.275,321.751,354.345,325.063z
		 M355.588,297.003c-0.418-0.755-0.895-1.487-1.405-2.23c2.254,1.302,4.356,2.335,6.192,3.16
		C358.912,297.689,357.273,297.364,355.588,297.003z M361.595,305.09c-0.755,0.662-1.604,1.254-2.463,1.812
		c-0.069-0.43-0.162-0.871-0.244-1.312C359.841,305.45,360.771,305.276,361.595,305.09z M360.294,301.663
		c-0.744,0.15-1.557,0.291-2.382,0.418c-0.104-0.302-0.232-0.604-0.337-0.906C358.494,301.36,359.423,301.535,360.294,301.663z
		 M363.919,314.919c-0.918,4.427-3.184,8.552-6.216,11.642c1.161-4.008,2.266-9.654,1.882-15.708
		c1.708-0.94,3.288-2.021,4.717-3.276C364.558,310.4,364.361,312.886,363.919,314.919z M366.987,293.715
		c-0.244-3.219-0.732-6.32-0.918-7.4c-0.941-5.438-3.195-15.303-7.772-20.229c-3.591-3.846-22.413-19.67-41.387-35.402
		c20.589,14.268,41.212,28.721,44.035,31.348C371.03,272.139,369.171,285.977,366.987,293.715z M376.572,283.584
		c-0.906,4.426-3.172,8.551-6.204,11.642c2.429-8.436,4.729-24.167-6.866-35.821c-3.614-3.334-33.137-23.887-57.13-40.443
		c4.032,2.207,8.238,4.438,12.514,6.703c20.774,11.026,42.245,22.436,50.251,32.648C377.42,268.898,377.757,277.891,376.572,283.584
		z"/>
</g>
<g>
</g>
<g>
</g>
<g>
</g>
<g>
</g>
<g>
</g>
<g>
</g>
<g>
</g>
<g>
</g>
<g>
</g>
<g>
</g>
<g>
</g>
<g>
</g>
<g>
</g>
<g>
</g>
<g>
</g>
</svg>
