<?xml version="1.0" encoding="iso-8859-1"?>
<!-- Generator: Adobe Illustrator 16.0.0, SVG Export Plug-In . SVG Version: 6.00 Build 0)  -->
<!DOCTYPE svg PUBLIC "-//W3C//DTD SVG 1.1//EN" "http://www.w3.org/Graphics/SVG/1.1/DTD/svg11.dtd">
<svg version="1.1" id="Capa_1" xmlns="http://www.w3.org/2000/svg" xmlns:xlink="http://www.w3.org/1999/xlink" x="0px" y="0px"
	 width="380.73px" height="380.73px" viewBox="0 0 380.73 380.73" style="enable-background:new 0 0 380.73 380.73;"
	 xml:space="preserve">
<g>
	<path d="M174.198,218.246l45.801-45.8l6.657,6.663l8.156-8.139c0,0,11.084-29.576,50.867-52.156
		c6.588-6.605,90.195-90.208,90.195-90.208l-0.035-0.023c0.082-0.069,0.175-0.116,0.244-0.203
		c6.193-6.187,6.193-16.226,0.012-22.413c-6.204-6.187-16.23-6.187-22.424,0c-0.081,0.082-0.14,0.163-0.209,0.25l-0.023-0.023
		c0,0-82.354,82.354-89.986,89.993c-31.22,44.221-53.173,50.303-53.173,50.303l-8.134,8.133l6.658,6.664l-45.766,45.771
		l-64.06-4.659l-97.237,97.26c0,0-10.887,18.393,21.773,51.053c32.672,32.66,57.809,28.523,57.809,28.523l97.249-97.236
		L174.198,218.246z M370.24,12.805c3.485,3.474,3.485,9.103,0,12.577c-3.463,3.485-18.102,12.49-21.576,9.016
		c-3.462-3.474,5.542-18.108,9.017-21.593C361.142,9.319,366.777,9.319,370.24,12.805z M149.107,282.555l6.338,6.333l-6.338,6.344
		l-6.332-6.344L149.107,282.555z M128.345,303.179l6.326,6.332l-6.326,6.332L122,309.511L128.345,303.179z M111.306,320.501
		l6.332-6.332l6.326,6.332l-6.326,6.321L111.306,320.501z M113.862,330.39l-6.314,6.32l-6.332-6.32l6.332-6.333L113.862,330.39z
		 M137.849,271.273l6.333,6.344l-6.333,6.333l-6.338-6.333L137.849,271.273z M117.075,291.919l6.344,6.333l-6.344,6.344
		l-6.327-6.344L117.075,291.919z M100.042,309.244l6.326-6.344l6.344,6.344l-6.344,6.332L100.042,309.244z M102.609,319.13
		l-6.333,6.333l-6.326-6.333l6.326-6.344L102.609,319.13z M88.365,297.543l6.332-6.332l6.332,6.332l-6.332,6.344L88.365,297.543z
		 M90.938,307.443l-6.344,6.332l-6.326-6.332l6.326-6.32L90.938,307.443z M105.392,292.908l-6.326-6.344l6.326-6.332l6.332,6.332
		L105.392,292.908z M126.167,259.609l6.332,6.332l-6.332,6.332l-6.355-6.332L126.167,259.609z M114.902,248.338l6.326,6.344
		l-6.326,6.332l-6.344-6.332L114.902,248.338z M94.127,268.973l6.338,6.32l-6.338,6.345l-6.332-6.333L94.127,268.973z
		 M77.089,286.296l6.333-6.344l6.338,6.332l-6.338,6.332L77.089,286.296z M79.657,296.184l-6.326,6.32l-6.333-6.32l6.333-6.344
		L79.657,296.184z M103.359,236.8l6.344,6.333l-6.344,6.32l-6.344-6.32L103.359,236.8z M82.584,257.413l6.332,6.332l-6.332,6.355
		l-6.338-6.344L82.584,257.413z M65.557,274.736l6.332-6.32l6.333,6.32l-6.333,6.332L65.557,274.736z M68.119,284.635l-6.332,6.332
		l-6.338-6.332l6.327-6.344L68.119,284.635z M92.094,225.531l6.326,6.344l-6.326,6.332l-6.344-6.332L92.094,225.531z M71.32,246.154
		l6.338,6.332l-6.338,6.332l-6.332-6.332L71.32,246.154z M54.293,263.478l6.333-6.332l6.338,6.332l-6.338,6.32L54.293,263.478z
		 M56.849,273.365l-6.326,6.32l-6.344-6.32l6.344-6.332L56.849,273.365z M29.749,287.644l6.344,6.344l-6.344,6.344L23.417,294
		L29.749,287.644z M19.065,311.312l-6.332-6.332l6.332-6.321l6.327,6.321L19.065,311.312z M39.828,290.677l-6.332-6.32l6.332-6.344
		l6.326,6.344L39.828,290.677z M81.394,249.187l-6.338-6.332l6.338-6.333l6.333,6.333L81.394,249.187z M41.013,298.926l6.344,6.332
		l-6.344,6.332l-6.327-6.332L41.013,298.926z M30.318,322.582l-6.326-6.344l6.326-6.332l6.332,6.332L30.318,322.582z
		 M51.092,301.958l-6.338-6.344l6.338-6.32l6.332,6.32L51.092,301.958z M92.652,260.445l-6.332-6.332l6.332-6.332l6.327,6.332
		L92.652,260.445z M52.568,310.452l6.32,6.344l-6.32,6.333l-6.327-6.333L52.568,310.452z M41.861,334.119l-6.32-6.332l6.32-6.32
		l6.338,6.32L41.861,334.119z M62.635,313.484l-6.332-6.32l6.332-6.332l6.338,6.332L62.635,313.484z M104.201,271.994l-6.338-6.332
		l6.338-6.332l6.333,6.332L104.201,271.994z M63.82,321.734l6.344,6.332l-6.344,6.332l-6.327-6.332L63.82,321.734z M53.125,345.389
		l-6.326-6.344l6.326-6.332l6.344,6.332L53.125,345.389z M73.899,324.754l-6.338-6.332l6.338-6.321l6.333,6.321L73.899,324.754z
		 M115.459,283.252l-6.332-6.32l6.332-6.345l6.326,6.345L115.459,283.252z M75.509,333.421l6.338,6.321l-6.327,6.332l-6.332-6.332
		L75.509,333.421z M64.808,357.054l-6.327-6.32l6.327-6.332l6.332,6.332L64.808,357.054z M85.582,336.455l-6.338-6.344l6.338-6.332
		l6.321,6.332L85.582,336.455z M127.154,294.953l-6.332-6.344l6.332-6.32l6.344,6.32L127.154,294.953z M86.773,344.669l6.344,6.332
		l-6.344,6.332l-6.326-6.332L86.773,344.669z M76.089,368.335l-6.344-6.344l6.344-6.32l6.327,6.32L76.089,368.335z M96.852,347.701
		l-6.355-6.332l6.344-6.332l6.327,6.332L96.852,347.701z M138.407,306.21l-6.327-6.332l6.327-6.344l6.332,6.344L138.407,306.21z"/>
</g>
<g>
</g>
<g>
</g>
<g>
</g>
<g>
</g>
<g>
</g>
<g>
</g>
<g>
</g>
<g>
</g>
<g>
</g>
<g>
</g>
<g>
</g>
<g>
</g>
<g>
</g>
<g>
</g>
<g>
</g>
</svg>
