<?xml version="1.0" encoding="iso-8859-1"?>
<!-- Generator: Adobe Illustrator 16.0.0, SVG Export Plug-In . SVG Version: 6.00 Build 0)  -->
<!DOCTYPE svg PUBLIC "-//W3C//DTD SVG 1.1//EN" "http://www.w3.org/Graphics/SVG/1.1/DTD/svg11.dtd">
<svg version="1.1" id="Capa_1" xmlns="http://www.w3.org/2000/svg" xmlns:xlink="http://www.w3.org/1999/xlink" x="0px" y="0px"
	 width="380.717px" height="380.717px" viewBox="0 0 380.717 380.717" style="enable-background:new 0 0 380.717 380.717;"
	 xml:space="preserve">
<g>
	<g>
		<path d="M287.641,56.512c-0.268-0.238-0.465-0.389-0.465-0.389s-0.163,0.215-0.396,0.477
			C287.07,56.564,287.35,56.542,287.641,56.512z"/>
		<path d="M276.614,59.405c-0.488-0.168-0.849-0.261-0.849-0.261s-0.116,0.36-0.256,0.86
			C275.87,59.812,276.23,59.597,276.614,59.405z"/>
		<polygon points="309.646,62.13 309.623,62.06 309.576,62.072 		"/>
		<path d="M299.073,57.418c-0.093-0.168-0.163-0.285-0.163-0.285s-0.128,0.058-0.29,0.151
			C298.76,57.337,298.922,57.396,299.073,57.418z"/>
		<path d="M230.604,23.87c0,0-0.174,2.184-0.348,4.363c-0.094,2.132-0.187,4.223-0.187,4.223s0.279,0.012,0.674,0.023
			c-0.104,0.122-0.221,0.215-0.325,0.314c-0.116,0.104-0.209,0.238-0.313,0.342c-0.012-0.389-0.023-0.691-0.023-0.691
			s-2.126,0.122-4.252,0.203c-2.185,0.18-4.381,0.343-4.381,0.343s0.035,2.19,0.221,4.334c0.268,2.167,0.558,4.316,0.558,4.316
			c-0.012-0.023,0.291-0.081,0.697-0.127c-0.197,0.25-0.395,0.534-0.58,0.784c-0.07-0.366-0.117-0.668-0.117-0.668
			s-2.126,0.395-4.275,0.749c-2.207,0.372-4.299,0.953-4.299,0.953s0.477,2.167,0.941,4.322c0.534,2.068,1.057,4.136,1.057,4.136
			s0.268-0.069,0.651-0.163c-0.14,0.273-0.325,0.535-0.477,0.808c-0.104-0.383-0.175-0.656-0.175-0.656s-2.138,0.563-4.112,1.336
			c-2.011,0.784-4.056,1.592-4.056,1.592s0.721,2.045,1.43,4.096c0.767,2.021,1.742,3.985,1.742,3.985s0.244-0.133,0.616-0.285
			c-0.116,0.296-0.209,0.593-0.313,0.901c-0.175-0.354-0.291-0.616-0.291-0.616s-1.928,0.947-3.857,1.9
			c-1.939,1.011-3.903,2.121-3.903,2.121s1.08,1.952,2.149,3.892c1.115,1.83,2.219,3.689,2.219,3.689s0.244-0.157,0.581-0.349
			c-0.069,0.296-0.162,0.622-0.232,0.93c-0.209-0.337-0.349-0.581-0.349-0.581c0-0.012-1.929,1.115-3.578,2.422
			c-1.726,1.325-3.428,2.678-3.428,2.678s1.261,1.749,2.533,3.521c1.231,1.714,2.754,3.334,2.766,3.334c0,0,0.221-0.215,0.499-0.465
			c-0.035,0.319-0.035,0.627-0.058,0.953c-0.244-0.273-0.441-0.488-0.441-0.488s-1.592,1.452-3.161,2.905
			c-1.58,1.568-3.16,3.125-3.16,3.125s1.58,1.568,3.148,3.143c1.592,1.452,3.161,2.899,3.161,2.899s0.209-0.209,0.453-0.5
			c0.022,0.325,0.022,0.656,0.058,0.964c-0.29-0.262-0.511-0.465-0.511-0.465s-1.511,1.632-2.754,3.334
			c-1.261,1.76-2.533,3.532-2.533,3.532s1.714,1.336,3.439,2.667c0.371,0.308,0.767,0.604,1.162,0.866
			c-3.922,7.674-8.087,18.584-3.997,24.881c-0.023,0.18,0,0.308,0.04,0.476c-3.416,56.176-51.802,68.556-58.976,75.736
			C133.867,217.925,5.899,345.916,5.899,345.916h0.046c-0.093,0.116-0.191,0.187-0.308,0.256c-7.512,7.505-7.523,19.751,0,27.245
			c7.517,7.553,19.746,7.553,27.257,0.023c0.116-0.093,0.175-0.221,0.262-0.29c0.191-0.198,126.469-126.435,135.724-135.729
			c8.237-8.203,27.402-56.659,76.747-58.941c3.729,2.045,11.096,0.592,17.51-1.348c0.697,1.296,1.277,2.335,1.277,2.335
			s1.929-1.075,3.881-2.155c1.836-1.109,3.672-2.202,3.672-2.202s-0.151-0.25-0.349-0.592c0.313,0.069,0.639,0.163,0.964,0.232
			c-0.337,0.215-0.615,0.36-0.615,0.36s1.139,1.929,2.439,3.567c1.324,1.726,2.673,3.428,2.673,3.428s1.754-1.249,3.532-2.533
			c1.707-1.237,3.322-2.759,3.334-2.759c0,0-0.209-0.227-0.465-0.511c0.303,0.023,0.639,0.023,0.965,0.046
			c-0.291,0.262-0.5,0.465-0.5,0.465s1.441,1.58,2.893,3.154c1.581,1.592,3.149,3.172,3.149,3.172s1.557-1.58,3.125-3.16
			c1.452-1.586,2.905-3.166,2.905-3.166s-0.232-0.192-0.512-0.465c0.337-0.023,0.65-0.023,0.977-0.046
			c-0.256,0.296-0.465,0.511-0.465,0.511s1.626,1.534,3.334,2.759c1.755,1.272,3.532,2.533,3.532,2.533s1.324-1.714,2.661-3.428
			c1.312-1.638,2.439-3.567,2.439-3.567s-0.244-0.157-0.593-0.36c0.302-0.069,0.628-0.151,0.941-0.232
			c-0.221,0.331-0.349,0.592-0.349,0.592s1.836,1.092,3.684,2.202c1.939,1.081,3.869,2.155,3.869,2.155s1.139-1.963,2.137-3.904
			c0.953-1.929,1.895-3.857,1.895-3.857s-0.244-0.128-0.616-0.296c0.303-0.11,0.616-0.215,0.906-0.319
			c-0.174,0.354-0.29,0.627-0.29,0.627s1.975,0.976,3.974,1.737c2.067,0.715,4.112,1.429,4.112,1.429s0.791-2.033,1.592-4.072
			c0.768-1.946,1.325-4.09,1.325-4.09s-0.279-0.07-0.662-0.168c0.278-0.163,0.546-0.343,0.825-0.5
			c-0.094,0.383-0.175,0.668-0.175,0.668s2.079,0.535,4.147,1.057c2.161,0.465,4.322,0.93,4.322,0.93s0.581-2.091,0.953-4.293
			c0.349-2.132,0.709-4.258,0.709-4.258s-0.279-0.052-0.662-0.122c0.255-0.192,0.534-0.377,0.789-0.593
			c-0.058,0.401-0.104,0.715-0.139,0.715c0,0,2.172,0.273,4.334,0.558c2.16,0.174,4.321,0.215,4.311,0.203
			c0,0,0.197-2.178,0.348-4.357c0.094-2.132,0.209-4.235,0.209-4.235s-0.302-0.012-0.708-0.023c0.116-0.122,0.244-0.215,0.349-0.308
			c0.116-0.122,0.209-0.25,0.313-0.349c0,0.395,0.035,0.691,0.035,0.691s2.103-0.093,4.218-0.192
			c2.184-0.18,4.368-0.343,4.368-0.343s-0.023-2.178-0.221-4.333c-0.268-2.161-0.546-4.316-0.546-4.316
			c0,0.035-0.303,0.081-0.709,0.145c0.197-0.267,0.395-0.552,0.593-0.813c0.069,0.395,0.116,0.68,0.116,0.68
			s2.138-0.354,4.252-0.727c2.208-0.366,4.299-0.941,4.299-0.941s-0.453-2.173-0.93-4.328c-0.522-2.074-1.045-4.142-1.045-4.142
			s-0.291,0.07-0.674,0.18c0.15-0.273,0.325-0.546,0.477-0.819c0.104,0.366,0.197,0.65,0.197,0.65s2.126-0.558,4.078-1.319
			c2.033-0.795,4.066-1.609,4.066-1.609s-0.721-2.033-1.43-4.09c-0.743-2.01-1.719-3.974-1.719-3.974s-0.279,0.116-0.64,0.285
			c0.128-0.296,0.221-0.61,0.313-0.918c0.175,0.36,0.314,0.633,0.314,0.633s1.905-0.953,3.834-1.905
			c1.929-1.011,3.904-2.126,3.904-2.126s-1.081-1.94-2.15-3.88c-1.104-1.836-2.219-3.689-2.219-3.689s-0.244,0.157-0.569,0.343
			c0.058-0.308,0.163-0.627,0.232-0.936c0.197,0.331,0.337,0.593,0.337,0.593c0.012,0,1.929-1.121,3.59-2.428
			c1.72-1.331,3.439-2.678,3.439-2.678s-1.278-1.749-2.567-3.521c-1.231-1.726-2.742-3.329-2.742-3.329s-0.221,0.203-0.5,0.453
			c0.023-0.314,0.023-0.633,0.047-0.953c0.267,0.285,0.453,0.488,0.453,0.488s1.58-1.453,3.16-2.893
			c1.638-1.644,3.218-3.212,3.218-3.212s-1.58-1.569-3.16-3.125c-1.568-1.453-3.148-2.905-3.148-2.905s-0.186,0.215-0.453,0.488
			c-0.023-0.325-0.023-0.645-0.047-0.953c0.291,0.262,0.5,0.465,0.5,0.465s1.522-1.644,2.754-3.334
			c1.267-1.772,2.545-3.544,2.545-3.544s-1.72-1.318-3.428-2.667c-1.65-1.307-3.579-2.422-3.579-2.422s-0.162,0.244-0.349,0.581
			c-0.069-0.308-0.162-0.622-0.232-0.93c0.326,0.204,0.581,0.349,0.581,0.349s1.104-1.847,2.208-3.689
			c1.068-1.952,2.149-3.88,2.149-3.88s-1.987-1.122-3.915-2.121c-1.918-0.953-3.847-1.9-3.847-1.9s-0.14,0.262-0.29,0.616
			c-0.116-0.296-0.209-0.604-0.325-0.901c0.349,0.151,0.615,0.285,0.615,0.285s0.977-1.975,1.731-3.973
			c0.721-2.051,1.418-4.107,1.418-4.107s-2.022-0.784-4.056-1.592c-1.952-0.772-4.078-1.325-4.078-1.325s-0.093,0.279-0.197,0.657
			c-0.14-0.273-0.313-0.535-0.477-0.819c0.384,0.104,0.674,0.174,0.674,0.174s0.512-2.068,1.046-4.136
			c0.465-2.167,0.93-4.333,0.93-4.333s-2.104-0.569-4.299-0.941c-2.127-0.354-4.265-0.72-4.265-0.72s-0.046,0.273-0.116,0.662
			c-0.186-0.261-0.383-0.534-0.58-0.796c0.395,0.058,0.708,0.104,0.696,0.146c0,0,0.279-2.167,0.569-4.334
			c0.187-2.155,0.209-4.316,0.209-4.316s-2.184-0.18-4.38-0.349c-2.114-0.093-4.218-0.191-4.218-0.191s-0.012,0.291-0.023,0.691
			c-0.127-0.116-0.209-0.25-0.313-0.343c-0.116-0.122-0.243-0.204-0.337-0.308c0.384-0.029,0.686-0.029,0.686-0.029
			s-0.139-2.149-0.221-4.27c-0.174-2.202-0.349-4.363-0.349-4.363s-2.173,0.012-4.322,0.197c-2.184,0.279-4.333,0.564-4.333,0.564
			c0.023,0,0.081,0.273,0.139,0.691c-0.256-0.203-0.534-0.383-0.79-0.575c0.36-0.069,0.663-0.116,0.663-0.116
			s-0.36-2.132-0.709-4.258c-0.372-2.213-0.953-4.299-0.953-4.299s-2.184,0.465-4.334,0.93c-2.068,0.523-4.136,1.057-4.136,1.057
			s0.081,0.273,0.163,0.657c-0.268-0.157-0.535-0.32-0.803-0.477c0.372-0.093,0.651-0.18,0.651-0.18s-0.546-2.138-1.325-4.089
			c-0.801-2.034-1.592-4.073-1.592-4.073s-2.057,0.727-4.112,1.429c-2.011,0.761-3.985,1.737-3.985,1.737s0.14,0.25,0.29,0.622
			c-0.29-0.122-0.593-0.227-0.895-0.326c0.349-0.163,0.604-0.285,0.604-0.285s-0.953-1.929-1.883-3.852
			c-1.01-1.929-2.138-3.892-2.138-3.892s-1.94,1.069-3.892,2.155c-1.824,1.104-3.684,2.196-3.684,2.196s0.151,0.256,0.349,0.575
			c-0.302-0.076-0.616-0.157-0.918-0.227c0.337-0.203,0.569-0.349,0.569-0.349s-1.115-1.923-2.416-3.567
			c-1.337-1.725-2.673-3.439-2.673-3.439s-1.766,1.261-3.521,2.544c-1.72,1.243-3.334,2.753-3.334,2.753s0.186,0.209,0.453,0.5
			c-0.326-0.064-0.651-0.064-0.953-0.087c0.256-0.25,0.488-0.447,0.488-0.447s-1.465-1.586-2.917-3.154
			c-1.568-1.575-3.125-3.155-3.125-3.155s-1.568,1.58-3.138,3.166c-1.463,1.569-2.904,3.155-2.904,3.155s0.209,0.186,0.5,0.447
			c-0.314,0.012-0.65,0.023-0.953,0.064c0.244-0.302,0.453-0.511,0.453-0.511s-1.638-1.517-3.334-2.754
			c-1.767-1.272-3.521-2.544-3.521-2.544s-1.337,1.726-2.685,3.439c-1.301,1.644-2.428,3.567-2.428,3.567s0.256,0.157,0.592,0.348
			c-0.313,0.07-0.639,0.151-0.929,0.227c0.197-0.325,0.337-0.575,0.337-0.575s-1.824-1.104-3.684-2.196
			c-1.94-1.075-3.893-2.155-3.893-2.155s-1.104,1.964-2.114,3.887c-0.952,1.929-1.894,3.857-1.894,3.857s0.256,0.133,0.593,0.296
			c-0.279,0.11-0.593,0.203-0.884,0.296c0.163-0.331,0.291-0.604,0.291-0.604s-1.976-0.964-3.997-1.726
			c-2.033-0.726-4.09-1.429-4.09-1.429s-0.802,2.027-1.604,4.061c-0.767,1.963-1.312,4.09-1.312,4.09s0.256,0.081,0.628,0.18
			c-0.256,0.157-0.523,0.331-0.803,0.476c0.105-0.372,0.187-0.656,0.187-0.656s-2.08-0.523-4.147-1.046
			c-2.174-0.465-4.322-0.941-4.322-0.941s-0.581,2.097-0.953,4.311c-0.349,2.126-0.732,4.247-0.732,4.247s0.291,0.046,0.686,0.116
			c-0.267,0.191-0.534,0.383-0.801,0.587c0.058-0.407,0.104-0.703,0.127-0.703c0,0-2.149-0.261-4.311-0.563
			C232.766,23.893,230.604,23.87,230.604,23.87z M267.168,57.134c0,0,0.546,0.046,1.359,0.116c0.859,0.146,2.021,0.395,3.113,0.668
			c2.196,0.546,4.125,1.238,4.125,1.238s0.604-2.237,1.696-3.997c1.034-1.882,2.324-3.834,2.324-3.834s2.067,0.848,3.903,2.12
			c1.883,1.331,3.486,2.702,3.486,2.702s1.336-1.656,2.951-3.294c1.592-1.371,3.474-2.713,3.474-2.713s1.626,1.673,2.963,3.305
			c1.348,1.726,2.347,3.712,2.347,3.712s1.801-1.046,3.881-1.987c2.092-1.081,4.229-1.476,4.229-1.476s0.93,2.19,1.592,4.223
			c0.338,1.046,0.64,2.045,0.813,2.783c0.128,0.825,0.198,1.371,0.198,1.371c-0.232-0.192,8.667-0.726,8.865-0.5
			c0.221,0.203-0.279,8.696-0.477,8.812c0,0.029,0.023,0.041,0.046,0.053c0.081,0.023,0.546,0.093,1.302,0.197
			c0.743,0.192,1.754,0.477,2.776,0.813c2.057,0.65,4.241,1.592,4.241,1.592s-0.396,2.132-1.464,4.223
			c-0.79,1.772-1.639,3.271-1.883,3.701c0.035,0.093,0.07,0.191,0.104,0.261c0.407,0.238,2.033,1.098,3.51,2.26
			c1.649,1.336,3.299,2.951,3.299,2.951s-1.312,1.882-2.695,3.474c-1.359,1.348-2.66,2.428-3.102,2.783
			c-0.012,0.134-0.023,0.25-0.023,0.372c0.337,0.442,1.417,1.737,2.51,3.282c1.266,1.836,2.126,3.893,2.126,3.893
			s-1.952,1.33-3.846,2.353c-1.546,0.953-3.347,1.499-3.788,1.644c-0.047,0.082-0.093,0.168-0.128,0.238
			c0.151,0.418,0.697,2.057,1.174,3.95c0.256,1.092,0.522,2.237,0.674,3.114c0.069,0.813,0.104,1.36,0.104,1.36
			c-0.174,0.25-8.749,1.354-8.668,1.156c0,0.012,0,0.012-0.012,0.012c0.21-0.11-0.895,8.517-1.149,8.673c0,0-0.558-0.052-1.371-0.11
			c-0.86-0.151-2.011-0.407-3.103-0.68c-2.195-0.546-4.136-1.226-4.136-1.226s-0.604,2.213-1.696,3.985
			c-1.022,1.882-2.324,3.834-2.324,3.834s-2.068-0.843-3.904-2.115c-1.882-1.325-3.474-2.702-3.474-2.702s-1.336,1.65-2.963,3.294
			c-1.591,1.365-3.485,2.713-3.474,2.713c0,0-1.639-1.679-2.963-3.306c-1.348-1.731-2.347-3.718-2.347-3.718
			s-1.79,1.052-3.869,1.987c-2.114,1.086-4.229,1.476-4.229,1.476s-0.93-2.172-1.604-4.223c-0.337-1.046-0.639-2.045-0.812-2.783
			c-0.117-0.819-0.198-1.365-0.198-1.365c0.232,0.192-8.667,0.726-8.864,0.5c-0.221-0.215,0.302-9.103,0.499-8.865
			c0,0-0.546-0.082-1.359-0.192c-0.743-0.203-1.743-0.488-2.8-0.819c-2.045-0.668-4.218-1.597-4.218-1.597s0.396-2.138,1.476-4.235
			c0.941-2.08,1.986-3.863,1.986-3.863c-0.012,0-1.986-0.999-3.718-2.347c-1.638-1.331-3.312-2.963-3.312-2.963
			s1.337-1.888,2.707-3.474c1.674-1.626,3.312-2.962,3.312-2.962s-1.405-1.592-2.741-3.474c-1.256-1.842-2.127-3.898-2.127-3.898
			s1.964-1.313,3.846-2.324c1.755-1.104,3.985-1.702,3.985-1.702s-0.708-1.952-1.243-4.136c-0.256-1.098-0.511-2.237-0.674-3.12
			c-0.058-0.808-0.104-1.354-0.104-1.354c0.175-0.25,8.889-1.383,8.679-1.156C265.797,66.022,266.924,57.314,267.168,57.134z"/>
		<path d="M266.088,67.01c0.255-0.273,0.43-0.622,0.731-0.895c0.081-0.093,0.198-0.151,0.29-0.25
			c-0.615-0.046-1.057-0.081-1.104-0.046C265.96,65.877,265.994,66.354,266.088,67.01z"/>
		<path d="M257.292,86.198c-0.581,0.442-0.964,0.773-0.964,0.773s0.313,0.383,0.79,0.918
			C257.164,87.331,257.223,86.785,257.292,86.198z"/>
		<path d="M257.92,97.683c-0.36,0.616-0.581,1.045-0.581,1.045s0.441,0.238,1.058,0.558
			C258.245,98.752,258.035,98.217,257.92,97.683z"/>
		<path d="M260.487,75.23c-0.674,0.215-1.15,0.354-1.15,0.354c-0.012-0.012,0.128,0.441,0.372,1.109
			C259.93,76.183,260.231,75.729,260.487,75.23z"/>
		<polygon points="304.395,120.7 304.499,120.734 304.533,120.618 		"/>
		<path d="M262.439,108.436c-0.094,0.593-0.175,1.011-0.175,1.011c0.035,0.047,0.488,0.105,1.093,0.157
			C263.055,109.197,262.695,108.837,262.439,108.436z"/>
		<path d="M270.468,116.836c0.058,0.535,0.116,0.941,0.163,0.976c0,0,0.359-0.064,0.871-0.146
			C271.153,117.406,270.828,117.098,270.468,116.836z"/>
		<path d="M281.041,122.152c0.174,0.326,0.302,0.587,0.302,0.587s0.256-0.134,0.581-0.314
			C281.633,122.332,281.319,122.239,281.041,122.152z"/>
		<path d="M292.811,123.511c0.174,0.14,0.279,0.238,0.279,0.238s0.081-0.122,0.232-0.285
			C293.159,123.477,292.984,123.5,292.811,123.511z"/>
		<path d="M289.499,74.823c8.168,0,14.802,6.628,14.802,14.802s-6.634,14.802-14.802,14.802c-8.18,0-14.802-6.628-14.802-14.802
			S281.319,74.823,289.499,74.823z"/>
	</g>
</g>
<g>
</g>
<g>
</g>
<g>
</g>
<g>
</g>
<g>
</g>
<g>
</g>
<g>
</g>
<g>
</g>
<g>
</g>
<g>
</g>
<g>
</g>
<g>
</g>
<g>
</g>
<g>
</g>
<g>
</g>
</svg>
