<?xml version="1.0" encoding="iso-8859-1"?>
<!-- Generator: Adobe Illustrator 16.0.0, SVG Export Plug-In . SVG Version: 6.00 Build 0)  -->
<!DOCTYPE svg PUBLIC "-//W3C//DTD SVG 1.1//EN" "http://www.w3.org/Graphics/SVG/1.1/DTD/svg11.dtd">
<svg version="1.1" id="Capa_1" xmlns="http://www.w3.org/2000/svg" xmlns:xlink="http://www.w3.org/1999/xlink" x="0px" y="0px"
	 width="380.716px" height="380.715px" viewBox="0 0 380.716 380.715" style="enable-background:new 0 0 380.716 380.715;"
	 xml:space="preserve">
<g>
	<g>
		<path d="M287.69,172.833c-0.163-0.116-0.278-0.261-0.406-0.389c-0.616-0.395-1.186-0.813-1.812-1.098L287.69,172.833z"/>
		<path d="M205.018,90.899c-0.25-0.645-0.703-1.214-1.068-1.807c-0.146-0.134-0.291-0.256-0.407-0.395L205.018,90.899z"/>
		<path d="M147.302,80.796c45.412,70.554,0.442,1.057,45.412,70.554c-0.012,0.163,0,0.285,0.023,0.436
			c-3.184,52.505-48.398,64.089-55.119,70.792C130.124,230.073,10.504,349.7,10.504,349.7l0.035,0.022
			c-0.082,0.093-0.174,0.151-0.273,0.232c-7.018,7.018-7.029,18.45,0,25.468c7.035,7.064,18.456,7.041,25.474,0.023
			c0.105-0.104,0.169-0.209,0.25-0.279v0.012c0,0,118.203-118.196,126.864-126.863c7.686-7.669,25.602-52.959,71.729-55.096
			c73.731,40.619,0,0,73.731,40.619c35.519,13.733,69.329-153.018,67.319-161.895c-2.011-8.876-62.323-68.649-67.505-71.786
			C303.004-3.009,130.693,42.402,147.302,80.796z M196.473,78.821l4.438,5.96c0.941,1.452,2.074,2.858,3.039,4.299
			c3.125,3.521,6.57,6.692,9.847,10.085l10.364,10.364l20.738,20.728l0.221,0.232l0.756,0.755l0.232,0.232l20.728,20.728
			l10.376,10.375c3.357,3.259,6.553,6.698,10.073,9.853c1.44,0.964,2.835,2.068,4.311,3.009l5.96,4.462
			c3.974,2.998,7.878,6.117,11.781,9.33c-5.008-0.575-9.957-1.29-14.883-2.085l-7.344-1.249c-2.393-0.535-5.008-0.627-7.227-1.604
			l-1.44-0.633l-0.744-0.854c-3.253-3.666-6.854-6.948-10.271-10.463l-10.375-10.358l-20.729-20.728l-0.221-0.238l-0.767-0.75
			l-0.221-0.25l-20.728-20.71l-10.37-10.375c-3.497-3.416-6.797-7.024-10.468-10.271l-0.86-0.75l-0.628-1.452
			c-0.964-2.213-1.062-4.828-1.597-7.209l-1.261-7.354c-0.773-4.897-1.499-9.859-2.068-14.872
			C190.361,70.909,193.463,74.848,196.473,78.821z"/>
	</g>
</g>
<g>
</g>
<g>
</g>
<g>
</g>
<g>
</g>
<g>
</g>
<g>
</g>
<g>
</g>
<g>
</g>
<g>
</g>
<g>
</g>
<g>
</g>
<g>
</g>
<g>
</g>
<g>
</g>
<g>
</g>
</svg>
