<?xml version="1.0" encoding="iso-8859-1"?>
<!-- Generator: Adobe Illustrator 16.0.0, SVG Export Plug-In . SVG Version: 6.00 Build 0)  -->
<!DOCTYPE svg PUBLIC "-//W3C//DTD SVG 1.1//EN" "http://www.w3.org/Graphics/SVG/1.1/DTD/svg11.dtd">
<svg version="1.1" id="Capa_1" xmlns="http://www.w3.org/2000/svg" xmlns:xlink="http://www.w3.org/1999/xlink" x="0px" y="0px"
	 width="380.737px" height="380.736px" viewBox="0 0 380.737 380.736" style="enable-background:new 0 0 380.737 380.736;"
	 xml:space="preserve">
<g>
	<path d="M353.669,5.993c-0.081,0.082-0.128,0.163-0.197,0.244l-0.023-0.023c0,0-82.353,82.354-89.998,89.999
		c-31.22,44.221-53.167,50.286-53.167,50.286l-8.133,8.133l6.669,6.681l-45.778,45.766l-64.048-4.683L1.746,299.643
		c0,0-10.898,18.393,21.773,51.053c32.672,32.672,57.809,28.524,57.809,28.524l97.249-97.237l-4.387-63.729l45.807-45.812
		l6.658,6.669l8.145-8.145c0,0,11.096-29.569,50.866-52.145c6.588-6.6,90.207-90.208,90.207-90.208l-0.022-0.035
		c0.069-0.058,0.162-0.104,0.232-0.186c6.204-6.193,6.204-16.231,0.011-22.413C369.901-0.2,359.862-0.2,353.669,5.993z
		 M152.121,272.943l-78.967,81.715l-7.552-7.553l78.949-81.714L152.121,272.943z M134.489,255.33l-80.337,80.331l-7.552-7.563
		l80.332-80.332L134.489,255.33z M116.986,237.809L35.26,316.758l-7.552-7.553l81.708-78.949L116.986,237.809z M370.25,25.396
		c-3.462,3.485-18.113,12.49-21.588,9.004c-3.462-3.462,5.542-18.102,9.017-21.599c3.474-3.474,9.12-3.474,12.583,0.023
		C373.735,16.287,373.735,21.922,370.25,25.396z"/>
</g>
<g>
</g>
<g>
</g>
<g>
</g>
<g>
</g>
<g>
</g>
<g>
</g>
<g>
</g>
<g>
</g>
<g>
</g>
<g>
</g>
<g>
</g>
<g>
</g>
<g>
</g>
<g>
</g>
<g>
</g>
</svg>
