<?xml version="1.0" encoding="iso-8859-1"?>
<!-- Generator: Adobe Illustrator 16.0.0, SVG Export Plug-In . SVG Version: 6.00 Build 0)  -->
<!DOCTYPE svg PUBLIC "-//W3C//DTD SVG 1.1//EN" "http://www.w3.org/Graphics/SVG/1.1/DTD/svg11.dtd">
<svg version="1.1" id="Capa_1" xmlns="http://www.w3.org/2000/svg" xmlns:xlink="http://www.w3.org/1999/xlink" x="0px" y="0px"
	 width="326.589px" height="326.589px" viewBox="0 0 326.589 326.589" style="enable-background:new 0 0 326.589 326.589;"
	 xml:space="preserve">
<g>
	<g>
		<path d="M299.762,150.555c-5.786,2.045-14.012,11.282-15.081,12.496c0.255-8.058,0.255-14.675,0.232-18.683h7.227v-10.73H33.943
			v10.73h7.041c-0.116,3.747-0.238,9.76-0.186,17.108c-2.736-2.962-9.173-9.55-13.948-11.241c-6.187-2.202-26.851,0-26.851,0v8.354
			c0,0,20.309-0.714,24.678,1.83c4.352,2.533,9.086,24.01,12.717,24.01c0.976,0,2.463,0,4.142,0
			c1.65,27.791,6.611,59.533,20.438,66.006h-6.141v11.153h214.022v-11.153h-8.11c13.907-6.449,19.52-37.947,21.75-65.669
			c2.255,0,4.438,0,5.693,0c3.648,0,8.354-21.466,12.723-24.028c4.38-2.533,24.678-1.818,24.678-1.818v-8.365
			C326.612,150.555,305.942,148.376,299.762,150.555z M70.781,231.287c-2.394-4.205-4.833-9.26-6.809-15.034
			c-1.011-2.812-1.83-5.925-2.568-9.249c-0.836-3.322-1.121-6.482-1.383-9.55c-0.093-0.767-0.151-1.546-0.18-2.323l-0.07-1.488
			l0.035-1.23l0.122-4.857c-0.075-3.219,0.523-6.32,0.831-9.342c0.761-5.995,2.097-11.438,3.346-16.08
			c2.568-9.208,5.577-14.953,5.577-14.953s-0.058,6.303-0.18,15.761c-0.047,4.676-0.012,10.079,0.099,15.784
			c0.203,2.847,0.151,5.81,0.43,8.726l0.319,4.415l0.093,1.115c-0.011-0.221,0.134,0.616,0.192,0.837
			c0.18,0.778,0.308,1.557,0.418,2.312c0.389,3.16,0.964,6.193,1.661,8.808c0.477,2.753,1.075,5.507,1.824,8.296
			c1.127,5.542,2.411,10.77,3.317,15.348c1.882,9.145,2.498,15.756,2.498,15.756S75.55,239.699,70.781,231.287z"/>
		<path d="M261.071,104.905c-5.751,0-21.959,0-42.71,0c-5.414-4.52-12.874-8.243-21.75-10.765
			c0.093-5.229-0.651-14.187-6.414-20.908C185.55,67.749,178.788,65,170.167,65c-8.656,0-15.366,2.771-19.949,8.255
			c-5.392,6.448-6.152,14.947-5.995,20.274c-9.783,2.533-17.98,6.495-23.761,11.363c-26.52,0-47.793,0-53.457,0
			c-17.01,0-20.972,14.454-20.972,21.39c7.686,0,233.988,0,239.588,0C285.621,117.895,281.822,104.905,261.071,104.905z
			 M169.4,90.475c-4.74,0-9.283,0.377-13.711,0.953c0.123-3.549,0.906-7.901,3.37-10.84c2.317-2.736,5.96-4.107,11.107-4.107
			c5.182,0,8.865,1.371,11.293,4.177c2.579,3.009,3.463,7.459,3.672,11.032C180.112,90.928,174.861,90.475,169.4,90.475z"/>
	</g>
</g>
<g>
</g>
<g>
</g>
<g>
</g>
<g>
</g>
<g>
</g>
<g>
</g>
<g>
</g>
<g>
</g>
<g>
</g>
<g>
</g>
<g>
</g>
<g>
</g>
<g>
</g>
<g>
</g>
<g>
</g>
</svg>
