<?xml version="1.0" encoding="iso-8859-1"?>
<!-- Generator: Adobe Illustrator 16.0.0, SVG Export Plug-In . SVG Version: 6.00 Build 0)  -->
<!DOCTYPE svg PUBLIC "-//W3C//DTD SVG 1.1//EN" "http://www.w3.org/Graphics/SVG/1.1/DTD/svg11.dtd">
<svg version="1.1" id="Capa_1" xmlns="http://www.w3.org/2000/svg" xmlns:xlink="http://www.w3.org/1999/xlink" x="0px" y="0px"
	 width="380.723px" height="380.723px" viewBox="0 0 380.723 380.723" style="enable-background:new 0 0 380.723 380.723;"
	 xml:space="preserve">
<g>
	<path d="M281.259,2.006C164.631-19.303,167.152,136.19,167.152,136.19s-16.312-89.022-58.941-76.492
		c-42.64,12.542-1.748,115.333,0,154.237c1.011,22.494,3.358,74.593,5.177,114.654c-19.2-4.672-53.754-9.436-79.699,7.25
		c-8.795,5.658-9.487,11.27-8.522,14.988c4.096,15.65,54.538,22.156,90.341,24.816c0.14,3.184,0.227,5.078,0.227,5.078h193.12
		c0,0,15.859-170.342,26.339-204.408C345.673,142.278,397.865,23.314,281.259,2.006z M36.076,348.597c0,0,0.465-1.185,3.712-3.253
		c23.714-15.244,57.576-9.248,74.109-4.927c0.418,9.226,0.772,17.3,1.086,23.864C74.116,361.006,39.115,353.93,36.076,348.597z"/>
</g>
<g>
</g>
<g>
</g>
<g>
</g>
<g>
</g>
<g>
</g>
<g>
</g>
<g>
</g>
<g>
</g>
<g>
</g>
<g>
</g>
<g>
</g>
<g>
</g>
<g>
</g>
<g>
</g>
<g>
</g>
</svg>
