<?xml version="1.0" encoding="iso-8859-1"?>
<!-- Generator: Adobe Illustrator 16.0.0, SVG Export Plug-In . SVG Version: 6.00 Build 0)  -->
<!DOCTYPE svg PUBLIC "-//W3C//DTD SVG 1.1//EN" "http://www.w3.org/Graphics/SVG/1.1/DTD/svg11.dtd">
<svg version="1.1" id="Capa_1" xmlns="http://www.w3.org/2000/svg" xmlns:xlink="http://www.w3.org/1999/xlink" x="0px" y="0px"
	 width="380.721px" height="380.721px" viewBox="0 0 380.721 380.721" style="enable-background:new 0 0 380.721 380.721;"
	 xml:space="preserve">
<g>
	<g>
		<path d="M321.651,149.085c0-13.019,3.08-26.95-31.834-26.95c-7.111,0-13.524,0-27.618,0c-9.632-4.746-21.263-8.481-34.24-10.945
			c0.256-7.389-0.604-20.931-9.179-30.865c-4.346-4.984-12.386-10.945-26.188-10.945c-13.867,0-21.837,5.983-26.084,11.003
			c-8.389,9.911-9.045,23.371-8.65,30.807c-13.007,2.446-24.643,6.199-34.286,10.957c-15.389,0-32.968,0-39.394,0
			c-28.64,0-25.189,16.19-25.189,26.95C71.978,149.085,312.252,149.085,321.651,149.085z M181.321,92.949
			c0.866-1.022,3.509-4.142,11.247-4.142c5.24,0,8.993,1.371,11.456,4.2c3.532,4.061,4.415,10.614,4.484,15.494
			c-5.088-0.395-10.305-0.622-15.627-0.622c-5.327,0-10.549,0.227-15.645,0.622C177.191,103.755,177.893,96.993,181.321,92.949z"/>
		<path d="M344.541,169c-8.156,2.87-20.03,16.487-20.495,17.05l-0.837-10.161l-0.081,0.012c-0.268-2.26-0.57-4.247-0.837-5.879
			h3.369v-13.803H54.695v13.803h3.602c-0.627,3.677-1.295,9.231-1.783,15.778c-1.295-1.487-12.49-14.087-20.333-16.847
			c-8.331-2.951-36.181,0-36.181,0v11.253c0,0,27.362-0.964,33.241,2.463c5.879,3.416,12.246,32.352,17.144,32.352
			c1.284,0,3.248,0,5.449,0c0.047,1.546,0.087,3.103,0.168,4.637c1.295,24.248,10.242,71.861,11.386,77.938H53.655v13.745h271.424
			v-13.745h-11.874v-0.023c1.15-6.088,10.073-53.678,11.387-77.914c0.069-1.534,0.034-3.057,0.069-4.59c2.289,0,4.357,0,5.682,0
			c4.903,0,11.27-28.925,17.149-32.341c5.867-3.421,33.229-2.475,33.229-2.475V169C380.721,169,352.871,166.048,344.541,169z
			 M78.641,223.143c0.43-4.056,0.836-8.04,1.237-11.921c1.272-7.668,3.038-14.668,5.071-20.519c3.985-11.735,8.9-18.549,8.9-18.549
			s-0.691,8.017-1.737,20.037c-0.36,5.931-0.691,12.758-0.953,20.042c-0.058,7.308-0.11,14.999,0.343,22.691
			c0.087,3.323,0.586,7.784,0.86,11.572c0.25,4.066,0.877,7.378,1.237,10.991c0.936,7.064,2.126,13.85,3.236,19.624
			c2.294,11.537,4.461,19.554,4.461,19.554s-6.094-5.879-11.578-17.079c-1.33-2.788-2.939-5.81-3.997-9.202
			c-1.191-3.369-2.667-6.832-3.416-10.759c-0.795-3.8-2.213-8.017-2.452-11.839c-0.377-4.078-1.104-7.541-1.261-12.224
			C78.618,231.392,78.641,227.231,78.641,223.143z"/>
	</g>
</g>
<g>
</g>
<g>
</g>
<g>
</g>
<g>
</g>
<g>
</g>
<g>
</g>
<g>
</g>
<g>
</g>
<g>
</g>
<g>
</g>
<g>
</g>
<g>
</g>
<g>
</g>
<g>
</g>
<g>
</g>
</svg>
