<?xml version="1.0" encoding="iso-8859-1"?>
<!-- Generator: Adobe Illustrator 16.0.0, SVG Export Plug-In . SVG Version: 6.00 Build 0)  -->
<!DOCTYPE svg PUBLIC "-//W3C//DTD SVG 1.1//EN" "http://www.w3.org/Graphics/SVG/1.1/DTD/svg11.dtd">
<svg version="1.1" id="Capa_1" xmlns="http://www.w3.org/2000/svg" xmlns:xlink="http://www.w3.org/1999/xlink" x="0px" y="0px"
	 width="380.743px" height="380.743px" viewBox="0 0 380.743 380.743" style="enable-background:new 0 0 380.743 380.743;"
	 xml:space="preserve">
<g>
	<path d="M269.773,36.375c-10.05,12.577-103.255,129.043-110.372,137.931l0,0l-8.458,8.458c0,0-6.309,22.813-52.301,55.287
		c-7.936,7.937-93.577,93.565-93.577,93.565l0.012,0.023c-0.082,0.081-0.163,0.127-0.25,0.209c-6.437,6.437-6.437,16.87,0,23.318
		c6.425,6.426,16.87,6.426,23.307-0.012c0.076-0.069,0.122-0.162,0.204-0.244l0.023,0.023c0,0,86.949-86.942,93.804-93.797
		c23.47-41.363,54.23-52.889,54.23-52.889l7.29-7.297l44.785,47.103l152.273-152.24c0,0-65.738-61.631-72.768-69.229
		C295.683,14.293,280.23,23.309,269.773,36.375z M284.854,40.278c3.509-3.509,9.214-3.509,12.723,0c3.532,3.521,3.532,9.22,0,12.74
		c-3.509,3.509-9.214,3.509-12.723,0C281.346,49.509,281.346,43.799,284.854,40.278z"/>
</g>
<g>
</g>
<g>
</g>
<g>
</g>
<g>
</g>
<g>
</g>
<g>
</g>
<g>
</g>
<g>
</g>
<g>
</g>
<g>
</g>
<g>
</g>
<g>
</g>
<g>
</g>
<g>
</g>
<g>
</g>
</svg>
