<?xml version="1.0" encoding="iso-8859-1"?>
<!-- Generator: Adobe Illustrator 16.0.0, SVG Export Plug-In . SVG Version: 6.00 Build 0)  -->
<!DOCTYPE svg PUBLIC "-//W3C//DTD SVG 1.1//EN" "http://www.w3.org/Graphics/SVG/1.1/DTD/svg11.dtd">
<svg version="1.1" id="Capa_1" xmlns="http://www.w3.org/2000/svg" xmlns:xlink="http://www.w3.org/1999/xlink" x="0px" y="0px"
	 width="32px" height="32px" viewBox="0 0 32 32" style="enable-background:new 0 0 32 32;" xml:space="preserve">
<g>
	<path d="M28.005,11.087c-0.704,0.247-1.657,1.222-2.069,1.666c0-1.774,0-3.053,0-3.053l-9.461-0.046V9.65l-0.481,0.003L15.512,9.65
		v0.005L6.049,9.701c0,0,0,1.269,0,3.035c-0.421-0.453-1.36-1.404-2.054-1.649c-0.92-0.326-3.995,0-3.995,0v1.243
		c0,0,3.021-0.105,3.671,0.272c0.65,0.377,1.353,3.569,1.894,3.569c0.119,0,0.29,0,0.484,0c0,3.269,0,2.661,0,3.241
		c0,1.162,1.112,2.937,3.238,2.937c1.55,0,4.653,0,6.225,0c0.583,0,0.96,0,0.96,0c1.57,0,4.676,0,6.226,0
		c2.125,0,3.237-1.771,3.237-2.937c0-0.58,0,0.025,0-3.241c0.201,0,0.379,0,0.5,0c0.541,0,1.244-3.192,1.895-3.569
		c0.648-0.378,3.67-0.271,3.67-0.271v-1.244C32,11.087,28.925,10.76,28.005,11.087z M9.988,21.066
		c-0.34-0.021-0.844-0.146-1.34-0.533c-0.243-0.193-0.489-0.457-0.649-0.805c-0.173-0.35-0.229-0.809-0.229-1.121
		c-0.043-0.695-0.055-1.439-0.063-2.186c0.001-1.485,0.083-2.976,0.211-4.093c0.119-1.117,0.288-1.862,0.288-1.862
		s0.169,0.742,0.288,1.856c0.128,1.115,0.21,2.602,0.211,4.089c-0.01,0.746-0.021,1.49-0.064,2.188
		c-0.021,0.385-0.037,0.608,0.04,0.856c0.075,0.248,0.2,0.48,0.358,0.673c0.318,0.385,0.706,0.629,0.994,0.75
		c0.291,0.127,0.484,0.151,0.484,0.151S10.334,21.088,9.988,21.066z"/>
</g>
<g>
</g>
<g>
</g>
<g>
</g>
<g>
</g>
<g>
</g>
<g>
</g>
<g>
</g>
<g>
</g>
<g>
</g>
<g>
</g>
<g>
</g>
<g>
</g>
<g>
</g>
<g>
</g>
<g>
</g>
</svg>
