<?xml version="1.0" encoding="iso-8859-1"?>
<!-- Generator: Adobe Illustrator 16.0.0, SVG Export Plug-In . SVG Version: 6.00 Build 0)  -->
<!DOCTYPE svg PUBLIC "-//W3C//DTD SVG 1.1//EN" "http://www.w3.org/Graphics/SVG/1.1/DTD/svg11.dtd">
<svg version="1.1" id="Capa_1" xmlns="http://www.w3.org/2000/svg" xmlns:xlink="http://www.w3.org/1999/xlink" x="0px" y="0px"
	 width="380.716px" height="380.715px" viewBox="0 0 380.716 380.715" style="enable-background:new 0 0 380.716 380.715;"
	 xml:space="preserve">
<g>
	<path d="M311.808,0l-96.946,81.546c0,0-0.069,0.122-0.162,0.25c-0.302,0.308-0.686,0.569-0.977,0.895
		c-13.269,13.263-18.938,31.254-17.091,48.566c-4.066,67.435-62.137,82.318-70.746,90.939
		c-9.638,9.644-118.702,118.72-118.702,118.72l0.035,0.011c-0.122,0.117-0.25,0.187-0.349,0.291c-9.04,9.016-9.04,23.68,0,32.719
		c9.033,9.039,23.69,9.039,32.718,0c0.11-0.117,0.18-0.244,0.291-0.35l0.035,0.023c0,0,107.241-107.24,118.365-118.383
		c10.068-10.05,33.718-70.246,95.425-70.92c0.046,0,0.197-0.041,0.278-0.052c14.523,0.453,29.163-4.386,40.828-14.546
		c0.325-0.122,0.488-0.192,0.488-0.192l85.327-100.71L311.808,0z"/>
</g>
<g>
</g>
<g>
</g>
<g>
</g>
<g>
</g>
<g>
</g>
<g>
</g>
<g>
</g>
<g>
</g>
<g>
</g>
<g>
</g>
<g>
</g>
<g>
</g>
<g>
</g>
<g>
</g>
<g>
</g>
</svg>
