<?xml version="1.0" encoding="iso-8859-1"?>
<!-- Generator: Adobe Illustrator 16.0.0, SVG Export Plug-In . SVG Version: 6.00 Build 0)  -->
<!DOCTYPE svg PUBLIC "-//W3C//DTD SVG 1.1//EN" "http://www.w3.org/Graphics/SVG/1.1/DTD/svg11.dtd">
<svg version="1.1" id="Capa_1" xmlns="http://www.w3.org/2000/svg" xmlns:xlink="http://www.w3.org/1999/xlink" x="0px" y="0px"
	 width="380.706px" height="380.706px" viewBox="0 0 380.706 380.706" style="enable-background:new 0 0 380.706 380.706;"
	 xml:space="preserve">
<g>
	<path d="M373.611,6.562c-39.62-39.62-252.88,111.539-215.079,149.334c5.699,5.705,10.387,10.387,14.372,14.373
		c0,0.151,0,0.279,0.012,0.418c-2.904,48.171-44.4,58.813-50.564,64.948C115.473,242.526,5.717,352.265,5.717,352.265l0.023,0.023
		c-0.07,0.081-0.163,0.139-0.25,0.209c-6.448,6.459-6.448,16.916,0,23.365c6.448,6.459,16.922,6.459,23.382,0
		c0.082-0.07,0.128-0.163,0.204-0.256l0.023,0.035c0,0,108.443-108.438,116.39-116.396c7.059-7.053,23.487-48.612,65.808-50.576
		c3.591,3.59,7.809,7.831,12.967,12.967C258.4,255.771,413.243,46.182,373.611,6.562z"/>
</g>
<g>
</g>
<g>
</g>
<g>
</g>
<g>
</g>
<g>
</g>
<g>
</g>
<g>
</g>
<g>
</g>
<g>
</g>
<g>
</g>
<g>
</g>
<g>
</g>
<g>
</g>
<g>
</g>
<g>
</g>
</svg>
