<?xml version="1.0" encoding="iso-8859-1"?>
<!-- Generator: Adobe Illustrator 16.0.0, SVG Export Plug-In . SVG Version: 6.00 Build 0)  -->
<!DOCTYPE svg PUBLIC "-//W3C//DTD SVG 1.1//EN" "http://www.w3.org/Graphics/SVG/1.1/DTD/svg11.dtd">
<svg version="1.1" id="Capa_1" xmlns="http://www.w3.org/2000/svg" xmlns:xlink="http://www.w3.org/1999/xlink" x="0px" y="0px"
	 width="380.735px" height="380.735px" viewBox="0 0 380.735 380.735" style="enable-background:new 0 0 380.735 380.735;"
	 xml:space="preserve">
<g>
	<g>
		<path d="M50.711,62.249c-11.375,0-38.382,5.804-46.544,30.371c-14.837,44.558,13.896,120.207,24.567,124.332
			c0,0.047,0,0.082,0,0.14c17.393,4.764,10.091,23.771,8.743,26.188c0,4.845,0.383,85.362,0.383,85.362h0.023
			c0,0.046-0.023,0.093-0.023,0.163c0,4.531,3.677,8.214,8.208,8.214s8.209-3.683,8.209-8.214c0-0.047-0.012-0.094-0.012-0.163
			h0.012c0,0,0-86.804,0-92.392c0-1.289-0.012-10.201-0.023-22.727C66.211,190.263,80.322,62.249,50.711,62.249z"/>
		<path d="M119.372,42.497c-31.783,0-56.693,146.151-26.38,146.151c4.572,0,8.331,0,11.532,0c0.058,0.046,0.104,0.104,0.163,0.151
			c18.16,20.496,5.786,41.386,5.786,46.335c0,5.53,0,93.553,0,93.553h0.012c0,0.07-0.012,0.117-0.012,0.187
			c0,5.171,4.2,9.364,9.359,9.364c5.188,0,9.388-4.205,9.388-9.364c0-0.069-0.012-0.116-0.012-0.187h0.012c0,0,0-86.977,0-93.367
			c0-5.646-10.074-28.907,6.105-46.661c2.893,0,6.28,0,10.398,0C173.097,188.648,151.149,42.497,119.372,42.497z"/>
		<path d="M255.032,109.182c0.313-36.337-18.52-58.5-29.337-60.998c-0.244-0.145-0.477-0.25-0.721-0.25
			c-0.186,0-0.418,0.058-0.616,0.081c-0.209-0.012-0.43-0.081-0.615-0.081c-0.244,0-0.477,0.104-0.721,0.25
			c-10.828,2.498-29.662,24.661-29.343,60.998c0.337,38.609-21.506,29.61-21.506,53.254c0,20.972,18.271,29.872,40.543,31.597
			c14.036,19.037,3.172,37.697,3.172,42.287c0,5.414,0,91.705,0,91.705h0.012c0,0.059-0.012,0.105-0.012,0.175
			c0,5.065,4.113,9.202,9.179,9.202c5.09,0,9.202-4.137,9.202-9.202c0-0.058-0.012-0.104-0.012-0.175h0.012c0,0,0-85.258,0-91.52
			c0-5.217-8.737-25.725,3.451-42.612c21.472-2.062,38.806-11.032,38.806-31.458C276.538,138.804,254.695,147.791,255.032,109.182z"
			/>
		<path d="M336.27,42.578c-0.151-0.046-0.291-0.081-0.441-0.081c-0.082,0-0.187,0.023-0.279,0.023c-0.104,0-0.197-0.023-0.325-0.023
			c-0.175,0-0.325,0.035-0.5,0.081c-25.235,1.824-45.754,65.198-44.313,96.29c1.44,31.539,4.334,59.319,35.588,59.319
			c0.023,0,0.082,0,0.104,0c10.585,17.834,0.977,34.635,0.977,38.969c0,5.414,0,91.694,0,91.694h0.011
			c0,0.069-0.011,0.116-0.011,0.187c0,5.065,4.112,9.178,9.19,9.178c5.077,0,9.189-4.124,9.189-9.178
			c0-0.059-0.012-0.105-0.012-0.187h0.012c0,0,0-85.258,0-91.521c0-4.867-7.609-23.086,1.313-39.236
			c29.593-1.034,32.474-28.28,33.892-59.226C382.094,107.753,361.551,44.292,336.27,42.578z"/>
	</g>
</g>
<g>
</g>
<g>
</g>
<g>
</g>
<g>
</g>
<g>
</g>
<g>
</g>
<g>
</g>
<g>
</g>
<g>
</g>
<g>
</g>
<g>
</g>
<g>
</g>
<g>
</g>
<g>
</g>
<g>
</g>
</svg>
