<?xml version="1.0" encoding="iso-8859-1"?>
<!-- Generator: Adobe Illustrator 16.0.0, SVG Export Plug-In . SVG Version: 6.00 Build 0)  -->
<!DOCTYPE svg PUBLIC "-//W3C//DTD SVG 1.1//EN" "http://www.w3.org/Graphics/SVG/1.1/DTD/svg11.dtd">
<svg version="1.1" id="Capa_1" xmlns="http://www.w3.org/2000/svg" xmlns:xlink="http://www.w3.org/1999/xlink" x="0px" y="0px"
	 width="380.724px" height="380.724px" viewBox="0 0 380.724 380.724" style="enable-background:new 0 0 380.724 380.724;"
	 xml:space="preserve">
<g>
	<g>
		<path d="M160.654,146.061l1.174,1.783c-0.209-0.522-0.558-0.976-0.854-1.458C160.869,146.275,160.735,146.194,160.654,146.061z"/>
		<path d="M257.292,10l-69.631,69.636l-33.741,92.979l2.469,2.463c-3.172,5.583-8.028,15.819-4.444,21.338
			c0,0.139,0,0.255,0.023,0.371c-2.562,42.188-38.905,51.482-44.296,56.873c-6.019,6.03-102.128,102.152-102.128,102.152
			l0.023,0.012c-0.058,0.08-0.134,0.127-0.227,0.186c-5.652,5.635-5.652,14.825-0.012,20.46c5.664,5.67,14.837,5.67,20.478,0.012
			c0.082-0.069,0.116-0.151,0.186-0.221c0.146-0.151,94.982-94.96,101.931-101.931c6.198-6.17,23.08-47.613,56.402-46.73
			c4.631,6.623,16.221,1.209,22.262-2.301l2.01,2.011l92.984-33.729l70.502-70.502c2.939,0.662,5.102,0.436,6.344-0.813
			c6.646-6.64-15.092-39.103-48.52-72.547C296.47,16.286,263.997-5.43,257.362,1.187C255.829,2.756,255.898,5.817,257.292,10z
			 M296.773,185.977l-85.909,31.178l-15.97-15.986l12.252-12.264l-14.86-14.849l-12.252,12.258l-15.94-15.947l31.167-85.909
			l65.936-65.936c7.75,14.064,23.981,34.443,44.732,55.206c21.82,21.82,43.198,38.591,57.28,45.801L296.773,185.977z"/>
	</g>
</g>
<g>
</g>
<g>
</g>
<g>
</g>
<g>
</g>
<g>
</g>
<g>
</g>
<g>
</g>
<g>
</g>
<g>
</g>
<g>
</g>
<g>
</g>
<g>
</g>
<g>
</g>
<g>
</g>
<g>
</g>
</svg>
