<?xml version="1.0" encoding="iso-8859-1"?>
<!-- Generator: Adobe Illustrator 16.0.0, SVG Export Plug-In . SVG Version: 6.00 Build 0)  -->
<!DOCTYPE svg PUBLIC "-//W3C//DTD SVG 1.1//EN" "http://www.w3.org/Graphics/SVG/1.1/DTD/svg11.dtd">
<svg version="1.1" id="Capa_1" xmlns="http://www.w3.org/2000/svg" xmlns:xlink="http://www.w3.org/1999/xlink" x="0px" y="0px"
	 width="352.626px" height="352.627px" viewBox="0 0 352.626 352.627" style="enable-background:new 0 0 352.626 352.627;"
	 xml:space="preserve">
<g>
	<g>
		<path d="M267.462,117.418c-4.775,0-13.199,0-23.912,0c-6.715-5.193-16.01-9.48-27.024-12.432
			c0.232-6.588-0.628-18.108-8.18-26.979c-6.1-7.163-14.941-10.794-26.293-10.794c-14.146,0-22.018,5.891-26.113,10.817
			c-7.128,8.54-7.958,19.484-7.674,26.206c-12.194,2.963-22.354,7.569-29.622,13.17c-17.857,0-31.829,0-37.575,0
			c-21.674,0-26.746,12.269-26.746,20.396c9.83,0,237.305,0,244.44,0C298.74,127.962,293.906,117.418,267.462,117.418z
			 M181.112,100.478c-5.804,0-11.38,0.43-16.806,1.046c0.104-4.235,0.999-9.597,3.996-13.182c2.807-3.375,7.32-5.031,13.751-5.031
			c6.495,0,11.072,1.667,14.023,5.095c3.149,3.671,4.171,9.109,4.346,13.419C194.242,101.001,187.804,100.478,181.112,100.478z"/>
		<path d="M322.685,167.309c-4.774,1.679-11.025,7.756-14.488,11.398c-0.406-18.526-5.844-33.386-5.844-33.386H178.08h-2.01H51.791
			c0,0-5.723,15.714-5.856,34.978c-2.713-2.974-10.358-11.026-15.976-13.001C23.057,164.869,0,167.309,0,167.309v9.312
			c0,0,22.639-0.784,27.519,2.051c4.868,2.817,10.137,26.781,14.181,26.781c1.714,0,4.845,0,7.9,0
			c1.859,5.646,4.45,11.177,8.197,16.312c21.32,29.187,37.122,50.809,39.004,53.376H84.52v10.271h12.67h161.79h8.97v-10.271h-8.97
			v-2.172h-0.069c4.868-6.682,19.09-26.131,37.424-51.216c3.753-5.147,6.332-10.666,8.191-16.312c2.532,0,4.973,0,6.39,0
			c4.066,0,9.318-23.964,14.198-26.781c4.856-2.835,27.513-2.051,27.513-2.051v-9.301
			C352.626,167.309,329.576,164.869,322.685,167.309z M76.167,213.749c-1.487-3.812-2.423-7.041-3.509-10.457
			c-1.714-6.785-2.939-13.141-3.474-18.66c-1.238-11.009-0.418-18.404-0.418-18.404s2.405,6.838,6.013,17.132
			c1.772,5.083,3.962,10.917,6.472,17.004c1.249,2.951,2.626,6.344,4.02,9.039c1.772,3.021,3.189,6.576,5.054,9.376
			c3.573,6.054,7.14,12.095,10.474,17.765c3.486,5.717,6.565,11.213,9.173,16c5.246,9.492,8.185,16.37,8.185,16.37
			s-5.949-4.531-13.396-12.618c-7.559-8.109-16.505-19.311-23.894-32.718C78.955,220.231,77.654,217.036,76.167,213.749z"/>
	</g>
</g>
<g>
</g>
<g>
</g>
<g>
</g>
<g>
</g>
<g>
</g>
<g>
</g>
<g>
</g>
<g>
</g>
<g>
</g>
<g>
</g>
<g>
</g>
<g>
</g>
<g>
</g>
<g>
</g>
<g>
</g>
</svg>
