<?xml version="1.0" encoding="iso-8859-1"?>
<!-- Generator: Adobe Illustrator 16.0.0, SVG Export Plug-In . SVG Version: 6.00 Build 0)  -->
<!DOCTYPE svg PUBLIC "-//W3C//DTD SVG 1.1//EN" "http://www.w3.org/Graphics/SVG/1.1/DTD/svg11.dtd">
<svg version="1.1" id="Capa_1" xmlns="http://www.w3.org/2000/svg" xmlns:xlink="http://www.w3.org/1999/xlink" x="0px" y="0px"
	 width="380.72px" height="380.72px" viewBox="0 0 380.72 380.72" style="enable-background:new 0 0 380.72 380.72;"
	 xml:space="preserve">
<g>
	<path d="M174.987,103.429c-6.582,6.57,1.952,32.01,2.179,67.226c0.25,35.217-61.475,72.977-66.981,78.496
		C103.957,255.378,4.576,354.752,4.576,354.752l0.029,0.012c-0.076,0.105-0.146,0.151-0.227,0.197
		c-5.833,5.856-5.844,15.338,0,21.146c5.838,5.891,15.348,5.867,21.163,0.047c0.093-0.082,0.146-0.186,0.215-0.256
		c0.157-0.162,98.201-98.178,105.399-105.381c6.256-6.229,45.899-68.539,78.501-66.877c32.591,1.695,63.729,6.436,67.865,2.312
		c7.134-7.146,101.605-100.176,101.605-100.176l1.592-12.328l-45.197-45.196l-2.847-2.847L287.491,0.197l-12.328,1.632
		C275.152,1.829,182.127,96.271,174.987,103.429z M340.891,96.481l10.7,10.712l-71.42,71.42l-10.712-10.707L340.891,96.481z
		 M319.466,75.056l10.701,10.695l-71.409,71.432l-10.724-10.707L319.466,75.056z M296.948,52.545l10.713,10.707l-71.408,71.42
		l-10.713-10.707L296.948,52.545z M275.535,31.132l10.701,10.695l-71.408,71.432l-10.701-10.707L275.535,31.132z"/>
</g>
<g>
</g>
<g>
</g>
<g>
</g>
<g>
</g>
<g>
</g>
<g>
</g>
<g>
</g>
<g>
</g>
<g>
</g>
<g>
</g>
<g>
</g>
<g>
</g>
<g>
</g>
<g>
</g>
<g>
</g>
</svg>
