<?xml version="1.0" encoding="iso-8859-1"?>
<!-- Generator: Adobe Illustrator 16.0.0, SVG Export Plug-In . SVG Version: 6.00 Build 0)  -->
<!DOCTYPE svg PUBLIC "-//W3C//DTD SVG 1.1//EN" "http://www.w3.org/Graphics/SVG/1.1/DTD/svg11.dtd">
<svg version="1.1" id="Capa_1" xmlns="http://www.w3.org/2000/svg" xmlns:xlink="http://www.w3.org/1999/xlink" x="0px" y="0px"
	 width="413.806px" height="413.807px" viewBox="0 0 413.806 413.807" style="enable-background:new 0 0 413.806 413.807;"
	 xml:space="preserve">
<g>
	<g>
		<path d="M282.217,293.509c-3.276,1.324-6.878,0.662-10.991-2.091c-19.856-13.223-31.51-49.078-34.252-58.373l-1.394-44.308
			c0,0-43.257-1.632-43.117-106.329l0.256-0.023c-0.029-0.238-0.11-0.93-0.256-1.975c0.018-0.25,0-0.488,0.018-0.738
			c-0.041,0-0.088,0-0.122,0c-1.761-12.484-10.719-63.13-39.144-63.13c-0.046,0-0.104,0-0.151,0
			c-29.604,0.204-38.109,55.003-39.393,64.722c-0.053,0-0.11,0-0.169,0c0.012,0.43,0,0.859,0.012,1.284c0,0.035,0,0.11-0.012,0.134
			h0.023c0.5,105.991-42.914,106.067-42.914,106.067l-1.487,46.644c-3.701,11.896-15.052,43.709-33.526,56.048
			c-4.13,2.73-7.709,3.416-10.986,2.079c-9.422-3.88-15.203-22.969-16.632-29.987L0,265.159c0.616,3.021,6.414,29.628,21.512,35.866
			c2.114,0.872,4.27,1.313,6.483,1.313c3.927,0,7.97-1.383,12.113-4.147c12.548-8.377,21.913-23.981,28.233-37.842l-4.05,127.897
			l88.244,8.911v0.105l0.563-0.047l0.558,0.047v-0.105l88.232-8.911l-4.102-129.421c6.32,14.233,15.918,30.686,28.931,39.365
			c4.136,2.753,8.18,4.147,12.106,4.147c2.22,0,4.369-0.441,6.483-1.313c15.104-6.215,20.891-32.846,21.506-35.866l-7.958-1.627
			C297.415,270.551,291.628,289.628,282.217,293.509z M153.657,83.124c0,0-0.418,0-1.133,0c-3.735,0-18.77-1.168-30.679-1.656
			c2.341-17.597,11.647-56.682,31.277-56.786c0.023,0,0.058,0,0.081,0c19.107,0,28.437,37.319,31.016,55.38
			C172.345,80.945,157.392,83.124,153.657,83.124z"/>
		<path d="M376.445,26.238C318.073,15.566,319.328,93.4,319.328,93.4s-8.18-44.558-29.488-38.283c-21.354,6.268-0.883,57.733,0,77.2
			c0.511,11.252,1.673,37.348,2.579,57.385c-9.62-2.335-26.908-4.711-39.898,3.637c-4.392,2.823-4.74,5.641-4.252,7.511
			c2.045,7.819,27.292,11.084,45.22,12.408c0.069,1.592,0.104,2.545,0.104,2.545h96.667c0,0,7.959-85.27,13.188-102.32
			C408.699,96.444,434.817,36.898,376.445,26.238z M253.729,199.717c0,0,0.232-0.592,1.835-1.644
			c11.875-7.633,28.814-4.624,37.11-2.452c0.209,4.607,0.384,8.667,0.534,11.933C272.749,205.927,255.25,202.395,253.729,199.717z"
			/>
	</g>
</g>
<g>
</g>
<g>
</g>
<g>
</g>
<g>
</g>
<g>
</g>
<g>
</g>
<g>
</g>
<g>
</g>
<g>
</g>
<g>
</g>
<g>
</g>
<g>
</g>
<g>
</g>
<g>
</g>
<g>
</g>
</svg>
