<?xml version="1.0" encoding="iso-8859-1"?>
<!-- Generator: Adobe Illustrator 16.0.0, SVG Export Plug-In . SVG Version: 6.00 Build 0)  -->
<!DOCTYPE svg PUBLIC "-//W3C//DTD SVG 1.1//EN" "http://www.w3.org/Graphics/SVG/1.1/DTD/svg11.dtd">
<svg version="1.1" id="Capa_1" xmlns="http://www.w3.org/2000/svg" xmlns:xlink="http://www.w3.org/1999/xlink" x="0px" y="0px"
	 width="32px" height="32px" viewBox="0 0 32 32" style="enable-background:new 0 0 32 32;" xml:space="preserve">
<g>
	<g>
		<path d="M27.48,15.038c0-0.815,0.192-1.689-1.996-1.689c-0.659,0-2.512,0-4.823,0c-0.634-0.313-1.403-0.558-2.267-0.71
			c0.016-0.448-0.041-1.249-0.549-1.836c-0.254-0.296-0.73-0.648-1.554-0.648c-0.822,0-1.294,0.354-1.546,0.649
			c-0.495,0.585-0.537,1.38-0.514,1.833c-0.865,0.151-1.636,0.396-2.27,0.71c-2.85,0-5.188,0-5.824,0
			c-1.797,0-1.579,1.016-1.579,1.688C5.374,15.038,26.893,15.038,27.48,15.038z M15.498,11.437c0.172-0.202,0.432-0.3,0.795-0.3
			c0.366,0,0.631,0.1,0.811,0.305c0.246,0.283,0.311,0.736,0.312,1.064c-0.359-0.031-0.727-0.054-1.104-0.054
			c-0.377,0-0.743,0.021-1.103,0.054C15.207,12.175,15.258,11.718,15.498,11.437z"/>
		<path d="M29.355,15.903c-0.537,0.189-1.295,1.019-1.469,1.212l-0.015-0.203c-0.045-0.337-0.116-0.626-0.188-0.804h0.299v-0.545
			H4.031v0.545H4.35c-0.085,0.218-0.168,0.606-0.205,1.043c-0.029-0.034-0.899-1.036-1.5-1.248c-0.61-0.215-2.645,0-2.645,0v0.823
			c0,0,2-0.069,2.43,0.181c0.431,0.25,0.896,2.364,1.253,2.364c0.163,0,0.473,0,0.765,0c0.229,0.708,0.517,1.427,0.646,1.74H4.553
			v0.834h0.592h21.73h0.609v-0.834h-0.539c0.131-0.317,0.418-1.037,0.646-1.74c0.279,0,0.569,0,0.726,0
			c0.356,0,0.822-2.114,1.254-2.364c0.43-0.25,2.43-0.18,2.43-0.18v-0.823C32,15.903,29.965,15.689,29.355,15.903z M5.778,17.82
			c0.021-0.3,0.121-0.566,0.196-0.792c0.17-0.446,0.403-0.677,0.403-0.677s-0.037,0.314-0.055,0.753
			c-0.016,0.435,0.012,1.014,0.089,1.548c0.047,0.311,0.111,0.577,0.168,0.826c0.067,0.26,0.129,0.509,0.205,0.717
			c0.075,0.207,0.124,0.395,0.176,0.518c0.045,0.127,0.071,0.198,0.071,0.198s-0.264-0.18-0.548-0.56
			c-0.13-0.193-0.283-0.426-0.41-0.695c-0.121-0.287-0.215-0.6-0.264-0.886c-0.042-0.177-0.032-0.326-0.047-0.487
			C5.741,18.127,5.769,17.969,5.778,17.82z"/>
	</g>
</g>
<g>
</g>
<g>
</g>
<g>
</g>
<g>
</g>
<g>
</g>
<g>
</g>
<g>
</g>
<g>
</g>
<g>
</g>
<g>
</g>
<g>
</g>
<g>
</g>
<g>
</g>
<g>
</g>
<g>
</g>
</svg>
