<?xml version="1.0" encoding="iso-8859-1"?>
<!-- Generator: Adobe Illustrator 16.0.0, SVG Export Plug-In . SVG Version: 6.00 Build 0)  -->
<!DOCTYPE svg PUBLIC "-//W3C//DTD SVG 1.1//EN" "http://www.w3.org/Graphics/SVG/1.1/DTD/svg11.dtd">
<svg version="1.1" id="Capa_1" xmlns="http://www.w3.org/2000/svg" xmlns:xlink="http://www.w3.org/1999/xlink" x="0px" y="0px"
	 width="270.934px" height="270.934px" viewBox="0 0 270.934 270.934" style="enable-background:new 0 0 270.934 270.934;"
	 xml:space="preserve">
<g>
	<path d="M204.615,151.064c-28.872-30.145-2.812-123.507-2.812-123.507h-0.232c0.104-0.593,0.232-1.18,0.244-1.772
		c0.081-13.989-29.941-25.532-67.052-25.782c-37.121-0.25-67.295,10.91-67.399,24.91c-0.012,0.895,0.14,1.778,0.384,2.644h-0.047
		c0,0,25.631,92.955-2.812,123.507c-22.168,23.841-35.146,82.144-16.417,119.869c26.862,0,62.636-0.279,86.269-0.395
		c23.644,0.115,59.43,0.395,86.28,0.395C239.75,233.22,232.663,180.344,204.615,151.064z M104.613,115.551
		c-0.395,5.2-0.651,10.718-1.708,16.336c-0.778,5.653-1.905,11.485-3.427,17.365c-1.743,5.902-3.358,11.805-7.192,18.311
		c-3.787,5.193-7.889,9.342-10.979,13.954c-3.323,4.415-5.949,9.074-8.319,13.698c-1.801,4.868-4.217,9.399-5.066,14.221
		c-1.255,4.695-2.475,9.191-2.695,13.548c-0.337,4.3-1.301,8.284-1.325,11.851c0,3.603,0,6.739,0,9.318
		c-0.046,5.205-0.232,8.262-0.232,8.262s-0.86-2.848-2.08-7.994c-0.581-2.591-1.29-5.729-2.114-9.354
		c-0.825-3.637-0.802-7.854-1.081-12.479c-0.035-2.288-0.383-4.717-0.163-7.227c0.314-2.498,0.651-5.1,0.988-7.738
		c0.349-5.426,2.289-10.852,4.136-16.521c2.37-5.414,4.845-11.212,8.551-16.185c3.346-5.182,7.529-9.736,10.666-14.198
		c2.266-3.752,4.241-9.283,5.867-14.593c1.441-5.466,3.16-10.788,4.194-16.179c1.278-5.292,2.254-10.503,3.184-15.453
		c1.058-4.938,1.511-9.649,2.266-14.018c0.767-4.386,0.964-8.278,1.429-11.857c0.5-3.549,0.697-6.727,0.592-9.353
		c0.059-5.246,0.256-8.272,0.256-8.272s0.837,2.893,2.033,8.011c0.686,2.533,1.186,5.664,1.522,9.371
		c0.383,3.677,1.115,7.976,0.964,12.484C104.869,105.379,105.171,110.375,104.613,115.551z M112.63,33.866
		c-6.507,0-11.793-2.823-11.793-6.297c0-3.474,5.274-6.28,11.793-6.28c6.518,0,11.793,2.806,11.793,6.28
		C124.423,31.043,119.148,33.866,112.63,33.866z M134.601,19.61c-6.506,0-11.793-2.806-11.793-6.28
		c0-3.486,5.287-6.297,11.793-6.297c6.507,0,11.781,2.812,11.781,6.297C146.382,16.804,141.108,19.61,134.601,19.61z
		 M162.951,33.866c-6.506,0-11.793-2.823-11.793-6.297c0-3.474,5.287-6.28,11.793-6.28s11.793,2.806,11.793,6.28
		C174.744,31.043,169.468,33.866,162.951,33.866z"/>
</g>
<g>
</g>
<g>
</g>
<g>
</g>
<g>
</g>
<g>
</g>
<g>
</g>
<g>
</g>
<g>
</g>
<g>
</g>
<g>
</g>
<g>
</g>
<g>
</g>
<g>
</g>
<g>
</g>
<g>
</g>
</svg>
