<?xml version="1.0" encoding="iso-8859-1"?>
<!-- Generator: Adobe Illustrator 16.0.0, SVG Export Plug-In . SVG Version: 6.00 Build 0)  -->
<!DOCTYPE svg PUBLIC "-//W3C//DTD SVG 1.1//EN" "http://www.w3.org/Graphics/SVG/1.1/DTD/svg11.dtd">
<svg version="1.1" id="Capa_1" xmlns="http://www.w3.org/2000/svg" xmlns:xlink="http://www.w3.org/1999/xlink" x="0px" y="0px"
	 width="371.52px" height="371.519px" viewBox="0 0 371.52 371.519" style="enable-background:new 0 0 371.52 371.519;"
	 xml:space="preserve">
<g>
	<g>
		<path d="M334.266,34.432C341.62,34.432,381.448,0,361.371,0C341.271,0,24.987,0,8.849,0C-7.277,0,26.428,34.432,36.676,34.432
			c3.37,0,36.088,0,78.682,0v41.595h-81.04L21.409,371.519h322.743l-12.92-295.492h-66.703V34.432
			C303.278,34.432,331.988,34.432,334.266,34.432z M289.638,225.914c0,55.062-44.627,99.7-99.688,99.7
			c-55.061,0-99.688-44.639-99.688-99.7c0-55.055,44.627-99.694,99.688-99.694C245.011,126.22,289.638,170.858,289.638,225.914z"/>
		<path d="M211.734,220.464l-0.15-0.43c-0.303-1.302-0.709-2.579-1.244-3.776l-16.092-48.432H183.85l-12.838,50.489
			c-0.338,1-0.616,2.021-0.791,3.091l-0.139,0.558h0.081c-0.128,0.953-0.29,1.883-0.29,2.881c0,11.689,9.469,21.146,21.157,21.146
			c11.7,0,21.169-9.457,21.169-21.146C212.188,223.334,212.014,221.87,211.734,220.464L211.734,220.464z"/>
	</g>
</g>
<g>
</g>
<g>
</g>
<g>
</g>
<g>
</g>
<g>
</g>
<g>
</g>
<g>
</g>
<g>
</g>
<g>
</g>
<g>
</g>
<g>
</g>
<g>
</g>
<g>
</g>
<g>
</g>
<g>
</g>
</svg>
