<?xml version="1.0" encoding="iso-8859-1"?>
<!-- Generator: Adobe Illustrator 16.0.0, SVG Export Plug-In . SVG Version: 6.00 Build 0)  -->
<!DOCTYPE svg PUBLIC "-//W3C//DTD SVG 1.1//EN" "http://www.w3.org/Graphics/SVG/1.1/DTD/svg11.dtd">
<svg version="1.1" id="Capa_1" xmlns="http://www.w3.org/2000/svg" xmlns:xlink="http://www.w3.org/1999/xlink" x="0px" y="0px"
	 width="380.721px" height="380.722px" viewBox="0 0 380.721 380.722" style="enable-background:new 0 0 380.721 380.722;"
	 xml:space="preserve">
<g>
	<g>
		<path d="M321.907,133.313c0-9.091,2.139-21.593-22.238-21.593c-6.878,0-25.77,0-49.832,0c-8.075-6.21-20.158-11.055-34.52-13.611
			c-0.081-5.141-1.161-12.757-6.135-18.502c-2.834-3.282-8.156-7.209-17.312-7.209c-9.173,0-14.419,3.939-17.213,7.232
			c-4.856,5.722-5.798,13.315-5.786,18.479c-14.349,2.556-26.444,7.39-34.501,13.611c-27.554,0-49.246,0-55.526,0
			c-20.013,0-17.597,14.1-17.597,21.593C70.316,133.313,315.331,133.313,321.907,133.313z M183.017,86.699
			c1.905-2.249,4.799-3.346,8.854-3.346c4.09,0,7.018,1.121,9.005,3.393c2.277,2.614,3.148,6.553,3.381,9.911
			c-3.95-0.349-8.005-0.558-12.153-0.558c-4.194,0-8.249,0.209-12.211,0.558C180.043,93.31,180.792,89.325,183.017,86.699z"/>
		<path d="M345.191,166.827c-4.368,1.545-9.853,6.245-14.001,10.3c0.221-9.992-1.475-19.415-5.472-27.624h5.507v-9.527H52.075v9.516
			h3.619c-4.548,9.353-6.094,20.251-5.298,31.754c-4.224-4.212-10.172-9.504-14.872-11.16C27.339,167.205,0,170.098,0,170.098
			v11.066c0,0,26.862-0.953,32.637,2.411c5.769,3.358,12.025,31.777,16.835,31.777c1.946,0,5.473,0,8.981,0
			c13.978,36.03,42.914,80.448,65.303,80.448H96.917v12.524H286.54v-12.524h-28.907c23.063,0,53.086-46.405,66.528-83.725
			c2.836,0,5.484,0,7.088,0c4.811,0,11.061-28.414,16.836-31.771c5.773-3.375,32.637-2.423,32.637-2.423v-11.067
			C380.721,166.827,353.382,163.923,345.191,166.827z M115.275,266.498c-5.13-3.974-10.765-9.236-15.68-15.801
			c-2.562-3.219-4.949-6.717-7.093-10.48c-2.249-3.672-3.951-7.715-5.938-11.631c-1.476-4.113-2.986-8.214-4.27-12.315
			c-1.069-4.147-1.94-8.284-2.725-12.258c-1.133-8.052-1.679-15.615-1.226-22.133c-0.058-6.524,1.226-11.59,1.772-15.291
			c0.691-3.654,1.191-5.733,1.191-5.733s0.488,2.08,1.167,5.733c0.761,3.62,1.226,9.016,2.661,14.965
			c0.609,2.975,1.266,6.199,1.963,9.626c0.895,3.398,1.895,6.93,2.69,10.613c2.202,7.239,4.607,14.85,7.732,22.181
			c1.725,3.567,3.108,7.319,5.048,10.712s3.521,6.949,5.641,10.039c3.828,6.46,8.063,12.084,11.834,16.894
			c7.674,9.493,14.064,15.243,14.064,15.243S125.604,274.584,115.275,266.498z"/>
	</g>
</g>
<g>
</g>
<g>
</g>
<g>
</g>
<g>
</g>
<g>
</g>
<g>
</g>
<g>
</g>
<g>
</g>
<g>
</g>
<g>
</g>
<g>
</g>
<g>
</g>
<g>
</g>
<g>
</g>
<g>
</g>
</svg>
