<?xml version="1.0" encoding="iso-8859-1"?>
<!-- Generator: Adobe Illustrator 16.0.0, SVG Export Plug-In . SVG Version: 6.00 Build 0)  -->
<!DOCTYPE svg PUBLIC "-//W3C//DTD SVG 1.1//EN" "http://www.w3.org/Graphics/SVG/1.1/DTD/svg11.dtd">
<svg version="1.1" id="Capa_1" xmlns="http://www.w3.org/2000/svg" xmlns:xlink="http://www.w3.org/1999/xlink" x="0px" y="0px"
	 width="380.714px" height="380.714px" viewBox="0 0 380.714 380.714" style="enable-background:new 0 0 380.714 380.714;"
	 xml:space="preserve">
<g>
	<path d="M317.611,133.468c31.254-37.964,84.282-94.901,54.144-124.494c0,0-0.012,0-0.023,0V8.962
		c-29.593-30.15-86.536,22.877-124.506,54.149C209.268,94.377,119.397,169.736,116.597,172.53
		C113.791,175.313,0.003,300.289,0.003,300.289l15.622,15.639c0,0,111.858-133.092,190.041-150.392
		c8.935-8.946,19.53-19.548,25.665-25.677c-6.994-12.002,20.937-65.053,60.278-55.276c8.109-8.086,4.74-5.292,12.292-12.833
		c-4.183-8.667,8.993-43.384,41.595-36.564c0.14-0.146,0.163-0.116,0.023,0.011c6.809,32.602-27.908,45.795-36.575,41.606
		c-7.529,7.552-4.741,4.189-12.827,12.275c9.76,39.37-43.268,67.261-55.271,60.289c-6.146,6.152-16.73,16.725-25.677,25.683
		C197.881,253.21,64.795,365.063,64.795,365.063l15.633,15.65c0,0,124.971-113.793,127.76-116.605
		C210.976,261.32,286.334,171.438,317.611,133.468z"/>
</g>
<g>
</g>
<g>
</g>
<g>
</g>
<g>
</g>
<g>
</g>
<g>
</g>
<g>
</g>
<g>
</g>
<g>
</g>
<g>
</g>
<g>
</g>
<g>
</g>
<g>
</g>
<g>
</g>
<g>
</g>
</svg>
