<?xml version="1.0" encoding="iso-8859-1"?>
<!-- Generator: Adobe Illustrator 16.0.0, SVG Export Plug-In . SVG Version: 6.00 Build 0)  -->
<!DOCTYPE svg PUBLIC "-//W3C//DTD SVG 1.1//EN" "http://www.w3.org/Graphics/SVG/1.1/DTD/svg11.dtd">
<svg version="1.1" id="Capa_1" xmlns="http://www.w3.org/2000/svg" xmlns:xlink="http://www.w3.org/1999/xlink" x="0px" y="0px"
	 width="380.702px" height="380.702px" viewBox="0 0 380.702 380.702" style="enable-background:new 0 0 380.702 380.702;"
	 xml:space="preserve">
<g>
	<path d="M368.156,12.92L353.25,75.777L194.12,234.907l-11.305-11.293l-3.893,3.88l4.822,4.81l-7.843,7.832
		c0,0-28.478,10.701-50.228,48.996c-6.344,6.344-86.873,86.873-86.873,86.873l-0.023-0.023c-0.058,0.092-0.116,0.174-0.186,0.256
		c-5.96,5.959-15.616,5.948-21.576,0c-5.96-5.961-5.96-15.616,0-21.588c0.07-0.082,0.151-0.117,0.232-0.197l-0.012-0.012
		c0,0,79.321-79.321,86.664-86.676c42.594-30.069,48.45-51.203,48.45-51.203l7.831-7.832l6.658,6.658l3.893-3.881l-8.808-8.807
		l8.621-18.015c0,0,180.764-180.757,184.702-184.685L368.156,12.92z"/>
</g>
<g>
</g>
<g>
</g>
<g>
</g>
<g>
</g>
<g>
</g>
<g>
</g>
<g>
</g>
<g>
</g>
<g>
</g>
<g>
</g>
<g>
</g>
<g>
</g>
<g>
</g>
<g>
</g>
<g>
</g>
</svg>
