<?xml version="1.0" encoding="iso-8859-1"?>
<!-- Generator: Adobe Illustrator 16.0.0, SVG Export Plug-In . SVG Version: 6.00 Build 0)  -->
<!DOCTYPE svg PUBLIC "-//W3C//DTD SVG 1.1//EN" "http://www.w3.org/Graphics/SVG/1.1/DTD/svg11.dtd">
<svg version="1.1" id="Capa_1" xmlns="http://www.w3.org/2000/svg" xmlns:xlink="http://www.w3.org/1999/xlink" x="0px" y="0px"
	 width="380.725px" height="380.724px" viewBox="0 0 380.725 380.724" style="enable-background:new 0 0 380.725 380.724;"
	 xml:space="preserve">
<g>
	<path d="M181.253,175.785l7.61,7.616l5.821-5.821l7.552-15.772c0,0,158.362-158.357,161.802-161.808l11.34,11.34l-50.541,92.537
		L222.906,205.802l-13.792-13.786l-5.809,5.815l6.064,6.077l-9.342,9.33c0,0-33.961,12.734-59.859,58.384
		c-7.57,7.563-103.522,103.522-103.522,103.522l-0.023-0.023c-0.093,0.093-0.14,0.197-0.238,0.279
		c-7.099,7.11-18.619,7.087-25.707,0c-7.105-7.1-7.117-18.613,0-25.725c0.082-0.092,0.174-0.139,0.273-0.232l-0.012-0.012
		c0,0,94.512-94.518,103.267-103.277c50.756-35.844,57.727-61.016,57.727-61.016L181.253,175.785z"/>
</g>
<g>
</g>
<g>
</g>
<g>
</g>
<g>
</g>
<g>
</g>
<g>
</g>
<g>
</g>
<g>
</g>
<g>
</g>
<g>
</g>
<g>
</g>
<g>
</g>
<g>
</g>
<g>
</g>
<g>
</g>
</svg>
