<?xml version="1.0" encoding="iso-8859-1"?>
<!-- Generator: Adobe Illustrator 16.0.0, SVG Export Plug-In . SVG Version: 6.00 Build 0)  -->
<!DOCTYPE svg PUBLIC "-//W3C//DTD SVG 1.1//EN" "http://www.w3.org/Graphics/SVG/1.1/DTD/svg11.dtd">
<svg version="1.1" id="Capa_1" xmlns="http://www.w3.org/2000/svg" xmlns:xlink="http://www.w3.org/1999/xlink" x="0px" y="0px"
	 width="380.72px" height="380.72px" viewBox="0 0 380.72 380.72" style="enable-background:new 0 0 380.72 380.72;"
	 xml:space="preserve">
<g>
	<path d="M363.179,0l4.984,4.926c0,0,18.16,64.972-155.33,238.462c-40.607-23.098-61.997,25.096-63.995,31.951
		c-8.842,8.83-100.246,98.887-100.246,98.887l-0.064-0.128c-0.058,0.128-0.116,0.244-0.238,0.349
		c-8.301,8.365-21.808,8.365-30.051,0c-8.302-8.25-8.302-21.797,0-30.034c0.058-0.128,0.18-0.244,0.284-0.244v-0.116
		c88.808-88.812,88.755-88.859,112.388-112.329C140.165,222.405,363.179,0,363.179,0z"/>
</g>
<g>
</g>
<g>
</g>
<g>
</g>
<g>
</g>
<g>
</g>
<g>
</g>
<g>
</g>
<g>
</g>
<g>
</g>
<g>
</g>
<g>
</g>
<g>
</g>
<g>
</g>
<g>
</g>
<g>
</g>
</svg>
