<?xml version="1.0" encoding="iso-8859-1"?>
<!-- Generator: Adobe Illustrator 16.0.0, SVG Export Plug-In . SVG Version: 6.00 Build 0)  -->
<!DOCTYPE svg PUBLIC "-//W3C//DTD SVG 1.1//EN" "http://www.w3.org/Graphics/SVG/1.1/DTD/svg11.dtd">
<svg version="1.1" id="Capa_1" xmlns="http://www.w3.org/2000/svg" xmlns:xlink="http://www.w3.org/1999/xlink" x="0px" y="0px"
	 width="380.744px" height="380.744px" viewBox="0 0 380.744 380.744" style="enable-background:new 0 0 380.744 380.744;"
	 xml:space="preserve">
<g>
	<path d="M380.744,0.86c0,0-22.912,60.632-42.361,80.059c-19.438,19.438-148.226,148.249-148.226,148.249l-7.505-7.506l-7.878,7.877
		c0,0-30.481,11.434-53.742,52.4c-6.779,6.785-92.932,92.949-92.932,92.949l-0.023-0.046c-0.082,0.093-0.116,0.187-0.203,0.256
		c-6.373,6.378-16.714,6.378-23.081,0.012c-6.39-6.379-6.39-16.72,0-23.087c0.076-0.093,0.169-0.139,0.238-0.232l-0.012-0.012
		c0,0,84.84-84.839,92.706-92.705c45.557-32.172,51.802-54.77,51.802-54.77l7.877-7.879l0.5-0.51
		c8.435-8.407,127.556-127.527,146.297-146.274C323.638,30.209,380.744,0.86,380.744,0.86z"/>
</g>
<g>
</g>
<g>
</g>
<g>
</g>
<g>
</g>
<g>
</g>
<g>
</g>
<g>
</g>
<g>
</g>
<g>
</g>
<g>
</g>
<g>
</g>
<g>
</g>
<g>
</g>
<g>
</g>
<g>
</g>
</svg>
