<?xml version="1.0" encoding="iso-8859-1"?>
<!-- Generator: Adobe Illustrator 16.0.0, SVG Export Plug-In . SVG Version: 6.00 Build 0)  -->
<!DOCTYPE svg PUBLIC "-//W3C//DTD SVG 1.1//EN" "http://www.w3.org/Graphics/SVG/1.1/DTD/svg11.dtd">
<svg version="1.1" id="Capa_1" xmlns="http://www.w3.org/2000/svg" xmlns:xlink="http://www.w3.org/1999/xlink" x="0px" y="0px"
	 width="380.739px" height="380.739px" viewBox="0 0 380.739 380.739" style="enable-background:new 0 0 380.739 380.739;"
	 xml:space="preserve">
<g>
	<path d="M176.054,167.662c4.868-4.856,149.648-149.637,153.912-153.907c4.264-4.275,44.488-2.951,50.773,5.042
		c-5.716,5.71-170.201,170.777-175.918,175.919c-23.15,7.459-23.15,7.459-23.15,7.459l-5.879,5.879l4.811,4.799l-8.273,8.271
		c0,0-30.04,11.271-52.981,51.669c-6.698,6.704-91.631,91.636-91.631,91.636l-0.023-0.022c-0.087,0.081-0.122,0.175-0.203,0.243
		c-6.297,6.298-16.504,6.298-22.772,0.012c-6.292-6.285-6.292-16.486,0-22.771c0.069-0.082,0.157-0.141,0.238-0.209l-0.012-0.023
		c0,0,83.66-83.654,91.421-91.416c44.923-31.73,51.099-54.016,51.099-54.016l8.267-8.261l4.821,4.81l5.862-5.867
		C166.427,186.92,167.072,185.09,176.054,167.662z"/>
</g>
<g>
</g>
<g>
</g>
<g>
</g>
<g>
</g>
<g>
</g>
<g>
</g>
<g>
</g>
<g>
</g>
<g>
</g>
<g>
</g>
<g>
</g>
<g>
</g>
<g>
</g>
<g>
</g>
<g>
</g>
</svg>
