<?xml version="1.0" encoding="iso-8859-1"?>
<!-- Generator: Adobe Illustrator 16.0.0, SVG Export Plug-In . SVG Version: 6.00 Build 0)  -->
<!DOCTYPE svg PUBLIC "-//W3C//DTD SVG 1.1//EN" "http://www.w3.org/Graphics/SVG/1.1/DTD/svg11.dtd">
<svg version="1.1" id="Capa_1" xmlns="http://www.w3.org/2000/svg" xmlns:xlink="http://www.w3.org/1999/xlink" x="0px" y="0px"
	 width="380.724px" height="380.724px" viewBox="0 0 380.724 380.724" style="enable-background:new 0 0 380.724 380.724;"
	 xml:space="preserve">
<g>
	<path d="M357.621,251.524c-27.907-27.885-72.14-29.419-101.884-4.659c-1.069-1.266-2.323-2.776-3.822-4.543
		c23.795-20.576,51.203-19.426,51.482-19.391l0.697-10.318c-1.371-0.104-31.94-1.801-58.965,21.588
		c-2.092-2.51-4.38-5.229-7.007-8.412l12.037-12.025l-9.585-9.608l-12.804,12.792c-33.381-33.856-65.169-70.705-72.129-92.037
		C147.881,117.143,35.993,5.267,35.993,5.267l-0.035,0.035c-0.07-0.093-0.127-0.186-0.221-0.285
		C28.441-2.274,15.847-1.536,7.644,6.696c-8.237,8.208-8.981,20.797-1.685,28.088c0.093,0.099,0.186,0.145,0.279,0.238l-0.023,0.012
		c0,0,110.389,110.389,119.394,119.394c28.28,9.731,57.838,41.374,90.904,73.779l-12.548,12.548l9.585,9.609l11.7-11.701
		c3.219,2.859,5.949,5.334,8.471,7.646c-21.182,26.165-22.518,54.944-22.553,56.27l10.329,0.302
		c0.012-0.29,1.174-26.119,19.764-49.53c1.604,1.534,2.939,2.823,4.09,3.962c-24.226,29.721-22.471,73.559,5.217,101.245
		c29.546,29.558,77.485,29.558,107.031,0C387.18,328.986,387.168,281.082,357.621,251.524z M269.482,350.574
		c-0.512,0.615-1.395,0.778-2.185,0.395c-0.221-0.093-1.22-0.65-2.649-1.917c-0.324-0.278-0.696-0.628-1.045-1.022l-0.581-0.65
		c-1.615-1.812-3.869-4.264-5.867-7.564c-6.426-10.004-10.085-19.333-11.107-28.5c-0.187-3.184-0.035-5.902,0.464-8.946
		c0.512-2.685,1.186-5.298,2.068-8.075c1.859-5.321,4.241-9.922,6.193-13.303c2.207-3.916,4.764-6.879,6.482-8.68
		c2.08-2.127,3.51-3.532,3.51-3.532c0.65-0.616,1.719-0.628,2.475,0.046c0.79,0.732,1.011,1.721,0.592,2.476
		c-0.034,0.011-1.254,1.964-2.3,4.055c-1.197,1.917-2.312,4.81-3.718,8.69c-1.267,3.393-2.464,7.669-3.579,12.699
		c-0.499,2.196-0.906,4.555-1.208,7.053c-0.291,2.139-0.384,4.729-0.175,6.82c1.209,9.516,4.764,19.252,7.378,26.363
		c0.593,1.371,1.15,2.753,1.639,4.031c0.686,1.766,1.267,3.3,1.882,4.473c0.86,1.801,1.627,2.801,1.627,2.848
		C269.924,349.04,269.971,349.97,269.482,350.574z M311.879,312.824c-4.752,4.752-12.479,4.752-17.23,0
		c-4.764-4.764-4.764-12.479,0-17.242c4.752-4.764,12.479-4.764,17.23,0C316.643,300.346,316.643,308.061,311.879,312.824z"/>
</g>
<g>
</g>
<g>
</g>
<g>
</g>
<g>
</g>
<g>
</g>
<g>
</g>
<g>
</g>
<g>
</g>
<g>
</g>
<g>
</g>
<g>
</g>
<g>
</g>
<g>
</g>
<g>
</g>
<g>
</g>
</svg>
