<?xml version="1.0" encoding="iso-8859-1"?>
<!-- Generator: Adobe Illustrator 16.0.0, SVG Export Plug-In . SVG Version: 6.00 Build 0)  -->
<!DOCTYPE svg PUBLIC "-//W3C//DTD SVG 1.1//EN" "http://www.w3.org/Graphics/SVG/1.1/DTD/svg11.dtd">
<svg version="1.1" id="Capa_1" xmlns="http://www.w3.org/2000/svg" xmlns:xlink="http://www.w3.org/1999/xlink" x="0px" y="0px"
	 width="380.741px" height="380.741px" viewBox="0 0 380.741 380.741" style="enable-background:new 0 0 380.741 380.741;"
	 xml:space="preserve">
<g>
	<path d="M380.741,4.649c0,0-72.559,152.112-80.471,160.036c-29.79,29.791-76.544,76.544-76.544,76.544l-31.179-31.162l-8.162,8.168
		c0,0-32.137,12.061-56.693,55.293c-7.163,7.158-98.032,98.027-98.032,98.027l-0.041-0.023c-0.081,0.082-0.128,0.197-0.209,0.268
		c-6.727,6.715-17.648,6.715-24.358,0c-6.733-6.716-6.733-17.637-0.012-24.376c0.087-0.069,0.18-0.14,0.262-0.221l-0.023-0.023
		c0,0,89.504-89.499,97.812-97.817c48.078-33.938,54.666-57.779,54.666-57.779l8.162-8.168l0.691-0.697
		c7.437-7.418,76.66-76.654,107.345-107.339C357.829-8.462,380.741,4.649,380.741,4.649z"/>
</g>
<g>
</g>
<g>
</g>
<g>
</g>
<g>
</g>
<g>
</g>
<g>
</g>
<g>
</g>
<g>
</g>
<g>
</g>
<g>
</g>
<g>
</g>
<g>
</g>
<g>
</g>
<g>
</g>
<g>
</g>
</svg>
