<?xml version="1.0" encoding="iso-8859-1"?>
<!-- Generator: Adobe Illustrator 16.0.0, SVG Export Plug-In . SVG Version: 6.00 Build 0)  -->
<!DOCTYPE svg PUBLIC "-//W3C//DTD SVG 1.1//EN" "http://www.w3.org/Graphics/SVG/1.1/DTD/svg11.dtd">
<svg version="1.1" id="Capa_1" xmlns="http://www.w3.org/2000/svg" xmlns:xlink="http://www.w3.org/1999/xlink" x="0px" y="0px"
	 width="380.736px" height="380.736px" viewBox="0 0 380.736 380.736" style="enable-background:new 0 0 380.736 380.736;"
	 xml:space="preserve">
<g>
	<path d="M190.115,189.292l-9.271,9.277l-6.367-6.35l-8.598,8.586c0,0-6.413,23.156-53.097,56.129
		c-8.052,8.064-94.983,94.994-94.983,94.994l0.012,0.023c-0.093,0.082-0.174,0.14-0.256,0.209c-6.529,6.53-6.541,17.139,0,23.668
		c6.53,6.541,17.138,6.541,23.667,0c0.07-0.07,0.116-0.174,0.198-0.244l0.023,0.023c0,0,88.279-88.279,95.227-95.227
		c23.853-41.99,55.061-53.701,55.061-53.701l8.609-8.599l-9.132-9.132l9.283-9.272l7.517,7.505c0,0,31.487-10.271,38.447-17.23
		c6.959-6.948,56.002-56.002,65.61-65.61C321.686,114.729,377.606,18.23,366.673,0C356.076,10.625,183.76,182.924,183.76,182.924
		L190.115,189.292z M305.559,108.338c-6.82,6.832-16.405,8.307-21.401,3.306c-4.984-4.996-3.509-14.558,3.312-21.39
		c6.82-6.814,16.405-8.302,21.401-3.306S312.379,101.512,305.559,108.338z M271.121,142.805c-6.832,6.82-16.417,8.296-21.413,3.3
		c-4.996-5.002-3.521-14.576,3.3-21.408c6.832-6.803,16.405-8.29,21.401-3.293C279.394,126.399,277.918,135.979,271.121,142.805z
		 M215.758,180.055c-4.984-4.996-3.509-14.57,3.312-21.402c6.809-6.814,16.394-8.29,21.39-3.293
		c4.996,4.996,3.521,14.575-3.311,21.39C230.328,183.569,220.754,185.057,215.758,180.055z"/>
</g>
<g>
</g>
<g>
</g>
<g>
</g>
<g>
</g>
<g>
</g>
<g>
</g>
<g>
</g>
<g>
</g>
<g>
</g>
<g>
</g>
<g>
</g>
<g>
</g>
<g>
</g>
<g>
</g>
<g>
</g>
</svg>
