<?xml version="1.0" encoding="iso-8859-1"?>
<!-- Generator: Adobe Illustrator 16.0.0, SVG Export Plug-In . SVG Version: 6.00 Build 0)  -->
<!DOCTYPE svg PUBLIC "-//W3C//DTD SVG 1.1//EN" "http://www.w3.org/Graphics/SVG/1.1/DTD/svg11.dtd">
<svg version="1.1" id="Capa_1" xmlns="http://www.w3.org/2000/svg" xmlns:xlink="http://www.w3.org/1999/xlink" x="0px" y="0px"
	 width="380.721px" height="380.721px" viewBox="0 0 380.721 380.721" style="enable-background:new 0 0 380.721 380.721;"
	 xml:space="preserve">
<g>
	<g>
		<path d="M319.375,34.351H61.341c-14.918,0-27.001,12.095-27.001,27.008v258.027c0,14.907,12.083,27.014,27.001,27.014h70.973
			l2.951-57.256c0-32.242-23.83-21.914-23.83-44.477c0-12.63,0.389-38.969,0.389-58.744c0-52.691,22.378-103.674,27.879-115.048
			c5.53-11.363,18.532-23.76,18.677-11.828c0,17.312,0.737,218.616,0.737,218.616h-0.035l2.759,68.725h61.376l5.554-107.623
			c-13.105-2.87-24.283-11.213-31.277-21.681c-8.691-13.013,6.669-128.067,6.669-128.067h10.003v107.99h9.923V89.005h10.841v107.978
			h9.887V89.005h11.259v107.978h9.899V89.005h7.68c0,0,15.348,115.066,6.657,128.067c-6.925,10.364-18.009,18.671-30.94,21.622
			c-0.244,0.094-0.441,0.175-0.441,0.175l5.611,107.507h64.833c14.918,0,27.001-12.105,27.001-27.013V61.347
			C346.375,46.434,334.292,34.351,319.375,34.351z"/>
		<path d="M341.264,0H39.463C17.701,0,0,17.701,0,39.463v301.778c0,21.773,17.701,39.48,39.463,39.48h301.778
			c21.773,0,39.48-17.707,39.48-39.457V39.463C380.721,17.701,363.014,0,341.264,0z M364.931,341.264
			c0,13.059-10.631,23.667-23.667,23.667H39.463c-13.059,0-23.673-10.62-23.673-23.667V39.463c0-13.065,10.625-23.673,23.673-23.673
			h301.778c13.06,0,23.679,10.619,23.679,23.673v301.801H364.931z"/>
	</g>
</g>
<g>
</g>
<g>
</g>
<g>
</g>
<g>
</g>
<g>
</g>
<g>
</g>
<g>
</g>
<g>
</g>
<g>
</g>
<g>
</g>
<g>
</g>
<g>
</g>
<g>
</g>
<g>
</g>
<g>
</g>
</svg>
