<?xml version="1.0" encoding="iso-8859-1"?>
<!-- Generator: Adobe Illustrator 16.0.0, SVG Export Plug-In . SVG Version: 6.00 Build 0)  -->
<!DOCTYPE svg PUBLIC "-//W3C//DTD SVG 1.1//EN" "http://www.w3.org/Graphics/SVG/1.1/DTD/svg11.dtd">
<svg version="1.1" id="Capa_1" xmlns="http://www.w3.org/2000/svg" xmlns:xlink="http://www.w3.org/1999/xlink" x="0px" y="0px"
	 width="380.716px" height="380.715px" viewBox="0 0 380.716 380.715" style="enable-background:new 0 0 380.716 380.715;"
	 xml:space="preserve">
<g>
	<path d="M380.035,28.009c6.274-6.268-32.578-28.925-44.627-16.882c-12.037,12.037-194.775,194.787-194.775,194.787l-16.76,16.998
		c0,0-4.95,19.159-42.914,46.997c-6.536,6.739-76.91,79.588-76.91,79.588l0.023,0.023c-0.07,0.07-0.139,0.117-0.198,0.175
		c-5.286,5.483-5.152,14.198,0.332,19.508c5.46,5.274,14.192,5.124,19.49-0.36c0.07-0.059,0.104-0.14,0.174-0.197l0.012,0.023
		c0,0,71.449-73.953,77.072-79.809c19.049-34.914,44.593-45.012,44.593-45.012l6.948-7.18c0,0,29.639-10.725,33.032-14.129
		c3.398-3.404,4.171-4.171,11.253-11.246l-1.452-8.412l8.418,1.452c0.499-0.511,0.999-1.022,1.521-1.534l-1.464-8.394l8.424,1.441
		c0.476-0.477,0.987-0.988,1.487-1.487l-1.453-8.412l8.4,1.453c0.569-0.558,1.127-1.116,1.696-1.691l-1.452-8.412l8.412,1.452
		c0.488-0.488,0.987-0.999,1.487-1.487l-1.452-8.412l8.412,1.452c0.568-0.558,1.139-1.139,1.707-1.702l-1.452-8.412l8.4,1.464
		c0.5-0.5,0.999-1,1.499-1.499l-1.452-8.412l8.411,1.452c0.559-0.558,1.116-1.127,1.686-1.69l-1.453-8.412l8.412,1.452
		c0.5-0.5,0.988-0.999,1.487-1.487l-1.452-8.412l8.412,1.452c0.499-0.511,1.011-1.011,1.521-1.522l-1.476-8.412l8.4,1.452
		c0.5-0.488,0.999-0.987,1.499-1.487l-1.44-8.412l8.389,1.452c0.581-0.558,1.149-1.133,1.708-1.69l-1.453-8.412l8.4,1.453
		c0.512-0.5,1-1,1.499-1.487l-1.452-8.412l8.412,1.453c0.836-0.831,1.673-1.69,2.51-2.51l-1.453-8.412l8.412,1.453
		c0.5-0.5,1-1,1.487-1.487l-1.452-8.412l8.412,1.453c0.569-0.575,1.127-1.133,1.708-1.702l-1.464-8.4l8.412,1.441
		c0.499-0.488,0.998-0.988,1.498-1.487l-1.452-8.4l8.4,1.452c0.522-0.522,1.011-1.022,1.522-1.54l-1.453-8.394l8.412,1.446
		c0.5-0.5,0.999-0.999,1.487-1.487l-1.452-8.406l8.412,1.446c0.58-0.581,1.127-1.127,1.696-1.702l-1.464-8.4l8.412,1.453
		c0.511-0.511,1.01-1.011,1.486-1.499l-1.452-8.412l8.412,1.464C377.956,30.101,379.733,28.317,380.035,28.009z"/>
</g>
<g>
</g>
<g>
</g>
<g>
</g>
<g>
</g>
<g>
</g>
<g>
</g>
<g>
</g>
<g>
</g>
<g>
</g>
<g>
</g>
<g>
</g>
<g>
</g>
<g>
</g>
<g>
</g>
<g>
</g>
</svg>
