<?xml version="1.0" encoding="iso-8859-1"?>
<!-- Generator: Adobe Illustrator 16.0.0, SVG Export Plug-In . SVG Version: 6.00 Build 0)  -->
<!DOCTYPE svg PUBLIC "-//W3C//DTD SVG 1.1//EN" "http://www.w3.org/Graphics/SVG/1.1/DTD/svg11.dtd">
<svg version="1.1" id="Capa_1" xmlns="http://www.w3.org/2000/svg" xmlns:xlink="http://www.w3.org/1999/xlink" x="0px" y="0px"
	 width="380.732px" height="380.732px" viewBox="0 0 380.732 380.732" style="enable-background:new 0 0 380.732 380.732;"
	 xml:space="preserve">
<g>
	<g>
		<path d="M194.474,50.849c0,4.177,0,145.437,0,150.171c4.113,12.903,4.717,14.111,4.717,14.111v5.716h-4.693v8.076
			c0,0,7.854,13.884,1.417,51.284c0,7.563,0,89.185,0,89.185h0.012c0,0.082-0.012,0.151-0.012,0.221
			c0,6.158,4.973,11.119,11.107,11.119c6.146,0.012,11.119-4.961,11.119-11.119c0-0.069-0.022-0.115-0.022-0.221h0.022
			c0,0,0-82.875,0-89.405c-8.517-30.905,0.64-51.052,0.64-51.052v-8.088h-4.694v-5.716c0,0,0,0,7.646-14.93
			c0.29-5.31,0-166.066,0-171.66C214.736,27.71,194.474,46.695,194.474,50.849z"/>
		<path d="M249.546,53.911c0,3.067,0,144.292,0,144.292l3.648,10.398v5.183h-6.773v8.331c0,0,8.121,14.337,1.476,52.945
			c0,7.809,0,92.09,0,92.09h0.012c0,0.094-0.023,0.163-0.012,0.232c0,6.344,5.136,11.468,11.468,11.468
			c6.32,0,11.467-5.124,11.467-11.456c0-0.093-0.022-0.15-0.022-0.244h0.022c0,0,0-85.571,0-92.322
			c-8.807-31.904,0.674-52.725,0.674-52.725v-8.331h-5.402v-5.182h12.305v-90.899l-18.741-63.792h-10.12V53.911z"/>
		<path d="M331.144,236.859V94.942l-21.39-34.67h-11.525c0,3.509,0,164.712,0,164.712l4.183,11.875h7.854v3.474h-5.938v6.983
			c0,0,6.797,12.024,1.22,44.43c0,6.553,0,77.287,0,77.287h0.023c0,0.069-0.023,0.115-0.023,0.186c0,5.321,4.322,9.632,9.644,9.632
			s9.62-4.311,9.62-9.62c0-0.082-0.012-0.128-0.012-0.197h0.012c0,0,0-71.827,0-77.485c-7.366-26.77,0.559-44.243,0.559-44.243
			v-6.983h-4.322l0.022-3.474h10.073V236.859z"/>
		<path d="M49.589,91.956c0,31.15,0,101.414,0,108.96v0.714v8.272c0,0,8.754,15.453,1.58,57.071c0,8.412,0,99.27,0,99.27h0.023
			c0,0.094-0.023,0.175-0.023,0.256c0,6.82,5.548,12.362,12.386,12.351c6.808,0.012,12.362-5.53,12.362-12.351
			c0-0.093-0.023-0.174-0.023-0.256l0.023-0.012c0,0,0-92.24,0-99.502c-9.481-34.402,0.703-56.827,0.703-56.827v-8.272l31.649-0.017
			c0,0,0-47.445,0-77.688c0-8.04-40.392-122.042-40.392-122.042S49.589,6.832,49.589,91.956z"/>
		<path d="M148.028,0c0,0-14.099,43.878-14.087,63.589c0,19.049,0,139.947,0,148.487v0.512v7.993c0,0,8.296,14.628,1.499,54.097
			c0,7.982,0,94.1,0,94.1h0.012c0,0.07-0.012,0.14-0.012,0.232c0,6.483,5.234,11.723,11.735,11.711
			c6.46,0,11.706-5.228,11.706-11.711c0-0.093-0.023-0.15-0.023-0.232h0.023c0,0,0-87.442,0-94.344
			c-8.993-32.578,0.668-53.853,0.668-53.853v-7.993h7.61c0,0,0-130.746,0-150.457C167.158,42.391,148.028,0,148.028,0z"/>
	</g>
</g>
<g>
</g>
<g>
</g>
<g>
</g>
<g>
</g>
<g>
</g>
<g>
</g>
<g>
</g>
<g>
</g>
<g>
</g>
<g>
</g>
<g>
</g>
<g>
</g>
<g>
</g>
<g>
</g>
<g>
</g>
</svg>
