<?xml version="1.0" encoding="iso-8859-1"?>
<!-- Generator: Adobe Illustrator 16.0.0, SVG Export Plug-In . SVG Version: 6.00 Build 0)  -->
<!DOCTYPE svg PUBLIC "-//W3C//DTD SVG 1.1//EN" "http://www.w3.org/Graphics/SVG/1.1/DTD/svg11.dtd">
<svg version="1.1" id="Capa_1" xmlns="http://www.w3.org/2000/svg" xmlns:xlink="http://www.w3.org/1999/xlink" x="0px" y="0px"
	 width="380.735px" height="380.735px" viewBox="0 0 380.735 380.735" style="enable-background:new 0 0 380.735 380.735;"
	 xml:space="preserve">
<g>
	<path d="M216.99,185.611l1.243-1.226c0,0,12.061-32.137,55.271-56.693c7.169-7.163,98.038-98.033,98.038-98.033l-0.023-0.035
		c0.093-0.087,0.186-0.134,0.268-0.215c6.715-6.721,6.715-17.648,0-24.358c-6.704-6.733-17.626-6.733-24.376-0.012
		c-0.069,0.087-0.14,0.18-0.209,0.262l-0.023-0.023c0,0-89.511,89.504-97.817,97.812c-33.95,48.078-57.78,54.666-57.78,54.666
		l-1.231,1.237l-1.231-1.237c0,0-23.842-6.588-57.791-54.666c-8.284-8.296-97.807-97.812-97.807-97.812v0.035
		c-0.069-0.093-0.127-0.174-0.197-0.262C26.571-1.682,15.65-1.682,8.934,5.062c-6.704,6.698-6.704,17.625,0,24.358
		c0.104,0.082,0.197,0.128,0.279,0.215L9.19,29.659c0,0,90.881,90.881,98.038,98.033c43.222,24.544,55.271,56.693,55.271,56.693
		l1.243,1.226c-24.655,24.655-66.354,66.366-88.372,88.36C-8.471,357.823,4.659,380.735,4.659,380.735
		s152.111-72.559,160.035-80.471c7.773-7.773,16.708-16.709,25.678-25.678c8.958,8.969,17.893,17.904,25.678,25.678
		c7.924,7.912,160.035,80.471,160.035,80.471s13.117-22.912-70.734-106.775C283.344,251.977,241.645,210.266,216.99,185.611z"/>
</g>
<g>
</g>
<g>
</g>
<g>
</g>
<g>
</g>
<g>
</g>
<g>
</g>
<g>
</g>
<g>
</g>
<g>
</g>
<g>
</g>
<g>
</g>
<g>
</g>
<g>
</g>
<g>
</g>
<g>
</g>
</svg>
