<?xml version="1.0" encoding="iso-8859-1"?>
<!-- Generator: Adobe Illustrator 16.0.0, SVG Export Plug-In . SVG Version: 6.00 Build 0)  -->
<!DOCTYPE svg PUBLIC "-//W3C//DTD SVG 1.1//EN" "http://www.w3.org/Graphics/SVG/1.1/DTD/svg11.dtd">
<svg version="1.1" id="Capa_1" xmlns="http://www.w3.org/2000/svg" xmlns:xlink="http://www.w3.org/1999/xlink" x="0px" y="0px"
	 width="380.712px" height="380.712px" viewBox="0 0 380.712 380.712" style="enable-background:new 0 0 380.712 380.712;"
	 xml:space="preserve">
<g>
	<path d="M376.467,4.356c-5.646-5.699-14.872-5.688-20.507,0c-0.058,0.122-0.116,0.134-0.175,0.25c0,0-75.37,75.312-82.364,82.365
		c-28.559,40.38-48.612,45.963-48.612,45.963l-7.494,7.424l5.948,5.925L112.084,257.521c-21.854-14.349-57.774-6.169-84.474,20.577
		C-1.808,307.458-8.802,348.1,11.885,368.77c20.687,20.67,61.306,13.617,90.672-15.732c27.008-26.885,35.048-63.286,20.251-85.095
		l111.04-111.098l5.949,5.937l7.436-7.424c0,0,10.154-27.001,46.51-47.683c6.007-6.076,82.539-82.614,82.539-82.614
		c0.069,0,0.139-0.134,0.197-0.134C382.161,19.228,382.09,10.066,376.467,4.356z M105.235,272.068c-0.011,0-1.121-0.313-3.015-0.431
		c-1.092-0.127-2.556-0.104-4.247-0.058c-1.318,0.023-2.771,0.058-4.223,0.023c-7.029,0.302-16.644,0.755-25.41,3.3
		c-1.871,0.58-4.188,1.639-6.083,2.788c-2.439,1.417-4.339,2.638-6.007,3.857c-4.27,2.997-7.79,5.751-10.457,8.237
		c-3.009,2.719-5.438,4.927-6.878,6.82c-1.592,1.767-2.997,3.684-3.021,3.684c-0.453,0.639-1.307,0.79-1.964,0.395
		c-0.68-0.371-0.906-1.231-0.569-1.916c0,0,0.889-1.836,2.26-4.578c1.162-2.324,3.149-5.833,6.054-9.377
		c2.573-3.113,6.07-7.156,10.306-10.84c2.213-1.883,4.375-3.521,6.651-5.031c2.557-1.604,4.938-2.788,7.756-3.834
		c8.377-2.533,17.573-2.719,28.076-0.58c3.486,0.615,6.286,1.789,8.319,2.66l0.522,0.209c2.022,0.906,3.079,1.883,3.353,2.161
		c0.012,0.012,0.075,0.081,0.087,0.081c0.453,0.5,0.511,1.232,0.163,1.789C106.565,271.999,105.875,272.265,105.235,272.068z
		 M371.134,22.202c-3.148,3.096-16.603,11.398-19.752,8.174c-3.16-3.224,5.077-16.597,8.238-19.688
		c3.218-3.224,8.365-3.224,11.514,0C374.283,13.779,374.283,18.978,371.134,22.202z"/>
</g>
<g>
</g>
<g>
</g>
<g>
</g>
<g>
</g>
<g>
</g>
<g>
</g>
<g>
</g>
<g>
</g>
<g>
</g>
<g>
</g>
<g>
</g>
<g>
</g>
<g>
</g>
<g>
</g>
<g>
</g>
</svg>
