<?xml version="1.0" encoding="iso-8859-1"?>
<!-- Generator: Adobe Illustrator 16.0.0, SVG Export Plug-In . SVG Version: 6.00 Build 0)  -->
<!DOCTYPE svg PUBLIC "-//W3C//DTD SVG 1.1//EN" "http://www.w3.org/Graphics/SVG/1.1/DTD/svg11.dtd">
<svg version="1.1" id="Capa_1" xmlns="http://www.w3.org/2000/svg" xmlns:xlink="http://www.w3.org/1999/xlink" x="0px" y="0px"
	 width="373.517px" height="373.517px" viewBox="0 0 373.517 373.517" style="enable-background:new 0 0 373.517 373.517;"
	 xml:space="preserve">
<g>
	<g>
		<path d="M198.19,185.422c-0.139-0.151-0.313-0.343-0.465-0.511l-3.938-3.346l-2.103-9.632l-0.244,0.9l-0.116-0.116
			c1.673,5.757-0.883,9.887-2.823,12.229c-2.887,3.532-28.361,28.652-28.373,54.503s22.297,45.568,28.559,51.971
			c4.74,4.81,10.585,10.398,9.586,17.439l0.221,1.638l3.799-11.642l1.824-0.965c1.487-2.301,3.219-4.496,4.857-6.541
			c5.6-7.018,25.746-28.931,23.074-54.654C229.353,210.995,201.433,188.624,198.19,185.422z"/>
		<path d="M57.866,52.447v-34.02l5.211-6.256H319.63V0H57.378L45.696,14.03v38.417h-0.035v321.07h282.194V52.447H57.866z
			 M233.233,316.028c-4.834,5.461-16.197,9.527-25.329,2.661l-8.134-1.778l-5.414,15.5l-1.464-4.787l3.347-10.225l-3.416,0.906
			c-8.424,8.063-20.31,5.205-25.724,0.209c-5.211-4.799-44.877-35.669-41.938-82.213c2.94-46.557,37.964-74.842,37.964-74.842
			s11.125-9.516,21.947,1.54c0.291,0.285,0.441,0.546,0.703,0.819l4.096-0.058l-2.562-11.694l3.12-4.549l3.079,15.825l7.378-1.679
			c9.317-9.481,20.101-2.237,20.101-2.237s37.748,24.533,45.475,70.532C274.212,275.897,237.927,310.707,233.233,316.028z
			 M300.156,111.493H83.544V90.254h216.612V111.493z"/>
	</g>
</g>
<g>
</g>
<g>
</g>
<g>
</g>
<g>
</g>
<g>
</g>
<g>
</g>
<g>
</g>
<g>
</g>
<g>
</g>
<g>
</g>
<g>
</g>
<g>
</g>
<g>
</g>
<g>
</g>
<g>
</g>
</svg>
