<?xml version="1.0" encoding="iso-8859-1"?>
<!-- Generator: Adobe Illustrator 16.0.0, SVG Export Plug-In . SVG Version: 6.00 Build 0)  -->
<!DOCTYPE svg PUBLIC "-//W3C//DTD SVG 1.1//EN" "http://www.w3.org/Graphics/SVG/1.1/DTD/svg11.dtd">
<svg version="1.1" id="Capa_1" xmlns="http://www.w3.org/2000/svg" xmlns:xlink="http://www.w3.org/1999/xlink" x="0px" y="0px"
	 width="373.517px" height="373.517px" viewBox="0 0 373.517 373.517" style="enable-background:new 0 0 373.517 373.517;"
	 xml:space="preserve">
<g>
	<g>
		<path d="M130.623,223.869c-7.105,0-12.85,5.728-12.85,12.851c0,7.088,5.745,12.85,12.85,12.85c7.099,0,12.85-5.762,12.85-12.85
			C143.473,229.608,137.71,223.869,130.623,223.869z M130.623,242.691c-3.096,0-5.606-2.51-5.606-5.612
			c0-3.09,2.51-5.611,5.606-5.611c-0.633,0.65-1.022,1.521-1.022,2.51c0,1.963,1.603,3.578,3.579,3.578
			c1.167,0,2.144-0.58,2.782-1.417c0.076,0.313,0.25,0.604,0.25,0.94C136.211,240.181,133.701,242.691,130.623,242.691z"/>
		<path d="M151.571,210.507c0.737,2.173,6.297,11.944,5.902,26.653c-0.366,14.453-7.971,24.016-8.802,25.154
			c-0.825,1.15,4.531,6.379,5.949,4.787c1.388-1.568,10.038-12.652,10.479-29.732c0.453-16.836-5.972-28.791-6.808-30.487
			C157.45,205.209,150.856,208.346,151.571,210.507z"/>
		<path d="M57.854,52.447v-34.02l5.211-6.256h256.541V0H57.367L45.684,14.03v38.417h-0.023v321.07h282.194V52.447H57.854z
			 M102.958,97.132h184.603v18.096H102.958V97.132z M294.951,286.458c-9.597,3.103-15.731-24.689-20.333-27.942
			c-6.506-4.648-12.641,0.023-18.287,5.146c-1.081,1.058-2.254,2.139-3.509,3.219c-0.116,0.115-0.232,0.221-0.349,0.325
			c-0.035,0.022-0.059,0.046-0.094,0.069c-10.875,9.365-27.722,19.311-52.133,22.599c4.334,4.892,7.518,10.038,4.172,12.014
			c-7.181,4.218-19.758,2.8-28.553,1.405c-6.065-0.964-11.776-8.922-14.75-13.779c-57.112-7.889-76.039-44.801-75.185-49.751
			c0.755-4.415,15.005-35.692,63.333-47.707c3.805-7.477,18.05-30.394,47.566-25.05c26.909,4.851,38.656,26.561,42.688,36.505
			c9.945,7.832,16.801,17.289,21.332,25.516c0.371,0.674,0.709,1.301,1.046,1.939c1.73,2.707,5.786,6.948,13.07,3.776
			c13.78-5.995,15.546-38.376,25.422-31.521c11.421,7.936-3.671,27.165-4.136,41.27
			C295.718,259.793,304.571,283.356,294.951,286.458z"/>
	</g>
</g>
<g>
</g>
<g>
</g>
<g>
</g>
<g>
</g>
<g>
</g>
<g>
</g>
<g>
</g>
<g>
</g>
<g>
</g>
<g>
</g>
<g>
</g>
<g>
</g>
<g>
</g>
<g>
</g>
<g>
</g>
</svg>
