<?xml version="1.0" encoding="iso-8859-1"?>
<!-- Generator: Adobe Illustrator 16.0.0, SVG Export Plug-In . SVG Version: 6.00 Build 0)  -->
<!DOCTYPE svg PUBLIC "-//W3C//DTD SVG 1.1//EN" "http://www.w3.org/Graphics/SVG/1.1/DTD/svg11.dtd">
<svg version="1.1" id="Capa_1" xmlns="http://www.w3.org/2000/svg" xmlns:xlink="http://www.w3.org/1999/xlink" x="0px" y="0px"
	 width="380.732px" height="380.731px" viewBox="0 0 380.732 380.731" style="enable-background:new 0 0 380.732 380.731;"
	 xml:space="preserve">
<g>
	<g>
		<rect x="297.903" y="290.077" width="59.231" height="24.864"/>
		<rect x="38.76" y="290.077" width="59.238" height="24.864"/>
		<path d="M352.255,65.79H28.471C12.74,65.79,0,78.518,0,94.25v160.135c0,15.708,12.74,28.465,28.471,28.465h323.808
			c15.708,0,28.453-12.745,28.453-28.465V94.25C380.72,78.518,367.987,65.79,352.255,65.79z M261.165,245.973H30.813v-145.35
			h230.352V245.973z M312.566,245.973h-35.135v-22.9h35.135V245.973z M340.961,178.828v8.639h-45.952v-8.639H340.961z
			 M295.009,170.498v-8.645h45.952v8.645H295.009z M340.961,197.941v8.644h-45.952v-8.644H340.961z M353.115,245.973H317.98v-22.9
			h35.135V245.973z M353.115,146.29h-73.023v-45.667h73.023V146.29z"/>
	</g>
</g>
<g>
</g>
<g>
</g>
<g>
</g>
<g>
</g>
<g>
</g>
<g>
</g>
<g>
</g>
<g>
</g>
<g>
</g>
<g>
</g>
<g>
</g>
<g>
</g>
<g>
</g>
<g>
</g>
<g>
</g>
</svg>
