<?xml version="1.0" encoding="iso-8859-1"?>
<!-- Generator: Adobe Illustrator 16.0.0, SVG Export Plug-In . SVG Version: 6.00 Build 0)  -->
<!DOCTYPE svg PUBLIC "-//W3C//DTD SVG 1.1//EN" "http://www.w3.org/Graphics/SVG/1.1/DTD/svg11.dtd">
<svg version="1.1" id="Capa_1" xmlns="http://www.w3.org/2000/svg" xmlns:xlink="http://www.w3.org/1999/xlink" x="0px" y="0px"
	 width="380.712px" height="380.712px" viewBox="0 0 380.712 380.712" style="enable-background:new 0 0 380.712 380.712;"
	 xml:space="preserve">
<g>
	<g>
		<path d="M98.951,225.235c7.854,0,14.221,6.367,14.221,14.222s-6.367,14.222-14.221,14.222c-7.849,0-14.216-6.367-14.216-14.222
			S91.102,225.235,98.951,225.235z"/>
		<path d="M155.191,203.265c1.44,2.405,6.582,6.797,24.864,9.145c26.479,3.416,100.095,2.637,156.119-5.066
			c-3.485-9.086-12.664-16.237-25.433-21.396v-42.809H253.17v32.648c-39.316-0.918-81.074,7.872-98.468,26.304
			C154.801,202.44,154.929,202.835,155.191,203.265z"/>
		<path d="M199.051,309.563c-41.467-29.139-49.774-82.736-50.82-109.053c-6.721-4.659-12.292-9.091-19.979-11.781
			c17.835-8.888,23.691-26.392,24.597-42.402c1.185-20.931,5.647-111.493,6.327-125.261h4.246c0,0,0.75-11.822-10.097-11.822
			c-4.2,0-15.15,0-27.019,0c-2.051-3.607-13.699-6.367-27.809-6.367c-14.094,0-25.741,2.76-27.792,6.355
			c-13.646,0-27.136,0-31.894,0c-10.863,0-10.114,11.822-10.114,11.822h6.826c0.11,2.44,0.36,7.343,0.691,13.849h-18.45
			c-9.498,0-12.908,12.043-14.826,22.535C1.069,67.634,0,81.472,0,95.443c0,13.559,0.988,26.067,2.771,35.251
			c1.121,5.687,4.061,20.756,14.982,20.756H42.31c1.841,14.709,8.336,29.773,24.794,37.633h-0.761c0,0-1.011,1.011-2.667,2.771
			c-33.479,14.849-56.932,49.136-56.932,89.058c0,52.864,41.107,95.818,92.171,96.864l-0.012,0.058c0,0,169.65,0,202.183,0
			c24.469,0,24.086-21.796,14.965-35.309C284.042,341.341,234.082,334.219,199.051,309.563z M19.188,137.759
			c-2.498-3.939-5.699-19.642-5.495-44.494c0.203-24.498,3.439-40.311,5.891-44.68h17.312c1.377,27.925,3.416,68.649,4.497,89.173
			H19.188z M98.951,262.229c-12.548,0-22.772-10.225-22.772-22.772c0-12.571,10.224-22.784,22.772-22.784
			c12.565,0,22.784,10.213,22.784,22.784C121.723,252.005,111.516,262.229,98.951,262.229z"/>
		<path d="M368.858,226.503c-6.553-4.822-20.67-9.889-28.779-13.605c-36.622,5.273-80.424,8.19-115.014,8.19
			c-19.158,0-35.396-0.755-45.115-1.987c-11.433-1.475-20.048-4.473-24.852-7.924c2.487,27.119,12.252,67.924,47.508,92.706
			c37.994,26.711,92.671,31.266,123.101,31.521c13.35-4.578,30.731-10.968,39.841-16.058c8.876-4.949,13.756-16.823,14.987-36.32
			C380.558,282.585,383.021,236.936,368.858,226.503z M355.055,301.06c-6.89,3.799-20.6,8.969-32.893,13.245
			c11.572-18.997,22.482-50.739,20.948-78.264c5.008,2.51,9.608,4.974,12.386,6.832C360.713,252.655,361.573,294.553,355.055,301.06
			z"/>
	</g>
</g>
<g>
</g>
<g>
</g>
<g>
</g>
<g>
</g>
<g>
</g>
<g>
</g>
<g>
</g>
<g>
</g>
<g>
</g>
<g>
</g>
<g>
</g>
<g>
</g>
<g>
</g>
<g>
</g>
<g>
</g>
</svg>
