<?xml version="1.0" encoding="iso-8859-1"?>
<!-- Generator: Adobe Illustrator 16.0.0, SVG Export Plug-In . SVG Version: 6.00 Build 0)  -->
<!DOCTYPE svg PUBLIC "-//W3C//DTD SVG 1.1//EN" "http://www.w3.org/Graphics/SVG/1.1/DTD/svg11.dtd">
<svg version="1.1" id="Capa_1" xmlns="http://www.w3.org/2000/svg" xmlns:xlink="http://www.w3.org/1999/xlink" x="0px" y="0px"
	 width="380.717px" height="380.717px" viewBox="0 0 380.717 380.717" style="enable-background:new 0 0 380.717 380.717;"
	 xml:space="preserve">
<g>
	<path d="M318.087,319.441c-34.008,0-116.163,0-143.683,0c-27.519,0-53.353-19.973-53.353-53.353c0-33.368,0-142.48,0-142.48
		s49.054,0,99.485,0v35.304h-89.859c0,63.931,0,62.863,0,100.135c0,35.937,25.393,52.609,39.788,52.609c13.024,0,55.032,0,62.897,0
		c0.837,0,1.29,0,1.29,0c7.878,0,49.879,0,62.903,0c14.396,0,39.794-16.673,39.794-52.609c0-37.272,0-36.204,0-100.135h-89.847
		v-35.304c39.944,0,75.195,0,80.54,0c13.164,0,7.39-65.459,0-83.759c-7.378-18.282-40.107-29.837-52.946-29.837
		c-12.838,0-107.194,0-179.079,0c-27.896,0-43.006,15.017-49.658,34.229h34.252v9.626H43.781c-0.499,2.544-0.917,5.118-1.19,7.697
		h38.022v9.638H42.126c0,2.725,0.128,5.438,0.354,8.139h38.144v9.621H43.718c2.939,16.539,9.661,30.476,17.648,35.303
		c0,14.761,0,142.497,0,166.873s-87.936,66.75-53.277,79.564c19.258,0,358.134,0,370.322,0S352.106,319.441,318.087,319.441z
		 M176.938,292.649c-3.335-1.649-7.982-4.485-12.531-9.364c-2.283-2.418-4.531-5.369-6.28-8.936
		c-0.988-1.73-1.679-3.672-2.417-5.658c-0.488-2.021-1.214-4.787-1.307-6.482c-0.599-4.485-0.5-7.994-0.599-12.154
		c-0.023-4.031-0.197-8.121-0.128-12.223c0.012-16.359,1.133-32.741,2.579-45.022c1.395-12.281,3.335-20.478,3.335-20.478
		s1.94,8.186,3.329,20.478c1.464,12.281,2.574,28.663,2.585,45.022c0.069,4.113-0.099,8.191-0.134,12.223
		c0.046,3.881-0.331,8.331-0.262,11.503c-0.069,2.173,0.297,3.067,0.418,4.694c0.377,1.533,0.523,3.113,1.069,4.577
		c0.86,2.986,2.225,5.693,3.521,8.237c2.823,4.973,5.961,8.947,8.319,11.619c2.353,2.684,3.903,4.148,3.903,4.148
		S180.277,294.322,176.938,292.649z"/>
</g>
<g>
</g>
<g>
</g>
<g>
</g>
<g>
</g>
<g>
</g>
<g>
</g>
<g>
</g>
<g>
</g>
<g>
</g>
<g>
</g>
<g>
</g>
<g>
</g>
<g>
</g>
<g>
</g>
<g>
</g>
</svg>
