<?xml version="1.0" encoding="iso-8859-1"?>
<!-- Generator: Adobe Illustrator 16.0.0, SVG Export Plug-In . SVG Version: 6.00 Build 0)  -->
<!DOCTYPE svg PUBLIC "-//W3C//DTD SVG 1.1//EN" "http://www.w3.org/Graphics/SVG/1.1/DTD/svg11.dtd">
<svg version="1.1" id="Capa_1" xmlns="http://www.w3.org/2000/svg" xmlns:xlink="http://www.w3.org/1999/xlink" x="0px" y="0px"
	 width="380.722px" height="380.721px" viewBox="0 0 380.722 380.721" style="enable-background:new 0 0 380.722 380.721;"
	 xml:space="preserve">
<g>
	<path d="M246.009,0c-39.051,0-125.255,0-136.856,0c-11.602,0-17.016,30.162,3.863,30.162c20.873,0,114.055,0,124.884,0
		c10.828,0,27.838,35.942,20.878,35.942c-6.959,0-150.397,0-166.246,0c-15.859,0-18.944,90.085,0,90.085c5.165,0,20.536,0,40.404,0
		v83.504h-3.282c-0.227,0.534-0.372,0.801-0.372,0.801l-0.023,6.379l3.498,0.023c-0.593,10.666-6.542,27.78-12.909,45.917
		c-7.639,21.797-15.54,44.36-14.454,57.605c1.15,14.313,7.564,21.738,12.751,25.421c4.427,3.184,9.719,4.869,14.872,4.881
		c1.929,0.012,3.857-0.209,5.699-0.697l2.62-0.662c0.924,0.104,1.854,0.174,2.794,0.197c5.165,0,10.445-1.65,14.907-4.775
		c5.211-3.66,11.683-11.003,12.966-25.316c1.191-13.234-6.53-35.855-13.989-57.723c-5.972-17.521-11.59-34.054-12.443-44.812
		l2.841,0.023l0.046-6.355c0,0-0.127-0.326-0.343-0.883h-3.59v-83.516c28.692,0,63.601,0,91.038,0v80.029h-3.265
		c-0.232,0.512-0.372,0.802-0.372,0.802l-0.023,6.367l3.498,0.012c-0.593,10.665-6.542,27.78-12.909,45.94
		c-7.645,21.797-15.546,44.336-14.459,57.582c1.15,14.326,7.569,21.727,12.751,25.434c4.427,3.172,9.725,4.867,14.872,4.879
		c1.929,0.012,3.857-0.221,5.705-0.686l2.614-0.686c0.93,0.129,1.859,0.197,2.8,0.197c5.159,0.023,10.445-1.649,14.907-4.764
		c5.205-3.647,11.677-11.014,12.966-25.316c1.186-13.245-6.529-35.844-13.988-57.71c-5.973-17.532-11.596-34.065-12.444-44.837
		l2.836,0.023l0.034-6.355c0,0-0.14-0.325-0.349-0.883h-3.59V156.19c17.463,0,30.267,0,33.624,0
		c13.152,0,20.495-20.106,20.495-30.935c0-10.823,0-51.418,0-51.418S285.06,0,246.009,0z M120.202,372.983
		c-4.566-3.254-10.23-9.876-11.288-22.842c-1.011-12.514,6.745-34.693,14.273-56.143c1.54-4.414,3.062-8.76,4.502-12.978
		c-6.187,27.524-13.687,61.485-14.053,66.284c-0.61,15.825,11.339,25.469,18.619,29.86
		C128.056,376.957,123.763,375.516,120.202,372.983z M117.157,347.492c0.285-3.741,5.449-27.56,10.73-51.192
		c-3.161,23.586-6.158,47.195-6.188,52.262c-0.023,6.785,6.391,18.415,11.897,25.316
		C126.987,369.823,116.635,361.225,117.157,347.492z M125.238,348.573c0.023-5.752,4.165-37.355,7.849-64.402
		c-1.999,40.827-1.83,48.217-1.639,55.932c0.07,2.498,0.128,5.043,0.104,8.807c-0.034,9.899,2.452,17.382,4.572,22.378
		C131.519,365.338,125.215,355.183,125.238,348.573z M138.408,367.429c-1.714-4.601-3.358-10.759-3.323-18.521
		c0.012-3.811-0.046-6.367-0.093-8.899c-0.238-9.458-0.453-18.427,3.428-90.323c0.273-1.209,0.488-2.115,0.627-2.766l0.465,0.012
		c0.11,0.453,0.215,0.964,0.349,1.545c3.282,71.92,2.986,80.889,2.69,90.347c-0.087,2.533-0.168,5.112-0.18,8.923
		C142.312,356.182,140.313,362.758,138.408,367.429z M154.709,292.907c7.337,21.506,14.93,43.756,13.809,56.258
		c-1.162,12.967-6.884,19.531-11.479,22.738c-3.579,2.521-7.889,3.927-12.089,4.102c7.297-4.334,19.334-13.896,18.857-29.791
		c-0.343-4.74-7.552-38.76-13.501-66.296C151.711,284.124,153.199,288.481,154.709,292.907z M160.274,346.375
		c0.418,13.804-10.039,22.32-16.702,26.34c1.964-2.428,3.66-4.938,4.247-5.832c2.951-4.438,7.877-12.896,7.9-19.403
		c0.023-5.077-2.776-28.698-5.733-52.319C155.052,318.829,160.024,342.67,160.274,346.375z M144.88,282.997
		c3.474,27.083,7.343,58.732,7.313,64.472c-0.023,6.61-6.407,16.708-11.072,22.634c2.149-4.996,4.711-12.456,4.746-22.379
		c0.023-3.752,0.104-6.273,0.18-8.783C146.309,331.213,146.559,323.836,144.88,282.997z M222.864,369.497
		c-4.578-3.252-10.236-9.875-11.293-22.842c-1.012-12.514,6.738-34.693,14.279-56.141c1.533-4.404,3.056-8.738,4.496-12.967
		c-6.192,27.513-13.687,61.486-14.059,66.272c-0.604,15.825,11.34,25.479,18.625,29.86
		C230.707,373.495,226.42,372.03,222.864,369.497z M219.797,344.018c0.29-3.73,5.449-27.572,10.735-51.204
		c-3.16,23.598-6.157,47.195-6.181,52.272c-0.035,6.785,6.379,18.404,11.897,25.316
		C229.626,366.336,219.274,357.762,219.797,344.018z M227.884,345.098c0.023-5.764,4.159-37.365,7.842-64.402
		c-1.998,40.816-1.823,48.205-1.638,55.92c0.069,2.51,0.128,5.043,0.104,8.808c-0.035,9.911,2.451,17.394,4.578,22.39
		C234.157,361.852,227.86,351.721,227.884,345.098z M241.048,363.944c-1.708-4.59-3.358-10.736-3.312-18.521
		c0.012-3.8-0.059-6.367-0.104-8.888c-0.232-9.47-0.453-18.439,3.428-90.336c0.278-1.197,0.487-2.114,0.639-2.754h0.453
		c0.116,0.465,0.221,0.965,0.349,1.546c3.288,71.919,2.985,80.89,2.695,90.347c-0.093,2.557-0.175,5.112-0.186,8.924
		C244.963,352.719,242.953,359.285,241.048,363.944z M257.349,289.421c7.343,21.518,14.93,43.768,13.814,56.258
		c-1.162,12.966-6.89,19.519-11.479,22.749c-3.578,2.51-7.889,3.928-12.095,4.09c7.297-4.322,19.334-13.896,18.857-29.79
		c-0.326-4.729-7.553-38.761-13.501-66.296C254.351,280.637,255.838,285.006,257.349,289.421z M262.926,342.891
		c0.418,13.803-10.039,22.33-16.696,26.351c1.963-2.44,3.66-4.95,4.24-5.833c2.951-4.449,7.878-12.908,7.901-19.402
		c0.023-5.09-2.766-28.699-5.739-52.331C257.697,315.342,262.682,339.196,262.926,342.891z M247.519,279.522
		c3.475,27.072,7.344,58.721,7.32,64.473c-0.023,6.611-6.414,16.695-11.072,22.621c2.149-4.973,4.705-12.455,4.74-22.354
		c0.012-3.766,0.104-6.298,0.186-8.808C248.948,327.74,249.204,320.362,247.519,279.522z"/>
</g>
<g>
</g>
<g>
</g>
<g>
</g>
<g>
</g>
<g>
</g>
<g>
</g>
<g>
</g>
<g>
</g>
<g>
</g>
<g>
</g>
<g>
</g>
<g>
</g>
<g>
</g>
<g>
</g>
<g>
</g>
</svg>
