<?xml version="1.0" encoding="iso-8859-1"?>
<!-- Generator: Adobe Illustrator 16.0.0, SVG Export Plug-In . SVG Version: 6.00 Build 0)  -->
<!DOCTYPE svg PUBLIC "-//W3C//DTD SVG 1.1//EN" "http://www.w3.org/Graphics/SVG/1.1/DTD/svg11.dtd">
<svg version="1.1" id="Capa_1" xmlns="http://www.w3.org/2000/svg" xmlns:xlink="http://www.w3.org/1999/xlink" x="0px" y="0px"
	 width="380.71px" height="380.709px" viewBox="0 0 380.71 380.709" style="enable-background:new 0 0 380.71 380.709;"
	 xml:space="preserve">
<g>
	<g>
		<path d="M212.845,290.061c10.248,0,18.556,8.307,18.556,18.555c0,10.236-8.308,18.543-18.556,18.543
			c-10.247,0-18.543-8.307-18.543-18.543C194.302,298.368,202.598,290.061,212.845,290.061z"/>
		<path d="M283.766,8.296c-5.461,0-19.752,0-35.251,0C245.854,3.602,230.668,0,212.253,0c-18.393,0-33.584,3.602-36.25,8.296
			c-17.8,0-35.408,0-41.607,0c-14.158,0-13.181,15.418-13.181,15.418h8.899c0.157,3.201,0.477,9.585,0.895,18.073h-24.085
			c-12.386,0-16.848,15.703-19.346,29.396c-2.422,13.292-3.816,31.353-3.816,49.553c0,17.689,1.284,34.014,3.631,45.987
			c1.446,7.407,5.292,27.078,19.548,27.078h32.039c2.399,19.194,10.875,38.853,32.347,49.101h-1.022
			c0,0-37.395,36.818-37.395,65.273c0,28.441,0,72.535,0,72.535h77.833h0.268h77.845c0,0,0-44.082,0-72.535
			c0-28.467-37.389-65.273-37.389-65.273h-1.302c23.993-11.457,31.777-34.625,32.974-55.788
			c1.558-27.304,7.367-145.449,8.25-163.399h5.542C296.941,23.714,297.917,8.296,283.766,8.296z M108.794,175.953
			c-3.247-5.153-7.436-25.63-7.174-58.058c0.25-31.946,4.485-52.563,7.686-58.262h22.569c1.795,36.419,4.45,89.528,5.867,116.32
			H108.794z M162.902,207.312c-1.296-2.753-2.19-6.065-2.701-8.47c-0.616-3.346-0.772-5.693-1.208-8.72
			c-0.767-5.769-1.255-11.898-1.94-18.201c-0.714-6.309-1.214-12.851-1.69-19.502c-0.465-6.652-1.133-13.396-1.394-20.153
			c-0.75-13.518-1.377-27.095-1.429-39.753c-0.07-12.658,0.064-24.498,0.464-34.67c0.68-20.321,2.394-33.933,2.394-33.933
			s3.225,13.338,6.152,33.474c1.534,10.062,2.975,21.808,4.293,34.415c1.249,12.635,2.533,25.997,3.416,39.434
			c0.593,6.692,0.772,13.431,1.156,20.042c0.343,6.628,0.674,13.135,0.761,19.456c0.116,6.314,0.389,12.42,0.343,18.224
			c0.012,2.789,0.012,5.507,0.023,8.145c0.146,2.998,0.511,4.856,0.848,6.878c1.877,8.621,7.122,15.14,11.05,19.287
			c4.031,4.16,6.913,6.182,6.913,6.182s-3.485-0.465-9.028-3.276C175.909,223.404,167.887,217.99,162.902,207.312z M212.845,338.313
			c-16.382,0-29.703-13.315-29.703-29.697c0-16.383,13.321-29.721,29.703-29.721c16.383,0,29.721,13.338,29.721,29.721
			C242.565,324.998,229.228,338.313,212.845,338.313z"/>
	</g>
</g>
<g>
</g>
<g>
</g>
<g>
</g>
<g>
</g>
<g>
</g>
<g>
</g>
<g>
</g>
<g>
</g>
<g>
</g>
<g>
</g>
<g>
</g>
<g>
</g>
<g>
</g>
<g>
</g>
<g>
</g>
</svg>
