<?xml version="1.0" encoding="iso-8859-1"?>
<!-- Generator: Adobe Illustrator 16.0.0, SVG Export Plug-In . SVG Version: 6.00 Build 0)  -->
<!DOCTYPE svg PUBLIC "-//W3C//DTD SVG 1.1//EN" "http://www.w3.org/Graphics/SVG/1.1/DTD/svg11.dtd">
<svg version="1.1" id="Capa_1" xmlns="http://www.w3.org/2000/svg" xmlns:xlink="http://www.w3.org/1999/xlink" x="0px" y="0px"
	 width="380.729px" height="380.729px" viewBox="0 0 380.729 380.729" style="enable-background:new 0 0 380.729 380.729;"
	 xml:space="preserve">
<g>
	<path d="M343.155,172.731c11.943-11.921,20.449-25.887,25.572-40.543l8.191,1.783l3.811-17.178l-7.18-4.061
		c2.289-16.109,0.709-32.405-4.938-47.253l-8.818,4.09c-8.272,1.772-8.923-6.164-5.96-9.301
		c3.787-4.002,14.325-12.257,14.325-12.257l5.043-0.227l1.022-17.998l-4.602-14.233l-3.172-3.172l-13.838-4.218l-18.009,1.028
		l-0.209,5.054c0,0-8.261,10.544-12.258,14.314c-2.881,2.725-10.097,2.736-10.003-3.526l4.205-10.562
		c-14.465-5.106-30.208-6.437-45.766-4.142l-4.159-8.731l-20.38,6.199c0,0,3.869,4.328,6.123,7.093
		c-14.859,5.124-29.012,13.681-41.083,25.758c-8.04,8.029-14.454,16.999-19.415,26.456l-5.826-2.76l-7.391,18.3l5.688,2.806
		c-5.605,18.479-5.891,37.825-0.726,55.584c-5.438,4.618-16.632,15.662-22.941,21.942l-4.235-4.212L9.949,305.045l6.854,6.854
		L3.059,325.621c-2.411,2.439-3.427,5.438-2.939,8.69c0.418,2.742,1.882,5.495,4.166,7.784c4.595,4.602,11.874,6.623,16.87,1.627
		L34.9,329.99l3.985,3.484l146.302-146.273l1.499,2.022c2.939-0.657,6.03-1.476,7.569-1.894l-0.849,0.836l-0.227,7.535l0.681,0.697
		L47.57,342.654l2.939,2.928L37.967,358.13c-2.405,2.405-3.427,5.403-2.939,8.69c0.407,2.719,1.894,5.473,4.166,7.738
		c4.606,4.625,11.886,6.67,16.882,1.65l12.53-12.525l8.836,8.459l146.285-146.279l-4.287-3.904
		c6.007-6.041,16.336-16.521,21.274-22.168c17.775,5.611,37.214,5.716,55.885,0.395l1.859,5.438l17.904-7.506l-1.255-5.17
		C325.157,187.87,334.673,181.218,343.155,172.731z M18.418,340.98c-3.201,3.207-8.15,1.604-11.386-1.604
		c-1.702-1.719-2.771-3.706-3.044-5.635c-0.296-2.021,0.308-3.822,1.83-5.355l13.745-13.734l12.601,12.607L18.418,340.98z
		 M53.315,373.479c-3.212,3.195-8.15,1.592-11.386-1.662c-1.691-1.695-2.771-3.672-3.056-5.576c-0.296-2.045,0.308-3.857,1.83-5.392
		l12.542-12.524l12.601,12.605L53.315,373.479z M200.321,105l1.271-1.261l-0.499-3.59c0.058-0.302,0.122-0.622,0.18-0.906
		l2.376-2.382l-0.999-3.416c0.069-0.285,0.163-0.569,0.256-0.866l2.684-2.713l-0.895-2.893c4.229-11.583,11.05-22.639,20.565-32.143
		c19.845-19.833,46.451-28.233,70.606-24.759c1.44,1.737,2.358,3.852,0.488,5.042c-3.114,1.963-43.431,12.717-60.848,37.703
		c-17.416,24.986-25.433,51.104-27.733,53.388c-2.277,2.295-6.442,1.058-6.635-1.371c-0.127-1.749-0.83-10.718-1.226-15.737
		C200.012,107.724,200.152,106.371,200.321,105z M347.302,86.05c1.534-2.417,4.671-0.168,6.495,1.876
		c0.977,6.844,0.987,13.873,0.059,20.908l-1.29,1.284l0.94,1.307c-0.174,1.045-0.383,2.097-0.592,3.131l-1.487,1.057l0.802,2.144
		c-0.209,0.808-0.465,1.627-0.686,2.434l-1.708,0.715c0,0,0.278,1.574,0.558,3.108c-2.092,6.344-4.996,12.537-8.656,18.439
		c-19.043,27.031-45.87,35.408-45.87,35.408l-3.335-1.034l-3.09,3.091l-3.893-1.15l-2.626,2.626l-4.241-0.558l-1.951,1.952
		c0,0-16.685-1.295-19.125-1.499c-2.451-0.192-3.683-4.328-1.383-6.64c2.289-2.283,28.408-10.3,53.389-27.734
		C334.581,129.486,345.316,89.164,347.302,86.05z M349.29,24.79l2.648,5.304l0.023,0.203l0.093,0.046l0.059,0.104l0.186,0.012
		l5.31,2.667l-2.3,4.583l-8.122,1.714l-0.801,3.09l-3.439,3.225l1.951,1.952l-2.556,2.306l-4.438-0.151l-2.986,3.445l-3.078,0.326
		l-1.836,2.294l-3.613-0.842l0.104-2.667l2.289-1.83l0.337-3.096l3.438-2.986l-0.15-4.427l2.312-2.556l1.952,1.952l3.219-3.451
		l3.079-0.784l1.73-8.139L349.29,24.79z M270.793,82.192l3.323,1.725l3.903-3.439l1.824,1.835l3.776-3.096l3.567,2.167l2.974-4.119
		l2.289,2.295l3.091-1.958l2.637,1.499l1.964-1.952l2.51,0.238l2.603-1.301l-0.221,3.677l0.221,2.516l-1.952,1.958l1.487,2.631
		l-1.951,3.091l2.288,2.3l-4.124,2.963l2.172,3.555l-3.078,3.793l1.824,1.824l-3.439,3.886l1.73,3.323l-12.838,12.85l-3.451-0.714
		l-3.09,3.09l-2.51-1.139l-5.403,3.556l-1.37-1.365l-3.66,3.433l-3.219-1.615l-4.461,4.473l-12.316,0.441l-0.023,0.012l0.349-12.461
		l4.462-4.461l-1.604-3.207l3.439-3.666l-1.371-1.371l3.555-5.391l-1.15-2.521l3.091-3.09l-0.686-3.439L270.793,82.192z"/>
</g>
<g>
</g>
<g>
</g>
<g>
</g>
<g>
</g>
<g>
</g>
<g>
</g>
<g>
</g>
<g>
</g>
<g>
</g>
<g>
</g>
<g>
</g>
<g>
</g>
<g>
</g>
<g>
</g>
<g>
</g>
</svg>
