<?xml version="1.0" encoding="iso-8859-1"?>
<!-- Generator: Adobe Illustrator 16.0.0, SVG Export Plug-In . SVG Version: 6.00 Build 0)  -->
<!DOCTYPE svg PUBLIC "-//W3C//DTD SVG 1.1//EN" "http://www.w3.org/Graphics/SVG/1.1/DTD/svg11.dtd">
<svg version="1.1" id="Capa_1" xmlns="http://www.w3.org/2000/svg" xmlns:xlink="http://www.w3.org/1999/xlink" x="0px" y="0px"
	 width="345.029px" height="345.029px" viewBox="0 0 345.029 345.029" style="enable-background:new 0 0 345.029 345.029;"
	 xml:space="preserve">
<g>
	<path d="M279.987,0.785c-9.748,0-18.357,4.938-23.423,12.443h-24.214C225.229,5.188,214.945,0,203.327,0h-61.248
		c-11.601,0-21.896,5.188-29.029,13.228H88.872C83.875,5.304,75.109,0,65.042,0c-15.61,0-28.256,12.647-28.256,28.257v20.547
		c0,15.61,12.646,28.257,28.256,28.257c9.365,0,17.62-4.63,22.761-11.659h25.898c7.105,7.616,17.131,12.443,28.378,12.443h16.824
		v104.01h-13.449v15.011h13.438v14.617h-15.412v15.022h13.448v14.628h-13.448v15.012h13.448v14.615h-15.424v15.012h13.449v14.628
		h-11.474v15.012h13.448v14.628h-15.424v14.988h26.88v-15.012h15.424v-15.012h-13.448v-14.627h11.473v-15.023h-13.448v-14.616
		h15.424v-15.012h-13.448v-14.616h13.448v-15.023h-13.448V211.46h15.424v-15.012h-13.449v-10.271h7.918V77.833h23.075
		c11.224,0,21.285-4.833,28.384-12.443h24.854c5.088,7.517,13.675,12.443,23.423,12.443c15.604,0,28.257-12.647,28.257-28.256
		V29.041C308.221,13.443,295.579,0.785,279.987,0.785z"/>
</g>
<g>
</g>
<g>
</g>
<g>
</g>
<g>
</g>
<g>
</g>
<g>
</g>
<g>
</g>
<g>
</g>
<g>
</g>
<g>
</g>
<g>
</g>
<g>
</g>
<g>
</g>
<g>
</g>
<g>
</g>
</svg>
