<?xml version="1.0" encoding="iso-8859-1"?>
<!-- Generator: Adobe Illustrator 16.0.0, SVG Export Plug-In . SVG Version: 6.00 Build 0)  -->
<!DOCTYPE svg PUBLIC "-//W3C//DTD SVG 1.1//EN" "http://www.w3.org/Graphics/SVG/1.1/DTD/svg11.dtd">
<svg version="1.1" id="Capa_1" xmlns="http://www.w3.org/2000/svg" xmlns:xlink="http://www.w3.org/1999/xlink" x="0px" y="0px"
	 width="380.721px" height="380.721px" viewBox="0 0 380.721 380.721" style="enable-background:new 0 0 380.721 380.721;"
	 xml:space="preserve">
<g>
	<g>
		<path d="M361.155,86.855H16.777c-8.819,0-15.97,7.151-15.97,15.958v241.604c0,8.796,7.151,15.965,15.97,15.965h344.377
			c8.807,0,15.941-7.169,15.941-15.965V102.814C377.096,93.995,369.985,86.855,361.155,86.855z M358.459,265.226
			c0,7.924-6.425,14.349-14.338,14.349H34.624c-7.924,0-14.337-6.425-14.337-14.349V123.907c0-7.924,6.414-14.349,14.337-14.349
			h309.498c7.913,0,14.338,6.425,14.338,14.349V265.226z"/>
		<path d="M365.012,20.338H15.726C7.052,20.338,0,27.379,0,36.07v26.932c0,8.673,7.052,15.731,15.726,15.731h349.263
			c8.691,0,15.732-7.058,15.732-15.731V36.07C380.721,27.379,373.68,20.338,365.012,20.338z M63.095,66.203
			c-8.412,0-15.232-6.814-15.232-15.226s6.82-15.232,15.232-15.232c8.406,0,15.215,6.82,15.215,15.232S71.501,66.203,63.095,66.203z
			 M114.99,66.203c-8.412,0-15.231-6.814-15.231-15.226s6.82-15.232,15.231-15.232c8.412,0,15.227,6.82,15.227,15.232
			S123.402,66.203,114.99,66.203z M195.821,66.203c-8.412,0-15.226-6.814-15.226-15.226s6.813-15.232,15.226-15.232
			s15.221,6.82,15.221,15.232S204.233,66.203,195.821,66.203z M279.336,66.203c-8.412,0-15.221-6.814-15.221-15.226
			s6.809-15.232,15.221-15.232s15.232,6.82,15.232,15.232S287.772,66.203,279.336,66.203z M331.249,66.203
			c-8.412,0-15.221-6.814-15.221-15.226s6.809-15.232,15.221-15.232s15.232,6.82,15.232,15.232S339.661,66.203,331.249,66.203z"/>
		<path d="M330.482,126.585H50.698c-5.606,0-10.149,4.531-10.149,10.137c0,5.601,4.543,10.143,10.149,10.143h279.784
			c5.611,0,10.143-4.542,10.143-10.143C340.625,131.117,336.082,126.585,330.482,126.585z"/>
	</g>
</g>
<g>
</g>
<g>
</g>
<g>
</g>
<g>
</g>
<g>
</g>
<g>
</g>
<g>
</g>
<g>
</g>
<g>
</g>
<g>
</g>
<g>
</g>
<g>
</g>
<g>
</g>
<g>
</g>
<g>
</g>
</svg>
