<?xml version="1.0" encoding="iso-8859-1"?>
<!-- Generator: Adobe Illustrator 16.0.0, SVG Export Plug-In . SVG Version: 6.00 Build 0)  -->
<!DOCTYPE svg PUBLIC "-//W3C//DTD SVG 1.1//EN" "http://www.w3.org/Graphics/SVG/1.1/DTD/svg11.dtd">
<svg version="1.1" id="Capa_1" xmlns="http://www.w3.org/2000/svg" xmlns:xlink="http://www.w3.org/1999/xlink" x="0px" y="0px"
	 width="380.722px" height="380.721px" viewBox="0 0 380.722 380.721" style="enable-background:new 0 0 380.722 380.721;"
	 xml:space="preserve">
<g>
	<path d="M352.837,95.61c-14.64-9.696-15.546-11.636-15.546-11.636s-24.69,14.773-30.685,34.374
		c-5.984,19.589-3.428,44.883-10.271,63.159c-6.855,18.277-17.149,23.4-17.149,23.4l-0.012,0.023
		c-12.839-12.014-32.637-15.186-33.484-45.098c-1.139-40.526,16.567-29.686,13.141-60.51c-3.428-30.83-28.536-37.667-28.536-37.667
		s3.451-44.204-28.059-47.666c0.081-0.627,0.14-1.249,0.14-1.899C202.34,5.415,198.854,0,194.544,0s-7.797,5.415-7.797,12.089
		c0,0.714,0.059,1.388,0.146,2.068c-30.342,4.357-26.984,47.498-26.984,47.498s-10.84,3.009-19.252,13.797
		C120.893,47.817,77.34-6.03,46.76,8.685c-8.325,4.02-18.369,13.954-18.857,38.522c-0.714,35.303,19.444,89.092,45.522,102.976
		c15.465,8.22,23.987,45.999,27.031,76.485c-4.061,31.289,14.087,81.145,59.441,84.991c0,6.274,0,19.972,0,19.972
		s-37.656,15.988-32.532,49.09c30.493,0,55.363,0,67.517,0c0.128,0,0.278,0,0.406,0c12.153,0,37.018,0,67.517,0
		c5.135-33.102-32.532-49.09-32.532-49.09s0-13.697,0-19.972c5.611-0.477,10.794-1.673,15.58-3.439l-0.012,0.035
		c0,0,0.081-0.047,0.116-0.081c9.4-3.463,17.219-9.18,23.54-16.209c19.415-14.697,44.836-37.47,51.946-60.219
		c11.991-38.249,1.72-57.374,4.009-85.252C327.729,118.633,341.427,104.173,352.837,95.61z M82,134.074
		c-17.37-9.254-36.465-55.322-35.832-86.483c0.139-6.913,1.429-19.026,8.516-22.436c15.191-7.366,53.911,35.048,77.357,69.945
		c-0.25,1.365-0.511,2.736-0.674,4.211c-3.428,30.825,14.262,19.984,13.129,60.51c-0.749,26.647-16.568,32.062-29.087,41.426
		C110.686,174.809,101.182,144.269,82,134.074z M170.899,177.226c-2.132,8.662-7.128,16.69-12.989,23.023
		c-5.856,6.401-12.316,11.514-17.992,16.533c-5.71,5.02-10.184,10.352-12.74,16.336c-2.667,6.064-2.882,12.57-2.121,19.229
		c0.622,5.938,2.975,11.955,5.925,16.719c5.757,9.935,13.739,16.336,19.369,20.311c5.676,4.078,9.341,5.809,9.341,5.809
		s-3.927-1.022-10.341-4.159c-6.233-3.276-15.325-8.621-23.214-18.706c-3.863-5.124-7.146-11.247-8.755-18.974
		c-1.464-6.854-1.929-15.418,0.819-23.551c2.585-8.272,8.4-15.209,14.187-20.96c5.804-5.833,11.956-10.782,16.835-16.371
		c9.98-10.788,13.797-25.317,11.207-38.69c-2.417-13.583-9.307-25.84-13.85-37.354c-1.156-2.882-2.167-5.751-2.817-8.749
		c-0.407-1.354-0.599-3.184-0.756-4.793c-0.093-1.713,0.018-2.294,0.181-4.247c1.179-5.199,3.05-9.422,5.118-12.531
		c2.034-3.114,4.032-5.211,5.629-6.361c1.51-1.226,2.434-1.667,2.434-1.667s-2.887,3.108-5.101,9.493
		c-1.179,3.166-1.575,7.244-1.737,11.746c0.081,0.459,0.058,2.463,0.319,3.283c0.319,0.953,0.441,1.795,0.976,3.044
		c0.773,2.3,2.08,4.746,3.37,7.354c5.269,10.364,13.547,22.471,17.26,38.609C173.259,159.676,173.194,168.657,170.899,177.226z"/>
</g>
<g>
</g>
<g>
</g>
<g>
</g>
<g>
</g>
<g>
</g>
<g>
</g>
<g>
</g>
<g>
</g>
<g>
</g>
<g>
</g>
<g>
</g>
<g>
</g>
<g>
</g>
<g>
</g>
<g>
</g>
</svg>
