<?xml version="1.0" encoding="iso-8859-1"?>
<!-- Generator: Adobe Illustrator 16.0.0, SVG Export Plug-In . SVG Version: 6.00 Build 0)  -->
<!DOCTYPE svg PUBLIC "-//W3C//DTD SVG 1.1//EN" "http://www.w3.org/Graphics/SVG/1.1/DTD/svg11.dtd">
<svg version="1.1" id="Capa_1" xmlns="http://www.w3.org/2000/svg" xmlns:xlink="http://www.w3.org/1999/xlink" x="0px" y="0px"
	 width="373.674px" height="373.675px" viewBox="0 0 373.674 373.675" style="enable-background:new 0 0 373.674 373.675;"
	 xml:space="preserve">
<g>
	<polygon points="111.986,201.07 132.219,323.915 132.771,328.794 238.309,328.747 238.496,322.95 260.699,201.07 	"/>
	<path d="M266.741,358.538H101.964v-25.887c-3.387-17.916-41.281-218.634-45.162-246.676c-0.831-6.071-5.46-7.628-23.545-7.936
		c-12.589-0.215-28.268-0.5-32.503-14.495C-0.925,57.98,0.22,51.997,3.979,46.699c12.6-17.771,57.692-30.36,84.473-31.551
		l227.354-0.012l2.951,2.405c10.597,8.598,49.449,46.446,54.004,70.194c2.997,15.679-1.871,78.71-7.587,144.496l-1.081,12.605
		c-1.394,16.848-13.001,24.4-23.876,24.4l0,0c-7.9,0-15.79-3.625-21.111-9.667c-4.811-5.473-6.948-12.304-6.053-19.218
		c1.998-15.336,2.729-109.738,2.486-122.705c-0.023-1.499-0.813-3.416-2.045-5.484l-46.766,218.86v27.514H266.741z M123.383,337.113
		h121.944l0.243-9.481l54.957-257.312l13.559,10.869c3.753,3.027,22.541,18.956,22.877,36.018
		c0.244,12.647-0.418,108.599-2.66,125.888c-0.035,0.303-0.162,1.127,0.895,2.324c1.22,1.395,3.335,2.393,5.02,2.393
		c0.697,0,2.138,0,2.533-4.752l1.092-12.688c2.648-30.592,10.747-123.675,7.889-138.593c-2.451-12.751-28.57-42.007-43.64-55.218
		H88.94C64,37.683,33.815,48.627,24.143,56.243c2.928,0.262,6.652,0.331,9.499,0.378c15.261,0.273,40.828,0.726,44.389,26.426
		c3.887,28.199,44.755,244.446,45.174,246.629l0.191,1.976v5.461H123.383z"/>
	<rect x="156.148" y="91.303" width="58.494" height="15.645"/>
	<rect x="156.148" y="149.303" width="58.494" height="15.645"/>
	<rect x="156.148" y="217.348" width="58.494" height="14.151"/>
	<rect x="156.148" y="274.407" width="58.494" height="14.14"/>
</g>
<g>
</g>
<g>
</g>
<g>
</g>
<g>
</g>
<g>
</g>
<g>
</g>
<g>
</g>
<g>
</g>
<g>
</g>
<g>
</g>
<g>
</g>
<g>
</g>
<g>
</g>
<g>
</g>
<g>
</g>
</svg>
