<?xml version="1.0" encoding="iso-8859-1"?>
<!-- Generator: Adobe Illustrator 16.0.0, SVG Export Plug-In . SVG Version: 6.00 Build 0)  -->
<!DOCTYPE svg PUBLIC "-//W3C//DTD SVG 1.1//EN" "http://www.w3.org/Graphics/SVG/1.1/DTD/svg11.dtd">
<svg version="1.1" id="Capa_1" xmlns="http://www.w3.org/2000/svg" xmlns:xlink="http://www.w3.org/1999/xlink" x="0px" y="0px"
	 width="380.718px" height="380.718px" viewBox="0 0 380.718 380.718" style="enable-background:new 0 0 380.718 380.718;"
	 xml:space="preserve">
<g>
	<path d="M380.718,104.253c-9.248-6.937-18.612-9.98-27.698-10.091c-31.986-0.343-60.371,35.803-67.296,67.15
		c-8.888,40.235-16.649,77.427-28.86,76.207c-12.211-1.231-27.083-29.976-27.083-68.353c0-38.382,34.751-48.27,34.751-76.312
		c0-24.341-26.653-38.463-70.234-43.5c4.142-4.827,6.663-11.107,6.663-17.985C200.948,16.079,188.552,3.67,173.249,3.67
		c-15.29,0-27.698,12.409-27.698,27.699c0,6.198,2.085,11.92,5.536,16.545c-36.872,2.394-65.036,14.924-75.243,28.105
		c-9.841-8.505-21.878-16.208-34.513-17.951c-10.387-1.441-20.251,1.295-28.472,7.97C-27.202,98.508,39.071,234.371,39.769,235.73
		c2.765,5.368,5.048,18.602,6.512,30.685c-0.145,1.871-0.227,3.765-0.156,5.74c1.568,44.418,28.349,59.418,41.938,63.089
		c-15.157,37.087,39.189,41.804,80.488,41.804c41.281,0,97.201-3.137,80.994-43.384c53.829-2.091,66.505-48.589,71.733-68.968
		C326.494,244.316,297.737,132.138,380.718,104.253z M60.891,232.442c-0.761-2.336-1.621-4.462-2.539-6.251
		C40.448,191.318,6.934,97.735,26.029,82.265c3.747-3.044,7.709-4.166,12.409-3.497c16.69,2.283,36.262,24.736,43.343,34.42
		c7.936,14.669,17.573,32.8,17.266,55.979C98.698,195.623,76.448,212.226,60.891,232.442z M133.676,197.517
		c-0.686,4.856-2.033,9.354-3.829,13.641c-3.631,8.586-9.091,15.674-14.494,22.052c-5.396,6.425-11.218,11.956-16.487,17.276
		c-5.211,5.334-10.114,10.445-13.338,15.43c-1.58,2.51-2.614,4.95-2.975,7.216c-0.227,0.976-0.191,2.464-0.261,4.183
		c-0.082,1.65,0.116,2.719,0.133,4.113c1.022,11.107,5.281,20.473,8.406,26.676c3.225,6.274,5.618,9.668,5.618,9.668
		s-3.404-2.383-8.29-7.82c-4.746-5.449-11.543-13.931-14.884-27.014c-0.337-1.649-0.848-3.625-1.011-5.146
		c-0.157-1.464-0.587-3.219-0.418-5.52c0.151-4.299,1.476-8.389,3.224-12.014c3.521-7.319,8.552-13.291,13.635-19.182
		c9.969-11.746,21.448-23.018,27.031-36.029c1.429-3.16,2.475-6.507,3.009-9.667c0.25-1.244,0.396-3.167,0.465-5.287l-0.058-5.415
		c-0.122-7.651-0.691-15.272-1.621-22.616c-1.737-14.727-4.52-28.437-7.697-39.904c-3.236-11.468-6.995-20.716-10.776-26.531
		c-3.643-5.949-7.32-8.139-7.32-8.139s0.977,0.296,2.713,1.191c1.784,0.877,4.247,2.463,6.901,5.054
		c5.391,5.129,11.41,14.006,16.574,25.451c5.234,11.421,9.743,25.387,12.839,40.77c1.446,7.715,2.672,15.778,3.213,24.132
		l0.197,6.651C134.118,192.637,134.071,194.751,133.676,197.517z"/>
</g>
<g>
</g>
<g>
</g>
<g>
</g>
<g>
</g>
<g>
</g>
<g>
</g>
<g>
</g>
<g>
</g>
<g>
</g>
<g>
</g>
<g>
</g>
<g>
</g>
<g>
</g>
<g>
</g>
<g>
</g>
</svg>
