<?xml version="1.0" encoding="iso-8859-1"?>
<!-- Generator: Adobe Illustrator 16.0.0, SVG Export Plug-In . SVG Version: 6.00 Build 0)  -->
<!DOCTYPE svg PUBLIC "-//W3C//DTD SVG 1.1//EN" "http://www.w3.org/Graphics/SVG/1.1/DTD/svg11.dtd">
<svg version="1.1" id="Capa_1" xmlns="http://www.w3.org/2000/svg" xmlns:xlink="http://www.w3.org/1999/xlink" x="0px" y="0px"
	 width="380.722px" height="380.721px" viewBox="0 0 380.722 380.721" style="enable-background:new 0 0 380.722 380.721;"
	 xml:space="preserve">
<g>
	<g>
		<rect x="102.914" y="151.885" width="24.986" height="8.697"/>
		<rect x="102.914" y="173.955" width="24.986" height="8.696"/>
		<path d="M174.856,267.161l8.999-75.812H95.989v75.812H174.856z M127.888,211.205h-24.985v-8.69h24.985V211.205z M127.888,233.256
			h-24.985v-8.679h24.985V233.256z"/>
		<path d="M76.382,201.77v82.783h116.1L206.1,168.396c25.34-14.558,23.551-40.666,23.457-41.804l-0.499-6.164H77.498
			c-6.768-3.108-15.796-5.652-24.057-2.736c-5.199,1.83-12.049,6.542-15.145,18.584C30.686,165.706,66.46,194.473,76.382,201.77z
			 M89.755,133.824h125.987c-1.208,6.803-5.286,17.666-18.822,24.318l-3.276,1.603L180.578,271.18H89.755V133.824z M53.836,140.295
			c1.069-4.177,2.724-6.675,4.926-7.447c4.711-1.667,12.908,2.236,17.62,5.234v42.844C64.52,170.098,50.42,153.489,53.836,140.295z"
			/>
	</g>
	<path d="M55.928,0v70.136h199.377v235.435H55.928v75.15h287.551V333.63v-28.06V70.136V25.044V0H55.928z M279.169,348.142h-9.888
		V34.548h9.888V348.142z M305.09,348.142h-9.887V34.548h9.887V348.142z M328.002,348.142h-9.887V34.548h9.887V348.142z"/>
</g>
<g>
</g>
<g>
</g>
<g>
</g>
<g>
</g>
<g>
</g>
<g>
</g>
<g>
</g>
<g>
</g>
<g>
</g>
<g>
</g>
<g>
</g>
<g>
</g>
<g>
</g>
<g>
</g>
<g>
</g>
</svg>
