<?xml version="1.0" encoding="iso-8859-1"?>
<!-- Generator: Adobe Illustrator 16.0.0, SVG Export Plug-In . SVG Version: 6.00 Build 0)  -->
<!DOCTYPE svg PUBLIC "-//W3C//DTD SVG 1.1//EN" "http://www.w3.org/Graphics/SVG/1.1/DTD/svg11.dtd">
<svg version="1.1" id="Capa_1" xmlns="http://www.w3.org/2000/svg" xmlns:xlink="http://www.w3.org/1999/xlink" x="0px" y="0px"
	 width="380.723px" height="380.723px" viewBox="0 0 380.723 380.723" style="enable-background:new 0 0 380.723 380.723;"
	 xml:space="preserve">
<g>
	<g>
		<rect x="201.309" y="94.159" width="49.42" height="17.213"/>
		<rect x="201.309" y="137.845" width="49.42" height="17.219"/>
		<path d="M264.427,322.321V172.277H90.542l17.8,150.044H264.427z M201.309,194.34h49.42v17.207h-49.42V194.34z M201.309,238.039
			h49.42v17.195h-49.42V238.039z"/>
		<path d="M378.651,63.282c-6.146-23.83-19.705-33.142-29.977-36.761c-16.359-5.757-34.229-0.726-47.648,5.426H1.107L0.12,44.117
			c-0.186,2.26-3.747,53.922,46.405,82.736l26.932,229.881h229.777V192.9C322.87,178.44,393.662,121.515,378.651,63.282z
			 M276.766,330.268H97.026l-25.84-220.546l-6.483-3.178C37.898,93.409,29.806,71.897,27.43,58.431h249.336V330.268z
			 M303.234,151.636v-84.77c9.329-5.937,25.538-13.646,34.891-10.375c4.346,1.545,7.634,6.506,9.748,14.744
			C354.624,97.348,326.715,130.234,303.234,151.636z"/>
	</g>
</g>
<g>
</g>
<g>
</g>
<g>
</g>
<g>
</g>
<g>
</g>
<g>
</g>
<g>
</g>
<g>
</g>
<g>
</g>
<g>
</g>
<g>
</g>
<g>
</g>
<g>
</g>
<g>
</g>
<g>
</g>
</svg>
