<?xml version="1.0" encoding="iso-8859-1"?>
<!-- Generator: Adobe Illustrator 16.0.0, SVG Export Plug-In . SVG Version: 6.00 Build 0)  -->
<!DOCTYPE svg PUBLIC "-//W3C//DTD SVG 1.1//EN" "http://www.w3.org/Graphics/SVG/1.1/DTD/svg11.dtd">
<svg version="1.1" id="Capa_1" xmlns="http://www.w3.org/2000/svg" xmlns:xlink="http://www.w3.org/1999/xlink" x="0px" y="0px"
	 width="380.723px" height="380.723px" viewBox="0 0 380.723 380.723" style="enable-background:new 0 0 380.723 380.723;"
	 xml:space="preserve">
<g>
	<path d="M221.58,320.225c4.531-25.213-15.824-64.752-25.887-82.296c0.559-5.414-0.255-10.747-3.805-14.313
		c-3.95-3.939-10.526-10.539-17.678-17.695l84.886-84.898l4.509,4.497l5.751-5.734c0,0,7.831-20.878,35.925-36.819
		c4.647-4.665,63.693-63.7,63.693-63.7l-0.047-0.023c0.059-0.064,0.117-0.087,0.175-0.146c4.356-4.351,4.356-11.456,0.012-15.824
		c-4.392-4.363-11.468-4.363-15.848,0c-0.059,0.046-0.093,0.11-0.14,0.168l-0.012-0.012c0,0-58.151,58.151-63.543,63.542
		c-22.063,31.219-37.539,35.518-37.539,35.518l-5.729,5.734l4.88,4.897l-84.886,84.897c-7.233-7.238-14.326-14.332-19.218-19.223
		c-11.624-11.625-29.11-2.748-33.856,1.987c-4.746,4.747-33.195,33.188,3.648,70.056c29.761,29.755,55.671,18.299,66.4,10.933
		c6.344,17.997-3.828,44.464-10.469,58.604L3.73,320.863v19.379c0,0,56.455-1.104,68.98-1.104c12.531,0,31.411,41.584,43.466,41.584
		c12.048,0,129.223,0,145.291,0s37.563-41.584,52.215-41.584c14.662,0,63.311,0,63.311,0v-19.367L221.58,320.225z M356.102,8.105
		c2.451-2.451,6.425-2.463,8.877,0c2.463,2.452,2.463,6.425,0,8.871c-2.452,2.463-12.781,8.818-15.244,6.367
		C347.283,20.892,353.639,10.557,356.102,8.105z M148.145,221.906c-14.326-14.325-32.934-32.474-23.586-40.049
		c12.461-9.138,23.51,4.874,42.605,23.981c12.589,12.606,19.397,17.394,21.832,23.145c-5.124,0-22.971,0.453-25.556,7.18
		C158.078,231.713,152.71,226.473,148.145,221.906z"/>
</g>
<g>
</g>
<g>
</g>
<g>
</g>
<g>
</g>
<g>
</g>
<g>
</g>
<g>
</g>
<g>
</g>
<g>
</g>
<g>
</g>
<g>
</g>
<g>
</g>
<g>
</g>
<g>
</g>
<g>
</g>
</svg>
