<?xml version="1.0" encoding="iso-8859-1"?>
<!-- Generator: Adobe Illustrator 16.0.0, SVG Export Plug-In . SVG Version: 6.00 Build 0)  -->
<!DOCTYPE svg PUBLIC "-//W3C//DTD SVG 1.1//EN" "http://www.w3.org/Graphics/SVG/1.1/DTD/svg11.dtd">
<svg version="1.1" id="Capa_1" xmlns="http://www.w3.org/2000/svg" xmlns:xlink="http://www.w3.org/1999/xlink" x="0px" y="0px"
	 width="377.607px" height="377.606px" viewBox="0 0 377.607 377.606" style="enable-background:new 0 0 377.607 377.606;"
	 xml:space="preserve">
<g>
	<g>
		<path d="M163.614,95.894c-66.313,0-120.259,53.928-120.259,120.248S97.3,336.396,163.614,336.396
			c66.309,0,120.254-53.935,120.254-120.254S229.922,95.894,163.614,95.894z M163.614,325.729
			c-60.428,0-109.599-49.171-109.599-109.588s49.17-109.587,109.599-109.587c60.418,0,109.588,49.17,109.588,109.587
			S224.032,325.729,163.614,325.729z"/>
		<path d="M162.354,140.126c-42.734,0-77.503,34.763-77.503,77.502c0,42.733,34.769,77.485,77.503,77.485
			c42.716,0,77.49-34.752,77.49-77.485C239.844,174.89,205.07,140.126,162.354,140.126z M162.354,284.437
			c-36.849,0-66.831-29.977-66.831-66.808c0-36.86,29.994-66.831,66.831-66.831c36.837,0,66.812,29.982,66.812,66.831
			C229.167,254.472,199.191,284.437,162.354,284.437z"/>
		<path d="M43.355,182.732l-3.904-46.725l-4.973-0.011v52.063l-4.961-0.012v-52.051l-5.379,0.011v52.377h-4.95v-52.377h-5.71v52.377
			H8.517v-52.377H3.974l-3.829,44.308c0,0-0.145,1.679-0.145,2.294c0,6.832,3.178,12.949,8.127,16.917
			c16.324,18.428,5.188,37.227,5.188,41.688c0.012,4.949,0.012,81.052,0.012,81.052l0,0c0,0.059-0.023,0.104-0.023,0.186
			c0,4.659,3.782,8.436,8.447,8.436c4.665,0,8.446-3.787,8.446-8.436c0-0.081-0.023-0.127-0.023-0.174h0.011
			c0,0,0.012-75.139,0.012-80.889c-0.012-5.194-9.434-26.805,6.303-42.885c0.012-0.023,0.046-0.07,0.076-0.093
			c3.84-3.637,6.373-8.662,6.756-14.285C43.367,183.731,43.355,182.732,43.355,182.732z"/>
		<path d="M163.614,165.577c-27.884,0-50.564,22.674-50.564,50.564c0,27.885,22.68,50.564,50.564,50.564
			c27.885,0,50.564-22.68,50.564-50.564C214.178,188.251,191.499,165.577,163.614,165.577z M163.614,257.782
			c-22.964,0-41.641-18.682-41.641-41.641c0-22.964,18.677-41.642,41.641-41.642c22.965,0,41.642,18.677,41.642,41.642
			C205.255,239.101,186.579,257.782,163.614,257.782z"/>
		<path d="M312.903,132.226l-3.997-0.035c0,0-21.204,12.67-21.181,106.654c17.23,4.74,9.969,23.586,8.668,25.99
			c0,4.787,0.371,53.935,0.371,53.935l0.047-0.023c-0.023,0.058-0.047,0.104-0.023,0.163c-0.023,4.52,3.648,8.168,8.133,8.145
			c4.485,0.023,8.156-3.66,8.133-8.156c0.023-0.035,0.023-0.094,0-0.128l0.023-0.035c0,0,0-55.351-0.023-60.858
			C313.053,252.856,312.903,132.226,312.903,132.226z"/>
		<path d="M377.607,168.406c0-18.712-10.132-35.908-28.07-36.204v-0.012c-0.081,0-0.372,0-0.453,0c0,0,0,0.012,0,0.023
			C331.121,132.499,321,149.694,321,168.406c0,18.834,11.34,32.282,21.216,35.257c5.38,7.599,1.824,25.515-1.975,35.855
			c0,4.949,0,80.715,0,80.715l0,0c0,0.047,0,0.104,0,0.15c0,4.648,3.741,8.424,8.377,8.424c0.255,0,1.15-0.023,1.371,0
			c4.636-0.023,8.411-3.775,8.411-8.424c0-0.046-0.022-0.104-0.022-0.15h0.022c0,0,0-75.766,0-80.715
			c-3.834-10.341-7.389-28.257-1.998-35.844C366.291,200.688,377.607,187.24,377.607,168.406z M340.16,196.367
			c-1.115-0.86-2.532-2.237-4.043-4.067c-1.511-1.835-3.091-4.072-4.577-6.663c-0.732-1.295-1.418-2.69-2.057-4.166
			c-0.604-1.533-1.093-3.009-1.43-4.758c-0.615-3.357-0.522-6.582-0.174-9.533c0.325-2.963,0.976-5.665,1.673-7.901
			c0.686-2.248,1.476-4.078,2.114-5.315c0.65-1.261,1.162-1.859,1.162-1.859s-0.128,0.813-0.174,2.144
			c-0.047,1.33-0.105,3.236-0.198,5.53c-0.046,4.485-0.406,10.625,0.419,16.051c0.174,1.272,0.604,2.725,1.045,4.008
			c0.419,1.359,0.906,2.702,1.441,3.974c1.022,2.597,2.091,4.973,3.044,7.047c0.952,2.033,1.789,3.747,2.439,4.903
			c0.64,1.185,1.22,1.685,1.255,1.638C342.112,197.458,341.264,197.25,340.16,196.367z"/>
		<path d="M96.487,71.785c0.046,0,0.087-0.012,0.133-0.023l-0.011,0.023c0,0,50.506,0,54.538,0
			c8.458-3.137,23.104-6.042,29.302-1.626c2.451,8.063,13.432,17.335,28.838,17.335c15.278,0,25.525-8.272,25.758-22.964h0.012
			c0-0.058,0-0.296,0-0.366h-0.012c-0.255-14.674-10.479-22.953-25.758-22.953c-15.395,0-26.387,9.266-28.838,17.358
			c-6.198,4.404-20.844,1.487-29.302-1.644c-4.032,0-54.538,0-54.538,0l0.011,0.018c-0.046,0-0.099-0.018-0.145,0
			c-3.782-0.018-6.85,3.067-6.85,6.849c0,0.204,0,0.93-0.012,1.122C89.626,68.707,92.694,71.785,96.487,71.785z M189.216,60.364
			c0.261-1.284,0.737-2.353,1.052-3.009c0.395-0.784,0.662-1.295,0.662-1.295c0.15-0.238,0.43-0.337,0.708-0.215
			c0.279,0.146,0.442,0.384,0.396,0.633c-0.023,0.023-0.186,0.674-0.303,1.342c-0.162,0.656-0.186,1.557-0.255,2.759
			c-0.047,1.057,0.022,2.37,0.162,3.881c0.047,0.662,0.14,1.365,0.279,2.08c0.116,0.622,0.302,1.371,0.546,1.929
			c1.174,2.556,3.056,4.973,4.438,6.721c0.267,0.32,0.546,0.68,0.79,1c0.337,0.418,0.662,0.796,0.941,1.075
			c0.395,0.436,0.697,0.65,0.697,0.662c0.232,0.134,0.302,0.407,0.232,0.622c-0.07,0.215-0.314,0.319-0.582,0.296
			c-0.046-0.012-0.395-0.07-0.906-0.296c-0.115-0.052-0.243-0.122-0.371-0.203l-0.209-0.134c-0.64-0.354-1.487-0.854-2.348-1.592
			c-2.672-2.237-4.531-4.52-5.658-6.995c-0.319-0.871-0.534-1.655-0.674-2.55c-0.087-0.796-0.133-1.603-0.133-2.44
			C188.705,62.984,188.978,61.485,189.216,60.364z"/>
	</g>
</g>
<g>
</g>
<g>
</g>
<g>
</g>
<g>
</g>
<g>
</g>
<g>
</g>
<g>
</g>
<g>
</g>
<g>
</g>
<g>
</g>
<g>
</g>
<g>
</g>
<g>
</g>
<g>
</g>
<g>
</g>
</svg>
