<?xml version="1.0" encoding="iso-8859-1"?>
<!-- Generator: Adobe Illustrator 16.0.0, SVG Export Plug-In . SVG Version: 6.00 Build 0)  -->
<!DOCTYPE svg PUBLIC "-//W3C//DTD SVG 1.1//EN" "http://www.w3.org/Graphics/SVG/1.1/DTD/svg11.dtd">
<svg version="1.1" id="Capa_1" xmlns="http://www.w3.org/2000/svg" xmlns:xlink="http://www.w3.org/1999/xlink" x="0px" y="0px"
	 width="398.567px" height="398.567px" viewBox="0 0 398.567 398.567" style="enable-background:new 0 0 398.567 398.567;"
	 xml:space="preserve">
<g>
	<g>
		<path d="M197.192,73.302c-70.827,0-128.45,57.617-128.45,128.444c0,70.815,57.623,128.444,128.45,128.444
			c70.805,0,128.433-57.629,128.433-128.444C325.625,130.919,267.997,73.302,197.192,73.302z M197.192,312.345
			c-60.986,0-110.604-49.611-110.604-110.599c0-60.986,49.617-110.598,110.604-110.598c60.976,0,110.587,49.612,110.587,110.598
			C307.779,262.734,258.167,312.345,197.192,312.345z"/>
		<path d="M199.284,0C89.4,0,0,89.412,0,199.284C0,309.15,89.4,398.567,199.284,398.567c109.89,0,199.283-89.417,199.283-199.283
			C398.567,89.412,309.173,0,199.284,0z M199.284,380.72c-100.049,0-181.438-81.389-181.438-181.437
			c0-100.048,81.389-181.438,181.438-181.438c100.048,0,181.437,81.389,181.437,181.438
			C380.72,299.332,299.332,380.72,199.284,380.72z"/>
	</g>
</g>
<g>
</g>
<g>
</g>
<g>
</g>
<g>
</g>
<g>
</g>
<g>
</g>
<g>
</g>
<g>
</g>
<g>
</g>
<g>
</g>
<g>
</g>
<g>
</g>
<g>
</g>
<g>
</g>
<g>
</g>
</svg>
