<?xml version="1.0" encoding="iso-8859-1"?>
<!-- Generator: Adobe Illustrator 16.0.0, SVG Export Plug-In . SVG Version: 6.00 Build 0)  -->
<!DOCTYPE svg PUBLIC "-//W3C//DTD SVG 1.1//EN" "http://www.w3.org/Graphics/SVG/1.1/DTD/svg11.dtd">
<svg version="1.1" id="Capa_1" xmlns="http://www.w3.org/2000/svg" xmlns:xlink="http://www.w3.org/1999/xlink" x="0px" y="0px"
	 width="379.733px" height="379.733px" viewBox="0 0 379.733 379.733" style="enable-background:new 0 0 379.733 379.733;"
	 xml:space="preserve">
<g>
	<g>
		<path d="M39.451,146.093l-4.973-0.012v52.069l-4.973-0.023v-52.045l-5.367,0.012v52.383h-4.95v-52.383h-5.71v52.383H8.505v-52.383
			H3.974l-3.829,44.308c0,0-0.145,1.685-0.145,2.289c0,6.832,3.166,12.955,8.116,16.929c16.336,18.427,5.188,37.226,5.188,41.688
			c0.023,4.949,0.023,81.04,0.023,81.04c0,0.069-0.023,0.116-0.023,0.187c0,4.658,3.782,8.435,8.458,8.435
			c4.653,0,8.435-3.788,8.435-8.435c0-0.07-0.023-0.117-0.023-0.164h0.023c0,0,0-75.148,0-80.9c0-5.182-9.434-26.805,6.315-42.873
			c0-0.035,0.052-0.081,0.076-0.104c3.828-3.637,6.361-8.656,6.756-14.28c0.023-0.395,0-1.394,0-1.394L39.451,146.093z"/>
		<path d="M305.338,36.21c23.54,0,42.629,19.083,42.629,42.629c0,23.545-19.089,42.629-42.629,42.629
			c-23.539,0-42.629-19.084-42.629-42.629C262.709,55.293,281.799,36.21,305.338,36.21z"/>
		<path d="M315.029,145.251l-3.997-0.035c0,0-21.215,12.67-21.192,106.659c17.242,4.741,9.969,23.586,8.668,25.98
			c0,4.787,0.372,53.934,0.372,53.934l0.046-0.023c-0.023,0.07-0.046,0.116-0.023,0.162c-0.022,4.531,3.648,8.18,8.134,8.156
			c4.484,0.012,8.168-3.671,8.145-8.156c0.023-0.046,0.023-0.092,0-0.139l0.023-0.035c0,0,0-55.34-0.023-60.847
			C315.18,265.888,315.029,145.251,315.029,145.251z"/>
		<path d="M379.733,181.432c0-18.718-10.143-35.908-28.082-36.204v-0.012c-0.081,0-0.372,0-0.441,0c0,0,0,0.012,0,0.023
			c-17.975,0.285-28.094,17.475-28.094,36.192c0,18.834,11.34,32.277,21.215,35.251c5.392,7.61,1.836,25.526-1.975,35.866
			c0,4.95,0,80.704,0,80.704l0,0c0,0.046,0,0.116,0,0.163c0,4.646,3.741,8.412,8.389,8.412c0.244,0,1.139-0.023,1.371,0
			c4.624-0.023,8.4-3.766,8.4-8.412c0-0.047-0.023-0.117-0.023-0.163h0.023c0,0,0-75.754,0-80.704
			c-3.822-10.34-7.378-28.256-1.998-35.854C368.405,213.709,379.733,200.266,379.733,181.432z M342.286,209.398
			c-1.127-0.86-2.532-2.243-4.043-4.078c-1.521-1.824-3.102-4.067-4.589-6.658c-0.732-1.301-1.418-2.695-2.045-4.16
			c-0.616-1.544-1.104-3.02-1.44-4.769c-0.616-3.352-0.512-6.576-0.175-9.527c0.325-2.963,0.976-5.665,1.673-7.901
			c0.697-2.248,1.476-4.078,2.115-5.315c0.65-1.267,1.162-1.859,1.162-1.859s-0.117,0.808-0.163,2.144
			c-0.059,1.33-0.116,3.236-0.198,5.53c-0.046,4.485-0.418,10.625,0.419,16.051c0.163,1.272,0.604,2.719,1.046,4.008
			c0.406,1.359,0.895,2.708,1.44,3.974c1.011,2.591,2.091,4.973,3.044,7.041c0.953,2.033,1.777,3.753,2.439,4.902
			c0.628,1.197,1.221,1.686,1.244,1.639C344.239,210.467,343.355,210.27,342.286,209.398z"/>
		<path d="M166.71,111.899c-63.961,0-115.814,51.849-115.814,115.81c0,63.973,51.854,115.814,115.814,115.814
			c63.967,0,115.821-51.842,115.821-115.814C282.532,163.748,230.677,111.899,166.71,111.899z M165.42,301.929
			c-40.153,0-72.703-32.532-72.703-72.71c0-40.148,32.55-72.704,72.703-72.704c40.16,0,72.716,32.556,72.716,72.704
			C238.136,269.396,205.581,301.929,165.42,301.929z"/>
	</g>
</g>
<g>
</g>
<g>
</g>
<g>
</g>
<g>
</g>
<g>
</g>
<g>
</g>
<g>
</g>
<g>
</g>
<g>
</g>
<g>
</g>
<g>
</g>
<g>
</g>
<g>
</g>
<g>
</g>
<g>
</g>
</svg>
