<?xml version="1.0" encoding="iso-8859-1"?>
<!-- Generator: Adobe Illustrator 16.0.0, SVG Export Plug-In . SVG Version: 6.00 Build 0)  -->
<!DOCTYPE svg PUBLIC "-//W3C//DTD SVG 1.1//EN" "http://www.w3.org/Graphics/SVG/1.1/DTD/svg11.dtd">
<svg version="1.1" id="Capa_1" xmlns="http://www.w3.org/2000/svg" xmlns:xlink="http://www.w3.org/1999/xlink" x="0px" y="0px"
	 width="342.728px" height="342.728px" viewBox="0 0 342.728 342.728" style="enable-background:new 0 0 342.728 342.728;"
	 xml:space="preserve">
<g>
	<g>
		<path d="M120.248,99.758C53.946,99.758,0,153.692,0,220.011c0,66.308,53.946,120.242,120.248,120.242
			c66.325,0,120.248-53.935,120.248-120.242C240.496,153.692,186.573,99.758,120.248,99.758z M120.248,329.599
			c-60.417,0-109.587-49.182-109.587-109.588c0-60.417,49.17-109.587,109.587-109.587c60.423,0,109.594,49.17,109.594,109.587
			C229.841,280.417,180.67,329.599,120.248,329.599z"/>
		<path d="M118.987,144.008c-42.733,0-77.491,34.763-77.491,77.502c0,42.733,34.757,77.485,77.491,77.485
			s77.485-34.752,77.485-77.485C196.472,178.771,161.72,144.008,118.987,144.008z M118.987,288.318
			c-36.837,0-66.819-29.988-66.819-66.819c0-36.866,29.994-66.831,66.819-66.831c36.849,0,66.819,29.988,66.819,66.831
			S155.835,288.318,118.987,288.318z"/>
		<path d="M253.497,104.388c0,23.795,0,212.268,0,232.054c0,19.774,89.231-100.153,89.231-116.024
			C342.728,204.523,253.497,80.593,253.497,104.388z"/>
		<path d="M204.419,2.475c23.423,0,42.396,18.979,42.396,42.391s-18.974,42.391-42.396,42.391c-23.4,0-42.385-18.979-42.385-42.391
			S181.019,2.475,204.419,2.475z"/>
	</g>
</g>
<g>
</g>
<g>
</g>
<g>
</g>
<g>
</g>
<g>
</g>
<g>
</g>
<g>
</g>
<g>
</g>
<g>
</g>
<g>
</g>
<g>
</g>
<g>
</g>
<g>
</g>
<g>
</g>
<g>
</g>
</svg>
