<?xml version="1.0" encoding="iso-8859-1"?>
<!-- Generator: Adobe Illustrator 16.0.0, SVG Export Plug-In . SVG Version: 6.00 Build 0)  -->
<!DOCTYPE svg PUBLIC "-//W3C//DTD SVG 1.1//EN" "http://www.w3.org/Graphics/SVG/1.1/DTD/svg11.dtd">
<svg version="1.1" id="Capa_1" xmlns="http://www.w3.org/2000/svg" xmlns:xlink="http://www.w3.org/1999/xlink" x="0px" y="0px"
	 width="380.726px" height="380.726px" viewBox="0 0 380.726 380.726" style="enable-background:new 0 0 380.726 380.726;"
	 xml:space="preserve">
<g>
	<g>
		<path d="M195.537,53.35c-75.679,0-137.014,61.347-137.014,137.013s61.335,137.013,137.014,137.013
			c75.654,0,137.014-61.335,137.014-137.013C332.539,114.696,271.191,53.35,195.537,53.35z M194.026,278.147
			c-47.509,0-86.007-38.493-86.007-86.001c0-47.509,38.498-86.007,86.007-86.007c47.491,0,86.007,38.498,86.007,86.007
			C280.033,239.654,241.517,278.147,194.026,278.147z"/>
		<path d="M43.913,77.69h-5.745l1.714,60.202h-6.902V77.69h-5.054v60.574h-5.71V77.69l-5.583,0.012v60.574h-6.78l1.94-60.586H6.53
			l-6.361,51.244c0,0-0.168,1.929-0.168,2.667c0,7.889,3.677,14.954,9.399,19.543c18.869,21.309,5.984,43.059,5.996,48.229
			c0.011,5.705,0.011,93.717,0.011,93.717c0.012,0.069-0.023,0.115-0.011,0.197c0.011,5.391,4.368,9.748,9.754,9.748
			c5.391,0,9.771-4.381,9.771-9.748c-0.012-0.082-0.023-0.128-0.035-0.197h0.023c0,0,0-86.908,0.012-93.52
			c0-6.018-10.887-31.004,7.302-49.6c0.012-0.023,0.052-0.081,0.087-0.11c4.438-4.211,7.372-10.015,7.802-16.533
			c0.035-0.453,0.023-1.621,0.023-1.621L43.913,77.69z"/>
		<path d="M380.709,223.006c0.011-5.81-0.175-145.304-0.175-145.304l-3.184-0.012c0,0-25.956,14.646-25.956,123.333
			c19.938,5.472,11.549,27.269,10.039,30.045c0,5.531,0.43,62.369,0.43,62.369l0.069-0.035c-0.023,0.082-0.046,0.129-0.046,0.198
			c-0.023,5.217,4.218,9.458,9.411,9.411c5.193,0.023,9.434-4.218,9.411-9.411c0.022-0.069,0.022-0.116,0-0.163l0.011-0.047
			C380.72,293.391,380.72,229.385,380.709,223.006z"/>
	</g>
</g>
<g>
</g>
<g>
</g>
<g>
</g>
<g>
</g>
<g>
</g>
<g>
</g>
<g>
</g>
<g>
</g>
<g>
</g>
<g>
</g>
<g>
</g>
<g>
</g>
<g>
</g>
<g>
</g>
<g>
</g>
</svg>
