<?xml version="1.0" encoding="iso-8859-1"?>
<!-- Generator: Adobe Illustrator 16.0.0, SVG Export Plug-In . SVG Version: 6.00 Build 0)  -->
<!DOCTYPE svg PUBLIC "-//W3C//DTD SVG 1.1//EN" "http://www.w3.org/Graphics/SVG/1.1/DTD/svg11.dtd">
<svg version="1.1" id="Capa_1" xmlns="http://www.w3.org/2000/svg" xmlns:xlink="http://www.w3.org/1999/xlink" x="0px" y="0px"
	 width="382.556px" height="382.556px" viewBox="0 0 382.556 382.556" style="enable-background:new 0 0 382.556 382.556;"
	 xml:space="preserve">
<g>
	<g>
		<path d="M166.722,105.916c-66.319,0-120.265,53.928-120.265,120.242c0,66.319,53.945,120.253,120.265,120.253
			c66.302,0,120.248-53.934,120.248-120.253C286.97,159.844,233.024,105.916,166.722,105.916z M166.722,335.768
			c-60.429,0-109.604-49.182-109.604-109.587c0-60.423,49.176-109.599,109.604-109.599c60.411,0,109.594,49.176,109.594,109.599
			C276.316,286.586,227.133,335.768,166.722,335.768z"/>
		<path d="M165.444,150.16c-42.733,0-77.496,34.763-77.496,77.508c0,42.734,34.763,77.474,77.496,77.474
			c42.728,0,77.491-34.739,77.491-77.474C242.935,184.923,208.171,150.16,165.444,150.16z M165.444,294.476
			c-36.843,0-66.824-29.977-66.824-66.809c0-36.866,29.993-66.836,66.824-66.836c36.837,0,66.813,29.982,66.813,66.836
			C232.257,264.5,202.292,294.476,165.444,294.476z"/>
		<path d="M37.964,146.029l-4.973-0.012l1.487,52.063l-5.972-0.012v-52.052l-4.369,0.012v52.377h-4.95v-52.377h-4.815v52.377H8.516
			l1.679-52.389H5.652l-5.507,44.32c0,0-0.145,1.679-0.145,2.294c0,6.832,3.178,12.949,8.127,16.922
			c16.324,18.428,5.188,37.227,5.188,41.688c0.012,4.95,0.012,81.041,0.012,81.041l0,0c0,0.069-0.023,0.116-0.023,0.186
			c0,4.659,3.782,8.436,8.447,8.436c4.665,0,8.446-3.788,8.446-8.436c0-0.069-0.023-0.116-0.023-0.162h0.012
			c0,0,0.012-75.15,0.012-80.901c-0.012-5.182-9.435-26.804,6.303-42.872c0.012-0.035,0.046-0.082,0.076-0.105
			c3.84-3.636,6.373-8.656,6.756-14.279c0.023-0.395,0.012-1.394,0.012-1.394L37.964,146.029z"/>
		<path d="M318.003,271.714c0.023-5.02-0.14-125.645-0.14-125.645l-4.009-0.041c0,0-21.204,12.67-21.204,106.666
			c17.242,4.74,9.992,23.586,8.68,25.979c0,4.787,0.36,53.935,0.36,53.935l0.046-0.023c-0.022,0.058-0.046,0.104-0.022,0.163
			c-0.023,4.531,3.647,8.18,8.133,8.156c4.484,0.012,8.156-3.672,8.156-8.156c0-0.047,0-0.105-0.023-0.14l0.023-0.034
			C318.003,332.574,318.003,277.234,318.003,271.714z"/>
		<path d="M305.339,36.146c23.539,0,42.629,19.084,42.629,42.629c0,23.545-19.09,42.629-42.629,42.629
			c-23.54,0-42.629-19.084-42.629-42.629C262.71,55.229,281.799,36.146,305.339,36.146z"/>
		<path d="M354.486,146.041L354.486,146.041c-0.07-0.012-0.372-0.012-0.453-0.012c0,0,0,0.012,0,0.023
			c-17.963,0.291-28.082,17.48-28.082,36.198c0,18.828,11.34,32.276,21.215,35.251c5.392,7.599,1.836,25.526-1.998,35.855
			c0,4.949,0,80.715,0,80.715h0.023c0,0.047-0.023,0.104-0.023,0.162c0,4.648,3.765,8.412,8.4,8.412c0.244,0,1.127-0.023,1.359,0
			c4.647-0.023,8.412-3.764,8.412-8.412c0-0.058-0.012-0.115-0.023-0.162h0.023c0,0,0-75.766,0-80.715
			c-3.834-10.329-7.39-28.257-1.986-35.844c9.887-2.986,21.203-16.435,21.203-35.263
			C382.58,163.533,372.449,146.354,354.486,146.041z M337.616,168.087c-0.047,1.336-0.104,3.236-0.187,5.536
			c-0.046,4.485-0.418,10.625,0.419,16.045c0.162,1.272,0.604,2.725,1.046,4.015c0.418,1.354,0.906,2.695,1.44,3.973
			c0.999,2.591,2.091,4.973,3.044,7.041c0.953,2.033,1.789,3.753,2.439,4.903c0.64,1.197,1.209,1.685,1.255,1.639
			c0,0.069-0.859-0.141-1.952-1.023c-1.115-0.859-2.532-2.23-4.043-4.066c-1.51-1.824-3.09-4.067-4.578-6.664
			c-0.72-1.295-1.405-2.689-2.045-4.165c-0.604-1.534-1.092-3.009-1.429-4.758c-0.615-3.352-0.511-6.582-0.174-9.533
			c0.325-2.957,0.976-5.658,1.661-7.895c0.674-2.248,1.476-4.084,2.115-5.321c0.639-1.261,1.149-1.853,1.149-1.853
			S337.662,166.769,337.616,168.087z"/>
	</g>
</g>
<g>
</g>
<g>
</g>
<g>
</g>
<g>
</g>
<g>
</g>
<g>
</g>
<g>
</g>
<g>
</g>
<g>
</g>
<g>
</g>
<g>
</g>
<g>
</g>
<g>
</g>
<g>
</g>
<g>
</g>
</svg>
