<?xml version="1.0" encoding="iso-8859-1"?>
<!-- Generator: Adobe Illustrator 16.0.0, SVG Export Plug-In . SVG Version: 6.00 Build 0)  -->
<!DOCTYPE svg PUBLIC "-//W3C//DTD SVG 1.1//EN" "http://www.w3.org/Graphics/SVG/1.1/DTD/svg11.dtd">
<svg version="1.1" id="Capa_1" xmlns="http://www.w3.org/2000/svg" xmlns:xlink="http://www.w3.org/1999/xlink" x="0px" y="0px"
	 width="371.588px" height="371.589px" viewBox="0 0 371.588 371.589" style="enable-background:new 0 0 371.588 371.589;"
	 xml:space="preserve">
<g>
	<g>
		<path d="M142.271,43.529C63.816,43.529,0,107.333,0,185.777C0,264.243,63.816,328.03,142.271,328.03
			c78.438,0,142.259-63.787,142.259-142.253C284.53,107.333,220.708,43.529,142.271,43.529z M142.271,315.424
			c-71.479,0-129.647-58.175-129.647-129.636c0-71.466,58.169-129.635,129.647-129.635c71.466,0,129.63,58.169,129.63,129.635
			C271.901,257.249,213.737,315.424,142.271,315.424z"/>
		<path d="M140.772,95.866c-50.553,0-91.683,41.13-91.683,91.683c0,50.553,41.13,91.66,91.683,91.66
			c50.541,0,91.672-41.106,91.672-91.66C232.444,136.996,191.313,95.866,140.772,95.866z M140.772,266.591
			c-43.582,0-79.06-35.461-79.06-79.054c0-43.605,35.478-79.071,79.06-79.071c43.594,0,79.03,35.455,79.03,79.071
			C219.802,231.13,184.366,266.591,140.772,266.591z"/>
		<path d="M320.838,95.592h-10.689V9.539h-7.297v86.054v50.065v4.845h0.721c11.107,28.994,0.674,64.699,0.674,70.264
			c0,6.204,0,130.523,0,130.523h0.023c0,0.07-0.023,0.14-0.023,0.197c0,5.845,4.717,10.562,10.55,10.562s10.55-4.718,10.55-10.562
			c0-0.058-0.023-0.127-0.023-0.197h0.023c0,0,0-123.158,0-130.314c0-6.483-7.25-47.242,2.068-70.473h0.731v-4.845V95.592V9.539
			h-7.296v86.054H320.838z"/>
		<path d="M364.71,70.845v44.75h-10.062v-44.75h-6.879v44.75v32.062v4.833c11.096,28.994,0.662,64.722,0.662,70.275
			c0,6.205,0,78.008,0,78.008h0.023c0,0.07-0.023,0.14-0.023,0.209c0,5.832,4.729,10.562,10.539,10.562
			c5.832,0,10.549-4.729,10.549-10.562c0-0.069,0-0.139,0-0.209l0,0c0,0,0-70.63,0-77.799c0-6.482-7.238-47.229,2.068-70.484v-4.833
			v-32.062v-44.75H364.71z"/>
	</g>
</g>
<g>
</g>
<g>
</g>
<g>
</g>
<g>
</g>
<g>
</g>
<g>
</g>
<g>
</g>
<g>
</g>
<g>
</g>
<g>
</g>
<g>
</g>
<g>
</g>
<g>
</g>
<g>
</g>
<g>
</g>
</svg>
