<?xml version="1.0" encoding="iso-8859-1"?>
<!-- Generator: Adobe Illustrator 16.0.0, SVG Export Plug-In . SVG Version: 6.00 Build 0)  -->
<!DOCTYPE svg PUBLIC "-//W3C//DTD SVG 1.1//EN" "http://www.w3.org/Graphics/SVG/1.1/DTD/svg11.dtd">
<svg version="1.1" id="Capa_1" xmlns="http://www.w3.org/2000/svg" xmlns:xlink="http://www.w3.org/1999/xlink" x="0px" y="0px"
	 width="380.716px" height="380.716px" viewBox="0 0 380.716 380.716" style="enable-background:new 0 0 380.716 380.716;"
	 xml:space="preserve">
<g>
	<path d="M335.824,8.187L187.059,156.953l-10.863,10.875l-14.958,14.942L5.558,338.448l0.041,0.022
		c-7.546,7.901-7.477,20.414,0.285,28.176c7.767,7.762,20.257,7.831,28.169,0.279l0.023,0.035l0.313-0.303
		c0.012-0.012,0.023-0.012,0.035-0.023c0.012,0,0.012-0.023,0.023-0.035l164.34-164.334c12.798,0.883,24.905,8.586,35.804,15.824
		c2.044-5.298-0.175-14.314-2.801-23.685l126.83-126.812c3.566,8.197,6.471,17.417,8.725,21.925
		c16.708-7.802,16.696-45.342,5.821-61.637C362.304,11.58,335.824,8.187,335.824,8.187z M229.119,184.843
		c-1-3.724-1.836-7.32-2.312-10.59l121.59-121.607c2.219,1.237,4.24,3.654,6.135,6.797L229.119,184.843z"/>
</g>
<g>
</g>
<g>
</g>
<g>
</g>
<g>
</g>
<g>
</g>
<g>
</g>
<g>
</g>
<g>
</g>
<g>
</g>
<g>
</g>
<g>
</g>
<g>
</g>
<g>
</g>
<g>
</g>
<g>
</g>
</svg>
