<?xml version="1.0" encoding="iso-8859-1"?>
<!-- Generator: Adobe Illustrator 16.0.0, SVG Export Plug-In . SVG Version: 6.00 Build 0)  -->
<!DOCTYPE svg PUBLIC "-//W3C//DTD SVG 1.1//EN" "http://www.w3.org/Graphics/SVG/1.1/DTD/svg11.dtd">
<svg version="1.1" id="Capa_1" xmlns="http://www.w3.org/2000/svg" xmlns:xlink="http://www.w3.org/1999/xlink" x="0px" y="0px"
	 width="373.517px" height="373.517px" viewBox="0 0 373.517 373.517" style="enable-background:new 0 0 373.517 373.517;"
	 xml:space="preserve">
<g>
	<g>
		<path d="M176.417,261.467c0.25-1.162,0.535-2.301,0.866-3.463c-0.522-0.465-4.618-3.729-11.886-3.578
			C169.743,260.026,174.001,261.281,176.417,261.467z"/>
		<path d="M195.286,262.28c-0.767,2.23-1.277,4.485-1.557,6.646c4.275-2.021,11.049-4.393,17.219-2.638
			c4.311,1.243,7.018,2.858,8.761,4.356c1.301-1.324,2.741-2.695,4.299-4.066c-2.452-2.16-6.739-5.438-11.549-6.832
			C207.835,258.422,198.609,260.793,195.286,262.28z"/>
		<path d="M205.278,250.36c-2.045,0.998-3.741,2.3-5.158,3.764c4.856-1.092,10.316-1.58,14.093-0.511
			c6.611,1.905,12.142,6.437,14.849,8.946c1.453-1.046,2.975-1.975,4.543-2.858C230.259,254.797,220.22,242.981,205.278,250.36z"/>
		<path d="M158.496,255.657c-1.83,0.535-3.793,1.325-5.873,2.371c3.079,1.719,6.599,4.043,8.708,6.762
			c0.615,0.79,1.033,1.812,1.498,2.789l0.187-0.094c0.645,1.324,4.833,5.322,9.08,6.693c1.057,0.336,1.94,0.406,2.735,0.348
			c0.047-2.01,0.204-4.311,0.5-6.773C171.003,267.299,164.375,264.79,158.496,255.657z"/>
		<path d="M57.866,52.447v-34.02l5.211-6.256H319.63V0H57.378L45.696,14.03v38.417h-0.035v321.07h282.194V52.447H57.866z
			 M263.023,263.709c-4.996-3.242-11.387-3.834-18.938-1.731c-11.607,3.241-21.448,14.431-25.329,19.356h-5.229l-1.812-1.243
			c0.163-0.243,1.546-2.173,3.718-4.729c-1.021-0.837-2.857-1.976-6.25-2.951c-5.438-1.558-12.886,2.126-15.767,3.927
			c0.104,2.87,0.43,4.811,0.441,4.869l-0.732,0.127h-5.704c-0.453-3.195-1.441-13.57,2.451-22.981l-0.093-0.081
			c0.058-0.047,0.162-0.094,0.209-0.151c2.254-5.321,6.042-10.329,12.479-13.524c17.812-8.76,31.417,3.463,37.005,12.328
			c0.965-0.36,1.895-0.825,2.882-1.104c1.267-0.35,2.452-0.488,3.683-0.721c-2.416-6.111-11.642-23.156-37.946-18.718
			c-29.616,5.019-27.251,39.979-26.764,44.929h-6.384c-0.012-0.115-0.012-0.278-0.029-0.418c-0.14,0.023-0.273,0.07-0.424,0.07
			c-1.383,0-2.836-0.256-4.357-0.721c-1.568-0.512-3.137-1.301-4.653-2.242c0.134,1.336,0.191,2.486,0.215,3.287h-6.39
			c-0.151-3.973-1.023-10.061-3.01-12.617c-2.138-2.742-7.087-5.379-10.242-6.832c-1.568,1.092-2.997,2.161-4.281,3.207
			c2.545,1.487,5.565,3.485,7.552,5.611c3.311,3.591,3.77,8.4,3.799,10.654h-6.379c-0.012-1.312-0.25-4.311-2.097-6.297
			c-1.795-1.929-5.234-3.985-7.768-5.355c-5.129,5.635-6.425,10.166-6.698,11.652h-6.437c0.157-1.766,1.987-14.778,22.25-27.082
			c17.085-10.364,28.849-5.438,33.503-2.498c0.69-1.604,1.451-3.16,2.341-4.694c-3.306-2.766-15.215-10.585-35.06,0.163
			c-22.691,12.292-28.628,29.162-29.924,34.111h-6.564c0.703-3.508,5.914-24.816,33.456-39.713
			c22.481-12.176,36.906-3.717,41.845,0.244c4.781-5.635,11.601-10.096,21.431-11.758c33.252-5.623,43.732,19.09,45.591,24.411
			c5.159,0.023,9.877,1.208,13.943,3.869c9.875,6.483,13.117,18.671,13.988,22.946h-6.576
			C272.945,277.118,270.018,268.31,263.023,263.709z M266.881,281.334h-6.565c-0.871-2.788-3.265-8.074-8.98-8.074
			c-6.529,0-11.875,4.879-14.697,8.074h-6.31l-1.208-0.79c0.371-0.546,9.201-13.64,22.203-13.64
			C261.373,266.905,265.788,276.002,266.881,281.334z M171.903,188.932c9.365,8.377,1.586,32.892,1.586,32.892
			s3.828-20.437-7.377-27.769c-13.554-8.894,2.404-29.645,2.404-29.645S162.533,180.554,171.903,188.932z M191.894,181.809
			c11.026,9.853,1.883,38.69,1.883,38.69s4.496-24.027-8.674-32.66c-15.958-10.48,2.806-34.874,2.806-34.874
			S180.879,171.968,191.894,181.809z M212.645,186.137c9.376,8.383,1.592,32.91,1.592,32.91s3.834-20.438-7.378-27.781
			c-13.559-8.9,2.394-29.639,2.394-29.639S203.28,177.76,212.645,186.137z M95.703,99.607h184.585v18.096H95.703V99.607z
			 M240.088,315.772c-10.062,0-27.861,0.059-45.649,0.105c-0.082,0-0.163,0-0.244,0c-0.07,0-0.14,0-0.232,0
			c-17.794-0.047-35.594-0.105-45.65-0.105c-18.735,0-50.768-29.778-50.768-29.778s49.734-0.151,96.418-0.175
			c0.093,0,0.162,0,0.232,0c0.081,0,0.162,0,0.244,0c46.695,0.023,96.423,0.175,96.423,0.175S258.841,315.772,240.088,315.772z"/>
	</g>
</g>
<g>
</g>
<g>
</g>
<g>
</g>
<g>
</g>
<g>
</g>
<g>
</g>
<g>
</g>
<g>
</g>
<g>
</g>
<g>
</g>
<g>
</g>
<g>
</g>
<g>
</g>
<g>
</g>
<g>
</g>
</svg>
