<?xml version="1.0" encoding="iso-8859-1"?>
<!-- Generator: Adobe Illustrator 16.0.0, SVG Export Plug-In . SVG Version: 6.00 Build 0)  -->
<!DOCTYPE svg PUBLIC "-//W3C//DTD SVG 1.1//EN" "http://www.w3.org/Graphics/SVG/1.1/DTD/svg11.dtd">
<svg version="1.1" id="Capa_1" xmlns="http://www.w3.org/2000/svg" xmlns:xlink="http://www.w3.org/1999/xlink" x="0px" y="0px"
	 width="373.517px" height="373.517px" viewBox="0 0 373.517 373.517" style="enable-background:new 0 0 373.517 373.517;"
	 xml:space="preserve">
<g>
	<path d="M57.854,52.447V18.416l5.211-6.245h256.541V0H57.367L45.696,14.03v38.417h-0.035v321.07h282.194V52.447H57.854z
		 M102.958,97.132h184.603v18.096H102.958V97.132z M268.995,214.272c-0.047,2.73-0.325,11.642-3.044,11.642l-5.217,0.012
		c-15.825,0.023-63.973,0.093-98.619,0.093c-24.382,0-36.762-0.047-37.906-0.104c-2.644-0.14-2.835-6.599-2.713-10.41
		c0.168-6.228,3.724-60.882,73.964-60.882c0.825,0,1.686,0.012,2.498,0.023C264.371,155.859,269.123,200.584,268.995,214.272z
		 M268.321,319.735c-0.232,0-1.418,0.058-3.393,0.139c-9.736,0.453-39.388,1.777-69.178,1.812l-1.58,0.012
		c-35.223,0-70.618-1.742-71.983-1.975c-4.188-0.744-3.021-24.748-3.009-25.004c0.5-7.122,1.626-8.621,3.172-8.668
		c0.656-0.011,6.321-0.022,17.887-0.022c14.134,0,34.943,0.012,55.676,0.012c20.612,0.022,41.188,0.046,55.085,0.046
		c11.049,0,16.835-0.012,17.265-0.035c1.023,0.047,3.266,0,3.266,18.289C271.528,319.735,269.529,319.735,268.321,319.735z
		 M269.832,275.723h-149.12c-10.445,0-18.904-8.471-18.904-18.904c0-10.445,8.458-18.914,18.904-18.914h149.12
		c10.433,0,18.915,8.469,18.915,18.914C288.747,267.252,280.265,275.723,269.832,275.723z"/>
</g>
<g>
</g>
<g>
</g>
<g>
</g>
<g>
</g>
<g>
</g>
<g>
</g>
<g>
</g>
<g>
</g>
<g>
</g>
<g>
</g>
<g>
</g>
<g>
</g>
<g>
</g>
<g>
</g>
<g>
</g>
</svg>
