<?xml version="1.0" encoding="iso-8859-1"?>
<!-- Generator: Adobe Illustrator 16.0.0, SVG Export Plug-In . SVG Version: 6.00 Build 0)  -->
<!DOCTYPE svg PUBLIC "-//W3C//DTD SVG 1.1//EN" "http://www.w3.org/Graphics/SVG/1.1/DTD/svg11.dtd">
<svg version="1.1" id="Capa_1" xmlns="http://www.w3.org/2000/svg" xmlns:xlink="http://www.w3.org/1999/xlink" x="0px" y="0px"
	 width="380.721px" height="380.721px" viewBox="0 0 380.721 380.721" style="enable-background:new 0 0 380.721 380.721;"
	 xml:space="preserve">
<g>
	<g>
		<path d="M292.151,148.15h-23.435v155.296c0,4.473-3.625,8.121-8.099,8.121c-4.484,0-8.109-3.648-8.109-8.121V148.15H88.581
			c-5.142,0-9.33,4.171-9.33,9.312v213.929c0,5.146,4.188,9.33,9.33,9.33h203.547c5.159,0,9.33-4.184,9.33-9.318v-213.94
			C301.47,152.321,297.287,148.15,292.151,148.15z"/>
		<path d="M292.151,0H88.581c-5.142,0-9.33,4.188-9.33,9.33v122.374c0,5.153,4.188,9.318,9.33,9.318h163.928V44.035
			c0-4.473,3.625-8.115,8.109-8.115c4.474,0,8.099,3.642,8.099,8.115v96.987h23.435c5.147,0,9.318-4.177,9.318-9.318V9.33
			C301.47,4.188,297.287,0,292.151,0z"/>
	</g>
</g>
<g>
</g>
<g>
</g>
<g>
</g>
<g>
</g>
<g>
</g>
<g>
</g>
<g>
</g>
<g>
</g>
<g>
</g>
<g>
</g>
<g>
</g>
<g>
</g>
<g>
</g>
<g>
</g>
<g>
</g>
</svg>
