<?xml version="1.0" encoding="iso-8859-1"?>
<!-- Generator: Adobe Illustrator 16.0.0, SVG Export Plug-In . SVG Version: 6.00 Build 0)  -->
<!DOCTYPE svg PUBLIC "-//W3C//DTD SVG 1.1//EN" "http://www.w3.org/Graphics/SVG/1.1/DTD/svg11.dtd">
<svg version="1.1" id="Capa_1" xmlns="http://www.w3.org/2000/svg" xmlns:xlink="http://www.w3.org/1999/xlink" x="0px" y="0px"
	 width="380.721px" height="380.721px" viewBox="0 0 380.721 380.721" style="enable-background:new 0 0 380.721 380.721;"
	 xml:space="preserve">
<g>
	<g>
		<path d="M319.375,34.351H61.341c-14.918,0-27.001,12.095-27.001,27.008v258.027c0,14.907,12.083,27.014,27.001,27.014h50.28
			l5.983-115.873c0,0-9.446-3.102-11.514-4.113c-20.048-8.83-34.612-34.844-34.612-68.579c0-36.825,28.559-68.544,56.171-68.806
			c0.035,0,0.035,0,0.058,0c0,0,0.035,0,0.047,0c27.617,0.261,56.182,31.98,56.182,68.806c0,33.735-14.587,59.737-34.6,68.579
			c-0.151,0.07-11.607,4.219-11.607,4.219l6.019,115.756h88.418l5.554-107.623c-13.106-2.87-24.283-11.213-31.277-21.681
			c-8.69-13.013,6.669-128.067,6.669-128.067h10.004v107.99h9.922V89.005h10.84v107.978h9.889V89.005h11.258v107.978h9.899V89.005
			h7.68c0,0,15.349,115.066,6.657,128.067c-6.924,10.364-18.009,18.671-30.94,21.622c-0.244,0.094-0.441,0.175-0.441,0.175
			l5.612,107.507h55.908c14.919,0,27.014-12.105,27.014-27.013V61.347C346.375,46.434,334.292,34.351,319.375,34.351z"/>
		<path d="M94.977,141.498c0.569-2.347,1.348-4.572,1.383-4.607c0.25-0.877-0.215-1.771-1.168-2.341
			c-0.906-0.488-2.01-0.238-2.521,0.546c0,0-1.098,1.749-2.689,4.328c-1.296,2.23-3.213,5.786-4.52,10.213
			c-1.133,3.875-2.486,9.039-3.097,14.813c-0.261,3.033-0.319,5.769-0.227,8.586c0.227,3.212,0.715,5.96,1.644,9.103
			c3.155,8.964,5.583,17.644,14.349,26.194c2.771,2.858,5.618,4.799,7.674,6.228l0.727,0.511c0.441,0.291,0.865,0.559,1.284,0.803
			c1.726,0.906,2.881,1.231,3.09,1.277c0.86,0.232,1.737-0.186,2.109-0.883c0.343-0.732,0.093-1.65-0.622-2.23
			c0-0.012-0.999-0.871-2.283-2.498c-0.877-0.988-1.83-2.417-2.94-4.031c-0.784-1.15-1.713-2.44-2.567-3.684
			c-4.27-6.518-6.733-15.622-10.138-24.934c-0.668-2.022-1.214-4.642-1.417-6.867c-0.273-2.568-0.401-5.042-0.401-7.343
			c-0.087-5.315,0.151-9.899,0.616-13.605C93.797,146.86,94.216,143.723,94.977,141.498z"/>
		<path d="M341.264,0H39.463C17.701,0,0,17.701,0,39.463v301.778c0,21.773,17.701,39.48,39.463,39.48h301.778
			c21.773,0,39.48-17.707,39.48-39.457V39.463C380.721,17.701,363.014,0,341.264,0z M364.931,341.264
			c0,13.059-10.631,23.667-23.667,23.667H39.463c-13.059,0-23.673-10.62-23.673-23.667V39.463c0-13.065,10.625-23.673,23.673-23.673
			h301.778c13.06,0,23.679,10.619,23.679,23.673v301.801H364.931z"/>
	</g>
</g>
<g>
</g>
<g>
</g>
<g>
</g>
<g>
</g>
<g>
</g>
<g>
</g>
<g>
</g>
<g>
</g>
<g>
</g>
<g>
</g>
<g>
</g>
<g>
</g>
<g>
</g>
<g>
</g>
<g>
</g>
</svg>
