<?xml version="1.0" encoding="iso-8859-1"?>
<!-- Generator: Adobe Illustrator 16.0.0, SVG Export Plug-In . SVG Version: 6.00 Build 0)  -->
<!DOCTYPE svg PUBLIC "-//W3C//DTD SVG 1.1//EN" "http://www.w3.org/Graphics/SVG/1.1/DTD/svg11.dtd">
<svg version="1.1" id="Capa_1" xmlns="http://www.w3.org/2000/svg" xmlns:xlink="http://www.w3.org/1999/xlink" x="0px" y="0px"
	 width="380.86px" height="380.86px" viewBox="0 0 380.86 380.86" style="enable-background:new 0 0 380.86 380.86;"
	 xml:space="preserve">
<g>
	<g>
		<path d="M39.451,146.657l-4.973-0.012v52.069l-4.973-0.023v-52.045l-5.368,0.012v52.383h-4.95v-52.383h-5.71v52.383H8.505v-52.383
			H3.974l-3.829,44.308c0,0-0.145,1.685-0.145,2.289c0,6.832,3.166,12.955,8.116,16.929c16.336,18.427,5.188,37.226,5.188,41.688
			c0.023,4.949,0.023,81.04,0.023,81.04c0,0.069-0.023,0.116-0.023,0.187c0,4.658,3.782,8.435,8.458,8.435
			c4.653,0,8.435-3.788,8.435-8.435c0-0.07-0.023-0.117-0.023-0.164h0.023c0,0,0-75.148,0-80.9c0-5.182-9.435-26.805,6.315-42.873
			c0-0.035,0.052-0.081,0.076-0.104c3.828-3.637,6.361-8.656,6.756-14.28c0.023-0.395,0-1.394,0-1.394L39.451,146.657z"/>
		<path d="M305.339,36.773c23.539,0,42.629,19.083,42.629,42.629c0,23.545-19.09,42.629-42.629,42.629
			c-23.54,0-42.629-19.084-42.629-42.629C262.71,55.857,281.799,36.773,305.339,36.773z"/>
		<path d="M166.71,112.463c-63.961,0-115.815,51.849-115.815,115.81c0,63.973,51.854,115.814,115.815,115.814
			c63.967,0,115.82-51.842,115.82-115.814C282.531,164.312,230.677,112.463,166.71,112.463z M165.421,302.492
			c-40.154,0-72.704-32.532-72.704-72.71c0-40.148,32.55-72.704,72.704-72.704c40.16,0,72.715,32.556,72.715,72.704
			C238.136,269.96,205.581,302.492,165.421,302.492z"/>
		<path d="M316.121,137.275l-3.996-0.041c0,0-21.205,12.67-21.182,106.665c17.23,4.729,9.969,23.574,8.68,25.979
			c0,4.786,0.36,53.934,0.36,53.934l0.046-0.022c-0.023,0.058-0.046,0.104-0.023,0.174c-0.022,4.508,3.66,8.168,8.146,8.145
			c4.484,0.012,8.156-3.66,8.133-8.168c0.023-0.035,0.023-0.093,0-0.128l0.023-0.034c0,0,0-55.352-0.023-60.859
			C316.295,257.899,316.121,137.275,316.121,137.275z"/>
		<path d="M380.86,173.45c0-18.712-10.143-35.908-28.094-36.204v-0.011c-0.069,0-0.372,0-0.441,0c0,0,0,0.011,0,0.023
			c-17.962,0.285-28.094,17.48-28.094,36.192c0,18.828,11.34,32.282,21.216,35.256c5.391,7.6,1.836,25.516-1.976,35.855
			c0,4.949,0,80.715,0,80.715h0.012c-0.012,0.047-0.012,0.105-0.012,0.151c0,4.647,3.741,8.423,8.389,8.423
			c0.256,0,1.139-0.022,1.371,0c4.636-0.022,8.412-3.775,8.412-8.423c0-0.046-0.023-0.104-0.023-0.151h0.023c0,0,0-75.766,0-80.715
			c-3.834-10.34-7.39-28.256-1.999-35.844C369.52,205.731,380.86,192.278,380.86,173.45z M343.378,201.409
			c-1.115-0.859-2.533-2.23-4.043-4.066c-1.511-1.835-3.091-4.066-4.578-6.663c-0.721-1.295-1.418-2.69-2.045-4.166
			c-0.604-1.534-1.104-3.009-1.44-4.758c-0.616-3.358-0.512-6.582-0.163-9.533c0.325-2.962,0.965-5.658,1.674-7.895
			c0.674-2.249,1.463-4.084,2.114-5.322c0.639-1.26,1.149-1.853,1.149-1.853s-0.127,0.808-0.174,2.138
			c-0.047,1.336-0.093,3.236-0.186,5.537c-0.047,4.485-0.418,10.625,0.418,16.045c0.163,1.272,0.604,2.725,1.046,4.014
			c0.418,1.354,0.906,2.695,1.44,3.974c1.011,2.591,2.092,4.973,3.044,7.042c0.953,2.033,1.79,3.74,2.44,4.902
			c0.627,1.186,1.208,1.696,1.255,1.639C345.331,202.502,344.482,202.293,343.378,201.409z"/>
		<path d="M103.854,86.85c0.046,0,0.082-0.012,0.133-0.023l-0.017,0.023c0,0,50.506,0,54.544,0
			c8.458-3.143,23.104-6.042,29.302-1.626c2.451,8.063,13.432,17.329,28.838,17.329c15.278,0,25.525-8.267,25.758-22.958h0.012
			c0-0.064,0-0.296,0-0.372h-0.012c-0.255-14.668-10.479-22.958-25.758-22.958c-15.395,0-26.387,9.266-28.838,17.358
			c-6.198,4.397-20.844,1.487-29.302-1.644c-4.038,0-54.544,0-54.544,0l0.017,0.023c-0.052,0-0.099-0.012-0.145,0
			c-3.782-0.012-6.855,3.067-6.855,6.855c0,0.204,0,0.93-0.012,1.116C96.987,83.759,100.06,86.85,103.854,86.85z M196.583,75.429
			c0.261-1.284,0.737-2.359,1.046-3.009c0.395-0.784,0.668-1.295,0.668-1.295c0.145-0.238,0.43-0.337,0.714-0.215
			c0.273,0.14,0.431,0.378,0.378,0.627c-0.012,0.023-0.174,0.68-0.297,1.348c-0.162,0.65-0.191,1.557-0.249,2.759
			c-0.047,1.057,0.011,2.364,0.156,3.875c0.047,0.668,0.14,1.371,0.285,2.085c0.116,0.616,0.296,1.365,0.546,1.929
			c1.18,2.556,3.056,4.973,4.438,6.721c0.267,0.32,0.546,0.674,0.778,1c0.349,0.418,0.674,0.796,0.953,1.069
			c0.395,0.441,0.697,0.656,0.697,0.668c0.232,0.128,0.302,0.401,0.232,0.616c-0.07,0.215-0.314,0.325-0.594,0.296
			c-0.046-0.012-0.383-0.07-0.895-0.296c-0.115-0.046-0.243-0.116-0.371-0.203l-0.232-0.116c-0.628-0.36-1.476-0.86-2.324-1.592
			c-2.684-2.243-4.549-4.525-5.67-7c-0.319-0.865-0.534-1.638-0.68-2.544c-0.081-0.796-0.127-1.604-0.127-2.44
			C196.071,78.043,196.344,76.544,196.583,75.429z"/>
	</g>
</g>
<g>
</g>
<g>
</g>
<g>
</g>
<g>
</g>
<g>
</g>
<g>
</g>
<g>
</g>
<g>
</g>
<g>
</g>
<g>
</g>
<g>
</g>
<g>
</g>
<g>
</g>
<g>
</g>
<g>
</g>
</svg>
