<?xml version="1.0" encoding="iso-8859-1"?>
<!-- Generator: Adobe Illustrator 16.0.0, SVG Export Plug-In . SVG Version: 6.00 Build 0)  -->
<!DOCTYPE svg PUBLIC "-//W3C//DTD SVG 1.1//EN" "http://www.w3.org/Graphics/SVG/1.1/DTD/svg11.dtd">
<svg version="1.1" id="Capa_1" xmlns="http://www.w3.org/2000/svg" xmlns:xlink="http://www.w3.org/1999/xlink" x="0px" y="0px"
	 width="384.066px" height="384.067px" viewBox="0 0 384.066 384.067" style="enable-background:new 0 0 384.066 384.067;"
	 xml:space="preserve">
<g>
	<g>
		<path d="M331.079,366.128c0,0,0-108.147-0.035-118.906c0.035-9.818-0.278-245.508-0.278-245.508l-5.368-0.023
			c0,0-43.884,24.76-43.872,208.364c33.706,9.26,19.52,46.092,16.964,50.762c0,9.354,0.72,105.358,0.72,105.358l0.104-0.023
			c-0.035,0.104-0.069,0.187-0.058,0.313c-0.047,8.818,7.11,15.977,15.894,15.906c8.761,0.023,15.941-7.146,15.906-15.906
			c0.035-0.081,0.035-0.209-0.023-0.268L331.079,366.128z"/>
		<path d="M253.269,8.481l-9.539-0.011l2.824,99.892l-11.457-0.023V8.458l-8.365,0.023v100.502h-9.504V8.47l-9.225,0.011
			l-0.023,100.502h-11.235l3.212-100.537h-8.696l-10.579,85.031c0,0-0.261,3.201-0.261,4.415c0,13.112,6.082,24.841,15.586,32.469
			c31.33,35.361,9.946,71.432,9.946,80.006c0.023,9.481,0.023,155.493,0.023,155.493h0.022c0,0.115-0.034,0.197-0.046,0.336
			c0.012,8.947,7.268,16.174,16.202,16.197c8.946,0,16.22-7.273,16.22-16.186c-0.012-0.15-0.059-0.243-0.059-0.312h0.023
			c0,0,0.023-144.211,0.023-155.227c-0.023-9.934-18.091-51.436,12.118-82.26c0.023-0.046,0.093-0.128,0.14-0.192
			c7.366-6.982,12.223-16.609,12.966-27.42c0.047-0.761,0.023-2.678,0.023-2.678L253.269,8.481z"/>
		<path d="M108.75,0.023V0c-0.168,0-0.75,0-0.918,0c0,0,0,0.012,0,0.023C72.75,0.593,52.986,34.182,52.986,70.694
			c-0.012,36.814,22.127,63.083,41.426,68.922c10.579,14.814,3.608,49.838-3.863,70.032c0,9.666,0,157.677,0,157.677h0.035
			c-0.012,0.104-0.035,0.221-0.035,0.337c0,9.051,7.337,16.405,16.406,16.405c0.465,0,2.213,0,2.678,0
			c9.062,0,16.406-7.354,16.406-16.405c0-0.116-0.012-0.232-0.035-0.337h0.035c0,0,0-148.011,0-157.677
			c-7.471-20.194-14.436-55.218-3.869-70.032c19.31-5.838,41.426-32.108,41.438-68.922C163.607,34.182,143.838,0.593,108.75,0.023z
			 M90.439,125.354c-2.19-1.69-4.985-4.392-7.913-7.947c-2.974-3.549-6.053-7.947-8.958-13.007
			c-1.406-2.545-2.736-5.258-3.974-8.127c-1.179-2.998-2.155-5.885-2.817-9.301c-1.214-6.57-1.011-12.85-0.325-18.63
			c0.645-5.775,1.871-11.044,3.236-15.43c1.336-4.415,2.87-7.965,4.142-10.387c1.237-2.463,2.248-3.631,2.248-3.631
			s-0.215,1.568-0.319,4.166c-0.082,2.603-0.215,6.338-0.349,10.799c-0.104,8.795-0.831,20.751,0.813,31.376
			c0.308,2.486,1.19,5.304,2.045,7.831c0.796,2.638,1.76,5.246,2.794,7.744c1.976,5.042,4.107,9.719,5.938,13.75
			c1.858,3.997,3.509,7.343,4.798,9.591c1.226,2.306,2.341,3.294,2.422,3.201C94.244,127.469,92.583,127.103,90.439,125.354z"/>
	</g>
</g>
<g>
</g>
<g>
</g>
<g>
</g>
<g>
</g>
<g>
</g>
<g>
</g>
<g>
</g>
<g>
</g>
<g>
</g>
<g>
</g>
<g>
</g>
<g>
</g>
<g>
</g>
<g>
</g>
<g>
</g>
</svg>
