<?xml version="1.0" encoding="iso-8859-1"?>
<!-- Generator: Adobe Illustrator 16.0.0, SVG Export Plug-In . SVG Version: 6.00 Build 0)  -->
<!DOCTYPE svg PUBLIC "-//W3C//DTD SVG 1.1//EN" "http://www.w3.org/Graphics/SVG/1.1/DTD/svg11.dtd">
<svg version="1.1" id="Capa_1" xmlns="http://www.w3.org/2000/svg" xmlns:xlink="http://www.w3.org/1999/xlink" x="0px" y="0px"
	 width="380.721px" height="380.721px" viewBox="0 0 380.721 380.721" style="enable-background:new 0 0 380.721 380.721;"
	 xml:space="preserve">
<g>
	<g>
		<path d="M190.372,29.813c-88.673,0-160.546,71.873-160.546,160.547c0,68.922,43.523,127.527,104.51,150.288l2.283-44.325
			c0-32.125-23.725-21.82-23.725-44.313c0-12.583,0.383-38.829,0.383-58.512c0-52.487,22.285-103.278,27.769-114.595
			c5.496-11.322,18.468-23.661,18.607-11.787c0,17.236,0.726,217.775,0.726,217.775h-0.035l2.557,63.496
			c8.946,1.546,18.084,2.51,27.472,2.51c11.491,0,22.68-1.243,33.474-3.567l5.438-105.033c0,0-9.457-3.113-11.525-4.112
			c-20.042-8.831-34.606-34.845-34.606-68.585c0-36.82,28.553-68.539,56.171-68.8c0.034,0,0.034,0,0.058,0c0.012,0,0.035,0,0.047,0
			c27.617,0.262,56.176,31.98,56.176,68.8c0,33.74-14.581,59.731-34.6,68.585c-0.151,0.069-11.607,4.218-11.607,4.218l4.949,95.156
			c56.804-24.725,96.562-81.295,96.562-147.208C350.907,101.687,279.034,29.813,190.372,29.813z"/>
		<path d="M206.662,153.285c0.569-2.341,1.336-4.566,1.382-4.601c0.244-0.883-0.221-1.771-1.161-2.347
			c-0.906-0.488-2.021-0.232-2.533,0.552c0,0-1.092,1.749-2.684,4.328c-1.302,2.225-3.219,5.78-4.52,10.207
			c-1.139,3.88-2.486,9.045-3.091,14.813c-0.268,3.033-0.325,5.769-0.232,8.592c0.232,3.212,0.721,5.96,1.65,9.097
			c3.137,8.981,5.576,17.649,14.337,26.2c2.776,2.858,5.624,4.799,7.669,6.228l0.731,0.511c0.441,0.291,0.871,0.559,1.29,0.791
			c1.719,0.918,2.881,1.242,3.09,1.289c0.86,0.221,1.743-0.197,2.115-0.883c0.337-0.732,0.093-1.65-0.628-2.242
			c0,0-0.999-0.859-2.277-2.486c-0.883-1-1.835-2.417-2.951-4.02c-0.778-1.162-1.708-2.44-2.556-3.695
			c-4.275-6.518-6.739-15.615-10.144-24.934c-0.662-2.028-1.22-4.642-1.417-6.867c-0.268-2.574-0.406-5.048-0.406-7.343
			c-0.094-5.333,0.139-9.911,0.604-13.623C205.488,158.653,205.907,155.51,206.662,153.285z"/>
		<path d="M190.372,0C85.415,0,0,85.397,0,190.36C0,295.3,85.415,380.721,190.372,380.721c104.952,0,190.35-85.421,190.35-190.361
			C380.721,85.397,295.324,0,190.372,0z M190.372,366.523c-97.144,0-176.18-79.03-176.18-176.163
			c0-97.144,79.036-176.18,176.18-176.18c97.133,0,176.175,79.036,176.175,176.18C366.546,287.493,287.504,366.523,190.372,366.523z
			"/>
	</g>
</g>
<g>
</g>
<g>
</g>
<g>
</g>
<g>
</g>
<g>
</g>
<g>
</g>
<g>
</g>
<g>
</g>
<g>
</g>
<g>
</g>
<g>
</g>
<g>
</g>
<g>
</g>
<g>
</g>
<g>
</g>
</svg>
