<?xml version="1.0" encoding="iso-8859-1"?>
<!-- Generator: Adobe Illustrator 16.0.0, SVG Export Plug-In . SVG Version: 6.00 Build 0)  -->
<!DOCTYPE svg PUBLIC "-//W3C//DTD SVG 1.1//EN" "http://www.w3.org/Graphics/SVG/1.1/DTD/svg11.dtd">
<svg version="1.1" id="Capa_1" xmlns="http://www.w3.org/2000/svg" xmlns:xlink="http://www.w3.org/1999/xlink" x="0px" y="0px"
	 width="380.721px" height="380.721px" viewBox="0 0 380.721 380.721" style="enable-background:new 0 0 380.721 380.721;"
	 xml:space="preserve">
<g>
	<g>
		<path d="M199.713,140.307c0.569-2.341,1.336-4.566,1.383-4.601c0.244-0.883-0.221-1.777-1.162-2.347
			c-0.906-0.488-2.021-0.238-2.533,0.546c0,0-1.092,1.749-2.684,4.334c-1.301,2.225-3.219,5.78-4.525,10.207
			c-1.127,3.875-2.486,9.039-3.091,14.813c-0.261,3.033-0.319,5.769-0.227,8.586c0.227,3.212,0.715,5.96,1.645,9.103
			c3.143,8.97,5.583,17.637,14.343,26.2c2.777,2.848,5.624,4.799,7.669,6.217l0.731,0.511c0.441,0.302,0.871,0.558,1.29,0.802
			c1.72,0.918,2.882,1.243,3.091,1.29c0.859,0.221,1.742-0.198,2.103-0.884c0.349-0.743,0.104-1.649-0.616-2.23
			c0-0.023-0.999-0.883-2.277-2.51c-0.883-0.976-1.835-2.416-2.951-4.02c-0.777-1.15-1.707-2.439-2.556-3.684
			c-4.275-6.518-6.739-15.627-10.144-24.939c-0.662-2.022-1.22-4.642-1.417-6.867c-0.267-2.568-0.406-5.042-0.406-7.337
			c-0.093-5.333,0.14-9.911,0.604-13.623C198.54,145.675,198.958,142.532,199.713,140.307z"/>
		<path d="M319.375,34.351H61.341c-14.918,0-27.001,12.095-27.001,27.008v258.027c0,14.907,12.083,27.014,27.001,27.014h65.082
			l3.248-63.043c0-32.113-23.726-21.819-23.726-44.302c0-12.583,0.384-38.829,0.384-58.523c0-52.476,22.284-103.267,27.769-114.583
			c5.495-11.328,18.468-23.662,18.607-11.793c0,17.242,0.726,217.77,0.726,217.77h-0.035l2.998,74.475h59.9l6.041-117.069
			c0,0-9.457-3.091-11.525-4.113c-20.042-8.83-34.605-34.833-34.605-68.573c0-36.825,28.553-68.544,56.17-68.806
			c0.035,0,0.035,0,0.059,0c0.012,0,0.034,0,0.046,0c27.618,0.261,56.177,31.98,56.177,68.806c0,33.741-14.582,59.743-34.601,68.573
			c-0.151,0.069-11.607,4.229-11.607,4.229l6.077,116.941h70.851c14.918,0,27.001-12.095,27.001-27.013V61.347
			C346.375,46.434,334.292,34.351,319.375,34.351z"/>
		<path d="M341.264,0H39.463C17.701,0,0,17.701,0,39.463v301.778c0,21.773,17.701,39.48,39.463,39.48h301.778
			c21.773,0,39.48-17.707,39.48-39.457V39.463C380.721,17.701,363.014,0,341.264,0z M364.931,341.264
			c0,13.059-10.631,23.667-23.667,23.667H39.463c-13.059,0-23.673-10.62-23.673-23.667V39.463c0-13.065,10.625-23.673,23.673-23.673
			h301.778c13.06,0,23.679,10.619,23.679,23.673v301.801H364.931z"/>
	</g>
</g>
<g>
</g>
<g>
</g>
<g>
</g>
<g>
</g>
<g>
</g>
<g>
</g>
<g>
</g>
<g>
</g>
<g>
</g>
<g>
</g>
<g>
</g>
<g>
</g>
<g>
</g>
<g>
</g>
<g>
</g>
</svg>
