<?xml version="1.0" encoding="iso-8859-1"?>
<!-- Generator: Adobe Illustrator 16.0.0, SVG Export Plug-In . SVG Version: 6.00 Build 0)  -->
<!DOCTYPE svg PUBLIC "-//W3C//DTD SVG 1.1//EN" "http://www.w3.org/Graphics/SVG/1.1/DTD/svg11.dtd">
<svg version="1.1" id="Capa_1" xmlns="http://www.w3.org/2000/svg" xmlns:xlink="http://www.w3.org/1999/xlink" x="0px" y="0px"
	 width="32px" height="32px" viewBox="0 0 32 32" style="enable-background:new 0 0 32 32;" xml:space="preserve">
<g>
	<path d="M32,11.188c0-1.406-1.581-2.296-5.286-2.977c-2.812-0.516-6.495-0.809-10.426-0.837V7.371c-0.097,0-0.19,0.003-0.288,0.003
		c-0.097,0-0.191-0.003-0.288-0.003v0.005C11.781,7.404,8.096,7.697,5.286,8.213C1.581,8.893,0,9.782,0,11.188
		c0,0.094,0.008,0.185,0.022,0.272C-0.211,16.096,3.8,24.629,10.07,24.629c2.255,0,4.095,0,5.642,0c0.187,0,0.38,0,0.576,0
		c1.547,0,3.387,0,5.642,0c6.271,0,10.281-8.534,10.049-13.167C31.992,11.374,32,11.282,32,11.188z M16,13.018
		c-7.932-0.03-12.638-1.11-13.889-1.829C3.362,10.471,8.068,9.392,16,9.36c7.934,0.029,12.639,1.109,13.891,1.828
		C28.639,11.907,23.932,12.987,16,13.018z"/>
</g>
<g>
</g>
<g>
</g>
<g>
</g>
<g>
</g>
<g>
</g>
<g>
</g>
<g>
</g>
<g>
</g>
<g>
</g>
<g>
</g>
<g>
</g>
<g>
</g>
<g>
</g>
<g>
</g>
<g>
</g>
</svg>
