<?xml version="1.0" encoding="iso-8859-1"?>
<!-- Generator: Adobe Illustrator 16.0.0, SVG Export Plug-In . SVG Version: 6.00 Build 0)  -->
<!DOCTYPE svg PUBLIC "-//W3C//DTD SVG 1.1//EN" "http://www.w3.org/Graphics/SVG/1.1/DTD/svg11.dtd">
<svg version="1.1" id="Capa_1" xmlns="http://www.w3.org/2000/svg" xmlns:xlink="http://www.w3.org/1999/xlink" x="0px" y="0px"
	 width="380.721px" height="380.721px" viewBox="0 0 380.721 380.721" style="enable-background:new 0 0 380.721 380.721;"
	 xml:space="preserve">
<g>
	<g>
		<path d="M6.483,230.991h12.264c-11.096,73.86,63.891,118.406,93.077,132.768v16.963h94.709v-16.963
			c29.187-14.373,104.173-58.907,93.065-132.768h12.27v-30.476H6.483V230.991z M44.819,243.354c0.058-2.73,0.854-4.893,1.15-6.774
			c0.837-3.741,1.441-5.856,1.441-5.856s0.581,2.115,1.371,5.856c0.447,1.836,0.674,4.218,1.447,6.669
			c0.836,2.417,1.777,5.066,2.585,7.877c0.976,2.801,2.667,5.799,3.852,8.994c1.301,3.172,3.503,6.215,5.071,9.585
			c1.842,3.265,4.293,6.366,6.257,9.771c2.452,3.149,4.653,6.519,7.331,9.598c2.58,3.137,4.985,6.414,7.791,9.318
			c2.725,2.975,5.269,6.064,8.022,8.807c5.292,5.682,10.526,10.806,14.965,15.337c9.138,9.132,15.226,15.186,15.226,15.186
			s-8.638-2.196-20.118-8.655c-5.733-3.242-12.205-7.425-18.572-12.723c-6.542-5.102-12.647-11.607-18.404-18.463
			c-2.782-3.474-5.176-7.354-7.697-10.968c-2.225-3.869-4.212-7.784-5.949-11.653c-1.487-4.031-3.067-7.819-3.88-11.643
			c-0.773-3.88-1.615-7.412-1.83-10.887C44.709,249.245,44.767,246.083,44.819,243.354z"/>
		<path d="M338.29,35.809C328.53,25.997,313.786,11.09,302.667,0c-23.354,7.924-42.269,32.765-42.71,56.502
			c-0.465,24.434-49.832,52.383-49.832,52.383l0.093,0.087c-0.291,0.198-0.581,0.401-0.825,0.651
			c-5.81,5.763,1.859,22.953,17.149,38.394c15.29,15.43,32.416,23.272,38.237,17.515c0.383-0.383,0.685-0.796,0.94-1.26l0.023,0.023
			c0,0,27.757-49.165,52.168-50.065c19.055-0.738,48.508-19.56,56.327-42.937C363.107,60.179,348.13,45.522,338.29,35.809z
			 M223.625,127.556c-2.707-2.701-3.729-6.047-2.289-7.5c1.418-1.44,4.787-0.424,7.506,2.266c2.685,2.684,3.707,6.042,2.266,7.483
			C229.667,131.245,226.332,130.216,223.625,127.556z M236.986,147.435c-1.429,1.441-4.774,0.413-7.482-2.271
			c-2.707-2.69-3.729-6.036-2.288-7.471c1.429-1.452,4.786-0.418,7.482,2.249C237.405,142.654,238.427,145.995,236.986,147.435z
			 M252.009,150.59c-1.44,1.435-4.811,0.413-7.518-2.277c-2.707-2.684-3.729-6.03-2.289-7.471c1.418-1.453,4.787-0.418,7.506,2.26
			C252.381,145.792,253.427,149.149,252.009,150.59z M357.809,76.834c-0.802,1.319-1.812,2.928-2.975,4.746
			c-1.161,1.859-2.893,3.608-4.705,5.641c-0.918,0.964-1.778,2.103-2.917,3.079c-1.15,0.895-2.37,1.824-3.602,2.777
			c-2.394,2.115-5.438,3.556-8.551,5.147c-3.207,1.272-6.623,2.667-10.225,3.189c-3.532,0.761-7.146,0.93-10.271,1.487
			c-2.51,0.633-5.611,2.109-8.458,3.643c-2.882,1.662-5.763,3.178-8.412,4.984c-2.73,1.667-5.286,3.416-7.703,5.077
			c-2.486,1.621-4.636,3.393-6.728,4.903c-2.149,1.487-3.811,3.021-5.507,4.311c-1.673,1.272-3.067,2.498-4.102,3.648
			c-2.196,2.155-3.509,3.323-3.509,3.323s0.825-1.557,2.439-4.177c0.779-1.331,1.824-2.818,3.242-4.52
			c1.348-1.69,2.823-3.776,4.752-5.56c1.871-1.888,3.799-4.09,6.193-5.995c2.288-2.01,4.705-4.177,7.436-6.077
			c2.672-2.027,5.554-3.991,8.609-5.786c3.16-1.737,6.263-3.509,10.55-4.624c3.729-0.575,7.122-0.622,10.306-1.267
			c3.207-0.447,6.204-1.295,9.109-2.236c2.765-1.272,5.646-2.161,7.993-3.817c2.44-1.417,4.811-2.783,6.704-4.497
			c1.894-1.655,3.95-2.893,5.438-4.369c1.487-1.487,2.777-2.794,3.846-3.852c2.161-2.155,3.532-3.346,3.532-3.346
			S359.435,74.214,357.809,76.834z"/>
		<path d="M195.856,140.499c4.764,0,8.633,3.439,8.633,7.686c0,4.241-3.869,7.686-8.633,7.686s-8.626-3.445-8.626-7.686
			C187.23,143.938,191.092,140.499,195.856,140.499z"/>
		<path d="M224.333,162.987c4.764,0,8.633,3.439,8.633,7.68c0,4.247-3.869,7.691-8.633,7.691s-8.621-3.445-8.621-7.691
			C215.712,166.426,219.57,162.987,224.333,162.987z"/>
		<ellipse cx="188.728" cy="184.162" rx="8.639" ry="7.686"/>
	</g>
</g>
<g>
</g>
<g>
</g>
<g>
</g>
<g>
</g>
<g>
</g>
<g>
</g>
<g>
</g>
<g>
</g>
<g>
</g>
<g>
</g>
<g>
</g>
<g>
</g>
<g>
</g>
<g>
</g>
<g>
</g>
</svg>
