<?xml version="1.0" encoding="iso-8859-1"?>
<!-- Generator: Adobe Illustrator 16.0.0, SVG Export Plug-In . SVG Version: 6.00 Build 0)  -->
<!DOCTYPE svg PUBLIC "-//W3C//DTD SVG 1.1//EN" "http://www.w3.org/Graphics/SVG/1.1/DTD/svg11.dtd">
<svg version="1.1" id="Capa_1" xmlns="http://www.w3.org/2000/svg" xmlns:xlink="http://www.w3.org/1999/xlink" x="0px" y="0px"
	 width="32px" height="32px" viewBox="0 0 32 32" style="enable-background:new 0 0 32 32;" xml:space="preserve">
<g>
	<g>
		<path d="M31.098,12.318c-0.787-0.087-9.156,1.228-10.611,1.538c-1.453,0.31-4.339,1.177-4.339,1.177l0.003,0.142l-1.118,0.075
			c-0.015-0.111-0.028-0.215-0.043-0.297h0.189v-0.774H0v0.773h0.202c-0.09,0.517-0.188,1.689-0.128,2.781
			C0.146,19.091,0.65,21.77,0.712,22.1v0.584H14.48v-0.589c0.064-0.34,0.563-3.006,0.638-4.362c0.031-0.601,0.016-1.22-0.019-1.745
			l-0.006-0.066l1.071-0.072l0.005,0.196c0,0,2.789-0.744,4.503-0.893c1.715-0.149,9.328-0.599,10.451-0.676
			C32.246,14.399,32.348,12.457,31.098,12.318z M1.964,21.087C1.89,20.934,1.8,20.763,1.74,20.574
			c-0.066-0.188-0.149-0.383-0.191-0.604c-0.045-0.213-0.123-0.449-0.137-0.664C1.39,19.08,1.35,18.884,1.341,18.623
			c0-0.23,0.001-0.468,0.001-0.695c0.024-0.228,0.048-0.449,0.07-0.668c0.071-0.428,0.169-0.819,0.283-1.147
			c0.224-0.657,0.498-1.038,0.498-1.038s-0.038,0.446-0.095,1.12c-0.021,0.333-0.039,0.716-0.055,1.122
			c-0.002,0.41-0.005,0.84,0.02,1.271c0.004,0.186,0.033,0.438,0.048,0.647c0.015,0.228,0.05,0.412,0.069,0.615
			c0.053,0.396,0.119,0.774,0.182,1.1c0.129,0.646,0.25,1.095,0.25,1.095S2.271,21.716,1.964,21.087z"/>
		<path d="M14.953,13.78c0-0.729,0.172-1.509-1.783-1.509c-0.397,0-1.051,0-1.841,0c-0.539-0.267-1.19-0.476-1.918-0.613
			c0.016-0.414-0.033-1.172-0.514-1.729C8.654,9.65,8.204,9.316,7.43,9.316c-0.777,0-1.223,0.335-1.461,0.616
			c-0.47,0.555-0.506,1.309-0.483,1.726c-0.729,0.137-1.382,0.346-1.922,0.613c-0.862,0-1.553,0-1.913,0
			c-1.604,0-1.41,0.907-1.41,1.509C0.968,13.78,14.427,13.78,14.953,13.78z M6.8,10.636c0.048-0.058,0.196-0.232,0.63-0.232
			c0.294,0,0.504,0.078,0.643,0.235c0.197,0.229,0.246,0.595,0.25,0.868c-0.286-0.022-0.578-0.035-0.876-0.035
			c-0.299,0-0.592,0.013-0.877,0.035C6.568,11.241,6.607,10.863,6.8,10.636z"/>
	</g>
</g>
<g>
</g>
<g>
</g>
<g>
</g>
<g>
</g>
<g>
</g>
<g>
</g>
<g>
</g>
<g>
</g>
<g>
</g>
<g>
</g>
<g>
</g>
<g>
</g>
<g>
</g>
<g>
</g>
<g>
</g>
</svg>
