<?xml version="1.0" encoding="iso-8859-1"?>
<!-- Generator: Adobe Illustrator 16.0.0, SVG Export Plug-In . SVG Version: 6.00 Build 0)  -->
<!DOCTYPE svg PUBLIC "-//W3C//DTD SVG 1.1//EN" "http://www.w3.org/Graphics/SVG/1.1/DTD/svg11.dtd">
<svg version="1.1" id="Capa_1" xmlns="http://www.w3.org/2000/svg" xmlns:xlink="http://www.w3.org/1999/xlink" x="0px" y="0px"
	 width="380.737px" height="380.737px" viewBox="0 0 380.737 380.737" style="enable-background:new 0 0 380.737 380.737;"
	 xml:space="preserve">
<g>
	<path d="M130.035,313.294c-5.49-5.484-14.633-14.629-24.585-24.574l117.917-117.924l6.263,6.257l7.982-7.982
		c0,0,10.887-29.006,49.879-51.146c6.46-6.472,88.476-88.459,88.476-88.459l-0.022-0.035c0.069-0.07,0.162-0.11,0.243-0.18
		c6.065-6.065,6.065-15.917,0-21.988c-6.076-6.065-15.929-6.065-21.994,0c-0.069,0.076-0.127,0.157-0.197,0.227l-0.023-0.023
		c0,0-80.772,80.773-88.255,88.255c-30.627,43.367-52.122,49.327-52.122,49.327l-7.993,7.97l6.809,6.809l-117.906,117.9
		c-10.062-10.05-19.903-19.892-26.706-26.677c-16.138-16.139-40.421-3.834-47.033,2.754c-6.605,6.611-46.103,46.092,5.078,97.283
		c51.174,51.169,94.193,14.616,99.119,9.667C129.878,355.864,142.955,326.202,130.035,313.294z M370.449,13.95
		c3.416,3.404,3.416,8.923,0,12.328c-3.404,3.416-17.765,12.252-21.181,8.842c-3.404-3.404,5.438-17.765,8.854-21.169
		C361.526,10.551,367.056,10.54,370.449,13.95z M69.258,310.911c-19.879-19.879-45.719-45.104-32.741-55.618
		c17.289-12.676,32.648,6.773,59.18,33.334c26.531,26.537,34.862,28.036,30.993,47.369
		C119.886,359.687,89.131,330.779,69.258,310.911z"/>
</g>
<g>
</g>
<g>
</g>
<g>
</g>
<g>
</g>
<g>
</g>
<g>
</g>
<g>
</g>
<g>
</g>
<g>
</g>
<g>
</g>
<g>
</g>
<g>
</g>
<g>
</g>
<g>
</g>
<g>
</g>
</svg>
