<?xml version="1.0" encoding="iso-8859-1"?>
<!-- Generator: Adobe Illustrator 16.0.0, SVG Export Plug-In . SVG Version: 6.00 Build 0)  -->
<!DOCTYPE svg PUBLIC "-//W3C//DTD SVG 1.1//EN" "http://www.w3.org/Graphics/SVG/1.1/DTD/svg11.dtd">
<svg version="1.1" id="Capa_1" xmlns="http://www.w3.org/2000/svg" xmlns:xlink="http://www.w3.org/1999/xlink" x="0px" y="0px"
	 width="380.741px" height="380.742px" viewBox="0 0 380.741 380.742" style="enable-background:new 0 0 380.741 380.742;"
	 xml:space="preserve">
<g>
	<path d="M356.612,144.781c25.364-25.375,22.703-69.183-5.948-97.835C322.001,18.277,245.991-16.596,220.628,8.779
		c-22.715,22.703,0.5,83.974,28.256,118.859C217.793,165.556,89.941,292.059,77.358,290.7c-5.705,5.705-66.424,66.413-66.424,66.413
		l0.023,0.022c-0.069,0.07-0.163,0.094-0.221,0.163c-5.356,5.368-5.356,14.059,0,19.427c5.368,5.367,14.059,5.344,19.403,0
		c0.081-0.07,0.116-0.14,0.186-0.209l0.012,0.023c0,0,59.604-59.639,66.215-66.227c2.893-15.965,124.762-141.376,163.382-170.301
		l-1.161-1.179C287.446,167.484,331.237,170.133,356.612,144.781z M229.748,65.722c0,0-0.022-0.023-0.034-0.023
		c-0.221-0.227-1-1.081-1.72-2.736l-0.198-0.476c-0.639-1.58-1.51-3.735-1.975-6.437c-1.604-8.15-1.44-15.278,0.523-21.75
		c0.836-2.26,1.742-4.09,2.962-6.053c1.104-1.679,2.336-3.294,3.857-5.106c2.951-3.375,6.135-6.123,8.284-7.895
		c2.73-2.266,5.426-3.764,7.181-4.642l3.462-1.714c0.697-0.349,1.557-0.093,1.918,0.546c0.406,0.656,0.255,1.51-0.372,1.975
		c-0.012,0.012-1.452,1.092-2.789,2.294c-1.476,1.133-3.265,3.12-5.158,5.211c-1.883,2.051-3.974,4.711-6.228,7.947
		c-0.965,1.325-1.94,2.858-2.928,4.583c-0.86,1.417-1.662,3.167-2.104,4.607c-1.952,6.756-2.312,14.396-2.545,19.45
		c0.012,1.046-0.012,2.126-0.034,3.102c-0.023,1.325-0.059,2.475,0.034,3.358c0.082,1.429,0.314,2.248,0.314,2.248
		c0.186,0.657-0.07,1.354-0.65,1.702C230.979,66.268,230.236,66.187,229.748,65.722z"/>
</g>
<g>
</g>
<g>
</g>
<g>
</g>
<g>
</g>
<g>
</g>
<g>
</g>
<g>
</g>
<g>
</g>
<g>
</g>
<g>
</g>
<g>
</g>
<g>
</g>
<g>
</g>
<g>
</g>
<g>
</g>
</svg>
