<?xml version="1.0" encoding="iso-8859-1"?>
<!-- Generator: Adobe Illustrator 16.0.0, SVG Export Plug-In . SVG Version: 6.00 Build 0)  -->
<!DOCTYPE svg PUBLIC "-//W3C//DTD SVG 1.1//EN" "http://www.w3.org/Graphics/SVG/1.1/DTD/svg11.dtd">
<svg version="1.1" id="Capa_1" xmlns="http://www.w3.org/2000/svg" xmlns:xlink="http://www.w3.org/1999/xlink" x="0px" y="0px"
	 width="380.721px" height="380.721px" viewBox="0 0 380.721 380.721" style="enable-background:new 0 0 380.721 380.721;"
	 xml:space="preserve">
<g>
	<path d="M174.315,302.84c-6.007,0-16.046,0-26.956,0V173.502h6.861v-8.755c0,0-9.934-21.884-0.691-55.409
		c0-7.093,0-97.034,0-97.034h-0.023c0-0.087,0.023-0.157,0.023-0.238C153.529,5.403,148.133,0,141.48,0
		c-6.663,0-12.065,5.403-12.065,12.066c0,0.082,0.012,0.151,0.012,0.238h-0.012c0,0,0,88.587,0,96.807
		c6.982,40.584-1.545,55.659-1.545,55.659v8.743h7.459v129.339c-11.038,0-21.82,0-29.279,0
		c-17.689-0.012-24.271,20.055-24.271,27.305c0,7.227,0,50.564,56.13,50.564c56.136,0,59.679-43.652,59.679-49.055
		C197.587,326.276,188.49,302.84,174.315,302.84z M142.016,6.809c3.735,0,6.768,3.033,6.768,6.756
		c0,3.735-3.021,16.464-6.768,16.464c-3.736,0-6.757-12.717-6.757-16.464C135.247,9.841,138.28,6.809,142.016,6.809z
		 M139.686,334.874c-21.808,0-49.815,0.325-48.473-12.56c2.533-16.417,21.628-14.163,50.744-14.163
		c29.111,0,34.502-3.741,42.983,8.98C194.224,333.875,161.494,334.874,139.686,334.874z"/>
	<path d="M282.618,321.709c-4.275,0-11.443,0-19.217,0V194.008h5.623v-7.122c0,0-8.086-17.753-0.558-44.988c0-5.757,0-78.81,0-78.81
		h-0.046c0-0.058,0.046-0.116,0.046-0.174c0-5.426-4.415-9.806-9.806-9.806c-5.402,0-9.795,4.392-9.795,9.806
		c0,0.058,0.023,0.116,0.023,0.174h-0.023c0,0,0,71.937,0,78.635c5.682,32.957-1.243,45.185-1.243,45.185v7.099h5.624v127.701
		c-7.018,0-13.745,0-18.521,0c-12.409,0-17.021,14.07-17.021,19.159c0,5.077,0,35.448,39.376,35.448
		c39.375,0,41.861-30.615,41.861-34.402C298.942,338.116,292.541,321.709,282.618,321.709z M259.079,58.657
		c3.044,0,5.508,2.445,5.508,5.484c0,3.044-2.464,13.373-5.508,13.373c-3.021,0-5.484-10.329-5.484-13.373
		C253.595,61.103,256.059,58.657,259.079,58.657z M258.312,344.192c-15.302,0-34.949,0.232-33.996-8.83
		c1.766-11.514,15.174-9.945,35.6-9.945s24.19-2.615,30.139,6.297C296.584,343.459,273.614,344.192,258.312,344.192z"/>
	<path d="M174.315,302.84c-6.007,0-16.046,0-26.956,0V173.502h6.861v-8.755c0,0-9.934-21.884-0.691-55.409
		c0-7.093,0-97.034,0-97.034h-0.023c0-0.087,0.023-0.157,0.023-0.238C153.529,5.403,148.133,0,141.48,0
		c-6.663,0-12.065,5.403-12.065,12.066c0,0.082,0.012,0.151,0.012,0.238h-0.012c0,0,0,88.587,0,96.807
		c6.982,40.584-1.545,55.659-1.545,55.659v8.743h7.459v129.339c-11.038,0-21.82,0-29.279,0
		c-17.689-0.012-24.271,20.055-24.271,27.305c0,7.227,0,50.564,56.13,50.564c56.136,0,59.679-43.652,59.679-49.055
		C197.587,326.276,188.49,302.84,174.315,302.84z M142.016,6.809c3.735,0,6.768,3.033,6.768,6.756
		c0,3.735-3.021,16.464-6.768,16.464c-3.736,0-6.757-12.717-6.757-16.464C135.247,9.841,138.28,6.809,142.016,6.809z
		 M139.686,334.874c-21.808,0-49.815,0.325-48.473-12.56c2.533-16.417,21.628-14.163,50.744-14.163
		c29.111,0,34.502-3.741,42.983,8.98C194.224,333.875,161.494,334.874,139.686,334.874z"/>
	<path d="M282.618,321.709c-4.275,0-11.443,0-19.217,0V194.008h5.623v-7.122c0,0-8.086-17.753-0.558-44.988c0-5.757,0-78.81,0-78.81
		h-0.046c0-0.058,0.046-0.116,0.046-0.174c0-5.426-4.415-9.806-9.806-9.806c-5.402,0-9.795,4.392-9.795,9.806
		c0,0.058,0.023,0.116,0.023,0.174h-0.023c0,0,0,71.937,0,78.635c5.682,32.957-1.243,45.185-1.243,45.185v7.099h5.624v127.701
		c-7.018,0-13.745,0-18.521,0c-12.409,0-17.021,14.07-17.021,19.159c0,5.077,0,35.448,39.376,35.448
		c39.375,0,41.861-30.615,41.861-34.402C298.942,338.116,292.541,321.709,282.618,321.709z M259.079,58.657
		c3.044,0,5.508,2.445,5.508,5.484c0,3.044-2.464,13.373-5.508,13.373c-3.021,0-5.484-10.329-5.484-13.373
		C253.595,61.103,256.059,58.657,259.079,58.657z M258.312,344.192c-15.302,0-34.949,0.232-33.996-8.83
		c1.766-11.514,15.174-9.945,35.6-9.945s24.19-2.615,30.139,6.297C296.584,343.459,273.614,344.192,258.312,344.192z"/>
</g>
<g>
</g>
<g>
</g>
<g>
</g>
<g>
</g>
<g>
</g>
<g>
</g>
<g>
</g>
<g>
</g>
<g>
</g>
<g>
</g>
<g>
</g>
<g>
</g>
<g>
</g>
<g>
</g>
<g>
</g>
</svg>
