<?xml version="1.0" encoding="iso-8859-1"?>
<!-- Generator: Adobe Illustrator 16.0.0, SVG Export Plug-In . SVG Version: 6.00 Build 0)  -->
<!DOCTYPE svg PUBLIC "-//W3C//DTD SVG 1.1//EN" "http://www.w3.org/Graphics/SVG/1.1/DTD/svg11.dtd">
<svg version="1.1" id="Capa_1" xmlns="http://www.w3.org/2000/svg" xmlns:xlink="http://www.w3.org/1999/xlink" x="0px" y="0px"
	 width="380.731px" height="380.731px" viewBox="0 0 380.731 380.731" style="enable-background:new 0 0 380.731 380.731;"
	 xml:space="preserve">
<g>
	<path d="M325.833,343.204c7.203-0.058,15.243-9.806,20.03-18.392c14.094-1.94,34.693-18.892,34.867-38.063
		c0.059-7.25-2.963-10.99-5.507-12.85c-5.008-3.73-11.862-2.986-16.963-1.766c0.162-3.963,0.14-7.506-0.023-10.248
		c-6.448,0-15.093,0-23.807,0c-0.987-10.41-2.37-23.877-3.881-32.881c-2.776-16.533-13.315-28.152-21.366-37.227
		c-4.915-5.565-10.562-8.4-14.198-9.783c1.649-2.196,2.638-3.509,2.638-3.509s-2.092-16.528-28.024-25.997
		c-25.991-9.469-60.604,15.714-60.604,15.714s8.9-31.55-33.642-70.363l4.514-9.911c7.291,1.086,14.953-1.673,19.711-7.994
		c6.919-9.185,5.106-22.261-4.113-29.198c-9.172-6.919-22.249-5.089-29.174,4.107c-4.677,6.198-5.281,14.099-2.44,20.739
		l-8.162,6.576C128.93,63.485,107.947,59.227,92,60.818c-7.494-19.258-19.903-39.381-38.394-36.117
		C29.219,28.949-0.908,57.467,0.021,83.411c0.384,11.125,6.96,19.333,14.756,25.212c5.223,3.939,10.991,6.809,15.848,8.819
		c-5.263,16.295-5.24,34.025,8.267,47.218l-4.13,5.472l93.716,70.63l4.119-5.449c28.483,10.295,59.366-19.334,79.071-32.765
		c19.926-13.628,46.765-39.039,72.732-6.553c1.441-1.894,2.766-3.671,4.031-5.321c4.439,8.354,14.279,29.697,9.807,47.602
		c-2.289,9.19-4.717,17.207-6.832,23.609c-10.387,0-29.662,0-43.547,0c-1.021,18.659,6.158,79.007,33.428,81.33
		c0,1.336,0,2.406,0,3.126h-52.703v10.038h152.135v-10.038h-54.886C325.833,345.61,325.833,344.541,325.833,343.204z
		 M357.494,283.136c5.948-1.777,9.875-2.138,11.571-0.895c1.069,0.802,1.29,2.847,1.255,4.416
		c-0.081,10.654-10.178,20.762-18.811,25.375C354.705,302.517,356.541,292.292,357.494,283.136z M36.585,103.174
		c-9.202-3.782-20.751-10.718-21.111-20.321C14.87,65.687,38.903,42.96,56.273,39.928c1.359-0.238,3.556-0.238,6.925,2.689
		c5.153,4.427,9.708,12.751,13.42,21.82c-8.366,3.201-14.599,7.651-18.881,10.753C52.514,78.984,43.434,89.778,36.585,103.174z
		 M112.775,78.13c-3.108,1.191-7.39,3.259-12.252,6.094c-9.638,5.612-21.86,14.43-29.424,25.828
		c-1.632,2.614-3.997,6.46-5.438,9.277c-1.597,3.178-3.224,6.355-4.595,9.475c-2.684,6.303-4.805,12.345-6.176,17.689
		c-1.272,5.315-1.736,9.899-1.411,13.112c0.261,3.224,1.388,4.996,1.388,4.996s-0.401-0.296-1.162-0.872
		c-0.703-0.616-1.812-1.685-2.632-3.306c-1.83-3.201-3.329-8.435-3.416-14.622c-0.151-6.21,0.772-13.443,3.05-20.774
		c1.104-3.689,2.423-7.401,4.224-11.061c1.998-3.974,3.34-6.89,5.949-10.759c4.874-7.187,11.334-12.851,17.904-16.975
		C85.36,82.127,92,79.403,97.879,77.822c5.868-1.632,10.934-2.155,14.512-2.033c3.643,0.012,5.595,1.249,5.415,1.342
		C117.806,76.928,115.894,76.847,112.775,78.13z M267.867,319.062c-5.938-13.711-10.201-50.844-10.201-50.844
		s12.049,33.369,14.779,42.617c2.73,9.26,14.732,22.389,14.732,22.389S273.804,332.759,267.867,319.062z"/>
</g>
<g>
</g>
<g>
</g>
<g>
</g>
<g>
</g>
<g>
</g>
<g>
</g>
<g>
</g>
<g>
</g>
<g>
</g>
<g>
</g>
<g>
</g>
<g>
</g>
<g>
</g>
<g>
</g>
<g>
</g>
</svg>
