<?xml version="1.0" encoding="iso-8859-1"?>
<!-- Generator: Adobe Illustrator 16.0.0, SVG Export Plug-In . SVG Version: 6.00 Build 0)  -->
<!DOCTYPE svg PUBLIC "-//W3C//DTD SVG 1.1//EN" "http://www.w3.org/Graphics/SVG/1.1/DTD/svg11.dtd">
<svg version="1.1" id="Capa_1" xmlns="http://www.w3.org/2000/svg" xmlns:xlink="http://www.w3.org/1999/xlink" x="0px" y="0px"
	 width="380.726px" height="380.725px" viewBox="0 0 380.726 380.725" style="enable-background:new 0 0 380.726 380.725;"
	 xml:space="preserve">
<g>
	<path d="M380.455,75.418c-1.243-5.298-4.322-18.299-6.181-26.119c-0.884-3.695-1.488-6.257-1.488-6.257
		c-1.812-7.837-4.902-20.844-6.169-26.125c-1.824-7.761-11.271-9.185-16.452-7.97c-5.182,1.22-151.973,35.867-172.247,40.653
		c-20.286,4.816-31.254,35.658-45.499,39.021c-14.239,3.37-78.56,18.538-78.56,18.538l1.203,5.112
		c-5.426,3.265-19.096,11.996-26.828,21.796c-6.309,8.011-4.473,25.225-2.371,36.442c-6.396-0.459-11.287-0.924-11.287-0.924
		s-23.882,59.406-10.509,81.376c13.374,21.948,37.691,36.285,37.691,50.031c0,13.744,0,42.861,0,42.861
		c0,14.674-26.827,23.608-38.26,26.815c-2.452,0.743-1.737,1.487,0,1.487c1.667,0,37.633,0,41.275,0c0.186,0,0.354,0,0.354,0
		c3.642,0,39.608,0,41.264,0c1.737,0,2.458-0.744,0-1.487c-11.438-3.207-36.982-12.142-36.982-26.815
		c0-0.291-0.023-0.594-0.035-0.884h-0.046c0-4.717,0-29.558,0-41.966c0-13.746,24.33-28.071,37.691-50.043
		c13.385-21.971-10.503-81.376-10.503-81.376s-9.458,0.9-19.322,1.441c-0.761-8.703-2.074-19.287-3.393-27.269
		c-2.091-12.508,2.794-15.552,4.845-16.278l1.673,7.11c0,0,64.321-15.18,78.571-18.555c14.233-3.358,37.848,19.333,58.123,14.546
		c20.304-4.781,167.082-39.463,172.265-40.677C374.472,88.669,382.279,83.174,380.455,75.418z M28.392,266.348
		c-3.654-3.706-7.703-8.261-11.427-13.745c-1.76-2.812-3.684-5.693-5.031-9.074c-0.749-1.568-1.318-3.531-1.853-5.473
		c-0.325-1.975-0.714-3.078-0.668-5.483c0-7.228,0.883-14.082,2.068-20.472c1.087-6.391,2.486-12.258,3.869-17.23
		c2.736-9.969,5.246-16.406,5.246-16.406s-0.604,6.884-1.714,17.08c-0.558,5.077-1.226,11.002-1.929,17.334
		c-0.65,6.298-1.365,13.072-1.249,19.531c-0.197,1.023,0.25,3.323,0.477,4.683c0.406,1.337,0.703,2.685,1.371,4.147
		c1.115,2.905,2.591,5.752,4.113,8.436c3.096,5.379,6.512,10.236,9.463,14.361c5.972,8.26,10.276,13.675,10.276,13.675
		S35.752,273.703,28.392,266.348z M355.776,78.997c-5.762,1.801-13.941,4.7-23.876,7.616c-19.833,5.995-46.486,13.158-73.302,19.537
		c-13.432,3.056-26.886,6.146-39.551,8.708c-6.355,1.238-12.479,2.429-18.299,3.631c-2.655,0.709-6.541,0.569-9.58,0.674
		c-2.985-0.453-5.814-1.104-8.458-1.725c-2.544-0.912-4.973-1.784-7.244-2.614c-2.19-1.051-4.235-2.039-6.199-2.975
		c-3.782-1.987-7.029-3.799-9.603-5.426c-5.188-3.201-7.865-5.403-7.865-5.403s3.177,1.464,8.76,3.666
		c2.771,1.15,6.21,2.394,10.161,3.712c3.938,1.295,8.446,2.353,13.298,3.387c2.404,0.255,4.949,0.488,7.447,0.61
		c2.486-0.558,4.49-0.227,7.534-1.272c5.723-1.568,11.753-3.224,17.98-4.949c12.489-3.381,25.886-6.629,39.282-9.922
		c26.852-6.297,53.876-11.828,74.302-15.291c10.178-1.841,18.787-2.928,24.771-3.88c5.996-0.866,9.446-1.22,9.446-1.22
		S361.54,77.08,355.776,78.997z"/>
</g>
<g>
</g>
<g>
</g>
<g>
</g>
<g>
</g>
<g>
</g>
<g>
</g>
<g>
</g>
<g>
</g>
<g>
</g>
<g>
</g>
<g>
</g>
<g>
</g>
<g>
</g>
<g>
</g>
<g>
</g>
</svg>
