<?xml version="1.0" encoding="iso-8859-1"?>
<!-- Generator: Adobe Illustrator 16.0.0, SVG Export Plug-In . SVG Version: 6.00 Build 0)  -->
<!DOCTYPE svg PUBLIC "-//W3C//DTD SVG 1.1//EN" "http://www.w3.org/Graphics/SVG/1.1/DTD/svg11.dtd">
<svg version="1.1" id="Capa_1" xmlns="http://www.w3.org/2000/svg" xmlns:xlink="http://www.w3.org/1999/xlink" x="0px" y="0px"
	 width="380.721px" height="380.721px" viewBox="0 0 380.721 380.721" style="enable-background:new 0 0 380.721 380.721;"
	 xml:space="preserve">
<g>
	<path d="M243.661,304.909v-39.956h-4.102c0,0-38.446-35.913-6.843-144.275c-0.5-12.27,0-29.006,0-38.574
		c18.206-3.091,16.939-50.861-32.173-54.608c3.184-2.893,5.206-7.058,5.206-11.683C205.75,7.064,198.662,0,189.931,0
		c-8.72,0-15.796,7.064-15.796,15.801c0,4.688,2.057,8.877,5.281,11.764c-48.352,4.177-49.531,51.471-31.411,54.526
		c0,9.568,0.499,26.305,0,38.574c31.614,108.374-6.838,144.287-6.838,144.287h-4.107v39.956h7.663v10.398h-7.663v44.616h8.482
		v20.798h44.488h0.674h44.488v-20.798h8.47v-44.616h-7.657v-10.398H243.661z"/>
</g>
<g>
</g>
<g>
</g>
<g>
</g>
<g>
</g>
<g>
</g>
<g>
</g>
<g>
</g>
<g>
</g>
<g>
</g>
<g>
</g>
<g>
</g>
<g>
</g>
<g>
</g>
<g>
</g>
<g>
</g>
</svg>
