<?xml version="1.0" encoding="iso-8859-1"?>
<!-- Generator: Adobe Illustrator 16.0.0, SVG Export Plug-In . SVG Version: 6.00 Build 0)  -->
<!DOCTYPE svg PUBLIC "-//W3C//DTD SVG 1.1//EN" "http://www.w3.org/Graphics/SVG/1.1/DTD/svg11.dtd">
<svg version="1.1" id="Capa_1" xmlns="http://www.w3.org/2000/svg" xmlns:xlink="http://www.w3.org/1999/xlink" x="0px" y="0px"
	 width="380.72px" height="380.72px" viewBox="0 0 380.72 380.72" style="enable-background:new 0 0 380.72 380.72;"
	 xml:space="preserve">
<g>
	<path d="M380.72,12.937L368.997,1.231L163.404,211.157l-8.174-8.168l-7.325,7.332l0.023,0.639
		c0.128,3.752-0.181,9.922-1.418,13.094l-6.163-6.181l-7.936,7.936l6.867,6.866c-30.9,34.113-68.707,69.097-79.263,69.178h-0.604
		l-0.43,0.418c-4.723,4.74-55.084,55.096-55.084,55.096l-0.168,0.175c-0.18,0.175-0.354,0.36-0.511,0.558l-0.035,0.059
		c-4.427,5.042-4.235,12.757,0.569,17.566c2.428,2.44,5.664,3.766,9.103,3.766c2.405,0,4.711-0.651,6.722-1.918v0.5l2.521-2.51
		c0,0,49.449-49.449,54.933-54.934l0.331-0.324l0.082-0.453c1.737-9.586,36.918-49.159,70.113-78.902l6.739,6.727l7.936-7.924
		l-5.978-5.973c2.766-1.092,7.901-1.592,12.45-1.592l1.092,0.012l7.319-7.331l-7.674-7.668L379.628,13.988L380.72,12.937z"/>
</g>
<g>
</g>
<g>
</g>
<g>
</g>
<g>
</g>
<g>
</g>
<g>
</g>
<g>
</g>
<g>
</g>
<g>
</g>
<g>
</g>
<g>
</g>
<g>
</g>
<g>
</g>
<g>
</g>
<g>
</g>
</svg>
