<?xml version="1.0" encoding="iso-8859-1"?>
<!-- Generator: Adobe Illustrator 16.0.0, SVG Export Plug-In . SVG Version: 6.00 Build 0)  -->
<!DOCTYPE svg PUBLIC "-//W3C//DTD SVG 1.1//EN" "http://www.w3.org/Graphics/SVG/1.1/DTD/svg11.dtd">
<svg version="1.1" id="Capa_1" xmlns="http://www.w3.org/2000/svg" xmlns:xlink="http://www.w3.org/1999/xlink" x="0px" y="0px"
	 width="380.735px" height="380.736px" viewBox="0 0 380.735 380.736" style="enable-background:new 0 0 380.735 380.736;"
	 xml:space="preserve">
<g>
	<path d="M130.424,259.837l108.315-108.321l5.879,5.891l7.192-7.181c0,0,9.794-26.13,44.94-46.08
		c5.81-5.821,79.681-79.692,79.681-79.692l-0.023-0.023c0.07-0.069,0.163-0.104,0.222-0.186c5.472-5.461,5.472-14.326,0.011-19.798
		c-5.472-5.473-14.337-5.473-19.81,0c-0.069,0.081-0.104,0.151-0.174,0.221l-0.023-0.012c0,0-72.756,72.756-79.507,79.495
		c-27.594,39.074-46.985,44.441-46.985,44.441l-7.181,7.18l5.879,5.891L120.525,249.985c-28.936-23.97-71.874-22.412-98.962,4.682
		c-28.756,28.769-28.744,75.395,0,104.15c28.768,28.768,75.394,28.768,104.162,0C152.831,331.71,154.388,288.756,130.424,259.837z
		 M371.494,10.489c3.067,3.067,3.067,8.04,0,11.107c-3.079,3.067-16.022,11.026-19.09,7.959s4.892-15.999,7.971-19.066
		C363.442,7.41,368.415,7.41,371.494,10.489z M113.745,323.194c1.795,1.789,1.807,4.717,0.012,6.518
		c-1.795,1.778-4.711,1.778-6.518-0.012c-1.79-1.789-1.79-4.717,0-6.518C109.046,321.381,111.95,321.393,113.745,323.194z
		 M132.544,282.459c1.795,1.789,1.807,4.717,0.011,6.506c-1.801,1.801-4.711,1.789-6.523,0c-1.784-1.789-1.784-4.705,0-6.518
		C127.845,280.669,130.743,280.669,132.544,282.459z M114.663,289.616c1.795,1.789,1.795,4.706,0,6.519
		c-1.801,1.777-4.711,1.777-6.512-0.012c-1.795-1.79-1.795-4.718,0-6.507C109.952,287.815,112.851,287.815,114.663,289.616z
		 M92.03,320.184c1.795,1.802,1.812,4.718,0,6.519c-1.784,1.79-4.712,1.79-6.507,0c-1.783-1.801-1.795-4.717,0-6.519
		C87.318,318.395,90.247,318.383,92.03,320.184z M97.59,304.836c1.795,1.801,1.807,4.717,0,6.529
		c-1.79,1.789-4.712,1.778-6.513-0.012c-1.783-1.789-1.783-4.705,0-6.518C92.89,303.047,95.8,303.047,97.59,304.836z
		 M76.862,325.576c1.795,1.79,1.807,4.718,0,6.507c-1.784,1.801-4.711,1.789-6.506,0c-1.783-1.789-1.795-4.706,0-6.519
		C72.15,323.787,75.078,323.787,76.862,325.576z M100.25,281.459c-1.795-1.789-1.795-4.705-0.012-6.506
		c1.813-1.801,4.712-1.789,6.524,0c1.795,1.789,1.795,4.717,0,6.506C104.962,283.26,102.051,283.249,100.25,281.459z
		 M90.473,296.424c-1.795,1.801-4.711,1.801-6.506,0c-1.801-1.789-1.801-4.705-0.012-6.506c1.807-1.789,4.711-1.777,6.518,0
		C92.269,291.719,92.269,294.624,90.473,296.424z M112.897,260.976c1.789-1.801,4.711-1.79,6.512,0c1.784,1.801,1.784,4.706,0,6.519
		c-1.801,1.789-4.711,1.789-6.512-0.012C111.102,265.694,111.091,262.789,112.897,260.976z M93.413,265.868
		c1.784,1.789,1.795,4.705,0,6.506c-1.795,1.801-4.711,1.789-6.506,0c-1.789-1.801-1.801-4.717,0-6.506
		C88.689,264.067,91.618,264.067,93.413,265.868z M99.239,248.102c1.79,1.801,1.801,4.706,0,6.519c-1.795,1.789-4.711,1.789-6.506,0
		c-1.784-1.79-1.795-4.706,0-6.519C94.517,246.301,97.444,246.313,99.239,248.102z M61.014,296.785c-1.795,1.79-4.711,1.79-6.506,0
		c-1.795-1.789-1.807-4.706,0-6.507c1.783-1.812,4.711-1.801,6.506,0C62.797,292.079,62.797,294.996,61.014,296.785z M78.36,262.475
		c1.795,1.789,1.795,4.705,0.012,6.506c-1.807,1.789-4.711,1.789-6.506,0c-1.795-1.801-1.807-4.705-0.011-6.506
		C73.649,260.663,76.577,260.674,78.36,262.475z M62.728,273.896c-1.795,1.789-4.711,1.789-6.518-0.012
		c-1.784-1.789-1.784-4.718,0-6.507c1.795-1.801,4.711-1.789,6.506,0.012C64.511,269.19,64.523,272.095,62.728,273.896z
		 M48.512,281.599c-1.79,1.778-4.711,1.778-6.512-0.012c-1.783-1.789-1.795-4.718,0-6.519c1.801-1.789,4.711-1.777,6.512,0
		C50.308,276.87,50.319,279.775,48.512,281.599z M76.932,245.372c1.789,1.789,1.801,4.718,0,6.519c-1.783,1.789-4.711,1.789-6.507,0
		c-1.795-1.801-1.795-4.718,0-6.519C72.208,243.571,75.137,243.583,76.932,245.372z M53.897,250.322c1.789,1.801,1.789,4.718,0,6.53
		c-1.795,1.777-4.711,1.777-6.506-0.012c-1.795-1.79-1.807-4.718,0-6.519C49.187,248.52,52.103,248.532,53.897,250.322z
		 M27.877,262.533c1.812-1.801,4.711-1.777,6.512,0c1.807,1.802,1.807,4.718,0.012,6.507c-1.801,1.801-4.711,1.801-6.524,0
		C26.083,267.262,26.083,264.334,27.877,262.533z M14.354,290.208c-1.784-1.801-1.795-4.718,0-6.507
		c1.795-1.801,4.711-1.801,6.506,0c1.784,1.778,1.795,4.706,0,6.507C19.076,292.021,16.137,292.009,14.354,290.208z M11.449,310.368
		c-1.784-1.79-1.795-4.718,0-6.519c1.784-1.79,4.711-1.79,6.506,0c1.801,1.801,1.801,4.717,0,6.519
		C16.16,312.157,13.232,312.157,11.449,310.368z M32.804,293.264c-1.783-1.789-1.795-4.705,0-6.506
		c1.801-1.789,4.711-1.789,6.513,0.012c1.795,1.789,1.795,4.705,0,6.506C37.515,295.077,34.587,295.065,32.804,293.264z
		 M29.237,305.092c1.795-1.801,4.711-1.801,6.506,0c1.795,1.789,1.795,4.705,0,6.506c-1.795,1.801-4.711,1.789-6.506,0
		C27.442,309.797,27.442,306.893,29.237,305.092z M14.673,332.674c-1.783-1.801-1.795-4.717,0-6.518
		c1.783-1.789,4.711-1.777,6.507,0c1.789,1.801,1.801,4.717,0,6.518C19.396,334.463,16.468,334.463,14.673,332.674z M31.508,326.285
		c-1.795-1.79-1.795-4.718,0-6.507c1.795-1.789,4.711-1.789,6.506,0c1.801,1.789,1.801,4.706,0,6.519
		C36.22,328.097,33.315,328.074,31.508,326.285z M49.116,311.958c-1.795-1.801-1.807-4.717,0-6.519c1.784-1.801,4.712-1.789,6.507,0
		c1.789,1.79,1.801,4.706,0,6.519C53.828,313.76,50.9,313.749,49.116,311.958z M69.844,291.219c-1.801-1.789-1.801-4.717,0-6.506
		c1.784-1.801,4.711-1.789,6.506,0c1.783,1.789,1.795,4.705,0,6.506C74.556,293.043,71.639,293.032,69.844,291.219z M27.953,352.438
		c-1.783-1.789-1.801-4.705,0-6.506c1.783-1.789,4.711-1.777,6.506,0c1.784,1.801,1.795,4.717,0,6.506
		C32.664,354.239,29.736,354.239,27.953,352.438z M40.739,339.658c-1.795-1.801-1.795-4.718-0.012-6.507
		c1.812-1.801,4.712-1.789,6.524,0c1.795,1.789,1.795,4.706,0,6.507C45.451,341.447,42.54,341.447,40.739,339.658z M57.586,326.935
		c-1.795-1.789-1.795-4.706,0-6.507c1.801-1.801,4.711-1.801,6.524,0c1.783,1.778,1.783,4.706,0,6.507
		C62.286,328.748,59.388,328.737,57.586,326.935z M68.868,312.854c-2.585-2.592-2.585-6.751,0-9.33c2.579-2.58,6.745-2.58,9.312,0
		c2.585,2.579,2.585,6.738,0,9.33C75.602,315.432,71.436,315.42,68.868,312.854z M53.828,342.11c1.795-1.802,4.711-1.802,6.506,0
		c1.801,1.777,1.812,4.705,0,6.506c-1.783,1.789-4.711,1.777-6.506,0C52.044,346.803,52.044,343.887,53.828,342.11z M46.026,366.207
		c-1.801-1.79-1.812-4.706,0-6.519c1.784-1.801,4.711-1.789,6.506,0.012c1.784,1.789,1.795,4.717,0,6.507
		C50.737,367.996,47.821,367.996,46.026,366.207z M69.583,351.926c-1.801-1.777-1.801-4.705,0-6.506
		c1.795-1.777,4.711-1.777,6.506,0.012c1.795,1.789,1.795,4.717,0,6.506C74.294,353.739,71.378,353.728,69.583,351.926z
		 M109.888,311.622c-1.795-1.789-1.795-4.705-0.012-6.506c1.813-1.801,4.712-1.801,6.524,0c1.795,1.789,1.795,4.717,0,6.506
		C114.6,313.422,111.689,313.411,109.888,311.622z M85.512,344.909c1.795-1.777,4.712-1.777,6.507,0
		c1.795,1.801,1.807,4.718,0,6.507c-1.784,1.812-4.711,1.802-6.507,0C83.717,349.626,83.717,346.709,85.512,344.909z
		 M69.664,370.923c-1.795-1.789-1.807-4.717,0-6.507c1.783-1.801,4.711-1.789,6.507,0c1.783,1.79,1.783,4.706,0,6.519
		C74.364,372.725,71.447,372.725,69.664,370.923z M98.304,342.284c-1.79-1.801-1.801-4.717,0-6.507c1.795-1.801,4.711-1.801,6.506,0
		c1.795,1.778,1.795,4.706,0.012,6.507C102.998,344.096,100.099,344.084,98.304,342.284z M130.377,311.842
		c-1.795-1.801-1.807-4.717,0-6.518c1.784-1.801,4.711-1.789,6.506,0c1.784,1.789,1.784,4.717,0,6.518
		C135.089,313.631,132.161,313.62,130.377,311.842z M125.608,327.331c1.795-1.801,4.711-1.789,6.506,0
		c1.795,1.789,1.795,4.705,0.012,6.506c-1.807,1.801-4.711,1.801-6.518,0C123.795,332.047,123.795,329.131,125.608,327.331z
		 M95.149,366.149c-1.783-1.778-1.783-4.706,0-6.508c1.795-1.789,4.712-1.789,6.507,0.012c1.795,1.79,1.807,4.718,0,6.507
		C99.873,367.961,96.945,367.95,95.149,366.149z M113.804,352.148c-1.784-1.802-1.795-4.718,0-6.507
		c1.795-1.801,4.711-1.801,6.506,0c1.79,1.777,1.801,4.705,0,6.507C118.526,353.96,115.599,353.937,113.804,352.148z"/>
</g>
<g>
</g>
<g>
</g>
<g>
</g>
<g>
</g>
<g>
</g>
<g>
</g>
<g>
</g>
<g>
</g>
<g>
</g>
<g>
</g>
<g>
</g>
<g>
</g>
<g>
</g>
<g>
</g>
<g>
</g>
</svg>
