<?xml version="1.0" encoding="iso-8859-1"?>
<!-- Generator: Adobe Illustrator 16.0.0, SVG Export Plug-In . SVG Version: 6.00 Build 0)  -->
<!DOCTYPE svg PUBLIC "-//W3C//DTD SVG 1.1//EN" "http://www.w3.org/Graphics/SVG/1.1/DTD/svg11.dtd">
<svg version="1.1" id="Capa_1" xmlns="http://www.w3.org/2000/svg" xmlns:xlink="http://www.w3.org/1999/xlink" x="0px" y="0px"
	 width="380.709px" height="380.709px" viewBox="0 0 380.709 380.709" style="enable-background:new 0 0 380.709 380.709;"
	 xml:space="preserve">
<g>
	<g>
		<path d="M135.148,296.393c19.275,0,35.001,0,48.223,0c1.592,0,3.236,0,4.927,0c13.233,0,28.965,0,48.217,0
			c53.621,0,87.896-72.942,85.897-112.551c0.116-0.749,0.186-1.545,0.186-2.335c0-12.037-13.501-19.629-45.173-25.445
			c-24.027-4.403-55.537-6.901-89.127-7.163v-0.052c-0.825,0-1.645,0.041-2.475,0.041c-0.825,0-1.633-0.041-2.463-0.041v0.052
			c-33.613,0.25-65.106,2.748-89.127,7.163c-31.644,5.804-45.162,13.408-45.162,25.445c0,0.791,0.069,1.586,0.18,2.335
			C47.265,223.451,81.54,296.393,135.148,296.393z M185.835,165.874c67.818,0.25,108.053,9.487,118.73,15.622
			c-10.678,6.14-50.912,15.36-118.73,15.627c-67.807-0.255-108.031-9.487-118.726-15.627
			C77.804,175.361,118.028,166.136,185.835,165.874z"/>
		<path d="M144.251,90.103c1.296,2.422,2.19,3.114,3.317,4.746l2.928,3.544c0.546,1.179,1.43,2.12,1.807,3.416
			c0.965,2.452,2.016,5.054,2.324,7.913c0.941,5.612,0.865,11.467,0.627,16.597c-0.674,10.242-1.661,17.736-1.661,17.736
			s5.473-5.304,9.835-15.813c1.087-2.614,2.155-5.542,2.835-8.812c0.703-3.248,1.377-6.809,1.226-10.672
			c0-3.793-0.464-8-1.986-12.078c-0.587-2.08-1.859-4.008-2.847-6.019c-0.558-0.988-1.307-1.859-1.987-2.771l-1.045-1.371
			l-0.523-0.656l-0.133-0.174c0.064,0.081,0.18,0.186,0.372,0.412l-0.046-0.069l-0.204-0.25c-0.906-1.249-2.725-3.032-2.928-3.817
			c-0.43-0.917-1.045-1.679-1.476-3.084c-0.987-2.44-1.76-5.223-2.167-8.052c-0.831-5.664-0.738-11.566-0.5-16.696
			c0.68-10.265,1.586-17.771,1.586-17.771s-5.426,5.35-9.783,15.836c-2.179,5.211-4.102,11.729-4.2,19.392
			c0.099,3.771,0.157,7.936,1.726,12.037C141.846,85.589,143.014,87.89,144.251,90.103z"/>
		<path d="M176.517,53.742c1.307,2.44,2.189,3.131,3.322,4.758l2.923,3.521c0.552,1.191,1.429,2.144,1.812,3.439
			c0.964,2.451,2.01,5.042,2.317,7.9c0.941,5.618,0.871,11.479,0.634,16.597c-0.68,10.254-1.679,17.736-1.679,17.736
			s5.472-5.292,9.841-15.796c1.08-2.631,2.149-5.56,2.823-8.83c0.709-3.248,1.383-6.803,1.243-10.66
			c0-3.793-0.465-8.005-1.987-12.089c-0.592-2.08-1.87-4.008-2.846-6.019c-0.57-0.976-1.313-1.841-1.987-2.771l-1.046-1.359
			l-0.522-0.674l-0.116-0.18c0.058,0.082,0.162,0.192,0.365,0.418l-0.046-0.064l-0.203-0.261c-0.906-1.249-2.725-3.021-2.929-3.805
			c-0.424-0.918-1.057-1.679-1.475-3.091c-0.988-2.44-1.761-5.217-2.161-8.046c-0.849-5.699-0.738-11.566-0.5-16.713
			C184.975,7.494,185.869,0,185.869,0s-5.426,5.356-9.782,15.825c-2.173,5.211-4.102,11.741-4.195,19.38
			c0.094,3.782,0.151,7.959,1.72,12.055C174.111,49.246,175.29,51.529,176.517,53.742z"/>
		<path d="M216.403,86.699c1.289,2.44,2.173,3.125,3.3,4.77l2.939,3.521c0.534,1.179,1.429,2.132,1.812,3.439
			c0.941,2.44,1.998,5.048,2.312,7.889c0.953,5.618,0.872,11.491,0.628,16.597c-0.674,10.253-1.649,17.742-1.649,17.742
			s5.461-5.298,9.829-15.813c1.092-2.608,2.161-5.548,2.835-8.818c0.697-3.248,1.371-6.803,1.231-10.66
			c0-3.782-0.465-7.994-1.976-12.078c-0.604-2.091-1.882-4.02-2.857-6.019c-0.581-0.988-1.325-1.842-1.999-2.771l-1.046-1.359
			l-0.511-0.674l-0.151-0.18c0.082,0.081,0.175,0.203,0.372,0.43l-0.035-0.075l-0.209-0.262c-0.906-1.237-2.719-3.021-2.928-3.805
			c-0.441-0.918-1.046-1.679-1.487-3.096c-0.976-2.434-1.754-5.205-2.149-8.029c-0.849-5.699-0.731-11.578-0.499-16.713
			c0.674-10.271,1.58-17.765,1.58-17.765s-5.438,5.368-9.783,15.836c-2.161,5.211-4.113,11.741-4.194,19.38
			c0.081,3.782,0.151,7.947,1.708,12.043C213.986,82.202,215.16,84.509,216.403,86.699z"/>
		<path d="M331.614,342.415c-0.406-24.062-23.47-37.645-48.531-37.645c-25.282,0.012-43.326,15.209-47.323,28.441
			c-10.166,7.273-34.205,2.498-48.084-2.637c-6.628,0.023-108.245,0.023-108.245,0.023v0.012c-0.069,0-0.14-0.012-0.221-0.012
			c-6.21,0-11.259,5.043-11.27,11.27c0,0.314,0.011,1.511,0,1.836c0.011,6.205,5.042,11.235,11.27,11.235c0.081,0,0.151,0,0.221,0
			l0,0c0,0,101.635,0,108.257,0c13.867-5.124,37.906-9.935,48.096-2.684c3.997,13.269,22.041,28.466,47.323,28.454
			c25.061,0,48.124-13.605,48.508-37.656l0,0c0.012-0.128,0-0.535,0.023-0.65C331.638,342.415,331.626,342.415,331.614,342.415z
			 M302.056,320.444c-1.789-0.082-4.345-0.163-7.412-0.268c-6.03-0.082-14.244-0.547-21.529,0.58
			c-1.708,0.221-3.637,0.803-5.38,1.395c-1.789,0.547-3.602,1.221-5.321,1.94c-3.462,1.325-6.669,2.788-9.435,4.067
			c-2.741,1.254-5.03,2.404-6.576,3.275c-1.58,0.813-2.254,1.627-2.184,1.686c-0.093,0.023,0.15-1.15,1.348-2.615
			c1.161-1.51,3.021-3.416,5.46-5.438c2.44-2.045,5.438-4.159,8.924-6.135c1.742-0.952,3.602-1.881,5.577-2.73
			c2.045-0.824,4.031-1.486,6.39-1.928c4.485-0.849,8.808-0.709,12.781-0.244c3.973,0.441,7.575,1.277,10.596,2.23
			c3.033,0.906,5.461,1.964,7.134,2.835c1.696,0.86,2.498,1.546,2.498,1.546S303.834,320.49,302.056,320.444z"/>
	</g>
</g>
<g>
</g>
<g>
</g>
<g>
</g>
<g>
</g>
<g>
</g>
<g>
</g>
<g>
</g>
<g>
</g>
<g>
</g>
<g>
</g>
<g>
</g>
<g>
</g>
<g>
</g>
<g>
</g>
<g>
</g>
</svg>
