<?xml version="1.0" encoding="iso-8859-1"?>
<!-- Generator: Adobe Illustrator 16.0.0, SVG Export Plug-In . SVG Version: 6.00 Build 0)  -->
<!DOCTYPE svg PUBLIC "-//W3C//DTD SVG 1.1//EN" "http://www.w3.org/Graphics/SVG/1.1/DTD/svg11.dtd">
<svg version="1.1" id="Capa_1" xmlns="http://www.w3.org/2000/svg" xmlns:xlink="http://www.w3.org/1999/xlink" x="0px" y="0px"
	 width="380.717px" height="380.717px" viewBox="0 0 380.717 380.717" style="enable-background:new 0 0 380.717 380.717;"
	 xml:space="preserve">
<g>
	<path d="M344.469,36.263c-35.309-31.928-87.396-53.109-122.112-18.393c-26.699,26.711-19.914,48.839-8.481,87.245
		c7.157,71.943-72.181,116.024-72.181,116.024L3.909,358.914l0.023,0.023c-0.059,0.058-0.146,0.093-0.204,0.151
		c-4.961,4.961-4.961,12.978-0.058,17.962c4.984,4.903,13.001,4.892,17.963-0.058c0.063-0.059,0.099-0.128,0.156-0.197l0.023,0.022
		l137.774-137.786c0,0,44.087-79.332,116.03-72.181c38.388,11.421,60.533,18.212,87.232-8.481
		C397.567,123.653,376.375,71.555,344.469,36.263z M238.24,29.792c-0.022,0.012-1.22,1.406-2.312,2.928
		c-1.174,1.371-2.161,3.567-3.742,6.46c-1.394,2.51-2.857,5.734-4.31,9.591c-0.663,1.667-1.267,3.474-1.802,5.397
		c-0.487,1.656-1.149,6.059-1.242,7.738c-0.198,7.634,1.463,15.738,2.684,21.651c0.29,1.168,0.558,2.318,0.79,3.381
		c0.325,1.487,0.627,2.759,0.964,3.735c0.477,1.534,0.953,2.417,0.941,2.44c0.349,0.616,0.256,1.354-0.186,1.772
		c-0.488,0.441-1.197,0.453-1.767,0.058c-0.14-0.105-0.883-0.657-1.858-1.83c-0.232-0.262-0.465-0.575-0.686-0.93l-0.396-0.569
		c-1.058-1.621-2.544-3.822-3.729-6.651c-3.881-8.673-5.646-16.458-5.367-23.795c0.231-2.539,0.976-7.046,1.73-9.376
		c0.732-2.033,1.568-4.02,2.591-6.106c2.092-3.997,4.531-7.314,6.46-9.765c2.22-2.806,4.369-4.892,5.949-6.094
		c1.87-1.423,3.172-2.353,3.172-2.353c0.581-0.441,1.429-0.296,1.963,0.319C238.612,28.45,238.681,29.245,238.24,29.792z"/>
</g>
<g>
</g>
<g>
</g>
<g>
</g>
<g>
</g>
<g>
</g>
<g>
</g>
<g>
</g>
<g>
</g>
<g>
</g>
<g>
</g>
<g>
</g>
<g>
</g>
<g>
</g>
<g>
</g>
<g>
</g>
</svg>
