<?xml version="1.0" encoding="iso-8859-1"?>
<!-- Generator: Adobe Illustrator 16.0.0, SVG Export Plug-In . SVG Version: 6.00 Build 0)  -->
<!DOCTYPE svg PUBLIC "-//W3C//DTD SVG 1.1//EN" "http://www.w3.org/Graphics/SVG/1.1/DTD/svg11.dtd">
<svg version="1.1" id="Capa_1" xmlns="http://www.w3.org/2000/svg" xmlns:xlink="http://www.w3.org/1999/xlink" x="0px" y="0px"
	 width="380.727px" height="380.727px" viewBox="0 0 380.727 380.727" style="enable-background:new 0 0 380.727 380.727;"
	 xml:space="preserve">
<g>
	<path d="M355.243,27.349c-36.413-36.407-98.422-33.444-138.506,6.64c-27.739,27.745-37.686,65.959-29.104,98.95
		c-0.285,0.511-0.25,1.441,0.261,2.951c-0.011-0.012-0.034-0.023-0.034-0.035c6.913,63.612-131.28,157.886-131.28,157.886
		L1.64,348.698h0.012c-0.064,0.058-0.134,0.104-0.18,0.15c-4.369,4.369,1.963,17.812,6.327,22.18
		c4.38,4.393,17.823,10.725,22.191,6.355c0.058-0.046,0.104-0.127,0.157-0.186l0.012,0.012l54.799-54.793
		c0,0,98.608-137.601,157.863-128.619c2.277,0.953,12.386,2.451,12.386,2.451s-0.105-0.081-0.151-0.15
		c31.696,6.204,67.296-4.009,93.53-30.25C388.693,125.765,391.667,63.756,355.243,27.349z M274.122,31.642
		c-0.035,0-3.288,1.511-6.448,3.37c-3.23,1.499-7.123,4.375-12.246,8.255c-4.555,3.37-9.771,7.959-15.477,13.646
		c-2.533,2.44-5.077,5.188-7.587,8.197c-2.219,2.55-4.531,5.902-6.019,8.818c-6.529,13.478-10.108,29.314-12.699,40.869
		c-0.43,2.271-0.871,4.578-1.312,6.658c-0.593,2.916-1.115,5.449-1.302,7.465c-0.395,3.125-0.255,5.089-0.278,5.124
		c0.116,1.382-0.628,2.62-1.778,3.009c-1.185,0.383-2.486-0.174-3.206-1.331c-0.187-0.296-1.046-1.871-1.836-4.758
		c-0.175-0.668-0.372-1.429-0.5-2.236l-0.197-1.336c-0.615-3.747-1.47-8.882-1.301-14.895c0.081-18.596,3.218-33.944,9.666-46.853
		c2.463-4.316,4.973-7.778,8.203-11.357c2.939-3.062,6.041-5.938,9.551-8.819c6.982-5.449,14.023-9.411,19.449-12.229
		c6.216-3.236,12.106-4.967,15.895-5.833c4.508-1.034,7.575-1.667,7.575-1.667c1.371-0.273,2.788,0.645,3.219,2.155
		C275.887,29.539,275.365,31.026,274.122,31.642z"/>
</g>
<g>
</g>
<g>
</g>
<g>
</g>
<g>
</g>
<g>
</g>
<g>
</g>
<g>
</g>
<g>
</g>
<g>
</g>
<g>
</g>
<g>
</g>
<g>
</g>
<g>
</g>
<g>
</g>
<g>
</g>
</svg>
