<?xml version="1.0" encoding="iso-8859-1"?>
<!-- Generator: Adobe Illustrator 16.0.0, SVG Export Plug-In . SVG Version: 6.00 Build 0)  -->
<!DOCTYPE svg PUBLIC "-//W3C//DTD SVG 1.1//EN" "http://www.w3.org/Graphics/SVG/1.1/DTD/svg11.dtd">
<svg version="1.1" id="Capa_1" xmlns="http://www.w3.org/2000/svg" xmlns:xlink="http://www.w3.org/1999/xlink" x="0px" y="0px"
	 width="380.731px" height="380.732px" viewBox="0 0 380.731 380.732" style="enable-background:new 0 0 380.731 380.732;"
	 xml:space="preserve">
<g>
	<g>
		<path d="M224.885,0h-9.934l2.23,215.05l-8.458,0.012v6.053c0,0,6.482,6.02,6.703,9.354h-6.703v6.064h7.063
			c1.569,30.488,0.767,72.303-5.483,78.646c0,4.893,0.012,57.037,0.012,57.037l0.022,0.012c-0.011,0.046-0.034,0.104-0.022,0.162
			c0,4.613,3.729,8.33,8.307,8.33c4.613,0,8.343-3.717,8.343-8.342c0-0.047-0.023-0.104,0-0.162c0,0,0-51.192,0-56.862
			c-4.602-6.622-6.437-48.089-4.694-78.821l6.925-0.012v-6.041l-6.519-0.012c0.268-3.312,6.519-9.354,6.519-9.354v-6.041h-7.959
			L224.885,0z"/>
		<path d="M349.797,43.256c0-21.03-13.826-38.08-30.87-38.08c-17.045,0-30.871,17.05-30.871,38.08
			c0,19.31,11.653,35.234,26.77,37.708c2.486,51.61,0.976,220.214-5.368,225.304c0,5.576,0,64.809,0,64.809h0.023
			c0,0.069-0.023,0.115-0.023,0.174c0,5.24,4.253,9.48,9.47,9.48s9.469-4.24,9.469-9.469c0-0.081-0.012-0.139-0.012-0.186
			l0.012-0.023c0,0,0-58.151,0-64.611c-5.891-8.494-7.808-174.274-4.346-225.682C338.644,77.752,349.797,62.143,349.797,43.256z"/>
		<path d="M102.035,302.469c0,5.845-0.011,68.097-0.011,68.097h0.034c0,0.07-0.034,0.14-0.023,0.209
			c-0.011,5.484,4.461,9.945,9.958,9.945c5.484,0,9.945-4.461,9.945-9.945c0-0.081-0.012-0.139-0.012-0.209h0.023
			c0,0,0-61.137,0-67.922c-6.71-9.668-8.528-136.451-3.556-171.08h-1.202h-10.265C110.54,165.293,109.256,296.671,102.035,302.469z"
			/>
		<path d="M117.18,37.372c-29.39-0.012-86.245,21.07-86.245,47.102c0,26.008,54.131,47.387,86.257,47.09
			c29.39,0.012,53.208-21.082,53.208-47.09C170.399,58.454,146.569,37.36,117.18,37.372z"/>
	</g>
</g>
<g>
</g>
<g>
</g>
<g>
</g>
<g>
</g>
<g>
</g>
<g>
</g>
<g>
</g>
<g>
</g>
<g>
</g>
<g>
</g>
<g>
</g>
<g>
</g>
<g>
</g>
<g>
</g>
<g>
</g>
</svg>
