<?xml version="1.0" encoding="iso-8859-1"?>
<!-- Generator: Adobe Illustrator 16.0.0, SVG Export Plug-In . SVG Version: 6.00 Build 0)  -->
<!DOCTYPE svg PUBLIC "-//W3C//DTD SVG 1.1//EN" "http://www.w3.org/Graphics/SVG/1.1/DTD/svg11.dtd">
<svg version="1.1" id="Capa_1" xmlns="http://www.w3.org/2000/svg" xmlns:xlink="http://www.w3.org/1999/xlink" x="0px" y="0px"
	 width="380.721px" height="380.721px" viewBox="0 0 380.721 380.721" style="enable-background:new 0 0 380.721 380.721;"
	 xml:space="preserve">
<g>
	<g>
		<path d="M45.365,23.784C20.321,23.784,0,55.253,0,84.747c0,24.713,14.303,45.446,33.671,51.541
			c8.336,18.63,2.237,126.167-4.293,143.828c0.011,8.714,0,59.987,0,59.987l0.035,0.011c-0.012,0.094-0.023,0.21-0.023,0.279
			c-0.011,8.18,6.623,14.803,14.785,14.803c0.418,0,1.975-0.023,2.405,0c8.185-0.023,14.802-6.635,14.79-14.803
			c0.012-0.093-0.029-0.197-0.029-0.29l0.029,0.011c0,0,0.012-51.284,0-59.998c-6.547-17.66-12.646-125.186-4.311-143.828
			c19.38-6.083,33.683-26.816,33.683-51.541C90.742,55.253,70.421,23.784,45.365,23.784z M64.722,53.708
			c0,2.702-2.19,4.875-4.88,4.875c-2.684,0-4.874-2.185-4.874-4.875c0-2.689,2.19-4.879,4.874-4.879
			C62.532,48.828,64.722,51.006,64.722,53.708z M34.659,80.965c0,2.701-2.19,4.874-4.88,4.874c-2.69,0-4.88-2.185-4.88-4.874
			c0-2.69,2.19-4.88,4.88-4.88C32.468,76.085,34.659,78.264,34.659,80.965z M32.695,66.628c0-2.702,2.19-4.88,4.88-4.88
			c2.684,0,4.874,2.19,4.874,4.88c0,2.689-2.19,4.874-4.874,4.874C34.885,71.502,32.695,69.317,32.695,66.628z M39.539,89.313
			c2.695,0,4.874,2.19,4.874,4.88c0,2.69-2.19,4.88-4.874,4.88c-2.69,0-4.88-2.19-4.88-4.88
			C34.659,91.503,36.849,89.313,39.539,89.313z M40.485,80.965c0-2.702,2.19-4.88,4.88-4.88s4.88,2.19,4.88,4.88
			c0,2.689-2.19,4.874-4.88,4.874S40.485,83.655,40.485,80.965z M48.293,66.628c0-2.702,2.19-4.88,4.88-4.88
			c2.684,0,4.874,2.19,4.874,4.88c0,2.689-2.19,4.874-4.874,4.874C50.483,71.502,48.293,69.317,48.293,66.628z M55.13,89.313
			c2.702,0,4.88,2.19,4.88,4.88c0,2.69-2.19,4.88-4.88,4.88c-2.684,0-4.874-2.19-4.874-4.88
			C50.256,91.503,52.435,89.313,55.13,89.313z M55.775,80.965c0-2.702,2.19-4.88,4.88-4.88s4.874,2.19,4.874,4.88
			c0,2.689-2.184,4.874-4.874,4.874S55.775,83.655,55.775,80.965z M53.173,36.228c2.696,0,4.874,2.19,4.874,4.88
			c0,2.689-2.19,4.88-4.874,4.88c-2.69,0-4.88-2.19-4.88-4.88C48.293,38.417,50.472,36.228,53.173,36.228z M49.46,53.708
			c0,2.702-2.201,4.875-4.891,4.875s-4.88-2.185-4.88-4.875c0-2.689,2.202-4.879,4.88-4.879
			C47.271,48.816,49.46,51.006,49.46,53.708z M37.575,36.228c2.695,0,4.874,2.19,4.874,4.88c0,2.689-2.19,4.88-4.874,4.88
			c-2.689,0-4.88-2.19-4.88-4.88C32.695,38.417,34.885,36.228,37.575,36.228z M28.983,48.816c2.701,0,4.88,2.19,4.88,4.88
			c0,2.689-2.19,4.874-4.88,4.874s-4.88-2.185-4.88-4.874C24.103,51.006,26.282,48.816,28.983,48.816z M22.296,61.736
			c2.701,0,4.88,2.19,4.88,4.88c0,2.689-2.19,4.874-4.88,4.874c-2.69,0-4.88-2.185-4.88-4.874
			C17.417,63.926,19.595,61.736,22.296,61.736z M15.61,85.839c-2.701,0-4.88-2.185-4.88-4.874c0-2.69,2.19-4.88,4.88-4.88
			c2.689,0,4.88,2.19,4.88,4.88C20.49,83.655,18.299,85.839,15.61,85.839z M19.38,94.193c0-2.701,2.19-4.88,4.88-4.88
			s4.88,2.19,4.88,4.88c0,2.69-2.19,4.88-4.88,4.88S19.38,96.895,19.38,94.193z M32.05,111.685c-2.701,0-4.874-2.19-4.874-4.88
			c0-2.69,2.184-4.88,4.874-4.88c2.689,0,4.88,2.19,4.88,4.88C36.93,109.495,34.751,111.685,32.05,111.685z M38.737,124.605
			c-2.701,0-4.874-2.19-4.874-4.88s2.184-4.88,4.874-4.88c2.689,0,4.88,2.19,4.88,4.88S41.426,124.605,38.737,124.605z
			 M42.449,106.805c0-2.701,2.19-4.88,4.88-4.88c2.69,0,4.88,2.19,4.88,4.88c0,2.689-2.19,4.88-4.88,4.88
			C44.639,111.685,42.449,109.495,42.449,106.805z M54.968,124.605c-2.702,0-4.88-2.19-4.88-4.88s2.19-4.88,4.88-4.88
			c2.689,0,4.874,2.19,4.874,4.88S57.669,124.605,54.968,124.605z M62.927,111.685c-2.702,0-4.88-2.19-4.88-4.88
			c0-2.69,2.19-4.88,4.88-4.88s4.88,2.19,4.88,4.88C67.807,109.495,65.628,111.685,62.927,111.685z M70.409,99.073
			c-2.702,0-4.88-2.19-4.88-4.88c0-2.689,2.19-4.88,4.88-4.88s4.88,2.19,4.88,4.88C75.289,96.883,73.111,99.073,70.409,99.073z
			 M80.163,80.965c0,2.701-2.184,4.874-4.874,4.874s-4.88-2.185-4.88-4.874c0-2.69,2.19-4.88,4.88-4.88S80.163,78.264,80.163,80.965
			z M73.326,66.628c0,2.701-2.19,4.874-4.88,4.874c-2.69,0-4.88-2.185-4.88-4.874c0-2.69,2.19-4.88,4.88-4.88
			C71.135,61.748,73.326,63.926,73.326,66.628z"/>
		<path d="M243.841,25.521c-25.038,0-45.371,31.48-45.371,60.963c0,24.725,14.291,45.458,33.671,51.541
			c8.33,18.631,2.242,126.185-4.299,143.833c0,8.715,0,60,0,60h0.023c0,0.092-0.023,0.197-0.023,0.278
			c0,8.179,6.635,14.802,14.803,14.802c0.418-0.012,1.975-0.023,2.393,0c8.191-0.023,14.803-6.646,14.791-14.802
			c0.012-0.104-0.023-0.198-0.023-0.278h0.023c0,0,0.012-51.297,0-60c-6.541-17.648-12.652-125.179-4.311-143.833
			c19.38-6.083,33.694-26.816,33.694-51.541C289.212,56.99,268.903,25.521,243.841,25.521z"/>
		<path d="M164.921,31.592v65.744h-15.598V25.794c-1.331-0.163-2.696-0.273-4.078-0.273c-2.306,0-4.566,0.308-6.78,0.761v71.066
			h-15.598V33.457C109.146,43.762,99.88,62.811,99.88,82.714c0,24.625,14.181,45.318,33.468,51.465
			c8.615,17.387,2.486,126.429-4.119,144.193c0.012,8.726,0,59.999,0,59.999l0.041,0.023c-0.018,0.081-0.029,0.186-0.029,0.268
			c-0.012,8.168,6.628,14.802,14.79,14.802c0.418-0.012,1.987-0.012,2.405,0.012c8.186-0.023,14.797-6.646,14.797-14.813
			c0-0.094-0.023-0.198-0.035-0.291l0.035,0.023c0,0,0-51.309,0-59.999c-6.588-17.8-12.717-126.83-4.113-144.217
			c19.275-6.164,33.473-26.839,33.473-51.465C190.616,61.51,180.13,41.322,164.921,31.592z"/>
		<path d="M380.721,85.996c0-21.059-3.358-33.694-18.312-39.213v63.629h-15.592V43.786c-2.649-0.192-5.415-0.308-8.459-0.308
			c-0.848,0-3.903-0.029-6.61,0.308v66.883l-15.441-0.32V45c-18.416,4.247-20.31,17.358-20.31,40.997
			c0,24.149,12.733,44.546,30.186,51.146c9.027,15.586,2.835,126.73-3.812,144.692c0,8.727,0,60,0,60h0.023
			c0,0.104-0.023,0.209-0.023,0.29c0,8.168,6.623,14.802,14.791,14.802c0.418-0.012,1.986-0.023,2.404,0
			c8.18-0.023,14.803-6.634,14.791-14.802c0.012-0.104-0.023-0.198-0.023-0.29h0.023c0,0,0.012-51.285,0-59.977
			c-6.657-17.985-12.85-129.141-3.834-144.728C368.01,130.554,380.721,110.157,380.721,85.996z"/>
	</g>
</g>
<g>
</g>
<g>
</g>
<g>
</g>
<g>
</g>
<g>
</g>
<g>
</g>
<g>
</g>
<g>
</g>
<g>
</g>
<g>
</g>
<g>
</g>
<g>
</g>
<g>
</g>
<g>
</g>
<g>
</g>
</svg>
