<?xml version="1.0" encoding="iso-8859-1"?>
<!-- Generator: Adobe Illustrator 16.0.0, SVG Export Plug-In . SVG Version: 6.00 Build 0)  -->
<!DOCTYPE svg PUBLIC "-//W3C//DTD SVG 1.1//EN" "http://www.w3.org/Graphics/SVG/1.1/DTD/svg11.dtd">
<svg version="1.1" id="Capa_1" xmlns="http://www.w3.org/2000/svg" xmlns:xlink="http://www.w3.org/1999/xlink" x="0px" y="0px"
	 width="32px" height="32px" viewBox="0 0 32 32" style="enable-background:new 0 0 32 32;" xml:space="preserve">
<g>
	<path d="M29.402,11.927c-0.422,0.148-0.98,0.695-1.274,1.008c0.226-0.997,0.378-1.882,0.463-2.429h0.896V8.975H2.512v1.531h0.897
		c0.085,0.547,0.237,1.433,0.463,2.43c-0.294-0.313-0.852-0.86-1.275-1.009c-0.598-0.212-2.597,0-2.597,0v0.809
		c0,0,1.964-0.069,2.386,0.177c0.423,0.245,0.88,2.322,1.231,2.322c0.183,0,0.557,0,0.873,0c0.38,1.176,0.86,2.292,1.453,3.033
		c1.575,1.969,3.851,3.594,4.514,4.047v0.711h11.085v-0.711c0.661-0.451,2.938-2.076,4.515-4.047
		c0.594-0.74,1.073-1.855,1.453-3.033c0.315,0,0.689,0,0.873,0c0.352,0,0.809-2.077,1.23-2.322C30.035,12.665,32,12.734,32,12.734
		v-0.808C32,11.927,30,11.715,29.402,11.927z M16.016,21.861c-0.223-0.059-0.39-0.25-0.39-0.49c0-0.281,0.23-0.516,0.515-0.516
		c0.285,0,0.517,0.229,0.517,0.516c0,0.24-0.169,0.436-0.39,0.49H16.016z M14.635,19.562c-0.284,0-0.516-0.23-0.516-0.516
		c0-0.286,0.231-0.518,0.516-0.518c0.285,0,0.515,0.23,0.515,0.518C15.15,19.332,14.919,19.562,14.635,19.562z M15.149,20.488
		c0,0.283-0.23,0.514-0.516,0.514c-0.283,0-0.515-0.229-0.515-0.514c0-0.283,0.231-0.516,0.515-0.516
		C14.919,19.975,15.149,20.203,15.149,20.488z M14.563,18.145c-0.283,0-0.515-0.23-0.515-0.516c0-0.286,0.231-0.518,0.515-0.518
		c0.285,0,0.516,0.23,0.516,0.518C15.079,17.914,14.849,18.145,14.563,18.145z M14.193,15.366c-0.283,0-0.515-0.23-0.515-0.517
		c0-0.283,0.231-0.515,0.515-0.515c0.285,0,0.515,0.23,0.515,0.515C14.708,15.135,14.479,15.366,14.193,15.366z M13.778,18.428
		c0,0.283-0.23,0.516-0.516,0.516c-0.283,0-0.514-0.229-0.514-0.516c0-0.283,0.23-0.516,0.514-0.516
		C13.548,17.912,13.778,18.143,13.778,18.428z M13.779,19.834c0,0.285-0.23,0.52-0.516,0.52c-0.283,0-0.515-0.23-0.515-0.52
		c0-0.281,0.231-0.514,0.515-0.514C13.549,19.322,13.779,19.553,13.779,19.834z M12.927,15.123c0.283,0,0.516,0.231,0.516,0.516
		s-0.232,0.516-0.516,0.516c-0.285,0-0.515-0.229-0.515-0.516C12.412,15.354,12.642,15.123,12.927,15.123z M12.413,14.229
		c0-0.283,0.229-0.514,0.515-0.514c0.283,0,0.515,0.229,0.515,0.514s-0.231,0.516-0.515,0.516
		C12.643,14.745,12.413,14.515,12.413,14.229z M12.512,19.049c0,0.283-0.23,0.516-0.514,0.516c-0.286,0-0.516-0.23-0.516-0.516
		c0-0.283,0.229-0.518,0.516-0.518C12.281,18.533,12.512,18.766,12.512,19.049z M11.557,14.334c0.284,0,0.515,0.23,0.515,0.516
		s-0.23,0.516-0.515,0.516c-0.285,0-0.516-0.23-0.516-0.516S11.271,14.334,11.557,14.334z M11.112,13.433
		c0-0.284,0.229-0.516,0.515-0.516c0.283,0,0.515,0.23,0.515,0.516s-0.231,0.516-0.515,0.516
		C11.342,13.948,11.112,13.717,11.112,13.433z M11.557,15.774c0.284,0,0.515,0.231,0.515,0.517s-0.23,0.516-0.515,0.516
		c-0.285,0-0.516-0.229-0.516-0.516C11.041,16.007,11.271,15.774,11.557,15.774z M15.863,17.642c0.286,0,0.516,0.229,0.516,0.517
		c0,0.286-0.229,0.517-0.516,0.517c-0.283,0-0.515-0.23-0.515-0.517C15.348,17.871,15.58,17.642,15.863,17.642z M15.493,16.676
		c0-0.285,0.23-0.518,0.516-0.518c0.284,0,0.515,0.23,0.515,0.518c0,0.283-0.229,0.516-0.515,0.516
		C15.724,17.189,15.493,16.957,15.493,16.676z M16.523,19.689c0,0.285-0.23,0.516-0.519,0.516c-0.284,0-0.515-0.229-0.515-0.516
		c0-0.283,0.23-0.516,0.515-0.516C16.293,19.176,16.523,19.406,16.523,19.689z M17.436,16.971c0.283,0,0.518,0.229,0.518,0.514
		S17.725,18,17.436,18c-0.285,0-0.516-0.229-0.516-0.516C16.92,17.199,17.15,16.971,17.436,16.971z M17.074,14.77
		c0-0.284,0.229-0.515,0.515-0.515c0.283,0,0.515,0.229,0.515,0.515s-0.229,0.516-0.515,0.516
		C17.305,15.286,17.074,15.056,17.074,14.77z M17.363,18.389c0.285,0,0.517,0.229,0.517,0.514s-0.231,0.516-0.517,0.516
		c-0.284,0-0.514-0.229-0.514-0.516C16.85,18.617,17.08,18.389,17.363,18.389z M17.365,19.826c0.283,0,0.515,0.23,0.515,0.518
		c0,0.283-0.231,0.516-0.515,0.516c-0.285,0-0.516-0.229-0.516-0.516S17.08,19.826,17.365,19.826z M18.855,15.042
		c0.285,0,0.515,0.231,0.515,0.516s-0.229,0.516-0.515,0.516c-0.287,0-0.519-0.229-0.519-0.516
		C18.34,15.274,18.57,15.042,18.855,15.042z M18.34,14.148c0-0.283,0.23-0.514,0.516-0.514c0.287,0,0.517,0.229,0.517,0.514
		c0,0.285-0.229,0.516-0.517,0.516C18.57,14.664,18.34,14.434,18.34,14.148z M18.736,17.767c0.283,0,0.514,0.229,0.514,0.515
		c0,0.284-0.23,0.519-0.514,0.519c-0.285,0-0.516-0.23-0.516-0.519C18.221,17.996,18.451,17.767,18.736,17.767z M18.734,19.176
		c0.283,0,0.516,0.229,0.516,0.514c0,0.287-0.23,0.518-0.516,0.518c-0.284,0-0.518-0.229-0.518-0.518
		C18.221,19.406,18.45,19.176,18.734,19.176z M20.227,15.286c-0.285,0-0.516-0.229-0.516-0.516c0-0.284,0.23-0.515,0.516-0.515
		c0.287,0,0.518,0.229,0.518,0.515C20.741,15.056,20.51,15.286,20.227,15.286z M20.741,16.209c0,0.285-0.231,0.518-0.517,0.518
		c-0.283,0-0.517-0.229-0.517-0.518c0-0.281,0.229-0.516,0.517-0.516C20.51,15.694,20.741,15.928,20.741,16.209z M20.154,13.868
		c-0.283,0-0.516-0.229-0.516-0.516c0-0.284,0.229-0.516,0.516-0.516c0.285,0,0.516,0.23,0.516,0.516S20.439,13.868,20.154,13.868z
		 M20.002,18.389c0.285,0,0.516,0.229,0.516,0.514s-0.229,0.516-0.516,0.516c-0.284,0-0.516-0.229-0.516-0.516
		C19.486,18.617,19.718,18.389,20.002,18.389z M20.939,13.879c0-0.284,0.229-0.517,0.516-0.517s0.516,0.231,0.516,0.517
		c0,0.284-0.229,0.515-0.516,0.515C21.172,14.394,20.939,14.163,20.939,13.879z M21.6,14.897c0.284,0,0.518,0.229,0.518,0.515
		S21.889,15.93,21.6,15.93c-0.285,0-0.516-0.231-0.516-0.517S21.314,14.897,21.6,14.897z M21.602,12.912
		c-0.285,0-0.518-0.229-0.518-0.515s0.23-0.516,0.518-0.516c0.282,0,0.516,0.229,0.516,0.516
		C22.115,12.683,21.884,12.912,21.602,12.912z M10.715,12.622c0,0.285-0.23,0.517-0.514,0.517c-0.285,0-0.517-0.23-0.517-0.517
		c0-0.283,0.231-0.515,0.517-0.515C10.484,12.107,10.715,12.339,10.715,12.622z M7.97,14.375c0,0.285-0.229,0.517-0.515,0.517
		c-0.284,0-0.515-0.23-0.515-0.517c0-0.282,0.23-0.515,0.515-0.515C7.74,13.86,7.97,14.093,7.97,14.375z M6.189,15.513
		c-0.285,0-0.516-0.231-0.516-0.518c0-0.283,0.23-0.514,0.516-0.514c0.283,0,0.514,0.229,0.514,0.514
		C6.703,15.281,6.473,15.513,6.189,15.513z M7.456,16.301c-0.284,0-0.516-0.23-0.516-0.518c0-0.283,0.231-0.514,0.516-0.514
		s0.515,0.229,0.515,0.514C7.971,16.069,7.741,16.301,7.456,16.301z M8.756,13.063c0.285,0,0.515,0.229,0.515,0.515
		s-0.23,0.515-0.515,0.515c-0.284,0-0.516-0.23-0.516-0.516S8.472,13.063,8.756,13.063z M8.825,16.951
		c-0.283,0-0.514-0.229-0.514-0.516c0-0.283,0.23-0.515,0.514-0.515c0.285,0,0.517,0.229,0.517,0.515
		C9.342,16.723,9.11,16.951,8.825,16.951z M8.826,15.513c-0.284,0-0.515-0.231-0.515-0.517s0.23-0.515,0.515-0.515
		c0.285,0,0.516,0.229,0.516,0.515S9.11,15.513,8.826,15.513z M10.056,13.591c0.285,0,0.515,0.229,0.515,0.516
		c0,0.284-0.229,0.515-0.515,0.515c-0.283,0-0.516-0.229-0.516-0.515C9.54,13.821,9.772,13.591,10.056,13.591z M10.2,15.123
		c0.284,0,0.515,0.231,0.515,0.517s-0.231,0.515-0.515,0.515c-0.284,0-0.516-0.229-0.516-0.515S9.916,15.123,10.2,15.123z
		 M9.817,17.319c0-0.284,0.23-0.515,0.515-0.515s0.516,0.229,0.516,0.515c0,0.284-0.23,0.517-0.516,0.517
		C10.048,17.834,9.817,17.604,9.817,17.319z M21.732,17.607c-0.285,0-0.519-0.229-0.519-0.516c0-0.283,0.229-0.516,0.519-0.516
		c0.283,0,0.515,0.23,0.515,0.516S22.018,17.607,21.732,17.607z M22.956,16.578c-0.285,0-0.517-0.229-0.517-0.516
		c0-0.283,0.229-0.515,0.517-0.515c0.284,0,0.515,0.229,0.515,0.515C23.471,16.35,23.24,16.578,22.956,16.578z M22.955,15.14
		c-0.284,0-0.516-0.23-0.516-0.516c0-0.284,0.229-0.516,0.516-0.516s0.516,0.231,0.516,0.516
		C23.471,14.909,23.24,15.14,22.955,15.14z M23.025,13.722c-0.284,0-0.514-0.23-0.514-0.516c0-0.284,0.229-0.516,0.514-0.516
		c0.283,0,0.516,0.231,0.516,0.516S23.311,13.722,23.025,13.722z M24.326,15.929c-0.285,0-0.516-0.231-0.516-0.518
		c0-0.283,0.229-0.514,0.516-0.514c0.283,0,0.516,0.229,0.516,0.514C24.842,15.697,24.609,15.929,24.326,15.929z M24.327,14.519
		c-0.285,0-0.515-0.231-0.515-0.518c0-0.282,0.229-0.514,0.515-0.514c0.282,0,0.515,0.23,0.515,0.514
		C24.842,14.287,24.609,14.519,24.327,14.519z M25.593,15.14c-0.282,0-0.515-0.23-0.515-0.517c0-0.282,0.23-0.515,0.515-0.515
		c0.285,0,0.515,0.231,0.515,0.515C26.107,14.909,25.878,15.14,25.593,15.14z"/>
</g>
<g>
</g>
<g>
</g>
<g>
</g>
<g>
</g>
<g>
</g>
<g>
</g>
<g>
</g>
<g>
</g>
<g>
</g>
<g>
</g>
<g>
</g>
<g>
</g>
<g>
</g>
<g>
</g>
<g>
</g>
</svg>
