<?xml version="1.0" encoding="iso-8859-1"?>
<!-- Generator: Adobe Illustrator 16.0.0, SVG Export Plug-In . SVG Version: 6.00 Build 0)  -->
<!DOCTYPE svg PUBLIC "-//W3C//DTD SVG 1.1//EN" "http://www.w3.org/Graphics/SVG/1.1/DTD/svg11.dtd">
<svg version="1.1" id="Capa_1" xmlns="http://www.w3.org/2000/svg" xmlns:xlink="http://www.w3.org/1999/xlink" x="0px" y="0px"
	 width="380.721px" height="380.721px" viewBox="0 0 380.721 380.721" style="enable-background:new 0 0 380.721 380.721;"
	 xml:space="preserve">
<g>
	<g>
		<path d="M380.582,86.414l-17.335-5.949l0.139-14.826c0,0-38.213-14.715-86.756-14.715c-40.759,0-75.208,10.457-86.234,14.215
			c-11.014-3.759-45.458-14.215-86.222-14.215c-48.543,0-85.043,14.43-85.043,14.43l0.134,16.516L0,86.978l0.093,242.818
			l12.949-5.438c0.436-0.186,43.89-18.218,83.992-18.218c34.362,0,74.562,10.12,86.663,13.396l8.081,2.289l7.553-2.416
			c10.84-3.3,46.602-13.269,80.25-13.269c39.816,0,87.988,18.171,88.476,18.346l12.665,4.799L380.582,86.414z M181.472,295.8
			c-17.236-4.52-50.088-11.932-79.82-11.932c-29.006,0-58.604,7.04-74.778,11.606V83.155c15.708-4.188,42.669-9.957,72.837-9.957
			c36.93,0,69.352,8.685,81.761,12.49V295.8z M353.94,295.8c-17.242-4.52-50.088-11.932-79.832-11.932
			c-27.792,0-56.002,6.447-72.547,11.002V85.653c12.246-3.782,44.127-12.455,80.656-12.455c29.663,0,56.188,5.722,71.711,9.922
			V295.8H353.94z"/>
		<path d="M229.702,109.732c0.267-0.046,27.489-5.007,55.025-5.007c27.467,0,52.121,4.938,52.354,4.996l2.139-7.198
			c-1.058-0.227-25.922-5.211-54.492-5.211c-28.535,0-55.816,4.985-56.955,5.188L229.702,109.732z"/>
		<path d="M337.081,129.996l2.139-7.209c-1.058-0.227-25.922-5.211-54.492-5.211c-28.547,0-55.805,4.984-56.955,5.199l1.93,7.245
			c0.267-0.047,27.443-5.02,55.025-5.02C312.17,124.988,336.826,129.938,337.081,129.996z"/>
		<path d="M229.702,149.353c0.267-0.058,27.489-5.02,55.025-5.02c27.443,0,52.099,4.95,52.354,4.996l2.139-7.209
			c-1.058-0.227-25.922-5.211-54.492-5.211c-28.547,0-55.839,4.973-56.978,5.199L229.702,149.353z"/>
		<path d="M284.704,164.607c27.467,0,52.122,4.932,52.366,4.984l2.126-7.198c-1.046-0.227-25.91-5.211-54.492-5.211
			c-28.559,0-55.815,4.973-56.954,5.2l1.952,7.232C229.968,169.557,257.122,164.607,284.704,164.607z"/>
		<path d="M284.704,184.203c27.467,0,52.122,4.949,52.366,4.996l2.126-7.198c-1.046-0.215-25.91-5.211-54.492-5.211
			c-28.523,0-55.815,4.984-56.954,5.199l1.952,7.244C229.968,189.175,257.191,184.203,284.704,184.203z"/>
		<path d="M284.704,197.029c-28.535,0-55.793,4.996-56.954,5.206l1.952,7.238c0.255-0.035,27.443-5.008,55.002-5.008
			c27.49,0,52.122,4.938,52.366,4.996l2.126-7.204C338.15,202.037,313.297,197.029,284.704,197.029z"/>
		<path d="M227.772,221.533l1.93,7.239c0.267-0.035,27.443-5.008,55.025-5.008c27.443,0,52.099,4.926,52.354,5.008l2.139-7.216
			c-1.058-0.221-25.922-5.205-54.492-5.205C256.18,216.328,228.911,221.324,227.772,221.533z"/>
		<path d="M227.772,240.786l1.93,7.238c0.267-0.047,27.443-5.02,55.025-5.02c27.467,0,52.121,4.949,52.354,4.996l2.139-7.204
			c-1.058-0.209-25.922-5.205-54.516-5.205C256.18,235.592,228.911,240.565,227.772,240.786z"/>
		<path d="M227.772,261.315l1.93,7.238c0.267-0.058,27.501-5.02,55.025-5.02c27.467,0,52.121,4.95,52.354,4.984l2.139-7.203
			c-1.058-0.209-25.922-5.205-54.516-5.205C256.18,256.11,228.911,261.083,227.772,261.315z"/>
		<path d="M97.881,135.398c-1.714-0.087-3.416-0.192-5.118-0.262c-6.019-0.261-11.113,4.851-11.764,10.648
			c-4.27,1.139-8.272,2.887-11.624,5.699c-3.067,2.579-4.322,6.553-4.032,10.434c-10.009,2.841-16.847,8.412-14.349,18.938h-4.607
			l27.153,58.035h67.388l27.135-58.035h-4.281c-0.575-4.531-3.259-8.673-8.4-9.673c0.157-0.354,0.331-0.691,0.477-1.092
			c3.567-9.864-3.846-14.872-11.909-17.12c0.319-3.37-0.68-6.937-3.131-9.946c-1.906-2.312-4.816-3.712-8.127-4.583
			c-0.627-3.009-2.236-5.699-5.327-7.291c-1.533-0.802-3.084-1.586-4.618-2.371c-0.662-0.343-1.33-0.714-1.987-1.069
			c-2.603-10.707-20.048-13.722-22.854-0.761C97.19,130.164,97.26,132.947,97.881,135.398z M78.879,235.337l-17.986-48.828
			l4.101-0.046l18.097,48.595L78.879,235.337z M89.946,235.081l-9.242-48.288l3.793-0.104l9.626,48.369h-4.177V235.081z
			 M149.103,186.474l3.985,0.227l-17.562,48.659l-4.096-0.278L149.103,186.474z M131.756,186.404l3.863,0.285l-10.027,48.613
			l-3.689,0.104L131.756,186.404z M114.322,186.689l3.724,0.261l-2.725,48.107h-3.532L114.322,186.689z M101.774,186.404
			l3.224,48.537l-3.735,0.232l-3.224-48.543L101.774,186.404z"/>
	</g>
</g>
<g>
</g>
<g>
</g>
<g>
</g>
<g>
</g>
<g>
</g>
<g>
</g>
<g>
</g>
<g>
</g>
<g>
</g>
<g>
</g>
<g>
</g>
<g>
</g>
<g>
</g>
<g>
</g>
<g>
</g>
</svg>
