<?xml version="1.0" encoding="iso-8859-1"?>
<!-- Generator: Adobe Illustrator 16.0.0, SVG Export Plug-In . SVG Version: 6.00 Build 0)  -->
<!DOCTYPE svg PUBLIC "-//W3C//DTD SVG 1.1//EN" "http://www.w3.org/Graphics/SVG/1.1/DTD/svg11.dtd">
<svg version="1.1" id="Capa_1" xmlns="http://www.w3.org/2000/svg" xmlns:xlink="http://www.w3.org/1999/xlink" x="0px" y="0px"
	 width="380.721px" height="380.721px" viewBox="0 0 380.721 380.721" style="enable-background:new 0 0 380.721 380.721;"
	 xml:space="preserve">
<g>
	<path d="M211.918,181.855c-10.701-1.086-21.176,5.699-28.785,12.456c0-17.417,0-30.017,0-30.017h-12.897l52.987-114.955
		l80.854-33.875L297.594,0l-86.861,36.396l-58.953,127.898h-19.775H114.17c0.302-3.974,0.825-7.744,1.487-10.933
		c-0.819-5.379-19.13-124.604-19.13-124.604h-0.012c0-0.058,0-0.128-0.011-0.192c-0.773-5.031-5.496-8.493-10.538-7.72
		c-0.25,0.035-1.226,0.191-1.476,0.227c-5.061,0.761-8.511,5.484-7.738,10.521c0.029,0.07,0.041,0.128,0.063,0.186l-0.023,0.011
		c0,0,18.293,119.225,19.119,124.604c1.272,2.283,2.579,5.008,3.805,7.901H80.894c0,0,0,85.647,0,118.993
		s25.556,97.435,25.556,97.435h25.544h25.555c0,0,24.429-61.277,25.509-95.169c7.854-5.333,68.271-48.055,50.065-86.222
		C226.789,186.027,218.099,182.483,211.918,181.855z M183.133,267.764c0-15.337,0-34.682,0-52.505
		c5.065-6.681,18.293-19.961,27.332-19.089c3.66,0.371,6.902,3.52,9.69,9.341C229.834,225.797,201.891,253.252,183.133,267.764z"/>
</g>
<g>
</g>
<g>
</g>
<g>
</g>
<g>
</g>
<g>
</g>
<g>
</g>
<g>
</g>
<g>
</g>
<g>
</g>
<g>
</g>
<g>
</g>
<g>
</g>
<g>
</g>
<g>
</g>
<g>
</g>
</svg>
