<?xml version="1.0" encoding="iso-8859-1"?>
<!-- Generator: Adobe Illustrator 16.0.0, SVG Export Plug-In . SVG Version: 6.00 Build 0)  -->
<!DOCTYPE svg PUBLIC "-//W3C//DTD SVG 1.1//EN" "http://www.w3.org/Graphics/SVG/1.1/DTD/svg11.dtd">
<svg version="1.1" id="Capa_1" xmlns="http://www.w3.org/2000/svg" xmlns:xlink="http://www.w3.org/1999/xlink" x="0px" y="0px"
	 width="328.529px" height="328.53px" viewBox="0 0 328.529 328.53" style="enable-background:new 0 0 328.529 328.53;"
	 xml:space="preserve">
<g>
	<path d="M209.439,327.206c-14.627-2.789-38.382-9.133-38.382-22.006c0,0-0.122,0-0.134,0c0-0.023,0-80.471,0-86.141
		s2.417-19.671,3.55-26.863c1.127-7.203,35.188-31.411,35.188-74.539S200.959,0,196.404,0c-2.243,0-17.185,1.522-32.144,1.522
		C149.331,1.522,134.377,0,132.118,0c-4.548,0-13.245,74.54-13.245,117.668s34.054,67.336,35.181,74.539
		c1.133,7.192,3.544,21.182,3.544,26.863s0,86.129,0,86.129c0,12.873-23.888,19.217-38.499,22.018
		c-3.143,0.662-2.225,1.312,0.011,1.312c2.109,0,40.276,0,44.924,0c0.25,0,0.465,0,0.465,0c4.653,0,42.814,0,44.918,0
		C211.647,328.506,212.577,327.879,209.439,327.206z M138.862,148.127c-2.632-6.199-5.438-13.687-6.901-22.157
		c-0.668-4.427-1.191-8.65-1.034-13.181c0.104-4.392,0.227-8.865,0.331-13.327c0.587-17.87,2.533-35.524,4.235-48.781
		c1.714-13.239,3.439-22.005,3.439-22.005s0.18,8.935-0.093,22.261c-0.191,6.658-0.406,14.419-0.633,22.732
		c-0.262,8.319-0.889,17.167-0.999,25.985c-0.181,4.403-0.366,8.818-0.535,13.146c-0.192,4.211,0.011,8.604,0.464,12.409
		c1.011,8.011,2.76,15.482,4.857,21.715c4.066,12.537,8.098,20.559,8.098,20.559S144.416,160.472,138.862,148.127z"/>
</g>
<g>
</g>
<g>
</g>
<g>
</g>
<g>
</g>
<g>
</g>
<g>
</g>
<g>
</g>
<g>
</g>
<g>
</g>
<g>
</g>
<g>
</g>
<g>
</g>
<g>
</g>
<g>
</g>
<g>
</g>
</svg>
