<?xml version="1.0" encoding="iso-8859-1"?>
<!-- Generator: Adobe Illustrator 16.0.0, SVG Export Plug-In . SVG Version: 6.00 Build 0)  -->
<!DOCTYPE svg PUBLIC "-//W3C//DTD SVG 1.1//EN" "http://www.w3.org/Graphics/SVG/1.1/DTD/svg11.dtd">
<svg version="1.1" id="Capa_1" xmlns="http://www.w3.org/2000/svg" xmlns:xlink="http://www.w3.org/1999/xlink" x="0px" y="0px"
	 width="380.721px" height="380.721px" viewBox="0 0 380.721 380.721" style="enable-background:new 0 0 380.721 380.721;"
	 xml:space="preserve">
<g>
	<g>
		<rect x="160.64" y="267.921" width="22.453" height="7.924"/>
		<rect x="194.102" y="267.921" width="22.459" height="7.924"/>
		<path d="M332.759,104.156c-7.901,2.789-18.428,13.188-23.796,18.892v-29.43c0,0-47.543,20.251-119.317,20.251
			c-71.763,0-119.307-20.251-119.307-20.251v27.943c-5.664-5.861-15.122-14.831-22.383-17.405c-11.038-3.916-47.956,0-47.956,0
			v14.936c0,0,36.262-1.272,44.07,3.271c7.802,4.52,16.237,42.879,22.72,42.879c0.941,0,2.167,0,3.549,0v137.512
			c0,0,19.496,3.766,45.208,7.204l-26.27,24.492l18.05,14.093l54.881-33.833c8.022,0.511,15.946,0.802,23.476,0.802
			c9.684,0,20.315-0.488,31.167-1.289l55.561,38.271l15.511-16.72l-18.276-27.142c22.715-2.997,39.306-5.867,39.306-5.867V165.241
			c1.987,0,3.707,0,4.962,0c6.483,0,14.918-38.359,22.726-42.879c7.82-4.561,44.082-3.271,44.082-3.271v-14.936
			C380.721,104.156,343.796,100.24,332.759,104.156z M150.026,262.669h76.166v27.746h-76.166V262.669z"/>
		<path d="M188.6,104.394c64.199,0,116.228-13.931,116.228-29.494c0-12.874-35.6-20.094-84.2-22.221
			c-2.685-13.925-14.907-24.452-29.593-24.452c-14.64,0-26.84,10.434-29.587,24.26c-51.088,1.83-89.075,9.126-89.075,22.424
			C72.373,90.463,124.413,104.394,188.6,104.394z"/>
	</g>
</g>
<g>
</g>
<g>
</g>
<g>
</g>
<g>
</g>
<g>
</g>
<g>
</g>
<g>
</g>
<g>
</g>
<g>
</g>
<g>
</g>
<g>
</g>
<g>
</g>
<g>
</g>
<g>
</g>
<g>
</g>
</svg>
