<?xml version="1.0" encoding="iso-8859-1"?>
<!-- Generator: Adobe Illustrator 16.0.0, SVG Export Plug-In . SVG Version: 6.00 Build 0)  -->
<!DOCTYPE svg PUBLIC "-//W3C//DTD SVG 1.1//EN" "http://www.w3.org/Graphics/SVG/1.1/DTD/svg11.dtd">
<svg version="1.1" id="Capa_1" xmlns="http://www.w3.org/2000/svg" xmlns:xlink="http://www.w3.org/1999/xlink" x="0px" y="0px"
	 width="264.883px" height="264.883px" viewBox="0 0 264.883 264.883" style="enable-background:new 0 0 264.883 264.883;"
	 xml:space="preserve">
<g>
	<path d="M191.673,261.699c-16.312-6.809-49.82-32.114-50.506-52.354c-0.186-5.217-0.384-17.219-0.384-25.631
		c0-13.164,28.582-11.526,28.582-32.939c0-21.437,0-103.801,0-115.06C169.365,24.451,206.72,0,193.823,0
		c-5.217,0-33.137,1.83-61.161,1.83c-0.069,0-0.151,0-0.232,0c-0.087,0-0.157,0-0.238,0C104.196,1.83,76.271,0,71.06,0
		C58.163,0,95.523,24.451,95.523,35.716c0,11.258,0,93.623,0,115.06c0,21.413,28.576,19.764,28.576,32.939
		c0,8.412-0.215,20.414-0.383,25.631c-0.697,20.239-34.194,45.545-50.501,52.354c-3.549,1.58-2.498,3.184,0,3.184
		c2.365,0,53.702,0,59.238,0c5.53,0,56.873,0,59.243,0C194.171,264.883,195.217,263.279,191.673,261.699z M114.973,159.722
		c-1.761-1.452-3.863-3.404-5.6-6.309c-1.836-2.696-2.951-7.32-2.917-10.834c-1.156-15.238-1.894-35.559-1.894-55.88
		c0.069-10.172,0.191-20.333,0.569-29.866c0.227-4.758,0.441-9.359,0.645-13.728c0.093-4.2,0.761-8.865,0.535-11.886
		c-0.639-6.733-4.601-12.124-7.424-15.325c-2.864-3.329-4.874-4.973-4.874-4.973s2.376,1.011,6.007,3.759
		c1.783,1.406,3.886,3.236,5.972,5.745c2.033,2.51,4.212,5.751,5.142,9.986c0.808,4.543,0.831,8.186,1.115,12.693
		c0.215,4.369,0.43,8.97,0.645,13.728c0.378,9.533,0.5,19.682,0.569,29.854c0,20.321-0.737,40.642-1.894,55.88
		c-0.424,4.107-0.238,6.536,0.761,9.382c0.953,2.707,2.475,4.879,3.846,6.529c2.783,3.346,4.915,4.88,4.915,4.88
		S118.615,162.557,114.973,159.722z"/>
</g>
<g>
</g>
<g>
</g>
<g>
</g>
<g>
</g>
<g>
</g>
<g>
</g>
<g>
</g>
<g>
</g>
<g>
</g>
<g>
</g>
<g>
</g>
<g>
</g>
<g>
</g>
<g>
</g>
<g>
</g>
</svg>
