<?xml version="1.0" encoding="iso-8859-1"?>
<!-- Generator: Adobe Illustrator 16.0.0, SVG Export Plug-In . SVG Version: 6.00 Build 0)  -->
<!DOCTYPE svg PUBLIC "-//W3C//DTD SVG 1.1//EN" "http://www.w3.org/Graphics/SVG/1.1/DTD/svg11.dtd">
<svg version="1.1" id="Capa_1" xmlns="http://www.w3.org/2000/svg" xmlns:xlink="http://www.w3.org/1999/xlink" x="0px" y="0px"
	 width="380.717px" height="380.717px" viewBox="0 0 380.717 380.717" style="enable-background:new 0 0 380.717 380.717;"
	 xml:space="preserve">
<g>
	<g>
		<path d="M313.514,120.118c0-0.854,0-2.167,0-3.793c8.808-0.087,18.648-12.02,24.539-22.535
			c17.23-2.358,42.466-23.104,42.663-46.591c0.07-8.876-3.613-13.443-6.715-15.755c-6.158-4.543-14.547-3.654-20.774-2.149
			c0.163-4.856,0.128-9.173-0.035-12.542c-22.191,0-65.563,0-72.732,0c0,0-0.465,0-1.115,0c-6.274,0-39.411,0-61.277,0
			c-1.231,22.854,7.552,96.714,40.944,99.572c0,1.638,0,2.939,0,3.793h-64.542v12.304h186.247v-12.304H313.514z M352.263,42.784
			c7.284-2.202,12.118-2.643,14.174-1.092c1.313,0.959,1.592,3.462,1.546,5.374c-0.104,13.053-12.467,25.439-23.052,31.068
			C348.871,66.533,351.125,53.99,352.263,42.784z M242.571,86.755c-7.273-16.749-12.524-62.236-12.524-62.236
			s14.732,40.869,18.102,52.197c3.357,11.316,18.032,27.385,18.032,27.385S249.821,103.533,242.571,86.755z"/>
		<path d="M307.635,184.34c-30.568,9.318-44.976,56.653-44.976,56.653s-13.757-35.31-80.029-41.548l-2.742-12.258
			c7.494-4.096,12.652-11.95,12.652-21.1c0-13.297-10.782-24.091-24.097-24.091c-13.304,0-24.098,10.794-24.098,24.091
			c0,8.964,4.938,16.673,12.188,20.85l-2.951,11.741c-37.703,1.348-60.034,12.002-73.628,24.562
			c-20.333-12.572-45.766-22.494-60.568-6.635c-19.554,20.902-27.525,68.167-8.633,91.474c8.098,10.004,19.879,13.001,31.162,13.001
			c7.563,0,14.883-1.359,20.762-2.869c6.506,18.694,18.846,35.053,40.479,37.83v7.924h135.636v-7.9
			c33.439-10.317,41.363-59.139,50.205-85.234c8.935-26.456,16.033-68.597,62.612-56.676c0-14.896,0-25.341,0-25.341
			S338.181,175.04,307.635,184.34z M58.333,260.373c-2.185,7.146-3.044,23.4-0.07,40.525c-11.13,2.905-26.619,4.555-33.613-4.055
			c-12.513-15.441-6.123-53.109,7.796-68.016c1.093-1.174,3.126-2.707,8.238-2.347c7.854,0.511,17.846,5.03,27.583,10.817
			C62.772,246.059,60.134,254.518,58.333,260.373z M116.218,344.875c-1.069-0.058-2.847-0.267-4.741-1.219
			c-3.903-1.686-8.946-5.461-13.314-11.143c-4.485-5.612-8.633-12.932-11.643-21.263c-1.533-4.171-2.893-8.528-3.799-13.163
			c-0.906-5.043-1.696-8.68-1.976-14.059c-0.499-10.039,1.522-19.752,4.718-28.117c3.218-8.366,7.459-15.512,11.77-21.065
			c4.275-5.589,8.609-9.608,11.99-11.979c3.346-2.533,6.03-2.73,5.938-2.533c-0.151-0.163-1.987,1.081-3.962,4.438
			c-2.057,3.242-4.566,8.156-7.1,14.129c-4.996,11.885-10.154,28.512-9.19,44.312c0.326,3.556,0.813,8.761,1.453,12.387
			c0.744,4.02,1.453,8.086,2.347,11.92c1.894,7.68,4.159,14.732,6.623,20.611c2.533,5.821,5.275,10.364,7.808,13.105
			c2.498,2.777,4.752,3.637,4.752,3.637S117.31,344.887,116.218,344.875z"/>
	</g>
</g>
<g>
</g>
<g>
</g>
<g>
</g>
<g>
</g>
<g>
</g>
<g>
</g>
<g>
</g>
<g>
</g>
<g>
</g>
<g>
</g>
<g>
</g>
<g>
</g>
<g>
</g>
<g>
</g>
<g>
</g>
</svg>
