<?xml version="1.0" encoding="iso-8859-1"?>
<!-- Generator: Adobe Illustrator 16.0.0, SVG Export Plug-In . SVG Version: 6.00 Build 0)  -->
<!DOCTYPE svg PUBLIC "-//W3C//DTD SVG 1.1//EN" "http://www.w3.org/Graphics/SVG/1.1/DTD/svg11.dtd">
<svg version="1.1" id="Capa_1" xmlns="http://www.w3.org/2000/svg" xmlns:xlink="http://www.w3.org/1999/xlink" x="0px" y="0px"
	 width="380.721px" height="380.721px" viewBox="0 0 380.721 380.721" style="enable-background:new 0 0 380.721 380.721;"
	 xml:space="preserve">
<g>
	<path d="M333.107,116.042c-33.09,10.091-48.705,61.329-48.705,61.329s-14.895-38.237-86.652-44.97l-2.963-13.292
		c8.122-4.421,13.688-12.932,13.688-22.842c0-14.407-11.665-26.09-26.084-26.09c-14.407,0-26.078,11.683-26.078,26.09
		c0,9.684,5.339,18.061,13.181,22.558l-3.201,12.722c-40.822,1.487-64.995,13.013-79.739,26.625c-22-13.6-49.53-24.341-65.564-7.175
		c-21.169,22.627-29.808,73.825-9.329,99.061c8.766,10.806,21.523,14.07,33.729,14.07c8.186,0,16.121-1.475,22.488-3.125
		c7.052,20.263,20.414,37.946,43.854,40.967v8.575h146.866v-8.575c36.215-11.153,44.801-64.041,54.352-92.299
		c9.667-28.634,17.336-74.26,67.771-61.352c0-16.132,0-27.432,0-27.432S366.175,105.962,333.107,116.042z M63.165,198.348
		c-2.358,7.732-3.282,25.334-0.069,43.902c-12.043,3.137-28.832,4.914-36.396-4.404c-13.564-16.695-6.651-57.512,8.435-73.633
		c1.191-1.261,3.375-2.922,8.935-2.544c8.505,0.558,19.321,5.449,29.86,11.706C67.97,182.896,65.105,192.033,63.165,198.348z
		 M125.831,289.874c-1.168-0.069-3.085-0.29-5.13-1.312c-4.235-1.802-9.685-5.926-14.431-12.061
		c-4.856-6.065-9.353-14.001-12.624-23.028c-1.656-4.531-3.143-9.236-4.107-14.244c-1-5.473-1.842-9.411-2.149-15.221
		c-0.552-10.875,1.638-21.401,5.112-30.464c3.474-9.068,8.081-16.789,12.746-22.796c4.636-6.048,9.312-10.399,12.979-12.984
		c3.642-2.725,6.518-2.934,6.425-2.725c-0.157-0.186-2.155,1.167-4.281,4.798c-2.202,3.521-4.915,8.825-7.651,15.302
		c-5.414,12.868-10.997,30.894-9.969,47.985c0.354,3.834,0.889,9.48,1.58,13.385c0.796,4.369,1.569,8.76,2.545,12.92
		c2.057,8.318,4.496,15.976,7.174,22.331c2.736,6.298,5.71,11.212,8.458,14.175c2.689,3.021,5.153,3.938,5.153,3.938
		S127.016,289.886,125.831,289.874z"/>
</g>
<g>
</g>
<g>
</g>
<g>
</g>
<g>
</g>
<g>
</g>
<g>
</g>
<g>
</g>
<g>
</g>
<g>
</g>
<g>
</g>
<g>
</g>
<g>
</g>
<g>
</g>
<g>
</g>
<g>
</g>
</svg>
