<?xml version="1.0" encoding="iso-8859-1"?>
<!-- Generator: Adobe Illustrator 16.0.0, SVG Export Plug-In . SVG Version: 6.00 Build 0)  -->
<!DOCTYPE svg PUBLIC "-//W3C//DTD SVG 1.1//EN" "http://www.w3.org/Graphics/SVG/1.1/DTD/svg11.dtd">
<svg version="1.1" id="Capa_1" xmlns="http://www.w3.org/2000/svg" xmlns:xlink="http://www.w3.org/1999/xlink" x="0px" y="0px"
	 width="336.314px" height="336.314px" viewBox="0 0 336.314 336.314" style="enable-background:new 0 0 336.314 336.314;"
	 xml:space="preserve">
<g>
	<g>
		<path d="M144.961,0H91.335h-2.51h-53.62L85.77,260.956h0.023c0,17.649,0,60.29,0,60.29c0,8.33-15.441,12.42-24.875,14.209
			c-2.021,0.441-1.44,0.859,0,0.859c1.354,0,26.032,0,29.041,0c0.157,0,0.296,0,0.296,0c2.998,0,27.676,0,29.029,0
			c1.441,0,2.033-0.418,0.012-0.859c-9.446-1.789-24.806-5.879-24.806-14.209c0,0-0.07,0-0.081,0c0,0,0-42.652,0-60.29L144.961,0z
			 M90.086,195.229c0,0-1.011-2.73-2.498-7.518c-1.365-4.821-3.66-11.653-5.792-19.943c-4.45-16.574-9.354-38.847-13.338-61.259
			c-3.904-22.453-6.867-45.058-8.336-62.143c-0.825-8.546-1.005-15.738-1.359-20.739c-0.25-5.02-0.227-7.913-0.227-7.913
			s1.011,2.725,2.498,7.523c1.359,4.816,3.654,11.648,5.786,19.938c4.433,16.562,9.359,38.847,13.344,61.259
			c3.904,22.453,6.89,45.057,8.354,62.154c0.819,8.528,0.988,15.731,1.348,20.727C90.115,192.335,90.086,195.229,90.086,195.229z"/>
		<path d="M275.433,335.455c-9.435-1.789-24.794-5.879-24.794-14.209c0,0-0.07,0-0.094,0c0,0,0-42.652,0-60.29L301.109,0H247.49
			h-2.51h-53.621l50.564,260.956h0.023c0,17.649,0,60.29,0,60.29c0,8.33-15.441,12.42-24.875,14.209
			c-2.021,0.441-1.441,0.859,0,0.859c1.359,0,26.037,0,29.035,0c0.162,0,0.302,0,0.302,0c2.997,0,27.676,0,29.023,0
			C276.873,336.314,277.478,335.896,275.433,335.455z M246.246,195.229c0,0-1.021-2.73-2.51-7.518
			c-1.359-4.821-3.647-11.653-5.785-19.943c-4.45-16.574-9.354-38.847-13.339-61.259c-3.903-22.453-6.866-45.058-8.342-62.154
			c-0.813-8.545-0.999-15.726-1.348-20.728c-0.256-5.02-0.232-7.913-0.232-7.913s0.999,2.725,2.486,7.523
			c1.359,4.816,3.648,11.648,5.786,19.938c4.438,16.574,9.364,38.847,13.338,61.259c3.904,22.453,6.901,45.057,8.365,62.154
			c0.813,8.528,0.977,15.731,1.336,20.727C246.27,192.335,246.246,195.229,246.246,195.229z"/>
	</g>
</g>
<g>
</g>
<g>
</g>
<g>
</g>
<g>
</g>
<g>
</g>
<g>
</g>
<g>
</g>
<g>
</g>
<g>
</g>
<g>
</g>
<g>
</g>
<g>
</g>
<g>
</g>
<g>
</g>
<g>
</g>
</svg>
