<?xml version="1.0" encoding="iso-8859-1"?>
<!-- Generator: Adobe Illustrator 16.0.0, SVG Export Plug-In . SVG Version: 6.00 Build 0)  -->
<!DOCTYPE svg PUBLIC "-//W3C//DTD SVG 1.1//EN" "http://www.w3.org/Graphics/SVG/1.1/DTD/svg11.dtd">
<svg version="1.1" id="Capa_1" xmlns="http://www.w3.org/2000/svg" xmlns:xlink="http://www.w3.org/1999/xlink" x="0px" y="0px"
	 width="380.737px" height="380.737px" viewBox="0 0 380.737 380.737" style="enable-background:new 0 0 380.737 380.737;"
	 xml:space="preserve">
<g>
	<path d="M370.06,10.668c-16.627-16.621-46.73-13.478-67.249,7.029c-18.834,18.834-22.982,45.737-10.666,62.88
		c-47.893,52.778-213.784,215.7-224.943,214.481c-5.426,5.438-63.188,63.193-63.188,63.193l0.023,0.035
		c-0.07,0.058-0.14,0.093-0.203,0.15c-5.101,5.102-5.101,13.385-0.012,18.475c5.106,5.1,13.373,5.1,18.479,0
		c0.069-0.07,0.104-0.141,0.168-0.198l0.023,0.012c0,0,56.711-56.723,62.997-63.009c2.544-14.047,162.353-177.603,215.846-224.333
		c17.184,11.311,43.291,6.948,61.706-11.474C383.537,57.405,386.686,27.301,370.06,10.668z M318.345,21.294
		c-1.337,0.987-2.963,2.806-4.868,4.938c-1.906,2.114-3.951,4.804-5.949,7.709c-1.034,1.429-1.998,2.986-2.904,4.542
		c-0.86,1.464-1.708,3.283-2.22,4.845c-2.173,6.925-3.032,14.704-3.636,20.414c-0.187,2.881-0.512,5.292-0.465,6.983
		c-0.07,1.667,0.395,2.643,0.127,2.667c-0.29,0.035-0.592-0.796-1.057-2.533c-0.407-1.69-1.093-4.142-1.302-7.104
		c-0.522-5.938-0.674-13.954,1.94-21.948c0.778-2.097,1.662-3.799,2.754-5.618c1.15-1.737,2.323-3.282,3.521-4.723
		c2.486-2.881,5.112-5.211,7.436-7.116c2.312-1.888,4.543-3.114,6.17-3.84c1.673-0.784,2.23-1.237,2.509-0.917
		C320.656,19.935,319.611,20.149,318.345,21.294z"/>
</g>
<g>
</g>
<g>
</g>
<g>
</g>
<g>
</g>
<g>
</g>
<g>
</g>
<g>
</g>
<g>
</g>
<g>
</g>
<g>
</g>
<g>
</g>
<g>
</g>
<g>
</g>
<g>
</g>
<g>
</g>
</svg>
