<?xml version="1.0" encoding="iso-8859-1"?>
<!-- Generator: Adobe Illustrator 16.0.0, SVG Export Plug-In . SVG Version: 6.00 Build 0)  -->
<!DOCTYPE svg PUBLIC "-//W3C//DTD SVG 1.1//EN" "http://www.w3.org/Graphics/SVG/1.1/DTD/svg11.dtd">
<svg version="1.1" id="Capa_1" xmlns="http://www.w3.org/2000/svg" xmlns:xlink="http://www.w3.org/1999/xlink" x="0px" y="0px"
	 width="380.732px" height="380.732px" viewBox="0 0 380.732 380.732" style="enable-background:new 0 0 380.732 380.732;"
	 xml:space="preserve">
<g>
	<g>
		<path d="M217.292,125.604c0-0.011,0-0.011,0-0.011c-0.115,0-0.557,0-0.674,0c0,0,0,0,0,0.011
			c-25.74,0.413-40.27,18.381-40.27,45.185c0,27.02,16.254,46.307,30.418,50.57c7.749,10.898,2.648,36.6-2.836,51.412
			c0,7.1,0,95.669,0,95.669h0.023c-0.012,0.081-0.023,0.175-0.023,0.255c0,6.635,5.392,12.037,12.037,12.037
			c0.337,0,1.627,0,1.952,0c6.646,0,12.061-5.402,12.061-12.037c0-0.08-0.023-0.174-0.023-0.243h0.023c0,0,0-88.558,0-95.669
			c-5.484-14.824-10.597-40.525-2.858-51.4c14.175-4.275,30.43-23.562,30.43-50.582
			C257.563,143.984,243.052,126.016,217.292,125.604z M205.232,208.59c-1.267-0.976-2.997-2.452-4.88-4.369
			c-1.871-1.952-3.869-4.369-5.832-7.093c-1.895-2.806-3.869-5.734-5.346-9.399c-0.615-1.737-1.318-3.793-1.498-5.601
			c-0.238-1.859-0.523-3.654-0.43-5.368c-0.059-3.451,0.359-6.594,0.906-9.254c0.511-2.655,1.383-4.833,1.963-6.355
			c0.593-1.476,1.227-2.19,1.18-2.202c0,0,0.093,0.906,0.25,2.498c0.215,1.499,0.499,3.654,0.842,6.233
			c0.331,2.516,0.715,5.461,1.121,8.627c0.343,3.154,1.022,6.164,1.865,9.103c2.271,5.868,5.652,12.136,7.859,16.778
			c2.185,4.741,4.021,7.738,4.253,7.505C207.51,209.775,206.511,209.566,205.232,208.59z"/>
		<path d="M314.041,250.522c0.012-11.363-8.19-30.302-25.328-30.581l0,0c-0.081,0-0.372,0-0.442,0l0,0
			c-17.137,0.268-24.294,20.949-24.294,30.744c0,17.997,8.296,30.139,17.753,32.984c5.136,7.25,3.765,24.365,0.128,34.218
			c0,4.717,0,54.631,0,54.631h0.023c0,0.046-0.012,0.093-0.012,0.163c0,4.414,1.557,8.017,5.972,8.005c0.232,0,1.093,0,1.302,0
			c4.438,0,6.972-3.591,6.972-8.005c0-0.047,0-0.117-0.023-0.163h0.023c0,0,0-49.925,0-54.654
			c-3.648-9.853-5.996-26.967-0.849-34.206C304.677,280.847,314.041,268.507,314.041,250.522z M272.179,263.535
			c-0.72-2.045-0.696-4.09-0.801-5.995c-0.105-1.87,0.221-3.637,0.406-5.112c0.488-2.986,1.418-4.787,1.418-4.787
			s-0.07,1.976,0.162,4.881c0.232,2.869,0.349,6.809,1.348,10.235c0.977,3.416,3.207,6.728,4.683,9.167
			c1.476,2.51,2.8,3.997,2.928,3.811C282.147,276.21,275.015,271.633,272.179,263.535z"/>
		<path d="M176.36,70.09c0-36.192-19.618-69.497-54.394-70.055V0.012C121.811,0,121.229,0,121.072,0c0,0,0,0.012,0,0.023
			C86.298,0.593,66.691,33.897,66.691,70.09c0,36.488,21.953,62.532,41.083,68.324c10.457,14.697,3.567,49.414-3.846,69.422
			c0,9.573,0,156.294,0,156.294h0.035c-0.012,0.116-0.035,0.221-0.035,0.337c0,8.981,7.285,16.254,16.278,16.254
			c0.453,0,2.19,0,2.643,0c8.981,0,16.272-7.272,16.272-16.266c0-0.116-0.023-0.221-0.035-0.325h0.035c0,0,0-146.721,0-156.306
			c-7.413-20.008-14.314-54.736-3.84-69.422C154.412,132.622,176.36,106.578,176.36,70.09z M102.384,117.703
			c-2.021-1.574-4.618-4.096-7.366-7.401c-2.76-3.294-5.635-7.401-8.325-12.112c-1.301-2.382-2.562-4.903-3.712-7.575
			c-1.098-2.789-2.021-5.473-2.62-8.673c-1.139-6.094-0.941-11.95-0.296-17.335c0.581-5.368,1.737-10.271,3.009-14.372
			c1.237-4.107,2.678-7.413,3.846-9.672c1.162-2.301,2.103-3.381,2.103-3.381s-0.203,1.476-0.285,3.881
			c-0.093,2.44-0.204,5.902-0.343,10.062c-0.11,8.186-0.767,19.333,0.761,29.221c0.296,2.312,1.092,4.938,1.888,7.296
			c0.761,2.463,1.656,4.886,2.62,7.209c1.842,4.7,3.816,9.051,5.519,12.798c1.737,3.724,3.271,6.844,4.462,8.935
			c1.145,2.155,2.19,3.073,2.26,2.986C105.939,119.678,104.382,119.335,102.384,117.703z"/>
	</g>
</g>
<g>
</g>
<g>
</g>
<g>
</g>
<g>
</g>
<g>
</g>
<g>
</g>
<g>
</g>
<g>
</g>
<g>
</g>
<g>
</g>
<g>
</g>
<g>
</g>
<g>
</g>
<g>
</g>
<g>
</g>
</svg>
