<?xml version="1.0" encoding="iso-8859-1"?>
<!-- Generator: Adobe Illustrator 16.0.0, SVG Export Plug-In . SVG Version: 6.00 Build 0)  -->
<!DOCTYPE svg PUBLIC "-//W3C//DTD SVG 1.1//EN" "http://www.w3.org/Graphics/SVG/1.1/DTD/svg11.dtd">
<svg version="1.1" id="Capa_1" xmlns="http://www.w3.org/2000/svg" xmlns:xlink="http://www.w3.org/1999/xlink" x="0px" y="0px"
	 width="359.9px" height="359.901px" viewBox="0 0 359.9 359.901" style="enable-background:new 0 0 359.9 359.901;"
	 xml:space="preserve">
<g>
	<g>
		<path d="M91.422,209.392v-24.899h13.965v24.899h68.399v-24.899h13.978v24.899h61.091v-24.899h13.978v24.899h52.202
			C311.874,119.533,262.588,0,179.95,0S48.031,119.533,44.877,209.392H91.422z M143.02,104.557h23.894
			c-0.169,4.7,0.964,8.174,3.398,10.434c1.179,1.429,2.666,2.428,4.462,3.021c1.801,0.581,3.799,0.871,5.972,0.871
			c3.607,0,6.466-0.726,8.552-2.202c2.114-1.464,3.16-3.997,3.16-7.616c0-1.917-0.338-3.485-1-4.653
			c-0.674-1.179-1.557-2.103-2.648-2.759c-1.093-0.691-2.336-1.127-3.765-1.33c-1.429-0.204-2.858-0.308-4.287-0.308
			c-1.842,0-3.294,0.07-4.328,0.198c-1.046,0.122-2.033,0.273-2.963,0.441v-17.12c0.93,0.093,1.952,0.203,3.097,0.308
			c1.127,0.134,2.521,0.204,4.211,0.204c1.331,0,2.708-0.082,4.102-0.25c1.383-0.168,2.655-0.546,3.84-1.127
			c1.162-0.598,2.115-1.417,2.87-2.452c0.755-1.051,1.15-2.405,1.15-4.107c0-1.331-0.372-2.51-1.081-3.509
			c-0.72-1.011-1.614-1.807-2.707-2.394c-1.092-0.593-2.323-1.022-3.712-1.319c-1.382-0.273-2.725-0.441-3.962-0.441
			c-1.69,0-3.276,0.238-4.787,0.703c-1.51,0.465-2.806,1.156-3.886,2.068c-1.099,0.93-1.952,2.062-2.585,3.393
			c-0.628,1.354-0.9,2.939-0.819,4.781h-23.679c0.099-5.199,1.098-9.684,3.027-13.455c1.935-3.782,4.578-6.925,7.936-9.434
			c3.341-2.429,7.198-4.247,11.561-5.473c4.38-1.226,9.021-1.824,13.983-1.824c6.367,0,11.711,0.813,16.033,2.452
			c4.311,1.644,7.797,3.643,10.445,5.972c2.638,2.347,4.52,4.822,5.658,7.424c1.139,2.608,1.696,4.822,1.696,6.675
			c0,4.618-0.604,8.15-1.812,10.637c-1.22,2.475-2.532,4.299-3.95,5.473c-1.44,1.179-2.742,1.882-3.974,2.132
			c-1.22,0.25-1.812,0.43-1.812,0.511v0.25c0,0.168,0.349,0.349,1.081,0.511c0.708,0.168,1.58,0.488,2.625,0.941
			c1.058,0.465,2.22,1.092,3.463,1.882c1.243,0.808,2.404,1.935,3.45,3.398c1.069,1.464,1.929,3.306,2.649,5.536
			c0.721,2.219,1.068,4.973,1.068,8.232c0,2.69-0.557,5.629-1.695,8.801c-1.127,3.201-3.103,6.175-5.926,8.935
			c-2.789,2.748-6.576,5.106-11.293,6.971c-4.753,1.894-10.678,2.835-17.818,2.835c-6.529,0-12.077-0.703-16.597-2.068
			c-4.531-1.395-8.243-3.178-11.148-5.356c-2.875-2.178-5.112-4.595-6.663-7.221c-1.557-2.655-2.689-5.234-3.387-7.808
			c-0.727-2.544-1.109-4.874-1.145-6.971C142.904,107.246,142.927,105.637,143.02,104.557z"/>
		<path d="M44.808,222.962c1.986,87.779,61.724,136.938,135.143,136.938c73.412,0,133.145-49.159,135.143-136.938H44.808z
			 M207.016,305.002c-5.17,2.66-54.607,3.032-57.536,0c-2.928-3.01,24.01-42.42,30.853-42.42
			C187.171,262.583,212.187,302.375,207.016,305.002z"/>
	</g>
</g>
<g>
</g>
<g>
</g>
<g>
</g>
<g>
</g>
<g>
</g>
<g>
</g>
<g>
</g>
<g>
</g>
<g>
</g>
<g>
</g>
<g>
</g>
<g>
</g>
<g>
</g>
<g>
</g>
<g>
</g>
</svg>
