<?xml version="1.0" encoding="iso-8859-1"?>
<!-- Generator: Adobe Illustrator 16.0.0, SVG Export Plug-In . SVG Version: 6.00 Build 0)  -->
<!DOCTYPE svg PUBLIC "-//W3C//DTD SVG 1.1//EN" "http://www.w3.org/Graphics/SVG/1.1/DTD/svg11.dtd">
<svg version="1.1" id="Capa_1" xmlns="http://www.w3.org/2000/svg" xmlns:xlink="http://www.w3.org/1999/xlink" x="0px" y="0px"
	 width="380.721px" height="380.721px" viewBox="0 0 380.721 380.721" style="enable-background:new 0 0 380.721 380.721;"
	 xml:space="preserve">
<g>
	<g>
		<rect x="37.336" y="303.189" width="71.264" height="22.842"/>
		<rect x="231.014" y="303.189" width="71.27" height="22.842"/>
		<path d="M380.721,175.901v-19.514c0,0-34.113,0.337-41.119-16.045v-23.156c0-15.011-12.164-27.176-27.152-27.176h-44.895V69.312
			h32.451V54.689H44.174v14.622h27.414V90.01H27.165C12.159,90.01,0,102.175,0,117.186v152.449
			c0,15.012,12.159,27.164,27.165,27.164h8.958c-5.188-4.531-8.481-11.177-8.481-18.578V160.303
			c0-13.611,11.061-24.678,24.66-24.678h220.668c13.617,0,24.678,11.079,24.678,24.678v117.917c0,7.401-3.299,14.047-8.481,18.578
			h23.261c15.012,0,27.164-12.152,27.164-27.164v-13.722h30.162V228.68H339.59v-52.778H380.721z M80.727,69.312h177.696V90.01
			H80.727V69.312z"/>
		<path d="M58.57,294.696h208.148c10.944,0,19.821-8.679,19.821-19.427V166.287c0-10.73-8.877-19.438-19.821-19.438H58.57
			c-10.945,0-19.821,8.697-19.821,19.438V275.27C38.749,285.994,47.625,294.696,58.57,294.696z"/>
	</g>
</g>
<g>
</g>
<g>
</g>
<g>
</g>
<g>
</g>
<g>
</g>
<g>
</g>
<g>
</g>
<g>
</g>
<g>
</g>
<g>
</g>
<g>
</g>
<g>
</g>
<g>
</g>
<g>
</g>
<g>
</g>
</svg>
