<?xml version="1.0" encoding="iso-8859-1"?>
<!-- Generator: Adobe Illustrator 16.0.0, SVG Export Plug-In . SVG Version: 6.00 Build 0)  -->
<!DOCTYPE svg PUBLIC "-//W3C//DTD SVG 1.1//EN" "http://www.w3.org/Graphics/SVG/1.1/DTD/svg11.dtd">
<svg version="1.1" id="Capa_1" xmlns="http://www.w3.org/2000/svg" xmlns:xlink="http://www.w3.org/1999/xlink" x="0px" y="0px"
	 width="380.721px" height="380.722px" viewBox="0 0 380.721 380.722" style="enable-background:new 0 0 380.721 380.722;"
	 xml:space="preserve">
<g>
	<path d="M188.432,22.129C35.263,10.016,0,82.738,0,118.558c0,35.814,0,189.546,0,189.546s155.917,34.717,217.083,47.928
		c61.161,13.222,163.079-8.262,163.638-47.381c0-42.967,0-197.802,0-211.019S341.601,34.253,188.432,22.129z M150.549,46.15
		l176.447,38.928L288.77,96.407L109.361,55.062L150.549,46.15z M238.369,115.706L58.953,74.349l41.177-8.912l176.453,38.928
		L238.369,115.706z M291.047,319.817c-4.496,0-8.133-3.637-8.133-8.134c0-4.485,3.637-8.122,8.133-8.122
		c4.485,0,8.134,3.637,8.134,8.122C299.181,316.181,295.533,319.817,291.047,319.817z M311.706,313.484
		c-4.484,0-8.133-3.647-8.133-8.133c0-4.497,3.648-8.134,8.133-8.134c4.497,0,8.133,3.637,8.133,8.134
		C319.838,309.837,316.203,313.484,311.706,313.484z M357.251,180.073l-20.136,13.6l2.266,105.335
		c0.094,3.659-2.812,6.692-6.46,6.751c-0.046,0-0.093,0-0.14,0c-3.602,0-6.541-2.871-6.622-6.473l-2.092-96.818l-12.548,8.47
		c-2.277,1.533-4.856,2.242-7.39,2.242c-4.252,0-8.435-2.033-10.991-5.81c-4.078-6.065-2.486-14.285,3.578-18.363l45.743-30.865
		c6.042-4.089,14.256-2.486,18.357,3.567C364.908,167.769,363.316,175.978,357.251,180.073z"/>
</g>
<g>
</g>
<g>
</g>
<g>
</g>
<g>
</g>
<g>
</g>
<g>
</g>
<g>
</g>
<g>
</g>
<g>
</g>
<g>
</g>
<g>
</g>
<g>
</g>
<g>
</g>
<g>
</g>
<g>
</g>
</svg>
