<?xml version="1.0" encoding="iso-8859-1"?>
<!-- Generator: Adobe Illustrator 16.0.0, SVG Export Plug-In . SVG Version: 6.00 Build 0)  -->
<!DOCTYPE svg PUBLIC "-//W3C//DTD SVG 1.1//EN" "http://www.w3.org/Graphics/SVG/1.1/DTD/svg11.dtd">
<svg version="1.1" id="Capa_1" xmlns="http://www.w3.org/2000/svg" xmlns:xlink="http://www.w3.org/1999/xlink" x="0px" y="0px"
	 width="402.097px" height="402.097px" viewBox="0 0 402.097 402.097" style="enable-background:new 0 0 402.097 402.097;"
	 xml:space="preserve">
<g>
	<path d="M354.395,69.703c-26.247-26.258-69.224-52.22-102.802-43.413c-7.994-15.395-41.955-41.061-67.679-15.36
		c-27.757,27.769,3.602,63.008,22.186,68.388c0.11,0.012,0.227,0.058,0.337,0.093c-6.141,21.262-6.094,45.365,1.424,67.4
		c-0.023-0.012-0.035-0.023-0.035-0.023c7.285,67.127-77.021,107.653-77.021,107.653L12.637,372.625v0.012
		c-0.058,0.069-0.133,0.116-0.18,0.163c-4.63,4.624,0.761,17.509,5.391,22.121c4.63,4.637,17.527,10.039,22.14,5.403
		c0.047-0.047,0.099-0.116,0.157-0.175h0.011l118.046-118.033c0,0,51.245-90.882,107.624-74.197
		c2.429,0.999,4.868,1.917,7.332,2.742c0.081,0.046,0.186,0.058,0.255,0.104l-0.034-0.022c36.215,12.165,76.59,4.95,100.605-19.089
		C408.143,157.494,386.962,102.253,354.395,69.703z M235.931,158.807c-0.163-0.076-1.011-0.5-2.196-1.54
		c-0.29-0.232-0.604-0.511-0.895-0.819l-0.477-0.523c-1.37-1.464-3.241-3.474-4.938-6.141c-5.449-8.145-8.598-15.795-9.562-23.33
		c-0.209-2.614-0.034-18.236,0.313-20.751c0.384-2.208,0.906-4.375,1.615-6.669c1.43-4.427,3.347-8.237,4.88-11.066
		c1.778-3.248,3.846-5.734,5.24-7.233c1.673-1.772,2.823-2.951,2.823-2.951c0.523-0.523,1.395-0.534,2.057-0.012
		c0.65,0.593,0.859,1.406,0.488,2.034c-0.012,0.011-0.988,1.626-1.836,3.369c-0.953,1.604-1.801,4.008-2.916,7.221
		c-1.012,2.806-1.93,6.35-2.742,10.503c-0.396,1.818-0.697,3.759-0.895,5.815c-0.232,1.777-0.349,17.289-0.14,19.002
		c1.115,7.819,4.206,15.801,6.46,21.616c0.5,1.122,0.964,2.254,1.383,3.288c0.604,1.453,1.127,2.713,1.638,3.648
		c0.732,1.487,1.371,2.312,1.371,2.335c0.453,0.569,0.488,1.33,0.116,1.841C237.313,158.969,236.569,159.115,235.931,158.807z"/>
</g>
<g>
</g>
<g>
</g>
<g>
</g>
<g>
</g>
<g>
</g>
<g>
</g>
<g>
</g>
<g>
</g>
<g>
</g>
<g>
</g>
<g>
</g>
<g>
</g>
<g>
</g>
<g>
</g>
<g>
</g>
</svg>
