<?xml version="1.0" encoding="iso-8859-1"?>
<!-- Generator: Adobe Illustrator 16.0.0, SVG Export Plug-In . SVG Version: 6.00 Build 0)  -->
<!DOCTYPE svg PUBLIC "-//W3C//DTD SVG 1.1//EN" "http://www.w3.org/Graphics/SVG/1.1/DTD/svg11.dtd">
<svg version="1.1" id="Capa_1" xmlns="http://www.w3.org/2000/svg" xmlns:xlink="http://www.w3.org/1999/xlink" x="0px" y="0px"
	 width="380.722px" height="380.721px" viewBox="0 0 380.722 380.721" style="enable-background:new 0 0 380.722 380.721;"
	 xml:space="preserve">
<g>
	<path d="M249.276,0c-22.157,0-58.912,0-58.912,0s-36.762,0-58.919,0c-22.151,0,19.63,136.99,19.63,181.292
		c0,123.884-30.209,199.429-9.062,199.429c21.14,0,48.34,0,48.34,0s27.193,0,48.339,0c21.135,0-9.074-75.545-9.074-199.429
		C229.629,136.99,271.433,0,249.276,0z M178.966,219.582c-0.93,10.991-1.499,21.878-2.975,32.184
		c-1.318,10.353-2.283,20.391-4.02,29.79c-1.598,9.423-3.097,18.322-4.485,26.525c-2.725,16.453-6.059,29.965-8.127,39.445
		c-2.167,9.47-3.712,14.826-3.712,14.826s1.65-22.191,4.747-55.247c1.568-16.511,3.009-35.809,4.699-56.397
		c0.715-10.259,1.441-20.867,2.19-31.637c0.843-10.678,0.726-21.902,1.296-32.922c0.249-10.66-0.32-21.715-0.918-32.445
		c-0.691-10.753-1.673-21.355-2.806-31.609c-2.022-20.547-4.735-39.695-7.355-56.054c-2.411-16.382-4.554-30.075-6.256-39.602
		c-1.604-9.58-2.521-15.052-2.521-15.052s7.075,21.071,14.895,53.493c7.21,32.526,16.726,76.131,16.621,121.589
		C179.872,197.564,180.081,208.532,178.966,219.582z"/>
</g>
<g>
</g>
<g>
</g>
<g>
</g>
<g>
</g>
<g>
</g>
<g>
</g>
<g>
</g>
<g>
</g>
<g>
</g>
<g>
</g>
<g>
</g>
<g>
</g>
<g>
</g>
<g>
</g>
<g>
</g>
</svg>
