<?xml version="1.0" encoding="iso-8859-1"?>
<!-- Generator: Adobe Illustrator 16.0.0, SVG Export Plug-In . SVG Version: 6.00 Build 0)  -->
<!DOCTYPE svg PUBLIC "-//W3C//DTD SVG 1.1//EN" "http://www.w3.org/Graphics/SVG/1.1/DTD/svg11.dtd">
<svg version="1.1" id="Capa_1" xmlns="http://www.w3.org/2000/svg" xmlns:xlink="http://www.w3.org/1999/xlink" x="0px" y="0px"
	 width="380.737px" height="380.737px" viewBox="0 0 380.737 380.737" style="enable-background:new 0 0 380.737 380.737;"
	 xml:space="preserve">
<g>
	<path d="M375.808,5.815c-6.611-6.594-17.289-6.594-23.877,0c-0.093,0.082-0.139,0.168-0.232,0.25V6.042
		c0,0-87.697,87.698-95.818,95.825c-33.265,47.09-56.624,53.55-56.624,53.55l-8.673,8.667l4.758,4.764
		c-15.25,13.774-46.568,29.064-79.832,45.249c-39.939,19.426-81.273,39.527-97.736,59.069
		C-0.051,294.29-1.323,313.112,0.733,325.172c1.76,10.318,6.698,19.799,13.704,26.816c2.632,2.625,5.56,4.926,8.72,6.785
		l4.474,2.626c1.121,1.417,2.3,2.765,3.572,4.043c7.029,7.019,16.487,11.921,26.816,13.687c12.065,2.068,30.876,0.779,52.005-17.021
		c19.56-16.475,39.631-57.779,59.058-97.759c15.575-32.01,30.325-62.218,43.716-78.065l3.857,3.88l8.667-8.667
		c0,0,11.805-31.504,54.178-55.537c7.019-7.023,96.052-96.052,96.052-96.052l-0.023-0.035c0.07-0.082,0.187-0.134,0.256-0.215
		C382.384,23.092,382.384,12.38,375.808,5.815z M7.443,324.033c-1.818-10.654-0.604-27.361,15.528-46.498
		c15.546-18.449,56.211-38.225,95.523-57.326c8.069-3.927,16.04-7.808,23.713-11.619c-45.725,29.187-101.965,65.438-108.96,71.479
		c-22.261,20.798-19.025,50.146-15.028,65.994C12.759,340.102,8.86,332.295,7.443,324.033z M24.517,343.414
		c-3.543-14.535-6.059-40.248,13.274-58.303c5.461-4.717,44.784-30.256,84.009-55.398c-36.297,27.955-72.332,56.119-79.233,63.02
		C33.33,301.946,26.358,326.52,24.517,343.414z M47.359,297.508c7.819-7.83,56.275-45.371,97.939-77.311
		c-58.023,53.027-67.777,63.334-77.984,74.139c-3.3,3.51-6.652,7.064-11.77,12.177c-13.478,13.478-20.199,27.071-24.08,36.761
		C33.236,328.914,38.378,306.501,47.359,297.508z M53.401,353.115c10.044-2.092,28.233-6.948,37.075-15.801
		c6.913-6.891,35.071-42.932,63.031-79.229c-25.137,39.201-50.646,78.496-55.311,83.91c-18.108,19.403-43.948,16.87-58.477,13.338
		C45.692,354.648,51.402,353.533,53.401,353.115z M39.912,348.41c9.684-3.881,23.295-10.62,36.773-24.086
		c5.13-5.124,8.674-8.459,12.159-11.77c10.805-10.201,21.134-19.949,74.162-77.996c-31.946,41.688-69.497,90.125-77.322,97.957
		C76.685,341.508,54.295,346.655,39.912,348.41z M163.006,261.397c-19.107,39.329-38.882,79.995-57.327,95.517
		c-19.142,16.127-35.844,17.336-46.481,15.535c-8.295-1.418-16.098-5.311-22.046-10.771c15.836,3.975,45.231,7.192,66.104-15.127
		c5.972-6.948,42.188-63.159,71.355-108.844C170.796,245.328,166.915,253.299,163.006,261.397z M202.898,180.601
		C109.966,283.264,97.436,295.115,84.196,307.628c-3.562,3.335-7.14,6.728-12.316,11.921c-11.514,11.502-23.15,17.742-32.062,21.541
		c3.875-8.574,9.992-19.217,20.548-29.768c5.182-5.182,8.563-8.76,11.921-12.292c12.49-13.245,24.353-25.794,127.016-118.696
		c1.998-1.278,3.538-2.243,4.606-2.934l0.627,0.633C204.025,178.794,203.503,179.625,202.898,180.601z M369.592,26.468
		c-3.706,3.712-19.311,13.292-23.005,9.603c-3.707-3.688,5.902-19.287,9.597-22.999c3.706-3.701,9.702-3.701,13.385,0
		C373.298,16.772,373.298,22.767,369.592,26.468z"/>
</g>
<g>
</g>
<g>
</g>
<g>
</g>
<g>
</g>
<g>
</g>
<g>
</g>
<g>
</g>
<g>
</g>
<g>
</g>
<g>
</g>
<g>
</g>
<g>
</g>
<g>
</g>
<g>
</g>
<g>
</g>
</svg>
