<?xml version="1.0" encoding="iso-8859-1"?>
<!-- Generator: Adobe Illustrator 16.0.0, SVG Export Plug-In . SVG Version: 6.00 Build 0)  -->
<!DOCTYPE svg PUBLIC "-//W3C//DTD SVG 1.1//EN" "http://www.w3.org/Graphics/SVG/1.1/DTD/svg11.dtd">
<svg version="1.1" id="Capa_1" xmlns="http://www.w3.org/2000/svg" xmlns:xlink="http://www.w3.org/1999/xlink" x="0px" y="0px"
	 width="380.721px" height="380.721px" viewBox="0 0 380.721 380.721" style="enable-background:new 0 0 380.721 380.721;"
	 xml:space="preserve">
<g>
	<g>
		<path d="M227.587,136.096c-5.658-7.245-11.515-14.75-11.515-19.979V25.125h-9.527V0h-31.701v25.125H164.66v90.992
			c0,5.217-5.856,12.723-11.52,19.979c-8.278,10.602-17.655,22.616-17.655,36.488v187.7c0,8.238,5.595,20.438,17.608,20.438h74.528
			c12.014,0,17.613-12.199,17.613-20.438v-187.7C245.235,158.711,235.871,146.698,227.587,136.096z M234.453,360.284
			c0,2.847-1.975,9.666-6.831,9.666h-74.528c-4.88,0-6.844-6.819-6.844-9.666v-187.7c0-10.172,7.819-20.176,15.372-29.849
			c7.104-9.103,13.803-17.666,13.803-26.606V73.622h29.866v42.495c0,8.935,6.691,17.515,13.803,26.607
			c7.552,9.672,15.359,19.665,15.359,29.848V360.284z"/>
		<path d="M162.871,173.909c-1.604,5.101-2.068,11.363-2.388,16.8c-0.331,5.706-0.691,11.735-1.058,17.974
			c-0.587,12.467-0.859,25.759-0.953,39.062c0.07,13.281,0.151,26.596,0.75,39.051c0.453,12.479,1.226,24.098,2.138,34.066
			c1.679,19.961,4.084,33.252,4.084,33.252s2.417-13.291,4.09-33.252c0.918-9.969,1.69-21.588,2.144-34.066
			c0.593-12.455,0.68-25.77,0.75-39.051c-0.082-13.303-0.355-26.595-0.953-39.062c-0.354-6.239-0.715-12.258-1.046-17.974
			c-0.396-6.001-0.987-10.602-0.238-15.244c1.214-9.376,3.904-17.335,5.688-22.831c1.842-5.519,3.12-8.639,3.12-8.639
			s-2.156,2.58-5.403,7.529C170.452,156.539,165.99,163.783,162.871,173.909z"/>
	</g>
</g>
<g>
</g>
<g>
</g>
<g>
</g>
<g>
</g>
<g>
</g>
<g>
</g>
<g>
</g>
<g>
</g>
<g>
</g>
<g>
</g>
<g>
</g>
<g>
</g>
<g>
</g>
<g>
</g>
<g>
</g>
</svg>
