<?xml version="1.0" encoding="iso-8859-1"?>
<!-- Generator: Adobe Illustrator 16.0.0, SVG Export Plug-In . SVG Version: 6.00 Build 0)  -->
<!DOCTYPE svg PUBLIC "-//W3C//DTD SVG 1.1//EN" "http://www.w3.org/Graphics/SVG/1.1/DTD/svg11.dtd">
<svg version="1.1" id="Capa_1" xmlns="http://www.w3.org/2000/svg" xmlns:xlink="http://www.w3.org/1999/xlink" x="0px" y="0px"
	 width="32.001px" height="32.001px" viewBox="0 0 32.001 32.001" style="enable-background:new 0 0 32.001 32.001;"
	 xml:space="preserve">
<g>
	<path d="M27.142,7.945c0-1.44,0-7.945,0-7.945h-1.068H25.44h-1.069c0,0,0,6.505,0,7.945s-2.707,3.188-2.707,5.239
		c0,2.051,0,16.895,0,17.419c0,0.521,0.352,1.396,1.135,1.396c0.535,0,1.852,0,2.645,0c0.373,0,0.633,0,0.633,0
		c0.791,0,2.107,0,2.641,0c0.785,0,1.136-0.873,1.136-1.396c0-0.524,0-15.369,0-17.419C29.851,11.132,27.142,9.386,27.142,7.945z
		 M24.969,10.278c-0.176,0.239-0.37,0.541-0.584,0.889c-0.215,0.349-0.42,0.756-0.627,1.197c-0.08,0.226-0.159,0.462-0.229,0.699
		c-0.002,0.251-0.082,0.436-0.047,0.751c0.021,0.584,0.043,1.198,0.064,1.834c0.043,1.272,0.053,2.629,0.062,3.986
		c-0.004,2.714-0.086,5.429-0.213,7.464c-0.057,1.019-0.146,1.865-0.189,2.459c-0.053,0.594-0.098,0.935-0.098,0.935
		s-0.045-0.341-0.098-0.935c-0.043-0.594-0.135-1.44-0.189-2.459c-0.127-2.035-0.209-4.75-0.213-7.464
		c0.012-1.356,0.02-2.714,0.062-3.986c0.021-0.636,0.045-1.25,0.066-1.834c-0.01-0.271,0.092-0.639,0.148-0.932
		c0.113-0.276,0.236-0.532,0.357-0.773c0.145-0.222,0.28-0.434,0.411-0.636c0.15-0.184,0.293-0.358,0.427-0.523
		c0.274-0.318,0.521-0.587,0.735-0.797c0.425-0.424,0.694-0.632,0.694-0.632S25.308,9.792,24.969,10.278z M18.914,20.93
		c0-0.238-0.238-1.611-1.521-1.646c-0.418-0.008-0.761,0-0.761,0l-0.262-0.544H16.17v-0.255h0.201v-0.471H16.17v-0.351h0.179v-0.522
		H16.17v-0.298h0.172l0.007-1.671c0,0,2.687-1.641,2.565-3.342c-0.119-1.699-2.744-1.104-2.744-1.104l-0.563-0.08
		c0-0.003,0-0.009,0-0.009l-0.031,0.005l-0.032-0.005c0,0,0,0.006,0,0.009l-0.563,0.08c0,0-2.625-0.596-2.745,1.104
		c-0.118,1.701,2.566,3.342,2.566,3.342l0.007,1.671h0.172v0.298h-0.179v0.522h0.179v0.351h-0.201v0.471h0.201v0.255h-0.201
		l-0.262,0.544c0,0-0.343-0.008-0.761,0c-1.282,0.035-1.521,1.408-1.521,1.646c-0.142,0.034-0.271,0.467,0,0.875
		c0.271,0.409,1.298,1.752,1.224,3.303c-0.074,1.553-1.163,2.179-1.224,4.207c-0.06,2.027,0.508,2.506,1.06,2.653
		c0.552,0.149,0.902-0.245,0.851-0.655c-0.054-0.412-0.12-0.926-0.12-0.926s1.334,0.252,1.55,0.062
		c0.215,0.19,1.548-0.062,1.548-0.062s-0.065,0.514-0.119,0.926c-0.053,0.41,0.299,0.807,0.851,0.655
		c0.554-0.147,1.119-0.626,1.062-2.653c-0.062-2.028-1.148-2.654-1.226-4.207c-0.073-1.551,0.953-2.894,1.226-3.303
		C19.187,21.396,19.056,20.964,18.914,20.93z M13.772,21.348c-0.265,0-0.478-0.227-0.478-0.508c0-0.279,0.213-0.506,0.478-0.506
		c0.264,0,0.477,0.227,0.477,0.506C14.25,21.121,14.037,21.348,13.772,21.348z M15.427,24.289h-0.19v0.357h0.19v0.41h-0.19v0.316
		h0.19v0.41h-0.19v0.355h0.19v0.409h-0.19v0.339h0.19V27.3h-0.19v0.105l-1.107,0.012c0,0,0.022-3.49,0.022-3.826
		c0-0.226,0.654-0.245,1.085-0.233v0.521h0.19V24.289z M15.575,13.98c-0.012-0.001-0.021-0.001-0.032-0.002c0,0,0,0.002,0,0.003
		c-1.54,0.089-1.911-0.792-1.701-1.732c0.197-0.878,1.52-0.31,1.733-0.477c0.213,0.167,1.537-0.401,1.732,0.477
		c0.211,0.94-0.16,1.821-1.701,1.732c0-0.001,0-0.002,0-0.002C15.595,13.979,15.586,13.979,15.575,13.98z M16.077,27.409v-0.354
		h-0.223v-0.41h0.223v-0.338h-0.223v-0.412h0.223V25.54h-0.223v-0.411h0.223v-0.316h-0.223V24.4h0.223v-0.354h-0.223v-0.411h0.223
		v-0.275c0.415,0,0.921,0.039,0.921,0.236c0,0.336,0.021,3.826,0.021,3.826L16.077,27.409z M17.785,21.452
		c-0.264,0-0.479-0.228-0.479-0.509c0-0.278,0.215-0.506,0.479-0.506s0.479,0.228,0.479,0.506
		C18.262,21.227,18.049,21.452,17.785,21.452z M9.523,28l0.026,3.5l-7.375,0.055l-0.026-3.5L9.523,28z"/>
</g>
<g>
</g>
<g>
</g>
<g>
</g>
<g>
</g>
<g>
</g>
<g>
</g>
<g>
</g>
<g>
</g>
<g>
</g>
<g>
</g>
<g>
</g>
<g>
</g>
<g>
</g>
<g>
</g>
<g>
</g>
</svg>
