<?xml version="1.0" encoding="iso-8859-1"?>
<!-- Generator: Adobe Illustrator 16.0.0, SVG Export Plug-In . SVG Version: 6.00 Build 0)  -->
<!DOCTYPE svg PUBLIC "-//W3C//DTD SVG 1.1//EN" "http://www.w3.org/Graphics/SVG/1.1/DTD/svg11.dtd">
<svg version="1.1" id="Capa_1" xmlns="http://www.w3.org/2000/svg" xmlns:xlink="http://www.w3.org/1999/xlink" x="0px" y="0px"
	 width="380.715px" height="380.715px" viewBox="0 0 380.715 380.715" style="enable-background:new 0 0 380.715 380.715;"
	 xml:space="preserve">
<g>
	<path d="M228.042,257.934c-1.324-27.629,16.952-51.517,21.797-58.812c4.833-7.274,2.521-14.983,0-15.593
		c0-4.247-4.253-28.692-27.106-29.36c-7.436-0.128-13.547,0-13.547,0l-4.648-9.684h-3.596v-4.52h3.596v-8.365h-3.596v-6.245h3.189
		v-9.307h-3.189v-5.304h3.056l0.134-29.767c0,0,47.822-29.221,45.696-59.511c-2.126-30.284-48.886-19.659-48.886-19.659
		l-10.004-1.423c0-0.063,0-0.168,0-0.168l-0.586,0.082l-0.569-0.082c0,0,0,0.105,0,0.168l-10.004,1.423
		c0,0-46.771-10.625-48.892,19.659c-2.126,30.29,45.702,59.511,45.702,59.511l0.128,29.767h3.062v5.304h-3.189v9.295h3.189v6.245
		h-3.596v8.365h3.596v4.52h-3.596l-4.653,9.684c0,0-6.112-0.134-13.548,0c-22.842,0.668-27.106,25.102-27.106,29.36
		c-2.521,0.61-4.827,8.307,0,15.604c4.845,7.272,23.121,31.16,21.797,58.79c-1.33,27.629-20.722,38.783-21.797,74.94
		c-1.057,36.134,9.034,44.639,18.857,47.288c9.841,2.661,16.098-4.368,15.15-11.688c-0.952-7.32-2.132-16.476-2.132-16.476
		s23.761,4.474,27.589,1.058c3.834,3.416,27.594-1.058,27.594-1.058s-1.185,9.155-2.138,16.476
		c-0.94,7.32,5.321,14.35,15.151,11.688c9.829-2.649,19.914-11.154,18.856-47.288C248.769,296.717,229.378,285.552,228.042,257.934z
		 M159.492,28.913c3.497-15.621,27.054-5.524,30.859-8.487c3.811,2.963,27.361-7.146,30.859,8.487
		c3.764,16.749-2.858,32.457-30.273,30.859c0-0.023,0-0.035,0-0.035c-0.203,0-0.383,0-0.574,0.012
		c-0.198-0.012-0.378-0.012-0.581-0.023c0,0,0,0.023,0,0.046C162.355,61.37,155.745,45.662,159.492,28.913z M158.254,190.976
		c-4.7,0-8.505-4.043-8.505-9.039c0-4.984,3.805-9.028,8.505-9.028c4.699,0,8.493,4.043,8.493,9.028
		C166.748,186.933,162.942,190.976,158.254,190.976z M165.022,230.967c0-4.008,11.647-4.368,19.333-4.17v9.248h3.393v7.319h-3.393
		v6.355h3.393v7.308h-3.393v5.67h3.393v7.297h-3.393v6.367h3.393v7.297h-3.393v6.041h3.393v7.309h-3.393v1.883l-19.722,0.221
		C164.633,299.112,165.022,236.952,165.022,230.967z M199.297,298.937v-6.31h-3.985v-7.319h3.985v-6.019h-3.985v-7.319h3.985v-6.344
		h-3.985v-7.331h3.985v-5.658h-3.985v-7.309h3.985v-6.344h-3.985v-7.309h3.985v-4.926c7.39,0,16.382,0.709,16.382,4.217
		c0,5.984,0.407,68.168,0.407,68.168L199.297,298.937z M221.21,183.808c0-4.984,3.811-9.034,8.504-9.034
		c4.706,0,8.506,4.049,8.506,9.034c0,4.996-3.8,9.039-8.506,9.039C225.021,192.847,221.21,188.804,221.21,183.808z"/>
</g>
<g>
</g>
<g>
</g>
<g>
</g>
<g>
</g>
<g>
</g>
<g>
</g>
<g>
</g>
<g>
</g>
<g>
</g>
<g>
</g>
<g>
</g>
<g>
</g>
<g>
</g>
<g>
</g>
<g>
</g>
</svg>
